<?xml version="1.0" encoding="UTF-8" standalone="no"?>
<!DOCTYPE svg PUBLIC "-//W3C//DTD SVG 1.1//EN" "http://www.w3.org/Graphics/SVG/1.1/DTD/svg11.dtd">
<svg xmlns="http://www.w3.org/2000/svg" version="1.1" viewBox="0.00 0.00 368.00 245.00">
<g stroke-width="2.00" fill="none" stroke-linecap="butt">
<path stroke="#bc8748" vector-effect="non-scaling-stroke" d="
  M 113.17 16.06
  Q 113.01 17.08 113.11 17.46"
/>
<path stroke="#c79351" vector-effect="non-scaling-stroke" d="
  M 113.11 17.46
  Q 111.58 17.29 110.68 18.74
  C 108.37 22.51 106.13 25.41 108.84 29.95
  C 110.22 32.27 110.19 35.61 111.10 38.24
  Q 111.25 38.69 111.73 38.70
  L 117.77 38.84
  A 0.56 0.55 56.8 0 1 118.00 38.89
  C 119.81 39.63 120.09 40.91 121.21 42.02
  Q 123.74 44.50 125.41 47.29
  A 1.12 1.11 -28.2 0 1 124.93 48.87
  Q 120.44 51.00 115.66 52.90
  Q 114.14 53.50 109.19 54.76
  Q 105.91 55.59 102.84 57.18"
/>
<path stroke="#c2a681" vector-effect="non-scaling-stroke" d="
  M 101.54 41.97
  Q 101.81 41.81 102.05 41.89
  Q 102.25 41.95 102.33 42.23
  Q 102.42 42.60 102.40 43.06"
/>
<path stroke="#c79351" vector-effect="non-scaling-stroke" d="
  M 102.40 43.06
  L 101.51 46.25
  Q 101.36 46.79 101.90 46.94
  L 102.24 47.02"
/>
<path stroke="#c79351" vector-effect="non-scaling-stroke" d="
  M 102.24 47.02
  Q 102.14 47.27 102.13 47.49
  Q 102.10 48.09 102.66 47.88
  Q 103.84 47.44 104.37 46.15"
/>
<path stroke="#bc8748" vector-effect="non-scaling-stroke" d="
  M 104.37 46.15
  Q 107.90 41.11 103.82 35.90"
/>
<path stroke="#c2a681" vector-effect="non-scaling-stroke" d="
  M 103.82 35.90
  Q 103.13 33.80 101.55 33.38"
/>
<path stroke="#e0bd9b" vector-effect="non-scaling-stroke" d="
  M 101.55 33.38
  Q 101.98 32.97 101.55 32.36
  Q 101.27 31.96 100.79 31.88
  Q 100.19 31.79 99.49 32.02"
/>
<path stroke="#b0793d" vector-effect="non-scaling-stroke" d="
  M 132.29 47.77
  Q 131.98 47.01 131.17 47.54
  Q 130.56 47.93 130.28 47.97
  Q 129.68 48.05 129.13 47.78
  A 0.35 0.35 0.0 0 1 129.21 47.12
  Q 130.55 46.84 130.88 45.56
  Q 130.99 45.10 130.71 44.73
  Q 129.84 43.54 128.39 43.09
  Q 127.98 42.96 127.69 42.64
  Q 127.05 41.94 126.15 41.53
  Q 125.70 41.33 125.22 41.39
  Q 124.68 41.46 124.60 40.95
  A 0.68 0.67 9.5 0 0 124.23 40.44
  C 123.06 39.87 122.13 38.93 120.87 38.67
  Q 117.64 38.01 114.22 37.73
  A 0.95 0.94 78.7 0 1 113.45 37.21
  Q 112.38 35.11 112.36 32.76
  Q 112.35 32.25 112.14 31.80
  C 110.91 29.08 108.87 25.62 110.38 22.36
  Q 111.55 19.84 113.11 17.46"
/>
<path stroke="#6f8b7d" vector-effect="non-scaling-stroke" d="
  M 292.09 99.06
  Q 291.41 99.37 290.59 99.11
  Q 290.17 98.97 290.06 98.54
  C 289.79 97.47 289.56 96.48 289.64 95.36
  C 290.15 88.71 289.54 81.20 289.68 75.55
  Q 289.94 65.15 290.12 54.75
  Q 290.13 54.11 289.67 52.23
  Q 289.58 51.87 289.24 52.03
  Q 289.10 52.10 289.00 52.23
  Q 288.86 52.42 288.88 52.80
  Q 289.42 65.31 288.34 77.60"
/>
<path stroke="#6f8b7d" vector-effect="non-scaling-stroke" d="
  M 283.58 73.40
  Q 279.86 64.07 279.49 56.00
  C 279.29 51.61 279.77 44.46 281.73 39.98
  C 282.75 37.64 283.36 35.87 285.09 33.95
  Q 286.52 32.36 288.23 30.68"
/>
<path stroke="#cec2c0" vector-effect="non-scaling-stroke" d="
  M 101.55 33.38
  Q 93.50 37.03 85.24 40.00
  C 80.92 41.55 76.85 43.77 72.57 45.57
  C 64.12 49.14 57.67 52.11 50.17 55.28
  C 47.44 56.43 41.87 59.56 40.96 62.31
  Q 40.80 62.79 40.49 63.18
  C 39.28 64.68 38.62 66.32 37.49 68.16
  C 35.19 71.91 34.60 77.98 34.72 81.75
  Q 35.14 95.77 35.05 109.80
  C 35.04 111.89 34.74 114.98 34.88 117.60
  C 35.28 124.70 34.71 132.21 35.20 138.25
  Q 36.12 149.69 35.83 157.24
  C 35.79 158.29 35.18 159.07 35.38 160.26
  Q 36.28 165.83 36.12 171.46
  Q 36.11 171.98 36.42 172.40
  Q 38.09 174.65 40.91 175.36
  A 0.53 0.53 0.0 0 0 41.26 174.36
  C 37.61 172.69 38.44 165.85 38.40 162.39
  Q 38.40 161.85 38.93 161.73
  L 39.47 161.62"
/>
<path stroke="#e9dedc" vector-effect="non-scaling-stroke" d="
  M 95.63 161.48
  Q 96.27 165.00 95.66 169.50
  Q 95.14 173.40 95.68 180.50
  Q 96.03 185.13 100.36 188.34
  Q 100.73 188.61 101.17 188.73
  L 107.98 190.61"
/>
<path stroke="#cec2c0" vector-effect="non-scaling-stroke" d="
  M 107.98 190.61
  Q 105.11 191.85 110.58 191.82"
/>
<path stroke="#e9dedc" vector-effect="non-scaling-stroke" d="
  M 110.58 191.82
  L 104.83 191.86
  Q 104.42 191.86 104.14 192.15
  C 102.55 193.76 96.20 192.02 95.07 195.81
  Q 93.06 202.55 90.97 209.25
  C 89.87 212.77 92.63 212.79 94.59 214.16"
/>
<path stroke="#cec2c0" vector-effect="non-scaling-stroke" d="
  M 94.59 214.16
  Q 93.65 215.68 97.25 215.69
  C 99.90 215.71 102.80 216.18 105.26 216.18
  Q 174.13 216.21 243.00 216.22
  Q 244.56 216.22 245.51 215.92"
/>
<path stroke="#9a8f8d" vector-effect="non-scaling-stroke" d="
  M 245.51 215.92
  L 257.25 215.43"
/>
<path stroke="#cec2c0" vector-effect="non-scaling-stroke" d="
  M 257.25 215.43
  C 264.10 216.22 266.66 213.80 271.96 210.24
  Q 272.37 209.96 272.37 209.46
  L 272.37 208.98
  Q 272.37 208.30 271.69 208.35
  Q 268.44 208.63 265.37 207.51
  Q 265.22 207.45 265.26 207.29
  L 265.33 207.00
  Q 265.42 206.62 265.82 206.57
  L 270.91 205.86
  Q 271.32 205.80 271.27 205.39
  Q 271.24 205.15 271.04 205.00
  Q 270.84 204.84 270.42 204.84
  Q 266.19 204.85 262.27 203.33
  C 261.50 203.03 260.94 203.13 260.13 203.13
  Q 259.72 203.13 259.46 202.81
  Q 258.59 201.74 257.33 202.92"
/>
<path stroke="#e4d9d7" vector-effect="non-scaling-stroke" d="
  M 257.33 202.92
  Q 257.32 202.98 257.30 203.04"
/>
<path stroke="#e9dedc" vector-effect="non-scaling-stroke" d="
  M 257.30 203.04
  C 257.17 199.96 256.45 193.63 252.51 193.09
  Q 248.90 192.60 246.69 191.87
  Q 246.09 191.67 246.62 191.34
  C 249.49 189.50 250.78 187.45 253.17 184.21
  Q 253.47 183.79 253.49 183.28
  Q 253.53 182.31 254.00 181.44
  A 1.20 1.17 -33.4 0 0 254.15 180.76
  Q 253.75 176.39 253.83 172.00
  Q 253.93 166.34 254.91 160.63"
/>
<path stroke="#bfc5c0" vector-effect="non-scaling-stroke" d="
  M 276.47 143.12
  L 284.02 143.87"
/>
<path stroke="#e4d9d7" vector-effect="non-scaling-stroke" d="
  M 284.02 143.87
  L 285.57 144.04
  Q 286.07 144.09 286.35 144.49
  Q 286.99 145.40 286.01 145.91
  A 0.85 0.84 80.3 0 0 285.57 146.54
  L 284.93 150.85
  Q 284.87 151.29 284.42 151.30
  L 280.03 151.44
  A 0.27 0.27 0.0 0 0 279.98 151.98
  L 281.01 152.21
  Q 284.68 153.03 280.90 153.85
  Q 280.28 153.98 278.47 153.85
  Q 278.18 153.83 278.26 154.11
  L 278.36 154.44
  Q 278.41 154.58 278.55 154.59
  L 284.86 155.08
  Q 285.44 155.13 285.10 155.60
  L 284.81 156.00
  A 0.30 0.27 -68.3 0 1 284.59 156.11
  L 279.56 156.16
  Q 279.49 156.16 279.50 156.22
  Q 279.51 156.37 279.51 156.54
  Q 279.51 156.61 279.58 156.61
  Q 281.18 156.61 282.79 156.92
  Q 283.20 157.00 283.24 157.42
  Q 283.60 161.46 283.36 164.25
  C 283.12 167.04 283.47 169.98 282.76 172.00
  Q 282.60 172.45 282.85 172.86
  Q 283.31 173.62 282.98 174.52"
/>
<path stroke="#cec2c0" vector-effect="non-scaling-stroke" d="
  M 282.98 174.52
  Q 279.25 173.78 275.73 174.51"
/>
<path stroke="#e9dedc" vector-effect="non-scaling-stroke" d="
  M 275.73 174.51
  Q 274.98 174.21 274.89 175.67
  Q 274.86 176.16 275.34 176.26
  Q 275.95 176.40 276.06 176.68"
/>
<path stroke="#cec2c0" vector-effect="non-scaling-stroke" d="
  M 276.06 176.68
  Q 275.89 176.68 275.78 176.78
  A 0.23 0.23 0.0 0 0 275.82 177.16
  Q 276.95 177.77 278.25 177.87
  Q 286.23 178.49 294.21 178.02"
/>
<path stroke="#9a8f8d" vector-effect="non-scaling-stroke" d="
  M 294.21 178.02
  L 309.79 177.15"
/>
<path stroke="#cec2c0" vector-effect="non-scaling-stroke" d="
  M 309.79 177.15
  Q 310.30 176.03 309.88 175.30
  Q 309.60 174.84 309.06 174.83
  L 304.84 174.78
  Q 304.41 174.78 304.42 174.35
  L 304.69 166.84
  Q 304.71 166.44 304.99 166.17
  Q 305.94 165.26 307.37 164.80"
/>
<path stroke="#c8d3d7" vector-effect="non-scaling-stroke" d="
  M 307.37 164.80
  C 309.36 163.74 311.36 165.46 312.25 167.03"
/>
<path stroke="#e9dedc" vector-effect="non-scaling-stroke" d="
  M 312.25 167.03
  Q 310.92 166.63 310.29 167.66
  Q 309.93 168.24 310.00 169.43
  Q 310.48 178.21 310.13 187.00
  Q 310.05 188.94 312.23 189.06
  Q 314.84 189.20 317.63 189.02"
/>
<path stroke="#e4d9d7" vector-effect="non-scaling-stroke" d="
  M 317.63 189.02
  Q 317.67 189.04 317.71 189.06"
/>
<path stroke="#cec2c0" vector-effect="non-scaling-stroke" d="
  M 317.71 189.06
  L 311.43 189.07
  Q 311.23 189.07 311.21 189.26
  L 311.19 189.56
  Q 311.15 190.04 311.63 190.11
  Q 317.47 190.86 325.50 190.68
  Q 340.31 190.35 354.88 189.00
  A 0.14 0.13 43.3 0 0 354.87 188.73
  L 336.80 187.91
  Q 335.97 187.87 335.96 187.04
  L 335.92 177.21
  A 1.04 1.04 0.0 0 1 337.02 176.17
  Q 341.22 176.42 345.19 175.21
  Q 348.72 174.13 345.03 174.13
  L 336.48 174.13
  A 0.60 0.59 -88.2 0 1 335.89 173.49
  Q 336.15 169.48 334.54 166.44"
/>
<path stroke="#a5b5bb" vector-effect="non-scaling-stroke" d="
  M 334.54 166.44
  C 338.28 163.22 341.02 169.37 343.92 169.24
  Q 344.88 169.19 345.19 168.04
  Q 345.32 167.57 345.06 167.16
  Q 342.54 163.21 337.46 162.71"
/>
<path stroke="#c8d3d7" vector-effect="non-scaling-stroke" d="
  M 337.46 162.71
  Q 337.59 161.50 338.66 161.01"
/>
<path stroke="#cec2c0" vector-effect="non-scaling-stroke" d="
  M 60.84 176.58
  C 52.18 177.15 43.44 177.48 34.81 178.35
  Q 30.87 178.74 26.93 179.03
  C 20.84 179.48 14.47 179.03 8.19 178.82
  Q 7.94 178.81 7.92 179.06
  L 7.87 179.47
  Q 7.84 179.72 8.09 179.77
  Q 11.76 180.44 17.00 180.59
  Q 40.05 181.23 59.25 180.46
  Q 62.09 180.35 66.71 179.15
  Q 67.30 179.00 66.73 178.79
  Q 66.39 178.66 65.99 178.71
  Q 63.71 178.96 63.55 176.96
  Q 63.52 176.45 63.06 176.23
  Q 62.31 175.87 61.69 176.29
  Q 61.30 176.55 60.84 176.58"
/>
<path stroke="#aa8c6d" vector-effect="non-scaling-stroke" d="
  M 103.82 35.90
  Q 103.08 36.16 102.44 37.54
  Q 102.25 37.95 102.30 38.40
  L 102.75 42.72"
/>
<path stroke="#b69875" vector-effect="non-scaling-stroke" d="
  M 102.75 42.72
  Q 102.44 42.60 102.40 43.06"
/>
<path stroke="#b0793d" vector-effect="non-scaling-stroke" d="
  M 104.37 46.15
  Q 103.70 45.29 103.26 46.42
  Q 103.11 46.81 102.70 46.87
  Q 102.45 46.90 102.24 47.02"
/>
<path stroke="#b0793d" vector-effect="non-scaling-stroke" d="
  M 102.24 47.02
  L 102.75 42.72"
/>
<path stroke="#6f8b7d" vector-effect="non-scaling-stroke" d="
  M 323.66 74.66
  Q 322.21 75.81 319.80 76.07
  Q 317.06 76.36 315.87 76.82
  C 307.44 80.15 299.16 86.97 295.83 95.68
  A 0.41 0.41 0.0 0 0 296.27 96.23
  Q 296.65 96.18 297.18 95.87
  C 301.72 93.23 305.16 89.99 309.97 87.01
  A 0.38 0.38 0.0 0 1 310.54 87.41
  L 310.44 87.84
  A 2.04 2.02 77.8 0 1 309.69 89.02
  C 307.81 90.46 305.77 91.66 303.98 93.33
  Q 299.94 97.08 295.30 100.07
  Q 292.87 101.63 291.23 103.87
  Q 289.93 105.64 289.83 108.43
  Q 289.58 114.82 289.84 120.94"
/>
<path stroke="#88a69a" vector-effect="non-scaling-stroke" d="
  M 289.84 120.94
  L 289.65 132.24
  Q 289.64 132.72 290.12 132.64
  Q 291.24 132.46 292.19 131.82"
/>
<path stroke="#6f8b7d" vector-effect="non-scaling-stroke" d="
  M 292.19 131.82
  L 292.69 131.58"
/>
<path stroke="#88a69a" vector-effect="non-scaling-stroke" d="
  M 296.37 128.62
  Q 299.82 126.73 302.09 123.88"
/>
<path stroke="#88a69a" vector-effect="non-scaling-stroke" d="
  M 303.06 122.62
  C 306.12 122.60 311.01 118.16 313.53 116.30
  Q 314.12 115.86 314.53 116.04
  Q 314.97 116.22 314.91 116.69
  L 314.79 117.68"
/>
<path stroke="#6f8b7d" vector-effect="non-scaling-stroke" d="
  M 314.79 117.68
  Q 313.57 119.40 311.89 119.44
  Q 311.40 119.46 311.01 119.74
  C 309.46 120.85 308.52 122.16 306.80 123.05
  C 302.94 125.05 301.39 128.53 297.85 130.53
  Q 296.43 131.33 295.46 132.20
  C 293.85 133.64 291.51 134.58 290.56 136.27
  C 289.31 138.50 289.67 141.24 289.56 143.80"
/>
<path stroke="#b7c4bd" vector-effect="non-scaling-stroke" d="
  M 289.56 143.80
  Q 286.56 143.35 284.02 143.87"
/>
<path stroke="#6f8b7d" vector-effect="non-scaling-stroke" d="
  M 282.57 120.72
  Q 281.58 119.77 279.88 120.44
  C 278.94 120.81 278.06 121.19 277.01 121.18
  Q 273.88 121.15 270.63 121.78"
/>
<path stroke="#bccac2" vector-effect="non-scaling-stroke" d="
  M 254.76 112.39
  L 254.79 94.55"
/>
<path stroke="#88a69a" vector-effect="non-scaling-stroke" d="
  M 284.76 109.69
  L 284.63 114.90
  A 1.24 1.24 0.0 0 1 282.65 115.86
  L 268.91 105.54
  Q 268.16 104.97 267.62 105.75
  L 267.46 105.99
  A 0.39 0.39 0.0 0 0 267.56 106.53
  Q 275.26 111.99 281.76 116.97
  Q 283.88 118.59 285.53 118.36"
/>
<path stroke="#9bbebd" vector-effect="non-scaling-stroke" d="
  M 255.17 66.05
  Q 256.84 65.62 257.51 65.70
  Q 261.12 66.17 264.32 68.12
  A 0.34 0.31 44.2 0 0 264.63 68.13
  Q 265.41 67.73 263.90 66.45"
/>
<path stroke="#6f8b7d" vector-effect="non-scaling-stroke" d="
  M 271.01 71.28
  Q 273.87 74.51 276.18 77.80
  C 277.78 80.09 278.49 82.49 279.23 85.18
  A 1.26 1.25 -81.9 0 0 279.78 85.92
  Q 282.25 87.40 284.48 89.06
  C 285.13 89.54 285.69 89.50 286.35 89.14"
/>
<path stroke="#6f8b7d" vector-effect="non-scaling-stroke" d="
  M 265.9178 72.6225
  A 1.63 0.99 61.5 0 0 266.0100 70.7176
  A 1.63 0.99 61.5 0 0 264.3622 69.7575
  A 1.63 0.99 61.5 0 0 264.2700 71.6624
  A 1.63 0.99 61.5 0 0 265.9178 72.6225"
/>
<path stroke="#6f8b7d" vector-effect="non-scaling-stroke" d="
  M 256.06 71.97
  A 0.31 0.31 0.0 0 0 255.96 72.47
  Q 256.49 73.05 257.30 72.83
  Q 257.96 72.66 257.46 72.20
  Q 256.85 71.63 256.06 71.97"
/>
<path stroke="#6f8b7d" vector-effect="non-scaling-stroke" d="
  M 274.17 78.29
  A 0.27 0.25 80.8 0 0 274.34 78.04
  Q 274.32 77.45 273.87 77.11
  A 0.46 0.46 0.0 0 0 273.18 77.27
  Q 272.94 77.77 273.28 78.23
  Q 273.50 78.53 274.17 78.29"
/>
<path stroke="#6f8b7d" vector-effect="non-scaling-stroke" d="
  M 266.49 81.25
  Q 264.89 81.26 265.08 82.75
  Q 265.24 84.04 267.04 83.76"
/>
<path stroke="#6f8b7d" vector-effect="non-scaling-stroke" d="
  M 266.69 98.25
  Q 266.51 97.10 265.16 97.08
  Q 264.66 97.08 264.38 97.49
  Q 263.21 99.21 264.89 100.05"
/>
<path stroke="#6f8b7d" vector-effect="non-scaling-stroke" d="
  M 276.76 103.99
  Q 276.17 102.77 275.27 103.52
  Q 273.86 104.71 274.91 105.31"
/>
<path stroke="#67756e" vector-effect="non-scaling-stroke" d="
  M 262.87 109.09
  Q 259.93 107.56 259.79 110.29"
/>
<path stroke="#6f8b7d" vector-effect="non-scaling-stroke" d="
  M 271.21 114.23
  Q 268.21 112.44 265.66 115.95
  Q 264.98 116.90 266.13 118.24"
/>
<path stroke="#e0ded9" vector-effect="non-scaling-stroke" d="
  M 257.30 203.04
  Q 257.35 205.08 256.18 206.88
  Q 255.90 207.32 255.38 207.36
  L 245.80 208.05
  Q 245.38 208.08 245.18 207.71
  Q 244.88 207.15 244.13 207.41
  Q 241.51 208.33 238.76 208.10
  C 237.92 208.03 236.58 208.91 235.37 208.89
  Q 226.09 208.78 210.50 209.17
  C 207.64 209.24 205.15 210.31 202.81 210.38
  C 200.21 210.47 197.61 210.14 195.07 210.37
  Q 192.91 210.57 190.74 210.64
  Q 170.62 211.31 150.50 211.69
  Q 140.25 211.89 130.00 211.86
  Q 129.87 211.86 129.68 212.00
  Q 129.48 212.15 129.24 212.15
  L 108.01 212.11
  Q 107.70 212.11 107.57 212.38
  Q 107.49 212.56 107.25 212.62
  Q 105.15 213.18 103.23 214.24
  Q 102.25 214.78 100.78 214.67"
/>
<path stroke="#cbc7c2" vector-effect="non-scaling-stroke" d="
  M 100.78 214.67
  Q 97.86 214.96 94.59 214.16"
/>
<path stroke="#cbc7c2" vector-effect="non-scaling-stroke" d="
  M 110.58 191.82
  Q 116.86 191.89 123.25 191.92
  Q 163.37 192.10 203.50 191.89
  C 207.51 191.87 211.66 192.10 215.49 192.00
  Q 228.45 191.68 241.37 191.61
  Q 241.55 191.61 241.55 191.43
  L 241.55 191.16
  A 0.43 0.42 0.0 0 0 241.12 190.74
  L 107.98 190.61"
/>
<path stroke="#918f8a" vector-effect="non-scaling-stroke" d="
  M 100.52 184.45
  Q 103.61 188.42 109.00 188.42
  Q 173.13 188.44 237.25 188.50
  C 244.88 188.51 251.83 187.06 251.80 177.50
  Q 251.65 132.17 251.42 86.83
  C 251.37 77.43 247.67 74.58 238.22 74.51
  Q 211.16 74.30 183.83 74.41"
/>
<path stroke="#96948f" vector-effect="non-scaling-stroke" d="
  M 183.83 74.41
  Q 147.57 74.32 111.00 74.40
  C 101.75 74.42 98.78 79.21 98.79 87.75
  Q 98.80 114.52 98.19 179.25
  Q 98.16 182.38 100.52 184.45"
/>
<path stroke="#423f3b" vector-effect="non-scaling-stroke" d="
  M 183.83 74.41
  Q 184.93 75.66 187.83 75.33
  A 0.95 0.95 0.0 0 1 188.58 75.57
  Q 189.38 76.32 190.50 76.18
  Q 190.59 76.17 190.63 76.25
  Q 190.69 76.37 190.74 76.48
  Q 190.82 76.63 190.69 76.73
  Q 189.74 77.45 189.47 78.62
  Q 189.45 78.74 189.56 78.79
  Q 189.61 78.82 189.66 78.84
  Q 189.79 78.88 189.79 78.99
  L 189.56 82.85
  Q 189.55 83.03 189.37 83.02
  Q 189.06 82.99 188.83 82.81
  Q 188.43 82.49 188.10 82.88
  Q 187.08 84.04 188.02 85.30
  Q 188.17 85.50 187.94 85.57
  Q 186.46 85.99 185.91 87.53
  A 0.37 0.36 16.0 0 0 186.18 88.01
  L 186.56 88.10
  Q 187.10 88.22 187.26 87.69
  Q 187.44 87.06 188.27 87.50
  Q 188.77 87.76 188.59 88.29
  Q 188.43 88.76 187.94 89.02
  Q 187.49 89.27 187.62 89.77
  Q 187.85 90.68 187.08 91.15
  A 0.39 0.39 0.0 0 0 187.28 91.87
  L 187.99 91.87
  Q 188.58 91.87 188.64 92.45
  C 188.82 94.05 187.52 94.85 186.03 94.60
  A 0.82 0.79 -70.4 0 0 185.20 95.01
  Q 184.50 96.28 185.10 97.63
  Q 185.63 98.83 185.88 97.53
  Q 185.90 97.42 186.27 97.28
  Q 186.82 97.07 186.80 97.66
  Q 186.78 98.54 187.38 99.16
  Q 187.73 99.52 187.37 99.88
  L 186.87 100.39
  Q 186.49 100.76 186.14 100.37
  Q 185.35 99.49 184.34 100.09
  Q 184.01 100.29 184.17 100.63
  Q 184.24 100.78 184.41 100.84
  Q 184.88 101.00 184.88 101.50
  L 184.88 104.69
  Q 184.88 105.16 184.60 105.53
  L 183.25 107.31
  A 0.35 0.34 41.7 0 0 183.28 107.77
  L 183.52 108.01
  Q 183.88 108.37 183.42 108.61
  C 182.26 109.21 181.43 109.99 181.10 111.36
  Q 180.41 114.20 178.85 116.70
  A 0.09 0.09 0.0 0 0 178.88 116.83
  Q 178.92 116.85 178.96 116.86
  Q 179.03 116.88 179.00 116.88
  Q 178.69 116.94 178.64 117.24
  A 0.46 0.44 -86.6 0 1 178.23 117.62
  C 176.48 117.74 173.81 117.03 172.37 117.92
  Q 171.89 118.22 171.32 118.22
  L 146.23 118.19
  A 0.88 0.88 0.0 0 0 145.36 118.93
  L 145.29 119.30
  Q 145.24 119.60 145.55 119.60
  L 164.46 119.69"
/>
<path stroke="#96948f" vector-effect="non-scaling-stroke" d="
  M 164.46 119.69
  Q 154.10 119.60 143.75 119.76
  Q 141.41 119.79 140.55 122.97"
/>
<path stroke="#7c7872" vector-effect="non-scaling-stroke" d="
  M 140.55 122.97
  L 140.08 122.49"
/>
<path stroke="#9a8f8d" vector-effect="non-scaling-stroke" d="
  M 140.08 122.49
  C 139.73 120.51 138.22 119.76 136.25 119.75
  Q 125.64 119.74 115.41 119.76
  A 3.73 3.73 0.0 0 0 111.69 123.50
  L 111.76 144.77
  A 3.49 3.48 0.1 0 0 115.23 148.24
  Q 125.27 148.30 135.92 148.19
  C 138.25 148.16 140.48 147.49 140.14 144.76"
/>
<path stroke="#7c7872" vector-effect="non-scaling-stroke" d="
  M 140.14 144.76
  Q 140.36 144.74 140.57 144.72"
/>
<path stroke="#96948f" vector-effect="non-scaling-stroke" d="
  M 140.57 144.72
  C 140.99 147.15 142.51 148.17 145.02 148.16
  Q 149.66 148.14 154.28 148.01"
/>
<path stroke="#918e8a" vector-effect="non-scaling-stroke" d="
  M 154.28 148.01
  L 205.22 148.04"
/>
<path stroke="#423f3b" vector-effect="non-scaling-stroke" d="
  M 205.22 148.04
  L 179.09 149.40
  Q 178.90 149.41 178.85 149.59
  Q 178.81 149.77 178.65 149.76
  Q 178.58 149.76 178.56 149.77
  C 173.73 150.96 168.97 150.31 164.24 150.68
  Q 163.77 150.71 163.37 150.98
  Q 162.22 151.77 161.21 151.04
  Q 160.82 150.76 160.36 150.87
  Q 159.92 150.98 159.66 151.34
  A 0.09 0.09 0.0 0 1 159.50 151.25
  Q 159.56 151.12 159.63 150.99
  A 0.20 0.20 0.0 0 0 159.49 150.71
  Q 157.90 150.43 156.53 151.26
  Q 156.41 151.33 156.29 151.27
  Q 156.16 151.21 156.02 151.14
  Q 155.71 150.98 155.47 151.24
  Q 155.00 151.76 155.12 152.43
  Q 155.20 152.86 154.76 152.86
  C 153.04 152.88 150.77 152.87 150.86 155.29
  A 0.78 0.77 69.0 0 1 150.59 155.90
  Q 149.86 156.55 150.18 157.60
  A 0.27 0.27 0.0 0 0 150.37 157.79
  L 151.61 158.15
  A 0.37 0.37 0.0 0 1 151.51 158.88
  L 149.69 158.88
  A 0.80 0.79 -81.6 0 0 148.93 159.45
  Q 148.81 159.84 148.89 160.26
  A 0.54 0.54 0.0 0 1 148.24 160.88
  Q 147.73 160.77 147.38 161.12
  Q 147.01 161.50 147.38 161.88
  L 147.62 162.12
  Q 148.05 162.55 147.48 162.76
  Q 145.39 163.55 144.01 165.40
  Q 143.68 165.83 143.83 166.36
  Q 144.44 168.51 142.75 169.55
  Q 142.31 169.82 141.80 169.86
  Q 141.07 169.91 140.92 170.76
  Q 140.74 171.82 141.52 172.29
  Q 142.12 172.65 141.46 172.88
  Q 140.55 173.21 140.90 174.23
  A 0.47 0.47 0.0 0 1 140.49 174.85
  Q 139.21 174.95 137.98 174.88
  Q 137.72 174.86 137.56 174.95
  Q 137.19 175.15 137.20 175.52
  Q 137.21 175.79 137.47 175.84
  Q 137.94 175.95 137.88 176.25
  Q 137.78 176.76 137.63 176.88
  Q 137.37 177.08 137.21 177.35
  A 0.43 0.42 -60.3 0 0 137.37 177.95
  Q 137.87 178.21 138.45 178.12
  A 0.46 0.45 3.6 0 1 138.96 178.69
  Q 138.41 180.68 139.58 182.17
  Q 139.88 182.55 139.88 183.03
  L 139.88 184.54
  A 0.47 0.46 -88.0 0 0 140.31 185.01
  Q 140.57 185.03 140.64 185.23
  Q 140.81 185.70 140.33 185.85
  C 137.44 186.71 134.82 186.39 131.86 186.67
  C 123.67 187.44 114.74 187.01 106.49 186.90
  A 1.73 1.71 62.7 0 1 105.54 186.59
  Q 103.24 184.96 100.52 184.45"
/>
<path stroke="#cec2c0" vector-effect="non-scaling-stroke" d="
  M 140.08 122.49
  L 140.14 144.76"
/>
<path stroke="#e0ded9" vector-effect="non-scaling-stroke" d="
  M 195.07 119.61
  Q 193.54 120.72 191.37 120.74
  C 187.76 120.78 185.07 121.15 181.86 121.30
  C 179.84 121.40 178.49 122.55 176.26 122.38
  Q 175.84 122.35 175.66 122.74
  L 174.43 125.46
  A 0.34 0.34 0.0 0 1 173.96 125.62
  Q 173.75 125.51 173.53 125.50
  A 0.17 0.16 -11.6 0 0 173.37 125.73
  Q 173.45 125.88 173.52 126.02
  Q 173.66 126.31 173.42 126.52
  Q 172.25 127.50 172.47 128.97
  Q 172.53 129.36 172.26 129.64
  L 169.32 132.72
  Q 169.13 132.91 169.40 132.97
  Q 169.70 133.03 169.62 133.29
  Q 169.52 133.68 169.18 133.47
  Q 168.87 133.29 168.59 133.26
  Q 168.38 133.23 168.28 133.43
  Q 168.18 133.65 168.28 133.79
  Q 168.58 134.20 168.21 134.54
  L 165.12 137.39
  Q 164.89 137.60 164.88 137.91
  Q 164.88 138.05 164.88 138.19
  Q 164.91 138.66 164.51 138.90
  Q 163.35 139.57 162.59 140.67
  A 0.25 0.25 0.0 0 1 162.13 140.55
  Q 162.10 140.32 161.88 140.14
  Q 161.66 139.95 161.53 140.21
  Q 161.46 140.34 161.40 140.49
  Q 161.21 140.93 160.73 140.88
  Q 158.90 140.66 158.92 142.52
  A 0.70 0.68 78.2 0 1 158.52 143.15
  Q 157.02 143.84 156.00 145.08
  Q 155.72 145.42 155.97 145.79
  Q 156.25 146.20 156.77 146.45
  Q 157.23 146.67 156.75 146.85
  Q 156.31 147.00 155.78 146.86
  Q 155.25 146.71 155.01 147.20
  Q 154.76 147.73 154.28 148.01"
/>
<path stroke="#cbc7c2" vector-effect="non-scaling-stroke" d="
  M 140.57 144.72
  L 140.55 122.97"
/>
<path stroke="#8c8985" vector-effect="non-scaling-stroke" d="
  M 205.22 148.04
  L 237.01 147.76
  A 3.52 3.51 89.8 0 0 240.49 144.25
  L 240.51 123.02
  A 3.52 3.52 0.0 0 0 236.98 119.50
  L 195.07 119.61"
/>
<path stroke="#918f8a" vector-effect="non-scaling-stroke" d="
  M 195.07 119.61
  L 164.46 119.69"
/>
<path stroke="#c4d8d9" vector-effect="non-scaling-stroke" d="
  M 108.84 202.63
  Q 108.21 204.38 111.75 204.43
  Q 116.34 204.49 120.97 204.33"
/>
<path stroke="#a1babd" vector-effect="non-scaling-stroke" d="
  M 120.97 204.33
  Q 122.83 204.31 124.77 204.26
  Q 125.77 204.23 126.20 203.88
  Q 126.93 203.31 126.42 202.25
  Q 126.19 201.76 126.70 201.59
  Q 127.28 201.40 127.74 201.74
  Q 128.14 202.04 128.13 202.47"
/>
<path stroke="#c4d8d9" vector-effect="non-scaling-stroke" d="
  M 128.13 202.47
  Q 127.70 203.24 127.89 203.57
  A 1.66 1.66 0.0 0 0 129.33 204.40
  L 184.29 204.36"
/>
<path stroke="#a1babd" vector-effect="non-scaling-stroke" d="
  M 184.29 204.36
  L 202.81 204.41
  A 0.97 0.96 80.1 0 0 203.72 203.11
  L 203.33 202.06
  Q 203.27 201.90 203.41 201.80
  L 203.67 201.62
  A 0.64 0.64 0.0 0 1 204.53 201.75
  Q 205.16 202.52 204.93 203.49
  A 0.60 0.60 0.0 0 0 205.51 204.22
  L 223.12 204.07"
/>
<path stroke="#c4d8d9" vector-effect="non-scaling-stroke" d="
  M 223.12 204.07
  L 228.52 204.39"
/>
<path stroke="#a1babd" vector-effect="non-scaling-stroke" d="
  M 228.52 204.39
  L 240.83 204.27
  A 0.92 0.92 0.0 0 0 241.49 202.73
  Q 240.55 201.73 241.56 200.70
  Q 241.84 200.42 241.49 200.22
  L 241.12 200.02
  Q 240.71 199.80 240.66 199.33
  L 240.20 195.16
  A 1.96 1.96 0.0 0 0 238.31 193.41
  Q 227.92 193.13 216.88 193.36
  Q 214.49 193.41 214.24 195.00
  Q 214.18 195.43 213.74 195.47
  C 213.00 195.54 211.72 193.19 209.75 193.18
  Q 203.50 193.12 197.24 193.32
  Q 195.52 193.37 195.55 194.91
  Q 195.56 195.35 195.16 195.53
  Q 194.75 195.70 194.45 195.30
  Q 192.84 193.17 190.51 193.14
  Q 184.15 193.08 177.83 193.45
  A 1.13 1.13 0.0 0 0 176.76 194.58
  Q 176.76 195.00 176.54 195.35
  A 0.48 0.47 47.6 0 1 175.72 195.31
  Q 174.81 193.54 173.51 193.40
  Q 169.73 192.98 160.50 193.37
  Q 158.03 193.47 158.05 195.39
  Q 158.05 195.62 157.81 195.63
  Q 157.66 195.63 157.51 195.65
  Q 157.06 195.70 156.84 195.31
  Q 155.78 193.47 153.00 193.35
  C 149.21 193.19 145.39 193.46 141.62 193.27
  Q 139.53 193.16 139.04 195.12
  Q 138.92 195.61 138.43 195.73
  Q 138.19 195.79 137.94 195.72
  Q 137.60 195.62 137.27 195.06
  Q 136.29 193.39 134.51 193.36
  Q 124.30 193.17 112.91 193.37
  Q 111.66 193.39 111.27 194.58
  L 110.33 197.36
  A 0.66 0.66 0.0 0 0 110.33 197.78
  Q 110.58 198.53 110.02 198.97
  A 0.94 0.94 0.0 0 0 109.66 199.73
  Q 109.69 201.21 108.84 202.63"
/>
<path stroke="#80aeb8" vector-effect="non-scaling-stroke" d="
  M 228.52 204.39
  Q 227.42 204.09 226.37 203.38
  A 1.50 1.46 -28.5 0 0 225.48 203.13
  Q 224.15 203.19 223.69 201.94
  A 0.75 0.74 73.4 0 0 222.83 201.47
  Q 222.36 201.56 222.35 202.00
  Q 222.33 202.71 223.12 204.07"
/>
<path stroke="#80aeb8" vector-effect="non-scaling-stroke" d="
  M 184.29 204.36
  Q 158.89 204.34 133.50 204.14
  Q 132.18 204.13 131.20 203.31
  Q 130.83 203.01 130.36 202.92
  L 128.13 202.47"
/>
<path stroke="#80aeb8" vector-effect="non-scaling-stroke" d="
  M 120.97 204.33
  C 118.04 204.26 114.47 204.59 111.69 203.62
  Q 110.24 203.12 108.84 202.63"
/>
<path stroke="#658172" vector-effect="non-scaling-stroke" d="
  M 292.19 131.82
  Q 291.16 131.75 290.45 130.97
  Q 290.10 130.60 290.09 130.09
  L 289.84 120.94"
/>
<path stroke="#658172" vector-effect="non-scaling-stroke" d="
  M 328.22 104.19
  Q 329.21 106.61 330.86 108.51
  Q 331.17 108.87 331.22 109.34
  Q 331.71 113.71 329.84 117.09
  Q 327.32 121.62 325.96 122.96
  Q 319.43 129.47 314.24 131.60
  Q 311.55 132.70 302.73 134.14"
/>
<path stroke="#658172" vector-effect="non-scaling-stroke" d="
  M 299.59 132.39
  L 316.50 119.52
  A 1.60 1.57 -57.0 0 0 315.93 116.70
  Q 315.56 116.62 314.79 117.68"
/>
<path stroke="#91b4b2" vector-effect="non-scaling-stroke" d="
  M 298.44 118.16
  L 298.60 118.44
  A 0.41 0.41 0.0 0 0 299.32 118.44
  Q 302.67 112.63 308.39 109.16
  Q 315.14 105.05 320.74 103.51"
/>
<path stroke="#658172" vector-effect="non-scaling-stroke" d="
  M 323.47 108.52
  Q 320.13 111.23 323.74 111.91"
/>
<path stroke="#658172" vector-effect="non-scaling-stroke" d="
  M 322.74 117.24
  Q 322.16 116.88 321.63 117.82
  Q 321.33 118.35 321.75 118.77
  Q 322.33 119.35 322.99 119.00"
/>
<path stroke="#658172" vector-effect="non-scaling-stroke" d="
  M 312.30 126.91
  Q 311.41 126.56 310.68 126.63
  A 0.68 0.67 75.3 0 0 310.13 127.58
  Q 310.81 129.12 312.00 128.79"
/>
<path stroke="#939f95" vector-effect="non-scaling-stroke" d="
  M 292.14 142.55
  Q 291.98 144.39 289.56 143.80"
/>
<path stroke="#c29ba0" vector-effect="non-scaling-stroke" d="
  M 122.97 138.25
  L 117.45 143.48
  A 0.54 0.54 0.0 0 0 117.50 144.30
  L 117.76 144.50
  A 0.92 0.92 0.0 0 0 118.96 144.40
  L 123.00 140.30
  A 1.48 1.47 -52.7 0 1 124.78 140.05
  Q 130.70 143.43 135.22 138.10
  C 138.80 133.88 135.74 127.63 130.79 126.37
  C 123.80 124.60 118.13 131.50 123.01 137.62
  Q 123.28 137.96 122.97 138.25"
/>
<path stroke="#c29ba0" vector-effect="non-scaling-stroke" d="
  M 124.23 138.84
  C 134.46 144.26 139.52 128.31 130.49 127.45
  Q 123.64 126.80 122.62 132.94
  C 122.34 134.67 123.15 136.37 123.60 138.05
  Q 123.74 138.58 124.23 138.84"
/>
<path stroke="#c6c2bd" vector-effect="non-scaling-stroke" d="
  M 300.24 143.00
  Q 298.06 144.80 293.75 144.64
  Q 292.76 144.60 291.79 145.47
  C 290.51 146.62 290.58 149.53 290.62 151.10
  A 0.72 0.69 65.8 0 1 290.44 151.60
  Q 289.83 152.28 288.99 152.16
  A 0.35 0.35 0.0 0 0 288.89 152.85
  Q 289.36 152.93 289.84 152.87
  A 0.19 0.17 66.2 0 1 290.02 152.95
  L 290.41 153.48
  Q 290.65 153.81 290.24 153.85
  L 286.33 154.21
  Q 286.27 154.22 286.24 154.27
  Q 286.18 154.39 286.12 154.51
  A 0.19 0.18 17.6 0 0 286.26 154.77
  L 288.62 155.18
  Q 288.87 155.22 288.87 155.47
  Q 288.87 155.66 288.86 155.85
  Q 288.86 156.03 288.68 156.06
  L 286.32 156.47
  Q 285.51 156.62 286.23 157.01
  Q 286.98 157.42 287.99 157.35"
/>
<path stroke="#e4d9d7" vector-effect="non-scaling-stroke" d="
  M 287.99 157.35
  Q 288.49 157.49 288.50 158.25
  Q 288.63 165.51 287.23 174.69"
/>
<path stroke="#c6c2bd" vector-effect="non-scaling-stroke" d="
  M 287.23 174.69
  L 282.98 174.52"
/>
<path stroke="#aabcbd" vector-effect="non-scaling-stroke" d="
  M 304.87 161.15
  L 300.61 165.50
  A 0.59 0.58 -42.7 0 0 300.57 166.28
  L 300.74 166.48
  Q 300.99 166.79 301.29 166.52
  C 302.45 165.44 303.91 163.93 305.56 163.70
  Q 308.29 163.31 307.37 164.80"
/>
<path stroke="#7c7872" vector-effect="non-scaling-stroke" d="
  M 309.79 177.15
  Q 310.05 175.87 309.60 175.80
  Q 306.24 175.24 303.18 176.31
  C 299.44 177.61 297.05 177.53 293.43 177.27"
/>
<path stroke="#cbc7c2" vector-effect="non-scaling-stroke" d="
  M 293.43 177.27
  Q 293.55 176.10 292.88 176.13
  Q 283.66 176.58 275.73 174.51"
/>
<path stroke="#cec2c0" vector-effect="non-scaling-stroke" d="
  M 287.23 174.69
  Q 289.29 165.75 288.70 158.01
  Q 288.64 157.13 287.99 157.35"
/>
<path stroke="#80aeb8" vector-effect="non-scaling-stroke" d="
  M 310.57 145.64
  Q 310.17 146.76 310.99 147.40
  Q 311.36 147.70 311.52 148.16
  C 312.67 151.56 316.01 152.81 317.34 155.99
  Q 317.79 157.08 318.34 158.21
  Q 318.63 158.79 317.99 158.69
  Q 313.89 158.09 310.63 160.44
  A 1.23 1.23 0.0 0 0 310.56 162.38
  Q 312.93 164.37 314.99 167.84"
/>
<path stroke="#c4d8d9" vector-effect="non-scaling-stroke" d="
  M 314.99 167.84
  Q 313.67 167.81 312.25 167.03"
/>
<path stroke="#80aeb8" vector-effect="non-scaling-stroke" d="
  M 329.98 152.89
  Q 329.44 153.31 329.14 153.24
  Q 328.89 153.18 328.85 152.63
  Q 328.57 149.34 328.60 145.50"
/>
<path stroke="#80aeb8" vector-effect="non-scaling-stroke" d="
  M 320.32 157.13
  Q 320.57 158.81 321.85 160.66
  Q 322.11 161.03 322.47 160.77
  Q 322.91 160.45 323.15 159.97
  A 0.50 0.50 0.0 0 1 324.08 160.05
  Q 324.32 160.86 323.79 161.84"
/>
<path stroke="#547b79" vector-effect="non-scaling-stroke" d="
  M 323.79 161.84
  L 323.84 161.07
  Q 323.88 160.23 323.27 160.80
  Q 321.57 162.38 321.88 164.69
  Q 321.95 165.19 321.69 165.63
  Q 321.14 166.58 321.52 167.80"
/>
<path stroke="#9cb4b8" vector-effect="non-scaling-stroke" d="
  M 321.52 167.80
  L 319.00 167.81"
/>
<path stroke="#a1babd" vector-effect="non-scaling-stroke" d="
  M 319.00 167.81
  L 314.99 167.84"
/>
<path stroke="#80aeb8" vector-effect="non-scaling-stroke" d="
  M 336.87 150.15
  Q 338.08 151.10 335.78 151.87
  C 330.18 153.73 326.57 157.26 324.69 163.01
  Q 324.60 163.29 324.38 163.38
  Q 323.98 163.54 323.90 163.12
  L 323.76 162.41"
/>
<path stroke="#779995" vector-effect="non-scaling-stroke" d="
  M 323.76 162.41
  L 323.79 161.84"
/>
<path stroke="#80aeb8" vector-effect="non-scaling-stroke" d="
  M 331.83 158.31
  Q 327.69 158.76 326.31 161.99
  Q 325.09 164.87 327.31 162.67
  Q 327.71 162.28 328.71 161.06
  Q 329.00 160.69 329.47 160.60
  C 331.39 160.21 334.45 160.12 335.24 162.47
  Q 335.38 162.90 335.84 162.86
  L 337.46 162.71"
/>
<path stroke="#879ea1" vector-effect="non-scaling-stroke" d="
  M 334.54 166.44
  Q 334.43 166.79 334.33 167.14"
/>
<path stroke="#547b79" vector-effect="non-scaling-stroke" d="
  M 334.33 167.14
  L 334.31 165.91
  Q 334.30 165.33 333.84 165.68
  Q 333.08 166.24 332.03 165.86
  Q 331.50 165.67 331.18 165.99
  Q 330.90 166.26 330.53 166.17
  Q 328.87 165.75 327.18 165.89
  Q 326.64 165.94 326.16 165.68
  Q 324.94 165.01 323.78 165.69
  Q 323.16 166.05 323.07 165.35
  Q 322.86 163.83 323.76 162.41"
/>
<path stroke="#7e897d" vector-effect="non-scaling-stroke" d="
  M 334.33 167.14
  Q 328.99 169.00 321.58 167.69"
/>
<path stroke="#939f95" vector-effect="non-scaling-stroke" d="
  M 321.58 167.69
  Q 321.55 167.75 321.52 167.80"
/>
<path stroke="#c6c2bd" vector-effect="non-scaling-stroke" d="
  M 317.71 189.06
  L 323.63 188.86
  Q 324.24 188.84 324.13 188.24
  Q 323.92 187.09 324.61 186.29
  A 1.15 1.11 -25.6 0 0 324.88 185.56
  Q 324.87 181.25 324.88 177.00
  Q 324.88 174.20 321.58 167.69"
/>
<path stroke="#e0ded9" vector-effect="non-scaling-stroke" d="
  M 319.00 167.81
  L 317.63 189.02"
/>
<path stroke="#96948f" vector-effect="non-scaling-stroke" d="
  M 293.43 177.27
  Q 292.55 177.50 292.07 177.12"
/>
<path stroke="#cbc7c2" vector-effect="non-scaling-stroke" d="
  M 292.07 177.12
  L 276.06 176.68"
/>
<path stroke="#7c7872" vector-effect="non-scaling-stroke" d="
  M 294.21 178.02
  L 290.61 177.93
  Q 290.40 177.93 290.42 177.74
  L 290.42 177.73
  Q 290.45 177.52 290.64 177.59
  Q 291.61 177.94 292.07 177.12"
/>
<path stroke="#a1babd" vector-effect="non-scaling-stroke" d="
  M 129.25 197.71
  Q 129.24 196.96 128.80 196.61
  A 0.69 0.69 0.0 0 0 127.70 197.32
  Q 127.93 198.26 128.78 198.21
  A 0.49 0.49 0.0 0 0 129.25 197.71"
/>
<path stroke="#9cb4b8" vector-effect="non-scaling-stroke" d="
  M 146.60 196.58
  Q 146.32 198.06 147.74 198.27
  A 0.50 0.50 0.0 0 0 148.31 197.75
  Q 148.24 196.34 146.87 196.36
  A 0.28 0.28 0.0 0 0 146.60 196.58"
/>
<path stroke="#9cb4b8" vector-effect="non-scaling-stroke" d="
  M 165.55 196.83
  Q 165.52 197.54 165.96 198.06
  A 0.71 0.70 21.0 0 0 167.20 197.51
  Q 167.06 196.54 166.17 196.35
  Q 165.58 196.23 165.55 196.83"
/>
<path stroke="#9cb4b8" vector-effect="non-scaling-stroke" d="
  M 185.9651 198.0514
  A 1.06 0.79 48.3 0 0 185.8498 196.7345
  A 1.06 0.79 48.3 0 0 184.5549 196.4686
  A 1.06 0.79 48.3 0 0 184.6702 197.7855
  A 1.06 0.79 48.3 0 0 185.9651 198.0514"
/>
<path stroke="#a5b5bb" vector-effect="non-scaling-stroke" d="
  M 204.8036 198.0817
  A 1.05 0.64 51.5 0 0 204.6509 196.8616
  A 1.05 0.64 51.5 0 0 203.4964 196.4383
  A 1.05 0.64 51.5 0 0 203.6491 197.6584
  A 1.05 0.64 51.5 0 0 204.8036 198.0817"
/>
<path stroke="#a5b5bb" vector-effect="non-scaling-stroke" d="
  M 223.63 197.76
  Q 223.48 196.82 222.65 196.39
  A 0.35 0.35 0.0 0 0 222.15 196.62
  Q 221.89 197.57 222.77 197.87
  Q 223.20 198.02 223.53 197.91
  A 0.13 0.13 0.0 0 0 223.63 197.76"
/>
<path stroke="#a1babd" vector-effect="non-scaling-stroke" d="
  M 136.73 199.09
  A 0.72 0.72 0.0 0 0 136.19 200.03
  Q 136.38 200.56 136.99 200.82
  A 1.00 1.00 0.0 0 0 138.39 199.85
  Q 138.33 198.77 136.73 199.09"
/>
<path stroke="#9cb4b8" vector-effect="non-scaling-stroke" d="
  M 155.64 199.22
  Q 155.72 200.63 156.91 200.69
  A 0.74 0.74 0.0 0 0 157.49 199.46
  Q 156.78 198.67 155.76 199.04
  A 0.19 0.17 81.7 0 0 155.64 199.22"
/>
<path stroke="#80aeb8" vector-effect="non-scaling-stroke" d="
  M 176.84 199.69
  Q 176.29 198.89 175.30 198.96
  Q 174.61 199.01 174.81 199.67
  Q 175.16 200.80 176.37 200.70
  A 0.65 0.64 70.0 0 0 176.84 199.69"
/>
<path stroke="#9cb4b8" vector-effect="non-scaling-stroke" d="
  M 196.0282 200.4525
  A 1.24 0.77 29.6 0 0 195.3303 199.1705
  A 1.24 0.77 29.6 0 0 193.8718 199.2275
  A 1.24 0.77 29.6 0 0 194.5697 200.5095
  A 1.24 0.77 29.6 0 0 196.0282 200.4525"
/>
<path stroke="#9cb4b8" vector-effect="non-scaling-stroke" d="
  M 215.1425 200.3812
  A 1.17 0.79 27.0 0 0 214.4587 199.1461
  A 1.17 0.79 27.0 0 0 213.0575 199.3188
  A 1.17 0.79 27.0 0 0 213.7413 200.5539
  A 1.17 0.79 27.0 0 0 215.1425 200.3812"
/>
<path stroke="#7c7872" vector-effect="non-scaling-stroke" d="
  M 257.25 215.43
  L 258.49 214.75
  A 0.59 0.58 63.4 0 0 258.74 213.98
  Q 258.39 213.21 257.22 213.63"
/>
<path stroke="#c6c2bd" vector-effect="non-scaling-stroke" d="
  M 257.22 213.63
  C 259.58 210.78 258.05 206.20 257.33 202.92"
/>
<path stroke="#918e8a" vector-effect="non-scaling-stroke" d="
  M 257.22 213.63
  L 245.29 215.26"
/>
<path stroke="#c6c2bd" vector-effect="non-scaling-stroke" d="
  M 245.29 215.26
  Q 242.90 215.09 240.50 215.08
  Q 175.06 214.88 109.61 214.87
  C 107.14 214.87 103.90 215.25 100.78 214.67"
/>
<path stroke="#7c7872" vector-effect="non-scaling-stroke" d="
  M 245.51 215.92
  Q 244.97 215.97 244.50 215.90
  Q 244.36 215.88 244.24 215.75
  Q 244.09 215.59 244.31 215.62
  Q 245.21 215.73 245.29 215.26"
/>
</g>
<path fill="#d3a05c" d="
  M 113.17 16.06
  Q 113.01 17.08 113.11 17.46
  Q 111.58 17.29 110.68 18.74
  C 108.37 22.51 106.13 25.41 108.84 29.95
  C 110.22 32.27 110.19 35.61 111.10 38.24
  Q 111.25 38.69 111.73 38.70
  L 117.77 38.84
  A 0.56 0.55 56.8 0 1 118.00 38.89
  C 119.81 39.63 120.09 40.91 121.21 42.02
  Q 123.74 44.50 125.41 47.29
  A 1.12 1.11 -28.2 0 1 124.93 48.87
  Q 120.44 51.00 115.66 52.90
  Q 114.14 53.50 109.19 54.76
  Q 105.91 55.59 102.84 57.18
  Q 99.55 57.96 96.19 57.01
  A 1.94 1.93 21.8 0 1 95.00 54.24
  L 101.54 41.97
  Q 101.81 41.81 102.05 41.89
  Q 102.25 41.95 102.33 42.23
  Q 102.42 42.60 102.40 43.06
  L 101.51 46.25
  Q 101.36 46.79 101.90 46.94
  L 102.24 47.02
  Q 102.14 47.27 102.13 47.49
  Q 102.10 48.09 102.66 47.88
  Q 103.84 47.44 104.37 46.15
  Q 107.90 41.11 103.82 35.90
  Q 103.13 33.80 101.55 33.38
  Q 101.98 32.97 101.55 32.36
  Q 101.27 31.96 100.79 31.88
  Q 100.19 31.79 99.49 32.02
  C 96.33 23.99 96.20 20.68 104.87 17.58
  Q 108.84 16.16 113.17 16.06
  Z"
/>
<path fill="#a46d34" d="
  M 113.17 16.06
  Q 116.70 16.96 118.29 22.00
  Q 120.16 27.97 121.86 33.45
  A 2.76 2.74 5.2 0 0 123.23 35.08
  Q 129.28 38.19 135.54 41.43
  C 138.95 43.19 133.95 46.90 132.29 47.77
  Q 131.98 47.01 131.17 47.54
  Q 130.56 47.93 130.28 47.97
  Q 129.68 48.05 129.13 47.78
  A 0.35 0.35 0.0 0 1 129.21 47.12
  Q 130.55 46.84 130.88 45.56
  Q 130.99 45.10 130.71 44.73
  Q 129.84 43.54 128.39 43.09
  Q 127.98 42.96 127.69 42.64
  Q 127.05 41.94 126.15 41.53
  Q 125.70 41.33 125.22 41.39
  Q 124.68 41.46 124.60 40.95
  A 0.68 0.67 9.5 0 0 124.23 40.44
  C 123.06 39.87 122.13 38.93 120.87 38.67
  Q 117.64 38.01 114.22 37.73
  A 0.95 0.94 78.7 0 1 113.45 37.21
  Q 112.38 35.11 112.36 32.76
  Q 112.35 32.25 112.14 31.80
  C 110.91 29.08 108.87 25.62 110.38 22.36
  Q 111.55 19.84 113.11 17.46
  Q 113.01 17.08 113.17 16.06
  Z"
/>
<path fill="#bb8545" d="
  M 113.11 17.46
  Q 111.55 19.84 110.38 22.36
  C 108.87 25.62 110.91 29.08 112.14 31.80
  Q 112.35 32.25 112.36 32.76
  Q 112.38 35.11 113.45 37.21
  A 0.95 0.94 78.7 0 0 114.22 37.73
  Q 117.64 38.01 120.87 38.67
  C 122.13 38.93 123.06 39.87 124.23 40.44
  A 0.68 0.67 9.5 0 1 124.60 40.95
  Q 124.68 41.46 125.22 41.39
  Q 125.70 41.33 126.15 41.53
  Q 127.05 41.94 127.69 42.64
  Q 127.98 42.96 128.39 43.09
  Q 129.84 43.54 130.71 44.73
  Q 130.99 45.10 130.88 45.56
  Q 130.55 46.84 129.21 47.12
  A 0.35 0.35 0.0 0 0 129.13 47.78
  Q 129.68 48.05 130.28 47.97
  Q 130.56 47.93 131.17 47.54
  Q 131.98 47.01 132.29 47.77
  Q 118.45 54.81 102.84 57.18
  Q 105.91 55.59 109.19 54.76
  Q 114.14 53.50 115.66 52.90
  Q 120.44 51.00 124.93 48.87
  A 1.12 1.11 -28.2 0 0 125.41 47.29
  Q 123.74 44.50 121.21 42.02
  C 120.09 40.91 119.81 39.63 118.00 38.89
  A 0.56 0.55 56.8 0 0 117.77 38.84
  L 111.73 38.70
  Q 111.25 38.69 111.10 38.24
  C 110.19 35.61 110.22 32.27 108.84 29.95
  C 106.13 25.41 108.37 22.51 110.68 18.74
  Q 111.58 17.29 113.11 17.46
  Z"
/>
<path fill="#4b6655" d="
  M 292.09 99.06
  Q 291.41 99.37 290.59 99.11
  Q 290.17 98.97 290.06 98.54
  C 289.79 97.47 289.56 96.48 289.64 95.36
  C 290.15 88.71 289.54 81.20 289.68 75.55
  Q 289.94 65.15 290.12 54.75
  Q 290.13 54.11 289.67 52.23
  Q 289.58 51.87 289.24 52.03
  Q 289.10 52.10 289.00 52.23
  Q 288.86 52.42 288.88 52.80
  Q 289.42 65.31 288.34 77.60
  Q 285.16 75.52 283.58 73.40
  Q 279.86 64.07 279.49 56.00
  C 279.29 51.61 279.77 44.46 281.73 39.98
  C 282.75 37.64 283.36 35.87 285.09 33.95
  Q 286.52 32.36 288.23 30.68
  Q 290.85 29.56 293.59 31.41
  C 304.46 38.77 304.54 70.02 292.66 76.72
  A 1.27 1.25 75.4 0 0 292.02 77.82
  L 292.09 99.06
  Z
  M 288.9736 37.6614
  A 1.96 1.06 80.2 0 0 289.6845 35.5496
  A 1.96 1.06 80.2 0 0 288.3064 33.7986
  A 1.96 1.06 80.2 0 0 287.5955 35.9104
  A 1.96 1.06 80.2 0 0 288.9736 37.6614
  Z
  M 286.9109 45.1443
  A 3.19 2.09 53.2 0 0 286.6735 41.3380
  A 3.19 2.09 53.2 0 0 283.0891 40.0357
  A 3.19 2.09 53.2 0 0 283.3265 43.8420
  A 3.19 2.09 53.2 0 0 286.9109 45.1443
  Z
  M 294.6442 51.8034
  A 4.10 2.03 112.3 0 0 298.0782 48.7803
  A 4.10 2.03 112.3 0 0 297.7558 44.2166
  A 4.10 2.03 112.3 0 0 294.3218 47.2397
  A 4.10 2.03 112.3 0 0 294.6442 51.8034
  Z
  M 284.8457 60.5454
  A 1.51 1.20 30.9 0 0 284.1662 58.7403
  A 1.51 1.20 30.9 0 0 282.2543 58.9946
  A 1.51 1.20 30.9 0 0 282.9338 60.7997
  A 1.51 1.20 30.9 0 0 284.8457 60.5454
  Z
  M 297.0404 64.2311
  A 1.12 0.89 -40.6 0 0 295.6108 64.2842
  A 1.12 0.89 -40.6 0 0 295.3396 65.6889
  A 1.12 0.89 -40.6 0 0 296.7692 65.6358
  A 1.12 0.89 -40.6 0 0 297.0404 64.2311
  Z"
/>
<path fill="#92b0a5" d="
  M 288.23 30.68
  Q 286.52 32.36 285.09 33.95
  C 283.36 35.87 282.75 37.64 281.73 39.98
  C 279.77 44.46 279.29 51.61 279.49 56.00
  Q 279.86 64.07 283.58 73.40
  Q 274.57 57.68 280.91 39.22
  Q 283.03 33.04 288.23 30.68
  Z"
/>
<path fill="#ecd9da" d="
  M 99.49 32.02
  Q 100.19 31.79 100.79 31.88
  Q 101.27 31.96 101.55 32.36
  Q 101.98 32.97 101.55 33.38
  Q 93.50 37.03 85.24 40.00
  C 80.92 41.55 76.85 43.77 72.57 45.57
  C 64.12 49.14 57.67 52.11 50.17 55.28
  C 47.44 56.43 41.87 59.56 40.96 62.31
  Q 40.80 62.79 40.49 63.18
  C 39.28 64.68 38.62 66.32 37.49 68.16
  C 35.19 71.91 34.60 77.98 34.72 81.75
  Q 35.14 95.77 35.05 109.80
  C 35.04 111.89 34.74 114.98 34.88 117.60
  C 35.28 124.70 34.71 132.21 35.20 138.25
  Q 36.12 149.69 35.83 157.24
  C 35.79 158.29 35.18 159.07 35.38 160.26
  Q 36.28 165.83 36.12 171.46
  Q 36.11 171.98 36.42 172.40
  Q 38.09 174.65 40.91 175.36
  A 0.53 0.53 0.0 0 0 41.26 174.36
  C 37.61 172.69 38.44 165.85 38.40 162.39
  Q 38.40 161.85 38.93 161.73
  L 39.47 161.62
  L 95.63 161.48
  Q 96.27 165.00 95.66 169.50
  Q 95.14 173.40 95.68 180.50
  Q 96.03 185.13 100.36 188.34
  Q 100.73 188.61 101.17 188.73
  L 107.98 190.61
  Q 105.11 191.85 110.58 191.82
  L 104.83 191.86
  Q 104.42 191.86 104.14 192.15
  C 102.55 193.76 96.20 192.02 95.07 195.81
  Q 93.06 202.55 90.97 209.25
  C 89.87 212.77 92.63 212.79 94.59 214.16
  Q 93.65 215.68 97.25 215.69
  C 99.90 215.71 102.80 216.18 105.26 216.18
  Q 174.13 216.21 243.00 216.22
  Q 244.56 216.22 245.51 215.92
  L 257.25 215.43
  C 264.10 216.22 266.66 213.80 271.96 210.24
  Q 272.37 209.96 272.37 209.46
  L 272.37 208.98
  Q 272.37 208.30 271.69 208.35
  Q 268.44 208.63 265.37 207.51
  Q 265.22 207.45 265.26 207.29
  L 265.33 207.00
  Q 265.42 206.62 265.82 206.57
  L 270.91 205.86
  Q 271.32 205.80 271.27 205.39
  Q 271.24 205.15 271.04 205.00
  Q 270.84 204.84 270.42 204.84
  Q 266.19 204.85 262.27 203.33
  C 261.50 203.03 260.94 203.13 260.13 203.13
  Q 259.72 203.13 259.46 202.81
  Q 258.59 201.74 257.33 202.92
  Q 257.32 202.98 257.30 203.04
  C 257.17 199.96 256.45 193.63 252.51 193.09
  Q 248.90 192.60 246.69 191.87
  Q 246.09 191.67 246.62 191.34
  C 249.49 189.50 250.78 187.45 253.17 184.21
  Q 253.47 183.79 253.49 183.28
  Q 253.53 182.31 254.00 181.44
  A 1.20 1.17 -33.4 0 0 254.15 180.76
  Q 253.75 176.39 253.83 172.00
  Q 253.93 166.34 254.91 160.63
  Q 254.96 160.77 255.00 160.88
  Q 255.14 161.20 255.48 161.20
  L 274.50 161.11
  Q 275.02 161.11 275.04 160.59
  Q 275.16 157.23 275.36 153.87
  Q 275.40 153.29 275.23 152.84
  Q 275.06 152.39 275.28 151.97
  Q 275.53 151.49 275.35 150.97
  Q 275.06 150.17 275.04 150.01
  Q 274.48 144.91 276.47 143.12
  L 284.02 143.87
  L 285.57 144.04
  Q 286.07 144.09 286.35 144.49
  Q 286.99 145.40 286.01 145.91
  A 0.85 0.84 80.3 0 0 285.57 146.54
  L 284.93 150.85
  Q 284.87 151.29 284.42 151.30
  L 280.03 151.44
  A 0.27 0.27 0.0 0 0 279.98 151.98
  L 281.01 152.21
  Q 284.68 153.03 280.90 153.85
  Q 280.28 153.98 278.47 153.85
  Q 278.18 153.83 278.26 154.11
  L 278.36 154.44
  Q 278.41 154.58 278.55 154.59
  L 284.86 155.08
  Q 285.44 155.13 285.10 155.60
  L 284.81 156.00
  A 0.30 0.27 -68.3 0 1 284.59 156.11
  L 279.56 156.16
  Q 279.49 156.16 279.50 156.22
  Q 279.51 156.37 279.51 156.54
  Q 279.51 156.61 279.58 156.61
  Q 281.18 156.61 282.79 156.92
  Q 283.20 157.00 283.24 157.42
  Q 283.60 161.46 283.36 164.25
  C 283.12 167.04 283.47 169.98 282.76 172.00
  Q 282.60 172.45 282.85 172.86
  Q 283.31 173.62 282.98 174.52
  Q 279.25 173.78 275.73 174.51
  Q 274.98 174.21 274.89 175.67
  Q 274.86 176.16 275.34 176.26
  Q 275.95 176.40 276.06 176.68
  Q 275.89 176.68 275.78 176.78
  A 0.23 0.23 0.0 0 0 275.82 177.16
  Q 276.95 177.77 278.25 177.87
  Q 286.23 178.49 294.21 178.02
  L 309.79 177.15
  Q 310.30 176.03 309.88 175.30
  Q 309.60 174.84 309.06 174.83
  L 304.84 174.78
  Q 304.41 174.78 304.42 174.35
  L 304.69 166.84
  Q 304.71 166.44 304.99 166.17
  Q 305.94 165.26 307.37 164.80
  C 309.36 163.74 311.36 165.46 312.25 167.03
  Q 310.92 166.63 310.29 167.66
  Q 309.93 168.24 310.00 169.43
  Q 310.48 178.21 310.13 187.00
  Q 310.05 188.94 312.23 189.06
  Q 314.84 189.20 317.63 189.02
  Q 317.67 189.04 317.71 189.06
  L 311.43 189.07
  Q 311.23 189.07 311.21 189.26
  L 311.19 189.56
  Q 311.15 190.04 311.63 190.11
  Q 317.47 190.86 325.50 190.68
  Q 340.31 190.35 354.88 189.00
  A 0.14 0.13 43.3 0 0 354.87 188.73
  L 336.80 187.91
  Q 335.97 187.87 335.96 187.04
  L 335.92 177.21
  A 1.04 1.04 0.0 0 1 337.02 176.17
  Q 341.22 176.42 345.19 175.21
  Q 348.72 174.13 345.03 174.13
  L 336.48 174.13
  A 0.60 0.59 -88.2 0 1 335.89 173.49
  Q 336.15 169.48 334.54 166.44
  C 338.28 163.22 341.02 169.37 343.92 169.24
  Q 344.88 169.19 345.19 168.04
  Q 345.32 167.57 345.06 167.16
  Q 342.54 163.21 337.46 162.71
  Q 337.59 161.50 338.66 161.01
  L 368.00 160.93
  L 368.00 245.00
  L 0.00 245.00
  L 0.00 161.74
  L 32.16 161.65
  A 0.39 0.39 0.0 0 0 32.54 161.26
  Q 32.48 120.38 32.53 79.51
  Q 32.55 67.26 40.59 59.89
  Q 44.08 56.69 54.75 52.04
  Q 76.92 42.38 98.99 32.55
  Q 99.52 32.31 99.49 32.02
  Z
  M 60.84 176.58
  C 52.18 177.15 43.44 177.48 34.81 178.35
  Q 30.87 178.74 26.93 179.03
  C 20.84 179.48 14.47 179.03 8.19 178.82
  Q 7.94 178.81 7.92 179.06
  L 7.87 179.47
  Q 7.84 179.72 8.09 179.77
  Q 11.76 180.44 17.00 180.59
  Q 40.05 181.23 59.25 180.46
  Q 62.09 180.35 66.71 179.15
  Q 67.30 179.00 66.73 178.79
  Q 66.39 178.66 65.99 178.71
  Q 63.71 178.96 63.55 176.96
  Q 63.52 176.45 63.06 176.23
  Q 62.31 175.87 61.69 176.29
  Q 61.30 176.55 60.84 176.58
  Z"
/>
<path fill="#b0aba5" d="
  M 101.55 33.38
  Q 103.13 33.80 103.82 35.90
  Q 103.08 36.16 102.44 37.54
  Q 102.25 37.95 102.30 38.40
  L 102.75 42.72
  Q 102.44 42.60 102.40 43.06
  Q 102.42 42.60 102.33 42.23
  Q 102.25 41.95 102.05 41.89
  Q 101.81 41.81 101.54 41.97
  Q 102.35 40.08 101.37 38.60
  Q 101.08 38.16 100.60 38.37
  Q 75.44 49.50 50.24 60.55
  Q 38.71 65.60 38.65 79.26
  Q 38.48 120.07 38.54 160.91
  Q 38.54 161.36 38.76 161.51
  Q 39.02 161.69 39.47 161.62
  L 38.93 161.73
  Q 38.40 161.85 38.40 162.39
  C 38.44 165.85 37.61 172.69 41.26 174.36
  A 0.53 0.53 0.0 0 1 40.91 175.36
  Q 38.09 174.65 36.42 172.40
  Q 36.11 171.98 36.12 171.46
  Q 36.28 165.83 35.38 160.26
  C 35.18 159.07 35.79 158.29 35.83 157.24
  Q 36.12 149.69 35.20 138.25
  C 34.71 132.21 35.28 124.70 34.88 117.60
  C 34.74 114.98 35.04 111.89 35.05 109.80
  Q 35.14 95.77 34.72 81.75
  C 34.60 77.98 35.19 71.91 37.49 68.16
  C 38.62 66.32 39.28 64.68 40.49 63.18
  Q 40.80 62.79 40.96 62.31
  C 41.87 59.56 47.44 56.43 50.17 55.28
  C 57.67 52.11 64.12 49.14 72.57 45.57
  C 76.85 43.77 80.92 41.55 85.24 40.00
  Q 93.50 37.03 101.55 33.38
  Z"
/>
<path fill="#a46d34" d="
  M 103.82 35.90
  Q 107.90 41.11 104.37 46.15
  Q 103.70 45.29 103.26 46.42
  Q 103.11 46.81 102.70 46.87
  Q 102.45 46.90 102.24 47.02
  L 102.75 42.72
  L 102.30 38.40
  Q 102.25 37.95 102.44 37.54
  Q 103.08 36.16 103.82 35.90
  Z"
/>
<path fill="#bb8545" d="
  M 102.75 42.72
  L 102.24 47.02
  L 101.90 46.94
  Q 101.36 46.79 101.51 46.25
  L 102.40 43.06
  Q 102.44 42.60 102.75 42.72
  Z"
/>
<path fill="#bb8545" d="
  M 104.37 46.15
  Q 103.84 47.44 102.66 47.88
  Q 102.10 48.09 102.13 47.49
  Q 102.14 47.27 102.24 47.02
  Q 102.45 46.90 102.70 46.87
  Q 103.11 46.81 103.26 46.42
  Q 103.70 45.29 104.37 46.15
  Z"
/>
<path fill="#92b0a5" d="
  M 292.09 99.06
  C 294.10 98.79 294.96 97.89 295.11 95.77
  C 295.76 86.41 314.48 72.69 323.66 74.66
  Q 322.21 75.81 319.80 76.07
  Q 317.06 76.36 315.87 76.82
  C 307.44 80.15 299.16 86.97 295.83 95.68
  A 0.41 0.41 0.0 0 0 296.27 96.23
  Q 296.65 96.18 297.18 95.87
  C 301.72 93.23 305.16 89.99 309.97 87.01
  A 0.38 0.38 0.0 0 1 310.54 87.41
  L 310.44 87.84
  A 2.04 2.02 77.8 0 1 309.69 89.02
  C 307.81 90.46 305.77 91.66 303.98 93.33
  Q 299.94 97.08 295.30 100.07
  Q 292.87 101.63 291.23 103.87
  Q 289.93 105.64 289.83 108.43
  Q 289.58 114.82 289.84 120.94
  L 289.65 132.24
  Q 289.64 132.72 290.12 132.64
  Q 291.24 132.46 292.19 131.82
  L 292.69 131.58
  Q 295.02 130.65 296.37 128.62
  Q 299.82 126.73 302.09 123.88
  Q 303.15 123.38 303.06 122.62
  C 306.12 122.60 311.01 118.16 313.53 116.30
  Q 314.12 115.86 314.53 116.04
  Q 314.97 116.22 314.91 116.69
  L 314.79 117.68
  Q 313.57 119.40 311.89 119.44
  Q 311.40 119.46 311.01 119.74
  C 309.46 120.85 308.52 122.16 306.80 123.05
  C 302.94 125.05 301.39 128.53 297.85 130.53
  Q 296.43 131.33 295.46 132.20
  C 293.85 133.64 291.51 134.58 290.56 136.27
  C 289.31 138.50 289.67 141.24 289.56 143.80
  Q 286.56 143.35 284.02 143.87
  L 276.47 143.12
  L 287.19 142.47
  Q 287.71 142.44 287.72 141.92
  Q 287.82 134.52 287.61 127.13
  C 287.52 123.93 284.82 122.63 282.57 120.72
  Q 281.58 119.77 279.88 120.44
  C 278.94 120.81 278.06 121.19 277.01 121.18
  Q 273.88 121.15 270.63 121.78
  Q 261.62 119.73 254.76 112.39
  L 254.79 94.55
  C 265.73 90.53 280.95 99.19 284.76 109.69
  L 284.63 114.90
  A 1.24 1.24 0.0 0 1 282.65 115.86
  L 268.91 105.54
  Q 268.16 104.97 267.62 105.75
  L 267.46 105.99
  A 0.39 0.39 0.0 0 0 267.56 106.53
  Q 275.26 111.99 281.76 116.97
  Q 283.88 118.59 285.53 118.36
  Q 286.54 119.23 287.18 119.22
  A 0.55 0.55 0.0 0 0 287.72 118.67
  L 287.74 96.91
  A 3.54 3.54 0.0 0 0 286.31 94.07
  L 279.88 89.35
  Q 279.45 89.03 278.94 89.23
  Q 275.63 90.54 273.01 89.48
  Q 260.86 84.55 254.83 72.93
  Q 253.39 70.14 253.75 68.01
  Q 254.07 66.11 255.17 66.05
  Q 256.84 65.62 257.51 65.70
  Q 261.12 66.17 264.32 68.12
  A 0.34 0.31 44.2 0 0 264.63 68.13
  Q 265.41 67.73 263.90 66.45
  Q 268.23 68.36 271.01 71.28
  Q 273.87 74.51 276.18 77.80
  C 277.78 80.09 278.49 82.49 279.23 85.18
  A 1.26 1.25 -81.9 0 0 279.78 85.92
  Q 282.25 87.40 284.48 89.06
  C 285.13 89.54 285.69 89.50 286.35 89.14
  Q 286.72 89.49 286.93 89.47
  A 0.84 0.83 -4.4 0 0 287.71 88.57
  Q 287.28 83.07 288.34 77.60
  Q 289.42 65.31 288.88 52.80
  Q 288.86 52.42 289.00 52.23
  Q 289.10 52.10 289.24 52.03
  Q 289.58 51.87 289.67 52.23
  Q 290.13 54.11 290.12 54.75
  Q 289.94 65.15 289.68 75.55
  C 289.54 81.20 290.15 88.71 289.64 95.36
  C 289.56 96.48 289.79 97.47 290.06 98.54
  Q 290.17 98.97 290.59 99.11
  Q 291.41 99.37 292.09 99.06
  Z
  M 265.9178 72.6225
  A 1.63 0.99 61.5 0 0 266.0100 70.7176
  A 1.63 0.99 61.5 0 0 264.3622 69.7575
  A 1.63 0.99 61.5 0 0 264.2700 71.6624
  A 1.63 0.99 61.5 0 0 265.9178 72.6225
  Z
  M 256.06 71.97
  A 0.31 0.31 0.0 0 0 255.96 72.47
  Q 256.49 73.05 257.30 72.83
  Q 257.96 72.66 257.46 72.20
  Q 256.85 71.63 256.06 71.97
  Z
  M 274.17 78.29
  A 0.27 0.25 80.8 0 0 274.34 78.04
  Q 274.32 77.45 273.87 77.11
  A 0.46 0.46 0.0 0 0 273.18 77.27
  Q 272.94 77.77 273.28 78.23
  Q 273.50 78.53 274.17 78.29
  Z
  M 266.49 81.25
  Q 264.89 81.26 265.08 82.75
  Q 265.24 84.04 267.04 83.76
  Q 268.43 84.90 268.96 83.41
  A 1.71 1.70 -63.2 0 0 268.31 81.41
  Q 267.26 80.70 266.49 81.25
  Z
  M 264.89 100.05
  Q 266.03 101.41 267.01 101.23
  Q 268.09 101.03 268.01 99.89
  Q 267.95 98.98 266.69 98.25
  Q 266.51 97.10 265.16 97.08
  Q 264.66 97.08 264.38 97.49
  Q 263.21 99.21 264.89 100.05
  Z
  M 274.91 105.31
  Q 275.44 106.08 276.24 105.51
  Q 277.12 104.88 276.76 103.99
  Q 276.17 102.77 275.27 103.52
  Q 273.86 104.71 274.91 105.31
  Z
  M 259.79 110.29
  Q 261.54 111.29 262.98 110.22
  Q 263.42 109.89 263.15 109.41
  Q 263.05 109.24 262.87 109.09
  Q 259.93 107.56 259.79 110.29
  Z
  M 266.13 118.24
  Q 272.20 118.83 271.21 114.23
  Q 268.21 112.44 265.66 115.95
  Q 264.98 116.90 266.13 118.24
  Z"
/>
<path fill="#a3ccd4" d="
  M 263.90 66.45
  Q 265.41 67.73 264.63 68.13
  A 0.34 0.31 44.2 0 1 264.32 68.12
  Q 261.12 66.17 257.51 65.70
  Q 256.84 65.62 255.17 66.05
  C 257.07 63.62 261.79 65.24 263.90 66.45
  Z"
/>
<ellipse fill="#4b6655" cx="0.00" cy="0.00" transform="translate(265.14,71.19) rotate(61.5)" rx="1.63" ry="0.99"/>
<path fill="#4b6655" d="
  M 271.01 71.28
  Q 278.13 76.62 280.74 84.76
  Q 280.90 85.25 281.31 85.55
  L 286.35 89.14
  C 285.69 89.50 285.13 89.54 284.48 89.06
  Q 282.25 87.40 279.78 85.92
  A 1.26 1.25 -81.9 0 1 279.23 85.18
  C 278.49 82.49 277.78 80.09 276.18 77.80
  Q 273.87 74.51 271.01 71.28
  Z"
/>
<path fill="#e5e3de" d="
  M 254.79 94.55
  L 254.76 112.39
  L 254.91 160.63
  Q 253.93 166.34 253.83 172.00
  Q 253.75 176.39 254.15 180.76
  A 1.20 1.17 -33.4 0 1 254.00 181.44
  Q 253.53 182.31 253.49 183.28
  Q 253.47 183.79 253.17 184.21
  C 250.78 187.45 249.49 189.50 246.62 191.34
  Q 246.09 191.67 246.69 191.87
  Q 248.90 192.60 252.51 193.09
  C 256.45 193.63 257.17 199.96 257.30 203.04
  Q 257.35 205.08 256.18 206.88
  Q 255.90 207.32 255.38 207.36
  L 245.80 208.05
  Q 245.38 208.08 245.18 207.71
  Q 244.88 207.15 244.13 207.41
  Q 241.51 208.33 238.76 208.10
  C 237.92 208.03 236.58 208.91 235.37 208.89
  Q 226.09 208.78 210.50 209.17
  C 207.64 209.24 205.15 210.31 202.81 210.38
  C 200.21 210.47 197.61 210.14 195.07 210.37
  Q 192.91 210.57 190.74 210.64
  Q 170.62 211.31 150.50 211.69
  Q 140.25 211.89 130.00 211.86
  Q 129.87 211.86 129.68 212.00
  Q 129.48 212.15 129.24 212.15
  L 108.01 212.11
  Q 107.70 212.11 107.57 212.38
  Q 107.49 212.56 107.25 212.62
  Q 105.15 213.18 103.23 214.24
  Q 102.25 214.78 100.78 214.67
  Q 97.86 214.96 94.59 214.16
  C 92.63 212.79 89.87 212.77 90.97 209.25
  Q 93.06 202.55 95.07 195.81
  C 96.20 192.02 102.55 193.76 104.14 192.15
  Q 104.42 191.86 104.83 191.86
  L 110.58 191.82
  Q 116.86 191.89 123.25 191.92
  Q 163.37 192.10 203.50 191.89
  C 207.51 191.87 211.66 192.10 215.49 192.00
  Q 228.45 191.68 241.37 191.61
  Q 241.55 191.61 241.55 191.43
  L 241.55 191.16
  A 0.43 0.42 0.0 0 0 241.12 190.74
  L 107.98 190.61
  L 101.17 188.73
  Q 100.73 188.61 100.36 188.34
  Q 96.03 185.13 95.68 180.50
  Q 95.14 173.40 95.66 169.50
  Q 96.27 165.00 95.63 161.48
  Q 96.05 125.97 96.31 90.87
  Q 96.37 82.84 97.90 79.62
  C 101.14 72.85 107.12 72.10 114.59 72.10
  Q 175.53 72.11 236.47 72.09
  Q 243.65 72.08 246.82 73.54
  Q 252.44 76.13 254.11 82.51
  C 254.98 85.84 254.35 90.57 254.79 94.55
  Z
  M 100.52 184.45
  Q 103.61 188.42 109.00 188.42
  Q 173.13 188.44 237.25 188.50
  C 244.88 188.51 251.83 187.06 251.80 177.50
  Q 251.65 132.17 251.42 86.83
  C 251.37 77.43 247.67 74.58 238.22 74.51
  Q 211.16 74.30 183.83 74.41
  Q 147.57 74.32 111.00 74.40
  C 101.75 74.42 98.78 79.21 98.79 87.75
  Q 98.80 114.52 98.19 179.25
  Q 98.16 182.38 100.52 184.45
  Z
  M 108.84 202.63
  Q 108.21 204.38 111.75 204.43
  Q 116.34 204.49 120.97 204.33
  Q 122.83 204.31 124.77 204.26
  Q 125.77 204.23 126.20 203.88
  Q 126.93 203.31 126.42 202.25
  Q 126.19 201.76 126.70 201.59
  Q 127.28 201.40 127.74 201.74
  Q 128.14 202.04 128.13 202.47
  Q 127.70 203.24 127.89 203.57
  A 1.66 1.66 0.0 0 0 129.33 204.40
  L 184.29 204.36
  L 202.81 204.41
  A 0.97 0.96 80.1 0 0 203.72 203.11
  L 203.33 202.06
  Q 203.27 201.90 203.41 201.80
  L 203.67 201.62
  A 0.64 0.64 0.0 0 1 204.53 201.75
  Q 205.16 202.52 204.93 203.49
  A 0.60 0.60 0.0 0 0 205.51 204.22
  L 223.12 204.07
  L 228.52 204.39
  L 240.83 204.27
  A 0.92 0.92 0.0 0 0 241.49 202.73
  Q 240.55 201.73 241.56 200.70
  Q 241.84 200.42 241.49 200.22
  L 241.12 200.02
  Q 240.71 199.80 240.66 199.33
  L 240.20 195.16
  A 1.96 1.96 0.0 0 0 238.31 193.41
  Q 227.92 193.13 216.88 193.36
  Q 214.49 193.41 214.24 195.00
  Q 214.18 195.43 213.74 195.47
  C 213.00 195.54 211.72 193.19 209.75 193.18
  Q 203.50 193.12 197.24 193.32
  Q 195.52 193.37 195.55 194.91
  Q 195.56 195.35 195.16 195.53
  Q 194.75 195.70 194.45 195.30
  Q 192.84 193.17 190.51 193.14
  Q 184.15 193.08 177.83 193.45
  A 1.13 1.13 0.0 0 0 176.76 194.58
  Q 176.76 195.00 176.54 195.35
  A 0.48 0.47 47.6 0 1 175.72 195.31
  Q 174.81 193.54 173.51 193.40
  Q 169.73 192.98 160.50 193.37
  Q 158.03 193.47 158.05 195.39
  Q 158.05 195.62 157.81 195.63
  Q 157.66 195.63 157.51 195.65
  Q 157.06 195.70 156.84 195.31
  Q 155.78 193.47 153.00 193.35
  C 149.21 193.19 145.39 193.46 141.62 193.27
  Q 139.53 193.16 139.04 195.12
  Q 138.92 195.61 138.43 195.73
  Q 138.19 195.79 137.94 195.72
  Q 137.60 195.62 137.27 195.06
  Q 136.29 193.39 134.51 193.36
  Q 124.30 193.17 112.91 193.37
  Q 111.66 193.39 111.27 194.58
  L 110.33 197.36
  A 0.66 0.66 0.0 0 0 110.33 197.78
  Q 110.58 198.53 110.02 198.97
  A 0.94 0.94 0.0 0 0 109.66 199.73
  Q 109.69 201.21 108.84 202.63
  Z"
/>
<path fill="#4b6655" d="
  M 256.06 71.97
  Q 256.85 71.63 257.46 72.20
  Q 257.96 72.66 257.30 72.83
  Q 256.49 73.05 255.96 72.47
  A 0.31 0.31 0.0 0 1 256.06 71.97
  Z"
/>
<path fill="#47443f" d="
  M 183.83 74.41
  Q 184.93 75.66 187.83 75.33
  A 0.95 0.95 0.0 0 1 188.58 75.57
  Q 189.38 76.32 190.50 76.18
  Q 190.59 76.17 190.63 76.25
  Q 190.69 76.37 190.74 76.48
  Q 190.82 76.63 190.69 76.73
  Q 189.74 77.45 189.47 78.62
  Q 189.45 78.74 189.56 78.79
  Q 189.61 78.82 189.66 78.84
  Q 189.79 78.88 189.79 78.99
  L 189.56 82.85
  Q 189.55 83.03 189.37 83.02
  Q 189.06 82.99 188.83 82.81
  Q 188.43 82.49 188.10 82.88
  Q 187.08 84.04 188.02 85.30
  Q 188.17 85.50 187.94 85.57
  Q 186.46 85.99 185.91 87.53
  A 0.37 0.36 16.0 0 0 186.18 88.01
  L 186.56 88.10
  Q 187.10 88.22 187.26 87.69
  Q 187.44 87.06 188.27 87.50
  Q 188.77 87.76 188.59 88.29
  Q 188.43 88.76 187.94 89.02
  Q 187.49 89.27 187.62 89.77
  Q 187.85 90.68 187.08 91.15
  A 0.39 0.39 0.0 0 0 187.28 91.87
  L 187.99 91.87
  Q 188.58 91.87 188.64 92.45
  C 188.82 94.05 187.52 94.85 186.03 94.60
  A 0.82 0.79 -70.4 0 0 185.20 95.01
  Q 184.50 96.28 185.10 97.63
  Q 185.63 98.83 185.88 97.53
  Q 185.90 97.42 186.27 97.28
  Q 186.82 97.07 186.80 97.66
  Q 186.78 98.54 187.38 99.16
  Q 187.73 99.52 187.37 99.88
  L 186.87 100.39
  Q 186.49 100.76 186.14 100.37
  Q 185.35 99.49 184.34 100.09
  Q 184.01 100.29 184.17 100.63
  Q 184.24 100.78 184.41 100.84
  Q 184.88 101.00 184.88 101.50
  L 184.88 104.69
  Q 184.88 105.16 184.60 105.53
  L 183.25 107.31
  A 0.35 0.34 41.7 0 0 183.28 107.77
  L 183.52 108.01
  Q 183.88 108.37 183.42 108.61
  C 182.26 109.21 181.43 109.99 181.10 111.36
  Q 180.41 114.20 178.85 116.70
  A 0.09 0.09 0.0 0 0 178.88 116.83
  Q 178.92 116.85 178.96 116.86
  Q 179.03 116.88 179.00 116.88
  Q 178.69 116.94 178.64 117.24
  A 0.46 0.44 -86.6 0 1 178.23 117.62
  C 176.48 117.74 173.81 117.03 172.37 117.92
  Q 171.89 118.22 171.32 118.22
  L 146.23 118.19
  A 0.88 0.88 0.0 0 0 145.36 118.93
  L 145.29 119.30
  Q 145.24 119.60 145.55 119.60
  L 164.46 119.69
  Q 154.10 119.60 143.75 119.76
  Q 141.41 119.79 140.55 122.97
  L 140.08 122.49
  C 139.73 120.51 138.22 119.76 136.25 119.75
  Q 125.64 119.74 115.41 119.76
  A 3.73 3.73 0.0 0 0 111.69 123.50
  L 111.76 144.77
  A 3.49 3.48 0.1 0 0 115.23 148.24
  Q 125.27 148.30 135.92 148.19
  C 138.25 148.16 140.48 147.49 140.14 144.76
  Q 140.36 144.74 140.57 144.72
  C 140.99 147.15 142.51 148.17 145.02 148.16
  Q 149.66 148.14 154.28 148.01
  L 205.22 148.04
  L 179.09 149.40
  Q 178.90 149.41 178.85 149.59
  Q 178.81 149.77 178.65 149.76
  Q 178.58 149.76 178.56 149.77
  C 173.73 150.96 168.97 150.31 164.24 150.68
  Q 163.77 150.71 163.37 150.98
  Q 162.22 151.77 161.21 151.04
  Q 160.82 150.76 160.36 150.87
  Q 159.92 150.98 159.66 151.34
  A 0.09 0.09 0.0 0 1 159.50 151.25
  Q 159.56 151.12 159.63 150.99
  A 0.20 0.20 0.0 0 0 159.49 150.71
  Q 157.90 150.43 156.53 151.26
  Q 156.41 151.33 156.29 151.27
  Q 156.16 151.21 156.02 151.14
  Q 155.71 150.98 155.47 151.24
  Q 155.00 151.76 155.12 152.43
  Q 155.20 152.86 154.76 152.86
  C 153.04 152.88 150.77 152.87 150.86 155.29
  A 0.78 0.77 69.0 0 1 150.59 155.90
  Q 149.86 156.55 150.18 157.60
  A 0.27 0.27 0.0 0 0 150.37 157.79
  L 151.61 158.15
  A 0.37 0.37 0.0 0 1 151.51 158.88
  L 149.69 158.88
  A 0.80 0.79 -81.6 0 0 148.93 159.45
  Q 148.81 159.84 148.89 160.26
  A 0.54 0.54 0.0 0 1 148.24 160.88
  Q 147.73 160.77 147.38 161.12
  Q 147.01 161.50 147.38 161.88
  L 147.62 162.12
  Q 148.05 162.55 147.48 162.76
  Q 145.39 163.55 144.01 165.40
  Q 143.68 165.83 143.83 166.36
  Q 144.44 168.51 142.75 169.55
  Q 142.31 169.82 141.80 169.86
  Q 141.07 169.91 140.92 170.76
  Q 140.74 171.82 141.52 172.29
  Q 142.12 172.65 141.46 172.88
  Q 140.55 173.21 140.90 174.23
  A 0.47 0.47 0.0 0 1 140.49 174.85
  Q 139.21 174.95 137.98 174.88
  Q 137.72 174.86 137.56 174.95
  Q 137.19 175.15 137.20 175.52
  Q 137.21 175.79 137.47 175.84
  Q 137.94 175.95 137.88 176.25
  Q 137.78 176.76 137.63 176.88
  Q 137.37 177.08 137.21 177.35
  A 0.43 0.42 -60.3 0 0 137.37 177.95
  Q 137.87 178.21 138.45 178.12
  A 0.46 0.45 3.6 0 1 138.96 178.69
  Q 138.41 180.68 139.58 182.17
  Q 139.88 182.55 139.88 183.03
  L 139.88 184.54
  A 0.47 0.46 -88.0 0 0 140.31 185.01
  Q 140.57 185.03 140.64 185.23
  Q 140.81 185.70 140.33 185.85
  C 137.44 186.71 134.82 186.39 131.86 186.67
  C 123.67 187.44 114.74 187.01 106.49 186.90
  A 1.73 1.71 62.7 0 1 105.54 186.59
  Q 103.24 184.96 100.52 184.45
  Q 98.16 182.38 98.19 179.25
  Q 98.80 114.52 98.79 87.75
  C 98.78 79.21 101.75 74.42 111.00 74.40
  Q 147.57 74.32 183.83 74.41
  Z"
/>
<path fill="#3c3a36" d="
  M 100.52 184.45
  Q 103.24 184.96 105.54 186.59
  A 1.73 1.71 62.7 0 0 106.49 186.90
  C 114.74 187.01 123.67 187.44 131.86 186.67
  C 134.82 186.39 137.44 186.71 140.33 185.85
  Q 140.81 185.70 140.64 185.23
  Q 140.57 185.03 140.31 185.01
  A 0.47 0.46 -88.0 0 1 139.88 184.54
  L 139.88 183.03
  Q 139.88 182.55 139.58 182.17
  Q 138.41 180.68 138.96 178.69
  A 0.46 0.45 3.6 0 0 138.45 178.12
  Q 137.87 178.21 137.37 177.95
  A 0.43 0.42 -60.3 0 1 137.21 177.35
  Q 137.37 177.08 137.63 176.88
  Q 137.78 176.76 137.88 176.25
  Q 137.94 175.95 137.47 175.84
  Q 137.21 175.79 137.20 175.52
  Q 137.19 175.15 137.56 174.95
  Q 137.72 174.86 137.98 174.88
  Q 139.21 174.95 140.49 174.85
  A 0.47 0.47 0.0 0 0 140.90 174.23
  Q 140.55 173.21 141.46 172.88
  Q 142.12 172.65 141.52 172.29
  Q 140.74 171.82 140.92 170.76
  Q 141.07 169.91 141.80 169.86
  Q 142.31 169.82 142.75 169.55
  Q 144.44 168.51 143.83 166.36
  Q 143.68 165.83 144.01 165.40
  Q 145.39 163.55 147.48 162.76
  Q 148.05 162.55 147.62 162.12
  L 147.38 161.88
  Q 147.01 161.50 147.38 161.12
  Q 147.73 160.77 148.24 160.88
  A 0.54 0.54 0.0 0 0 148.89 160.26
  Q 148.81 159.84 148.93 159.45
  A 0.80 0.79 -81.6 0 1 149.69 158.88
  L 151.51 158.88
  A 0.37 0.37 0.0 0 0 151.61 158.15
  L 150.37 157.79
  A 0.27 0.27 0.0 0 1 150.18 157.60
  Q 149.86 156.55 150.59 155.90
  A 0.78 0.77 69.0 0 0 150.86 155.29
  C 150.77 152.87 153.04 152.88 154.76 152.86
  Q 155.20 152.86 155.12 152.43
  Q 155.00 151.76 155.47 151.24
  Q 155.71 150.98 156.02 151.14
  Q 156.16 151.21 156.29 151.27
  Q 156.41 151.33 156.53 151.26
  Q 157.90 150.43 159.49 150.71
  A 0.20 0.20 0.0 0 1 159.63 150.99
  Q 159.56 151.12 159.50 151.25
  A 0.09 0.09 0.0 0 0 159.66 151.34
  Q 159.92 150.98 160.36 150.87
  Q 160.82 150.76 161.21 151.04
  Q 162.22 151.77 163.37 150.98
  Q 163.77 150.71 164.24 150.68
  C 168.97 150.31 173.73 150.96 178.56 149.77
  Q 178.58 149.76 178.65 149.76
  Q 178.81 149.77 178.85 149.59
  Q 178.90 149.41 179.09 149.40
  L 205.22 148.04
  L 237.01 147.76
  A 3.52 3.51 89.8 0 0 240.49 144.25
  L 240.51 123.02
  A 3.52 3.52 0.0 0 0 236.98 119.50
  L 195.07 119.61
  L 164.46 119.69
  L 145.55 119.60
  Q 145.24 119.60 145.29 119.30
  L 145.36 118.93
  A 0.88 0.88 0.0 0 1 146.23 118.19
  L 171.32 118.22
  Q 171.89 118.22 172.37 117.92
  C 173.81 117.03 176.48 117.74 178.23 117.62
  A 0.46 0.44 -86.6 0 0 178.64 117.24
  Q 178.69 116.94 179.00 116.88
  Q 179.03 116.88 178.96 116.86
  Q 178.92 116.85 178.88 116.83
  A 0.09 0.09 0.0 0 1 178.85 116.70
  Q 180.41 114.20 181.10 111.36
  C 181.43 109.99 182.26 109.21 183.42 108.61
  Q 183.88 108.37 183.52 108.01
  L 183.28 107.77
  A 0.35 0.34 41.7 0 1 183.25 107.31
  L 184.60 105.53
  Q 184.88 105.16 184.88 104.69
  L 184.88 101.50
  Q 184.88 101.00 184.41 100.84
  Q 184.24 100.78 184.17 100.63
  Q 184.01 100.29 184.34 100.09
  Q 185.35 99.49 186.14 100.37
  Q 186.49 100.76 186.87 100.39
  L 187.37 99.88
  Q 187.73 99.52 187.38 99.16
  Q 186.78 98.54 186.80 97.66
  Q 186.82 97.07 186.27 97.28
  Q 185.90 97.42 185.88 97.53
  Q 185.63 98.83 185.10 97.63
  Q 184.50 96.28 185.20 95.01
  A 0.82 0.79 -70.4 0 1 186.03 94.60
  C 187.52 94.85 188.82 94.05 188.64 92.45
  Q 188.58 91.87 187.99 91.87
  L 187.28 91.87
  A 0.39 0.39 0.0 0 1 187.08 91.15
  Q 187.85 90.68 187.62 89.77
  Q 187.49 89.27 187.94 89.02
  Q 188.43 88.76 188.59 88.29
  Q 188.77 87.76 188.27 87.50
  Q 187.44 87.06 187.26 87.69
  Q 187.10 88.22 186.56 88.10
  L 186.18 88.01
  A 0.37 0.36 16.0 0 1 185.91 87.53
  Q 186.46 85.99 187.94 85.57
  Q 188.17 85.50 188.02 85.30
  Q 187.08 84.04 188.10 82.88
  Q 188.43 82.49 188.83 82.81
  Q 189.06 82.99 189.37 83.02
  Q 189.55 83.03 189.56 82.85
  L 189.79 78.99
  Q 189.79 78.88 189.66 78.84
  Q 189.61 78.82 189.56 78.79
  Q 189.45 78.74 189.47 78.62
  Q 189.74 77.45 190.69 76.73
  Q 190.82 76.63 190.74 76.48
  Q 190.69 76.37 190.63 76.25
  Q 190.59 76.17 190.50 76.18
  Q 189.38 76.32 188.58 75.57
  A 0.95 0.95 0.0 0 0 187.83 75.33
  Q 184.93 75.66 183.83 74.41
  Q 211.16 74.30 238.22 74.51
  C 247.67 74.58 251.37 77.43 251.42 86.83
  Q 251.65 132.17 251.80 177.50
  C 251.83 187.06 244.88 188.51 237.25 188.50
  Q 173.13 188.44 109.00 188.42
  Q 103.61 188.42 100.52 184.45
  Z"
/>
<path fill="#4b6655" d="
  M 323.66 74.66
  C 329.48 74.99 327.11 81.98 324.81 85.07
  C 319.14 92.73 308.65 100.84 298.57 100.23
  Q 298.06 100.20 297.64 100.50
  C 295.04 102.40 292.17 103.87 292.13 106.75
  Q 291.95 118.62 292.00 130.50
  Q 292.00 131.54 292.69 131.58
  L 292.19 131.82
  Q 291.16 131.75 290.45 130.97
  Q 290.10 130.60 290.09 130.09
  L 289.84 120.94
  Q 289.58 114.82 289.83 108.43
  Q 289.93 105.64 291.23 103.87
  Q 292.87 101.63 295.30 100.07
  Q 299.94 97.08 303.98 93.33
  C 305.77 91.66 307.81 90.46 309.69 89.02
  A 2.04 2.02 77.8 0 0 310.44 87.84
  L 310.54 87.41
  A 0.38 0.38 0.0 0 0 309.97 87.01
  C 305.16 89.99 301.72 93.23 297.18 95.87
  Q 296.65 96.18 296.27 96.23
  A 0.41 0.41 0.0 0 1 295.83 95.68
  C 299.16 86.97 307.44 80.15 315.87 76.82
  Q 317.06 76.36 319.80 76.07
  Q 322.21 75.81 323.66 74.66
  Z
  M 321.2689 77.4863
  A 2.48 1.12 -38.2 0 0 318.6274 78.1398
  A 2.48 1.12 -38.2 0 0 317.3711 80.5537
  A 2.48 1.12 -38.2 0 0 320.0126 79.9002
  A 2.48 1.12 -38.2 0 0 321.2689 77.4863
  Z
  M 309.6321 83.4620
  A 0.98 0.77 121.9 0 0 310.8037 83.0369
  A 0.98 0.77 121.9 0 0 310.6679 81.7980
  A 0.98 0.77 121.9 0 0 309.4963 82.2231
  A 0.98 0.77 121.9 0 0 309.6321 83.4620
  Z"
/>
<path fill="#4b6655" d="
  M 274.17 78.29
  Q 273.50 78.53 273.28 78.23
  Q 272.94 77.77 273.18 77.27
  A 0.46 0.46 0.0 0 1 273.87 77.11
  Q 274.32 77.45 274.34 78.04
  A 0.27 0.25 80.8 0 1 274.17 78.29
  Z"
/>
<path fill="#4b6655" d="
  M 266.49 81.25
  Q 265.70 82.22 267.04 83.76
  Q 265.24 84.04 265.08 82.75
  Q 264.89 81.26 266.49 81.25
  Z"
/>
<path fill="#4b6655" d="
  M 266.69 98.25
  Q 264.15 97.86 264.89 100.05
  Q 263.21 99.21 264.38 97.49
  Q 264.66 97.08 265.16 97.08
  Q 266.51 97.10 266.69 98.25
  Z"
/>
<path fill="#7e9b8f" d="
  M 328.22 104.19
  Q 329.21 106.61 330.86 108.51
  Q 331.17 108.87 331.22 109.34
  Q 331.71 113.71 329.84 117.09
  Q 327.32 121.62 325.96 122.96
  Q 319.43 129.47 314.24 131.60
  Q 311.55 132.70 302.73 134.14
  L 299.59 132.39
  L 316.50 119.52
  A 1.60 1.57 -57.0 0 0 315.93 116.70
  Q 315.56 116.62 314.79 117.68
  L 314.91 116.69
  Q 314.97 116.22 314.53 116.04
  Q 314.12 115.86 313.53 116.30
  C 311.01 118.16 306.12 122.60 303.06 122.62
  Q 302.67 120.99 301.73 120.49
  A 0.89 0.89 0.0 0 0 300.43 121.35
  Q 300.60 123.27 302.09 123.88
  Q 299.82 126.73 296.37 128.62
  Q 295.38 123.29 298.44 118.16
  L 298.60 118.44
  A 0.41 0.41 0.0 0 0 299.32 118.44
  Q 302.67 112.63 308.39 109.16
  Q 315.14 105.05 320.74 103.51
  Q 323.97 102.10 328.22 104.19
  Z
  M 323.47 108.52
  Q 320.13 111.23 323.74 111.91
  Q 327.31 111.81 327.51 108.60
  A 1.56 1.55 72.3 0 0 324.98 107.29
  L 323.47 108.52
  Z
  M 322.74 117.24
  Q 322.16 116.88 321.63 117.82
  Q 321.33 118.35 321.75 118.77
  Q 322.33 119.35 322.99 119.00
  Q 324.24 119.56 325.19 119.23
  A 0.85 0.85 0.0 0 0 325.43 117.76
  Q 323.97 116.62 322.74 117.24
  Z
  M 312.00 128.79
  Q 312.83 129.13 313.26 128.90
  Q 313.73 128.64 313.50 127.97
  Q 313.25 127.22 312.30 126.91
  Q 311.41 126.56 310.68 126.63
  A 0.68 0.67 75.3 0 0 310.13 127.58
  Q 310.81 129.12 312.00 128.79
  Z"
/>
<path fill="#4b6655" d="
  M 276.76 103.99
  Q 275.40 104.05 274.91 105.31
  Q 273.86 104.71 275.27 103.52
  Q 276.17 102.77 276.76 103.99
  Z"
/>
<path fill="#a3ccd4" d="
  M 320.74 103.51
  Q 315.14 105.05 308.39 109.16
  Q 302.67 112.63 299.32 118.44
  A 0.41 0.41 0.0 0 1 298.60 118.44
  L 298.44 118.16
  Q 304.20 108.94 315.00 104.52
  Q 318.18 103.22 320.74 103.51
  Z"
/>
<path fill="#4b6655" d="
  M 328.22 104.19
  C 333.80 106.89 332.97 113.80 330.36 118.26
  Q 321.01 134.18 302.73 134.14
  Q 311.55 132.70 314.24 131.60
  Q 319.43 129.47 325.96 122.96
  Q 327.32 121.62 329.84 117.09
  Q 331.71 113.71 331.22 109.34
  Q 331.17 108.87 330.86 108.51
  Q 329.21 106.61 328.22 104.19
  Z"
/>
<path fill="#7e9b8f" d="
  M 284.76 109.69
  Q 286.40 113.49 285.06 117.00
  Q 284.84 117.56 285.53 118.36
  Q 283.88 118.59 281.76 116.97
  Q 275.26 111.99 267.56 106.53
  A 0.39 0.39 0.0 0 1 267.46 105.99
  L 267.62 105.75
  Q 268.16 104.97 268.91 105.54
  L 282.65 115.86
  A 1.24 1.24 0.0 0 0 284.63 114.90
  L 284.76 109.69
  Z"
/>
<path fill="#3c3a36" d="
  M 262.87 109.09
  Q 261.26 109.15 259.79 110.29
  Q 259.93 107.56 262.87 109.09
  Z"
/>
<path fill="#4b6655" d="
  M 323.47 108.52
  Q 322.35 110.62 323.74 111.91
  Q 320.13 111.23 323.47 108.52
  Z"
/>
<path fill="#4b6655" d="
  M 271.21 114.23
  Q 266.09 114.87 266.13 118.24
  Q 264.98 116.90 265.66 115.95
  Q 268.21 112.44 271.21 114.23
  Z"
/>
<path fill="#4b6655" d="
  M 299.59 132.39
  Q 296.16 133.15 293.46 136.04
  C 291.75 137.86 291.76 140.26 292.14 142.55
  Q 291.98 144.39 289.56 143.80
  C 289.67 141.24 289.31 138.50 290.56 136.27
  C 291.51 134.58 293.85 133.64 295.46 132.20
  Q 296.43 131.33 297.85 130.53
  C 301.39 128.53 302.94 125.05 306.80 123.05
  C 308.52 122.16 309.46 120.85 311.01 119.74
  Q 311.40 119.46 311.89 119.44
  Q 313.57 119.40 314.79 117.68
  Q 315.56 116.62 315.93 116.70
  A 1.60 1.57 -57.0 0 1 316.50 119.52
  L 299.59 132.39
  Z"
/>
<path fill="#4b6655" d="
  M 322.74 117.24
  Q 322.07 118.17 322.99 119.00
  Q 322.33 119.35 321.75 118.77
  Q 321.33 118.35 321.63 117.82
  Q 322.16 116.88 322.74 117.24
  Z"
/>
<path fill="#e5e3de" d="
  M 195.07 119.61
  Q 193.54 120.72 191.37 120.74
  C 187.76 120.78 185.07 121.15 181.86 121.30
  C 179.84 121.40 178.49 122.55 176.26 122.38
  Q 175.84 122.35 175.66 122.74
  L 174.43 125.46
  A 0.34 0.34 0.0 0 1 173.96 125.62
  Q 173.75 125.51 173.53 125.50
  A 0.17 0.16 -11.6 0 0 173.37 125.73
  Q 173.45 125.88 173.52 126.02
  Q 173.66 126.31 173.42 126.52
  Q 172.25 127.50 172.47 128.97
  Q 172.53 129.36 172.26 129.64
  L 169.32 132.72
  Q 169.13 132.91 169.40 132.97
  Q 169.70 133.03 169.62 133.29
  Q 169.52 133.68 169.18 133.47
  Q 168.87 133.29 168.59 133.26
  Q 168.38 133.23 168.28 133.43
  Q 168.18 133.65 168.28 133.79
  Q 168.58 134.20 168.21 134.54
  L 165.12 137.39
  Q 164.89 137.60 164.88 137.91
  Q 164.88 138.05 164.88 138.19
  Q 164.91 138.66 164.51 138.90
  Q 163.35 139.57 162.59 140.67
  A 0.25 0.25 0.0 0 1 162.13 140.55
  Q 162.10 140.32 161.88 140.14
  Q 161.66 139.95 161.53 140.21
  Q 161.46 140.34 161.40 140.49
  Q 161.21 140.93 160.73 140.88
  Q 158.90 140.66 158.92 142.52
  A 0.70 0.68 78.2 0 1 158.52 143.15
  Q 157.02 143.84 156.00 145.08
  Q 155.72 145.42 155.97 145.79
  Q 156.25 146.20 156.77 146.45
  Q 157.23 146.67 156.75 146.85
  Q 156.31 147.00 155.78 146.86
  Q 155.25 146.71 155.01 147.20
  Q 154.76 147.73 154.28 148.01
  Q 149.66 148.14 145.02 148.16
  C 142.51 148.17 140.99 147.15 140.57 144.72
  L 140.55 122.97
  Q 141.41 119.79 143.75 119.76
  Q 154.10 119.60 164.46 119.69
  L 195.07 119.61
  Z"
/>
<path fill="#dbd8d4" d="
  M 195.07 119.61
  L 236.98 119.50
  A 3.52 3.52 0.0 0 1 240.51 123.02
  L 240.49 144.25
  A 3.52 3.51 89.8 0 1 237.01 147.76
  L 205.22 148.04
  L 154.28 148.01
  Q 154.76 147.73 155.01 147.20
  Q 155.25 146.71 155.78 146.86
  Q 156.31 147.00 156.75 146.85
  Q 157.23 146.67 156.77 146.45
  Q 156.25 146.20 155.97 145.79
  Q 155.72 145.42 156.00 145.08
  Q 157.02 143.84 158.52 143.15
  A 0.70 0.68 78.2 0 0 158.92 142.52
  Q 158.90 140.66 160.73 140.88
  Q 161.21 140.93 161.40 140.49
  Q 161.46 140.34 161.53 140.21
  Q 161.66 139.95 161.88 140.14
  Q 162.10 140.32 162.13 140.55
  A 0.25 0.25 0.0 0 0 162.59 140.67
  Q 163.35 139.57 164.51 138.90
  Q 164.91 138.66 164.88 138.19
  Q 164.88 138.05 164.88 137.91
  Q 164.89 137.60 165.12 137.39
  L 168.21 134.54
  Q 168.58 134.20 168.28 133.79
  Q 168.18 133.65 168.28 133.43
  Q 168.38 133.23 168.59 133.26
  Q 168.87 133.29 169.18 133.47
  Q 169.52 133.68 169.62 133.29
  Q 169.70 133.03 169.40 132.97
  Q 169.13 132.91 169.32 132.72
  L 172.26 129.64
  Q 172.53 129.36 172.47 128.97
  Q 172.25 127.50 173.42 126.52
  Q 173.66 126.31 173.52 126.02
  Q 173.45 125.88 173.37 125.73
  A 0.17 0.16 -11.6 0 1 173.53 125.50
  Q 173.75 125.51 173.96 125.62
  A 0.34 0.34 0.0 0 0 174.43 125.46
  L 175.66 122.74
  Q 175.84 122.35 176.26 122.38
  C 178.49 122.55 179.84 121.40 181.86 121.30
  C 185.07 121.15 187.76 120.78 191.37 120.74
  Q 193.54 120.72 195.07 119.61
  Z"
/>
<path fill="#ecd9da" d="
  M 140.08 122.49
  L 140.14 144.76
  C 140.48 147.49 138.25 148.16 135.92 148.19
  Q 125.27 148.30 115.23 148.24
  A 3.49 3.48 0.1 0 1 111.76 144.77
  L 111.69 123.50
  A 3.73 3.73 0.0 0 1 115.41 119.76
  Q 125.64 119.74 136.25 119.75
  C 138.22 119.76 139.73 120.51 140.08 122.49
  Z
  M 122.97 138.25
  L 117.45 143.48
  A 0.54 0.54 0.0 0 0 117.50 144.30
  L 117.76 144.50
  A 0.92 0.92 0.0 0 0 118.96 144.40
  L 123.00 140.30
  A 1.48 1.47 -52.7 0 1 124.78 140.05
  Q 130.70 143.43 135.22 138.10
  C 138.80 133.88 135.74 127.63 130.79 126.37
  C 123.80 124.60 118.13 131.50 123.01 137.62
  Q 123.28 137.96 122.97 138.25
  Z"
/>
<path fill="#4b6655" d="
  M 282.57 120.72
  Q 276.76 123.38 270.63 121.78
  Q 273.88 121.15 277.01 121.18
  C 278.06 121.19 278.94 120.81 279.88 120.44
  Q 281.58 119.77 282.57 120.72
  Z"
/>
<path fill="#7e9b8f" d="
  M 289.84 120.94
  L 290.09 130.09
  Q 290.10 130.60 290.45 130.97
  Q 291.16 131.75 292.19 131.82
  Q 291.24 132.46 290.12 132.64
  Q 289.64 132.72 289.65 132.24
  L 289.84 120.94
  Z"
/>
<path fill="#b0aba5" d="
  M 140.08 122.49
  L 140.55 122.97
  L 140.57 144.72
  Q 140.36 144.74 140.14 144.76
  L 140.08 122.49
  Z"
/>
<path fill="#975d65" d="
  M 123.01 137.62
  C 118.13 131.50 123.80 124.60 130.79 126.37
  C 135.74 127.63 138.80 133.88 135.22 138.10
  Q 130.70 143.43 124.78 140.05
  A 1.48 1.47 -52.7 0 0 123.00 140.30
  L 118.96 144.40
  A 0.92 0.92 0.0 0 1 117.76 144.50
  L 117.50 144.30
  A 0.54 0.54 0.0 0 1 117.45 143.48
  L 122.97 138.25
  Q 123.28 137.96 123.01 137.62
  Z
  M 124.23 138.84
  C 134.46 144.26 139.52 128.31 130.49 127.45
  Q 123.64 126.80 122.62 132.94
  C 122.34 134.67 123.15 136.37 123.60 138.05
  Q 123.74 138.58 124.23 138.84
  Z"
/>
<path fill="#4b6655" d="
  M 312.30 126.91
  Q 311.79 126.83 311.55 126.99
  Q 311.32 127.15 311.46 127.59
  Q 311.64 128.20 312.00 128.79
  Q 310.81 129.12 310.13 127.58
  A 0.68 0.67 75.3 0 1 310.68 126.63
  Q 311.41 126.56 312.30 126.91
  Z"
/>
<path fill="#ecd9da" d="
  M 124.23 138.84
  Q 123.74 138.58 123.60 138.05
  C 123.15 136.37 122.34 134.67 122.62 132.94
  Q 123.64 126.80 130.49 127.45
  C 139.52 128.31 134.46 144.26 124.23 138.84
  Z"
/>
<path fill="#dbd8d4" d="
  M 292.14 142.55
  L 300.24 143.00
  Q 298.06 144.80 293.75 144.64
  Q 292.76 144.60 291.79 145.47
  C 290.51 146.62 290.58 149.53 290.62 151.10
  A 0.72 0.69 65.8 0 1 290.44 151.60
  Q 289.83 152.28 288.99 152.16
  A 0.35 0.35 0.0 0 0 288.89 152.85
  Q 289.36 152.93 289.84 152.87
  A 0.19 0.17 66.2 0 1 290.02 152.95
  L 290.41 153.48
  Q 290.65 153.81 290.24 153.85
  L 286.33 154.21
  Q 286.27 154.22 286.24 154.27
  Q 286.18 154.39 286.12 154.51
  A 0.19 0.18 17.6 0 0 286.26 154.77
  L 288.62 155.18
  Q 288.87 155.22 288.87 155.47
  Q 288.87 155.66 288.86 155.85
  Q 288.86 156.03 288.68 156.06
  L 286.32 156.47
  Q 285.51 156.62 286.23 157.01
  Q 286.98 157.42 287.99 157.35
  Q 288.49 157.49 288.50 158.25
  Q 288.63 165.51 287.23 174.69
  L 282.98 174.52
  Q 283.31 173.62 282.85 172.86
  Q 282.60 172.45 282.76 172.00
  C 283.47 169.98 283.12 167.04 283.36 164.25
  Q 283.60 161.46 283.24 157.42
  Q 283.20 157.00 282.79 156.92
  Q 281.18 156.61 279.58 156.61
  Q 279.51 156.61 279.51 156.54
  Q 279.51 156.37 279.50 156.22
  Q 279.49 156.16 279.56 156.16
  L 284.59 156.11
  A 0.30 0.27 -68.3 0 0 284.81 156.00
  L 285.10 155.60
  Q 285.44 155.13 284.86 155.08
  L 278.55 154.59
  Q 278.41 154.58 278.36 154.44
  L 278.26 154.11
  Q 278.18 153.83 278.47 153.85
  Q 280.28 153.98 280.90 153.85
  Q 284.68 153.03 281.01 152.21
  L 279.98 151.98
  A 0.27 0.27 0.0 0 1 280.03 151.44
  L 284.42 151.30
  Q 284.87 151.29 284.93 150.85
  L 285.57 146.54
  A 0.85 0.84 80.3 0 1 286.01 145.91
  Q 286.99 145.40 286.35 144.49
  Q 286.07 144.09 285.57 144.04
  L 284.02 143.87
  Q 286.56 143.35 289.56 143.80
  Q 291.98 144.39 292.14 142.55
  Z"
/>
<path fill="#b0aba5" d="
  M 300.24 143.00
  Q 301.41 142.65 303.50 143.43
  A 1.58 1.58 0.0 0 1 304.54 144.81
  Q 304.73 147.40 304.58 150.00
  A 4.48 0.06 -86.7 0 0 304.41 153.83
  L 304.87 161.15
  L 300.61 165.50
  A 0.59 0.58 -42.7 0 0 300.57 166.28
  L 300.74 166.48
  Q 300.99 166.79 301.29 166.52
  C 302.45 165.44 303.91 163.93 305.56 163.70
  Q 308.29 163.31 307.37 164.80
  Q 305.94 165.26 304.99 166.17
  Q 304.71 166.44 304.69 166.84
  L 304.42 174.35
  Q 304.41 174.78 304.84 174.78
  L 309.06 174.83
  Q 309.60 174.84 309.88 175.30
  Q 310.30 176.03 309.79 177.15
  Q 310.05 175.87 309.60 175.80
  Q 306.24 175.24 303.18 176.31
  C 299.44 177.61 297.05 177.53 293.43 177.27
  Q 293.55 176.10 292.88 176.13
  Q 283.66 176.58 275.73 174.51
  Q 279.25 173.78 282.98 174.52
  L 287.23 174.69
  Q 289.29 165.75 288.70 158.01
  Q 288.64 157.13 287.99 157.35
  Q 286.98 157.42 286.23 157.01
  Q 285.51 156.62 286.32 156.47
  L 288.68 156.06
  Q 288.86 156.03 288.86 155.85
  Q 288.87 155.66 288.87 155.47
  Q 288.87 155.22 288.62 155.18
  L 286.26 154.77
  A 0.19 0.18 17.6 0 1 286.12 154.51
  Q 286.18 154.39 286.24 154.27
  Q 286.27 154.22 286.33 154.21
  L 290.24 153.85
  Q 290.65 153.81 290.41 153.48
  L 290.02 152.95
  A 0.19 0.17 66.2 0 0 289.84 152.87
  Q 289.36 152.93 288.89 152.85
  A 0.35 0.35 0.0 0 1 288.99 152.16
  Q 289.83 152.28 290.44 151.60
  A 0.72 0.69 65.8 0 0 290.62 151.10
  C 290.58 149.53 290.51 146.62 291.79 145.47
  Q 292.76 144.60 293.75 144.64
  Q 298.06 144.80 300.24 143.00
  Z"
/>
<path fill="#a3ccd4" d="
  M 310.57 145.64
  Q 310.17 146.76 310.99 147.40
  Q 311.36 147.70 311.52 148.16
  C 312.67 151.56 316.01 152.81 317.34 155.99
  Q 317.79 157.08 318.34 158.21
  Q 318.63 158.79 317.99 158.69
  Q 313.89 158.09 310.63 160.44
  A 1.23 1.23 0.0 0 0 310.56 162.38
  Q 312.93 164.37 314.99 167.84
  Q 313.67 167.81 312.25 167.03
  C 311.36 165.46 309.36 163.74 307.37 164.80
  Q 308.29 163.31 305.56 163.70
  C 303.91 163.93 302.45 165.44 301.29 166.52
  Q 300.99 166.79 300.74 166.48
  L 300.57 166.28
  A 0.59 0.58 -42.7 0 1 300.61 165.50
  L 304.87 161.15
  L 308.79 161.05
  A 0.64 0.64 0.0 0 0 309.41 160.52
  C 309.87 157.71 312.59 158.23 314.53 158.25
  A 0.45 0.45 0.0 0 0 314.92 157.56
  L 308.69 147.27
  A 1.06 1.06 0.0 0 1 308.72 146.13
  Q 309.38 145.18 310.57 145.64
  Z"
/>
<path fill="#5d909c" d="
  M 329.98 152.89
  Q 329.44 153.31 329.14 153.24
  Q 328.89 153.18 328.85 152.63
  Q 328.57 149.34 328.60 145.50
  C 331.17 146.67 329.96 150.74 329.98 152.89
  Z"
/>
<path fill="#5d909c" d="
  M 310.57 145.64
  Q 316.42 149.98 320.32 157.13
  Q 320.57 158.81 321.85 160.66
  Q 322.11 161.03 322.47 160.77
  Q 322.91 160.45 323.15 159.97
  A 0.50 0.50 0.0 0 1 324.08 160.05
  Q 324.32 160.86 323.79 161.84
  L 323.84 161.07
  Q 323.88 160.23 323.27 160.80
  Q 321.57 162.38 321.88 164.69
  Q 321.95 165.19 321.69 165.63
  Q 321.14 166.58 321.52 167.80
  L 319.00 167.81
  L 314.99 167.84
  Q 312.93 164.37 310.56 162.38
  A 1.23 1.23 0.0 0 1 310.63 160.44
  Q 313.89 158.09 317.99 158.69
  Q 318.63 158.79 318.34 158.21
  Q 317.79 157.08 317.34 155.99
  C 316.01 152.81 312.67 151.56 311.52 148.16
  Q 311.36 147.70 310.99 147.40
  Q 310.17 146.76 310.57 145.64
  Z"
/>
<path fill="#a3ccd4" d="
  M 328.60 145.50
  Q 328.57 149.34 328.85 152.63
  Q 328.89 153.18 329.14 153.24
  Q 329.44 153.31 329.98 152.89
  Q 333.25 150.94 336.87 150.15
  Q 338.08 151.10 335.78 151.87
  C 330.18 153.73 326.57 157.26 324.69 163.01
  Q 324.60 163.29 324.38 163.38
  Q 323.98 163.54 323.90 163.12
  L 323.76 162.41
  L 323.79 161.84
  Q 324.32 160.86 324.08 160.05
  A 0.50 0.50 0.0 0 0 323.15 159.97
  Q 322.91 160.45 322.47 160.77
  Q 322.11 161.03 321.85 160.66
  Q 320.57 158.81 320.32 157.13
  C 322.52 153.13 323.95 148.56 328.60 145.50
  Z"
/>
<path fill="#5d909c" d="
  M 331.83 158.31
  Q 327.69 158.76 326.31 161.99
  Q 325.09 164.87 327.31 162.67
  Q 327.71 162.28 328.71 161.06
  Q 329.00 160.69 329.47 160.60
  C 331.39 160.21 334.45 160.12 335.24 162.47
  Q 335.38 162.90 335.84 162.86
  L 337.46 162.71
  Q 342.54 163.21 345.06 167.16
  Q 345.32 167.57 345.19 168.04
  Q 344.88 169.19 343.92 169.24
  C 341.02 169.37 338.28 163.22 334.54 166.44
  Q 334.43 166.79 334.33 167.14
  L 334.31 165.91
  Q 334.30 165.33 333.84 165.68
  Q 333.08 166.24 332.03 165.86
  Q 331.50 165.67 331.18 165.99
  Q 330.90 166.26 330.53 166.17
  Q 328.87 165.75 327.18 165.89
  Q 326.64 165.94 326.16 165.68
  Q 324.94 165.01 323.78 165.69
  Q 323.16 166.05 323.07 165.35
  Q 322.86 163.83 323.76 162.41
  L 323.90 163.12
  Q 323.98 163.54 324.38 163.38
  Q 324.60 163.29 324.69 163.01
  C 326.57 157.26 330.18 153.73 335.78 151.87
  Q 338.08 151.10 336.87 150.15
  Q 337.88 149.68 338.77 150.14
  A 1.26 1.25 -44.8 0 1 338.76 152.37
  C 335.89 153.83 333.25 155.09 331.83 158.31
  Z"
/>
<path fill="#ecd9da" d="
  M 287.99 157.35
  Q 288.64 157.13 288.70 158.01
  Q 289.29 165.75 287.23 174.69
  Q 288.63 165.51 288.50 158.25
  Q 288.49 157.49 287.99 157.35
  Z"
/>
<path fill="#a3ccd4" d="
  M 331.83 158.31
  C 335.13 158.03 337.56 157.63 338.66 161.01
  Q 337.59 161.50 337.46 162.71
  L 335.84 162.86
  Q 335.38 162.90 335.24 162.47
  C 334.45 160.12 331.39 160.21 329.47 160.60
  Q 329.00 160.69 328.71 161.06
  Q 327.71 162.28 327.31 162.67
  Q 325.09 164.87 326.31 161.99
  Q 327.69 158.76 331.83 158.31
  Z"
/>
<path fill="#4b6655" d="
  M 323.79 161.84
  L 323.76 162.41
  Q 322.86 163.83 323.07 165.35
  Q 323.16 166.05 323.78 165.69
  Q 324.94 165.01 326.16 165.68
  Q 326.64 165.94 327.18 165.89
  Q 328.87 165.75 330.53 166.17
  Q 330.90 166.26 331.18 165.99
  Q 331.50 165.67 332.03 165.86
  Q 333.08 166.24 333.84 165.68
  Q 334.30 165.33 334.31 165.91
  L 334.33 167.14
  Q 328.99 169.00 321.58 167.69
  Q 321.55 167.75 321.52 167.80
  Q 321.14 166.58 321.69 165.63
  Q 321.95 165.19 321.88 164.69
  Q 321.57 162.38 323.27 160.80
  Q 323.88 160.23 323.84 161.07
  L 323.79 161.84
  Z"
/>
<path fill="#b0aba5" d="
  M 334.33 167.14
  Q 334.43 166.79 334.54 166.44
  Q 336.15 169.48 335.89 173.49
  A 0.60 0.59 -88.2 0 0 336.48 174.13
  L 345.03 174.13
  Q 348.72 174.13 345.19 175.21
  Q 341.22 176.42 337.02 176.17
  A 1.04 1.04 0.0 0 0 335.92 177.21
  L 335.96 187.04
  Q 335.97 187.87 336.80 187.91
  L 354.87 188.73
  A 0.14 0.13 43.3 0 1 354.88 189.00
  Q 340.31 190.35 325.50 190.68
  Q 317.47 190.86 311.63 190.11
  Q 311.15 190.04 311.19 189.56
  L 311.21 189.26
  Q 311.23 189.07 311.43 189.07
  L 317.71 189.06
  L 323.63 188.86
  Q 324.24 188.84 324.13 188.24
  Q 323.92 187.09 324.61 186.29
  A 1.15 1.11 -25.6 0 0 324.88 185.56
  Q 324.87 181.25 324.88 177.00
  Q 324.88 174.20 321.58 167.69
  Q 328.99 169.00 334.33 167.14
  Z"
/>
<path fill="#e5e3de" d="
  M 312.25 167.03
  Q 313.67 167.81 314.99 167.84
  L 319.00 167.81
  L 317.63 189.02
  Q 314.84 189.20 312.23 189.06
  Q 310.05 188.94 310.13 187.00
  Q 310.48 178.21 310.00 169.43
  Q 309.93 168.24 310.29 167.66
  Q 310.92 166.63 312.25 167.03
  Z"
/>
<path fill="#dbd8d4" d="
  M 319.00 167.81
  L 321.52 167.80
  Q 321.55 167.75 321.58 167.69
  Q 324.88 174.20 324.88 177.00
  Q 324.87 181.25 324.88 185.56
  A 1.15 1.11 -25.6 0 1 324.61 186.29
  Q 323.92 187.09 324.13 188.24
  Q 324.24 188.84 323.63 188.86
  L 317.71 189.06
  Q 317.67 189.04 317.63 189.02
  L 319.00 167.81
  Z"
/>
<path fill="#e5e3de" d="
  M 275.73 174.51
  Q 283.66 176.58 292.88 176.13
  Q 293.55 176.10 293.43 177.27
  Q 292.55 177.50 292.07 177.12
  L 276.06 176.68
  Q 275.95 176.40 275.34 176.26
  Q 274.86 176.16 274.89 175.67
  Q 274.98 174.21 275.73 174.51
  Z"
/>
<path fill="#47443f" d="
  M 309.79 177.15
  L 294.21 178.02
  L 290.61 177.93
  Q 290.40 177.93 290.42 177.74
  L 290.42 177.73
  Q 290.45 177.52 290.64 177.59
  Q 291.61 177.94 292.07 177.12
  Q 292.55 177.50 293.43 177.27
  C 297.05 177.53 299.44 177.61 303.18 176.31
  Q 306.24 175.24 309.60 175.80
  Q 310.05 175.87 309.79 177.15
  Z"
/>
<path fill="#b0aba5" d="
  M 61.69 176.29
  Q 62.31 175.87 63.06 176.23
  Q 63.52 176.45 63.55 176.96
  Q 63.71 178.96 65.99 178.71
  Q 66.39 178.66 66.73 178.79
  Q 67.30 179.00 66.71 179.15
  Q 62.09 180.35 59.25 180.46
  Q 40.05 181.23 17.00 180.59
  Q 11.76 180.44 8.09 179.77
  Q 7.84 179.72 7.87 179.47
  L 7.92 179.06
  Q 7.94 178.81 8.19 178.82
  C 14.47 179.03 20.84 179.48 26.93 179.03
  Q 30.87 178.74 34.81 178.35
  C 43.44 177.48 52.18 177.15 60.84 176.58
  Q 61.30 176.55 61.69 176.29
  Z"
/>
<path fill="#b0aba5" d="
  M 276.06 176.68
  L 292.07 177.12
  Q 291.61 177.94 290.64 177.59
  Q 290.45 177.52 290.42 177.73
  L 290.42 177.74
  Q 290.40 177.93 290.61 177.93
  L 294.21 178.02
  Q 286.23 178.49 278.25 177.87
  Q 276.95 177.77 275.82 177.16
  A 0.23 0.23 0.0 0 1 275.78 176.78
  Q 275.89 176.68 276.06 176.68
  Z"
/>
<path fill="#b0aba5" d="
  M 107.98 190.61
  L 241.12 190.74
  A 0.43 0.42 0.0 0 1 241.55 191.16
  L 241.55 191.43
  Q 241.55 191.61 241.37 191.61
  Q 228.45 191.68 215.49 192.00
  C 211.66 192.10 207.51 191.87 203.50 191.89
  Q 163.37 192.10 123.25 191.92
  Q 116.86 191.89 110.58 191.82
  Q 105.11 191.85 107.98 190.61
  Z"
/>
<path fill="#5d909c" d="
  M 228.52 204.39
  Q 227.42 204.09 226.37 203.38
  A 1.50 1.46 -28.5 0 0 225.48 203.13
  Q 224.15 203.19 223.69 201.94
  A 0.75 0.74 73.4 0 0 222.83 201.47
  Q 222.36 201.56 222.35 202.00
  Q 222.33 202.71 223.12 204.07
  L 205.51 204.22
  A 0.60 0.60 0.0 0 1 204.93 203.49
  Q 205.16 202.52 204.53 201.75
  A 0.64 0.64 0.0 0 0 203.67 201.62
  L 203.41 201.80
  Q 203.27 201.90 203.33 202.06
  L 203.72 203.11
  A 0.97 0.96 80.1 0 1 202.81 204.41
  L 184.29 204.36
  Q 158.89 204.34 133.50 204.14
  Q 132.18 204.13 131.20 203.31
  Q 130.83 203.01 130.36 202.92
  L 128.13 202.47
  Q 128.14 202.04 127.74 201.74
  Q 127.28 201.40 126.70 201.59
  Q 126.19 201.76 126.42 202.25
  Q 126.93 203.31 126.20 203.88
  Q 125.77 204.23 124.77 204.26
  Q 122.83 204.31 120.97 204.33
  C 118.04 204.26 114.47 204.59 111.69 203.62
  Q 110.24 203.12 108.84 202.63
  Q 109.69 201.21 109.66 199.73
  A 0.94 0.94 0.0 0 1 110.02 198.97
  Q 110.58 198.53 110.33 197.78
  A 0.66 0.66 0.0 0 1 110.33 197.36
  L 111.27 194.58
  Q 111.66 193.39 112.91 193.37
  Q 124.30 193.17 134.51 193.36
  Q 136.29 193.39 137.27 195.06
  Q 137.60 195.62 137.94 195.72
  Q 138.19 195.79 138.43 195.73
  Q 138.92 195.61 139.04 195.12
  Q 139.53 193.16 141.62 193.27
  C 145.39 193.46 149.21 193.19 153.00 193.35
  Q 155.78 193.47 156.84 195.31
  Q 157.06 195.70 157.51 195.65
  Q 157.66 195.63 157.81 195.63
  Q 158.05 195.62 158.05 195.39
  Q 158.03 193.47 160.50 193.37
  Q 169.73 192.98 173.51 193.40
  Q 174.81 193.54 175.72 195.31
  A 0.48 0.47 47.6 0 0 176.54 195.35
  Q 176.76 195.00 176.76 194.58
  A 1.13 1.13 0.0 0 1 177.83 193.45
  Q 184.15 193.08 190.51 193.14
  Q 192.84 193.17 194.45 195.30
  Q 194.75 195.70 195.16 195.53
  Q 195.56 195.35 195.55 194.91
  Q 195.52 193.37 197.24 193.32
  Q 203.50 193.12 209.75 193.18
  C 211.72 193.19 213.00 195.54 213.74 195.47
  Q 214.18 195.43 214.24 195.00
  Q 214.49 193.41 216.88 193.36
  Q 227.92 193.13 238.31 193.41
  A 1.96 1.96 0.0 0 1 240.20 195.16
  L 240.66 199.33
  Q 240.71 199.80 241.12 200.02
  L 241.49 200.22
  Q 241.84 200.42 241.56 200.70
  Q 240.55 201.73 241.49 202.73
  A 0.92 0.92 0.0 0 1 240.83 204.27
  L 228.52 204.39
  Z
  M 129.25 197.71
  Q 129.24 196.96 128.80 196.61
  A 0.69 0.69 0.0 0 0 127.70 197.32
  Q 127.93 198.26 128.78 198.21
  A 0.49 0.49 0.0 0 0 129.25 197.71
  Z
  M 146.60 196.58
  Q 146.32 198.06 147.74 198.27
  A 0.50 0.50 0.0 0 0 148.31 197.75
  Q 148.24 196.34 146.87 196.36
  A 0.28 0.28 0.0 0 0 146.60 196.58
  Z
  M 165.55 196.83
  Q 165.52 197.54 165.96 198.06
  A 0.71 0.70 21.0 0 0 167.20 197.51
  Q 167.06 196.54 166.17 196.35
  Q 165.58 196.23 165.55 196.83
  Z
  M 185.9651 198.0514
  A 1.06 0.79 48.3 0 0 185.8498 196.7345
  A 1.06 0.79 48.3 0 0 184.5549 196.4686
  A 1.06 0.79 48.3 0 0 184.6702 197.7855
  A 1.06 0.79 48.3 0 0 185.9651 198.0514
  Z
  M 204.8036 198.0817
  A 1.05 0.64 51.5 0 0 204.6509 196.8616
  A 1.05 0.64 51.5 0 0 203.4964 196.4383
  A 1.05 0.64 51.5 0 0 203.6491 197.6584
  A 1.05 0.64 51.5 0 0 204.8036 198.0817
  Z
  M 223.63 197.76
  Q 223.48 196.82 222.65 196.39
  A 0.35 0.35 0.0 0 0 222.15 196.62
  Q 221.89 197.57 222.77 197.87
  Q 223.20 198.02 223.53 197.91
  A 0.13 0.13 0.0 0 0 223.63 197.76
  Z
  M 136.73 199.09
  A 0.72 0.72 0.0 0 0 136.19 200.03
  Q 136.38 200.56 136.99 200.82
  A 1.00 1.00 0.0 0 0 138.39 199.85
  Q 138.33 198.77 136.73 199.09
  Z
  M 155.64 199.22
  Q 155.72 200.63 156.91 200.69
  A 0.74 0.74 0.0 0 0 157.49 199.46
  Q 156.78 198.67 155.76 199.04
  A 0.19 0.17 81.7 0 0 155.64 199.22
  Z
  M 176.84 199.69
  Q 176.29 198.89 175.30 198.96
  Q 174.61 199.01 174.81 199.67
  Q 175.16 200.80 176.37 200.70
  A 0.65 0.64 70.0 0 0 176.84 199.69
  Z
  M 196.0282 200.4525
  A 1.24 0.77 29.6 0 0 195.3303 199.1705
  A 1.24 0.77 29.6 0 0 193.8718 199.2275
  A 1.24 0.77 29.6 0 0 194.5697 200.5095
  A 1.24 0.77 29.6 0 0 196.0282 200.4525
  Z
  M 215.1425 200.3812
  A 1.17 0.79 27.0 0 0 214.4587 199.1461
  A 1.17 0.79 27.0 0 0 213.0575 199.3188
  A 1.17 0.79 27.0 0 0 213.7413 200.5539
  A 1.17 0.79 27.0 0 0 215.1425 200.3812
  Z"
/>
<path fill="#e5e3de" d="
  M 129.25 197.71
  A 0.49 0.49 0.0 0 1 128.78 198.21
  Q 127.93 198.26 127.70 197.32
  A 0.69 0.69 0.0 0 1 128.80 196.61
  Q 129.24 196.96 129.25 197.71
  Z"
/>
<path fill="#dbd8d4" d="
  M 146.60 196.58
  A 0.28 0.28 0.0 0 1 146.87 196.36
  Q 148.24 196.34 148.31 197.75
  A 0.50 0.50 0.0 0 1 147.74 198.27
  Q 146.32 198.06 146.60 196.58
  Z"
/>
<path fill="#dbd8d4" d="
  M 165.55 196.83
  Q 165.58 196.23 166.17 196.35
  Q 167.06 196.54 167.20 197.51
  A 0.71 0.70 21.0 0 1 165.96 198.06
  Q 165.52 197.54 165.55 196.83
  Z"
/>
<ellipse fill="#dbd8d4" cx="0.00" cy="0.00" transform="translate(185.26,197.26) rotate(48.3)" rx="1.06" ry="0.79"/>
<ellipse fill="#ecd9da" cx="0.00" cy="0.00" transform="translate(204.15,197.26) rotate(51.5)" rx="1.05" ry="0.64"/>
<path fill="#ecd9da" d="
  M 223.63 197.76
  A 0.13 0.13 0.0 0 1 223.53 197.91
  Q 223.20 198.02 222.77 197.87
  Q 221.89 197.57 222.15 196.62
  A 0.35 0.35 0.0 0 1 222.65 196.39
  Q 223.48 196.82 223.63 197.76
  Z"
/>
<path fill="#e5e3de" d="
  M 136.73 199.09
  Q 138.33 198.77 138.39 199.85
  A 1.00 1.00 0.0 0 1 136.99 200.82
  Q 136.38 200.56 136.19 200.03
  A 0.72 0.72 0.0 0 1 136.73 199.09
  Z"
/>
<path fill="#dbd8d4" d="
  M 155.64 199.22
  A 0.19 0.17 81.7 0 1 155.76 199.04
  Q 156.78 198.67 157.49 199.46
  A 0.74 0.74 0.0 0 1 156.91 200.69
  Q 155.72 200.63 155.64 199.22
  Z"
/>
<path fill="#a3ccd4" d="
  M 176.84 199.69
  A 0.65 0.64 70.0 0 1 176.37 200.70
  Q 175.16 200.80 174.81 199.67
  Q 174.61 199.01 175.30 198.96
  Q 176.29 198.89 176.84 199.69
  Z"
/>
<ellipse fill="#dbd8d4" cx="0.00" cy="0.00" transform="translate(194.95,199.84) rotate(29.6)" rx="1.24" ry="0.77"/>
<ellipse fill="#dbd8d4" cx="0.00" cy="0.00" transform="translate(214.10,199.85) rotate(27.0)" rx="1.17" ry="0.79"/>
<path fill="#a3ccd4" d="
  M 228.52 204.39
  L 223.12 204.07
  Q 222.33 202.71 222.35 202.00
  Q 222.36 201.56 222.83 201.47
  A 0.75 0.74 73.4 0 1 223.69 201.94
  Q 224.15 203.19 225.48 203.13
  A 1.50 1.46 -28.5 0 1 226.37 203.38
  Q 227.42 204.09 228.52 204.39
  Z"
/>
<path fill="#a3ccd4" d="
  M 108.84 202.63
  Q 110.24 203.12 111.69 203.62
  C 114.47 204.59 118.04 204.26 120.97 204.33
  Q 116.34 204.49 111.75 204.43
  Q 108.21 204.38 108.84 202.63
  Z"
/>
<path fill="#a3ccd4" d="
  M 128.13 202.47
  L 130.36 202.92
  Q 130.83 203.01 131.20 203.31
  Q 132.18 204.13 133.50 204.14
  Q 158.89 204.34 184.29 204.36
  L 129.33 204.40
  A 1.66 1.66 0.0 0 1 127.89 203.57
  Q 127.70 203.24 128.13 202.47
  Z"
/>
<path fill="#b0aba5" d="
  M 257.25 215.43
  L 258.49 214.75
  A 0.59 0.58 63.4 0 0 258.74 213.98
  Q 258.39 213.21 257.22 213.63
  C 259.58 210.78 258.05 206.20 257.33 202.92
  Q 258.59 201.74 259.46 202.81
  Q 259.72 203.13 260.13 203.13
  C 260.94 203.13 261.50 203.03 262.27 203.33
  Q 266.19 204.85 270.42 204.84
  Q 270.84 204.84 271.04 205.00
  Q 271.24 205.15 271.27 205.39
  Q 271.32 205.80 270.91 205.86
  L 265.82 206.57
  Q 265.42 206.62 265.33 207.00
  L 265.26 207.29
  Q 265.22 207.45 265.37 207.51
  Q 268.44 208.63 271.69 208.35
  Q 272.37 208.30 272.37 208.98
  L 272.37 209.46
  Q 272.37 209.96 271.96 210.24
  C 266.66 213.80 264.10 216.22 257.25 215.43
  Z"
/>
<path fill="#dbd8d4" d="
  M 257.30 203.04
  Q 257.32 202.98 257.33 202.92
  C 258.05 206.20 259.58 210.78 257.22 213.63
  L 245.29 215.26
  Q 242.90 215.09 240.50 215.08
  Q 175.06 214.88 109.61 214.87
  C 107.14 214.87 103.90 215.25 100.78 214.67
  Q 102.25 214.78 103.23 214.24
  Q 105.15 213.18 107.25 212.62
  Q 107.49 212.56 107.57 212.38
  Q 107.70 212.11 108.01 212.11
  L 129.24 212.15
  Q 129.48 212.15 129.68 212.00
  Q 129.87 211.86 130.00 211.86
  Q 140.25 211.89 150.50 211.69
  Q 170.62 211.31 190.74 210.64
  Q 192.91 210.57 195.07 210.37
  C 197.61 210.14 200.21 210.47 202.81 210.38
  C 205.15 210.31 207.64 209.24 210.50 209.17
  Q 226.09 208.78 235.37 208.89
  C 236.58 208.91 237.92 208.03 238.76 208.10
  Q 241.51 208.33 244.13 207.41
  Q 244.88 207.15 245.18 207.71
  Q 245.38 208.08 245.80 208.05
  L 255.38 207.36
  Q 255.90 207.32 256.18 206.88
  Q 257.35 205.08 257.30 203.04
  Z"
/>
<path fill="#47443f" d="
  M 257.22 213.63
  Q 258.39 213.21 258.74 213.98
  A 0.59 0.58 63.4 0 1 258.49 214.75
  L 257.25 215.43
  L 245.51 215.92
  Q 244.97 215.97 244.50 215.90
  Q 244.36 215.88 244.24 215.75
  Q 244.09 215.59 244.31 215.62
  Q 245.21 215.73 245.29 215.26
  L 257.22 213.63
  Z"
/>
<path fill="#b0aba5" d="
  M 94.59 214.16
  Q 97.86 214.96 100.78 214.67
  C 103.90 215.25 107.14 214.87 109.61 214.87
  Q 175.06 214.88 240.50 215.08
  Q 242.90 215.09 245.29 215.26
  Q 245.21 215.73 244.31 215.62
  Q 244.09 215.59 244.24 215.75
  Q 244.36 215.88 244.50 215.90
  Q 244.97 215.97 245.51 215.92
  Q 244.56 216.22 243.00 216.22
  Q 174.13 216.21 105.26 216.18
  C 102.80 216.18 99.90 215.71 97.25 215.69
  Q 93.65 215.68 94.59 214.16
  Z"
/>
</svg>
