<svg xmlns="http://www.w3.org/2000/svg" viewBox="0 0 256 188"><g stroke-width="2" fill="none"><path stroke="#d6e2e5" vector-effect="non-scaling-stroke" d="m168.91 14.08 2.08 1.03q.89.44.1-.16-1.01-.77-2.23-1.24-.45-.18-.87.07-3.78 2.23-7.53 4.52a.1.1 0 0 0 .1.18q3.82-1.95 7.38-4.33a.97.95-48.6 0 1 .97-.07M182.835 21.895a3.36.21 30.5 0 0-2.788-1.886 3.36.21 30.5 0 0-3.002-1.524 3.36.21 30.5 0 0 2.788 1.886 3.36.21 30.5 0 0 3.002 1.524M155.887 21.01a3.38.22-30 0 0-3.037 1.5 3.38.22-30 0 0-2.817 1.88 3.38.22-30 0 0 3.037-1.5 3.38.22-30 0 0 2.817-1.88"/><path stroke="#d6e2e5" vector-effect="non-scaling-stroke" d="M148.21 26.4q23.57 13.72 47.34 27.39a.19.18-11.4 0 0 .22-.3c-15.32-9.56-31.5-18.24-47.16-27.28q-.16-.1-.07-.27l.12-.23q.17-.31-.19-.27l-.45.07a.76.75-3.2 0 0-.65.72q-.23 8.75-.09 17.52a.1.09-44.6 0 0 .19 0q.39-8.53.27-17.07a.32.31-75.3 0 1 .47-.28M215.685 40.693a3.05.19 29.1 0 0-2.573-1.649 3.05.19 29.1 0 0-2.757-1.317 3.05.19 29.1 0 0 2.573 1.649 3.05.19 29.1 0 0 2.757 1.317M196.32 78.47l-16.7-9.32"/><path stroke="gray" vector-effect="non-scaling-stroke" d="m179.62 69.15-6.53-3.71"/><path stroke="#d6e2e5" vector-effect="non-scaling-stroke" d="m173.09 65.44-12.64-7.38"/><path stroke="gray" vector-effect="non-scaling-stroke" d="m160.45 58.06-7.49-4.26q-.43-.24-.9-.07l-1.81.64"/><path stroke="#c1d8ad" vector-effect="non-scaling-stroke" d="M150.25 54.37c-5.32 3.05 1.55 14.48 8.01 11.72"/><path stroke="gray" vector-effect="non-scaling-stroke" d="m158.26 66.09 2.35-1.47"/><path stroke="#d6e2e5" vector-effect="non-scaling-stroke" d="m160.61 64.62 7.58 4.53"/><path stroke="#c1d8ad" vector-effect="non-scaling-stroke" d="M168.19 69.15q1.47 10.44 9.82 10.29"/><path stroke="gray" vector-effect="non-scaling-stroke" d="m178.01 79.44 3.44-2.76"/><path stroke="#d6e2e5" vector-effect="non-scaling-stroke" d="m181.45 76.68 15.94 9.17q.34.2.34-.2v-5.31"/><path stroke="gray" vector-effect="non-scaling-stroke" d="M197.73 80.34q-.25-3.46 1.2-2.37"/><path stroke="#d6e2e5" vector-effect="non-scaling-stroke" d="m198.93 77.97 9.02 5.74"/><path stroke="#9da59a" vector-effect="non-scaling-stroke" d="M207.95 83.71c.96 1.1 3.09 4.84 4.72 5.6q.46.21.15-.18l-4.67-5.95"/><path stroke="#d6e2e5" vector-effect="non-scaling-stroke" d="m208.15 83.18-5.01-3.69q-.38-.28-.64-.68l-1.73-2.71q-.29-.46-.25-1.01.38-4.75-.05-9.5-.02-.21.14-.34.13-.1.21-.23.22-.37-.16-.58-1.2-.68-1.48-2.76"/><path stroke="gray" vector-effect="non-scaling-stroke" d="M199.18 61.68c-.07-1.68 15.78-10.16 18.15-11.53q.44-.25.43-.76l-.04-6.94q0-.69-.6-.34l-20.17 11.66a.97.96-15 0 0-.49.84l-.14 23.86"/><path stroke="#576265" vector-effect="non-scaling-stroke" d="m199.18 61.68-.25 16.29M197.73 80.34q-1.28-.98-1.41-1.87"/><path stroke="#74877f" vector-effect="non-scaling-stroke" d="M208.15 83.18q-.22.29-.2.53"/><path stroke="#576265" vector-effect="non-scaling-stroke" d="M179.62 69.15q2.61 4.6 1.83 7.53"/><path stroke="#41582d" vector-effect="non-scaling-stroke" d="M178.01 79.44q2.29-9.77-6.96-11.83a.95.93 27.4 0 0-.88.27l-.86.89"/><path stroke="#576265" vector-effect="non-scaling-stroke" d="M173.09 65.44q-1.49 1.5-3.45 2.25a.63.63 0 0 0-.39.7l.06.38"/><path stroke="#98ba92" vector-effect="non-scaling-stroke" d="M169.31 68.77q-.39.73-1.12.38"/><path stroke="#576265" vector-effect="non-scaling-stroke" d="M160.45 58.06q1.86 4.28.16 6.56"/><path stroke="#41582d" vector-effect="non-scaling-stroke" d="M158.26 66.09q1.32-8.95-8.01-11.72"/><path stroke="#d6e2e5" vector-effect="non-scaling-stroke" d="m62.77 56.24-.01.25q-.03.52-.48.79l-6.93 4.17q-.1.07-.21 0l-.21-.13q-.44-.25-.13.37c.94 1.94.19 12.84.32 17.41.01.57-.29.9-.84.93"/><path stroke="gray" vector-effect="non-scaling-stroke" d="M54.28 80.03q-4.37-3.24-9.23-5.47-1.19-.54-.08.15 4.53 2.8 9.31 5.32"/><path stroke="#d6e2e5" vector-effect="non-scaling-stroke" d="M54.28 80.03q.29.31.8.52.4.17.41-.26.01-.16.01-.32a.42.42 0 0 1 .4-.43l1.08-.05"/><path stroke="gray" vector-effect="non-scaling-stroke" d="m56.98 79.49 3.29 1.91a.47.46 50.8 0 1-.08.84q-.72.24-1.46.35-.4.06-.66.36c-1.19 1.38-2.48 1.46-4.09.51q-11.1-6.52-22.31-12.87-.29-.16-.52-.19-.82-.09.04.4l24.04 13.9q.53.3.52.91l-.01 4.42q-.01 1.08.93.54L90 71.26a.9.89 75.9 0 0 .45-.76l.17-5.7a.48.47 64.7 0 0-.85-.31q-2.35 3.07-5.61.13"/><path stroke="#d6e2e5" vector-effect="non-scaling-stroke" d="M84.16 64.62c-2.21-1.23-7.28-2.98-5.69-6.25q.21-.43.59-.14.74.58 1.67.8a.16.16 0 0 0 .09-.31c-3.69-.95-2.49-6.59-2.59-9.61q-.02-.45-.27-.82-.3-.43-.74-.61-.38-.15-.18.2l.13.21q.28.47-.18.76l-7.49 4.56"/><path stroke="#c1d8ad" vector-effect="non-scaling-stroke" d="m69.5 53.41-16.65-9.48q-.55-.31-.12-.78.33-.36.75-.66a.03.03 0 0 0-.03-.05q-4.29 2.04-8.24 4.69-1.33.89.11.2l.6-.29q.37-.18.74.03l16.11 9.17"/><path stroke="#98ba92" vector-effect="non-scaling-stroke" d="M69.5 53.41q-.06-.03-.11-.06"/><path stroke="#41582d" vector-effect="non-scaling-stroke" d="m69.39 53.35-5.61 3.24"/><path stroke="#98ba92" vector-effect="non-scaling-stroke" d="M63.78 56.59q-.62-.07-1.01-.35"/><path stroke="gray" vector-effect="non-scaling-stroke" d="M69.49 71.92c-1.87 1.55.74 2.47 1.96 2.9a1.15 1.13-48.8 0 0 .88-.07l3.29-1.69a.4.4 0 0 0 .14-.59q-1.65-2.27-3.58-1.15"/><path stroke="gray" vector-effect="non-scaling-stroke" d="M73.57 69.89q2.89 3.38 5.54.94.4-.36.95-.4.74-.04 1.01-.58.21-.42-.15-.71-1.52-1.21-3.38-1.63M77.72 66.93l4.07 2.08q.38.19.76-.02l3.4-1.98q.6-.34.02-.72L84 64.99"/><path stroke="#576265" vector-effect="non-scaling-stroke" d="M56.98 79.49q-.11-.57.86-.57"/><path stroke="gray" vector-effect="non-scaling-stroke" d="M57.84 78.92q3.03 3.54 5.91.81.33-.31.76-.4l.91-.17q.66-.13.21-.64-1.28-1.43-3.09-1.77"/><path stroke="#576265" vector-effect="non-scaling-stroke" d="M62.54 76.75q.14-.55.98-.62"/><path stroke="gray" vector-effect="non-scaling-stroke" d="M63.52 76.13q2.99 3.23 5.43.65a1.48 1.44-72.4 0 1 .82-.44l1.14-.2a.44.43 55.7 0 0 .15-.8l-3.01-1.84a.87.86 46.3 0 0-.85-.02l-3.39 1.84"/><path stroke="#576265" vector-effect="non-scaling-stroke" d="m63.81 75.32-.03-18.73"/><path stroke="#d6e2e5" vector-effect="non-scaling-stroke" d="M63.81 75.32q-.4.34-.29.81M62.54 76.75l-4.7 2.17"/><path stroke="#576265" vector-effect="non-scaling-stroke" d="M84.16 64.62q-.08.19-.16.37"/><path stroke="#d6e2e5" vector-effect="non-scaling-stroke" d="m84 64.99-3.8-2.15a.91.91 0 0 0-1.31.51l-1.17 3.58"/><path stroke="#576265" vector-effect="non-scaling-stroke" d="M77.72 66.93q-.33.19-.18.58"/><path stroke="#d6e2e5" vector-effect="non-scaling-stroke" d="m77.54 67.51-3.97 2.38"/><path stroke="#576265" vector-effect="non-scaling-stroke" d="M73.57 69.89q-1.66 1.05-1.39 1.43"/><path stroke="#d6e2e5" vector-effect="non-scaling-stroke" d="M72.18 71.32q-1.72.07-2.69.6"/><path stroke="#576265" vector-effect="non-scaling-stroke" d="m69.49 71.92-.1-18.57"/><path stroke="#d6e2e5" vector-effect="non-scaling-stroke" d="M163.25 49.07v4.53a.41.4-76 0 1-.59.36l-.41-.22a.25.18 69.2 0 0-.11.42q.43.35 1.02.51.65.18.63-.5l-.14-5.63q-.01-.37-.34-.55l-6.87-3.57q-.46-.24-.98-.17-1.02.14-1.51-.7a.35.33-60.9 0 0-.63.2l-.1 4.24q-.01.58.57.51c1.29-.15 2.45 2.2 3.65 2.88a.68.68 0 0 0 .94-.3q.86-1.76-.02-3.53a.85.85 0 0 1 1.19-1.11q1.59.93 3.18 1.77.52.27.52.86"/><path stroke="#9da59a" vector-effect="non-scaling-stroke" d="m225.85 60.14-13.89 7.76a.7.69-37.7 0 1-.82-.1q-2.25-2.1-5.15-3.17a.12.12 0 0 0-.1.22q6.56 3.42 8.39 6.61c2.42 4.22 1.62 6.92 2.25 11.01q.06.4.42.2l17.15-9.9q.39-.23.46-.67 1.09-6.52-1.76-11.8"/><path stroke="#c1d8ad" vector-effect="non-scaling-stroke" d="M232.8 60.3c-2.4-4.22-9.62-7.72-14.31-9.94a.14.13 72.4 0 0-.12.24q5.32 3.23 10.68 6.12a.77.76 42.7 0 1 .06 1.32l-3.26 2.1"/><path stroke="#5e7d47" vector-effect="non-scaling-stroke" d="M232.8 60.3q-.42.01-.73.53"/><path stroke="#98ba92" vector-effect="non-scaling-stroke" d="M232.07 60.83q-.14-.1-.26-.17a.59.56 44.7 0 0-.59-.01l-16.85 9.73"/><path stroke="#5e7d47" vector-effect="non-scaling-stroke" d="M214.37 70.38q-1.42-.32-2.03-1.55-.25-.51.23-.79l13.28-7.9"/><path stroke="#74877f" vector-effect="non-scaling-stroke" d="M214.37 70.38q2.83 5.29 2.59 10.89a.46.46 0 0 0 .68.42l15.86-9.17a1.44 1.42-12.4 0 0 .71-1.1q.57-5.79-2.14-10.59"/><path stroke="#d6e2e5" vector-effect="non-scaling-stroke" d="m38.95 59.46 2.71 2.21a.37.37 0 0 0 .57-.46l-.47-.93q-.19-.38-.61-.5-2.69-.83-3-3.7a.92.91 6.2 0 1 1.2-.96l.66.22q.49.16.18-.25-.9-1.22-2.2-.6-.38.18-.42.6-.38 3.92.1 7.86-.3-1.8.38-3.28.31-.69.9-.21M41.56 56.5l.42 2.25q.11.53.22 0 .26-1.13-.49-2.31-.22-.36-.15.06M36.6 65.44q-.15 0-.27.04-.18.06 0 .14l.86.38q.28.13.31-.18.05-.63-.01-1.27-.04-.34-.23-.05l-.6.9q-.02.03-.06.04M34.93 66.75q-.15.32-.37.47-.36.25-.01.51l1.9 1.41q.4.29.79 0 .37-.28.2-.59"/><path stroke="gray" vector-effect="non-scaling-stroke" d="m37.44 68.55.08-.77q.05-.43-.38-.48-1.08-.12-1.47-.89-.17-.33-.41-.04l-.33.38"/><path stroke="#576265" vector-effect="non-scaling-stroke" d="m37.44 68.55-2.51-1.8"/><path stroke="#d6e2e5" vector-effect="non-scaling-stroke" d="M134.04 68.06q-3.15-1.77-6.21-1.72a.03.02 48.1 0 0 0 .05l6.16 1.79a.07.07 0 0 0 .05-.12"/><path stroke="gray" vector-effect="non-scaling-stroke" d="M202.55 74.14q-.83 1.56 1.82 1.47"/><path stroke="#d6e2e5" vector-effect="non-scaling-stroke" d="M204.37 75.61c.7-.16 6.03 4.26 7.66 4.94q.54.22.62-.36.54-4.02-.29-7.93a.62.62 0 0 0-.86-.43l-.24.11q-.39.17-.77-.04l-7.76-4.5a.49.49 0 0 0-.73.42v3.87q0 .52.4.84 1.49 1.22.15 1.61"/><path stroke="#576265" vector-effect="non-scaling-stroke" d="m204.37 75.61-1.82-1.47"/><path stroke="#c1d8ad" vector-effect="non-scaling-stroke" d="M120.67 72.22q-1.09 4.93.05 10.08"/><path stroke="#edf981" vector-effect="non-scaling-stroke" d="m120.72 82.3 1.56 5.19"/><path stroke="#c1d8ad" vector-effect="non-scaling-stroke" d="M122.28 87.49q0 .17-.02.33-.04.35-.34.52l-40.16 23.38"/><path stroke="#d6e2e5" vector-effect="non-scaling-stroke" d="M81.76 111.72q-.89.26-1.51.93-.41.43.11.73l40.09 23.41"/><path stroke="gray" vector-effect="non-scaling-stroke" d="m120.45 136.79 50.21-29.28q.65-.37.01-.78l-.85-.55"/><path stroke="#edf981" vector-effect="non-scaling-stroke" d="m169.82 106.18-14.88-8.72"/><path stroke="#d6e2e5" vector-effect="non-scaling-stroke" d="M154.94 97.46q.13-.67.48-.64"/><path stroke="gray" vector-effect="non-scaling-stroke" d="M155.42 96.82q.7-1.98.24-3.95-.12-.49-.56-.74l-3.79-2.14"/><path stroke="#9da59a" vector-effect="non-scaling-stroke" d="M151.31 89.99q-1.56-1.41-3.71-1.48"/><path stroke="#d6e2e5" vector-effect="non-scaling-stroke" d="M147.6 88.51q-.11-.19-1.07-.15"/><path stroke="gray" vector-effect="non-scaling-stroke" d="M146.53 88.36q-.36-.47-2.45 1.14"/><path stroke="#edf981" vector-effect="non-scaling-stroke" d="M144.08 89.5q-.73-8.14-5.57-13.97"/><path stroke="#c1d8ad" vector-effect="non-scaling-stroke" d="M138.51 75.53q-2.12-3.12-5.53-5.11"/><path stroke="#edf981" vector-effect="non-scaling-stroke" d="M132.98 70.42c-4.16-3.42-10.08-4.07-12.31 1.8"/><path stroke="#afd22e" vector-effect="non-scaling-stroke" d="m132.98 70.42 5.53 5.11"/><path stroke="#6e7a01" vector-effect="non-scaling-stroke" d="M144.08 89.5q-.08 10.56-10.19 16.7"/><path stroke="#edf981" vector-effect="non-scaling-stroke" d="M133.89 106.2q-.89 1.07-2.36.05"/><path stroke="#afd22e" vector-effect="non-scaling-stroke" d="M131.53 106.25q-1.26-3.74-3.8-6.58"/><path stroke="#edf981" vector-effect="non-scaling-stroke" d="m127.73 99.67-3.76-8.06a1.02 1.02 0 0 0-1.41-.46l-7.01 3.88"/><path stroke="#afd22e" vector-effect="non-scaling-stroke" d="M115.55 95.03q-2.59.34-4.26 2.51"/><path stroke="#edf981" vector-effect="non-scaling-stroke" d="m111.29 97.54-25.71 15.02a.6.6 0 0 0 0 1.04l31.9 18.42a2.36 2.36 0 0 0 2.36 0l16.09-9.34"/><path stroke="#afd22e" vector-effect="non-scaling-stroke" d="M135.93 122.68q2.65-.2 4.53-2.61"/><path stroke="#edf981" vector-effect="non-scaling-stroke" d="m140.46 120.07 9.03-5.29"/><path stroke="#afd22e" vector-effect="non-scaling-stroke" d="M149.49 114.78q2.92-.09 4.75-2.6"/><path stroke="#edf981" vector-effect="non-scaling-stroke" d="m154.24 112.18 9.09-5.39a.95.95 0 0 0-.02-1.65l-11.58-6.45"/><path stroke="#c4dc66" vector-effect="non-scaling-stroke" d="M151.73 98.69q1.64-1.74 3.21-1.23"/><path stroke="#6e7a01" vector-effect="non-scaling-stroke" d="M169.82 106.18q-.01.81-.52 1.11-24.79 14.51-49.11 28.59"/><path stroke="#c4dc66" vector-effect="non-scaling-stroke" d="m120.19 135.88-38.8-22.59q-.49-.29-.1-.7.5-.51 1.25-.75"/><path stroke="#afd22e" vector-effect="non-scaling-stroke" d="m82.54 111.84 40.08-23.09q.36-.2.24-.6-.12-.37-.58-.66M120.72 82.3l-.05-10.08"/><path stroke="#576265" vector-effect="non-scaling-stroke" d="M120.45 136.79q-.13-.46-.26-.91"/><path stroke="#98ba92" vector-effect="non-scaling-stroke" d="m82.54 111.84-.78-.12"/><path stroke="#74877f" vector-effect="non-scaling-stroke" d="m147.6 88.51 3.59 1.77"/><path stroke="#576265" vector-effect="non-scaling-stroke" d="m151.19 90.28 3.49 1.97a.83.82-52.4 0 1 .17 1.31c-1.25 1.24-6.16-2.35-7.45-3.17a.17.16 39.8 0 0-.2.01q-.12.1-.14.23-.01.11.08.16l7.69 4.43q.44.26.41.76-.02.45.18.84"/><path stroke="#d6e2e5" vector-effect="non-scaling-stroke" d="M151.73 98.69q-1.16 1.05-2.57 1.46-.48.15-.94-.07l-4.31-2.12"/><path stroke="#c1d8ad" vector-effect="non-scaling-stroke" d="M127.73 99.67q1.13 3.72 3.8 6.58M154.24 112.18q-2.62.62-4.75 2.6M140.46 120.07l-4.53 2.61M111.29 97.54l4.26-2.51"/><path stroke="#576265" vector-effect="non-scaling-stroke" d="M146.53 88.36q.24 5.16-2.62 9.6"/><path stroke="gray" vector-effect="non-scaling-stroke" d="M143.91 97.96q-3.71 5.45-10.02 8.24"/><path stroke="#1d251a" vector-effect="non-scaling-stroke" d="M151.31 89.99q-.06.14-.12.29"/><path stroke="#d6e2e5" vector-effect="non-scaling-stroke" d="M210.2 69.54q-1.37-.95-2.89-1.64a.14.14 0 0 0-.13.25q1.64 1.07 2.82 1.7a.19.18-13 0 0 .2-.31M138.1 71.45q.79 1.01 2.1 1.93a.11.11 0 0 0 .14-.16l-2.03-2.03a.18.15 88.7 0 0-.21.26M213.74 75.04c1.55 2.5.15 3.86.53 6.25q.12.7.19-.01c.23-2.36.86-5.65-.55-6.42q-.43-.23-.17.18M229.27 82.93c2.49-1.73 2.95-3.8 3.39-6.62q.08-.51-.38-.26l-12.99 7.37a.58.58 0 0 0-.16.87l2.26 2.71q.26.32.62.14 3.8-1.81 7.26-4.21M234.27 77.4q-.42.95-.26 1.99.08.54-.41.79-.95.47-1.11 1.53-.08.55.35.19 2.09-1.76 1.51-4.49-.03-.13-.08-.01M148.02 80.01l-3.31-2.11a.17.17 0 0 0-.21.26q1.51 1.62 3.37 2.18a.18.18 0 0 0 .15-.33"/><path stroke="#9da59a" vector-effect="non-scaling-stroke" d="M181.06 81.31q1.7-.67 3.09-1.93a.1.1 0 0 0-.12-.16l-3.76 2.18a.2.19 32.9 0 0 .08.36q.55.07.71-.45"/><path stroke="#d6e2e5" vector-effect="non-scaling-stroke" d="M76.99 81.77q-.49-.48-1.17-.62a.33.31-23.4 0 0-.26.58q1.14.55 2.36 1.03.56.23.32-.33-.2-.45-.68-.44-.33 0-.57-.22"/><path stroke="#c1d8ad" vector-effect="non-scaling-stroke" d="M216.62 92.38q.72 2.09.3 3.77-.12.5-.62.37-2.29-.61-4.09-2.23"/><path stroke="gray" vector-effect="non-scaling-stroke" d="M212.21 94.29c-1.06-4.12-4.6-10.97-9.43-11.25q-3.58-.21-3.61 4.15"/><path stroke="#c1d8ad" vector-effect="non-scaling-stroke" d="M199.17 87.19c.47 3.71 5.02 11.63 9.92 8.9"/><path stroke="gray" vector-effect="non-scaling-stroke" d="m209.09 96.09 2.75-1.66"/><path stroke="#c1d8ad" vector-effect="non-scaling-stroke" d="m211.84 94.43 4.67 3.01q.42.27.87.03l4.96-2.72"/><path stroke="#d6e2e5" vector-effect="non-scaling-stroke" d="M222.34 94.75c2.61-1.41 12.12-6.19 13.14-8.69q.62-1.54.01-3.25-.18-.49-.66-.3-7.92 3.19-15 8.02a.49.49 0 0 1-.76-.32q-.09-.55.38-1.11a.4.4 0 0 0-.02-.54l-.28-.28q-.35-.35-.63.06l-.79 1.17a.49.49 0 0 1-.9-.27l-.11-4.69a.04.03 51 0 0-.07-.01q-.48 2.75.08 5.73.13.72-.57 1.17-.32.21-.02.44.41.32.48.5"/><path stroke="#98ba92" vector-effect="non-scaling-stroke" d="M222.34 94.75q-1.43-4.31-5.72-2.37"/><path stroke="#41582d" vector-effect="non-scaling-stroke" d="M212.21 94.29q-.02.45-.37.14M209.09 96.09Q210.9 87.84 203 85q-2.34-.84-3.83 2.19"/><path stroke="#d6e2e5" vector-effect="non-scaling-stroke" d="M172.56 85.88q1.97-.5 3.42-1.59 1.02-.78-.18-.32-1.95.74-3.35 1.63-.79.51.11.28M86.668 87.618a2.83.53 28.9 0 0-2.222-1.832 2.83.53 28.9 0 0-2.734-.904 2.83.53 28.9 0 0 2.222 1.832 2.83.53 28.9 0 0 2.734.904M54.526 90.341a4.33.27 30.1 0 0-3.61-2.405 4.33.27 30.1 0 0-3.882-1.938 4.33.27 30.1 0 0 3.61 2.406 4.33.27 30.1 0 0 3.882 1.938"/><path stroke="#c1d8ad" vector-effect="non-scaling-stroke" d="M16.61 92.06q-1.14 3.29-.91 6.69c.85 12.48.3 25.39.3 38.02a2.44 2.43-75.1 0 0 1.22 2.11L49 157.26"/><path stroke="gray" vector-effect="non-scaling-stroke" d="m49 157.26-.33 4.74a1.14 1.12 78.2 0 1-.58.9l-4.17 2.3a.81.81 0 0 0-.42.71v1.82q0 .56.47.26l6.01-3.75a1 .99 74.4 0 0 .47-.85l.05-4.39"/><path stroke="#c1d8ad" vector-effect="non-scaling-stroke" d="M50.5 159c2.99-.07 13.63 7.12 16.72 9q.41.25.89.17l1.13-.19"/><path stroke="gray" vector-effect="non-scaling-stroke" d="M69.24 167.98q1.64-.42 1.64-1.55c-.05-11.31.47-43.66-.38-44.28"/><path stroke="#d6e2e5" vector-effect="non-scaling-stroke" d="M70.5 122.15q-.5-.36-.47-.65a.55.55 0 0 1 .83-.43q12.19 7.2 24.82 13.88a.09.09 0 0 0 .09-.16l-35.19-20.51a1.98 1.98 0 0 1 0-3.42l41.4-23.99q.39-.23.03-.5c-.54-.41-7.29 3.88-8.18 4.46q-.44.29-.87-.02-1.24-.87-2.7-1.5a.31.31 0 0 0-.33.52q.84.73 1.76 1.37.63.42-.03.79-15.53 8.66-30.85 17.7c-1.39.82-2.46 2.71-1.53 4.05a.73.6 2.5 0 1-1.04.78L20.15 92.59q-.49-.28-1.06-.33l-2.48-.2"/><path stroke="#576265" vector-effect="non-scaling-stroke" d="m70.5 122.15-1.33.91"/><path stroke="#98ba92" vector-effect="non-scaling-stroke" d="M69.17 123.06q-.68-1.17-2.22-1.96"/><path stroke="#d6e2e5" vector-effect="non-scaling-stroke" d="M66.95 121.1c.51-.34 1.56-1.49.77-2.01q-.26-.17-.48.05l-.68.67a.43.26 87.2 0 1-.38-.57q.23-.79-.39-1.13-.49-.26-.73.24l-.22.46q-.28.58-.52-.02-.32-.82-1.14-.82-.22 0-.44-.04-.42-.08-.48-.38-.05-.24.19-.24c.73-.01.72-.84.34-1.16q-.36-.31-.64.07-.48.63-1.61 1.12"/><path stroke="#98ba92" vector-effect="non-scaling-stroke" d="M60.54 117.34q-.37-.07-.53-.26"/><path stroke="#d6e2e5" vector-effect="non-scaling-stroke" d="M60.01 117.08q.89-.36 1.19-1.37.09-.27-.16-.42l-.29-.17q-.44-.27-.7.18-.46.8-1.35.24-11.46-7.09-23.66-13.09"/><path stroke="#98ba92" vector-effect="non-scaling-stroke" d="M35.04 102.45 16.61 92.06"/><path stroke="#c1d8ad" vector-effect="non-scaling-stroke" d="m35.04 102.45 24.97 14.63M60.54 117.34l6.41 3.76"/><path stroke="#41582d" vector-effect="non-scaling-stroke" d="m69.17 123.06.07 44.92M50.5 159c-.1-.5-.44-2.58-1.5-1.74"/><path stroke="#d6e2e5" vector-effect="non-scaling-stroke" d="M164.5 89.37q-.34-.3-.7-.31-.97-.03.02.45 2.46 1.2 4.17-1 .31-.41-.16-.2l-2.68 1.17q-.36.16-.65-.11"/><path stroke="gray" vector-effect="non-scaling-stroke" d="M190.64 110.16q-32.74 19.14-65.68 37.94c-.9.51-2.15.61-3.15.67q-.3.02-.3.32l-.1 5.24q-.01.41.39.36 2.4-.24 3.18-.69 33.35-19.15 66.31-38.22 1.19-.69 1.29-2.07.22-3.1-.15-6.2-.06-.53-.14-.01c-.19 1.21-.52 1.99-1.65 2.66"/><path stroke="#c1d8ad" vector-effect="non-scaling-stroke" d="m229.45 139.85-30.06-16.41a1.51 1.51 0 0 0-1.47.02l-22.42 13a.27.27 0 0 0 .16.51c2.23-.17 7.05 3.1 9.25 4.13"/><path stroke="#d6e2e5" vector-effect="non-scaling-stroke" d="m184.91 141.1 20.43 11.13a.86.86 0 0 1 .11 1.44q-2.02 1.56-3.89 3.36a.16.16 0 0 0 .2.24l4.37-3.29q.66-.49.65.32l-.01.47"/><path stroke="gray" vector-effect="non-scaling-stroke" d="m206.77 154.77-.03 18.69q0 .56.48.28l21.38-12.33a.91.87-14.5 0 0 .45-.73l.24-5.17q.04-.73-.59-.37l-13.49 7.81q-.43.25-.73-.15l-6.97-9.12"/><path stroke="#9da59a" vector-effect="non-scaling-stroke" d="M207.51 153.68q-.06-1.08.68-1.49 10.08-5.62 20.47-11.97"/><path stroke="#c1d8ad" vector-effect="non-scaling-stroke" d="m228.66 140.22 2.86 3.41q.72.85.24-.15-.74-1.54-2.08-2.67"/><path stroke="#d6e2e5" vector-effect="non-scaling-stroke" d="m229.68 140.81.05-.35q.03-.23.25-.28 4.95-1.19 9.75-1.59a.62.62 0 0 0 .24-1.17l-29.51-15.8a1.78 1.74-33.3 0 0-1.03-.2q-3.88.4-7.72 1.09a.2.2 0 0 0 .03.4c2.05.06 7.27-1.43 8.73-.66q14.25 7.46 28.42 15.14a.34.34 0 0 1-.1.64l-9.34 1.82"/><path stroke="#98ba92" vector-effect="non-scaling-stroke" d="M229.68 140.81q-.25-.41-.23-.96"/><path stroke="#5e7d47" vector-effect="non-scaling-stroke" d="m228.66 140.22-4.12 1.48"/><path stroke="#c1d8ad" vector-effect="non-scaling-stroke" d="m224.54 141.7-.63-1.6q-.18-.47-.61-.74-8.57-5.24-17.91-8.93c-2.24-.89-4.71-3.32-8.15-2.37q-3.44.95-9.17 4.03-1.99 1.06-2.93 1.29-.4.09-.64.44l-1.82 2.57q-.3.42-.81.49-.97.13-.88 1.13.05.5.49.74l2.73 1.55"/><path stroke="#98ba92" vector-effect="non-scaling-stroke" d="M184.21 140.3q.95-.14.7.8"/><path stroke="#74877f" vector-effect="non-scaling-stroke" d="M222.8 143.12q-7.21 4.27-14.5 8.42-1.7.96-1.03 2.15"/><path stroke="#576265" vector-effect="non-scaling-stroke" d="m207.27 153.69-.5 1.08"/><path stroke="#9da59a" vector-effect="non-scaling-stroke" d="M224.54 141.7q-.59.93-1.74 1.42"/><path stroke="#d6e2e5" vector-effect="non-scaling-stroke" d="M222.8 143.12q-10.67-7.32-22.11-13c-2.39-1.18-12.11 5.87-14.41 7.46-1.08.75-1.39 1.62-2.07 2.72"/><path stroke="#1d251a" vector-effect="non-scaling-stroke" d="M207.51 153.68q-.12 0-.24.01"/><path stroke="#d6e2e5" vector-effect="non-scaling-stroke" d="M85.79 135.33q2.74 1.59 5.55 3.08a.13.13 0 0 0 .13-.22q-9.6-5.97-19.55-11.32-.12-.07-.15.06-.04.14-.03.32.01.14.13.21l12.24 6.81q.56.31.05.71l-1.39 1.09a.25.24-76 0 0 .25.42q1.01-.47 1.98-1.13.38-.26.79-.03M165.34 132.7q-.46-.47-1.1-.7a.26.26 0 0 0-.2.48l2.35 1.25a.25.25 0 0 0 .34-.34q-.2-.4-.69-.4a.99.99 0 0 1-.7-.29M174.31 137.44q-1.5-1.21-3.4-1.43a.32.32 0 0 0-.19.6l3.48 1.92a.54.54 0 0 0 .79-.56q-.09-.46-.68-.53M78.684 138.505a2.27.33-30.6 0 0-2.122.871 2.27.33-30.6 0 0-1.786 1.44 2.27.33-30.6 0 0 2.122-.872 2.27.33-30.6 0 0 1.786-1.44M167.51 145.6c2.06-1.9 4.13-4.14 6.14-6.19a.25.24 23.2 0 0-.17-.42c-1.2-.01-7.14 6.69-7.7 7.32q-.46.51.16.82l9.48 4.82a1.51 1.51 0 0 1 .83 1.35v3.68q0 .58.49.89 2.74 1.73 5.75 2.99a.12.12 0 0 0 .1-.21l-5.6-2.96a.85.84-73.6 0 1-.44-.82l.39-3.96q.06-.55-.43-.81l-8.75-4.6a1.18 1.17-52.6 0 1-.25-1.9M198.76 169.46q2.41 2.17 5.44 3.13.9.29.06-.16l-5.5-2.97"/><path stroke="#c1d8ad" vector-effect="non-scaling-stroke" d="m198.76 169.46-5.57-3.07q-.44-.24-.44-.74v-3.66a.5.5 0 0 1 .79-.4q1.01.75 2.24 1a.16.16 0 0 0 .11-.29q-7.92-4.15-15.9-8.23a.12.12 0 0 0-.11.21q3.06 1.9 6.37 3.42.48.22.48.75l.03 2.3a1.29.05 79.4 0 0 .14.97q.12.63-.5 1.15-.34.28.05.47l12.31 6.12"/><path stroke="#98ba92" vector-effect="non-scaling-stroke" d="M156.15 63.21c.42-2.89-1.09-4.03-3.11-5.56q-.4-.3-.87-.16c-3.87 1.16 1.15 5.48 2.3 6.39a1.04 1.04 0 0 0 1.68-.67"/><path stroke="#d6e2e5" vector-effect="non-scaling-stroke" d="M83.41 66.02q-.69-.66-1.61-.86a.15.15 0 0 0-.11.28l2.16 1.43a.22.22 0 0 0 .34-.12q.18-.5-.2-.5-.34 0-.58-.23"/><path stroke="#afd22e" vector-effect="non-scaling-stroke" d="M139.21 84.72a1.5 1.49 38.7 0 0-2.04.22l-4.23 4.95a.52.52 0 0 1-.87-.13c-1.08-2.41-2.51-7.47-4.49-9.01a.9.89 7.6 0 0-1.38 1.05l5.09 12.07a1.37 1.37 0 0 0 2.33.33c1.19-1.46 8.28-7.46 5.59-9.48"/><path stroke="#98ba92" vector-effect="non-scaling-stroke" d="M175.95 73.29c.46-1.22-2.15-2.7-3-3.23a1.36 1.35-81.9 0 0-2.02 1.52q.85 3 3.41 4.93a1.33 1.33 0 0 0 2.06-.66q.42-1.3-.25-1.84-.36-.29-.2-.72"/><path stroke="#576265" vector-effect="non-scaling-stroke" d="M223.95 92.39c2.92-1.43 6.85-3.55 7.39-6.67q.07-.41-.28-.19l-9.33 5.59q-.45.28-.2.75c.57 1.08 1.36 1.04 2.42.52"/><path stroke="#98ba92" vector-effect="non-scaling-stroke" d="M207.23 93.35c.14-2.28-1.36-5.11-3.53-5.95a1.31 1.31 0 0 0-1.74 1.53q.94 3.8 4.73 4.81.51.13.54-.39"/><path stroke="#c1d8ad" vector-effect="non-scaling-stroke" d="m116.98 104.47-4.07-2.1q-.63-.32-1.23.04l-2.57 1.56q-.64.38 0 .76l2.88 1.72q.47.28.97.04l4.02-1.92q.1-.05 0-.1M108.64 107.64q-3.31-2.83-6.28.27-.41.44.1.75l2.92 1.79q.47.29.96.02l3.91-2.12q.64-.35-.09-.35h-.53a1.55 1.48-23.7 0 1-.99-.36"/><path stroke="#d6e2e5" vector-effect="non-scaling-stroke" d="m118.7 107.31-1.9-.79q-.81-.34-.31.38.82 1.17 2.14.98a.3.3 0 0 0 .07-.57M128.317 113.56a5.02.61 30 0 0-4.042-3.038 5.02.61 30 0 0-4.652-1.982 5.02.61 30 0 0 4.042 3.038 5.02.61 30 0 0 4.652 1.982"/><path stroke="#c1d8ad" vector-effect="non-scaling-stroke" d="m103.1 112.12-3.63-2.13q-.5-.3-.98.01l-2.84 1.76q-.54.33.01.65l3.07 1.79q.37.22.75.03l3.6-1.74q.35-.17.02-.37"/><path stroke="#d6e2e5" vector-effect="non-scaling-stroke" d="M113.09 111.98q-1.1-1.32-2.83-1.25-.74.03-.09.39l2.51 1.35a.33.32-5.5 0 0 .41-.49M124.942 119.039a.46.46 0 0 0-.174-.627l-9.574-5.417a.46.46 0 0 0-.627.174l-.03.052a.46.46 0 0 0 .175.627l9.574 5.417a.46.46 0 0 0 .626-.174l.03-.052M136.184 117.97a4.03.47 29.6 0 0-3.272-2.399 4.03.47 29.6 0 0-3.736-1.582 4.03.47 29.6 0 0 3.272 2.4 4.03.47 29.6 0 0 3.736 1.582M114.51 121.01q1.45 1.96 3.49 2.14.94.09.28-.58-1.45-1.45-3.77-1.56M114.51 121.01q-4.83-3.83-11.16-6.8a.13.12-13.7 0 0-.13.21q5.27 3.89 11.29 6.59"/><path stroke="#c1d8ad" vector-effect="non-scaling-stroke" d="M66.6 123.49 18.91 96.05a.45.45 0 0 0-.68.39c-.03 13.13 1.13 26.53.2 39.73a1.56 1.52 17.5 0 0 .77 1.44l46.71 27.05a.73.73 0 0 0 1.09-.63v-39.85q0-.46-.4-.69"/><path stroke="#c1d8ad" vector-effect="non-scaling-stroke" d="m48.98 144.48-.05 4.86a.82.82 0 0 0 1.33.66l1.56-1.22a.63.63 0 0 1 .97.25l1 2.36a.55.55 0 0 0 .8.25l4.29-2.77a.78.78 0 0 0 .14-1.2l-1.41-1.46q-.49-.51.07-.93l2.14-1.63a.74.74 0 0 0-.36-1.32q-3.47-.43-2.74-4.32"/><path stroke="#edf981" vector-effect="non-scaling-stroke" d="m56.72 138.01.02-9.08a1.59 1.58 15.2 0 0-.79-1.37l-28.78-16.54a.61.61 0 0 0-.92.53v18.99q0 .57.49.86l22.24 13.08"/><path stroke="#afd22e" vector-effect="non-scaling-stroke" d="m56.72 138.01-.38 2.53q-.09.6-.64.33l-6.59-3.25q-.64-.32-.59.4l.46 6.46"/><path stroke="#6e7a01" vector-effect="non-scaling-stroke" d="M42.49 133.05q-.38.45-.23.92.19.61.52.06l2.97-4.85q.31-.5.88-.34l1.68.47q.56.16.2-.29-1.49-1.86-3.13-.31"/><path stroke="#c4dc66" vector-effect="non-scaling-stroke" d="m45.38 128.71-9.77-5.72a.3.3 0 0 0-.44.32l1.22 5.77q.1.47.51.71l5.59 3.26"/><path stroke="#576265" vector-effect="non-scaling-stroke" d="m45.38 128.71-2.89 4.34"/><path stroke="#6e7a01" vector-effect="non-scaling-stroke" d="m40.54 134.51-3.08-1.88q-.37-.23-.46.19c-.2.87 3.54 2.16 4.46 3.16q.29.32.47-.07l.27-.55a.41.41 0 0 0-.33-.58l-.6-.04q-.39-.03-.73-.23"/><path stroke="#1d251a" vector-effect="non-scaling-stroke" d="M209.31 157.94q-.23-.58-.66-1.08-.4-.46-.4.14v2.25q0 .49.49.49c.94.02 1.47-1.23.57-1.8"/></g><path fill="#fff" d="M0 0h256v188H0V0zm168.91 14.08 2.08 1.03q.89.44.1-.16-1.01-.77-2.23-1.24-.45-.18-.87.07-3.78 2.23-7.53 4.52a.1.1 0 0 0 .1.18q3.82-1.95 7.38-4.33a.97.95-48.6 0 1 .97-.07zm13.925 7.815a3.36.21 30.5 0 0-2.788-1.886 3.36.21 30.5 0 0-3.002-1.524 3.36.21 30.5 0 0 2.788 1.886 3.36.21 30.5 0 0 3.002 1.524zm-26.948-.885a3.38.22-30 0 0-3.037 1.5 3.38.22-30 0 0-2.817 1.88 3.38.22-30 0 0 3.037-1.5 3.38.22-30 0 0 2.817-1.88zm-7.677 5.39q23.57 13.72 47.34 27.39a.19.18-11.4 0 0 .22-.3c-15.32-9.56-31.5-18.24-47.16-27.28q-.16-.1-.07-.27l.12-.23q.17-.31-.19-.27l-.45.07a.76.75-3.2 0 0-.65.72q-.23 8.75-.09 17.52a.1.09-44.6 0 0 .19 0q.39-8.53.27-17.07a.32.31-75.3 0 1 .47-.28zm67.475 14.293a3.05.19 29.1 0 0-2.573-1.649 3.05.19 29.1 0 0-2.757-1.317 3.05.19 29.1 0 0 2.573 1.649 3.05.19 29.1 0 0 2.757 1.317zM196.32 78.47l-16.7-9.32-6.53-3.71-12.64-7.38-7.49-4.26q-.43-.24-.9-.07l-1.81.64c-5.32 3.05 1.55 14.48 8.01 11.72l2.35-1.47 7.58 4.53q1.47 10.44 9.82 10.29l3.44-2.76 15.94 9.17q.34.2.34-.2v-5.31q-.25-3.46 1.2-2.37l9.02 5.74c.96 1.1 3.09 4.84 4.72 5.6q.46.21.15-.18l-4.67-5.95-5.01-3.69q-.38-.28-.64-.68l-1.73-2.71q-.29-.46-.25-1.01.38-4.75-.05-9.5-.02-.21.14-.34.13-.1.21-.23.22-.37-.16-.58-1.2-.68-1.48-2.76c-.07-1.68 15.78-10.16 18.15-11.53q.44-.25.43-.76l-.04-6.94q0-.69-.6-.34l-20.17 11.66a.97.96-15 0 0-.49.84l-.14 23.86zM62.77 56.24l-.01.25q-.03.52-.48.79l-6.93 4.17q-.1.07-.21 0l-.21-.13q-.44-.25-.13.37c.94 1.94.19 12.84.32 17.41.01.57-.29.9-.84.93q-4.37-3.24-9.23-5.47-1.19-.54-.08.15 4.53 2.8 9.31 5.32.29.31.8.52.4.17.41-.26.01-.16.01-.32a.42.42 0 0 1 .4-.43l1.08-.05 3.29 1.91a.47.46 50.8 0 1-.08.84q-.72.24-1.46.35-.4.06-.66.36c-1.19 1.38-2.48 1.46-4.09.51q-11.1-6.52-22.31-12.87-.29-.16-.52-.19-.82-.09.04.4l24.04 13.9q.53.3.52.91l-.01 4.42q-.01 1.08.93.54L90 71.26a.9.89 75.9 0 0 .45-.76l.17-5.7a.48.47 64.7 0 0-.85-.31q-2.35 3.07-5.61.13c-2.21-1.23-7.28-2.98-5.69-6.25q.21-.43.59-.14.74.58 1.67.8a.16.16 0 0 0 .09-.31c-3.69-.95-2.49-6.59-2.59-9.61q-.02-.45-.27-.82-.3-.43-.74-.61-.38-.15-.18.2l.13.21q.28.47-.18.76l-7.49 4.56-16.65-9.48q-.55-.31-.12-.78.33-.36.75-.66a.03.03 0 0 0-.03-.05q-4.29 2.04-8.24 4.69-1.33.89.11.2l.6-.29q.37-.18.74.03l16.11 9.17zm100.48-7.17v4.53a.41.4-76 0 1-.59.36l-.41-.22a.25.18 69.2 0 0-.11.42q.43.35 1.02.51.65.18.63-.5l-.14-5.63q-.01-.37-.34-.55l-6.87-3.57q-.46-.24-.98-.17-1.02.14-1.51-.7a.35.33-60.9 0 0-.63.2l-.1 4.24q-.01.58.57.51c1.29-.15 2.45 2.2 3.65 2.88a.68.68 0 0 0 .94-.3q.86-1.76-.02-3.53a.85.85 0 0 1 1.19-1.11q1.59.93 3.18 1.77.52.27.52.86zm62.6 11.07-13.89 7.76a.7.69-37.7 0 1-.82-.1q-2.25-2.1-5.15-3.17a.12.12 0 0 0-.1.22q6.56 3.42 8.39 6.61c2.42 4.22 1.62 6.92 2.25 11.01q.06.4.42.2l17.15-9.9q.39-.23.46-.67 1.09-6.52-1.76-11.8c-2.4-4.22-9.62-7.72-14.31-9.94a.14.13 72.4 0 0-.12.24q5.32 3.23 10.68 6.12a.77.76 42.7 0 1 .06 1.32l-3.26 2.1zm-186.9-.68 2.71 2.21a.37.37 0 0 0 .57-.46l-.47-.93q-.19-.38-.61-.5-2.69-.83-3-3.7a.92.91 6.2 0 1 1.2-.96l.66.22q.49.16.18-.25-.9-1.22-2.2-.6-.38.18-.42.6-.38 3.92.1 7.86-.3-1.8.38-3.28.31-.69.9-.21zm2.61-2.96.42 2.25q.11.53.22 0 .26-1.13-.49-2.31-.22-.36-.15.06zm-4.96 8.94q-.15 0-.27.04-.18.06 0 .14l.86.38q.28.13.31-.18.05-.63-.01-1.27-.04-.34-.23-.05l-.6.9q-.02.03-.06.04zm-1.67 1.31q-.15.32-.37.47-.36.25-.01.51l1.9 1.41q.4.29.79 0 .37-.28.2-.59l.08-.77q.05-.43-.38-.48-1.08-.12-1.47-.89-.17-.33-.41-.04l-.33.38zm99.11 1.31q-3.15-1.77-6.21-1.72a.03.02 48.1 0 0 0 .05l6.16 1.79a.07.07 0 0 0 .05-.12zm68.51 6.08q-.83 1.56 1.82 1.47c.7-.16 6.03 4.26 7.66 4.94q.54.22.62-.36.54-4.02-.29-7.93a.62.62 0 0 0-.86-.43l-.24.11q-.39.17-.77-.04l-7.76-4.5a.49.49 0 0 0-.73.42v3.87q0 .52.4.84 1.49 1.22.15 1.61zm-81.88-1.92q-1.09 4.93.05 10.08l1.56 5.19q0 .17-.02.33-.04.35-.34.52l-40.16 23.38q-.89.26-1.51.93-.41.43.11.73l40.09 23.41 50.21-29.28q.65-.37.01-.78l-.85-.55-14.88-8.72q.13-.67.48-.64.7-1.98.24-3.95-.12-.49-.56-.74l-3.79-2.14q-1.56-1.41-3.71-1.48-.11-.19-1.07-.15-.36-.47-2.45 1.14-.73-8.14-5.57-13.97-2.12-3.12-5.53-5.11c-4.16-3.42-10.08-4.07-12.31 1.8zm89.53-2.68q-1.37-.95-2.89-1.64a.14.14 0 0 0-.13.25q1.64 1.07 2.82 1.7a.19.18-13 0 0 .2-.31zm-72.1 1.91q.79 1.01 2.1 1.93a.11.11 0 0 0 .14-.16l-2.03-2.03a.18.15 88.7 0 0-.21.26zm75.64 3.59c1.55 2.5.15 3.86.53 6.25q.12.7.19-.01c.23-2.36.86-5.65-.55-6.42q-.43-.23-.17.18zm15.53 7.89c2.49-1.73 2.95-3.8 3.39-6.62q.08-.51-.38-.26l-12.99 7.37a.58.58 0 0 0-.16.87l2.26 2.71q.26.32.62.14 3.8-1.81 7.26-4.21zm5-5.53q-.42.95-.26 1.99.08.54-.41.79-.95.47-1.11 1.53-.08.55.35.19 2.09-1.76 1.51-4.49-.03-.13-.08-.01zm-86.25 2.61-3.31-2.11a.17.17 0 0 0-.21.26q1.51 1.62 3.37 2.18a.18.18 0 0 0 .15-.33zm33.04 1.3q1.7-.67 3.09-1.93a.1.1 0 0 0-.12-.16l-3.76 2.18a.2.19 32.9 0 0 .08.36q.55.07.71-.45zm-104.07.46q-.49-.48-1.17-.62a.33.31-23.4 0 0-.26.58q1.14.55 2.36 1.03.56.23.32-.33-.2-.45-.68-.44-.33 0-.57-.22zm139.63 10.61q.72 2.09.3 3.77-.12.5-.62.37-2.29-.61-4.09-2.23c-1.06-4.12-4.6-10.97-9.43-11.25q-3.58-.21-3.61 4.15c.47 3.71 5.02 11.63 9.92 8.9l2.75-1.66 4.67 3.01q.42.27.87.03l4.96-2.72c2.61-1.41 12.12-6.19 13.14-8.69q.62-1.54.01-3.25-.18-.49-.66-.3-7.92 3.19-15 8.02a.49.49 0 0 1-.76-.32q-.09-.55.38-1.11a.4.4 0 0 0-.02-.54l-.28-.28q-.35-.35-.63.06l-.79 1.17a.49.49 0 0 1-.9-.27l-.11-4.69a.04.03 51 0 0-.07-.01q-.48 2.75.08 5.73.13.72-.57 1.17-.32.21-.02.44.41.32.48.5zm-44.06-6.5q1.97-.5 3.42-1.59 1.02-.78-.18-.32-1.95.74-3.35 1.63-.79.51.11.28zm-85.892 1.738a2.83.53 28.9 0 0-2.222-1.832 2.83.53 28.9 0 0-2.734-.904 2.83.53 28.9 0 0 2.222 1.832 2.83.53 28.9 0 0 2.734.904zm-32.142 2.724a4.33.27 30.1 0 0-3.61-2.406 4.33.27 30.1 0 0-3.882-1.938 4.33.27 30.1 0 0 3.61 2.406 4.33.27 30.1 0 0 3.882 1.938zM16.61 92.06q-1.14 3.29-.91 6.69c.85 12.48.3 25.39.3 38.02a2.44 2.43-75.1 0 0 1.22 2.11L49 157.26l-.33 4.74a1.14 1.12 78.2 0 1-.58.9l-4.17 2.3a.81.81 0 0 0-.42.71v1.82q0 .56.47.26l6.01-3.75a1 .99 74.4 0 0 .47-.85l.05-4.39c2.99-.07 13.63 7.12 16.72 9q.41.25.89.17l1.13-.19q1.64-.42 1.64-1.55c-.05-11.31.47-43.66-.38-44.28q-.5-.36-.47-.65a.55.55 0 0 1 .83-.43q12.19 7.2 24.82 13.88a.09.09 0 0 0 .09-.16l-35.19-20.51a1.98 1.98 0 0 1 0-3.42l41.4-23.99q.39-.23.03-.5c-.54-.41-7.29 3.88-8.18 4.46q-.44.29-.87-.02-1.24-.87-2.7-1.5a.31.31 0 0 0-.33.52q.84.73 1.76 1.37.63.42-.03.79-15.53 8.66-30.85 17.7c-1.39.82-2.46 2.71-1.53 4.05a.73.6 2.5 0 1-1.04.78L20.15 92.59q-.49-.28-1.06-.33l-2.48-.2zm147.89-2.69q-.34-.3-.7-.31-.97-.03.02.45 2.46 1.2 4.17-1 .31-.41-.16-.2l-2.68 1.17q-.36.16-.65-.11zm26.14 20.79q-32.74 19.14-65.68 37.94c-.9.51-2.15.61-3.15.67q-.3.02-.3.32l-.1 5.24q-.01.41.39.36 2.4-.24 3.18-.69 33.35-19.15 66.31-38.22 1.19-.69 1.29-2.07.22-3.1-.15-6.2-.06-.53-.14-.01c-.19 1.21-.52 1.99-1.65 2.66zm38.81 29.69-30.06-16.41a1.51 1.51 0 0 0-1.47.02l-22.42 13a.27.27 0 0 0 .16.51c2.23-.17 7.05 3.1 9.25 4.13l20.43 11.13a.86.86 0 0 1 .11 1.44q-2.02 1.56-3.89 3.36a.16.16 0 0 0 .2.24l4.37-3.29q.66-.49.65.32l-.01.47-.03 18.69q0 .56.48.28l21.38-12.33a.91.87-14.5 0 0 .45-.73l.24-5.17q.04-.73-.59-.37l-13.49 7.81q-.43.25-.73-.15l-6.97-9.12q-.06-1.08.68-1.49 10.08-5.62 20.47-11.97l2.86 3.41q.72.85.24-.15-.74-1.54-2.08-2.67l.05-.35q.03-.23.25-.28 4.95-1.19 9.75-1.59a.62.62 0 0 0 .24-1.17l-29.51-15.8a1.78 1.74-33.3 0 0-1.03-.2q-3.88.4-7.72 1.09a.2.2 0 0 0 .03.4c2.05.06 7.27-1.43 8.73-.66q14.25 7.46 28.42 15.14a.34.34 0 0 1-.1.64l-9.34 1.82zm-143.66-4.52q2.74 1.59 5.55 3.08a.13.13 0 0 0 .13-.22q-9.6-5.97-19.55-11.32-.12-.07-.15.06-.04.14-.03.32.01.14.13.21l12.24 6.81q.56.31.05.71l-1.39 1.09a.25.24-76 0 0 .25.42q1.01-.47 1.98-1.13.38-.26.79-.03zm79.55-2.63q-.46-.47-1.1-.7a.26.26 0 0 0-.2.48l2.35 1.25a.25.25 0 0 0 .34-.34q-.2-.4-.69-.4a.99.99 0 0 1-.7-.29zm8.97 4.74q-1.5-1.21-3.4-1.43a.32.32 0 0 0-.19.6l3.48 1.92a.54.54 0 0 0 .79-.56q-.09-.46-.68-.53zm-95.626 1.065a2.27.33-30.6 0 0-2.122.871 2.27.33-30.6 0 0-1.786 1.44 2.27.33-30.6 0 0 2.122-.872 2.27.33-30.6 0 0 1.786-1.44zm88.826 7.095c2.06-1.9 4.13-4.14 6.14-6.19a.25.24 23.2 0 0-.17-.42c-1.2-.01-7.14 6.69-7.7 7.32q-.46.51.16.82l9.48 4.82a1.51 1.51 0 0 1 .83 1.35v3.68q0 .58.49.89 2.74 1.73 5.75 2.99a.12.12 0 0 0 .1-.21l-5.6-2.96a.85.84-73.6 0 1-.44-.82l.39-3.96q.06-.55-.43-.81l-8.75-4.6a1.18 1.17-52.6 0 1-.25-1.9zm31.25 23.86q2.41 2.17 5.44 3.13.9.29.06-.16l-5.5-2.97-5.57-3.07q-.44-.24-.44-.74v-3.66a.5.5 0 0 1 .79-.4q1.01.75 2.24 1a.16.16 0 0 0 .11-.29q-7.92-4.15-15.9-8.23a.12.12 0 0 0-.11.21q3.06 1.9 6.37 3.42.48.22.48.75l.03 2.3a1.29.05 79.4 0 0 .14.97q.12.63-.5 1.15-.34.28.05.47l12.31 6.12z"/><path fill="#adc4ca" d="M168.91 14.08a.97.95-48.6 0 0-.97.07q-3.56 2.38-7.38 4.33a.1.1 0 0 1-.1-.18q3.75-2.29 7.53-4.52.42-.25.87-.07 1.22.47 2.23 1.24.79.6-.1.16l-2.08-1.03z"/><ellipse fill="#adc4ca" transform="rotate(30.5 52.942 340.101)" rx="3.36" ry=".21"/><ellipse fill="#adc4ca" transform="rotate(-30 118.839 -274.077)" rx="3.38" ry=".22"/><path fill="#adc4ca" d="M148.21 26.4a.32.31-75.3 0 0-.47.28q.12 8.54-.27 17.07a.1.09-44.6 0 1-.19 0q-.14-8.77.09-17.52a.76.75-3.2 0 1 .65-.72l.45-.07q.36-.04.19.27l-.12.23q-.09.17.07.27c15.66 9.04 31.84 17.72 47.16 27.28a.19.18-11.4 0 1-.22.3q-23.77-13.67-47.34-27.39z"/><ellipse fill="#adc4ca" transform="rotate(29.1 30.975 429.97)" rx="3.05" ry=".19"/><path d="m199.18 61.68-.25 16.29q-1.45-1.09-1.2 2.37-1.28-.98-1.41-1.87l.14-23.86a.97.96-15 0 1 .49-.84l20.17-11.66q.6-.35.6.34l.04 6.94q.01.51-.43.76c-2.37 1.37-18.22 9.85-18.15 11.53z"/><path fill="#82b05a" d="M69.5 53.41q-.06-.03-.11-.06l-5.61 3.24q-.62-.07-1.01-.35l-16.11-9.17q-.37-.21-.74-.03l-.6.29q-1.44.69-.11-.2 3.95-2.65 8.24-4.69a.03.03 0 0 1 .03.05q-.42.3-.75.66-.43.47.12.78l16.65 9.48z"/><path fill="#adc4ca" d="M162.73 48.21q-1.59-.84-3.18-1.77a.85.85 0 0 0-1.19 1.11q.88 1.77.02 3.53a.68.68 0 0 1-.94.3c-1.2-.68-2.36-3.03-3.65-2.88q-.58.07-.57-.51l.1-4.24a.35.33-60.9 0 1 .63-.2q.49.84 1.51.7.52-.07.98.17l6.87 3.57q.33.18.34.55l.14 5.63q.02.68-.63.5-.59-.16-1.02-.51a.25.18 69.2 0 1 .11-.42l.41.22a.41.4-76 0 0 .59-.36v-4.53q0-.59-.52-.86zM84.16 64.62q-.08.19-.16.37l-3.8-2.15a.91.91 0 0 0-1.31.51l-1.17 3.58q-.33.19-.18.58l-3.97 2.38q-1.66 1.05-1.39 1.43-1.72.07-2.69.6l-.1-18.57q.05.03.11.06l7.49-4.56q.46-.29.18-.76l-.13-.21q-.2-.35.18-.2.44.18.74.61.25.37.27.82c.1 3.02-1.1 8.66 2.59 9.61a.16.16 0 0 1-.09.31q-.93-.22-1.67-.8-.38-.29-.59.14c-1.59 3.27 3.48 5.02 5.69 6.25z"/><path fill="#82b05a" d="M232.8 60.3q-.42.01-.73.53-.14-.1-.26-.17a.59.56 44.7 0 0-.59-.01l-16.85 9.73q-1.42-.32-2.03-1.55-.25-.51.23-.79l13.28-7.9 3.26-2.1a.77.76 42.7 0 0-.06-1.32q-5.36-2.89-10.68-6.12a.14.13 72.4 0 1 .12-.24c4.69 2.22 11.91 5.72 14.31 9.94z"/><path d="m69.39 53.35.1 18.57c-1.87 1.55.74 2.47 1.96 2.9a1.15 1.13-48.8 0 0 .88-.07l3.29-1.69a.4.4 0 0 0 .14-.59q-1.65-2.27-3.58-1.15-.27-.38 1.39-1.43 2.89 3.38 5.54.94.4-.36.95-.4.74-.04 1.01-.58.21-.42-.15-.71-1.52-1.21-3.38-1.63-.15-.39.18-.58l4.07 2.08q.38.19.76-.02l3.4-1.98q.6-.34.02-.72L84 64.99q.08-.18.16-.37 3.26 2.94 5.61-.13a.48.47 64.7 0 1 .85.31l-.17 5.7a.9.89 75.9 0 1-.45.76L56.67 90.57q-.94.54-.93-.54l.01-4.42q.01-.61-.52-.91L31.19 70.8q-.86-.49-.04-.4.23.03.52.19 11.21 6.35 22.31 12.87c1.61.95 2.9.87 4.09-.51q.26-.3.66-.36.74-.11 1.46-.35a.47.46 50.8 0 0 .08-.84l-3.29-1.91q-.11-.57.86-.57 3.03 3.54 5.91.81.33-.31.76-.4l.91-.17q.66-.13.21-.64-1.28-1.43-3.09-1.77.14-.55.98-.62 2.99 3.23 5.43.65a1.48 1.44-72.4 0 1 .82-.44l1.14-.2a.44.43 55.7 0 0 .15-.8l-3.01-1.84a.87.86 46.3 0 0-.85-.02l-3.39 1.84-.03-18.73 5.61-3.24zM160.45 58.06q1.86 4.28.16 6.56l-2.35 1.47q1.32-8.95-8.01-11.72l1.81-.64q.47-.17.9.07l7.49 4.26z"/><path fill="#adc4ca" d="M38.05 59.67q-.68 1.48-.38 3.28-.48-3.94-.1-7.86.04-.42.42-.6 1.3-.62 2.2.6.31.41-.18.25l-.66-.22a.92.91 6.2 0 0-1.2.96q.31 2.87 3 3.7.42.12.61.5l.47.93a.37.37 0 0 1-.57.46l-2.71-2.21q-.59-.48-.9.21z"/><path fill="#82b05a" d="M150.25 54.37q9.33 2.77 8.01 11.72c-6.46 2.76-13.33-8.67-8.01-11.72zm5.9 8.84c.42-2.89-1.09-4.03-3.11-5.56q-.4-.3-.87-.16c-3.87 1.16 1.15 5.48 2.3 6.39a1.04 1.04 0 0 0 1.68-.67z"/><path fill="#adc4ca" d="M41.71 56.44q.75 1.18.49 2.31-.11.53-.22 0l-.42-2.25q-.07-.42.15-.06zM62.77 56.24q.39.28 1.01.35l.03 18.73q-.4.34-.29.81-.84.07-.98.62l-4.7 2.17q-.97 0-.86.57l-1.08.05a.42.42 0 0 0-.4.43q0 .16-.01.32-.01.43-.41.26-.51-.21-.8-.52c.55-.03.85-.36.84-.93-.13-4.57.62-15.47-.32-17.41q-.31-.62.13-.37l.21.13q.11.07.21 0l6.93-4.17q.45-.27.48-.79l.01-.25zM153.04 57.65c2.02 1.53 3.53 2.67 3.11 5.56a1.04 1.04 0 0 1-1.68.67c-1.15-.91-6.17-5.23-2.3-6.39q.47-.14.87.16zM160.45 58.06l12.64 7.38q-1.49 1.5-3.45 2.25a.63.63 0 0 0-.39.7l.06.38q-.39.73-1.12.38l-7.58-4.53q1.7-2.28-.16-6.56z"/><path fill="#3a4a34" d="m225.85 60.14-13.28 7.9q-.48.28-.23.79.61 1.23 2.03 1.55 2.83 5.29 2.59 10.89a.46.46 0 0 0 .68.42l15.86-9.17a1.44 1.42-12.4 0 0 .71-1.1q.57-5.79-2.14-10.59.31-.52.73-.53 2.85 5.28 1.76 11.8-.07.44-.46.67l-17.15 9.9q-.36.2-.42-.2c-.63-4.09.17-6.79-2.25-11.01q-1.83-3.19-8.39-6.61a.12.12 0 0 1 .1-.22q2.9 1.07 5.15 3.17a.7.69-37.7 0 0 .82.1l13.89-7.76z"/><path fill="#adc4ca" d="M232.07 60.83q2.71 4.8 2.14 10.59a1.44 1.42-12.4 0 1-.71 1.1l-15.86 9.17a.46.46 0 0 1-.68-.42q.24-5.6-2.59-10.89l16.85-9.73a.59.56 44.7 0 1 .59.01q.12.07.26.17zM199.18 61.68q.28 2.08 1.48 2.76.38.21.16.58-.08.13-.21.23-.16.13-.14.34.43 4.75.05 9.5-.04.55.25 1.01l1.73 2.71q.26.4.64.68l5.01 3.69q-.22.29-.2.53l-9.02-5.74.25-16.29z"/><path fill="#fff" d="m84 64.99 1.97 1.3q.58.38-.02.72l-3.4 1.98q-.38.21-.76.02l-4.07-2.08 1.17-3.58a.91.91 0 0 1 1.31-.51l3.8 2.15zm-.59 1.03q-.69-.66-1.61-.86a.15.15 0 0 0-.11.28l2.16 1.43a.22.22 0 0 0 .34-.12q.18-.5-.2-.5-.34 0-.58-.23z"/><path fill="#adc4ca" d="m36.66 65.4.6-.9q.19-.29.23.05.06.64.01 1.27-.03.31-.31.18l-.86-.38q-.18-.08 0-.14.12-.04.27-.04.04-.01.06-.04zM83.99 66.25q.38 0 .2.5a.22.22 0 0 1-.34.12l-2.16-1.43a.15.15 0 0 1 .11-.28q.92.2 1.61.86.24.23.58.23z"/><path d="m173.09 65.44 6.53 3.71q2.61 4.6 1.83 7.53l-3.44 2.76q2.29-9.77-6.96-11.83a.95.93 27.4 0 0-.88.27l-.86.89-.06-.38a.63.63 0 0 1 .39-.7q1.96-.75 3.45-2.25zM37.44 68.55l-2.51-1.8.33-.38q.24-.29.41.04.39.77 1.47.89.43.05.38.48l-.08.77z"/><path fill="#adc4ca" d="M134.04 68.06a.07.07 0 0 1-.05.12l-6.16-1.79a.03.02 48.1 0 1 0-.05q3.06-.05 6.21 1.72zM34.93 66.75l2.51 1.8q.17.31-.2.59-.39.29-.79 0l-1.9-1.41q-.35-.26.01-.51.22-.15.37-.47zM204.37 75.61l-1.82-1.47q1.34-.39-.15-1.61-.4-.32-.4-.84v-3.87a.49.49 0 0 1 .73-.42l7.76 4.5q.38.21.77.04l.24-.11a.62.62 0 0 1 .86.43q.83 3.91.29 7.93-.08.58-.62.36c-1.63-.68-6.96-5.1-7.66-4.94z"/><path fill="#fff" d="M77.54 67.51q1.86.42 3.38 1.63.36.29.15.71-.27.54-1.01.58-.55.04-.95.4-2.65 2.44-5.54-.94l3.97-2.38z"/><path fill="#dbf302" d="m132.98 70.42 5.53 5.11q4.84 5.83 5.57 13.97-.08 10.56-10.19 16.7-.89 1.07-2.36.05-1.26-3.74-3.8-6.58l-3.76-8.06a1.02 1.02 0 0 0-1.41-.46l-7.01 3.88q-2.59.34-4.26 2.51l-25.71 15.02a.6.6 0 0 0 0 1.04l31.9 18.42a2.36 2.36 0 0 0 2.36 0l16.09-9.34q2.65-.2 4.53-2.61l9.03-5.29q2.92-.09 4.75-2.6l9.09-5.39a.95.95 0 0 0-.02-1.65l-11.58-6.45q1.64-1.74 3.21-1.23l14.88 8.72q-.01.81-.52 1.11-24.79 14.51-49.11 28.59l-38.8-22.59q-.49-.29-.1-.7.5-.51 1.25-.75l40.08-23.09q.36-.2.24-.6-.12-.37-.58-.66l-1.56-5.19-.05-10.08c2.23-5.87 8.15-5.22 12.31-1.8zm6.23 14.3a1.5 1.49 38.7 0 0-2.04.22l-4.23 4.95a.52.52 0 0 1-.87-.13c-1.08-2.41-2.51-7.47-4.49-9.01a.9.89 7.6 0 0-1.38 1.05l5.09 12.07a1.37 1.37 0 0 0 2.33.33c1.19-1.46 8.28-7.46 5.59-9.48z"/><path fill="#82b05a" d="M178.01 79.44q-8.35.15-9.82-10.29.73.35 1.12-.38l.86-.89a.95.93 27.4 0 1 .88-.27q9.25 2.06 6.96 11.83zm-2.06-6.15c.46-1.22-2.15-2.7-3-3.23a1.36 1.35-81.9 0 0-2.02 1.52q.85 3 3.41 4.93a1.33 1.33 0 0 0 2.06-.66q.42-1.3-.25-1.84-.36-.29-.2-.72z"/><path fill="#adc4ca" d="M210.2 69.54a.19.18-13 0 1-.2.31q-1.18-.63-2.82-1.7a.14.14 0 0 1 .13-.25q1.52.69 2.89 1.64zM179.62 69.15l16.7 9.32q.13.89 1.41 1.87v5.31q0 .4-.34.2l-15.94-9.17q.78-2.93-1.83-7.53zM176.15 74.01q.67.54.25 1.84a1.33 1.33 0 0 1-2.06.66q-2.56-1.93-3.41-4.93a1.36 1.35-81.9 0 1 2.02-1.52c.85.53 3.46 2.01 3 3.23q-.16.43.2.72z"/><path fill="#82b05a" d="M132.98 70.42q3.41 1.99 5.53 5.11l-5.53-5.11z"/><path fill="#fff" d="M69.49 71.92q.97-.53 2.69-.6 1.93-1.12 3.58 1.15a.4.4 0 0 1-.14.59l-3.29 1.69a1.15 1.13-48.8 0 1-.88.07c-1.22-.43-3.83-1.35-1.96-2.9z"/><path fill="#adc4ca" d="m138.31 71.19 2.03 2.03a.11.11 0 0 1-.14.16q-1.31-.92-2.1-1.93a.18.15 88.7 0 1 .21-.26z"/><path fill="#82b05a" d="m120.67 72.22.05 10.08q-1.14-5.15-.05-10.08z"/><path fill="#fff" d="M63.52 76.13q-.11-.47.29-.81l3.39-1.84a.87.86 46.3 0 1 .85.02l3.01 1.84a.44.43 55.7 0 1-.15.8l-1.14.2a1.48 1.44-72.4 0 0-.82.44q-2.44 2.58-5.43-.65z"/><path d="M54.28 80.03q-4.78-2.52-9.31-5.32-1.11-.69.08-.15 4.86 2.23 9.23 5.47zM202.55 74.14l1.82 1.47q-2.65.09-1.82-1.47z"/><path fill="#adc4ca" d="M214.27 81.29c-.38-2.39 1.02-3.75-.53-6.25q-.26-.41.17-.18c1.41.77.78 4.06.55 6.42q-.07.71-.19.01zM229.27 82.93q-3.46 2.4-7.26 4.21-.36.18-.62-.14l-2.26-2.71a.58.58 0 0 1 .16-.87l12.99-7.37q.46-.25.38.26c-.44 2.82-.9 4.89-3.39 6.62z"/><path fill="#fff" d="M62.54 76.75q1.81.34 3.09 1.77.45.51-.21.64l-.91.17q-.43.09-.76.4-2.88 2.73-5.91-.81l4.7-2.17z"/><path fill="#adc4ca" d="M234.27 77.4q.05-.12.08.01.58 2.73-1.51 4.49-.43.36-.35-.19.16-1.06 1.11-1.53.49-.25.41-.79-.16-1.04.26-1.99zM148.02 80.01a.18.18 0 0 1-.15.33q-1.86-.56-3.37-2.18a.17.17 0 0 1 .21-.26l3.31 2.11z"/><path fill="#3a4a34" d="M181.06 81.31q-.16.52-.71.45a.2.19 32.9 0 1-.08-.36l3.76-2.18a.1.1 0 0 1 .12.16q-1.39 1.26-3.09 1.93z"/><path fill="#82b05a" d="M139.21 84.72c2.69 2.02-4.4 8.02-5.59 9.48a1.37 1.37 0 0 1-2.33-.33L126.2 81.8a.9.89 7.6 0 1 1.38-1.05c1.98 1.54 3.41 6.6 4.49 9.01a.52.52 0 0 0 .87.13l4.23-4.95a1.5 1.49 38.7 0 1 2.04-.22z"/><path fill="#adc4ca" d="M77.56 81.99q.48-.01.68.44.24.56-.32.33-1.22-.48-2.36-1.03a.33.31-23.4 0 1 .26-.58q.68.14 1.17.62.24.22.57.22zM222.34 94.75q-1.43-4.31-5.72-2.37-.07-.18-.48-.5-.3-.23.02-.44.7-.45.57-1.17-.56-2.98-.08-5.73a.04.03 51 0 1 .07.01l.11 4.69a.49.49 0 0 0 .9.27l.79-1.17q.28-.41.63-.06l.28.28a.4.4 0 0 1 .02.54q-.47.56-.38 1.11a.49.49 0 0 0 .76.32q7.08-4.83 15-8.02.48-.19.66.3.61 1.71-.01 3.25c-1.02 2.5-10.53 7.28-13.14 8.69zm1.61-2.36c2.92-1.43 6.85-3.55 7.39-6.67q.07-.41-.28-.19l-9.33 5.59q-.45.28-.2.75c.57 1.08 1.36 1.04 2.42.52z"/><path d="M212.21 94.29q-.02.45-.37.14l-2.75 1.66Q210.9 87.84 203 85q-2.34-.84-3.83 2.19.03-4.36 3.61-4.15c4.83.28 8.37 7.13 9.43 11.25z"/><path fill="#3a4a34" d="m208.15 83.18 4.67 5.95q.31.39-.15.18c-1.63-.76-3.76-4.5-4.72-5.6q-.02-.24.2-.53z"/><path fill="#adc4ca" d="M172.56 85.88q-.9.23-.11-.28 1.4-.89 3.35-1.63 1.2-.46.18.32-1.45 1.09-3.42 1.59z"/><ellipse fill="#adc4ca" transform="rotate(28.9 -125.26 206.482)" rx="2.83" ry=".53"/><path fill="#82b05a" d="M209.09 96.09c-4.9 2.73-9.45-5.19-9.92-8.9q1.49-3.03 3.83-2.19 7.9 2.84 6.09 11.09zm-1.86-2.74c.14-2.28-1.36-5.11-3.53-5.95a1.31 1.31 0 0 0-1.74 1.53q.94 3.8 4.73 4.81.51.13.54-.39z"/><path d="M231.34 85.72c-.54 3.12-4.47 5.24-7.39 6.67-1.06.52-1.85.56-2.42-.52q-.25-.47.2-.75l9.33-5.59q.35-.22.28.19z"/><ellipse fill="#adc4ca" transform="rotate(30.1 -138.565 138.512)" rx="4.33" ry=".27"/><path fill="#adc4ca" d="m70.5 122.15-1.33.91q-.68-1.17-2.22-1.96c.51-.34 1.56-1.49.77-2.01q-.26-.17-.48.05l-.68.67a.43.26 87.2 0 1-.38-.57q.23-.79-.39-1.13-.49-.26-.73.24l-.22.46q-.28.58-.52-.02-.32-.82-1.14-.82-.22 0-.44-.04-.42-.08-.48-.38-.05-.24.19-.24c.73-.01.72-.84.34-1.16q-.36-.31-.64.07-.48.63-1.61 1.12-.37-.07-.53-.26.89-.36 1.19-1.37.09-.27-.16-.42l-.29-.17q-.44-.27-.7.18-.46.8-1.35.24-11.46-7.09-23.66-13.09L16.61 92.06l2.48.2q.57.05 1.06.33l38.09 21.93a.73.6 2.5 0 0 1.04-.78c-.93-1.34.14-3.23 1.53-4.05q15.32-9.04 30.85-17.7.66-.37.03-.79-.92-.64-1.76-1.37a.31.31 0 0 1 .33-.52q1.46.63 2.7 1.5.43.31.87.02c.89-.58 7.64-4.87 8.18-4.46q.36.27-.03.5l-41.4 23.99a1.98 1.98 0 0 0 0 3.42l35.19 20.51a.09.09 0 0 1-.09.16q-12.63-6.68-24.82-13.88a.55.55 0 0 0-.83.43q-.03.29.47.65zM203.7 87.4c2.17.84 3.67 3.67 3.53 5.95q-.03.52-.54.39-3.79-1.01-4.73-4.81a1.31 1.31 0 0 1 1.74-1.53z"/><path fill="#82b05a" d="M122.28 87.49q.46.29.58.66.12.4-.24.6l-40.08 23.09-.78-.12 40.16-23.38q.3-.17.34-.52.02-.16.02-.33z"/><path d="M146.53 88.36q.24 5.16-2.62 9.6-3.71 5.45-10.02 8.24 10.11-6.14 10.19-16.7 2.09-1.61 2.45-1.14z"/><path fill="#adc4ca" d="m165.15 89.48 2.68-1.17q.47-.21.16.2-1.71 2.2-4.17 1-.99-.48-.02-.45.36.01.7.31.29.27.65.11zM147.6 88.51l3.59 1.77 3.49 1.97a.83.82-52.4 0 1 .17 1.31c-1.25 1.24-6.16-2.35-7.45-3.17a.17.16 39.8 0 0-.2.01q-.12.1-.14.23-.01.11.08.16l7.69 4.43q.44.26.41.76-.02.45.18.84-.35-.03-.48.64-1.57-.51-3.21 1.23-1.16 1.05-2.57 1.46-.48.15-.94-.07l-4.31-2.12q2.86-4.44 2.62-9.6.96-.04 1.07.15z"/><path fill="#3a4a34" d="M147.6 88.51q2.15.07 3.71 1.48-.06.14-.12.29l-3.59-1.77z"/><path d="m151.31 89.99 3.79 2.14q.44.25.56.74.46 1.97-.24 3.95-.2-.39-.18-.84.03-.5-.41-.76l-7.69-4.43q-.09-.05-.08-.16.02-.13.14-.23a.17.16 39.8 0 1 .2-.01c1.29.82 6.2 4.41 7.45 3.17a.83.82-52.4 0 0-.17-1.31l-3.49-1.97q.06-.15.12-.29z"/><path fill="#fff" d="M127.73 99.67q1.13 3.72 3.8 6.58 1.47 1.02 2.36-.05 6.31-2.79 10.02-8.24l4.31 2.12q.46.22.94.07 1.41-.41 2.57-1.46l11.58 6.45a.95.95 0 0 1 .02 1.65l-9.09 5.39q-2.62.62-4.75 2.6l-9.03 5.29-4.53 2.61-16.09 9.34a2.36 2.36 0 0 1-2.36 0l-31.9-18.42a.6.6 0 0 1 0-1.04l25.71-15.02 4.26-2.51 7.01-3.88a1.02 1.02 0 0 1 1.41.46l3.76 8.06zm-10.75 4.8-4.07-2.1q-.63-.32-1.23.04l-2.57 1.56q-.64.38 0 .76l2.88 1.72q.47.28.97.04l4.02-1.92q.1-.05 0-.1zm-8.34 3.17q-3.31-2.83-6.28.27-.41.44.1.75l2.92 1.79q.47.29.96.02l3.91-2.12q.64-.35-.09-.35h-.53a1.55 1.48-23.7 0 1-.99-.36zm10.06-.33-1.9-.79q-.81-.34-.31.38.82 1.17 2.14.98a.3.3 0 0 0 .07-.57zm9.617 6.25a5.02.61 30 0 0-4.042-3.038 5.02.61 30 0 0-4.652-1.982 5.02.61 30 0 0 4.042 3.038 5.02.61 30 0 0 4.652 1.982zm-25.217-1.44-3.63-2.13q-.5-.3-.98.01l-2.84 1.76q-.54.33.01.65l3.07 1.79q.37.22.75.03l3.6-1.74q.35-.17.02-.37zm9.99-.14q-1.1-1.32-2.83-1.25-.74.03-.09.39l2.51 1.35a.33.32-5.5 0 0 .41-.49zm11.852 7.059a.46.46 0 0 0-.174-.627l-9.574-5.417a.46.46 0 0 0-.627.174l-.03.052a.46.46 0 0 0 .175.627l9.574 5.417a.46.46 0 0 0 .626-.174l.03-.052zm11.242-1.068a4.03.47 29.6 0 0-3.272-2.4 4.03.47 29.6 0 0-3.736-1.582 4.03.47 29.6 0 0 3.272 2.4 4.03.47 29.6 0 0 3.736 1.582zm-21.674 3.039q1.45 1.96 3.49 2.14.94.09.28-.58-1.45-1.45-3.77-1.56-4.83-3.83-11.16-6.8a.13.12-13.7 0 0-.13.21q5.27 3.89 11.29 6.59z"/><path fill="#82b05a" d="m222.34 94.75-4.96 2.72q-.45.24-.87-.03l-4.67-3.01q.35.31.37-.14 1.8 1.62 4.09 2.23.5.13.62-.37.42-1.68-.3-3.77 4.29-1.94 5.72 2.37zM16.61 92.06l18.43 10.39 24.97 14.63q.16.19.53.26l6.41 3.76q1.54.79 2.22 1.96l.07 44.92-1.13.19q-.48.08-.89-.17c-3.09-1.88-13.73-9.07-16.72-9-.1-.5-.44-2.58-1.5-1.74l-31.78-18.38a2.44 2.43-75.1 0 1-1.22-2.11c0-12.63.55-25.54-.3-38.02q-.23-3.4.91-6.69zm49.99 31.43L18.91 96.05a.45.45 0 0 0-.68.39c-.03 13.13 1.13 26.53.2 39.73a1.56 1.52 17.5 0 0 .77 1.44l46.71 27.05a.73.73 0 0 0 1.09-.63v-39.85q0-.46-.4-.69zM115.55 95.03l-4.26 2.51q1.67-2.17 4.26-2.51z"/><path fill="#fff" d="M66.6 123.49q.4.23.4.69v39.85a.73.73 0 0 1-1.09.63L19.2 137.61a1.56 1.52 17.5 0 1-.77-1.44c.93-13.2-.23-26.6-.2-39.73a.45.45 0 0 1 .68-.39l47.69 27.44zm-17.62 20.99-.05 4.86a.82.82 0 0 0 1.33.66l1.56-1.22a.63.63 0 0 1 .97.25l1 2.36a.55.55 0 0 0 .8.25l4.29-2.77a.78.78 0 0 0 .14-1.2l-1.41-1.46q-.49-.51.07-.93l2.14-1.63a.74.74 0 0 0-.36-1.32q-3.47-.43-2.74-4.32l.02-9.08a1.59 1.58 15.2 0 0-.79-1.37l-28.78-16.54a.61.61 0 0 0-.92.53v18.99q0 .57.49.86l22.24 13.08z"/><path fill="#82b05a" d="M131.53 106.25q-2.67-2.86-3.8-6.58 2.54 2.84 3.8 6.58z"/><path fill="#fff" d="m60.01 117.08-24.97-14.63q12.2 6 23.66 13.09.89.56 1.35-.24.26-.45.7-.18l.29.17q.25.15.16.42-.3 1.01-1.19 1.37z"/><path fill="#82b05a" d="M116.98 104.47q.1.05 0 .1l-4.02 1.92q-.5.24-.97-.04l-2.88-1.72q-.64-.38 0-.76l2.57-1.56q.6-.36 1.23-.04l4.07 2.1zM109.63 108h.53q.73 0 .09.35l-3.91 2.12q-.49.27-.96-.02l-2.92-1.79q-.51-.31-.1-.75 2.97-3.1 6.28-.27a1.55 1.48-23.7 0 0 .99.36z"/><path d="m169.82 106.18.85.55q.64.41-.01.78l-50.21 29.28q-.13-.46-.26-.91 24.32-14.08 49.11-28.59.51-.3.52-1.11z"/><path fill="#adc4ca" d="M118.7 107.31a.3.3 0 0 1-.07.57q-1.32.19-2.14-.98-.5-.72.31-.38l1.9.79z"/><path d="M190.64 110.16c1.13-.67 1.46-1.45 1.65-2.66q.08-.52.14.01.37 3.1.15 6.2-.1 1.38-1.29 2.07-32.96 19.07-66.31 38.22-.78.45-3.18.69-.4.05-.39-.36l.1-5.24q0-.3.3-.32c1-.06 2.25-.16 3.15-.67q32.94-18.8 65.68-37.94z"/><ellipse fill="#adc4ca" transform="rotate(30 -145.237 286.856)" rx="5.02" ry=".61"/><path fill="#82b05a" d="M103.1 112.12q.33.2-.02.37l-3.6 1.74q-.38.19-.75-.03l-3.07-1.79q-.55-.32-.01-.65l2.84-1.76q.48-.31.98-.01l3.63 2.13z"/><path fill="#adc4ca" d="M113.09 111.98a.33.32-5.5 0 1-.41.49l-2.51-1.35q-.65-.36.09-.39 1.73-.07 2.83 1.25z"/><path fill="#dbf302" d="m56.72 138.01-.38 2.53q-.09.6-.64.33l-6.59-3.25q-.64-.32-.59.4l.46 6.46-22.24-13.08q-.49-.29-.49-.86v-18.99a.61.61 0 0 1 .92-.53l28.78 16.54a1.59 1.58 15.2 0 1 .79 1.37l-.02 9.08zm-14.23-4.96q-.38.45-.23.92.19.61.52.06l2.97-4.85q.31-.5.88-.34l1.68.47q.56.16.2-.29-1.49-1.86-3.13-.31l-9.77-5.72a.3.3 0 0 0-.44.32l1.22 5.77q.1.47.51.71l5.59 3.26zm-1.95 1.46-3.08-1.88q-.37-.23-.46.19c-.2.87 3.54 2.16 4.46 3.16q.29.32.47-.07l.27-.55a.41.41 0 0 0-.33-.58l-.6-.04q-.39-.03-.73-.23z"/><path fill="#adc4ca" d="m81.76 111.72.78.12q-.75.24-1.25.75-.39.41.1.7l38.8 22.59q.13.45.26.91l-40.09-23.41q-.52-.3-.11-.73.62-.67 1.51-.93z"/><path fill="#82b05a" d="M154.24 112.18q-1.83 2.51-4.75 2.6 2.13-1.98 4.75-2.6z"/><rect fill="#adc4ca" x="-5.96" y="-.49" transform="rotate(29.5 -160.676 285.467)" width="11.92" height=".98" rx=".46"/><ellipse fill="#adc4ca" transform="rotate(29.6 -153.143 309.077)" rx="4.03" ry=".47"/><path fill="#adc4ca" d="M114.51 121.01q-6.02-2.7-11.29-6.59a.13.12-13.7 0 1 .13-.21q6.33 2.97 11.16 6.8z"/><path fill="#fff" d="m66.95 121.1-6.41-3.76q1.13-.49 1.61-1.12.28-.38.64-.07c.38.32.39 1.15-.34 1.16q-.24 0-.19.24.06.3.48.38.22.04.44.04.82 0 1.14.82.24.6.52.02l.22-.46q.24-.5.73-.24.62.34.39 1.13a.43.26 87.2 0 0 .38.57l.68-.67q.22-.22.48-.05c.79.52-.26 1.67-.77 2.01z"/><path fill="#82b05a" d="M140.46 120.07q-1.88 2.41-4.53 2.61l4.53-2.61z"/><path fill="#adc4ca" d="M114.51 121.01q2.32.11 3.77 1.56.66.67-.28.58-2.04-.18-3.49-2.14zM229.68 140.81q-.25-.41-.23-.96l9.34-1.82a.34.34 0 0 0 .1-.64q-14.17-7.68-28.42-15.14c-1.46-.77-6.68.72-8.73.66a.2.2 0 0 1-.03-.4q3.84-.69 7.72-1.09a1.78 1.74-33.3 0 1 1.03.2l29.51 15.8a.62.62 0 0 1-.24 1.17q-4.8.4-9.75 1.59-.22.05-.25.28l-.05.35z"/><path d="M70.5 122.15c.85.62.33 32.97.38 44.28q0 1.13-1.64 1.55l-.07-44.92 1.33-.91z"/><path fill="#adc4ca" d="m45.38 128.71-2.89 4.34-5.59-3.26q-.41-.24-.51-.71l-1.22-5.77a.3.3 0 0 1 .44-.32l9.77 5.72z"/><path fill="#82b05a" d="M229.45 139.85q-.02.55.23.96 1.34 1.13 2.08 2.67.48 1-.24.15l-2.86-3.41-4.12 1.48-.63-1.6q-.18-.47-.61-.74-8.57-5.24-17.91-8.93c-2.24-.89-4.71-3.32-8.15-2.37q-3.44.95-9.17 4.03-1.99 1.06-2.93 1.29-.4.09-.64.44l-1.82 2.57q-.3.42-.81.49-.97.13-.88 1.13.05.5.49.74l2.73 1.55q.95-.14.7.8c-2.2-1.03-7.02-4.3-9.25-4.13a.27.27 0 0 1-.16-.51l22.42-13a1.51 1.51 0 0 1 1.47-.02l30.06 16.41z"/><path fill="#adc4ca" d="M85 135.36q-.97.66-1.98 1.13a.25.24-76 0 1-.25-.42l1.39-1.09q.51-.4-.05-.71l-12.24-6.81q-.12-.07-.13-.21-.01-.18.03-.32.03-.13.15-.06 9.95 5.35 19.55 11.32a.13.13 0 0 1-.13.22q-2.81-1.49-5.55-3.08-.41-.23-.79.03z"/><path d="m42.49 133.05 2.89-4.34q1.64-1.55 3.13.31.36.45-.2.29l-1.68-.47q-.57-.16-.88.34l-2.97 4.85q-.33.55-.52-.06-.15-.47.23-.92z"/><path fill="#fff" d="M224.54 141.7q-.59.93-1.74 1.42-10.67-7.32-22.11-13c-2.39-1.18-12.11 5.87-14.41 7.46-1.08.75-1.39 1.62-2.07 2.72l-2.73-1.55q-.44-.24-.49-.74-.09-1 .88-1.13.51-.07.81-.49l1.82-2.57q.24-.35.64-.44.94-.23 2.93-1.29 5.73-3.08 9.17-4.03c3.44-.95 5.91 1.48 8.15 2.37q9.34 3.69 17.91 8.93.43.27.61.74l.63 1.6z"/><path fill="#adc4ca" d="M222.8 143.12q-7.21 4.27-14.5 8.42-1.7.96-1.03 2.15l-.5 1.08.01-.47q.01-.81-.65-.32l-4.37 3.29a.16.16 0 0 1-.2-.24q1.87-1.8 3.89-3.36a.86.86 0 0 0-.11-1.44l-20.43-11.13q.25-.94-.7-.8c.68-1.1.99-1.97 2.07-2.72 2.3-1.59 12.02-8.64 14.41-7.46q11.44 5.68 22.11 13zM166.04 132.99q.49 0 .69.4a.25.25 0 0 1-.34.34l-2.35-1.25a.26.26 0 0 1 .2-.48q.64.23 1.1.7a.99.99 0 0 0 .7.29z"/><path d="m41.27 134.74.6.04a.41.41 0 0 1 .33.58l-.27.55q-.18.39-.47.07c-.92-1-4.66-2.29-4.46-3.16q.09-.42.46-.19l3.08 1.88q.34.2.73.23z"/><path fill="#adc4ca" d="M174.31 137.44q.59.07.68.53a.54.54 0 0 1-.79.56l-3.48-1.92a.32.32 0 0 1 .19-.6q1.9.22 3.4 1.43z"/><path fill="#82b05a" d="M56.72 138.01q-.73 3.89 2.74 4.32a.74.74 0 0 1 .36 1.32l-2.14 1.63q-.56.42-.07.93l1.41 1.46a.78.78 0 0 1-.14 1.2l-4.29 2.77a.55.55 0 0 1-.8-.25l-1-2.36a.63.63 0 0 0-.97-.25L50.26 150a.82.82 0 0 1-1.33-.66l.05-4.86-.46-6.46q-.05-.72.59-.4l6.59 3.25q.55.27.64-.33l.38-2.53z"/><ellipse fill="#adc4ca" transform="rotate(-30.6 293.62 -70.409)" rx="2.27" ry=".33"/><path fill="#adc4ca" d="M173.65 139.41c-2.01 2.05-4.08 4.29-6.14 6.19a1.18 1.17-52.6 0 0 .25 1.9l8.75 4.6q.49.26.43.81l-.39 3.96a.85.84-73.6 0 0 .44.82l5.6 2.96a.12.12 0 0 1-.1.21q-3.01-1.26-5.75-2.99-.49-.31-.49-.89v-3.68a1.51 1.51 0 0 0-.83-1.35l-9.48-4.82q-.62-.31-.16-.82c.56-.63 6.5-7.33 7.7-7.32a.25.24 23.2 0 1 .17.42z"/><path fill="#3a4a34" d="M228.66 140.22q-10.39 6.35-20.47 11.97-.74.41-.68 1.49-.12 0-.24.01-.67-1.19 1.03-2.15 7.29-4.15 14.5-8.42 1.15-.49 1.74-1.42l4.12-1.48z"/><path d="M207.27 153.69q.12-.01.24-.01l6.97 9.12q.3.4.73.15l13.49-7.81q.63-.36.59.37l-.24 5.17a.91.87-14.5 0 1-.45.73l-21.38 12.33q-.48.28-.48-.28l.03-18.69.5-1.08zm2.04 4.25q-.23-.58-.66-1.08-.4-.46-.4.14v2.25q0 .49.49.49c.94.02 1.47-1.23.57-1.8z"/><path fill="#82b05a" d="m198.76 169.46-12.31-6.12q-.39-.19-.05-.47.62-.52.5-1.15a1.29.05 79.4 0 1-.14-.97l-.03-2.3q0-.53-.48-.75-3.31-1.52-6.37-3.42a.12.12 0 0 1 .11-.21q7.98 4.08 15.9 8.23a.16.16 0 0 1-.11.29q-1.23-.25-2.24-1a.5.5 0 0 0-.79.4v3.66q0 .5.44.74l5.57 3.07z"/><path fill="#3a4a34" d="M209.31 157.94c.9.57.37 1.82-.57 1.8q-.49 0-.49-.49V157q0-.6.4-.14.43.5.66 1.08z"/><path d="m50.5 159-.05 4.39a1 .99 74.4 0 1-.47.85l-6.01 3.75q-.47.3-.47-.26v-1.82a.81.81 0 0 1 .42-.71l4.17-2.3a1.14 1.12 78.2 0 0 .58-.9l.33-4.74c1.06-.84 1.4 1.24 1.5 1.74z"/><path fill="#adc4ca" d="m198.76 169.46 5.5 2.97q.84.45-.06.16-3.03-.96-5.44-3.13z"/></svg>