<svg xmlns="http://www.w3.org/2000/svg" viewBox="0 0 256 192"><g stroke-width="2" fill="none"><path stroke="#eee" vector-effect="non-scaling-stroke" d="M119.81 65.55c-1.02.71-1.88.85-2.84-.13q-6.04-6.2-12.88-11.57-.39-.31-.32-.8.1-.66-.53-.55a1.56 1.55-37.6 0 1-.94-.12q-11.18-5.1-21.9-11.11-.15-.09-.32-.08-.16.01-.3.03-.56.11-.09.44c10.16 7.13 18.84 14.8 28.33 22.13 2.76 2.13 4.18 3.54 7.98 4.09a.86.86 0 0 1 .28 1.61q-.89.47-1.91.29-.49-.08-.96.07c-2.93.97-1.1 3.91-1.66 5.86"/><path stroke="#f5e8d1" vector-effect="non-scaling-stroke" d="M111.75 75.71c-3.6 1.29-8.69 2.02-6.38 6.55"/><path stroke="#8cb1db" vector-effect="non-scaling-stroke" d="M105.37 82.26q-.32.18.54 1.18"/><path stroke="#f5e8d1" vector-effect="non-scaling-stroke" d="m105.91 83.44-2.08 1.52a.46.46 0 0 0 .35.83q1.3-.2 2.49.15"/><path stroke="#afa09c" vector-effect="non-scaling-stroke" d="m106.67 85.94.6 1.74"/><path stroke="#e6cdb3" vector-effect="non-scaling-stroke" d="m107.27 87.68-.14 1.37"/><path stroke="#eee" vector-effect="non-scaling-stroke" d="M107.13 89.05c-1.95 2.04-4.59 3.08-3.62 6.61"/><path stroke="#96bae3" vector-effect="non-scaling-stroke" d="M103.51 95.66c-1.06 4.43-2.48 8.41-2.7 12.88q-.35 6.91-.12 13"/><path stroke="#8cb1db" vector-effect="non-scaling-stroke" d="M100.69 121.54c.45 5.15 1.66 10.4-.72 15.14-2.19 4.34-2.99 6.88-3.93 10.95q-.15.67.49.88l6.65 2.16a.51.51 0 0 0 .61-.72q-.67-1.33-2.01-1.99a.69.69 0 0 1-.32-.92l6.24-12.99"/><path stroke="#96bae3" vector-effect="non-scaling-stroke" d="m107.7 134.05.75 6.09"/><path stroke="#8cb1db" vector-effect="non-scaling-stroke" d="m108.45 140.14.5 10.31q.03.53.56.53h7.19a.44.44 0 0 0 .21-.83l-3.07-1.68q-.35-.18-.31-.57l.64-7.37"/><path stroke="#96bae3" vector-effect="non-scaling-stroke" d="M114.17 140.53q1.46-11.78-.2-23.49-.07-.52.15-1 1.91-4.1 2.34-8.97"/><path stroke="#e6cdb3" vector-effect="non-scaling-stroke" d="M116.46 107.07c.82-1.02 4.62-4.79.75-5.05"/><path stroke="#fed78f" vector-effect="non-scaling-stroke" d="M117.21 102.02q.01-.28-.88-.59"/><path stroke="#96bae3" vector-effect="non-scaling-stroke" d="M116.33 101.43q.56-2.73-2.42-4.45"/><path stroke="#eee" vector-effect="non-scaling-stroke" d="m113.91 96.98 4.7-1.84q.48-.19.53-.71l.1-1.14"/><path stroke="#e6cdb3" vector-effect="non-scaling-stroke" d="m119.24 93.29.35.1a.36.35-63.9 0 0 .4-.14l4.17-6.36"/><path stroke="#b9d8a1" vector-effect="non-scaling-stroke" d="m124.16 86.89 4.29 3.98"/><path stroke="#accaa1" vector-effect="non-scaling-stroke" d="M128.45 90.87q2.74 2.53 6.76 2.48.49-.01.78.38c3.63 4.77 10.6 6 15.21 1.96"/><path stroke="#c6b7b1" vector-effect="non-scaling-stroke" d="M151.2 95.69c9.9-1.44 14.79 17.2 17.19 24.02 1.74 4.97.68 12.69.85 16.57q.27 6.19-5.52 6.62"/><path stroke="#afa09c" vector-effect="non-scaling-stroke" d="m163.72 142.9-7.15 5.12q-.37.26.05.45c.64.28 5.26-2.1 6.16-2.58a.89.88-5.9 0 1 1.27 1.03q-.6 2.04-2.64 2.72a.43.41 5 0 0-.24.19q-.09.15-.11.31-.05.33.28.25 3.64-.94 7.34-1.81c4.17-.98 5.11-2.84 9.67-.22q2.59 1.48 5.72 1.68a.33.32 62.8 0 0 .19-.6l-2.54-1.59a.45.45 0 0 1 .17-.82q4.41-.7 8.79.21.52.1.46-.42c-.18-1.77-9.28-1.13-9.81-7.63-.52-6.39-2.22-16.02.8-21.72 3.99-7.53 6.68-15.39 10.99-22.88"/><path stroke="#accaa1" vector-effect="non-scaling-stroke" d="m193.12 94.59 1.36.18q.49.07.82.43 7.34 8.12 15.92 1.08.42-.34.91-.13c8.83 3.71 16.45-1.64 15.66-11.3a.85.84 71.8 0 1 .39-.78c5.42-3.44 5.56-11.08-.19-14.3"/><path stroke="#b9d8a1" vector-effect="non-scaling-stroke" d="M227.99 69.77c-.35-2.97-2.37-6.58-1.96-9.37a1.73 1.7 36 0 0-.17-1.03q-1.19-2.31-3.81-2.37a.48.48 0 0 1-.47-.49q.01-1.43.16-2.8c1.19-10.83-10.53-13.45-17.99-8.89a.41.41 0 0 1-.62-.31q-.73-7.38-7.99-5.2-.5.15-.74-.31c-2.78-5.23-8.74-7.4-13.49-2.9q-.43.41-.73-.1c-5.55-9.21-19.3-12.16-23.61-.08q-.19.55-.65.89l-3.06 2.32q-.43.33-.96.22-6.14-1.27-7.06 4.81-.09.6-.59.27c-9.29-6.12-20.79.08-17.1 11.67q.16.52-.33.74-4.01 1.79-4.27 6.25-.03.48-.47.69-1.44.7-2.27 1.77"/><path stroke="#66a342" vector-effect="non-scaling-stroke" d="M227.99 69.77c-1.36 8.19-7.38 13.23-15.53 9.12a1.54 1.53-55.1 0 0-1.82.33c-6.65 7.23-17.68 4.62-22.02-3.61a.68.68 0 0 0-.92-.28q-6.74 3.65-13.26-.69-.45-.3-.96-.12-1 .35-1.74 1.15-.33.36-.77.54-5.16 2.09-10.07-.59a1.13 1.12 24.1 0 0-1.6.6q-1.99 5.46-7.72 3.26a.66.66 0 0 0-.89.53q-1.01 7.03-7.52 7.71c-2.58.27-5.22-1.41-8.06.8a2.97 2.97 0 0 1-.88.47l-5.78 1.88"/><path stroke="#a0a654" vector-effect="non-scaling-stroke" d="M124.16 86.89q.36-4.8 4.22-5.05a1.37 1.37 0 0 0 1.2-1.83c-2.1-5.84-6 1.49-6.63 3.66"/><path stroke="#a8c790" vector-effect="non-scaling-stroke" d="m122.95 83.67-.08-5.22a1 1 0 0 0-.4-.8q-6.22-4.66-2.66-12.1"/><path stroke="#5c6b3e" vector-effect="non-scaling-stroke" d="M193.12 94.59c.19-1.24 2.65-7.92.66-7.8a1.1 1.1 0 0 0-.96.69l-3.12 7.72"/><path stroke="#accaa1" vector-effect="non-scaling-stroke" d="M189.7 95.2q-1.55-2.42-4.3-1.32"/><path stroke="#5c6b3e" vector-effect="non-scaling-stroke" d="M185.4 93.88q-1.7-3.98-1.68-9.75a.45.44 48 0 0-.89-.05q-.28 2.98-.03 6.39"/><path stroke="#738252" vector-effect="non-scaling-stroke" d="m182.8 90.47-.02 5.4"/><path stroke="#accaa1" vector-effect="non-scaling-stroke" d="M182.78 95.87q-4.44.98-8.68-.39"/><path stroke="#5c6b3e" vector-effect="non-scaling-stroke" d="M174.1 95.48q-2.03-5.81-.9-9.75 1-3.49.51-5.25"/><path stroke="#738252" vector-effect="non-scaling-stroke" d="M173.71 80.48c-2.25 1.78-2.79 3.4-3.37 6.17q-.13.6-.66.29c-1.03-.61-6.76-6.19-7.38-5.78a.52.51-34.7 0 0-.14.73q2.65 3.67 5.84 6.85 2.16 2.16 2.76 6.68"/><path stroke="#accaa1" vector-effect="non-scaling-stroke" d="M170.76 95.42q-4.31 2.78-9.36 1.34"/><path stroke="#5c6b3e" vector-effect="non-scaling-stroke" d="M161.4 96.76q-5.97-4.06-6.59-11.84a.44.44 0 0 0-.87-.04q-.56 3.5 1.4 7.77"/><path stroke="#738252" vector-effect="non-scaling-stroke" d="M155.34 92.65c-2.16 2.31-5.9-.46-8.36-2.19q-.4-.28-.77.03c-1.14.94 3.09 3.87 4.99 5.2"/><path stroke="#d4bca2" vector-effect="non-scaling-stroke" d="M122.95 83.67c-1.66 2.16-6.84 7.08-3.71 9.62"/><path stroke="#85a9d2" vector-effect="non-scaling-stroke" d="M113.91 96.98q-4.93-8.48-10.4-1.32"/><path stroke="#d4bca2" vector-effect="non-scaling-stroke" d="M107.13 89.05q1.67 2.05 4.24 1.75.5-.06.54-.55c.19-1.9 3.32-1.46 3.97-4.57q.1-.44-.2-.78-.99-1.11-.98-2.69"/><path stroke="#e3d7c0" vector-effect="non-scaling-stroke" d="M114.7 82.21q1.84-.79 2.87-2.28.36-.53-.24-.74-1.52-.53-3.02.54"/><path stroke="#7ba0ca" vector-effect="non-scaling-stroke" d="M114.31 79.73q-.16-.87-.91-.72"/><path stroke="#e3d7c0" vector-effect="non-scaling-stroke" d="M113.4 79.01q-.45-1.8-1.65-3.3"/><path stroke="#75584e" vector-effect="non-scaling-stroke" d="M173.71 80.48q-1.24 4.57-1.79 8.44c-.3 2.11.41 4.13.61 6.27.42 4.55 2.01 8.82 2.84 13.31q.1.53-.22.97-.5.68-.39 1.56a.72.7 76.8 0 1-.46.76q-.77.28-2.51-.04"/><path stroke="#c6b7b1" vector-effect="non-scaling-stroke" d="M171.79 111.75q1.85-.91 1.66-2.75-.7-6.91-2.69-13.58M177.86 112.14c4.16-3.91 8.15-10.79 4.92-16.27"/><path stroke="#afa09c" vector-effect="non-scaling-stroke" d="m174.1 95.48 3.76 16.66"/><path stroke="#75584e" vector-effect="non-scaling-stroke" d="M177.86 112.14q1.72 1.94 4.36.93.47-.18.62-.66c1.82-5.84 5.09-10.42 1.27-16.5q-.26-.42-.36-.9l-.95-4.54"/><path stroke="#afa09c" vector-effect="non-scaling-stroke" d="M185.4 93.88q.12 1.37.81 2.27.33.44.88.37 1.25-.18 2.61-1.32"/><path stroke="#75584e" vector-effect="non-scaling-stroke" d="M163.72 142.9q.79 2.27 2.58 1.9.25-.05.35.18.05.14.12.3.07.18-.09.29-1.48 1.09-2.43 2.66a.31.31 0 0 0 .47.4q3.69-3.13 8.62-3.84.54-.07.93-.46c3.75-3.74 1.93-14.98 1.28-22.29-.48-5.45-4.94-6.83-6.97-11.31q-4.65-10.3-13.24-18.08"/><path stroke="#afa09c" vector-effect="non-scaling-stroke" d="M161.4 96.76q6.39 6.71 10.39 14.99"/><path stroke="#956e50" vector-effect="non-scaling-stroke" d="M107.27 87.68q2.34-.82 2.05-2.35"/><path stroke="#939854" vector-effect="non-scaling-stroke" d="M109.68 85.04q1.56.77 2.36-1.2"/><path stroke="#dbb684" vector-effect="non-scaling-stroke" d="M114.7 82.21q-1.41.18-2.66 1.63"/><path stroke="#a2b372" vector-effect="non-scaling-stroke" d="M112.04 83.84q-1.64.08-2.36 1.2"/><path stroke="#dbb684" vector-effect="non-scaling-stroke" d="M109.68 85.04q-.66-.07-.36.29"/><path stroke="#a4896e" vector-effect="non-scaling-stroke" d="M109.32 85.33q-2.43-.46-2.65.61"/><path stroke="#829aac" vector-effect="non-scaling-stroke" d="M113.4 79.01q-3.63 3-8.03 3.25"/><path stroke="#959273" vector-effect="non-scaling-stroke" d="M116.33 101.43q-1.36.45-2.86-1.28"/><path stroke="#81b0e2" vector-effect="non-scaling-stroke" d="M113.47 100.15c-.07-3.16-2.24-7.67-6.04-6.77q-2.33.55-3.06 3.31c-.75 2.88-3.41 16.18 4.38 12.32"/><path stroke="#7d8896" vector-effect="non-scaling-stroke" d="M108.75 109.01q3.89-.05 7.71-1.94"/><path stroke="#236cbe" vector-effect="non-scaling-stroke" d="M114.17 140.53q-2.55.53-5.72-.39M107.7 134.05q-.71-6.75-7.01-12.51"/><path stroke="#829aac" vector-effect="non-scaling-stroke" d="M114.31 79.73q-3.78 3.77-8.4 3.71"/><path stroke="#e5a543" vector-effect="non-scaling-stroke" d="M117.21 102.02c1.37 4.1-3.14 2.97-5.14 2.97q-.53 0-.7-.51-.38-1.18-.16-2.2"/><path stroke="#e9cd8e" vector-effect="non-scaling-stroke" d="M113.47 100.15q-1.45.41-2.26 2.13"/><path stroke="#d0c3b2" vector-effect="non-scaling-stroke" d="M111.21 102.28q-1.41.84-3.22.74-.57-.03-.6.54-.16 2.85 1.36 5.45"/><path stroke="#eee" vector-effect="non-scaling-stroke" d="m48.31 74.38.04 1.56a.18.18 0 0 0 .19.18l.07-.01a12.85.48-1.4 0 0 12.83-.79l-.02-.96a12.85.48-1.4 0 0-12.86-.17l-.07.01a.18.18 0 0 0-.18.18M94.72 74.733a.69.69 0 0 0-.687-.693L82.293 74a.69.69 0 0 0-.692.687l-.002.5a.69.69 0 0 0 .688.692l11.74.041a.69.69 0 0 0 .692-.687l.002-.5M50.04 82.498a2.15.9 87.6 0 0 .81-2.186 2.15.9 87.6 0 0-.99-2.11 2.15.9 87.6 0 0-.81 2.186 2.15.9 87.6 0 0 .99 2.11M89.44 83.02c-.5 1.53.09 3.33-.03 4.68q-.26 2.88-.11 5.73a.77.77 0 0 0 1.49.21q.48-1.35-.24-2.7a.92.91 45.9 0 1 .01-.87q.87-1.56.01-3.13-.24-.44.01-.86.9-1.54.04-3.15-.2-.39-.02-.8.87-1.92-.45-3.73a.46.46 0 0 0-.82.16q-.42 1.8.12 3.62.13.43-.01.84"/><path stroke="#eee" vector-effect="non-scaling-stroke" d="M53.134 82.398a1.95 1.02 83.7 0 0 .8-2.05 1.95 1.02 83.7 0 0-1.228-1.826 1.95 1.02 83.7 0 0-.8 2.05 1.95 1.02 83.7 0 0 1.228 1.826M85.99 80.62q-.05 1.25.93 1.85a.66.66 0 0 0 1-.55l.06-2.92a.61.6-15 0 0-.92-.53q-1.87 1.15-3.78-.14a.63.62-75 0 0-.97.56l.18 2.83a.98.98 0 0 0 1.95.02q.08-.97 1.01-1.47.57-.3.54.35M92.6 87.03c-.6.89-.25 4.95-.4 6.35a.58.58 0 0 0 .69.63l.67-.13a.71.71 0 0 0 .55-.89l-.64-2.28q-.12-.41.07-.81.65-1.37.16-2.79-.14-.39-.11-.81l.43-6.98a.96.95 53.4 0 0-1.88-.28q-.38 1.64.3 3.01a1.21 1.2-47.6 0 1 .04.94q-.65 1.71.17 3.32.18.37-.05.72"/><path stroke="#eee" vector-effect="non-scaling-stroke" d="m57.09 78.92-1.5-.06a.45.45 0 0 0-.46.43l-.02.46a2.47.8-87.5 0 0 .69 2.5l.8.04a2.47.8-87.5 0 0 .9-2.44l.02-.46a.45.45 0 0 0-.43-.47"/><path stroke="#eee" vector-effect="non-scaling-stroke" d="m60.11 82.18.73-2.73a.6.6 0 0 0-.67-.75l-1.3.2a.66.66 0 0 0-.53.85q.85 2.75.09 5.45a.94.94 0 0 0 1.78.6q.62-1.52-.01-2.74-.22-.42-.09-.88M52.62 86.07q.57.55 1-.11.85-1.29.29-2.62a1.05 1.05 0 0 0-1.98.15q-.39 1.54.69 2.58M85.55 85.05l1.32 1.11a.61.61 0 0 0 .99-.41l.18-1.87a.92.92 0 0 0-1.58-.73q-1.26 1.29-2.45-.18a.74.74 0 0 0-.99-.15q-1.3.88-.29 2.76a1.03 1.03 0 0 0 1.79.04l.26-.44q.31-.51.77-.13M49.961 86.16a1.61.95 89.6 0 0 .939-1.617 1.61.95 89.6 0 0-.961-1.603A1.61.95 89.6 0 0 49 84.557a1.61.95 89.6 0 0 .961 1.603M56.198 86.15a1.61 1.3 89.7 0 0 1.292-1.617 1.61 1.3 89.7 0 0-1.308-1.603 1.61 1.3 89.7 0 0-1.292 1.617 1.61 1.3 89.7 0 0 1.308 1.603M59.486 90.05a1.64 1.08 89.8 0 0 1.074-1.644 1.64 1.08 89.8 0 0-1.086-1.636 1.64 1.08 89.8 0 0-1.074 1.644 1.64 1.08 89.8 0 0 1.086 1.636"/><path stroke="#eee" vector-effect="non-scaling-stroke" d="m50.55 90.36.5-2.51a.93.93 0 0 0-1.8-.47q-.52 1.59.4 2.86.27.38-.03.75-1.16 1.44-.21 2.89a.5.5 0 0 0 .83.02q.88-1.19.37-2.64-.15-.44-.06-.9M52.66 90.92q-1.02 1.02-.65 2.58a.9.9 0 0 0 1.68.21q.75-1.44-.13-2.81-.3-.45-.03-.93.48-.85.61-1.93a1.08 1.08 0 0 0-2.13-.33q-.26 1.41.65 2.35.43.43 0 .86M57.418 87.813a1.03 1.03 0 0 0-1.192-.837l-.414.072a1.03 1.03 0 0 0-.837 1.192l.147.847a1.03 1.03 0 0 0 1.192.837l.414-.072a1.03 1.03 0 0 0 .837-1.192l-.147-.847M84.69 88.28l.08-.64a.9.9 0 0 0-1.31-.92q-1.44.75-.96 2.7a1.08 1.08 0 0 0 1.58.69q.78-.44.62-1.27-.05-.27-.01-.56M85.57 87.79l.66 2.12a.44.44 0 0 0 .55.29l.43-.13a1.41 1.4-17.2 0 0 .93-1.76l-.09-.28a1.41 1.4-17.2 0 0-1.76-.92l-.43.13a.44.44 0 0 0-.29.55M58.52 90.87l.1 3.14a.25.25 0 0 0 .25.24l.29-.01a1.4 1.09-1.7 0 0 1.37-1.13l-.04-1.46a1.4 1.09-1.7 0 0-1.43-1.05l-.29.01a.25.25 0 0 0-.25.26M85.47 91.81q.45.82.68 1.83a.89.89 0 0 0 1.69.12q.57-1.46-.24-2.77a.59.59 0 0 0-.88-.15q-1.49 1.19-2.86.08-.57-.46-1.05.08-1.17 1.31-.01 2.92a1.04 1.04 0 0 0 1.79-.16q.33-.7.13-1.52a.47.4-70.4 0 1 .75-.43"/><path stroke="#eee" vector-effect="non-scaling-stroke" d="m56.79 91.05-1.28-.02a.42.42 0 0 0-.43.41v.25a2.29.81-88.8 0 0 .76 2.3l.5.01a2.29.81-88.8 0 0 .86-2.27v-.25a.42.42 0 0 0-.41-.43"/><path stroke="#c6b7b1" vector-effect="non-scaling-stroke" d="M41.74 134.32q-2.17-1.48-4.69-1.77a.89.89 0 0 0-.9 1.27q.8 1.61 2.35 2.31.51.23.71.75l1.55 4.05"/><path stroke="#bdac9e" vector-effect="non-scaling-stroke" d="m40.76 140.93 2.06 8.8a1.24 1.24 0 0 0 1.01.94q8.61 1.31 17.22-.1.58-.09.71-.66l2.01-8.79"/><path stroke="#c6b7b1" vector-effect="non-scaling-stroke" d="M63.77 141.12q.99-1.24 1.26-4.29"/><path stroke="#e6cdb3" vector-effect="non-scaling-stroke" d="M65.03 136.83q2.43-1.12 3.33-3.07.28-.61-.35-.85-2.16-.81-4.49 1.57"/><path stroke="#fed78f" vector-effect="non-scaling-stroke" d="M63.52 134.48q-2.47-2.29-5.58-1.45a.75.74-25 0 1-.81-.29q-1.26-1.8-3.53-1.48-.54.08-.76.59-1.1 2.5-3.85 3.27a1.42 1.4-37.8 0 1-1.08-.13l-2.82-1.55a1.46 1.45-35.3 0 0-.96-.16q-1.27.24-2.39 1.04"/><path stroke="#e5a543" vector-effect="non-scaling-stroke" d="M63.52 134.48q.29.53.68.53"/><path stroke="#fed78f" vector-effect="non-scaling-stroke" d="m64.2 135.01.5.77"/><path stroke="#e5a543" vector-effect="non-scaling-stroke" d="m64.7 135.78.09.63"/><path stroke="#c58f41" vector-effect="non-scaling-stroke" d="M64.79 136.41q-11.23 2.1-22.98.36a.89.89 0 0 1-.66-1.28l.59-1.17"/><path stroke="#ac8564" vector-effect="non-scaling-stroke" d="M64.79 136.41q.04-.66.24.42"/><path stroke="#846450" vector-effect="non-scaling-stroke" d="m63.77 141.12-23.01-.19"/><path stroke="#e6cdb3" vector-effect="non-scaling-stroke" d="M64.7 135.78q1.5-.3 2.08-1.25.31-.52-.29-.63-1.41-.25-2.29 1.11"/><path stroke="#fed78f" vector-effect="non-scaling-stroke" d="M137.75 147.99a2.58 2.58 0 0 0-2.58-2.58 2.58 2.58 0 0 0-2.58 2.58 2.58 2.58 0 0 0 2.58 2.58 2.58 2.58 0 0 0 2.58-2.58M218.06 148.1a2.39 2.39 0 0 0-2.39-2.39 2.39 2.39 0 0 0-2.39 2.39 2.39 2.39 0 0 0 2.39 2.39 2.39 2.39 0 0 0 2.39-2.39M229.56 150.5a2.57 2.57 0 0 0-2.57-2.57 2.57 2.57 0 0 0-2.57 2.57 2.57 2.57 0 0 0 2.57 2.57 2.57 2.57 0 0 0 2.57-2.57"/><path stroke="#b8b031" vector-effect="non-scaling-stroke" d="M170.24 41.22a2.03 2.03 0 0 0-2.03-2.03 2.03 2.03 0 0 0-2.03 2.03 2.03 2.03 0 0 0 2.03 2.03 2.03 2.03 0 0 0 2.03-2.03M197.83 47.27a2.08 2.08 0 0 0-2.08-2.08 2.08 2.08 0 0 0-2.08 2.08 2.08 2.08 0 0 0 2.08 2.08 2.08 2.08 0 0 0 2.08-2.08M137.7 49.16a2.1 2.1 0 0 0-2.1-2.1 2.1 2.1 0 0 0-2.1 2.1 2.1 2.1 0 0 0 2.1 2.1 2.1 2.1 0 0 0 2.1-2.1M215.29 52.32a2.32 2.32 0 0 0-2.32-2.32 2.32 2.32 0 0 0-2.32 2.32 2.32 2.32 0 0 0 2.32 2.32 2.32 2.32 0 0 0 2.32-2.32M151.94 53.87a2.31 2.31 0 0 0-2.31-2.31 2.31 2.31 0 0 0-2.31 2.31 2.31 2.31 0 0 0 2.31 2.31 2.31 2.31 0 0 0 2.31-2.31M176.37 54.96a2.42 2.42 0 0 0-2.42-2.42 2.42 2.42 0 0 0-2.42 2.42 2.42 2.42 0 0 0 2.42 2.42 2.42 2.42 0 0 0 2.42-2.42"/><path stroke="#66a342" vector-effect="non-scaling-stroke" d="M154.38 58.52c-2.71 2.1-5.99 1.51-9.02.58q-.49-.15-.94.09-5.19 2.85-9.61-.88a.66.66 0 0 0-.87.03q-2.65 2.56-6.41 1.83a.53.53 0 0 0-.61.66c.94 3.57 4.5 3 7.29 2.62q.52-.07.88.32c4.92 5.42 9.07-.76 14.61 1.43q.51.21.98-.09l4.63-2.92q.42-.27.92-.21 3.47.46 4.72-2.63a.67.66 12.1 0 0-.6-.92l-5.3-.13q-.38-.01-.67.22M191.27 62.71c-2.69 2.8-3.96 2.29-7.22 1.88a.49.48-15.3 0 0-.45.78q2.8 3.56 6.75 2.64c3.79-.88 5.4 4.08 10.09 1.74q3.61-1.8 7.73-1.52.58.04.88-.46l2.31-3.87a.49.49 0 0 0-.62-.7q-3.84 1.7-7.65 0a1.06 1.05-47.7 0 0-.96.05q-5.01 2.86-9.37-.63-.79-.64-1.49.09"/><path stroke="#b8b031" vector-effect="non-scaling-stroke" d="M181.11 68.66a2.02 2.02 0 0 0-2.02-2.02 2.02 2.02 0 0 0-2.02 2.02 2.02 2.02 0 0 0 2.02 2.02 2.02 2.02 0 0 0 2.02-2.02M145.32 75.37a2.05 2.05 0 0 0-2.05-2.05 2.05 2.05 0 0 0-2.05 2.05 2.05 2.05 0 0 0 2.05 2.05 2.05 2.05 0 0 0 2.05-2.05M204.15 77.64a2.07 2.07 0 0 0-2.07-2.07 2.07 2.07 0 0 0-2.07 2.07 2.07 2.07 0 0 0 2.07 2.07 2.07 2.07 0 0 0 2.07-2.07"/><path stroke="#c6b7b1" vector-effect="non-scaling-stroke" d="M39.84 134.3q-.98-.57-1.84-.43a.39.39 0 0 0-.14.72l1.48.87a.42.41-70.7 0 0 .62-.3l.06-.49a.39.38 19.7 0 0-.18-.37"/></g><path fill="#fff" d="M0 0h256v192H0V0zm119.81 65.55c-1.02.71-1.88.85-2.84-.13q-6.04-6.2-12.88-11.57-.39-.31-.32-.8.1-.66-.53-.55a1.56 1.55-37.6 0 1-.94-.12q-11.18-5.1-21.9-11.11-.15-.09-.32-.08-.16.01-.3.03-.56.11-.09.44c10.16 7.13 18.84 14.8 28.33 22.13 2.76 2.13 4.18 3.54 7.98 4.09a.86.86 0 0 1 .28 1.61q-.89.47-1.91.29-.49-.08-.96.07c-2.93.97-1.1 3.91-1.66 5.86-3.6 1.29-8.69 2.02-6.38 6.55q-.32.18.54 1.18l-2.08 1.52a.46.46 0 0 0 .35.83q1.3-.2 2.49.15l.6 1.74-.14 1.37c-1.95 2.04-4.59 3.08-3.62 6.61-1.06 4.43-2.48 8.41-2.7 12.88q-.35 6.91-.12 13c.45 5.15 1.66 10.4-.72 15.14-2.19 4.34-2.99 6.88-3.93 10.95q-.15.67.49.88l6.65 2.16a.51.51 0 0 0 .61-.72q-.67-1.33-2.01-1.99a.69.69 0 0 1-.32-.92l6.24-12.99.75 6.09.5 10.31q.03.53.56.53h7.19a.44.44 0 0 0 .21-.83l-3.07-1.68q-.35-.18-.31-.57l.64-7.37q1.46-11.78-.2-23.49-.07-.52.15-1 1.91-4.1 2.34-8.97c.82-1.02 4.62-4.79.75-5.05q.01-.28-.88-.59.56-2.73-2.42-4.45l4.7-1.84q.48-.19.53-.71l.1-1.14.35.1a.36.35-63.9 0 0 .4-.14l4.17-6.36 4.29 3.98q2.74 2.53 6.76 2.48.49-.01.78.38c3.63 4.77 10.6 6 15.21 1.96 9.9-1.44 14.79 17.2 17.19 24.02 1.74 4.97.68 12.69.85 16.57q.27 6.19-5.52 6.62l-7.15 5.12q-.37.26.05.45c.64.28 5.26-2.1 6.16-2.58a.89.88-5.9 0 1 1.27 1.03q-.6 2.04-2.64 2.72a.43.41 5 0 0-.24.19q-.09.15-.11.31-.05.33.28.25 3.64-.94 7.34-1.81c4.17-.98 5.11-2.84 9.67-.22q2.59 1.48 5.72 1.68a.33.32 62.8 0 0 .19-.6l-2.54-1.59a.45.45 0 0 1 .17-.82q4.41-.7 8.79.21.52.1.46-.42c-.18-1.77-9.28-1.13-9.81-7.63-.52-6.39-2.22-16.02.8-21.72 3.99-7.53 6.68-15.39 10.99-22.88l1.36.18q.49.07.82.43 7.34 8.12 15.92 1.08.42-.34.91-.13c8.83 3.71 16.45-1.64 15.66-11.3a.85.84 71.8 0 1 .39-.78c5.42-3.44 5.56-11.08-.19-14.3-.35-2.97-2.37-6.58-1.96-9.37a1.73 1.7 36 0 0-.17-1.03q-1.19-2.31-3.81-2.37a.48.48 0 0 1-.47-.49q.01-1.43.16-2.8c1.19-10.83-10.53-13.45-17.99-8.89a.41.41 0 0 1-.62-.31q-.73-7.38-7.99-5.2-.5.15-.74-.31c-2.78-5.23-8.74-7.4-13.49-2.9q-.43.41-.73-.1c-5.55-9.21-19.3-12.16-23.61-.08q-.19.55-.65.89l-3.06 2.32q-.43.33-.96.22-6.14-1.27-7.06 4.81-.09.6-.59.27c-9.29-6.12-20.79.08-17.1 11.67q.16.52-.33.74-4.01 1.79-4.27 6.25-.03.48-.47.69-1.44.7-2.27 1.77zm-71.5 8.83.04 1.56a.18.18 0 0 0 .19.18l.07-.01a12.85.48-1.4 0 0 12.83-.79l-.02-.96a12.85.48-1.4 0 0-12.86-.17l-.07.01a.18.18 0 0 0-.18.18zm46.41.353a.69.69 0 0 0-.687-.693L82.293 74a.69.69 0 0 0-.692.687l-.002.5a.69.69 0 0 0 .688.692l11.74.041a.69.69 0 0 0 .692-.687l.002-.5zm-44.68 7.765a2.15.9 87.6 0 0 .81-2.186 2.15.9 87.6 0 0-.99-2.11 2.15.9 87.6 0 0-.81 2.186 2.15.9 87.6 0 0 .99 2.11zm39.4.522c-.5 1.53.09 3.33-.03 4.68q-.26 2.88-.11 5.73a.77.77 0 0 0 1.49.21q.48-1.35-.24-2.7a.92.91 45.9 0 1 .01-.87q.87-1.56.01-3.13-.24-.44.01-.86.9-1.54.04-3.15-.2-.39-.02-.8.87-1.92-.45-3.73a.46.46 0 0 0-.82.16q-.42 1.8.12 3.62.13.43-.01.84zm-36.306-.622a1.95 1.02 83.7 0 0 .8-2.05 1.95 1.02 83.7 0 0-1.228-1.826 1.95 1.02 83.7 0 0-.8 2.05 1.95 1.02 83.7 0 0 1.228 1.826zM85.99 80.62q-.05 1.25.93 1.85a.66.66 0 0 0 1-.55l.06-2.92a.61.6-15 0 0-.92-.53q-1.87 1.15-3.78-.14a.63.62-75 0 0-.97.56l.18 2.83a.98.98 0 0 0 1.95.02q.08-.97 1.01-1.47.57-.3.54.35zm6.61 6.41c-.6.89-.25 4.95-.4 6.35a.58.58 0 0 0 .69.63l.67-.13a.71.71 0 0 0 .55-.89l-.64-2.28q-.12-.41.07-.81.65-1.37.16-2.79-.14-.39-.11-.81l.43-6.98a.96.95 53.4 0 0-1.88-.28q-.38 1.64.3 3.01a1.21 1.2-47.6 0 1 .04.94q-.65 1.71.17 3.32.18.37-.05.72zm-35.51-8.11-1.5-.06a.45.45 0 0 0-.46.43l-.02.46a2.47.8-87.5 0 0 .69 2.5l.8.04a2.47.8-87.5 0 0 .9-2.44l.02-.46a.45.45 0 0 0-.43-.47zm3.02 3.26.73-2.73a.6.6 0 0 0-.67-.75l-1.3.2a.66.66 0 0 0-.53.85q.85 2.75.09 5.45a.94.94 0 0 0 1.78.6q.62-1.52-.01-2.74-.22-.42-.09-.88zm-7.49 3.89q.57.55 1-.11.85-1.29.29-2.62a1.05 1.05 0 0 0-1.98.15q-.39 1.54.69 2.58zm32.93-1.02 1.32 1.11a.61.61 0 0 0 .99-.41l.18-1.87a.92.92 0 0 0-1.58-.73q-1.26 1.29-2.45-.18a.74.74 0 0 0-.99-.15q-1.3.88-.29 2.76a1.03 1.03 0 0 0 1.79.04l.26-.44q.31-.51.77-.13zm-35.589 1.11a1.61.95 89.6 0 0 .939-1.617 1.61.95 89.6 0 0-.961-1.603A1.61.95 89.6 0 0 49 84.557a1.61.95 89.6 0 0 .961 1.603zm6.237-.01a1.61 1.3 89.7 0 0 1.292-1.617 1.61 1.3 89.7 0 0-1.308-1.603 1.61 1.3 89.7 0 0-1.292 1.617 1.61 1.3 89.7 0 0 1.308 1.603zm3.288 3.9a1.64 1.08 89.8 0 0 1.074-1.644 1.64 1.08 89.8 0 0-1.086-1.636 1.64 1.08 89.8 0 0-1.074 1.644 1.64 1.08 89.8 0 0 1.086 1.636zm-8.936.31.5-2.51a.93.93 0 0 0-1.8-.47q-.52 1.59.4 2.86.27.38-.03.75-1.16 1.44-.21 2.89a.5.5 0 0 0 .83.02q.88-1.19.37-2.64-.15-.44-.06-.9zm2.11.56q-1.02 1.02-.65 2.58a.9.9 0 0 0 1.68.21q.75-1.44-.13-2.81-.3-.45-.03-.93.48-.85.61-1.93a1.08 1.08 0 0 0-2.13-.33q-.26 1.41.65 2.35.43.43 0 .86zm4.758-3.107a1.03 1.03 0 0 0-1.192-.837l-.414.072a1.03 1.03 0 0 0-.837 1.192l.147.847a1.03 1.03 0 0 0 1.192.837l.414-.072a1.03 1.03 0 0 0 .837-1.192l-.147-.847zm27.272.467.08-.64a.9.9 0 0 0-1.31-.92q-1.44.75-.96 2.7a1.08 1.08 0 0 0 1.58.69q.78-.44.62-1.27-.05-.27-.01-.56zm.88-.49.66 2.12a.44.44 0 0 0 .55.29l.43-.13a1.41 1.4-17.2 0 0 .93-1.76l-.09-.28a1.41 1.4-17.2 0 0-1.76-.92l-.43.13a.44.44 0 0 0-.29.55zm-27.05 3.08.1 3.14a.25.25 0 0 0 .25.24l.29-.01a1.4 1.09-1.7 0 0 1.37-1.13l-.04-1.46a1.4 1.09-1.7 0 0-1.43-1.05l-.29.01a.25.25 0 0 0-.25.26zm26.95.94q.45.82.68 1.83a.89.89 0 0 0 1.69.12q.57-1.46-.24-2.77a.59.59 0 0 0-.88-.15q-1.49 1.19-2.86.08-.57-.46-1.05.08-1.17 1.31-.01 2.92a1.04 1.04 0 0 0 1.79-.16q.33-.7.13-1.52a.47.4-70.4 0 1 .75-.43zm-28.68-.76-1.28-.02a.42.42 0 0 0-.43.41v.25a2.29.81-88.8 0 0 .76 2.3l.5.01a2.29.81-88.8 0 0 .86-2.27v-.25a.42.42 0 0 0-.41-.43zm-15.05 43.27q-2.17-1.48-4.69-1.77a.89.89 0 0 0-.9 1.27q.8 1.61 2.35 2.31.51.23.71.75l1.55 4.05 2.06 8.8a1.24 1.24 0 0 0 1.01.94q8.61 1.31 17.22-.1.58-.09.71-.66l2.01-8.79q.99-1.24 1.26-4.29 2.43-1.12 3.33-3.07.28-.61-.35-.85-2.16-.81-4.49 1.57-2.47-2.29-5.58-1.45a.75.74-25 0 1-.81-.29q-1.26-1.8-3.53-1.48-.54.08-.76.59-1.1 2.5-3.85 3.27a1.42 1.4-37.8 0 1-1.08-.13l-2.82-1.55a1.46 1.45-35.3 0 0-.96-.16q-1.27.24-2.39 1.04zm96.01 13.67a2.58 2.58 0 0 0-2.58-2.58 2.58 2.58 0 0 0-2.58 2.58 2.58 2.58 0 0 0 2.58 2.58 2.58 2.58 0 0 0 2.58-2.58zm80.31.11a2.39 2.39 0 0 0-2.39-2.39 2.39 2.39 0 0 0-2.39 2.39 2.39 2.39 0 0 0 2.39 2.39 2.39 2.39 0 0 0 2.39-2.39zm11.5 2.4a2.57 2.57 0 0 0-2.57-2.57 2.57 2.57 0 0 0-2.57 2.57 2.57 2.57 0 0 0 2.57 2.57 2.57 2.57 0 0 0 2.57-2.57z"/><path fill="#73b142" d="M227.99 69.77c-1.36 8.19-7.38 13.23-15.53 9.12a1.54 1.53-55.1 0 0-1.82.33c-6.65 7.23-17.68 4.62-22.02-3.61a.68.68 0 0 0-.92-.28q-6.74 3.65-13.26-.69-.45-.3-.96-.12-1 .35-1.74 1.15-.33.36-.77.54-5.16 2.09-10.07-.59a1.13 1.12 24.1 0 0-1.6.6q-1.99 5.46-7.72 3.26a.66.66 0 0 0-.89.53q-1.01 7.03-7.52 7.71c-2.58.27-5.22-1.41-8.06.8a2.97 2.97 0 0 1-.88.47l-5.78 1.88-4.29-3.98q.36-4.8 4.22-5.05a1.37 1.37 0 0 0 1.2-1.83c-2.1-5.84-6 1.49-6.63 3.66l-.08-5.22a1 1 0 0 0-.4-.8q-6.22-4.66-2.66-12.1.83-1.07 2.27-1.77.44-.21.47-.69.26-4.46 4.27-6.25.49-.22.33-.74c-3.69-11.59 7.81-17.79 17.1-11.67q.5.33.59-.27.92-6.08 7.06-4.81.53.11.96-.22l3.06-2.32q.46-.34.65-.89c4.31-12.08 18.06-9.13 23.61.08q.3.51.73.1c4.75-4.5 10.71-2.33 13.49 2.9q.24.46.74.31 7.26-2.18 7.99 5.2a.41.41 0 0 0 .62.31c7.46-4.56 19.18-1.94 17.99 8.89q-.15 1.37-.16 2.8a.48.48 0 0 0 .47.49q2.62.06 3.81 2.37a1.73 1.7 36 0 1 .17 1.03c-.41 2.79 1.61 6.4 1.96 9.37zm-57.75-28.55a2.03 2.03 0 0 0-2.03-2.03 2.03 2.03 0 0 0-2.03 2.03 2.03 2.03 0 0 0 2.03 2.03 2.03 2.03 0 0 0 2.03-2.03zm27.59 6.05a2.08 2.08 0 0 0-2.08-2.08 2.08 2.08 0 0 0-2.08 2.08 2.08 2.08 0 0 0 2.08 2.08 2.08 2.08 0 0 0 2.08-2.08zm-60.13 1.89a2.1 2.1 0 0 0-2.1-2.1 2.1 2.1 0 0 0-2.1 2.1 2.1 2.1 0 0 0 2.1 2.1 2.1 2.1 0 0 0 2.1-2.1zm77.59 3.16a2.32 2.32 0 0 0-2.32-2.32 2.32 2.32 0 0 0-2.32 2.32 2.32 2.32 0 0 0 2.32 2.32 2.32 2.32 0 0 0 2.32-2.32zm-63.35 1.55a2.31 2.31 0 0 0-2.31-2.31 2.31 2.31 0 0 0-2.31 2.31 2.31 2.31 0 0 0 2.31 2.31 2.31 2.31 0 0 0 2.31-2.31zm24.43 1.09a2.42 2.42 0 0 0-2.42-2.42 2.42 2.42 0 0 0-2.42 2.42 2.42 2.42 0 0 0 2.42 2.42 2.42 2.42 0 0 0 2.42-2.42zm-21.99 3.56c-2.71 2.1-5.99 1.51-9.02.58q-.49-.15-.94.09-5.19 2.85-9.61-.88a.66.66 0 0 0-.87.03q-2.65 2.56-6.41 1.83a.53.53 0 0 0-.61.66c.94 3.57 4.5 3 7.29 2.62q.52-.07.88.32c4.92 5.42 9.07-.76 14.61 1.43q.51.21.98-.09l4.63-2.92q.42-.27.92-.21 3.47.46 4.72-2.63a.67.66 12.1 0 0-.6-.92l-5.3-.13q-.38-.01-.67.22zm36.89 4.19c-2.69 2.8-3.96 2.29-7.22 1.88a.49.48-15.3 0 0-.45.78q2.8 3.56 6.75 2.64c3.79-.88 5.4 4.08 10.09 1.74q3.61-1.8 7.73-1.52.58.04.88-.46l2.31-3.87a.49.49 0 0 0-.62-.7q-3.84 1.7-7.65 0a1.06 1.05-47.7 0 0-.96.05q-5.01 2.86-9.37-.63-.79-.64-1.49.09zm-10.16 5.95a2.02 2.02 0 0 0-2.02-2.02 2.02 2.02 0 0 0-2.02 2.02 2.02 2.02 0 0 0 2.02 2.02 2.02 2.02 0 0 0 2.02-2.02zm-35.79 6.71a2.05 2.05 0 0 0-2.05-2.05 2.05 2.05 0 0 0-2.05 2.05 2.05 2.05 0 0 0 2.05 2.05 2.05 2.05 0 0 0 2.05-2.05zm58.83 2.27a2.07 2.07 0 0 0-2.07-2.07 2.07 2.07 0 0 0-2.07 2.07 2.07 2.07 0 0 0 2.07 2.07 2.07 2.07 0 0 0 2.07-2.07z"/><circle fill="#fdae1f" cx="168.21" cy="41.22" r="2.03"/><path fill="#dcdddd" d="M119.81 65.55q-3.56 7.44 2.66 12.1a1 1 0 0 1 .4.8l.08 5.22c-1.66 2.16-6.84 7.08-3.71 9.62l-.1 1.14q-.05.52-.53.71l-4.7 1.84q-4.93-8.48-10.4-1.32c-.97-3.53 1.67-4.57 3.62-6.61q1.67 2.05 4.24 1.75.5-.06.54-.55c.19-1.9 3.32-1.46 3.97-4.57q.1-.44-.2-.78-.99-1.11-.98-2.69 1.84-.79 2.87-2.28.36-.53-.24-.74-1.52-.53-3.02.54-.16-.87-.91-.72-.45-1.8-1.65-3.3c.56-1.95-1.27-4.89 1.66-5.86q.47-.15.96-.07 1.02.18 1.91-.29a.86.86 0 0 0-.28-1.61c-3.8-.55-5.22-1.96-7.98-4.09-9.49-7.33-18.17-15-28.33-22.13q-.47-.33.09-.44.14-.02.3-.03.17-.01.32.08 10.72 6.01 21.9 11.11a1.56 1.55-37.6 0 0 .94.12q.63-.11.53.55-.07.49.32.8 6.84 5.37 12.88 11.57c.96.98 1.82.84 2.84.13z"/><circle fill="#fdae1f" cx="195.75" cy="47.27" r="2.08"/><circle fill="#fdae1f" cx="135.6" cy="49.16" r="2.1"/><circle fill="#fdae1f" cx="212.97" cy="52.32" r="2.32"/><circle fill="#fdae1f" cx="149.63" cy="53.87" r="2.31"/><circle fill="#fdae1f" cx="173.95" cy="54.96" r="2.42"/><path fill="#599442" d="M145.36 59.1c3.03.93 6.31 1.52 9.02-.58q.29-.23.67-.22l5.3.13a.67.66 12.1 0 1 .6.92q-1.25 3.09-4.72 2.63-.5-.06-.92.21l-4.63 2.92q-.47.3-.98.09c-5.54-2.19-9.69 3.99-14.61-1.43q-.36-.39-.88-.32c-2.79.38-6.35.95-7.29-2.62a.53.53 0 0 1 .61-.66q3.76.73 6.41-1.83a.66.66 0 0 1 .87-.03q4.42 3.73 9.61.88.45-.24.94-.09zM184.05 64.59c3.26.41 4.53.92 7.22-1.88q.7-.73 1.49-.09 4.36 3.49 9.37.63a1.06 1.05-47.7 0 1 .96-.05q3.81 1.7 7.65 0a.49.49 0 0 1 .62.7l-2.31 3.87q-.3.5-.88.46-4.12-.28-7.73 1.52c-4.69 2.34-6.3-2.62-10.09-1.74q-3.95.92-6.75-2.64a.49.48-15.3 0 1 .45-.78z"/><circle fill="#fdae1f" cx="179.09" cy="68.66" r="2.02"/><path fill="#599442" d="M227.99 69.77c5.75 3.22 5.61 10.86.19 14.3a.85.84 71.8 0 0-.39.78c.79 9.66-6.83 15.01-15.66 11.3q-.49-.21-.91.13-8.58 7.04-15.92-1.08-.33-.36-.82-.43l-1.36-.18c.19-1.24 2.65-7.92.66-7.8a1.1 1.1 0 0 0-.96.69l-3.12 7.72q-1.55-2.42-4.3-1.32-1.7-3.98-1.68-9.75a.45.44 48 0 0-.89-.05q-.28 2.98-.03 6.39l-.02 5.4q-4.44.98-8.68-.39-2.03-5.81-.9-9.75 1-3.49.51-5.25c-2.25 1.78-2.79 3.4-3.37 6.17q-.13.6-.66.29c-1.03-.61-6.76-6.19-7.38-5.78a.52.51-34.7 0 0-.14.73q2.65 3.67 5.84 6.85 2.16 2.16 2.76 6.68-4.31 2.78-9.36 1.34-5.97-4.06-6.59-11.84a.44.44 0 0 0-.87-.04q-.56 3.5 1.4 7.77c-2.16 2.31-5.9-.46-8.36-2.19q-.4-.28-.77.03c-1.14.94 3.09 3.87 4.99 5.2-4.61 4.04-11.58 2.81-15.21-1.96q-.29-.39-.78-.38-4.02.05-6.76-2.48l5.78-1.88a2.97 2.97 0 0 0 .88-.47c2.84-2.21 5.48-.53 8.06-.8q6.51-.68 7.52-7.71a.66.66 0 0 1 .89-.53q5.73 2.2 7.72-3.26a1.13 1.12 24.1 0 1 1.6-.6q4.91 2.68 10.07.59.44-.18.77-.54.74-.8 1.74-1.15.51-.18.96.12 6.52 4.34 13.26.69a.68.68 0 0 1 .92.28c4.34 8.23 15.37 10.84 22.02 3.61a1.54 1.53-55.1 0 1 1.82-.33c8.15 4.11 14.17-.93 15.53-9.12z"/><circle fill="#fdae1f" cx="143.27" cy="75.37" r="2.05"/><path fill="#dcdddd" d="M48.31 74.38a.18.18 0 0 1 .18-.18l.07-.01a12.85.48-1.4 0 1 12.86.17l.02.96a12.85.48-1.4 0 1-12.83.79l-.07.01a.18.18 0 0 1-.19-.18l-.04-1.56z"/><rect fill="#dcdddd" x="-6.56" y="-.94" transform="rotate(.2 -21430.356 25293.434)" width="13.12" height="1.88" rx=".69"/><circle fill="#fdae1f" cx="202.08" cy="77.64" r="2.07"/><path fill="#ead1a2" d="M111.75 75.71q1.2 1.5 1.65 3.3-3.63 3-8.03 3.25c-2.31-4.53 2.78-5.26 6.38-6.55z"/><path fill="#cc9b66" d="m124.16 86.89-4.17 6.36a.36.35-63.9 0 1-.4.14l-.35-.1c-3.13-2.54 2.05-7.46 3.71-9.62.63-2.17 4.53-9.5 6.63-3.66a1.37 1.37 0 0 1-1.2 1.83q-3.86.25-4.22 5.05z"/><ellipse fill="#dcdddd" transform="rotate(87.6 -16.92 66.219)" rx="2.15" ry=".9"/><path fill="#dcdddd" d="M89.45 82.18q-.54-1.82-.12-3.62a.46.46 0 0 1 .82-.16q1.32 1.81.45 3.73-.18.41.02.8.86 1.61-.04 3.15-.25.42-.01.86.86 1.57-.01 3.13a.92.91 45.9 0 0-.01.87q.72 1.35.24 2.7a.77.77 0 0 1-1.49-.21q-.15-2.85.11-5.73c.12-1.35-.47-3.15.03-4.68q.14-.41.01-.84z"/><ellipse fill="#dcdddd" transform="rotate(83.7 -18.456 69.772)" rx="1.95" ry="1.02"/><path fill="#dcdddd" d="M85.45 80.27q-.93.5-1.01 1.47a.98.98 0 0 1-1.95-.02l-.18-2.83a.63.62-75 0 1 .97-.56q1.91 1.29 3.78.14a.61.6-15 0 1 .92.53l-.06 2.92a.66.66 0 0 1-1 .55q-.98-.6-.93-1.85.03-.65-.54-.35zM92.65 86.31q-.82-1.61-.17-3.32a1.21 1.2-47.6 0 0-.04-.94q-.68-1.37-.3-3.01a.96.95 53.4 0 1 1.88.28l-.43 6.98q-.03.42.11.81.49 1.42-.16 2.79-.19.4-.07.81l.64 2.28a.71.71 0 0 1-.55.89l-.67.13a.58.58 0 0 1-.69-.63c.15-1.4-.2-5.46.4-6.35q.23-.35.05-.72zM57.09 78.92a.45.45 0 0 1 .43.47l-.02.46a2.47.8-87.5 0 1-.9 2.44l-.8-.04a2.47.8-87.5 0 1-.69-2.5l.02-.46a.45.45 0 0 1 .46-.43l1.5.06zM60.2 83.06q.63 1.22.01 2.74a.94.94 0 0 1-1.78-.6q.76-2.7-.09-5.45a.66.66 0 0 1 .53-.85l1.3-.2a.6.6 0 0 1 .67.75l-.73 2.73q-.13.46.09.88z"/><path fill="#1962b6" d="M113.4 79.01q.75-.15.91.72-3.78 3.77-8.4 3.71-.86-1-.54-1.18 4.4-.25 8.03-3.25z"/><path fill="#ead1a2" d="M114.7 82.21q-1.41.18-2.66 1.63-1.64.08-2.36 1.2-.66-.07-.36.29-2.43-.46-2.65.61-1.19-.35-2.49-.15a.46.46 0 0 1-.35-.83l2.08-1.52q4.62.06 8.4-3.71 1.5-1.07 3.02-.54.6.21.24.74-1.03 1.49-2.87 2.28z"/><path fill="#8c6f62" d="M173.71 80.48q-1.24 4.57-1.79 8.44c-.3 2.11.41 4.13.61 6.27.42 4.55 2.01 8.82 2.84 13.31q.1.53-.22.97-.5.68-.39 1.56a.72.7 76.8 0 1-.46.76q-.77.28-2.51-.04 1.85-.91 1.66-2.75-.7-6.91-2.69-13.58-.6-4.52-2.76-6.68-3.19-3.18-5.84-6.85a.52.51-34.7 0 1 .14-.73c.62-.41 6.35 5.17 7.38 5.78q.53.31.66-.29c.58-2.77 1.12-4.39 3.37-6.17z"/><path fill="#5e4139" d="m174.1 95.48 3.76 16.66q1.72 1.94 4.36.93.47-.18.62-.66c1.82-5.84 5.09-10.42 1.27-16.5q-.26-.42-.36-.9l-.95-4.54q-.25-3.41.03-6.39a.45.44 48 0 1 .89.05q-.02 5.77 1.68 9.75.12 1.37.81 2.27.33.44.88.37 1.25-.18 2.61-1.32l3.12-7.72a1.1 1.1 0 0 1 .96-.69c1.99-.12-.47 6.56-.66 7.8-4.31 7.49-7 15.35-10.99 22.88-3.02 5.7-1.32 15.33-.8 21.72.53 6.5 9.63 5.86 9.81 7.63q.06.52-.46.42-4.38-.91-8.79-.21a.45.45 0 0 0-.17.82l2.54 1.59a.33.32 62.8 0 1-.19.6q-3.13-.2-5.72-1.68c-4.56-2.62-5.5-.76-9.67.22q-3.7.87-7.34 1.81-.33.08-.28-.25.02-.16.11-.31a.43.41 5 0 1 .24-.19q2.04-.68 2.64-2.72a.89.88-5.9 0 0-1.27-1.03c-.9.48-5.52 2.86-6.16 2.58q-.42-.19-.05-.45l7.15-5.12q.79 2.27 2.58 1.9.25-.05.35.18.05.14.12.3.07.18-.09.29-1.48 1.09-2.43 2.66a.31.31 0 0 0 .47.4q3.69-3.13 8.62-3.84.54-.07.93-.46c3.75-3.74 1.93-14.98 1.28-22.29-.48-5.45-4.94-6.83-6.97-11.31q-4.65-10.3-13.24-18.08-1.96-4.27-1.4-7.77a.44.44 0 0 1 .87.04q.62 7.78 6.59 11.84 6.39 6.71 10.39 14.99 1.74.32 2.51.04a.72.7 76.8 0 0 .46-.76q-.11-.88.39-1.56.32-.44.22-.97c-.83-4.49-2.42-8.76-2.84-13.31-.2-2.14-.91-4.16-.61-6.27q.55-3.87 1.79-8.44.49 1.76-.51 5.25-1.13 3.94.9 9.75z"/><path fill="#cc9b66" d="M114.7 82.21q-.01 1.58.98 2.69.3.34.2.78c-.65 3.11-3.78 2.67-3.97 4.57q-.04.49-.54.55-2.57.3-4.24-1.75l.14-1.37q2.34-.82 2.05-2.35-.3-.36.36-.29 1.56.77 2.36-1.2 1.25-1.45 2.66-1.63z"/><path fill="#dcdddd" d="M52.62 86.07q-1.08-1.04-.69-2.58a1.05 1.05 0 0 1 1.98-.15q.56 1.33-.29 2.62-.43.66-1 .11zM84.78 85.18l-.26.44a1.03 1.03 0 0 1-1.79-.04q-1.01-1.88.29-2.76a.74.74 0 0 1 .99.15q1.19 1.47 2.45.18a.92.92 0 0 1 1.58.73l-.18 1.87a.61.61 0 0 1-.99.41l-1.32-1.11q-.46-.38-.77.13z"/><ellipse fill="#dcdddd" transform="rotate(89.6 -17.596 67.425)" rx="1.61" ry=".95"/><ellipse fill="#dcdddd" transform="rotate(89.7 -14.397 70.512)" rx="1.61" ry="1.3"/><path fill="#599442" d="M112.04 83.84q-.8 1.97-2.36 1.2.72-1.12 2.36-1.2z"/><path fill="#5e4139" d="M109.32 85.33q.29 1.53-2.05 2.35l-.6-1.74q.22-1.07 2.65-.61z"/><ellipse fill="#dcdddd" transform="rotate(89.8 -14.62 74.049)" rx="1.64" ry="1.08"/><path fill="#dcdddd" d="M50.61 91.26q.51 1.45-.37 2.64a.5.5 0 0 1-.83-.02q-.95-1.45.21-2.89.3-.37.03-.75-.92-1.27-.4-2.86a.93.93 0 0 1 1.8.47l-.5 2.51q-.09.46.06.9zM52.66 90.06q-.91-.94-.65-2.35a1.08 1.08 0 0 1 2.13.33q-.13 1.08-.61 1.93-.27.48.03.93.88 1.37.13 2.81a.9.9 0 0 1-1.68-.21q-.37-1.56.65-2.58.43-.43 0-.86z"/><rect fill="#dcdddd" x="-1.24" y="-1.46" transform="rotate(-9.9 538.76 -280.624)" width="2.48" height="2.92" rx="1.03"/><path fill="#dcdddd" d="M84.7 88.84q.16.83-.62 1.27a1.08 1.08 0 0 1-1.58-.69q-.48-1.95.96-2.7a.9.9 0 0 1 1.31.92l-.08.64q-.04.29.01.56zM85.57 87.79a.44.44 0 0 1 .29-.55l.43-.13a1.41 1.4-17.2 0 1 1.76.92l.09.28a1.41 1.4-17.2 0 1-.93 1.76l-.43.13a.44.44 0 0 1-.55-.29l-.66-2.12z"/><path fill="#8c6f62" d="M155.34 92.65q8.59 7.78 13.24 18.08c2.03 4.48 6.49 5.86 6.97 11.31.65 7.31 2.47 18.55-1.28 22.29q-.39.39-.93.46-4.93.71-8.62 3.84a.31.31 0 0 1-.47-.4q.95-1.57 2.43-2.66.16-.11.09-.29-.07-.16-.12-.3-.1-.23-.35-.18-1.79.37-2.58-1.9 5.79-.43 5.52-6.62c-.17-3.88.89-11.6-.85-16.57-2.4-6.82-7.29-25.46-17.19-24.02-1.9-1.33-6.13-4.26-4.99-5.2q.37-.31.77-.03c2.46 1.73 6.2 4.5 8.36 2.19z"/><path fill="#dcdddd" d="M58.52 90.87a.25.25 0 0 1 .25-.26l.29-.01a1.4 1.09-1.7 0 1 1.43 1.05l.04 1.46a1.4 1.09-1.7 0 1-1.37 1.13l-.29.01a.25.25 0 0 1-.25-.24l-.1-3.14z"/><path fill="#8c6f62" d="m182.8 90.47.95 4.54q.1.48.36.9c3.82 6.08.55 10.66-1.27 16.5q-.15.48-.62.66-2.64 1.01-4.36-.93c4.16-3.91 8.15-10.79 4.92-16.27l.02-5.4z"/><path fill="#dcdddd" d="M84.72 92.24q.2.82-.13 1.52a1.04 1.04 0 0 1-1.79.16q-1.16-1.61.01-2.92.48-.54 1.05-.08 1.37 1.11 2.86-.08a.59.59 0 0 1 .88.15q.81 1.31.24 2.77a.89.89 0 0 1-1.69-.12q-.23-1.01-.68-1.83a.47.4-70.4 0 0-.75.43zM56.79 91.05a.42.42 0 0 1 .41.43v.25a2.29.81-88.8 0 1-.86 2.27l-.5-.01a2.29.81-88.8 0 1-.76-2.3v-.25a.42.42 0 0 1 .43-.41l1.28.02z"/><path fill="#2d75c6" d="M113.91 96.98q2.98 1.72 2.42 4.45-1.36.45-2.86-1.28c-.07-3.16-2.24-7.67-6.04-6.77q-2.33.55-3.06 3.31c-.75 2.88-3.41 16.18 4.38 12.32q3.89-.05 7.71-1.94-.43 4.87-2.34 8.97-.22.48-.15 1 1.66 11.71.2 23.49-2.55.53-5.72-.39l-.75-6.09q-.71-6.75-7.01-12.51-.23-6.09.12-13c.22-4.47 1.64-8.45 2.7-12.88q5.47-7.16 10.4 1.32z"/><path fill="#d4ebfd" d="M113.47 100.15q-1.45.41-2.26 2.13-1.41.84-3.22.74-.57-.03-.6.54-.16 2.85 1.36 5.45c-7.79 3.86-5.13-9.44-4.38-12.32q.73-2.76 3.06-3.31c3.8-.9 5.97 3.61 6.04 6.77z"/><path fill="#fff" d="M189.7 95.2q-1.36 1.14-2.61 1.32-.55.07-.88-.37-.69-.9-.81-2.27 2.75-1.1 4.3 1.32zM170.76 95.42q1.99 6.67 2.69 13.58.19 1.84-1.66 2.75-4-8.28-10.39-14.99 5.05 1.44 9.36-1.34zM174.1 95.48q4.24 1.37 8.68.39c3.23 5.48-.76 12.36-4.92 16.27l-3.76-16.66z"/><path fill="#fdae1f" d="M113.47 100.15q1.5 1.73 2.86 1.28.89.31.88.59c1.37 4.1-3.14 2.97-5.14 2.97q-.53 0-.7-.51-.38-1.18-.16-2.2.81-1.72 2.26-2.13z"/><path fill="#cc9b66" d="M117.21 102.02c3.87.26.07 4.03-.75 5.05q-3.82 1.89-7.71 1.94-1.52-2.6-1.36-5.45.03-.57.6-.54 1.81.1 3.22-.74-.22 1.02.16 2.2.17.51.7.51c2 0 6.51 1.13 5.14-2.97z"/><path fill="#1962b6" d="M100.69 121.54q6.3 5.76 7.01 12.51l-6.24 12.99a.69.69 0 0 0 .32.92q1.34.66 2.01 1.99a.51.51 0 0 1-.61.72l-6.65-2.16q-.64-.21-.49-.88c.94-4.07 1.74-6.61 3.93-10.95 2.38-4.74 1.17-9.99.72-15.14z"/><path fill="#fdae1f" d="M63.52 134.48q.29.53.68.53l.5.77.09.63q-11.23 2.1-22.98.36a.89.89 0 0 1-.66-1.28l.59-1.17q1.12-.8 2.39-1.04a1.46 1.45-35.3 0 1 .96.16l2.82 1.55a1.42 1.4-37.8 0 0 1.08.13q2.75-.77 3.85-3.27.22-.51.76-.59 2.27-.32 3.53 1.48a.75.74-25 0 0 .81.29q3.11-.84 5.58 1.45z"/><path fill="#8c6f62" d="m41.74 134.32-.59 1.17a.89.89 0 0 0 .66 1.28q11.75 1.74 22.98-.36.04-.66.24.42-.27 3.05-1.26 4.29l-23.01-.19-1.55-4.05q-.2-.52-.71-.75-1.55-.7-2.35-2.31a.89.89 0 0 1 .9-1.27q2.52.29 4.69 1.77zm-1.9-.02q-.98-.57-1.84-.43a.39.39 0 0 0-.14.72l1.48.87a.42.41-70.7 0 0 .62-.3l.06-.49a.39.38 19.7 0 0-.18-.37z"/><path fill="#cc9b66" d="M65.03 136.83q-.2-1.08-.24-.42l-.09-.63q1.5-.3 2.08-1.25.31-.52-.29-.63-1.41-.25-2.29 1.11-.39 0-.68-.53 2.33-2.38 4.49-1.57.63.24.35.85-.9 1.95-3.33 3.07z"/><path fill="#fff" d="M39.84 134.3a.39.38 19.7 0 1 .18.37l-.06.49a.42.41-70.7 0 1-.62.3l-1.48-.87a.39.39 0 0 1 .14-.72q.86-.14 1.84.43zM64.7 135.78l-.5-.77q.88-1.36 2.29-1.11.6.11.29.63-.58.95-2.08 1.25z"/><path fill="#1962b6" d="M108.45 140.14q3.17.92 5.72.39l-.64 7.37q-.04.39.31.57l3.07 1.68a.44.44 0 0 1-.21.83h-7.19q-.53 0-.56-.53l-.5-10.31z"/><path fill="#7b593d" d="m40.76 140.93 23.01.19-2.01 8.79q-.13.57-.71.66-8.61 1.41-17.22.1a1.24 1.24 0 0 1-1.01-.94l-2.06-8.8z"/><circle fill="#fdae1f" cx="135.17" cy="147.99" r="2.58"/><circle fill="#fdae1f" cx="215.67" cy="148.1" r="2.39"/><circle fill="#fdae1f" cx="226.99" cy="150.5" r="2.57"/></svg>