<svg xmlns="http://www.w3.org/2000/svg" viewBox="0 0 256 256"><g stroke-width="2" fill="none"><path stroke="#9bace0" vector-effect="non-scaling-stroke" d="M87.53 29.92q-3.1 6.23 1.15 6.44M92.26 35.27q1.06.71 1.51 3.1.08.44-.32.63l-3.75 1.87"/><path stroke="#8a8f97" vector-effect="non-scaling-stroke" d="M89.7 40.87q-1.6 4.38.99 4.4"/><path stroke="#939dba" vector-effect="non-scaling-stroke" d="m92.61 46.5-2.14 3.49"/><path stroke="#8a8f97" vector-effect="non-scaling-stroke" d="M90.47 49.99q-.88.44-2.47.24"/><path stroke="#9bace0" vector-effect="non-scaling-stroke" d="M88 50.23q.05-.17-.8-.36"/><path stroke="#8a8f97" vector-effect="non-scaling-stroke" d="M87.2 49.87q-1.96-.65-4.24 1.93a1.01 1.01 0 0 0-.23.85l.6 3.18"/><path stroke="#9bace0" vector-effect="non-scaling-stroke" d="M83.33 55.83q-2.7 1.54-5.02 1.74"/><path stroke="#8a8f97" vector-effect="non-scaling-stroke" d="M77.77 56.73q-.11-1.19-.83-2.07-.25-.32-.66-.31l-2.89.09q-.39.01-.63.32-1.2 1.58-2.63 2.99a1.66 1.52 11.4 0 1-.65.39q-.54.17-.33.56"/><path stroke="#9bace0" vector-effect="non-scaling-stroke" d="M69.15 58.7q-1.01-1.85-3.22-1.67M67.35 53.28l.19-.18a.48.47-35.5 0 0 .1-.57q-1.78-3.51-5.05-1.2"/><path stroke="#8a8f97" vector-effect="non-scaling-stroke" d="M62.59 51.33q-1.47.29-2.29-.59"/><path stroke="#939dba" vector-effect="non-scaling-stroke" d="M64.24 44.18q-.05-.66.12-.96a1.24 1.24 0 0 0-.76-1.83q-2.3-.61-2.15-1.93"/><path stroke="#263b78" vector-effect="non-scaling-stroke" d="m72.78 58.5-3.06 1.49M61.48 53.67q.3-1.34 1.11-2.34M88 50.23q.17 1.03 1.55.77a.62.62 0 0 1 .6 1q-.26.32-.9.3M76.99 56.63c.31-2.28-1.9-1.52-3.19-1.69a.95.95 0 0 0-.91.43q-1.98 3.08-3.74 3.33M87.2 49.87q-.83 1.6-.22 1.87"/><path stroke="#263b78" vector-effect="non-scaling-stroke" d="m86.52 52.04-.06-1.48a.47.46-13.7 0 0-.66-.4q-1.46.69-2.31 2.11-.26.44.02.87.25.36.74.63M83.42 58.73q.55-2.02-.09-2.9M94.83 39.58q-.76 1.03-.3 2.1M91.09 42.98q-1.63-.39-1.39-2.11"/><path stroke="#2e499b" vector-effect="non-scaling-stroke" d="M93.26 47.66q-1.55.48-2.34 3.01"/><path stroke="#1e2c51" vector-effect="non-scaling-stroke" d="M90.92 50.67q-.15-.69-.45-.68"/><path stroke="#263b78" vector-effect="non-scaling-stroke" d="M92.74 50.74q-1.67.3-1.82-.07"/><path stroke="#637197" vector-effect="non-scaling-stroke" d="m60.46 64.25-2.3-.02q-.42 0-.71.3l-2.61 2.69q-.29.29.04.53l.35.25"/><path stroke="#6b7fba" vector-effect="non-scaling-stroke" d="M55.43 69.02q-1.38 1.25-2.93 1.25-.58 0-.77-.55-.23-.67-.76-1.13-.42-.35-.95-.48l-4.24-1.05q-.52-.13-.92.23l-.75.67a.53.52-46.3 0 1-.69.02l-2.1-1.75a.7.69-51.9 0 1-.11-.96l.41-.55a.94.92 51.8 0 0 .1-.93l-1.75-3.88a1.06 1.04 81.6 0 0-.81-.61l-.77-.1q-.44-.06-.58-.47-.54-1.58.16-3.39"/><path stroke="#738ee0" vector-effect="non-scaling-stroke" d="M41.69 53.71q1.27-.49 1.7-1.28.24-.44-.05-.86-.63-.86-.39-1.72"/><path stroke="#2e499b" vector-effect="non-scaling-stroke" d="M50.05 71.25q1.04.12 1.18-1.18a.73.71-84.1 0 0-.64-.8q-1.11-.11-1.13 1.22"/><path stroke="#2e499b" vector-effect="non-scaling-stroke" d="M48.22 70.07q1.12-.04 1.3-.96a.65.65 0 0 0-.36-.73q-2.18-1.01-4.35-.19a.47.47 0 0 0-.24.68q.12.19.41.29M39.81 65.05q1.34.08 1.19-.54-1.56-6.56-4.62-3.91"/><path stroke="#263b78" vector-effect="non-scaling-stroke" d="M59.53 65.5q-2.35-1.32-2.4.69"/><path stroke="#6b7fba" vector-effect="non-scaling-stroke" d="M213.63 84.76q2.54 3.8 1.62 6.99-12.55 43.35-25.02 86.75"/><path stroke="#637197" vector-effect="non-scaling-stroke" d="M190.23 178.5c-1.86 7.16-3.34 14.27-11.7 14.76-1.98.12-4.67-.71-7.03-.75"/><path stroke="#5a6481" vector-effect="non-scaling-stroke" d="M171.5 192.51 45.9 173.15M43.28 162.88l5.69-2.45"/><path stroke="#d8e1ff" vector-effect="non-scaling-stroke" d="M48.97 160.43c-3.04 10 6.39 9.42 12.53 10.34q40.29 6.02 80.48 12.21"/><path stroke="#94aaf2" vector-effect="non-scaling-stroke" d="M141.98 182.98q3.82 1.42 8.13 1.26"/><path stroke="#d8e1ff" vector-effect="non-scaling-stroke" d="m150.11 184.24 18.76 2.88"/><path stroke="#94aaf2" vector-effect="non-scaling-stroke" d="M168.87 187.12q2.9 1.14 6.02.9"/><path stroke="#d8e1ff" vector-effect="non-scaling-stroke" d="M174.89 188.02c8.83 1.55 9.92-8.35 11.63-14.26q11.3-38.94 22.56-77.88c2.52-8.73-2.6-8.38-8.79-9.79"/><path stroke="#94aaf2" vector-effect="non-scaling-stroke" d="m200.29 86.09-65.06-9.76"/><path stroke="#d8e1ff" vector-effect="non-scaling-stroke" d="m135.23 76.33-6.87-1.24"/><path stroke="#94aaf2" vector-effect="non-scaling-stroke" d="m128.36 75.09-20.38-3"/><path stroke="#d8e1ff" vector-effect="non-scaling-stroke" d="m107.98 72.09-17.65-2.65"/><path stroke="#94aaf2" vector-effect="non-scaling-stroke" d="M90.33 69.44q-1.6-.99-3.62-.52"/><path stroke="#d8e1ff" vector-effect="non-scaling-stroke" d="M86.71 68.92c-7.5-.15-10.64-1.64-13.16 7.14q-6.63 23.14-13.3 46.16"/><path stroke="#94aaf2" vector-effect="non-scaling-stroke" d="m60.25 122.22-2.63 7.95a.75.75 0 0 1-1.3.24q-1.58-1.96-2.21-4.67"/><path stroke="#bcc8f2" vector-effect="non-scaling-stroke" d="m86.71 68.92 3.62.52M107.98 72.09l20.38 3M135.23 76.33l65.06 9.76M174.89 188.02l-6.02-.9M150.11 184.24l-8.13-1.26"/><path stroke="#818281" vector-effect="non-scaling-stroke" d="M48.97 160.43q5.79-2.23 12.06-4.63c2.28-.87 3.1-2.55 3.47-4.77q.11-.68-.23-.07c-1.67 2.98-15.56 7.06-19.18 8.32"/><path stroke="#8a8f97" vector-effect="non-scaling-stroke" d="m45.09 159.28-11.33 4.04"/><path stroke="#9bace0" vector-effect="non-scaling-stroke" d="M33.76 163.32q-5.17 2.67-7.47-1.61-4.17-7.72-14.88-30.69"/><path stroke="#bcc8f2" vector-effect="non-scaling-stroke" d="M53.51 125.77q3.29 7.39 7.14 14.51a.09.09 0 0 0 .17-.08q-1.42-3.44-3.3-6.84a1.29 1.29 0 0 1-.12-.95l2.85-10.19"/><path stroke="#0c1119" vector-effect="non-scaling-stroke" d="M171.5 192.51q.2.8-.58 1.78M42.62 162.51l2.47-3.23"/><path stroke="#4f66ac" vector-effect="non-scaling-stroke" d="m216.46 87.25-8.98 33.15"/><path stroke="#2e499b" vector-effect="non-scaling-stroke" d="M207.48 120.4q-5.3 18.54-10.67 37.12-1.76 6.07-2.8 12.3a.35.35 0 0 0 .63.26q1.84-2.68 2.38-5.95c.28-1.7 1.08-2.85 1.73-4.38M198.83 160.58l-2.93 9.56q-.15.48.01.95c.72 2.2 4.83 15.91 6.38 16.23"/><path stroke="#151f3c" vector-effect="non-scaling-stroke" d="M202.29 187.32q-.3.69-.99.8"/><path stroke="#6b7fba" vector-effect="non-scaling-stroke" d="m201.3 188.12-5.49-15.93q-.29-.83-.55 0l-2.39 7.84"/><path stroke="#1e2c51" vector-effect="non-scaling-stroke" d="M192.87 180.03q-.56-2.78-2.64-1.53"/><path stroke="#637197" vector-effect="non-scaling-stroke" d="m201.5 188.59-26.1 15.56"/><path stroke="#5a6481" vector-effect="non-scaling-stroke" d="M175.4 204.15q-.96.47-1.66-.66M171 194.17l-.08.12"/><path stroke="#637197" vector-effect="non-scaling-stroke" d="M170.92 194.29c5.81.44 13.38 3.64 17.9-2.87 2.01-2.89 2.99-7.64 4.05-11.39"/><path stroke="#263b78" vector-effect="non-scaling-stroke" d="M33.76 163.32q1.16.63.45 2.3"/><path stroke="#1d2e62" vector-effect="non-scaling-stroke" d="m218.23 162.98-15.94 24.34"/><path stroke="#5775d3" vector-effect="non-scaling-stroke" d="M210.09 120.82q-1.05-.65-2.61-.42"/><path stroke="#5a6481" vector-effect="non-scaling-stroke" d="m204.06 191.61-1.98-2.42"/><path stroke="#0c1119" vector-effect="non-scaling-stroke" d="m202.08 189.19-.58-.6"/><path stroke="#5a6481" vector-effect="non-scaling-stroke" d="M201.5 188.59q.11-1.01-.2-.47"/><path stroke="#151f3c" vector-effect="non-scaling-stroke" d="M193.33 217.44q-6.56-1.39-13.99-5.16"/><path stroke="#637197" vector-effect="non-scaling-stroke" d="M202.08 189.19q-.24.01-.4.03-.47.07-.15.42c1.16 1.29 2.75 22.83 3.2 26.43q.07.56.63.47 5.19-.84 10.22-3.58"/><path stroke="#263b78" vector-effect="non-scaling-stroke" d="M215.58 212.96q-4.58 3.28-11.12 4.36"/><path stroke="#1e2c51" vector-effect="non-scaling-stroke" d="m204.46 217.32-11.13.12"/><path stroke="#0c1119" vector-effect="non-scaling-stroke" d="m193.33 217.44 1.72-.33"/><path stroke="#263b78" vector-effect="non-scaling-stroke" d="m195.05 217.11 8.46-.18a.73.73 0 0 0 .71-.81l-2.71-25.76q-.13-1.21-1.18-.59l-25.32 15.12"/><path stroke="#0c1119" vector-effect="non-scaling-stroke" d="M175.01 204.89q.19-.37.39-.74"/><path stroke="#738ee0" vector-effect="non-scaling-stroke" d="M219.63 209.65q-1.24 1.73-4.05 3.31"/><path stroke="#1d2e62" vector-effect="non-scaling-stroke" d="M195.05 217.11q-13.37-1.43-20.04-12.22"/><path stroke="#2e499b" vector-effect="non-scaling-stroke" d="M204.35 220.9q-1.98-2.6.11-3.58"/><path stroke="#939dba" vector-effect="non-scaling-stroke" d="M238.52 177.55c3.69 11.87.9 22.92-8.09 31.25q-1.71 1.58-3.44 3.25"/><path stroke="#9bace0" vector-effect="non-scaling-stroke" d="M226.99 212.05q.05-.25-.7.46"/><path stroke="#818281" vector-effect="non-scaling-stroke" d="m226.29 212.51-16.95-22.65"/><path stroke="#2e499b" vector-effect="non-scaling-stroke" d="M242.03 190.1q-1.28 1.08-2.31 4.86-2.8 10.33-12.73 17.09"/><path stroke="#1d2e62" vector-effect="non-scaling-stroke" d="m226.29 212.51.58 2.42"/><path stroke="#9bace0" vector-effect="non-scaling-stroke" d="M85.89 40.94c-2.02-7.13-9.2-6.55-14.17-3.22q-5.91 3.97-3.03 11.08"/><path stroke="#738ee0" vector-effect="non-scaling-stroke" d="M52.08 62.78q1.19-.92 1.32-1.97"/><path stroke="#637197" vector-effect="non-scaling-stroke" d="M53.4 60.81q-1.08-5.91-7.15-4.26-.52.14-.72.65l-.65 1.61"/><path stroke="#263b78" vector-effect="non-scaling-stroke" d="M53.4 60.81q-1.83-4.78-6.84-3.71-.54.11-.53.66v.52"/><path stroke="#5a6481" vector-effect="non-scaling-stroke" d="M58.535 118.715a1.24.94 108.6 0 0 1.286-.875 1.24.94 108.6 0 0-.495-1.475 1.24.94 108.6 0 0-1.287.875 1.24.94 108.6 0 0 .495 1.475"/><path stroke="#9bace0" vector-effect="non-scaling-stroke" d="M108.04 86.64a.45.45 0 0 0-.36-.57l-4.39-.74a.45.45 0 0 0-.51.31l-4.42 15.22a.45.45 0 0 0 .39.57l4.42.4a.45.45 0 0 0 .47-.32l4.4-14.87M94.43 89.06a.45.45 0 0 0-.37-.57l-4.37-.61a.45.45 0 0 0-.5.32l-3.11 10.83a.45.45 0 0 0 .39.57l4.38.42a.45.45 0 0 0 .47-.33l3.11-10.63M94.88 90.73l-2.47 8.44a1.11 1.11 0 0 0 .76 1.38l1.46.43a2.71 1.46 16.3 0 0 3.01-.64l2.27-7.78a2.71 1.46 16.3 0 0-2.19-2.16l-1.46-.43a1.11 1.11 0 0 0-1.38.76M86.75 93.23a.63.63 0 0 0-.54-.79l-4.02-.45a.63.63 0 0 0-.67.46l-1.49 5.41a.63.63 0 0 0 .53.79l3.97.49a.63.63 0 0 0 .69-.45l1.53-5.46"/><path stroke="#bcc8f2" vector-effect="non-scaling-stroke" d="M114.967 95.538a2.42.21 13.1 0 0-2.31-.752 2.42.21 13.1 0 0-2.404-.344 2.42.21 13.1 0 0 2.31.753 2.42.21 13.1 0 0 2.404.344M177.2 104.76l9.67 1.59"/><path stroke="#d8e1ff" vector-effect="non-scaling-stroke" d="m186.87 106.35 1.01.34"/><path stroke="#bcc8f2" vector-effect="non-scaling-stroke" d="M187.88 106.69q1.36-1.43 1.56-3.63.05-.48-.43-.55l-13.09-1.86"/><path stroke="#d8e1ff" vector-effect="non-scaling-stroke" d="M175.92 100.65q-1.54-.74-2.57-.49a2.25 2.25 0 0 0-.64 4.11q1.43.87 4.49.49"/><path stroke="#94aaf2" vector-effect="non-scaling-stroke" d="m175.92 100.65 12.54 2.21q.59.1.41.67l-.99 3.16M186.87 106.35q-4.68-1.56-9.67-1.59"/><path stroke="#bcc8f2" vector-effect="non-scaling-stroke" d="M193.87 100.92q.53 2.17.27 4.06-.06.39.12.04 1.13-2.25-.01-4.25a.21.21 0 0 0-.38.15M95.677 104.393a6.95.26 8.3 0 0-6.84-1.26 6.95.26 8.3 0 0-6.914-.746 6.95.26 8.3 0 0 6.84 1.26 6.95.26 8.3 0 0 6.914.746M133.69 154.43q2.37.59 4.41.05"/><path stroke="#d8e1ff" vector-effect="non-scaling-stroke" d="M138.1 154.48q4.52-.73 6.55-5.14.21-.47.7-.59c16.08-4.16 18.13-30.28 4.84-38.42-13.86-8.48-34.87-8.36-46.93 4.23-5.59 5.84-7.77 16.71 2.33 19.37q.52.14.33.64c-3.89 10.14 9.81 11.8 16.16 12.6a1.52 1.51 86.6 0 1 1.28 1.14q1.02 4.19 2.52 8.68.05.17.11.32a1.49 1.49 0 0 0 2.84-.14l.83-3.17q.12-.47.58-.36l3.45.79"/><path stroke="#94aaf2" vector-effect="non-scaling-stroke" d="M138.1 154.48q-2.2-.54-4.41-.05"/><path stroke="#bcc8f2" vector-effect="non-scaling-stroke" d="m177.05 106.31-3.33-.58"/><path stroke="#d8e1ff" vector-effect="non-scaling-stroke" d="m173.72 105.73-3.85-.46q-.65-.08-.75.56l-.46 2.75a.73.73 0 0 0 .48.8q3.77 1.27 7.78 1.38.62.02.79-.58l.83-3.09a.66.65-77.6 0 0-.52-.82q-.55-.1-.97.04"/><path stroke="#94aaf2" vector-effect="non-scaling-stroke" d="M173.72 105.73q1.42 1.27 3.33.58"/><path stroke="#bcc8f2" vector-effect="non-scaling-stroke" d="M161.684 107.38a3.47.23 9.3 0 0-3.387-.787 3.47.23 9.3 0 0-3.461-.334 3.47.23 9.3 0 0 3.387.788 3.47.23 9.3 0 0 3.461.334"/><path stroke="#d8e1ff" vector-effect="non-scaling-stroke" d="M189.08 108c-2.86-.2-5.21-1-8.18-.7q-.48.05-.71.48-1.03 1.95-.34 3.87.16.43.59.32c2.69-.66 5.72 1.46 7.59.69a1.14 1.12 87.7 0 0 .63-.69l.98-3.16q.23-.75-.56-.81M171.57 112.28c-2.65-.36-3.04 2.63-3.11 4.56q-.03.66.63.71l3.58.27a.73.73 0 0 0 .76-.56l.84-3.65q.1-.43-.24-.73-.83-.73-1.88-.6a2.12 2.12 0 0 1-.58 0M181.55 118.47l.66-3.31q.07-.31.38-.31c1.25.03.22 2.89-.16 3.95a.53.52-77.8 0 0 .45.71l3.89.32a.89.88 9.2 0 0 .93-.67l.86-3.56a.69.68 19.5 0 0-.38-.78q-2.2-1-4.48-.3a1.23 1.23 0 0 1-.97-.12l-2.58-1.53a.03.02 31.7 0 0-.03 0q-.08.11-.19.24-.18.2-.43.14c-2.77-.6-2.76 2.79-3.04 4.42q-.09.52.4.71 1.9.73 4.19.53.41-.04.5-.44"/><path stroke="#9bace0" vector-effect="non-scaling-stroke" d="M62.47 149.46a.41.41 0 0 0 .03-.42l-14.14-28.66a2.56 2.55-23.3 0 0-3.19-1.26l-29.9 11.14a1.7 1.69 66.8 0 0-.93 2.34l13.89 28.16a2.41 2.41 0 0 0 2.99 1.19q13.91-5.11 27.82-10.29c1.51-.56 2.43-.71 3.43-2.2"/><path stroke="#bcc8f2" vector-effect="non-scaling-stroke" d="M188.71 122.19c-1.47-.15-4.09-.41-5.49-.06q-1.21.31.03.35 2.72.11 5.45-.1a.1.09-43.1 0 0 .01-.19M169.18 140.25c-2.39-.02-4.36-.92-6.68-.94q-1.11 0-.03.26 3.12.78 6.32 1a.55.55 0 0 1 .48.74q-.5 1.35-.84 2.78a.11.11 0 0 0 .21.08q.73-1.57 1.04-3.31.1-.6-.5-.61"/><path stroke="#d8e1ff" vector-effect="non-scaling-stroke" d="M82.05 145.23q-1.2.26-2.4 1.16-.46.35-.04.76l2.31 2.2"/><path stroke="#bcc8f2" vector-effect="non-scaling-stroke" d="M81.92 149.35q1.23 1.39 3.08 1.44"/><path stroke="#d8e1ff" vector-effect="non-scaling-stroke" d="M85 150.79q1.05.88 1.92.64"/><path stroke="#bcc8f2" vector-effect="non-scaling-stroke" d="m86.92 151.43 6.14-1.83"/><path stroke="#d8e1ff" vector-effect="non-scaling-stroke" d="M93.06 149.6q.4-.14.66-.44a.76.75-39.8 0 0 .08-.85q-.54-.99-1.53-1.57"/><path stroke="#bcc8f2" vector-effect="non-scaling-stroke" d="M92.27 146.74q-3.75-3.87-10.22-1.51"/><path stroke="#94aaf2" vector-effect="non-scaling-stroke" d="M92.27 146.74q-2.88-2-4.84-1.59"/><path stroke="#5775d3" vector-effect="non-scaling-stroke" d="M87.43 145.15q-.8.44-1.59.47"/><path stroke="#94aaf2" vector-effect="non-scaling-stroke" d="M85.84 145.62q-.19-1.03-3.79-.39"/><path stroke="#5775d3" vector-effect="non-scaling-stroke" d="m85.76 150.21-.72-.49"/><path stroke="#738ee0" vector-effect="non-scaling-stroke" d="M85.84 145.62q-2.66 1.78-.8 4.1"/><path stroke="#94aaf2" vector-effect="non-scaling-stroke" d="M85.04 149.72q-.94.64-3.12-.37M93.06 149.6q-3.37.25-6.14 1.83M85 150.79l.76-.58"/><path stroke="#738ee0" vector-effect="non-scaling-stroke" d="M85.76 150.21c3.07.16 4.84-3.26 1.67-5.06"/><path stroke="#bcc8f2" vector-effect="non-scaling-stroke" d="M114.25 146.59q-.58 2.39-1.14 4.8a.1.1 0 0 0 .19.06q.92-2.36 1.15-4.83a.1.1 0 0 0-.2-.03M167.19 148.38l-2.02 6.86a.09.09 0 0 0 .17.06q1.28-3.07 2.01-6.89a.08.08 0 0 0-.16-.03M109.669 151.15a2.84.21 8.5 0 0-2.778-.628 2.84.21 8.5 0 0-2.84-.212 2.84.21 8.5 0 0 2.778.628 2.84.21 8.5 0 0 2.84.212M168.64 156.29c-.67-.29-2.63-.49-3.35-.54q-1.14-.07-.08.34 1.62.64 3.39.48.57-.05.04-.28"/><path stroke="#d8e1ff" vector-effect="non-scaling-stroke" d="M151.13 161.02c-2.28 2.84-2.9 5.65 1.44 6.67q6.07 1.44 12.52 1.88"/><path stroke="#9bace0" vector-effect="non-scaling-stroke" d="M165.09 169.57q2.25 1.99 5.18 1.49.52-.09.78.37l1.72 3.06a.7.69 59.2 0 0 .97.25l.68-.42q.69-.43.26-1.12l-1.95-3.19a.77.76-41.2 0 1 .06-.88q2.28-2.88.35-6.08-.28-.48-.81-.66-2.8-.99-5.63.2"/><path stroke="#d8e1ff" vector-effect="non-scaling-stroke" d="M166.7 162.59q-.18-.04-.36-.07"/><path stroke="#bcc8f2" vector-effect="non-scaling-stroke" d="M166.34 162.52q-3.16-.85-10.84-2.02-3.01-.46-4.37.52"/><path stroke="#94aaf2" vector-effect="non-scaling-stroke" d="M166.34 162.52q-8.19-1.7-15.21-1.5"/><path stroke="#738ee0" vector-effect="non-scaling-stroke" d="M166.7 162.59q-2.47 3.28-1.61 6.98"/><path stroke="#bcc8f2" vector-effect="non-scaling-stroke" d="M166.14 176.15q-.67-.29-1.4-.12-.68.15-.01.32 1.39.36 2.81.28 1.22-.08.06-.35-.35-.08-.74-.03-.37.04-.72-.1"/><path stroke="#738ee0" vector-effect="non-scaling-stroke" d="M119.75 110.56a.77.77 0 0 0 .34.96q.82.46 1.57-.06a1.17 1.09 14 0 0-1.22-1.88q-.36.15-.69.98M124.69 114.91a.53.5-48.8 0 0-.45.04q-1.44.86-.96 1.57a1.36 1.36 0 0 0 2.49-.87q-.03-.31-1.08-.74M146.84 117.77q-1.1-1.34-2.22-.08a1.01 1.01 0 0 0 1.31 1.51l.78-.52a.62.62 0 0 0 .13-.91"/><path stroke="#94aaf2" vector-effect="non-scaling-stroke" d="M106.25 118.76q-1.85 1.03-4.44-.24a.08.08 0 0 0-.08.13c.77.53 5.03 2.17 4.52.11M106.25 118.76q1.01-1.66 4.23-.75a.19.19 0 0 0 .15-.35q-1.86-1.06-3.91-.11-.65-.3-.47 1.21"/><path stroke="#738ee0" vector-effect="non-scaling-stroke" d="M114.161 117.721a1.28 1.08-27.9 0 0-1.636-.356 1.28 1.08-27.9 0 0-.626 1.554 1.28 1.08-27.9 0 0 1.636.356 1.28 1.08-27.9 0 0 .626-1.554M131.487 120.336a1.26 1 132 0 0 1.586-.267 1.26 1 132 0 0 .1-1.605 1.26 1 132 0 0-1.586.267 1.26 1 132 0 0-.1 1.605"/><path stroke="#94aaf2" vector-effect="non-scaling-stroke" d="M152.46 119.169a2.51.23 10.3 0 0-2.429-.675 2.51.23 10.3 0 0-2.51-.223 2.51.23 10.3 0 0 2.428.675 2.51.23 10.3 0 0 2.51.223"/><path stroke="#738ee0" vector-effect="non-scaling-stroke" d="M140.67 124.56a.89.89 0 0 0-.92-1.08q-1.15.07-1.5 1.09a.98.98 0 0 0 1.32 1.21q.92-.4 1.1-1.22M149.597 127.384a1.23 1.04 116.2 0 0 1.476-.645 1.23 1.04 116.2 0 0-.39-1.563 1.23 1.04 116.2 0 0-1.476.645 1.23 1.04 116.2 0 0 .39 1.563"/><path stroke="#94aaf2" vector-effect="non-scaling-stroke" d="M133.57 128.46q-1.79-1.2-3.98-1.02a.12.12 0 0 0 0 .24q2.01.11 3.87.97a.11.11 0 0 0 .11-.19"/><path stroke="#738ee0" vector-effect="non-scaling-stroke" d="M125.409 131.524a1.3 1.13-14.5 0 0-1.542-.768 1.3 1.13-14.5 0 0-.976 1.42 1.3 1.13-14.5 0 0 1.542.768 1.3 1.13-14.5 0 0 .976-1.42"/><path stroke="#94aaf2" vector-effect="non-scaling-stroke" d="M121.69 131.36q-.59-.15-1.19-.12a.25.22 46.2 0 0 .02.47q.95.21 1.88-.12.31-.11.03-.28-.17-.12-.36 0a.47.47 0 0 1-.38.05"/><path stroke="#738ee0" vector-effect="non-scaling-stroke" d="M138.74 134.94q-.44.24-.64.67a1.05 1.05 0 0 0 1.76 1.12q.71-.85.01-1.71-.33-.42-.2-.94l.37-1.41q.19-.75-.19-.08-.43.75-.59 1.63-.09.48-.52.72"/><path stroke="#94aaf2" vector-effect="non-scaling-stroke" d="M111.25 140.45v.46q0 .34.28.53 1.96 1.3 4.31 1.32a.16.15 49.1 0 0 .02-.31q-1.98-.29-3.82-1.13a.93.92 12.5 0 1-.54-.84q0-.36-.01-.75a.5.5 0 0 0-.5-.48h-.48a.17.17 0 0 0-.09.32l.5.3q.33.19.33.58"/><path stroke="#738ee0" vector-effect="non-scaling-stroke" d="M118.348 141.998a1.28 1.08-29.1 0 0-1.643-.322 1.28 1.08-29.1 0 0-.593 1.567 1.28 1.08-29.1 0 0 1.643.32 1.28 1.08-29.1 0 0 .593-1.565"/><path stroke="#94aaf2" vector-effect="non-scaling-stroke" d="M142.71 143.36q3.18.74 6.47.54a.1.1 0 0 0 .01-.19q-2.93-.55-5.95-.46"/><path stroke="#738ee0" vector-effect="non-scaling-stroke" d="M143.24 143.25q-.61-1.36-1.33-1.46a1.31 1.3 70.9 0 0-1.08 2.23q.88.86 1.88-.66"/><path stroke="#5775d3" vector-effect="non-scaling-stroke" d="M143.24 143.25q-.31-.03-.53.11"/><path stroke="#94aaf2" vector-effect="non-scaling-stroke" d="M136.362 148.768a2.53.25 4.5 0 0-2.502-.447 2.53.25 4.5 0 0-2.542.05 2.53.25 4.5 0 0 2.502.448 2.53.25 4.5 0 0 2.542-.05"/><path stroke="#9bace0" vector-effect="non-scaling-stroke" d="M44.047 128.831a.69.69 0 0 0-.926-.31l-.734.366a.69.69 0 0 0-.31.926l7.916 15.876a.69.69 0 0 0 .926.31l.734-.366a.69.69 0 0 0 .31-.926l-7.916-15.876M40.66 144.06l4.11 3.74q.43.4.96.17l.7-.3a.65.64-35.6 0 0 .18-1.07l-14.4-13.05a1.78 1.78 0 0 0-2.97 1.44l1.28 18.03q.05.58.58.34l1.2-.52q.42-.19.38-.64l-.37-4.97a.83.82-12.6 0 1 .54-.84l6.84-2.52q.54-.2.97.19"/><path stroke="#9bace0" vector-effect="non-scaling-stroke" d="M32.16 144.45a.31.31 0 0 0 .42.25l5.68-2.21a.31.31 0 0 0 .1-.51l-6.7-6.7a.31.31 0 0 0-.53.25l1.03 8.92M167.171 168.92a3.33 2.86 133.9 0 0 4.37-.417 3.33 2.86 133.9 0 0 .248-4.382 3.33 2.86 133.9 0 0-4.37.416 3.33 2.86 133.9 0 0-.248 4.382"/></g><path fill="#fff" d="M87.53 29.92q-3.1 6.23 1.15 6.44l3.58-1.09q1.06.71 1.51 3.1.08.44-.32.63l-3.75 1.87q-1.6 4.38.99 4.4l1.92 1.23-2.14 3.49q-.88.44-2.47.24.05-.17-.8-.36-1.96-.65-4.24 1.93a1.01 1.01 0 0 0-.23.85l.6 3.18q-2.7 1.54-5.02 1.74l-.54-.84q-.11-1.19-.83-2.07-.25-.32-.66-.31l-2.89.09q-.39.01-.63.32-1.2 1.58-2.63 2.99a1.66 1.52 11.4 0 1-.65.39q-.54.17-.33.56-1.01-1.85-3.22-1.67l1.42-3.75.19-.18a.48.47-35.5 0 0 .1-.57q-1.78-3.51-5.05-1.2-1.47.29-2.29-.59l-.56-2.34q-.13-.53.34-.8c1.3-.75 4.5-1.64 4.16-3.42q-.05-.66.12-.96a1.24 1.24 0 0 0-.76-1.83q-2.3-.61-2.15-1.93 1.2-4.2 5.42-2.55a1.3 1.3 0 0 0 .96 0q3.93-1.55 2.37-5.58-.21-.52.32-.73l3.93-1.53a.75.75 0 0 1 .95.38l1.23 2.58a.8.8 0 0 0 .82.45l2.61-.31a1.43 1.41 15.5 0 0 .94-.52l2.09-2.66a.89.87-61 0 1 .97-.29l3.47 1.22zM68.69 48.8q9.49 6.37 16.41-3.72.8-1.18.79-4.14c-2.02-7.13-9.2-6.55-14.17-3.22q-5.91 3.97-3.03 11.08z"/><path fill="#3658c1" d="M87.53 29.92q1.98 2.1.22 5.08-.53.9.93 1.36-4.25-.21-1.15-6.44zM85.89 40.94q-3.02-3.98-7.39-3.19-9.15 1.65-9.81 11.05-2.88-7.11 3.03-11.08c4.97-3.33 12.15-3.91 14.17 3.22zM94.83 39.58q-.76 1.03-.3 2.1l-3.44 1.3q-1.63-.39-1.39-2.11L93.45 39q.4-.19.32-.63-.45-2.39-1.51-3.1 1.98.09 2.57 4.31z"/><path fill="#263a74" d="M61.45 39.46q-.15 1.32 2.15 1.93a1.24 1.24 0 0 1 .76 1.83q-.17.3-.12.96c-.97-.82-4.44-3.07-2.79-4.72z"/><path fill="#151e2e" d="M94.83 39.58q.9 1.42-.3 2.1-.46-1.07.3-2.1zM89.7 40.87q-.24 1.72 1.39 2.11-.99.78-.4 2.29-2.59-.02-.99-4.4z"/><path fill="#263a74" d="M92.61 46.5q.59.02.65 1.16-1.55.48-2.34 3.01-.15-.69-.45-.68l2.14-3.49z"/><path fill="#3658c1" d="M93.26 47.66q1.12 1.22-.52 3.08-1.67.3-1.82-.07.79-2.53 2.34-3.01z"/><path fill="#b0c3ff" d="m60.46 64.25-2.3-.02q-.42 0-.71.3l-2.61 2.69q-.29.29.04.53l.35.25q-.08.74.2 1.02-1.38 1.25-2.93 1.25-.58 0-.77-.55-.23-.67-.76-1.13-.42-.35-.95-.48l-4.24-1.05q-.52-.13-.92.23l-.75.67a.53.52-46.3 0 1-.69.02l-2.1-1.75a.7.69-51.9 0 1-.11-.96l.41-.55a.94.92 51.8 0 0 .1-.93l-1.75-3.88a1.06 1.04 81.6 0 0-.81-.61l-.77-.1q-.44-.06-.58-.47-.54-1.58.16-3.39 2.79 1.12 3.72-1.63 1.27-.49 1.7-1.28.24-.44-.05-.86-.63-.86-.39-1.72 3.24-1.16 4.14.76.24.51.78.67l4.33 1.25q.46.13.82-.2l.77-.71q.41-.37.87-.07 1.28.82 2.43 1.85a.58.57 36.5 0 1 .11.73l-.63 1.04q-.22.35-.05.74l1.86 4.08q.15.34.53.42l1.29.27a.72.71 8.9 0 1 .57.77l-.31 2.8zm-15.58-5.44c.12 3.32 4.43 6.54 7.2 3.97q1.19-.92 1.32-1.97-1.08-5.91-7.15-4.26-.52.14-.72.65l-.65 1.61z"/><path fill="#151e2e" d="M87.2 49.87q-.83 1.6-.22 1.87.11.25-.46.3l-.06-1.48a.47.46-13.7 0 0-.66-.4q-1.46.69-2.31 2.11-.26.44.02.87.25.36.74.63c-.3 1.41 1.12 4.9-.83 4.96q.55-2.02-.09-2.9l-.6-3.18a1.01 1.01 0 0 1 .23-.85q2.28-2.58 4.24-1.93z"/><path fill="#3658c1" d="M42.95 49.85q-.24.86.39 1.72.29.42.05.86-.43.79-1.7 1.28-.4-2.26 1.26-3.86zM86.52 52.04q-.85 1.05-2.27 1.73-.49-.27-.74-.63-.28-.43-.02-.87.85-1.42 2.31-2.11a.47.46-13.7 0 1 .66.4l.06 1.48z"/><path fill="#3658c1" d="M87.2 49.87q.85.19.8.36.17 1.03 1.55.77a.62.62 0 0 1 .6 1q-.26.32-.9.3l-2.27-.56q-.61-.27.22-1.87z"/><path fill="#151e2e" d="M90.47 49.99q.3-.01.45.68.15.37 1.82.07-1.2 2.89-3.49 1.56.64.02.9-.3a.62.62 0 0 0-.6-1q-1.38.26-1.55-.77 1.59.2 2.47-.24z"/><path fill="#3658c1" d="M67.35 53.28c-.76-.8-4.49.47-5.87.39q.3-1.34 1.11-2.34 3.27-2.31 5.05 1.2a.48.47-35.5 0 1-.1.57l-.19.18z"/><path fill="#151e2e" d="M60.3 50.74q.82.88 2.29.59-.81 1-1.11 2.34-1.07-1.68-1.18-2.93zM77.77 56.73q-.87-.46-.78-.1c.31-2.28-1.9-1.52-3.19-1.69a.95.95 0 0 0-.91.43q-1.98 3.08-3.74 3.33-.21-.39.33-.56a1.66 1.52 11.4 0 0 .65-.39q1.43-1.41 2.63-2.99.24-.31.63-.32l2.89-.09q.41-.01.66.31.72.88.83 2.07z"/><path fill="#3658c1" d="M76.99 56.63q-3.07-.28-4.21 1.87l-3.06 1.49q-2.85-.25-3.79-2.96 2.21-.18 3.22 1.67 1.76-.25 3.74-3.33a.95.95 0 0 1 .91-.43c1.29.17 3.5-.59 3.19 1.69z"/><path fill="#263a74" d="M37.97 55.34q-.7 1.81-.16 3.39.14.41.58.47l.77.1a1.06 1.04 81.6 0 1 .81.61l1.75 3.88a.94.92 51.8 0 1-.1.93l-.41.55a.7.69-51.9 0 0 .11.96l2.1 1.75a.53.52-46.3 0 0 .69-.02l.75-.67q.4-.36.92-.23l4.24 1.05q.53.13.95.48.53.46.76 1.13.19.55.77.55 1.55 0 2.93-1.25c-.34 2.11-4.6 5.46-5.38 2.23q1.04.12 1.18-1.18a.73.71-84.1 0 0-.64-.8q-1.11-.11-1.13 1.22l-1.24-.42q1.12-.04 1.3-.96a.65.65 0 0 0-.36-.73q-2.18-1.01-4.35-.19a.47.47 0 0 0-.24.68q.12.19.41.29-1.04.21-1.98 1-.42.35-.85.02l-2.34-1.75q-.44-.34-.2-.84.67-1.34.2-2.54 1.34.08 1.19-.54-1.56-6.56-4.62-3.91-.74-3.12 1.59-5.26z"/><path fill="#3658c1" d="M83.33 55.83q.64.88.09 2.9l-3.12 1.13q-.49.18-.89-.16-.89-.75-1.1-2.13 2.32-.2 5.02-1.74z"/><path fill="#151e2e" d="M53.4 60.81q-1.83-4.78-6.84-3.71-.54.11-.53.66v.52q-.27.35-1.15.53l.65-1.61q.2-.51.72-.65 6.07-1.65 7.15 4.26z"/><path fill="#3658c1" d="M53.4 60.81q-.13 1.05-1.32 1.97-.61-5.1-6.05-4.5v-.52q-.01-.55.53-.66 5.01-1.07 6.84 3.71z"/><path fill="#151e2e" d="M72.78 58.5q-1.71 2.9-3.06 1.49l3.06-1.49z"/><path fill="#3658c1" d="M39.81 65.05q-.38-3.44-3.43-4.45 3.06-2.65 4.62 3.91.15.62-1.19.54z"/><path fill="#b0c3ff" d="M213.63 84.76q2.54 3.8 1.62 6.99-12.55 43.35-25.02 86.75c-1.86 7.16-3.34 14.27-11.7 14.76-1.98.12-4.67-.71-7.03-.75L45.9 173.15q-4.91-5.08-2.62-10.27l5.69-2.45c-3.04 10 6.39 9.42 12.53 10.34q40.29 6.02 80.48 12.21 3.82 1.42 8.13 1.26l18.76 2.88q2.9 1.14 6.02.9c8.83 1.55 9.92-8.35 11.63-14.26q11.3-38.94 22.56-77.88c2.52-8.73-2.6-8.38-8.79-9.79l-65.06-9.76-6.87-1.24-20.38-3-17.65-2.65q-1.6-.99-3.62-.52c-7.5-.15-10.64-1.64-13.16 7.14q-6.63 23.14-13.3 46.16l-2.63 7.95a.75.75 0 0 1-1.3.24q-1.58-1.96-2.21-4.67Q61.7 98.9 69.68 72.23c2.03-6.8 5.78-9.9 12.82-8.86q98.47 14.5 128.01 19.33 1.24.21 3.12 2.06zM58.535 118.715a1.24.94 108.6 0 0 1.286-.875 1.24.94 108.6 0 0-.495-1.475 1.24.94 108.6 0 0-1.287.875 1.24.94 108.6 0 0 .495 1.475z"/><path fill="#151e2e" d="M60.46 64.25q.04.69-.93 1.25-2.35-1.32-2.4.69-1.31.45-1.9 1.81l-.35-.25q-.33-.24-.04-.53l2.61-2.69q.29-.3.71-.3l2.3.02z"/><path fill="#3658c1" d="M59.53 65.5q.08 1.09-2.4.69.05-2.01 2.4-.69zM48.22 70.07l-3.24-.91q-.29-.1-.41-.29a.47.47 0 0 1 .24-.68q2.17-.82 4.35.19a.65.65 0 0 1 .36.73q-.18.92-1.3.96z"/><path fill="#fff" d="m86.71 68.92 3.62.52 17.65 2.65 20.38 3 6.87 1.24 65.06 9.76c6.19 1.41 11.31 1.06 8.79 9.79q-11.26 38.94-22.56 77.88c-1.71 5.91-2.8 15.81-11.63 14.26l-6.02-.9-18.76-2.88-8.13-1.26q-40.19-6.19-80.48-12.21c-6.14-.92-15.57-.34-12.53-10.34q5.79-2.23 12.06-4.63c2.28-.87 3.1-2.55 3.47-4.77q.11-.68-.23-.07c-1.67 2.98-15.56 7.06-19.18 8.32l-11.33 4.04q-5.17 2.67-7.47-1.61-4.17-7.72-14.88-30.69 1.36-2.31 3.15-2.97 15.22-5.64 30.44-11.33c4.13-1.54 6.93 5.15 8.51 9.05q3.29 7.39 7.14 14.51a.09.09 0 0 0 .17-.08q-1.42-3.44-3.3-6.84a1.29 1.29 0 0 1-.12-.95l2.85-10.19q6.67-23.02 13.3-46.16c2.52-8.78 5.66-7.29 13.16-7.14zm21.33 17.72a.45.45 0 0 0-.36-.57l-4.39-.74a.45.45 0 0 0-.51.31l-4.42 15.22a.45.45 0 0 0 .39.57l4.42.4a.45.45 0 0 0 .47-.32l4.4-14.87zm-13.61 2.42a.45.45 0 0 0-.37-.57l-4.37-.61a.45.45 0 0 0-.5.32l-3.11 10.83a.45.45 0 0 0 .39.57l4.38.42a.45.45 0 0 0 .47-.33l3.11-10.63zm.45 1.67-2.47 8.44a1.11 1.11 0 0 0 .76 1.38l1.46.43a2.71 1.46 16.3 0 0 3.01-.64l2.27-7.78a2.71 1.46 16.3 0 0-2.19-2.16l-1.46-.43a1.11 1.11 0 0 0-1.38.76zm-8.13 2.5a.63.63 0 0 0-.54-.79l-4.02-.45a.63.63 0 0 0-.67.46l-1.49 5.41a.63.63 0 0 0 .53.79l3.97.49a.63.63 0 0 0 .69-.45l1.53-5.46zm28.217 2.308a2.42.21 13.1 0 0-2.31-.752 2.42.21 13.1 0 0-2.404-.344 2.42.21 13.1 0 0 2.31.753 2.42.21 13.1 0 0 2.404.344zm62.233 9.222 9.67 1.59 1.01.34q1.36-1.43 1.56-3.63.05-.48-.43-.55l-13.09-1.86q-1.54-.74-2.57-.49a2.25 2.25 0 0 0-.64 4.11q1.43.87 4.49.49zm16.67-3.84q.53 2.17.27 4.06-.06.39.12.04 1.13-2.25-.01-4.25a.21.21 0 0 0-.38.15zm-98.193 3.473a6.95.26 8.3 0 0-6.84-1.26 6.95.26 8.3 0 0-6.914-.746 6.95.26 8.3 0 0 6.84 1.26 6.95.26 8.3 0 0 6.914.746zm38.013 50.037q2.37.59 4.41.05 4.52-.73 6.55-5.14.21-.47.7-.59c16.08-4.16 18.13-30.28 4.84-38.42-13.86-8.48-34.87-8.36-46.93 4.23-5.59 5.84-7.77 16.71 2.33 19.37q.52.14.33.64c-3.89 10.14 9.81 11.8 16.16 12.6a1.52 1.51 86.6 0 1 1.28 1.14q1.02 4.19 2.52 8.68.05.17.11.32a1.49 1.49 0 0 0 2.84-.14l.83-3.17q.12-.47.58-.36l3.45.79zm43.36-48.12-3.33-.58-3.85-.46q-.65-.08-.75.56l-.46 2.75a.73.73 0 0 0 .48.8q3.77 1.27 7.78 1.38.62.02.79-.58l.83-3.09a.66.65-77.6 0 0-.52-.82q-.55-.1-.97.04zm-15.366 1.07a3.47.23 9.3 0 0-3.387-.787 3.47.23 9.3 0 0-3.461-.334 3.47.23 9.3 0 0 3.387.788 3.47.23 9.3 0 0 3.461.334zm27.396.62c-2.86-.2-5.21-1-8.18-.7q-.48.05-.71.48-1.03 1.95-.34 3.87.16.43.59.32c2.69-.66 5.72 1.46 7.59.69a1.14 1.12 87.7 0 0 .63-.69l.98-3.16q.23-.75-.56-.81zm-17.51 4.28c-2.65-.36-3.04 2.63-3.11 4.56q-.03.66.63.71l3.58.27a.73.73 0 0 0 .76-.56l.84-3.65q.1-.43-.24-.73-.83-.73-1.88-.6a2.12 2.12 0 0 1-.58 0zm9.98 6.19.66-3.31q.07-.31.38-.31c1.25.03.22 2.89-.16 3.95a.53.52-77.8 0 0 .45.71l3.89.32a.89.88 9.2 0 0 .93-.67l.86-3.56a.69.68 19.5 0 0-.38-.78q-2.2-1-4.48-.3a1.23 1.23 0 0 1-.97-.12l-2.58-1.53a.03.02 31.7 0 0-.03 0q-.08.11-.19.24-.18.2-.43.14c-2.77-.6-2.76 2.79-3.04 4.42q-.09.52.4.71 1.9.73 4.19.53.41-.04.5-.44zM62.47 149.46a.41.41 0 0 0 .03-.42l-14.14-28.66a2.56 2.55-23.3 0 0-3.19-1.26l-29.9 11.14a1.7 1.69 66.8 0 0-.93 2.34l13.89 28.16a2.41 2.41 0 0 0 2.99 1.19q13.91-5.11 27.82-10.29c1.51-.56 2.43-.71 3.43-2.2zm126.24-27.27c-1.47-.15-4.09-.41-5.49-.06q-1.21.31.03.35 2.72.11 5.45-.1a.1.09-43.1 0 0 .01-.19zm-19.53 18.06c-2.39-.02-4.36-.92-6.68-.94q-1.11 0-.03.26 3.12.78 6.32 1a.55.55 0 0 1 .48.74q-.5 1.35-.84 2.78a.11.11 0 0 0 .21.08q.73-1.57 1.04-3.31.1-.6-.5-.61zm-87.13 4.98q-1.2.26-2.4 1.16-.46.35-.04.76l2.31 2.2q1.23 1.39 3.08 1.44 1.05.88 1.92.64l6.14-1.83q.4-.14.66-.44a.76.75-39.8 0 0 .08-.85q-.54-.99-1.53-1.57-3.75-3.87-10.22-1.51zm32.2 1.36q-.58 2.39-1.14 4.8a.1.1 0 0 0 .19.06q.92-2.36 1.15-4.83a.1.1 0 0 0-.2-.03zm52.94 1.79-2.02 6.86a.09.09 0 0 0 .17.06q1.28-3.07 2.01-6.89a.08.08 0 0 0-.16-.03zm-57.521 2.77a2.84.21 8.5 0 0-2.778-.628 2.84.21 8.5 0 0-2.84-.212 2.84.21 8.5 0 0 2.778.628 2.84.21 8.5 0 0 2.84.212zm58.971 5.14c-.67-.29-2.63-.49-3.35-.54q-1.14-.07-.08.34 1.62.64 3.39.48.57-.05.04-.28zm-17.51 4.73c-2.28 2.84-2.9 5.65 1.44 6.67q6.07 1.44 12.52 1.88 2.25 1.99 5.18 1.49.52-.09.78.37l1.72 3.06a.7.69 59.2 0 0 .97.25l.68-.42q.69-.43.26-1.12l-1.95-3.19a.77.76-41.2 0 1 .06-.88q2.28-2.88.35-6.08-.28-.48-.81-.66-2.8-.99-5.63.2-.18-.04-.36-.07-3.16-.85-10.84-2.02-3.01-.46-4.37.52zm15.01 15.13q-.67-.29-1.4-.12-.68.15-.01.32 1.39.36 2.81.28 1.22-.08.06-.35-.35-.08-.74-.03-.37.04-.72-.1z"/><path fill="#7891e4" d="m90.33 69.44-3.62-.52q2.02-.47 3.62.52z"/><path fill="#3658c1" d="m50.05 71.25-.59-.76q.02-1.33 1.13-1.22a.73.71-84.1 0 1 .64.8q-.14 1.3-1.18 1.18z"/><path fill="#7891e4" d="m128.36 75.09-20.38-3 20.38 3zM135.23 76.33l65.06 9.76-65.06-9.76z"/><path fill="#263a74" d="M213.63 84.76q1.64.76 2.83 2.49l-8.98 33.15q-5.3 18.54-10.67 37.12-1.76 6.07-2.8 12.3a.35.35 0 0 0 .63.26q1.84-2.68 2.38-5.95c.28-1.7 1.08-2.85 1.73-4.38l.08.83-2.93 9.56q-.15.48.01.95c.72 2.2 4.83 15.91 6.38 16.23q-.3.69-.99.8l-5.49-15.93q-.29-.83-.55 0l-2.39 7.84q-.56-2.78-2.64-1.53 12.47-43.4 25.02-86.75.92-3.19-1.62-6.99z"/><path fill="#3658c1" d="m108.04 86.64-4.4 14.87a.45.45 0 0 1-.47.32l-4.42-.4a.45.45 0 0 1-.39-.57l4.42-15.22a.45.45 0 0 1 .51-.31l4.39.74a.45.45 0 0 1 .36.57z"/><path fill="#7891e4" d="M216.46 87.25q2.34 3.31.85 8.56-3.54 12.53-7.22 25.01-1.05-.65-2.61-.42l8.98-33.15z"/><path fill="#3658c1" d="m94.43 89.06-3.11 10.63a.45.45 0 0 1-.47.33l-4.38-.42a.45.45 0 0 1-.39-.57l3.11-10.83a.45.45 0 0 1 .5-.32l4.37.61a.45.45 0 0 1 .37.57zM94.88 90.73a1.11 1.11 0 0 1 1.38-.76l1.46.43a2.71 1.46 16.3 0 1 2.19 2.16l-2.27 7.78a2.71 1.46 16.3 0 1-3.01.64l-1.46-.43a1.11 1.11 0 0 1-.76-1.38l2.47-8.44zM86.75 93.23l-1.53 5.46a.63.63 0 0 1-.69.45l-3.97-.49a.63.63 0 0 1-.53-.79l1.49-5.41a.63.63 0 0 1 .67-.46l4.02.45a.63.63 0 0 1 .54.79z"/><ellipse fill="#7891e4" transform="rotate(13.1 -357.344 537.873)" rx="2.42" ry=".21"/><path fill="#b0c3ff" d="m175.92 100.65 12.54 2.21q.59.1.41.67l-.99 3.16-1.01-.34q-4.68-1.56-9.67-1.59-3.06.38-4.49-.49a2.25 2.25 0 0 1 .64-4.11q1.03-.25 2.57.49z"/><path fill="#7891e4" d="m175.92 100.65 13.09 1.86q.48.07.43.55-.2 2.2-1.56 3.63l.99-3.16q.18-.57-.41-.67l-12.54-2.21zM194.25 100.77q1.14 2 .01 4.25-.18.35-.12-.04.26-1.89-.27-4.06a.21.21 0 0 1 .38-.15z"/><ellipse fill="#7891e4" transform="rotate(8.3 -668.064 663.618)" rx="6.95" ry=".26"/><path fill="#b0c3ff" d="M138.1 154.48q-2.2-.54-4.41-.05l-3.45-.79q-.46-.11-.58.36l-.83 3.17a1.49 1.49 0 0 1-2.84.14q-.06-.15-.11-.32-1.5-4.49-2.52-8.68a1.52 1.51 86.6 0 0-1.28-1.14c-6.35-.8-20.05-2.46-16.16-12.6q.19-.5-.33-.64c-10.1-2.66-7.92-13.53-2.33-19.37 12.06-12.59 33.07-12.71 46.93-4.23 13.29 8.14 11.24 34.26-4.84 38.42q-.49.12-.7.59-2.03 4.41-6.55 5.14zm-18.35-43.92a.77.77 0 0 0 .34.96q.82.46 1.57-.06a1.17 1.09 14 0 0-1.22-1.88q-.36.15-.69.98zm4.94 4.35a.53.5-48.8 0 0-.45.04q-1.44.86-.96 1.57a1.36 1.36 0 0 0 2.49-.87q-.03-.31-1.08-.74zm22.15 2.86q-1.1-1.34-2.22-.08a1.01 1.01 0 0 0 1.31 1.51l.78-.52a.62.62 0 0 0 .13-.91zm-40.59.99q-1.85 1.03-4.44-.24a.08.08 0 0 0-.08.13c.77.53 5.03 2.17 4.52.11q1.01-1.66 4.23-.75a.19.19 0 0 0 .15-.35q-1.86-1.06-3.91-.11-.65-.3-.47 1.21zm7.911-1.039a1.28 1.08-27.9 0 0-1.636-.356 1.28 1.08-27.9 0 0-.626 1.554 1.28 1.08-27.9 0 0 1.636.356 1.28 1.08-27.9 0 0 .626-1.554zm17.326 2.615a1.26 1 132 0 0 1.586-.267 1.26 1 132 0 0 .1-1.605 1.26 1 132 0 0-1.586.267 1.26 1 132 0 0-.1 1.605zm20.973-1.167a2.51.23 10.3 0 0-2.429-.675 2.51.23 10.3 0 0-2.51-.223 2.51.23 10.3 0 0 2.428.675 2.51.23 10.3 0 0 2.51.223zm-11.79 5.391a.89.89 0 0 0-.92-1.08q-1.15.07-1.5 1.09a.98.98 0 0 0 1.32 1.21q.92-.4 1.1-1.22zm8.927 2.824a1.23 1.04 116.2 0 0 1.476-.645 1.23 1.04 116.2 0 0-.39-1.563 1.23 1.04 116.2 0 0-1.476.645 1.23 1.04 116.2 0 0 .39 1.563zm-16.027 1.076q-1.79-1.2-3.98-1.02a.12.12 0 0 0 0 .24q2.01.11 3.87.97a.11.11 0 0 0 .11-.19zm-8.161 3.064a1.3 1.13-14.5 0 0-1.542-.768 1.3 1.13-14.5 0 0-.976 1.42 1.3 1.13-14.5 0 0 1.542.768 1.3 1.13-14.5 0 0 .976-1.42zm-3.719-.164q-.59-.15-1.19-.12a.25.22 46.2 0 0 .02.47q.95.21 1.88-.12.31-.11.03-.28-.17-.12-.36 0a.47.47 0 0 1-.38.05zm17.05 3.58q-.44.24-.64.67a1.05 1.05 0 0 0 1.76 1.12q.71-.85.01-1.71-.33-.42-.2-.94l.37-1.41q.19-.75-.19-.08-.43.75-.59 1.63-.09.48-.52.72zm-27.49 5.51v.46q0 .34.28.53 1.96 1.3 4.31 1.32a.16.15 49.1 0 0 .02-.31q-1.98-.29-3.82-1.13a.93.92 12.5 0 1-.54-.84q0-.36-.01-.75a.5.5 0 0 0-.5-.48h-.48a.17.17 0 0 0-.09.32l.5.3q.33.19.33.58zm7.098 1.548a1.28 1.08-29.1 0 0-1.643-.322 1.28 1.08-29.1 0 0-.593 1.567 1.28 1.08-29.1 0 0 1.643.32 1.28 1.08-29.1 0 0 .593-1.565zm24.362 1.362q3.18.74 6.47.54a.1.1 0 0 0 .01-.19q-2.93-.55-5.95-.46-.61-1.36-1.33-1.46a1.31 1.3 70.9 0 0-1.08 2.23q.88.86 1.88-.66zm-6.348 5.408a2.53.25 4.5 0 0-2.502-.447 2.53.25 4.5 0 0-2.542.05 2.53.25 4.5 0 0 2.502.448 2.53.25 4.5 0 0 2.542-.05z"/><path fill="#7891e4" d="M177.2 104.76q4.99.03 9.67 1.59l-9.67-1.59z"/><path fill="#b0c3ff" d="M173.72 105.73q1.42 1.27 3.33.58.42-.14.97-.04a.66.65-77.6 0 1 .52.82l-.83 3.09q-.17.6-.79.58-4.01-.11-7.78-1.38a.73.73 0 0 1-.48-.8l.46-2.75q.1-.64.75-.56l3.85.46z"/><path fill="#7891e4" d="m173.72 105.73 3.33.58q-1.91.69-3.33-.58z"/><ellipse fill="#7891e4" transform="rotate(9.3 -577.525 1026.282)" rx="3.47" ry=".23"/><path fill="#b0c3ff" d="M180.9 107.3c2.97-.3 5.32.5 8.18.7q.79.06.56.81l-.98 3.16a1.14 1.12 87.7 0 1-.63.69c-1.87.77-4.9-1.35-7.59-.69q-.43.11-.59-.32-.69-1.92.34-3.87.23-.43.71-.48z"/><path fill="#3658c1" d="M119.75 110.56q.33-.83.69-.98a1.17 1.09 14 0 1 1.22 1.88q-.75.52-1.57.06a.77.77 0 0 1-.34-.96z"/><path fill="#b0c3ff" d="M172.15 112.28q1.05-.13 1.88.6.34.3.24.73l-.84 3.65a.73.73 0 0 1-.76.56l-3.58-.27q-.66-.05-.63-.71c.07-1.93.46-4.92 3.11-4.56a2.12 2.12 0 0 0 .58 0zM181.05 118.91q-2.29.2-4.19-.53-.49-.19-.4-.71c.28-1.63.27-5.02 3.04-4.42q.25.06.43-.14.11-.13.19-.24a.03.02 31.7 0 1 .03 0l2.58 1.53a1.23 1.23 0 0 0 .97.12q2.28-.7 4.48.3a.69.68 19.5 0 1 .38.78l-.86 3.56a.89.88 9.2 0 1-.93.67l-3.89-.32a.53.52-77.8 0 1-.45-.71c.38-1.06 1.41-3.92.16-3.95q-.31 0-.38.31l-.66 3.31q-.09.4-.5.44z"/><path fill="#3658c1" d="M124.69 114.91q1.05.43 1.08.74a1.36 1.36 0 0 1-2.49.87q-.48-.71.96-1.57a.53.5-48.8 0 1 .45-.04z"/><ellipse fill="#030403" transform="rotate(108.6 -12.766 79.943)" rx="1.24" ry=".94"/><path fill="#3658c1" d="M146.84 117.77a.62.62 0 0 1-.13.91l-.78.52a1.01 1.01 0 0 1-1.31-1.51q1.12-1.26 2.22.08z"/><path fill="#7891e4" d="M106.25 118.76q-.18-1.51.47-1.21 2.05-.95 3.91.11a.19.19 0 0 1-.15.35q-3.22-.91-4.23.75z"/><ellipse fill="#3658c1" transform="rotate(-27.9 294.678 -168.355)" rx="1.28" ry="1.08"/><ellipse fill="#3658c1" transform="rotate(132 39.585 89.159)" rx="1.26" ry="1"/><ellipse fill="#7891e4" transform="rotate(10.3 -583.629 891.46)" rx="2.51" ry=".23"/><path fill="#7891e4" d="M106.25 118.76c.51 2.06-3.75.42-4.52-.11a.08.08 0 0 1 .08-.13q2.59 1.27 4.44.24z"/><path fill="#3658c1" d="M62.47 149.46c-1 1.49-1.92 1.64-3.43 2.2q-13.91 5.18-27.82 10.29a2.41 2.41 0 0 1-2.99-1.19L14.34 132.6a1.7 1.69 66.8 0 1 .93-2.34l29.9-11.14a2.56 2.55-23.3 0 1 3.19 1.26l14.14 28.66a.41.41 0 0 1-.03.42zm-18.423-20.629a.69.69 0 0 0-.926-.31l-.734.366a.69.69 0 0 0-.31.926l7.916 15.876a.69.69 0 0 0 .926.31l.734-.366a.69.69 0 0 0 .31-.926l-7.916-15.876zM40.66 144.06l4.11 3.74q.43.4.96.17l.7-.3a.65.64-35.6 0 0 .18-1.07l-14.4-13.05a1.78 1.78 0 0 0-2.97 1.44l1.28 18.03q.05.58.58.34l1.2-.52q.42-.19.38-.64l-.37-4.97a.83.82-12.6 0 1 .54-.84l6.84-2.52q.54-.2.97.19zM210.09 120.82l-11.34 38.93c-.65 1.53-1.45 2.68-1.73 4.38q-.54 3.27-2.38 5.95a.35.35 0 0 1-.63-.26q1.04-6.23 2.8-12.3 5.37-18.58 10.67-37.12 1.56-.23 2.61.42z"/><path fill="#7891e4" d="M183.22 122.13c1.4-.35 4.02-.09 5.49.06a.1.09-43.1 0 1-.01.19q-2.73.21-5.45.1-1.24-.04-.03-.35zM60.25 122.22l-2.85 10.19a1.29 1.29 0 0 0 .12.95q1.88 3.4 3.3 6.84a.09.09 0 0 1-.17.08q-3.85-7.12-7.14-14.51l.6-.03q.63 2.71 2.21 4.67a.75.75 0 0 0 1.3-.24l2.63-7.95z"/><path fill="#3658c1" d="M140.67 124.56q-.18.82-1.1 1.22a.98.98 0 0 1-1.32-1.21q.35-1.02 1.5-1.09a.89.89 0 0 1 .92 1.08z"/><ellipse fill="#3658c1" transform="rotate(116.2 35.769 109.867)" rx="1.23" ry="1.04"/><path fill="#7891e4" d="M133.57 128.46a.11.11 0 0 1-.11.19q-1.86-.86-3.87-.97a.12.12 0 0 1 0-.24q2.19-.18 3.98 1.02z"/><rect fill="#fff" x="-1.1" y="-9.56" transform="rotate(-26.5 314.971 -31.213)" width="2.2" height="19.12" rx=".69"/><path fill="#3658c1" d="M11.41 131.02q10.71 22.97 14.88 30.69 2.3 4.28 7.47 1.61 1.16.63.45 2.3c-3.85 2.41-7.25 2.21-9.4-2.07q-9.95-19.75-13.36-27.01-1.2-2.57-.04-5.52z"/><ellipse fill="#3658c1" transform="rotate(-14.5 580.288 -422.024)" rx="1.3" ry="1.13"/><path fill="#7891e4" d="M122.07 131.31q.19-.12.36 0 .28.17-.03.28-.93.33-1.88.12a.25.22 46.2 0 1-.02-.47q.6-.03 1.19.12a.47.47 0 0 0 .38-.05z"/><path fill="#3658c1" d="M139.26 134.22q.16-.88.59-1.63.38-.67.19.08l-.37 1.41q-.13.52.2.94.7.86-.01 1.71a1.05 1.05 0 0 1-1.76-1.12q.2-.43.64-.67.43-.24.52-.72z"/><path fill="#fff" d="m39.69 143.87-6.84 2.52a.83.82-12.6 0 0-.54.84l.37 4.97q.04.45-.38.64l-1.2.52q-.53.24-.58-.34l-1.28-18.03a1.78 1.78 0 0 1 2.97-1.44l14.4 13.05a.65.64-35.6 0 1-.18 1.07l-.7.3q-.53.23-.96-.17l-4.11-3.74q-.43-.39-.97-.19zm-7.53.58a.31.31 0 0 0 .42.25l5.68-2.21a.31.31 0 0 0 .1-.51l-6.7-6.7a.31.31 0 0 0-.53.25l1.03 8.92z"/><path fill="#3658c1" d="m32.16 144.45-1.03-8.92a.31.31 0 0 1 .53-.25l6.7 6.7a.31.31 0 0 1-.1.51l-5.68 2.21a.31.31 0 0 1-.42-.25z"/><path fill="#7891e4" d="m110.92 139.87-.5-.3a.17.17 0 0 1 .09-.32h.48a.5.5 0 0 1 .5.48q.01.39.01.75a.93.92 12.5 0 0 .54.84q1.84.84 3.82 1.13a.16.15 49.1 0 1-.02.31q-2.35-.02-4.31-1.32-.28-.19-.28-.53v-.46q0-.39-.33-.58zM162.5 139.31c2.32.02 4.29.92 6.68.94q.6.01.5.61-.31 1.74-1.04 3.31a.11.11 0 0 1-.21-.08q.34-1.43.84-2.78a.55.55 0 0 0-.48-.74q-3.2-.22-6.32-1-1.08-.26.03-.26z"/><ellipse fill="#3658c1" transform="rotate(-29.1 333.361 -154.524)" rx="1.28" ry="1.08"/><path fill="#3658c1" d="M143.24 143.25q-.31-.03-.53.11-1 1.52-1.88.66a1.31 1.3 70.9 0 1 1.08-2.23q.72.1 1.33 1.46z"/><path fill="#7891e4" d="M143.24 143.25q3.02-.09 5.95.46a.1.1 0 0 1-.01.19q-3.29.2-6.47-.54.22-.14.53-.11zM92.27 146.74q-2.88-2-4.84-1.59-.8.44-1.59.47-.19-1.03-3.79-.39 6.47-2.36 10.22 1.51z"/><path fill="#b0c3ff" d="M85.84 145.62q-2.66 1.78-.8 4.1-.94.64-3.12-.37l-2.31-2.2q-.42-.41.04-.76 1.2-.9 2.4-1.16 3.6-.64 3.79.39zM92.27 146.74q.99.58 1.53 1.57a.76.75-39.8 0 1-.08.85q-.26.3-.66.44-3.37.25-6.14 1.83-.87.24-1.92-.64l.76-.58c3.07.16 4.84-3.26 1.67-5.06q1.96-.41 4.84 1.59z"/><path fill="#3658c1" d="M87.43 145.15c3.17 1.8 1.4 5.22-1.67 5.06l-.72-.49q-1.86-2.32.8-4.1.79-.03 1.59-.47z"/><path fill="#7891e4" d="M114.25 146.59a.1.1 0 0 1 .2.03q-.23 2.47-1.15 4.83a.1.1 0 0 1-.19-.06q.56-2.41 1.14-4.8zM167.35 148.41q-.73 3.82-2.01 6.89a.09.09 0 0 1-.17-.06l2.02-6.86a.08.08 0 0 1 .16.03z"/><ellipse fill="#7891e4" transform="rotate(4.5 -1823.76 1777.513)" rx="2.53" ry=".25"/><path fill="#7891e4" d="m85.04 149.72.72.49-.76.58q-1.85-.05-3.08-1.44 2.18 1.01 3.12.37zM93.06 149.6l-6.14 1.83q2.77-1.58 6.14-1.83z"/><ellipse fill="#7891e4" transform="rotate(8.5 -960.729 794.352)" rx="2.84" ry=".21"/><path fill="#030403" d="m48.97 160.43-5.69 2.45q.03-.51-.66-.37l2.47-3.23c3.62-1.26 17.51-5.34 19.18-8.32q.34-.61.23.07c-.37 2.22-1.19 3.9-3.47 4.77q-6.27 2.4-12.06 4.63z"/><path fill="#7891e4" d="M138.1 154.48q-2.04.54-4.41-.05 2.21-.49 4.41.05zM165.29 155.75c.72.05 2.68.25 3.35.54q.53.23-.04.28-1.77.16-3.39-.48-1.06-.41.08-.34z"/><path fill="#151e2e" d="m45.09 159.28-2.47 3.23-8.41 3.11q.71-1.67-.45-2.3l11.33-4.04z"/><path fill="#3658c1" d="m218.23 162.98-15.94 24.34c-1.55-.32-5.66-14.03-6.38-16.23q-.16-.47-.01-.95l2.93-9.56q10.47-1.71 19.4 2.4z"/><path fill="#7891e4" d="M166.34 162.52q-8.19-1.7-15.21-1.5 1.36-.98 4.37-.52 7.68 1.17 10.84 2.02z"/><path fill="#b0c3ff" d="M166.34 162.52q.18.03.36.07-2.47 3.28-1.61 6.98-6.45-.44-12.52-1.88c-4.34-1.02-3.72-3.83-1.44-6.67q7.02-.2 15.21 1.5z"/><path fill="#3658c1" d="M165.09 169.57q-.86-3.7 1.61-6.98 2.83-1.19 5.63-.2.53.18.81.66 1.93 3.2-.35 6.08a.77.76-41.2 0 0-.06.88l1.95 3.19q.43.69-.26 1.12l-.68.42a.7.69 59.2 0 1-.97-.25l-1.72-3.06q-.26-.46-.78-.37-2.93.5-5.18-1.49zm2.081-.65a3.33 2.86 133.9 0 0 4.37-.417 3.33 2.86 133.9 0 0 .248-4.382 3.33 2.86 133.9 0 0-4.37.416 3.33 2.86 133.9 0 0-.248 4.382z"/><path fill="#030403" d="M218.23 162.98q1.37 1.57 1.87 3.44.13.49-.15.91l-15.89 24.28-1.98-2.42-.58-.6q.11-1.01-.2-.47.69-.11.99-.8l15.94-24.34z"/><ellipse fill="#fff" transform="rotate(133.9 49.312 119.317)" rx="3.33" ry="2.86"/><path fill="#fff" d="M238.52 177.55c3.69 11.87.9 22.92-8.09 31.25q-1.71 1.58-3.44 3.25.05-.25-.7.46l-16.95-22.65 18.58-23.74q.33-.43.79-.14 6.59 4.21 9.81 11.57z"/><path fill="#b0c3ff" d="M201.3 188.12q.31-.54.2.47l-26.1 15.56q-.96.47-1.66-.66-2.08-4.09-2.74-9.32l-.08.12c5.81.44 13.38 3.64 17.9-2.87 2.01-2.89 2.99-7.64 4.05-11.39l2.39-7.84q.26-.83.55 0l5.49 15.93z"/><path fill="#030403" d="m45.9 173.15 125.6 19.36q.2.8-.58 1.78l.08-.12q-58.86-8.97-117.75-17.93-4.91-.74-7.35-3.09z"/><path fill="#7891e4" d="M166.86 176.25q.39-.05.74.03 1.16.27-.06.35-1.42.08-2.81-.28-.67-.17.01-.32.73-.17 1.4.12.35.14.72.1z"/><path fill="#263a74" d="M238.52 177.55q3.31 5.76 3.51 12.55-1.28 1.08-2.31 4.86-2.8 10.33-12.73 17.09 1.73-1.67 3.44-3.25c8.99-8.33 11.78-19.38 8.09-31.25z"/><path fill="#151e2e" d="M192.87 180.03c-1.06 3.75-2.04 8.5-4.05 11.39-4.52 6.51-12.09 3.31-17.9 2.87q.78-.98.58-1.78c2.36.04 5.05.87 7.03.75 8.36-.49 9.84-7.6 11.7-14.76q2.08-1.25 2.64 1.53z"/><path fill="#7891e4" d="m141.98 182.98 8.13 1.26q-4.31.16-8.13-1.26zM168.87 187.12l6.02.9q-3.12.24-6.02-.9z"/><path fill="#151e2e" d="m201.5 188.59.58.6q-.24.01-.4.03-.47.07-.15.42c1.16 1.29 2.75 22.83 3.2 26.43q.07.56.63.47 5.19-.84 10.22-3.58-4.58 3.28-11.12 4.36l-11.13.12 1.72-.33 8.46-.18a.73.73 0 0 0 .71-.81l-2.71-25.76q-.13-1.21-1.18-.59l-25.32 15.12q.19-.37.39-.74l26.1-15.56z"/><path fill="#b0c3ff" d="m202.08 189.19 1.98 2.42 15.57 18.04q-1.24 1.73-4.05 3.31-5.03 2.74-10.22 3.58-.56.09-.63-.47c-.45-3.6-2.04-25.14-3.2-26.43q-.32-.35.15-.42.16-.02.4-.03z"/><path fill="#030403" d="m209.34 189.86 16.95 22.65.58 2.42q-10.15-12.14-17.53-25.07z"/><path fill="#3658c1" d="M195.05 217.11q-13.37-1.43-20.04-12.22l25.32-15.12q1.05-.62 1.18.59l2.71 25.76a.73.73 0 0 1-.71.81l-8.46.18zM242.03 190.1q-.26 16.96-14.28 25.87-.92.58-.88-1.04l-.58-2.42q.75-.71.7-.46 9.93-6.76 12.73-17.09 1.03-3.78 2.31-4.86z"/><path fill="#030403" d="M173.74 203.49q.7 1.13 1.66.66-.2.37-.39.74 6.67 10.79 20.04 12.22l-1.72.33q-6.56-1.39-13.99-5.16-3.89-3.43-5.6-8.79z"/><path fill="#3658c1" d="M219.63 209.65q1.25 1.41 1.93 3.59.16.5-.26.81-7.81 5.89-16.95 6.85-1.98-2.6.11-3.58 6.54-1.08 11.12-4.36 2.81-1.58 4.05-3.31z"/><path fill="#263a74" d="m193.33 217.44 11.13-.12q-2.09.98-.11 3.58-15.4 1.73-25.01-8.62 7.43 3.77 13.99 5.16z"/></svg>