<?xml version="1.0" encoding="UTF-8" standalone="no"?>
<!DOCTYPE svg PUBLIC "-//W3C//DTD SVG 1.1//EN" "http://www.w3.org/Graphics/SVG/1.1/DTD/svg11.dtd">
<svg xmlns="http://www.w3.org/2000/svg" version="1.1" viewBox="0.00 0.00 1200.00 1343.00">
<path fill="#291973" d="
  M 561.84 0.00
  L 582.31 0.00
  L 650.79 1.00
  A 0.72 0.72 0.0 0 1 651.50 1.72
  L 651.50 67.74
  Q 651.50 68.22 651.98 68.26
  C 675.99 70.32 699.67 75.12 723.25 80.28
  A 0.83 0.82 -73.6 0 0 724.19 79.76
  L 746.82 17.59
  A 0.53 0.52 18.6 0 1 747.47 17.27
  L 831.03 44.51
  A 0.94 0.94 0.0 0 1 831.63 45.70
  L 810.40 108.96
  Q 810.20 109.55 810.78 109.79
  C 834.89 119.84 855.11 132.09 876.81 144.45
  Q 877.27 144.71 877.58 144.29
  L 917.64 89.13
  Q 918.01 88.62 918.52 88.99
  L 989.75 140.73
  Q 990.29 141.12 989.91 141.66
  L 950.90 196.64
  Q 950.46 197.27 951.05 197.75
  C 969.94 213.19 986.19 231.64 1002.72 249.62
  Q 1003.05 249.98 1003.45 249.69
  L 1057.97 209.83
  A 0.66 0.65 53.9 0 1 1058.89 209.98
  L 1110.67 281.29
  A 0.52 0.52 0.0 0 1 1110.56 282.02
  L 1056.25 321.23
  A 0.74 0.74 0.0 0 0 1056.06 322.23
  C 1069.35 343.12 1079.51 365.89 1089.44 388.41
  Q 1089.70 389.00 1090.31 388.80
  L 1154.48 368.00
  A 0.49 0.49 0.0 0 1 1155.10 368.32
  L 1182.49 452.49
  A 0.26 0.26 0.0 0 1 1182.32 452.82
  L 1119.49 473.28
  A 0.89 0.89 0.0 0 0 1118.90 474.34
  Q 1128.05 510.39 1131.03 547.47
  A 1.10 1.09 87.5 0 0 1132.13 548.48
  L 1196.96 548.17
  A 0.79 0.79 0.0 0 1 1197.76 548.96
  L 1197.74 636.54
  Q 1197.74 637.50 1196.77 637.50
  L 1132.75 637.50
  Q 1132.23 637.50 1132.18 638.02
  C 1129.96 664.98 1127.30 686.75 1121.24 712.16
  Q 1121.09 712.80 1121.71 713.00
  L 1186.04 734.21
  A 0.43 0.42 -72.2 0 1 1186.31 734.75
  L 1160.01 818.75
  Q 1159.85 819.27 1159.34 819.10
  L 1095.51 798.53
  A 0.58 0.58 0.0 0 0 1094.80 798.85
  C 1084.63 821.93 1074.27 845.44 1061.35 867.16
  A 0.79 0.78 -56.7 0 0 1061.56 868.20
  L 1115.83 907.14
  A 0.82 0.82 0.0 0 1 1116.02 908.27
  L 1065.47 980.95
  A 0.50 0.50 0.0 0 1 1064.76 981.06
  L 1011.47 941.22
  A 0.56 0.55 -50.3 0 0 1010.73 941.29
  L 982.33 971.90
  A 0.72 0.71 -37.5 0 1 981.17 971.75
  L 924.57 862.96
  A 1.00 0.99 -39.9 0 1 924.67 861.88
  C 983.79 786.04 1013.73 699.50 1015.48 603.25
  C 1020.10 348.22 789.71 145.28 536.75 189.30
  C 350.12 221.78 196.69 376.95 184.92 569.75
  C 183.90 586.44 184.51 603.68 185.54 620.49
  C 191.01 709.14 222.16 797.14 279.52 865.62
  Q 279.82 865.98 279.62 866.41
  L 225.65 978.78
  A 0.64 0.64 0.0 0 1 224.61 978.93
  L 195.52 946.99
  Q 194.75 946.14 193.84 946.84
  L 140.90 987.47
  Q 140.29 987.93 139.84 987.32
  L 87.22 915.53
  Q 86.92 915.13 87.33 914.83
  L 141.57 874.25
  Q 142.03 873.90 141.73 873.41
  C 127.64 850.89 117.47 826.59 106.73 802.35
  Q 106.50 801.85 105.98 802.02
  L 42.01 823.27
  A 0.67 0.67 0.0 0 1 41.16 822.83
  L 14.52 738.49
  A 0.77 0.77 0.0 0 1 15.01 737.53
  L 78.80 716.29
  Q 79.24 716.14 79.13 715.70
  C 72.86 690.12 69.50 663.89 67.35 637.63
  Q 67.31 637.06 66.74 637.05
  L 0.00 635.37
  L 0.00 588.19
  L 0.51 548.01
  A 0.98 0.97 0.3 0 1 1.49 547.05
  L 66.76 547.54
  Q 67.35 547.55 67.40 546.96
  Q 71.02 507.41 80.82 468.95
  A 0.70 0.70 0.0 0 0 80.37 468.12
  L 18.44 446.29
  A 0.56 0.56 0.0 0 1 18.10 445.57
  L 47.03 362.82
  Q 47.23 362.26 47.79 362.45
  L 110.52 384.20
  A 0.54 0.53 -67.2 0 0 111.18 383.93
  Q 128.00 348.68 149.40 316.02
  Q 149.68 315.60 149.27 315.30
  L 94.00 275.02
  A 0.63 0.63 0.0 0 1 93.87 274.13
  L 146.34 205.09
  A 0.28 0.28 0.0 0 1 146.72 205.03
  L 201.99 243.06
  A 1.01 1.00 -51.7 0 0 203.30 242.90
  Q 228.99 214.59 258.37 190.14
  Q 258.69 189.87 258.44 189.52
  L 219.06 135.48
  Q 218.64 134.92 219.22 134.52
  L 291.50 84.08
  A 0.54 0.53 -36.2 0 1 292.23 84.19
  L 332.85 136.92
  A 0.76 0.76 0.0 0 0 333.82 137.12
  Q 365.75 118.68 399.72 104.38
  Q 400.28 104.15 400.09 103.58
  L 379.42 40.81
  A 0.59 0.59 0.0 0 1 379.81 40.06
  L 465.45 13.97
  Q 465.72 13.89 465.81 14.15
  L 488.00 75.56
  Q 488.19 76.10 488.74 75.99
  C 513.65 71.07 534.58 69.63 562.89 67.37
  Q 563.43 67.32 563.41 66.79
  L 561.84 0.00
  Z
  M 581.29 142.50
  A 0.65 0.65 0.0 0 1 580.64 141.86
  L 580.45 130.38
  A 0.65 0.65 0.0 0 1 581.10 129.72
  L 603.81 129.76
  A 0.65 0.65 0.0 0 0 604.46 129.11
  L 604.51 122.40
  A 0.65 0.65 0.0 0 0 603.86 121.75
  L 581.29 121.75
  A 0.65 0.65 0.0 0 1 580.64 121.11
  L 580.50 111.64
  A 0.65 0.65 0.0 0 1 581.15 110.98
  L 605.60 111.03
  A 0.65 0.65 0.0 0 0 606.25 110.38
  L 606.25 103.65
  A 0.65 0.65 0.0 0 0 605.60 103.00
  L 571.65 103.00
  A 0.65 0.65 0.0 0 0 571.00 103.65
  L 571.00 150.10
  A 0.65 0.65 0.0 0 0 571.65 150.75
  L 606.60 150.75
  A 0.65 0.65 0.0 0 0 607.25 150.10
  L 607.25 143.15
  A 0.65 0.65 0.0 0 0 606.60 142.50
  L 581.29 142.50
  Z
  M 541.94 114.26
  A 0.49 0.49 0.0 0 1 542.34 113.69
  L 555.20 111.50
  A 0.49 0.49 0.0 0 0 555.60 110.93
  L 554.35 103.92
  A 0.49 0.49 0.0 0 0 553.78 103.52
  L 517.44 109.93
  A 0.49 0.49 0.0 0 0 517.04 110.50
  L 518.32 117.54
  A 0.49 0.49 0.0 0 0 518.89 117.93
  L 531.80 115.61
  A 0.49 0.49 0.0 0 1 532.37 116.00
  L 539.03 153.99
  A 0.49 0.49 0.0 0 0 539.59 154.39
  L 548.24 152.87
  A 0.49 0.49 0.0 0 0 548.63 152.31
  L 541.94 114.26
  Z
  M 646.84 105.50
  C 617.08 97.17 607.36 142.33 629.98 152.02
  C 641.30 156.86 653.80 153.43 657.85 141.01
  Q 658.02 140.50 657.53 140.29
  L 649.76 136.98
  A 0.46 0.46 0.0 0 0 649.14 137.26
  C 645.12 149.04 629.59 147.42 628.12 135.19
  C 627.05 126.25 629.46 109.94 642.74 113.04
  Q 649.18 114.54 650.43 121.31
  Q 650.52 121.78 650.99 121.72
  L 659.68 120.64
  A 0.55 0.55 0.0 0 0 660.16 120.00
  Q 658.01 108.62 646.84 105.50
  Z
  M 680.48 139.13
  A 0.51 0.51 0.0 0 1 681.09 138.74
  L 698.51 142.46
  A 0.51 0.51 0.0 0 1 698.90 143.07
  L 694.78 162.50
  A 0.51 0.51 0.0 0 0 695.17 163.11
  L 703.59 164.90
  A 0.51 0.51 0.0 0 0 704.20 164.51
  L 713.94 118.80
  A 0.51 0.51 0.0 0 0 713.54 118.20
  L 705.08 116.50
  A 0.51 0.51 0.0 0 0 704.48 116.89
  L 700.84 134.27
  A 0.51 0.51 0.0 0 1 700.23 134.66
  L 682.84 130.94
  A 0.51 0.51 0.0 0 1 682.45 130.33
  L 686.14 112.95
  A 0.51 0.51 0.0 0 0 685.75 112.34
  L 677.28 110.52
  A 0.51 0.51 0.0 0 0 676.67 110.91
  L 666.99 156.54
  A 0.51 0.51 0.0 0 0 667.38 157.14
  L 675.76 158.90
  A 0.51 0.51 0.0 0 0 676.37 158.50
  L 680.48 139.13
  Z
  M 733.51 142.38
  A 0.31 0.31 0.0 0 1 734.11 142.40
  L 742.53 176.99
  A 0.31 0.31 0.0 0 0 742.73 177.21
  L 751.40 180.07
  A 0.31 0.31 0.0 0 0 751.80 179.87
  L 766.29 135.08
  A 0.31 0.31 0.0 0 0 766.10 134.69
  L 758.22 132.14
  A 0.31 0.31 0.0 0 0 757.82 132.34
  L 748.43 161.45
  A 0.31 0.31 0.0 0 1 747.83 161.43
  L 739.30 126.19
  A 0.31 0.31 0.0 0 0 739.09 125.97
  L 730.68 123.29
  A 0.31 0.31 0.0 0 0 730.29 123.49
  L 715.79 168.12
  A 0.31 0.31 0.0 0 0 715.99 168.51
  L 723.91 171.05
  A 0.31 0.31 0.0 0 0 724.30 170.85
  L 733.51 142.38
  Z
  M 448.85 151.27
  A 0.48 0.48 0.0 0 1 448.23 150.99
  L 444.63 141.24
  A 0.48 0.48 0.0 0 1 444.91 140.62
  L 465.71 133.03
  A 0.48 0.48 0.0 0 0 465.99 132.41
  L 463.55 125.80
  A 0.48 0.48 0.0 0 0 462.93 125.51
  L 433.06 136.36
  A 0.48 0.48 0.0 0 0 432.77 136.97
  L 448.72 180.77
  A 0.48 0.48 0.0 0 0 449.33 181.06
  L 457.61 178.13
  A 0.48 0.48 0.0 0 0 457.90 177.51
  L 451.23 159.41
  A 0.48 0.48 0.0 0 1 451.51 158.80
  L 469.44 152.33
  A 0.48 0.48 0.0 0 0 469.72 151.72
  L 467.28 145.01
  A 0.48 0.48 0.0 0 0 466.66 144.73
  L 448.85 151.27
  Z
  M 804.65 149.11
  C 777.39 133.02 753.61 175.43 779.03 191.13
  C 806.98 208.38 830.39 164.31 804.65 149.11
  Z
  M 417.03 149.71
  C 398.68 142.44 378.12 161.91 387.32 180.97
  C 392.80 192.30 401.90 200.19 414.73 197.00
  C 428.21 193.66 436.02 183.14 432.44 169.02
  C 430.42 161.07 424.81 152.79 417.03 149.71
  Z
  M 825.53 203.09
  A 0.49 0.49 0.0 0 1 825.31 202.43
  L 842.69 168.39
  A 0.49 0.49 0.0 0 0 842.47 167.73
  L 834.68 163.80
  A 0.49 0.49 0.0 0 0 834.02 164.01
  L 813.05 205.18
  A 0.49 0.49 0.0 0 0 813.27 205.84
  L 842.34 220.70
  A 0.49 0.49 0.0 0 0 843.00 220.48
  L 846.14 214.11
  A 0.49 0.49 0.0 0 0 845.92 213.46
  L 825.53 203.09
  Z
  M 864.69 197.94
  C 840.21 224.37 879.13 254.26 897.56 230.94
  C 906.59 219.52 909.28 204.48 895.85 194.98
  Q 878.68 182.83 864.69 197.94
  Z
  M 329.51 237.60
  A 0.39 0.39 0.0 0 1 328.97 237.50
  L 322.21 227.48
  A 0.39 0.39 0.0 0 1 322.31 226.94
  L 341.36 214.06
  A 0.39 0.39 0.0 0 0 341.46 213.52
  L 337.44 207.50
  A 0.39 0.39 0.0 0 0 336.90 207.39
  L 317.81 220.23
  A 0.39 0.39 0.0 0 1 317.27 220.13
  L 311.79 212.07
  A 0.39 0.39 0.0 0 1 311.89 211.53
  L 332.45 197.63
  A 0.39 0.39 0.0 0 0 332.56 197.09
  L 328.52 191.01
  A 0.39 0.39 0.0 0 0 327.97 190.90
  L 299.40 210.25
  A 0.39 0.39 0.0 0 0 299.30 210.79
  L 325.44 249.54
  A 0.39 0.39 0.0 0 0 325.98 249.64
  L 355.32 229.88
  A 0.39 0.39 0.0 0 0 355.43 229.34
  L 351.43 223.30
  A 0.39 0.39 0.0 0 0 350.88 223.19
  L 329.51 237.60
  Z
  M 259.74 242.14
  A 0.49 0.49 0.0 0 0 259.68 242.84
  L 264.25 248.25
  A 0.49 0.49 0.0 0 0 264.94 248.30
  L 274.99 239.81
  A 0.49 0.49 0.0 0 1 275.69 239.87
  L 300.49 269.52
  A 0.49 0.49 0.0 0 0 301.19 269.58
  L 307.83 263.99
  A 0.49 0.49 0.0 0 0 307.89 263.30
  L 283.04 233.72
  A 0.49 0.49 0.0 0 1 283.10 233.02
  L 293.14 224.64
  A 0.49 0.49 0.0 0 0 293.20 223.94
  L 288.62 218.49
  A 0.49 0.49 0.0 0 0 287.92 218.43
  L 259.74 242.14
  Z
  M 928.38 267.08
  C 921.95 266.08 915.54 261.98 914.27 255.27
  C 912.69 246.86 922.42 235.88 930.75 235.09
  C 939.83 234.23 946.84 243.06 943.84 251.81
  Q 943.63 252.42 944.17 252.78
  L 951.10 257.37
  Q 951.56 257.68 951.82 257.19
  C 958.28 245.10 949.62 232.02 938.43 227.59
  C 922.33 221.23 902.70 238.23 904.79 254.45
  C 906.42 267.08 918.83 276.61 931.21 278.28
  A 1.11 1.09 25.9 0 0 932.13 277.97
  L 944.97 265.21
  A 0.48 0.48 0.0 0 0 944.97 264.53
  L 931.08 250.68
  A 0.64 0.63 44.7 0 0 930.19 250.68
  L 926.04 254.83
  Q 925.58 255.29 926.04 255.74
  L 932.94 262.53
  A 0.60 0.60 0.0 0 1 932.93 263.40
  L 929.22 266.83
  Q 928.86 267.16 928.38 267.08
  Z
  M 271.87 273.88
  C 264.85 267.16 257.59 259.55 250.06 253.49
  Q 249.66 253.16 249.30 253.54
  L 243.83 259.37
  Q 243.13 260.11 243.88 260.81
  Q 254.23 270.42 264.80 280.46
  C 267.33 282.86 269.83 285.28 269.14 289.02
  C 267.81 296.23 259.18 300.73 253.11 295.14
  Q 241.85 284.78 230.76 274.17
  A 0.54 0.54 0.0 0 0 230.00 274.19
  L 224.43 280.01
  A 0.81 0.81 0.0 0 0 224.47 281.16
  Q 233.63 289.70 243.08 298.09
  Q 250.04 304.26 251.55 305.12
  C 261.65 310.87 271.03 302.99 276.35 294.84
  C 281.65 286.74 278.11 279.87 271.87 273.88
  Z
  M 989.87 282.15
  A 0.40 0.40 0.0 0 0 989.49 282.01
  L 968.91 285.60
  A 0.40 0.40 0.0 0 1 968.46 285.08
  L 975.39 265.19
  A 0.40 0.40 0.0 0 0 975.31 264.81
  L 968.69 256.89
  A 0.40 0.40 0.0 0 0 968.00 257.02
  L 958.37 287.30
  A 0.40 0.40 0.0 0 1 958.24 287.48
  L 943.24 300.10
  A 0.40 0.40 0.0 0 0 943.19 300.67
  L 948.93 307.48
  A 0.40 0.40 0.0 0 0 949.50 307.53
  L 964.42 294.99
  A 0.40 0.40 0.0 0 1 964.62 294.90
  L 996.20 290.65
  A 0.40 0.40 0.0 0 0 996.45 289.99
  L 989.87 282.15
  Z
  M 197.98 325.70
  A 0.54 0.54 0.0 0 0 198.74 325.59
  L 206.62 315.11
  A 0.54 0.54 0.0 0 1 207.38 315.01
  L 238.12 338.20
  A 0.54 0.54 0.0 0 0 238.88 338.10
  L 244.03 331.25
  A 0.54 0.54 0.0 0 0 243.92 330.50
  L 213.13 307.34
  A 0.54 0.54 0.0 0 1 213.03 306.58
  L 220.87 296.20
  A 0.54 0.54 0.0 0 0 220.77 295.44
  L 215.19 291.27
  A 0.54 0.54 0.0 0 0 214.44 291.38
  L 192.35 320.71
  A 0.54 0.54 0.0 0 0 192.45 321.47
  L 197.98 325.70
  Z
  M 225.5825 356.4766
  A 0.42 0.42 0.0 0 0 225.4590 355.8956
  L 186.1422 330.3629
  A 0.42 0.42 0.0 0 0 185.5612 330.4864
  L 180.7575 337.8834
  A 0.42 0.42 0.0 0 0 180.8810 338.4644
  L 220.1978 363.9971
  A 0.42 0.42 0.0 0 0 220.7788 363.8736
  L 225.5825 356.4766
  Z
  M 1013.99 365.91
  A 0.35 0.35 0.0 0 1 1014.20 366.43
  L 1000.92 387.99
  A 0.35 0.35 0.0 0 0 1000.90 388.34
  L 1006.36 398.62
  A 0.35 0.35 0.0 0 0 1006.97 398.62
  L 1023.26 369.01
  A 0.35 0.35 0.0 0 1 1023.67 368.84
  L 1047.45 375.81
  A 0.35 0.35 0.0 0 0 1047.85 375.31
  L 1042.26 364.72
  A 0.35 0.35 0.0 0 0 1042.04 364.54
  L 1015.26 357.54
  A 0.35 0.35 0.0 0 1 1015.18 356.89
  L 1032.69 347.58
  A 0.35 0.35 0.0 0 0 1032.84 347.11
  L 1028.69 339.22
  A 0.35 0.35 0.0 0 0 1028.22 339.07
  L 986.83 361.04
  A 0.35 0.35 0.0 0 0 986.68 361.51
  L 990.90 369.45
  A 0.35 0.35 0.0 0 0 991.37 369.59
  L 1003.57 363.07
  A 0.35 0.35 0.0 0 1 1003.83 363.04
  L 1013.99 365.91
  Z
  M 174.52 363.74
  A 0.49 0.49 0.0 0 1 174.33 363.07
  L 180.69 351.63
  A 0.49 0.49 0.0 0 0 180.50 350.96
  L 174.28 347.57
  A 0.49 0.49 0.0 0 0 173.61 347.77
  L 155.78 379.94
  A 0.49 0.49 0.0 0 0 155.97 380.61
  L 162.18 384.07
  A 0.49 0.49 0.0 0 0 162.85 383.88
  L 169.18 372.37
  A 0.49 0.49 0.0 0 1 169.85 372.18
  L 203.67 390.92
  A 0.49 0.49 0.0 0 0 204.34 390.73
  L 208.50 383.14
  A 0.49 0.49 0.0 0 0 208.30 382.47
  L 174.52 363.74
  Z
  M 1039.11 423.88
  A 0.40 0.40 0.0 0 1 1038.89 424.40
  L 1020.27 431.87
  A 0.40 0.40 0.0 0 0 1020.05 432.39
  L 1023.34 440.65
  A 0.40 0.40 0.0 0 0 1023.86 440.87
  L 1067.28 423.38
  A 0.40 0.40 0.0 0 0 1067.51 422.86
  L 1064.27 414.57
  A 0.40 0.40 0.0 0 0 1063.74 414.34
  L 1047.02 421.09
  A 0.40 0.40 0.0 0 1 1046.50 420.87
  L 1039.77 404.27
  A 0.40 0.40 0.0 0 1 1039.99 403.75
  L 1056.65 397.06
  A 0.40 0.40 0.0 0 0 1056.87 396.54
  L 1053.54 388.27
  A 0.40 0.40 0.0 0 0 1053.02 388.05
  L 1009.72 405.59
  A 0.40 0.40 0.0 0 0 1009.50 406.11
  L 1012.77 414.24
  A 0.40 0.40 0.0 0 0 1013.29 414.46
  L 1031.85 406.98
  A 0.40 0.40 0.0 0 1 1032.37 407.20
  L 1039.11 423.88
  Z
  M 162.16 397.90
  C 144.69 391.53 132.46 420.04 144.92 428.62
  C 157.00 436.92 165.27 422.84 171.04 415.74
  C 173.63 412.55 178.00 411.47 180.24 415.74
  C 182.75 420.54 178.93 427.55 174.77 429.80
  Q 172.22 431.18 167.82 430.06
  A 0.55 0.55 0.0 0 0 167.16 430.43
  L 164.55 438.82
  A 0.60 0.59 17.4 0 0 164.94 439.56
  C 172.82 442.12 179.80 440.13 184.83 433.42
  C 190.58 425.73 193.65 412.34 184.26 405.99
  C 169.70 396.14 163.81 412.49 154.49 420.75
  C 151.66 423.26 148.40 420.82 148.30 417.49
  C 148.14 412.26 151.59 405.92 158.21 406.77
  Q 159.15 406.89 159.49 406.01
  L 162.43 398.48
  Q 162.60 398.06 162.16 397.90
  Z
  M 156.72 458.15
  A 0.30 0.30 0.0 0 1 156.72 458.72
  L 121.81 468.43
  A 0.30 0.30 0.0 0 0 121.60 468.64
  L 119.17 477.16
  A 0.30 0.30 0.0 0 0 119.38 477.53
  L 164.51 490.48
  A 0.30 0.30 0.0 0 0 164.88 490.28
  L 167.23 482.38
  A 0.30 0.30 0.0 0 0 167.03 482.01
  L 138.17 473.77
  A 0.30 0.30 0.0 0 1 138.17 473.19
  L 172.45 463.60
  A 0.30 0.30 0.0 0 0 172.66 463.39
  L 175.24 454.50
  A 0.30 0.30 0.0 0 0 175.03 454.13
  L 129.77 441.15
  A 0.30 0.30 0.0 0 0 129.40 441.36
  L 127.16 449.34
  A 0.30 0.30 0.0 0 0 127.37 449.71
  L 156.72 458.15
  Z
  M 1028.14 457.63
  A 0.33 0.33 0.0 0 0 1028.43 457.88
  L 1039.48 458.75
  A 0.33 0.33 0.0 0 1 1039.77 459.00
  L 1044.61 477.10
  A 0.33 0.33 0.0 0 1 1044.48 477.45
  L 1035.43 483.82
  A 0.33 0.33 0.0 0 0 1035.30 484.17
  L 1037.76 493.71
  A 0.33 0.33 0.0 0 0 1038.27 493.90
  L 1078.93 463.48
  A 0.33 0.33 0.0 0 0 1079.05 463.13
  L 1076.47 453.71
  A 0.33 0.33 0.0 0 0 1076.19 453.47
  L 1026.05 447.97
  A 0.33 0.33 0.0 0 0 1025.69 448.38
  L 1028.14 457.63
  Z
  M 162.2416 501.9741
  A 0.54 0.54 0.0 0 0 161.8257 501.3337
  L 116.3027 491.6574
  A 0.54 0.54 0.0 0 0 115.6622 492.0734
  L 113.8784 500.4659
  A 0.54 0.54 0.0 0 0 114.2943 501.1063
  L 159.8173 510.7826
  A 0.54 0.54 0.0 0 0 160.4578 510.3666
  L 162.2416 501.9741
  Z
  M 1064.84 524.93
  C 1067.20 533.52 1075.01 536.83 1082.95 533.60
  C 1090.60 530.49 1090.64 523.60 1089.72 515.87
  Q 1088.47 505.26 1086.85 494.81
  A 0.51 0.50 -8.0 0 0 1086.28 494.39
  L 1040.79 500.78
  Q 1040.05 500.89 1040.16 501.63
  L 1041.27 509.47
  Q 1041.35 510.09 1041.97 510.00
  L 1060.28 507.40
  Q 1060.66 507.35 1060.80 507.71
  Q 1063.27 514.24 1058.72 518.69
  Q 1055.77 521.57 1044.68 531.27
  A 0.89 0.88 -25.3 0 0 1044.39 532.06
  L 1045.81 542.24
  Q 1045.93 543.04 1046.54 542.53
  C 1052.93 537.28 1060.03 532.19 1064.14 524.85
  Q 1064.59 524.04 1064.84 524.93
  Z
  M 1046.83 555.67
  A 0.47 0.47 0.0 0 0 1047.16 556.10
  L 1057.55 559.41
  A 0.47 0.47 0.0 0 1 1057.88 559.84
  L 1058.53 578.30
  A 0.47 0.47 0.0 0 1 1058.24 578.75
  L 1048.10 583.01
  A 0.47 0.47 0.0 0 0 1047.81 583.46
  L 1048.13 592.96
  A 0.47 0.47 0.0 0 0 1048.79 593.38
  L 1094.89 573.02
  A 0.47 0.47 0.0 0 0 1095.17 572.57
  L 1094.79 562.96
  A 0.47 0.47 0.0 0 0 1094.48 562.53
  L 1047.18 546.06
  A 0.47 0.47 0.0 0 0 1046.55 546.52
  L 1046.83 555.67
  Z
  M 136.66 572.00
  A 0.31 0.31 0.0 0 1 136.82 572.57
  L 105.90 591.55
  A 0.31 0.31 0.0 0 0 105.75 591.81
  L 105.75 600.69
  A 0.31 0.31 0.0 0 0 106.06 601.00
  L 153.19 601.00
  A 0.31 0.31 0.0 0 0 153.50 600.69
  L 153.50 592.31
  A 0.31 0.31 0.0 0 0 153.19 592.00
  L 123.19 592.00
  A 0.31 0.31 0.0 0 1 123.02 591.43
  L 153.35 572.80
  A 0.31 0.31 0.0 0 0 153.50 572.54
  L 153.50 563.31
  A 0.31 0.31 0.0 0 0 153.19 563.00
  L 106.06 563.00
  A 0.31 0.31 0.0 0 0 105.75 563.31
  L 105.75 571.69
  A 0.31 0.31 0.0 0 0 106.06 572.00
  L 136.66 572.00
  Z
  M 1052.34 643.92
  L 1070.37 645.18
  Q 1070.95 645.22 1070.99 644.64
  L 1072.36 625.22
  Q 1072.41 624.55 1071.73 624.50
  L 1065.28 624.04
  Q 1064.82 624.01 1064.79 624.47
  L 1064.15 633.62
  A 0.64 0.63 4.0 0 1 1063.46 634.21
  L 1058.52 633.83
  Q 1058.05 633.79 1057.81 633.39
  C 1054.20 627.14 1053.24 618.59 1058.86 613.59
  C 1065.19 607.96 1079.87 608.70 1085.11 615.74
  C 1089.83 622.07 1087.95 632.50 1079.58 634.98
  Q 1079.12 635.11 1079.17 635.59
  L 1080.21 644.24
  Q 1080.28 644.79 1080.83 644.68
  C 1091.94 642.46 1095.53 633.49 1095.64 623.19
  C 1095.89 599.92 1062.81 592.30 1050.68 609.58
  C 1043.76 619.44 1045.19 633.14 1051.49 643.41
  A 1.10 1.08 -13.5 0 0 1052.34 643.92
  Z
  M 143.71 624.08
  A 0.34 0.34 0.0 0 1 143.90 623.75
  L 153.83 618.80
  A 0.34 0.34 0.0 0 0 154.01 618.45
  L 152.95 608.74
  A 0.34 0.34 0.0 0 0 152.46 608.47
  L 107.76 632.10
  A 0.34 0.34 0.0 0 0 107.58 632.44
  L 108.62 642.10
  A 0.34 0.34 0.0 0 0 108.86 642.39
  L 157.51 655.63
  A 0.34 0.34 0.0 0 0 157.93 655.26
  L 156.90 645.90
  A 0.34 0.34 0.0 0 0 156.64 645.61
  L 145.86 642.88
  A 0.34 0.34 0.0 0 1 145.61 642.58
  L 143.71 624.08
  Z
  M 1060.29 666.88
  C 1058.81 677.03 1054.92 690.06 1068.29 694.65
  C 1074.00 696.61 1081.33 695.52 1084.85 690.34
  Q 1086.48 687.93 1087.67 681.81
  Q 1089.55 672.02 1090.90 662.27
  A 0.56 0.56 0.0 0 0 1090.43 661.64
  L 1044.69 654.43
  Q 1044.18 654.35 1044.10 654.85
  L 1042.76 662.93
  Q 1042.67 663.47 1043.21 663.56
  L 1059.76 666.15
  Q 1060.38 666.25 1060.29 666.88
  Z
  M 159.5485 662.3914
  A 0.48 0.48 0.0 0 0 158.9925 662.0021
  L 112.9232 670.1253
  A 0.48 0.48 0.0 0 0 112.5338 670.6814
  L 114.0515 679.2886
  A 0.48 0.48 0.0 0 0 114.6075 679.6779
  L 160.6768 671.5547
  A 0.48 0.48 0.0 0 0 161.0662 670.9986
  L 159.5485 662.3914
  Z
  M 126.17 731.18
  L 171.78 719.89
  A 0.29 0.29 0.0 0 0 171.99 719.54
  L 167.31 700.62
  A 20.62 19.98 -13.9 0 0 142.49 686.18
  L 136.36 687.70
  A 20.62 19.98 -13.9 0 0 121.14 712.05
  L 125.82 730.97
  A 0.29 0.29 0.0 0 0 126.17 731.18
  Z
  M 1029.75 725.74
  C 1030.01 733.92 1035.68 738.09 1043.00 740.05
  Q 1060.38 744.70 1072.82 747.67
  Q 1073.39 747.81 1073.53 747.24
  L 1075.54 739.06
  Q 1075.66 738.54 1075.15 738.41
  C 1064.82 735.75 1054.11 733.57 1043.97 730.32
  C 1033.32 726.92 1038.93 710.91 1048.76 713.23
  Q 1063.99 716.82 1079.03 720.70
  A 0.83 0.83 0.0 0 0 1080.04 720.11
  L 1082.23 711.75
  Q 1082.44 710.97 1081.66 710.77
  Q 1065.87 706.60 1051.35 703.30
  C 1036.81 699.99 1029.36 713.37 1029.75 725.74
  Z
  M 163.24 746.04
  L 140.61 773.53
  Q 140.01 774.25 140.32 775.13
  L 142.96 782.67
  Q 143.10 783.08 143.51 782.94
  L 187.75 767.73
  Q 188.11 767.61 187.99 767.25
  L 185.42 759.67
  Q 185.23 759.10 184.66 759.30
  L 156.47 769.02
  A 0.27 0.27 0.0 0 1 156.18 768.60
  L 178.62 741.30
  Q 178.94 740.91 178.78 740.43
  L 176.10 732.52
  Q 175.84 731.74 175.06 732.01
  L 131.28 747.12
  Q 130.79 747.29 130.96 747.77
  L 133.44 755.25
  A 0.51 0.51 0.0 0 0 134.09 755.58
  L 162.93 745.60
  Q 163.87 745.27 163.24 746.04
  Z
  M 1035.50 781.28
  C 1035.47 783.92 1035.24 786.68 1036.17 789.06
  C 1039.37 797.19 1051.11 799.46 1056.94 793.75
  Q 1059.50 791.25 1061.75 784.95
  Q 1065.54 774.34 1068.77 763.56
  A 0.43 0.42 17.1 0 0 1068.49 763.04
  L 1024.46 748.75
  Q 1023.99 748.60 1023.83 749.07
  L 1021.18 757.26
  A 0.61 0.61 0.0 0 0 1021.57 758.02
  L 1039.22 763.83
  Q 1039.72 763.99 1039.63 764.50
  C 1038.23 772.61 1033.41 772.92 1025.28 775.38
  Q 1020.11 776.93 1014.80 778.28
  A 1.04 1.03 -87.8 0 0 1014.08 778.95
  L 1010.90 788.69
  Q 1010.70 789.30 1011.33 789.17
  Q 1020.94 787.25 1030.12 784.02
  C 1031.84 783.41 1033.36 781.94 1034.95 780.97
  Q 1035.51 780.62 1035.50 781.28
  Z
  M 192.6354 778.2609
  A 0.49 0.49 0.0 0 0 191.9928 778.0013
  L 149.0605 796.2250
  A 0.49 0.49 0.0 0 0 148.8009 796.8675
  L 152.1846 804.8391
  A 0.49 0.49 0.0 0 0 152.8272 805.0987
  L 195.7595 786.8750
  A 0.49 0.49 0.0 0 0 196.0191 786.2325
  L 192.6354 778.2609
  Z
  M 1019.02 823.91
  A 10.17 10.17 0.0 0 0 1008.85 813.74
  A 10.17 10.17 0.0 0 0 998.68 823.91
  A 10.17 10.17 0.0 0 0 1008.85 834.08
  A 10.17 10.17 0.0 0 0 1019.02 823.91
  Z
  M 199.3507 834.7839
  A 10.20 9.95 94.1 0 0 210.0045 825.3214
  A 10.20 9.95 94.1 0 0 200.8093 814.4361
  A 10.20 9.95 94.1 0 0 190.1555 823.8986
  A 10.20 9.95 94.1 0 0 199.3507 834.7839
  Z"
/>
<path fill="#291973" d="
  M 779.32 179.97
  C 773.36 167.95 787.27 146.72 801.66 157.93
  C 810.65 164.93 804.07 184.09 793.55 186.64
  C 787.88 188.01 781.93 185.23 779.32 179.97
  Z"
/>
<path fill="#291973" d="
  M 398.58 160.69
  C 412.61 147.50 427.97 170.56 421.98 182.63
  C 417.90 190.87 405.86 191.43 400.17 183.82
  C 395.32 177.33 391.72 167.14 398.58 160.69
  Z"
/>
<path fill="#291973" d="
  M 594.13 217.20
  C 593.66 212.25 588.16 206.31 584.43 203.65
  C 575.96 197.60 572.58 209.63 577.46 215.19
  Q 577.95 215.75 577.21 215.75
  L 570.98 215.75
  Q 570.40 215.75 570.02 215.31
  C 564.31 208.68 567.34 198.19 575.18 195.41
  C 588.71 190.62 598.48 206.36 601.71 217.08
  A 0.58 0.58 0.0 0 0 602.27 217.50
  L 609.34 217.50
  A 0.65 0.65 0.0 0 1 609.99 218.15
  L 610.00 224.00
  Q 610.01 224.50 609.50 224.50
  L 602.76 224.50
  A 0.49 0.48 -0.6 0 0 602.27 224.99
  L 603.05 266.24
  A 0.49 0.49 0.0 0 1 602.57 266.74
  L 595.45 266.92
  A 0.55 0.54 -1.6 0 1 594.88 266.39
  L 594.20 225.72
  Q 594.18 224.75 593.22 224.75
  L 587.84 224.75
  Q 587.24 224.75 587.24 224.15
  L 587.21 218.56
  Q 587.20 218.01 587.76 218.00
  L 593.41 217.99
  A 0.73 0.72 87.5 0 0 594.13 217.20
  Z"
/>
<path fill="#291973" d="
  M 866.97 214.27
  C 869.05 205.87 876.11 195.71 885.96 198.81
  C 902.03 203.87 894.97 224.63 883.85 229.50
  C 873.86 233.87 864.47 224.36 866.97 214.27
  Z"
/>
<circle fill="#291973" cx="713.59" cy="218.94" r="5.61"/>
<path fill="#291973" d="
  M 555.14 235.75
  A 0.39 0.39 0.0 0 0 555.79 235.99
  C 564.50 228.33 578.93 231.89 581.05 243.83
  C 582.83 253.84 576.83 261.84 566.49 262.73
  A 0.80 0.79 -7.4 0 1 565.63 262.07
  L 564.71 256.51
  Q 564.60 255.86 565.25 255.75
  Q 573.46 254.35 572.20 246.00
  C 570.87 237.18 559.46 238.09 556.40 245.14
  Q 556.22 245.54 556.29 245.98
  L 559.82 268.56
  A 0.78 0.78 0.0 0 1 559.17 269.46
  L 552.53 270.53
  A 0.62 0.62 0.0 0 1 551.83 270.02
  L 550.46 261.75
  A 0.74 0.74 0.0 0 0 549.30 261.27
  C 539.18 268.52 524.62 264.35 523.67 250.74
  C 523.04 241.62 532.02 236.29 540.22 236.25
  Q 540.76 236.25 541.00 236.73
  L 543.71 242.27
  A 0.39 0.39 0.0 0 1 543.33 242.83
  C 538.29 242.37 531.52 244.81 531.96 250.89
  C 532.65 260.52 544.51 259.42 548.87 252.62
  Q 549.08 252.30 549.02 251.92
  L 545.52 229.74
  Q 545.41 229.06 544.73 229.17
  L 519.00 233.24
  A 0.89 0.88 80.5 0 1 517.99 232.51
  L 517.08 227.10
  A 0.60 0.60 0.0 0 1 517.57 226.41
  L 579.52 216.67
  A 0.63 0.63 0.0 0 1 580.25 217.29
  L 580.25 217.92
  A 0.62 0.61 -2.6 0 0 580.92 218.53
  L 585.32 218.18
  Q 586.02 218.12 586.06 218.82
  L 586.32 223.97
  Q 586.35 224.57 585.75 224.62
  Q 572.37 225.85 567.00 225.96
  Q 559.85 226.11 554.41 227.44
  Q 553.97 227.55 554.04 227.99
  L 555.14 235.75
  Z"
/>
<path fill="#291973" d="
  M 692.16 258.28
  L 681.29 255.98
  Q 680.74 255.86 680.86 255.31
  L 682.08 249.63
  A 0.53 0.52 -77.9 0 1 682.70 249.22
  L 693.65 251.55
  A 0.52 0.52 0.0 0 0 694.27 251.15
  L 697.24 237.32
  Q 697.36 236.75 696.79 236.63
  L 677.53 232.52
  A 0.33 0.33 0.0 0 0 677.22 233.07
  C 686.13 242.68 677.00 255.92 664.81 254.55
  A 1.17 1.17 0.0 0 0 663.52 255.59
  C 662.52 265.75 671.84 268.42 679.79 267.69
  Q 680.44 267.63 680.21 268.25
  L 677.74 274.69
  Q 677.59 275.10 677.15 275.08
  Q 667.02 274.70 660.05 270.25
  C 655.72 267.49 655.71 257.93 656.21 253.49
  Q 656.28 252.87 655.72 252.62
  L 652.68 251.25
  A 0.74 0.73 -72.2 0 1 652.26 250.43
  L 653.46 244.50
  A 0.40 0.40 0.0 0 1 654.08 244.25
  C 658.73 247.40 667.97 251.09 671.75 244.38
  C 675.07 238.50 669.74 230.87 663.18 229.64
  Q 658.53 228.76 653.93 227.65
  Q 653.42 227.52 653.53 227.01
  L 654.75 221.35
  A 0.56 0.56 0.0 0 1 655.42 220.92
  L 714.08 233.41
  Q 714.57 233.51 714.47 234.00
  L 713.32 239.44
  Q 713.19 240.03 712.60 239.90
  L 705.82 238.44
  A 0.56 0.56 0.0 0 0 705.15 238.87
  L 696.67 279.04
  Q 696.54 279.65 695.93 279.52
  L 689.06 278.05
  Q 688.53 277.93 688.64 277.40
  L 692.59 258.94
  Q 692.71 258.40 692.16 258.28
  Z"
/>
<path fill="#291973" d="
  M 445.67 257.67
  A 0.81 0.81 0.0 0 0 445.27 258.75
  L 462.50 295.72
  A 0.66 0.65 65.6 0 1 462.18 296.59
  L 455.95 299.48
  A 0.68 0.68 0.0 0 1 455.04 299.15
  L 437.83 262.19
  A 0.76 0.76 0.0 0 0 436.82 261.82
  L 431.83 264.17
  Q 431.29 264.43 431.03 263.89
  L 428.52 258.68
  Q 428.27 258.16 428.80 257.92
  L 432.45 256.34
  A 0.48 0.48 0.0 0 0 432.44 255.46
  Q 425.17 252.45 423.95 245.41
  C 421.78 232.89 435.38 227.01 445.49 227.18
  Q 459.92 227.41 473.21 232.91
  Q 473.89 233.19 473.23 233.49
  L 465.93 236.81
  Q 465.40 237.05 464.85 236.88
  C 455.47 233.89 445.41 230.45 436.99 233.68
  C 427.00 237.52 431.89 250.00 440.44 252.16
  A 1.01 0.98 38.9 0 0 441.11 252.10
  L 448.11 248.85
  A 0.59 0.58 -25.4 0 1 448.88 249.12
  L 451.39 254.34
  Q 451.66 254.89 451.10 255.15
  L 445.67 257.67
  Z"
/>
<path fill="#291973" d="
  M 481.01 243.82
  A 0.39 0.39 0.0 0 0 480.92 244.52
  C 484.07 246.45 486.93 248.74 488.80 252.00
  C 494.36 261.70 496.12 276.83 481.56 280.09
  C 472.08 282.21 465.34 275.35 465.82 265.69
  Q 465.85 265.08 466.43 264.89
  L 472.28 262.98
  Q 473.51 262.58 473.34 263.86
  C 472.86 267.38 473.55 272.07 476.87 273.92
  C 479.59 275.43 483.34 274.26 484.50 271.37
  C 486.31 266.86 482.49 256.54 480.21 253.05
  Q 478.05 249.76 472.79 247.10
  Q 472.38 246.90 471.95 247.04
  L 457.68 251.71
  A 0.86 0.86 0.0 0 1 456.60 251.16
  L 454.82 245.94
  A 0.61 0.61 0.0 0 1 455.21 245.16
  L 508.18 228.01
  Q 508.80 227.81 509.01 228.43
  L 510.69 233.42
  Q 510.87 233.97 510.32 234.15
  L 503.99 236.20
  Q 503.41 236.38 503.60 236.96
  L 516.25 276.00
  A 0.66 0.66 0.0 0 1 515.82 276.84
  L 509.00 279.02
  Q 508.50 279.18 508.33 278.68
  L 495.62 239.58
  Q 495.47 239.12 495.00 239.27
  L 481.01 243.82
  Z"
/>
<path fill="#291973" d="
  M 718.08 268.90
  L 715.28 267.14
  Q 714.73 266.79 714.97 266.18
  L 717.12 260.67
  Q 717.38 259.99 717.90 260.51
  C 722.56 265.15 735.45 270.31 736.97 259.37
  C 737.51 255.50 735.66 252.66 733.17 249.83
  C 730.68 247.00 724.01 245.28 720.42 243.94
  Q 719.75 243.69 720.00 243.01
  L 721.99 237.70
  Q 722.20 237.14 722.76 237.36
  L 759.90 251.64
  A 0.40 0.40 0.0 0 1 760.13 252.16
  L 758.03 257.55
  Q 757.81 258.11 757.26 257.89
  L 742.75 252.22
  A 0.34 0.34 0.0 0 0 742.34 252.73
  C 744.28 255.60 745.18 258.68 744.25 262.18
  Q 740.82 275.01 726.38 272.28
  A 1.00 0.99 14.3 0 0 725.25 272.94
  C 722.05 282.58 731.61 287.11 739.49 287.57
  Q 740.05 287.60 739.85 288.12
  L 737.64 294.06
  Q 737.41 294.66 736.78 294.57
  C 731.02 293.71 721.79 290.61 718.44 285.15
  C 716.05 281.24 717.42 274.03 718.42 269.72
  Q 718.54 269.19 718.08 268.90
  Z"
/>
<path fill="#291973" d="
  M 413.56 264.36
  C 406.19 259.05 395.45 255.67 386.79 260.00
  A 0.47 0.47 0.0 0 1 386.12 259.68
  L 384.69 253.04
  Q 384.59 252.57 385.02 252.36
  C 395.25 247.49 410.51 255.52 418.54 261.71
  A 0.54 0.54 0.0 0 1 418.43 262.62
  L 414.47 264.45
  A 0.91 0.91 0.0 0 1 413.56 264.36
  Z"
/>
<path fill="#291973" d="
  M 380.41 320.47
  C 378.00 321.17 375.19 322.08 373.01 319.77
  C 366.31 312.70 374.53 305.14 380.57 301.72
  A 0.53 0.53 0.0 0 0 380.74 300.95
  L 378.22 297.30
  Q 377.90 296.84 377.44 297.17
  L 361.46 308.34
  Q 360.99 308.66 360.67 308.20
  L 357.36 303.57
  A 0.64 0.64 0.0 0 1 357.51 302.67
  L 380.96 286.23
  A 0.64 0.63 55.8 0 0 381.12 285.37
  L 380.52 284.48
  A 0.63 0.63 0.0 0 1 380.77 283.57
  Q 391.16 278.52 400.94 272.45
  Q 401.25 272.26 401.63 272.24
  Q 402.21 272.22 402.73 271.94
  L 427.07 259.06
  A 0.49 0.48 -27.1 0 1 427.73 259.27
  L 430.01 263.77
  Q 430.34 264.41 429.69 264.74
  L 424.56 267.35
  A 0.92 0.91 62.6 0 0 424.17 268.59
  L 443.24 304.40
  A 0.82 0.81 -27.6 0 1 442.89 305.51
  L 436.84 308.62
  Q 436.32 308.88 436.05 308.38
  L 416.89 272.37
  A 0.77 0.77 0.0 0 0 415.84 272.05
  L 399.71 280.70
  A 0.95 0.95 0.0 0 0 399.38 282.08
  L 422.65 315.32
  A 0.80 0.79 -35.1 0 1 422.45 316.43
  L 416.98 320.25
  A 0.79 0.77 -34.6 0 1 415.89 320.06
  L 412.25 314.75
  A 0.45 0.44 36.9 0 0 411.46 314.86
  Q 407.63 326.43 397.23 331.69
  C 388.95 335.88 375.86 333.61 380.92 321.02
  A 0.42 0.41 2.4 0 0 380.41 320.47
  Z
  M 392.80 308.00
  L 396.32 311.22
  A 0.36 0.36 0.0 0 1 396.25 311.80
  C 392.66 313.70 385.27 318.01 386.73 323.17
  C 390.44 336.29 411.12 313.25 406.25 306.15
  Q 399.50 296.32 392.51 286.50
  A 0.64 0.64 0.0 0 0 391.62 286.35
  L 383.68 291.88
  A 0.57 0.56 55.3 0 0 383.54 292.67
  L 389.43 301.07
  A 0.58 0.57 -29.9 0 1 389.20 301.92
  C 386.41 303.23 376.14 309.40 377.59 313.42
  Q 378.81 316.80 382.62 315.85
  Q 383.09 315.73 383.38 315.34
  Q 386.79 310.73 391.77 307.88
  Q 392.33 307.56 392.80 308.00
  Z"
/>
<path fill="#291973" d="
  M 828.51 300.43
  A 0.39 0.39 0.0 0 0 827.96 300.51
  L 803.73 333.84
  Q 803.40 334.30 802.94 333.97
  L 797.18 329.84
  A 0.55 0.54 35.5 0 1 797.05 329.07
  L 821.30 295.80
  Q 821.62 295.37 821.19 295.05
  L 805.42 283.59
  A 0.32 0.31 32.4 0 0 804.96 283.69
  L 784.85 319.76
  Q 784.58 320.26 784.08 319.99
  L 777.84 316.59
  Q 777.34 316.31 777.62 315.82
  L 783.32 305.60
  A 0.59 0.59 0.0 0 0 782.80 304.72
  C 764.14 304.99 747.94 290.08 761.25 271.25
  Q 761.58 270.79 762.01 271.16
  C 766.65 275.25 778.38 282.37 781.49 272.23
  C 783.09 267.03 776.22 264.57 773.93 269.59
  A 0.54 0.53 26.8 0 1 773.18 269.83
  L 767.16 266.54
  Q 766.53 266.20 767.00 265.66
  C 769.87 262.36 773.25 259.51 777.81 260.32
  C 799.35 264.18 789.23 296.32 766.38 281.03
  A 0.66 0.66 0.0 0 0 765.38 281.40
  C 764.45 284.71 762.67 288.30 765.70 291.32
  C 771.06 296.66 780.23 300.37 787.89 297.75
  A 1.54 1.53 -84.7 0 0 788.75 297.03
  L 798.10 280.10
  Q 798.43 279.50 797.83 279.18
  L 793.58 276.88
  Q 793.05 276.59 793.33 276.06
  L 793.65 275.46
  A 0.75 0.74 28.8 0 0 793.35 274.45
  L 792.05 273.73
  A 0.58 0.57 -57.9 0 1 791.86 272.89
  L 795.21 268.36
  A 0.69 0.69 0.0 0 1 796.16 268.20
  L 814.58 281.06
  Q 814.95 281.32 815.21 281.71
  Q 815.54 282.22 815.96 282.52
  Q 827.17 290.65 838.36 298.79
  Q 838.90 299.18 838.50 299.72
  L 835.04 304.37
  A 0.62 0.61 36.0 0 1 834.18 304.50
  L 828.51 300.43
  Z"
/>
<rect fill="#291973" x="-6.93" y="-3.47" transform="translate(749.95,275.08) rotate(21.1)" width="13.86" height="6.94" rx="0.51"/>
<path fill="#291973" d="
  M 841.84 730.24
  C 842.45 730.29 842.76 730.38 843.16 730.87
  Q 844.88 732.99 846.08 735.43
  Q 954.15 954.85 1062.31 1174.22
  C 1064.65 1178.96 1064.71 1184.22 1060.35 1187.67
  C 1052.55 1193.83 1035.58 1183.95 1026.87 1178.59
  C 975.06 1146.71 917.31 1129.81 856.51 1128.14
  C 789.65 1126.31 723.41 1145.70 665.36 1178.13
  Q 664.92 1178.38 664.76 1178.85
  C 656.35 1203.01 632.32 1210.79 608.92 1208.33
  C 607.21 1208.15 605.54 1208.38 604.07 1207.90
  C 588.45 1202.75 573.68 1191.69 566.93 1176.57
  Q 566.02 1174.53 565.09 1173.98
  C 485.86 1127.23 385.15 1117.61 297.49 1139.49
  Q 234.44 1155.23 175.51 1191.32
  C 172.46 1193.19 167.35 1195.36 163.82 1195.94
  C 154.68 1197.42 149.49 1190.73 150.58 1182.07
  C 152.12 1169.86 161.69 1156.55 166.73 1145.45
  Q 255.10 950.86 343.62 756.38
  Q 344.34 754.80 345.50 753.50
  Q 385.43 708.71 445.86 697.75
  C 492.86 689.22 540.87 702.01 582.62 723.32
  A 0.95 0.95 0.0 0 0 584.00 722.50
  C 584.75 697.94 583.90 672.09 578.89 647.85
  A 0.50 0.50 0.0 0 0 578.09 647.56
  Q 550.39 669.11 516.57 676.67
  C 455.24 690.38 401.91 653.63 367.48 606.52
  C 314.38 533.88 353.91 426.17 406.57 367.05
  C 416.76 355.61 430.45 345.11 443.80 335.84
  C 490.63 303.35 546.76 284.77 603.50 281.54
  Q 611.89 281.06 635.00 282.01
  C 705.29 284.87 771.16 323.58 821.79 369.97
  C 860.52 405.44 879.30 461.91 880.38 513.15
  C 880.50 518.80 879.90 525.37 878.83 531.03
  C 872.06 566.86 855.94 603.91 831.58 632.31
  C 787.55 683.64 704.60 703.38 651.08 654.03
  A 0.45 0.45 0.0 0 0 650.33 654.29
  Q 646.05 684.76 644.20 715.48
  Q 644.16 716.02 644.71 715.95
  C 651.24 715.10 657.42 714.72 663.82 712.75
  C 723.00 694.53 787.12 694.76 840.67 729.07
  Q 841.10 729.34 841.29 729.83
  Q 841.44 730.20 841.84 730.24
  Z
  M 376.66 599.11
  C 411.19 645.51 461.90 680.94 522.67 663.01
  Q 551.37 654.54 574.53 635.35
  A 0.75 0.75 0.0 0 0 574.14 634.03
  C 572.81 633.88 571.94 633.53 571.11 632.37
  C 561.18 618.41 537.71 613.28 521.64 610.94
  A 0.58 0.58 0.0 0 0 520.99 611.40
  C 518.27 624.58 510.47 640.20 495.45 642.32
  C 475.99 645.08 456.89 641.95 442.02 628.34
  C 432.45 619.58 416.06 620.85 404.91 624.11
  A 1.79 1.79 0.0 0 1 402.64 622.11
  C 406.04 600.22 418.88 582.57 435.68 569.18
  Q 437.20 567.98 438.93 567.20
  C 471.69 552.56 509.86 555.09 524.13 593.54
  A 1.13 1.13 0.0 0 0 524.78 594.19
  L 563.01 608.46
  A 0.15 0.15 0.0 0 0 563.19 608.24
  C 540.43 569.66 503.70 521.42 457.70 510.77
  Q 457.24 510.66 456.99 510.24
  C 454.34 505.70 455.63 500.43 461.39 500.10
  Q 466.21 499.82 471.73 501.57
  C 525.95 518.82 569.15 561.03 595.14 610.62
  Q 595.22 610.76 595.23 610.96
  Q 595.24 611.17 595.28 611.31
  A 0.33 0.32 36.9 0 0 595.92 611.22
  C 593.66 548.33 561.95 491.69 501.32 468.32
  A 0.55 0.55 0.0 0 0 500.58 468.74
  C 498.58 481.12 490.57 492.25 477.68 494.67
  C 458.75 498.23 438.57 489.63 423.38 478.47
  Q 416.55 473.45 414.06 472.28
  C 404.40 467.73 392.78 467.49 382.52 469.91
  Q 382.02 470.03 381.57 469.77
  C 377.80 467.57 378.42 460.62 379.69 457.24
  C 394.08 418.89 458.08 383.77 494.93 412.89
  C 509.24 424.19 510.65 436.46 505.03 453.01
  Q 504.86 453.53 505.35 453.75
  C 524.60 462.54 544.55 472.13 561.67 484.67
  A 0.25 0.25 0.0 0 0 562.04 484.37
  C 555.20 469.74 548.19 454.20 539.02 440.93
  C 535.72 436.15 530.59 433.93 529.09 427.84
  C 526.53 417.39 538.52 418.23 543.02 423.23
  Q 564.22 446.78 588.39 479.62
  C 594.48 487.89 599.55 495.68 604.43 504.15
  A 0.26 0.26 0.0 0 0 604.92 504.02
  L 604.98 424.67
  A 0.84 0.84 0.0 0 0 604.28 423.84
  C 580.56 419.75 559.68 404.78 560.32 378.26
  C 560.78 359.20 573.59 341.03 589.77 331.80
  C 598.35 326.91 602.23 317.24 604.60 308.16
  Q 605.57 304.42 607.02 302.93
  C 609.47 300.43 615.06 298.16 617.01 302.87
  C 625.88 324.40 642.71 341.72 661.38 355.16
  Q 662.37 355.87 662.74 357.00
  C 674.32 392.30 658.31 423.30 618.71 424.42
  A 0.90 0.89 -1.6 0 0 617.84 425.33
  Q 618.56 460.84 619.23 496.62
  C 619.30 500.38 619.70 502.92 621.73 505.75
  A 0.60 0.60 0.0 0 0 622.80 505.55
  C 624.00 500.86 624.04 495.55 626.34 491.35
  Q 642.00 462.75 660.94 436.19
  Q 668.40 425.73 677.82 417.07
  C 678.60 416.35 679.92 416.01 680.83 415.25
  C 684.70 412.00 690.70 411.54 695.41 412.60
  C 698.44 413.28 703.45 416.80 699.69 420.18
  Q 680.51 437.45 664.23 458.97
  C 656.16 469.62 648.48 482.42 646.66 495.86
  A 0.37 0.37 0.0 0 0 647.29 496.18
  Q 669.90 474.22 695.52 455.77
  Q 698.51 453.61 703.65 451.55
  C 706.59 450.37 710.84 450.15 714.33 447.71
  Q 714.72 447.44 714.52 447.00
  C 711.74 441.05 709.81 433.18 712.37 426.94
  C 715.59 419.07 727.92 412.91 735.53 410.77
  C 760.77 403.70 791.33 413.39 812.05 428.61
  C 818.62 433.44 830.36 442.29 833.53 449.88
  C 835.01 453.44 834.53 458.58 834.83 462.72
  A 0.77 0.77 0.0 0 1 833.97 463.54
  C 825.00 462.53 808.54 461.92 801.77 469.16
  C 788.03 483.86 769.86 495.35 749.56 498.10
  Q 749.00 498.18 749.25 498.69
  C 750.83 501.96 750.66 505.66 747.52 508.03
  Q 720.53 528.44 697.30 553.05
  Q 682.55 568.67 672.93 587.86
  C 670.74 592.22 671.15 597.63 670.70 602.44
  C 670.51 604.36 667.21 605.51 667.09 606.94
  Q 667.00 607.93 667.85 607.41
  C 677.36 601.52 688.55 595.39 699.59 593.02
  Q 700.11 592.91 700.14 592.38
  Q 700.64 582.79 701.30 573.20
  Q 701.45 570.93 702.62 569.12
  C 707.27 561.94 717.39 550.19 726.00 550.59
  C 736.16 551.06 746.49 550.75 756.68 550.75
  C 758.13 550.75 760.91 551.67 762.16 552.18
  C 785.02 561.64 813.87 583.78 814.12 611.39
  Q 814.17 617.52 814.30 623.78
  A 0.47 0.47 0.0 0 1 813.73 624.25
  Q 804.55 622.35 795.25 621.34
  C 790.88 620.86 787.86 621.44 784.22 624.31
  Q 770.35 635.23 754.36 642.77
  C 746.07 646.68 739.91 647.09 731.52 644.67
  C 718.44 640.89 705.51 634.18 702.39 619.75
  C 701.68 616.48 702.00 608.10 704.67 605.70
  A 0.60 0.60 0.0 0 0 704.09 604.68
  C 685.87 610.39 662.35 622.99 658.69 643.02
  Q 658.42 644.52 659.09 645.17
  C 703.78 688.34 777.92 671.08 817.04 630.54
  C 840.44 606.29 856.62 573.18 864.99 541.20
  Q 868.54 527.63 868.62 520.69
  C 869.25 468.80 851.80 414.48 813.80 377.72
  Q 813.45 377.38 812.96 377.29
  Q 811.70 377.05 811.05 376.45
  C 763.45 332.48 698.36 296.71 632.30 294.41
  C 624.62 294.14 617.13 292.91 609.49 293.23
  C 544.09 295.97 481.21 319.68 430.79 361.48
  Q 430.54 361.69 430.00 361.74
  Q 429.87 361.75 429.74 361.74
  A 1.21 1.20 27.5 0 0 428.81 362.03
  Q 416.51 372.68 406.52 385.52
  C 363.10 441.33 331.42 531.86 375.97 596.78
  Q 376.17 597.07 376.20 597.42
  Q 376.23 597.79 376.27 598.13
  Q 376.34 598.67 376.66 599.11
  Z
  M 498.68 419.05
  A 0.33 0.33 0.0 0 0 498.15 419.43
  Q 498.76 420.42 500.12 421.39
  Q 501.07 422.06 500.34 421.15
  L 498.68 419.05
  Z
  M 643.31 525.06
  C 636.46 534.03 633.11 541.74 633.19 553.75
  Q 633.38 582.87 633.54 612.04
  Q 633.55 612.62 634.00 612.26
  C 640.52 606.97 643.06 596.91 646.98 589.85
  Q 661.34 563.98 680.59 540.60
  Q 688.97 530.43 699.37 523.07
  C 712.84 513.53 724.98 503.40 737.93 496.41
  Q 738.58 496.06 737.88 495.82
  C 723.57 490.80 712.14 480.42 716.45 463.92
  C 716.75 462.79 717.89 461.57 717.69 460.25
  Q 717.56 459.37 716.78 459.81
  Q 690.04 474.97 666.67 494.42
  C 658.28 501.42 648.53 510.64 645.36 521.02
  Q 644.68 523.27 643.31 525.06
  Z
  M 479.74 507.29
  C 523.86 524.22 560.28 558.84 584.64 598.71
  Q 584.82 599.00 585.00 598.72
  Q 585.15 598.49 585.01 598.25
  C 561.23 558.39 523.95 523.41 480.15 506.47
  Q 480.00 506.41 480.00 506.26
  Q 480.00 506.12 480.00 505.99
  A 0.35 0.35 0.0 0 0 479.42 505.74
  Q 478.87 506.22 479.11 506.77
  Q 479.24 507.10 479.74 507.29
  Z
  M 471.49 561.82
  C 492.15 560.43 509.33 570.16 518.41 588.67
  Q 518.49 588.84 518.67 588.78
  Q 518.80 588.73 518.94 588.69
  Q 519.17 588.62 519.06 588.41
  C 509.23 569.30 493.48 559.97 471.81 561.29
  Q 471.57 561.30 471.35 561.48
  Q 470.90 561.86 471.49 561.82
  Z
  M 521.04 593.78
  Q 521.25 595.47 522.61 596.43
  A 0.30 0.30 0.0 0 0 523.02 596.01
  L 521.27 593.69
  Q 520.99 593.31 521.04 593.78
  Z
  M 373.19 599.80
  L 367.00 604.35
  A 0.01 0.01 0.0 0 0 367.00 604.36
  L 367.04 604.43
  A 1.97 0.71 -36.3 0 0 369.05 603.84
  L 372.08 601.61
  A 1.97 0.71 -36.3 0 0 373.25 599.87
  L 373.20 599.81
  A 0.01 0.01 0.0 0 0 373.19 599.80
  Z
  M 586.9697 601.3227
  A 0.27 0.27 0.0 0 0 586.6020 601.2200
  L 586.5323 601.2592
  A 0.27 0.27 0.0 0 0 586.4296 601.6270
  L 592.8703 613.0573
  A 0.27 0.27 0.0 0 0 593.2380 613.1600
  L 593.3077 613.1208
  A 0.27 0.27 0.0 0 0 593.4104 612.7530
  L 586.9697 601.3227
  Z
  M 809.9489 643.2477
  A 0.26 0.26 0.0 0 0 809.5828 643.2138
  L 809.4136 643.3543
  A 0.26 0.26 0.0 0 0 809.3796 643.7204
  L 813.3911 648.5523
  A 0.26 0.26 0.0 0 0 813.7572 648.5862
  L 813.9264 648.4457
  A 0.26 0.26 0.0 0 0 813.9604 648.0796
  L 809.9489 643.2477
  Z
  M 598.28 1099.29
  A 1.18 1.18 0.0 0 1 598.78 1100.91
  L 596.07 1105.87
  A 0.42 0.42 0.0 0 0 596.52 1106.49
  Q 596.87 1106.42 597.05 1106.05
  Q 598.25 1103.53 599.77 1101.14
  Q 600.07 1100.67 600.56 1100.93
  L 604.71 1103.14
  A 0.78 0.78 0.0 0 1 605.07 1104.12
  L 596.71 1125.33
  Q 596.42 1126.06 597.08 1125.64
  Q 602.98 1121.90 609.83 1120.57
  Q 610.47 1120.45 610.47 1119.80
  L 610.51 986.98
  Q 610.51 986.43 610.07 986.12
  Q 604.24 981.94 601.02 976.71
  Q 590.56 959.67 583.28 938.77
  Q 582.81 937.44 583.97 936.86
  A 0.34 0.34 0.0 0 0 583.74 936.22
  Q 583.21 936.34 582.99 936.89
  A 0.50 0.50 0.0 0 1 582.06 936.88
  C 580.32 932.41 576.50 930.87 572.08 932.97
  C 566.44 935.65 563.91 941.22 558.93 944.78
  Q 537.83 959.82 515.18 972.42
  Q 508.75 975.99 500.59 978.56
  C 495.14 980.28 491.26 977.47 493.09 971.88
  C 496.68 960.88 506.02 950.47 513.78 941.51
  C 561.60 886.21 583.39 810.17 583.32 738.06
  Q 583.32 737.59 582.85 737.58
  Q 579.25 737.49 578.01 736.82
  C 526.20 708.87 466.19 699.35 410.81 723.02
  Q 410.35 723.21 410.18 723.67
  C 402.20 744.36 394.08 765.02 386.67 785.92
  Q 336.98 926.02 287.42 1066.11
  Q 287.28 1066.51 287.69 1066.39
  C 390.65 1036.97 502.62 1051.43 598.28 1099.29
  Z
  M 719.68 964.51
  Q 686.50 962.48 657.36 946.84
  Q 653.47 944.76 651.17 944.79
  C 644.63 944.88 639.25 953.99 636.51 959.51
  Q 631.08 970.47 624.72 981.00
  Q 624.50 981.36 624.50 981.78
  L 624.49 1119.80
  Q 624.49 1120.27 624.94 1120.43
  L 634.66 1123.85
  Q 635.18 1124.03 635.35 1123.50
  C 636.45 1119.89 637.99 1111.96 640.79 1109.41
  C 667.52 1085.05 706.68 1070.45 741.70 1062.25
  C 803.54 1047.78 866.44 1047.63 929.39 1052.92
  Q 930.00 1052.98 929.78 1052.40
  L 805.39 729.31
  Q 805.09 728.54 805.89 728.34
  L 807.49 727.92
  A 0.30 0.30 0.0 0 0 807.52 727.35
  C 762.05 709.28 711.67 711.10 665.48 726.44
  Q 664.55 726.75 664.00 727.33
  Q 663.66 727.69 663.18 727.75
  L 644.07 730.11
  A 0.33 0.33 0.0 0 0 643.77 730.43
  Q 642.46 767.43 648.67 803.91
  Q 649.87 810.98 651.88 823.64
  C 660.17 875.80 681.68 926.64 719.89 964.04
  Q 720.42 964.55 719.68 964.51
  Z
  M 582.05 730.61
  Q 581.31 731.61 581.36 731.85
  A 0.61 0.46 49.4 0 0 582.40 732.08
  L 582.53 730.80
  A 0.27 0.27 0.0 0 0 582.05 730.61
  Z
  M 840.60 730.45
  L 837.40 735.81
  A 0.01 0.01 0.0 0 0 837.41 735.83
  L 837.52 735.89
  A 0.97 0.74 -59.2 0 0 838.65 735.44
  L 840.86 731.73
  A 0.97 0.74 -59.2 0 0 840.73 730.52
  L 840.61 730.45
  A 0.01 0.01 0.0 0 0 840.60 730.45
  Z
  M 581.10 732.42
  Q 579.69 734.21 579.36 736.48
  A 0.10 0.09 59.8 0 0 579.54 736.53
  Q 580.30 734.50 581.31 732.56
  A 0.13 0.13 0.0 0 0 581.10 732.42
  Z
  M 391.5264 733.5479
  A 0.64 0.51 -15.6 0 0 390.7729 733.2288
  A 0.64 0.51 -15.6 0 0 390.2936 733.8921
  A 0.64 0.51 -15.6 0 0 391.0471 734.2112
  A 0.64 0.51 -15.6 0 0 391.5264 733.5479
  Z
  M 973.44 1125.73
  L 992.08 1132.91
  Q 993.10 1133.30 992.67 1132.29
  Q 909.32 934.95 825.73 737.04
  Q 825.07 735.50 823.31 735.06
  Q 822.67 734.91 822.91 735.52
  L 972.70 1125.00
  A 1.29 1.28 89.4 0 0 973.44 1125.73
  Z
  M 173.94 1162.94
  L 196.66 1149.35
  A 0.62 0.61 -3.3 0 0 196.91 1149.07
  L 374.44 745.68
  Q 375.03 744.34 373.89 745.26
  Q 366.75 750.98 359.94 757.88
  C 356.57 761.30 354.90 765.21 352.96 769.48
  Q 264.15 964.74 175.19 1159.94
  Q 174.55 1161.32 173.69 1162.68
  A 0.19 0.18 -89.3 0 0 173.94 1162.94
  Z
  M 1003.41 1137.72
  Q 1019.98 1144.85 1035.92 1153.30
  Q 1036.57 1153.65 1036.24 1152.99
  Q 944.37 967.22 852.73 781.32
  Q 852.71 781.27 852.65 781.26
  Q 852.49 781.22 852.34 781.30
  Q 852.31 781.31 852.32 781.34
  L 1003.32 1137.62
  A 0.21 0.17 87.4 0 0 1003.41 1137.72
  Z
  M 239.98 1119.24
  A 0.39 0.39 0.0 0 1 239.49 1118.73
  L 360.85 812.30
  Q 360.91 812.14 360.75 812.08
  Q 360.61 812.03 360.48 811.99
  Q 360.28 811.93 360.21 812.12
  Q 359.26 814.56 358.20 816.98
  Q 287.69 978.02 216.99 1139.02
  Q 216.72 1139.63 217.33 1139.36
  C 273.93 1114.33 334.70 1104.31 396.43 1107.20
  Q 487.97 1111.48 573.40 1145.01
  Q 573.95 1145.23 574.16 1144.68
  L 578.22 1134.19
  Q 578.46 1133.59 577.86 1133.33
  C 477.33 1090.62 359.07 1076.63 254.58 1113.90
  Q 254.01 1114.11 253.78 1113.55
  C 252.98 1111.59 252.92 1108.97 250.89 1107.83
  Q 250.59 1107.66 250.77 1107.96
  Q 252.41 1110.79 253.28 1114.04
  Q 253.42 1114.54 252.93 1114.71
  L 239.98 1119.24
  Z
  M 743.59 1091.16
  C 807.88 1075.08 874.29 1074.00 939.97 1080.14
  A 0.31 0.31 0.0 0 0 940.29 1079.72
  L 935.85 1068.20
  A 0.90 0.90 0.0 0 0 935.09 1067.62
  C 878.77 1061.78 821.32 1061.79 765.44 1071.65
  C 726.63 1078.49 687.30 1091.51 655.20 1115.19
  C 649.87 1119.12 648.69 1127.37 646.82 1133.30
  A 0.27 0.26 -9.4 0 0 647.23 1133.59
  C 675.70 1112.96 709.65 1099.64 743.59 1091.16
  Z
  M 264.04 1095.83
  C 369.25 1063.88 483.26 1077.46 583.42 1119.76
  A 0.44 0.44 0.0 0 0 584.00 1119.52
  L 587.53 1110.52
  A 0.62 0.62 0.0 0 0 587.24 1109.74
  Q 579.91 1105.94 568.07 1100.95
  C 477.79 1062.91 376.92 1052.79 282.55 1082.75
  C 278.19 1084.14 272.53 1086.79 267.15 1088.12
  A 0.99 0.97 4.2 0 0 266.49 1088.68
  L 263.64 1095.38
  Q 263.36 1096.04 264.04 1095.83
  Z
  M 800.27 1101.18
  C 852.86 1096.32 904.08 1104.12 955.12 1119.65
  Q 955.77 1119.85 955.52 1119.21
  L 946.35 1095.39
  A 0.97 0.96 80.4 0 0 945.48 1094.77
  Q 944.51 1094.72 942.75 1094.54
  C 873.49 1087.26 804.27 1088.61 737.30 1106.91
  C 708.03 1114.91 679.18 1126.72 654.55 1144.71
  A 0.86 0.84 64.0 0 0 654.24 1145.64
  L 656.44 1152.98
  Q 656.55 1153.34 656.86 1153.12
  Q 721.61 1108.45 800.27 1101.18
  Z
  M 657.19 1165.44
  Q 656.81 1165.79 657.13 1166.31
  A 0.53 0.53 0.0 0 0 658.10 1166.12
  L 658.24 1165.24
  A 0.41 0.41 0.0 0 0 657.93 1164.77
  Q 657.12 1164.58 657.19 1165.44
  Z
  M 1025.26 1172.52
  L 1023.20 1175.48
  A 0.42 0.41 -6.6 0 0 1023.85 1175.99
  Q 1025.10 1174.61 1025.96 1172.94
  A 0.41 0.41 0.0 0 0 1025.26 1172.52
  Z
  M 163.42 1183.19
  Q 163.85 1183.84 164.11 1183.77
  A 1.42 1.42 0.0 0 0 163.92 1180.97
  Q 163.38 1180.92 162.59 1181.54
  Q 162.18 1181.86 162.43 1182.30
  Q 162.58 1182.57 162.86 1182.71
  Q 163.21 1182.87 163.42 1183.19
  Z
  M 606.31 1203.71
  Q 605.21 1205.39 606.21 1207.06
  Q 606.50 1207.55 606.50 1206.98
  L 606.50 1203.77
  Q 606.50 1203.42 606.31 1203.71
  Z"
/>
<path fill="#291973" d="
  M 872.49 339.48
  L 844.69 369.31
  Q 844.25 369.77 843.80 369.34
  L 838.71 364.52
  A 0.61 0.60 -46.7 0 1 838.69 363.67
  L 856.06 345.07
  Q 856.36 344.75 856.04 344.44
  Q 846.10 334.63 840.78 330.26
  C 835.80 326.17 828.88 331.75 831.97 336.89
  C 834.19 340.60 838.79 340.46 840.41 336.04
  Q 840.65 335.39 841.15 335.86
  L 846.39 340.85
  A 0.72 0.70 -53.5 0 1 846.51 341.72
  C 841.07 351.14 832.03 348.02 826.49 341.02
  C 820.92 334.01 824.36 327.73 830.24 322.74
  C 835.73 318.08 842.02 322.05 846.54 326.15
  Q 853.91 332.81 861.08 339.68
  Q 861.49 340.07 861.88 339.66
  L 866.98 334.22
  A 0.83 0.82 -47.2 0 0 866.94 333.05
  L 840.13 308.07
  Q 839.74 307.70 840.10 307.31
  L 844.05 303.00
  Q 844.43 302.59 844.84 302.97
  L 883.36 338.90
  A 0.54 0.53 -47.6 0 1 883.39 339.66
  L 879.27 344.11
  A 0.51 0.50 -46.2 0 1 878.54 344.13
  L 873.81 339.45
  A 0.93 0.92 -46.1 0 0 872.49 339.48
  Z"
/>
<path fill="#291973" d="
  M 335.31 368.60
  L 322.75 371.94
  A 2.29 2.26 58.6 0 1 320.61 371.41
  L 308.65 360.25
  Q 308.27 359.89 307.92 360.27
  L 305.13 363.30
  A 0.62 0.61 -46.0 0 1 304.26 363.32
  L 300.10 359.33
  A 0.59 0.59 0.0 0 1 300.07 358.50
  L 313.47 344.10
  Q 313.79 343.75 313.55 343.35
  L 313.10 342.60
  Q 312.86 342.20 313.21 341.89
  L 343.44 314.18
  Q 343.59 314.03 343.40 313.94
  Q 329.04 307.08 313.80 311.38
  Q 313.19 311.55 313.48 310.98
  L 316.76 304.46
  A 0.84 0.83 -80.2 0 1 317.39 304.01
  C 328.58 302.61 336.39 306.24 345.59 311.90
  Q 346.05 312.18 346.46 311.82
  L 351.57 307.29
  A 0.96 0.96 0.0 0 1 352.91 307.35
  L 356.62 311.32
  A 0.51 0.50 47.8 0 1 356.59 312.04
  L 351.93 316.22
  A 0.67 0.67 0.0 0 0 351.88 317.17
  L 379.36 347.68
  A 0.49 0.49 0.0 0 1 379.33 348.37
  L 373.99 353.14
  A 0.53 0.52 -41.6 0 1 373.24 353.10
  L 345.68 322.53
  Q 345.34 322.15 344.96 322.49
  L 332.44 333.83
  Q 331.96 334.27 332.43 334.71
  L 362.46 362.68
  Q 362.96 363.14 362.50 363.64
  L 357.78 368.68
  Q 357.35 369.13 356.89 368.71
  L 344.95 357.62
  A 0.32 0.32 0.0 0 0 344.42 357.80
  L 339.88 385.31
  Q 339.78 385.96 339.12 385.92
  L 332.40 385.44
  Q 331.88 385.40 332.00 384.89
  L 335.75 369.03
  Q 335.88 368.45 335.31 368.60
  Z
  M 313.85 353.73
  A 0.52 0.52 0.0 0 0 313.87 354.47
  L 324.84 364.78
  A 0.52 0.52 0.0 0 0 325.31 364.91
  L 336.76 362.31
  A 0.52 0.52 0.0 0 0 337.15 361.92
  L 339.25 352.64
  A 0.52 0.52 0.0 0 0 339.10 352.15
  L 326.84 340.67
  A 0.52 0.52 0.0 0 0 326.10 340.70
  L 313.85 353.73
  Z"
/>
<path fill="#291973" d="
  M 336.43 318.26
  Q 336.90 318.38 336.91 318.86
  Q 336.94 320.48 334.93 320.55
  C 330.79 320.70 326.32 320.63 322.45 321.77
  Q 313.27 324.48 305.37 330.00
  Q 304.84 330.37 304.73 329.73
  L 303.64 323.32
  Q 303.54 322.71 304.09 322.40
  Q 319.41 313.95 336.43 318.26
  Z"
/>
<path fill="#291973" d="
  M 909.17 402.22
  C 914.01 402.59 917.10 397.89 917.92 393.30
  Q 918.00 392.84 917.76 392.44
  L 910.11 379.84
  A 0.62 0.61 58.5 0 1 910.31 378.99
  L 915.20 376.05
  Q 915.77 375.70 916.12 376.28
  L 951.64 435.36
  A 0.62 0.62 0.0 0 1 951.43 436.21
  L 946.32 439.30
  A 0.63 0.62 58.3 0 1 945.46 439.09
  L 942.12 433.59
  A 0.79 0.78 58.7 0 0 941.04 433.32
  L 906.21 454.36
  Q 905.59 454.73 905.21 454.11
  L 901.56 448.12
  A 0.53 0.52 59.1 0 1 901.74 447.39
  L 911.72 441.49
  A 0.50 0.50 0.0 0 0 911.71 440.63
  Q 908.10 438.52 906.35 434.63
  A 0.68 0.67 -13.7 0 0 905.67 434.22
  C 900.52 434.65 896.29 435.19 892.38 431.15
  Q 885.66 424.21 884.23 415.76
  C 883.22 409.79 889.89 401.71 893.80 397.71
  A 0.96 0.95 59.0 0 0 894.03 396.77
  L 892.87 393.09
  A 0.60 0.59 -23.7 0 1 893.15 392.39
  L 898.21 389.48
  Q 898.79 389.14 898.91 389.81
  C 899.78 394.92 903.44 401.77 909.17 402.22
  Z
  M 926.15 428.74
  A 0.51 0.51 0.0 0 1 925.30 428.51
  C 924.02 423.75 917.81 419.46 913.74 424.25
  C 910.27 428.33 914.62 434.66 918.28 436.92
  Q 918.73 437.20 919.18 436.93
  L 936.94 426.22
  A 0.63 0.63 0.0 0 0 937.15 425.35
  L 922.23 400.51
  A 0.43 0.43 0.0 0 0 921.44 400.65
  Q 919.85 409.13 910.94 410.52
  C 906.10 411.27 902.37 407.05 899.44 403.89
  Q 899.07 403.49 898.65 403.84
  Q 886.25 414.13 897.68 426.01
  Q 900.27 428.71 903.82 427.88
  Q 904.30 427.77 904.35 427.28
  Q 905.60 416.96 915.27 414.67
  C 921.78 413.12 926.37 418.06 930.01 423.01
  A 1.55 1.54 -40.8 0 1 929.86 425.01
  L 926.15 428.74
  Z"
/>
<path fill="#291973" d="
  M 296.40 427.94
  C 297.10 435.80 293.56 443.88 288.41 449.25
  C 281.89 456.05 271.36 454.35 263.82 450.11
  A 0.60 0.59 36.0 0 1 263.67 449.19
  C 266.12 446.58 270.53 440.05 269.17 436.31
  C 267.94 432.94 262.85 431.79 260.08 433.74
  C 257.35 435.67 253.80 443.92 251.94 447.12
  Q 251.65 447.62 251.14 447.34
  L 246.08 444.64
  Q 245.58 444.38 245.86 443.88
  L 271.91 396.97
  Q 272.21 396.45 272.73 396.74
  L 277.67 399.51
  Q 278.22 399.82 277.91 400.37
  L 275.12 405.29
  A 0.73 0.72 29.6 0 0 275.40 406.27
  L 311.16 426.10
  Q 311.67 426.39 311.39 426.90
  L 308.05 432.95
  A 0.68 0.68 0.0 0 1 307.12 433.22
  L 296.93 427.59
  Q 296.34 427.27 296.40 427.94
  Z
  M 264.34 425.93
  C 268.75 424.41 272.84 424.92 275.65 428.50
  C 279.19 433.01 276.35 440.17 273.33 444.31
  Q 272.99 444.78 273.56 444.91
  C 278.31 446.02 282.34 445.61 285.19 441.67
  Q 291.27 433.28 288.76 423.46
  Q 288.64 422.97 288.20 422.73
  L 271.33 413.38
  Q 270.85 413.11 270.58 413.59
  L 263.96 425.48
  Q 263.56 426.20 264.34 425.93
  Z"
/>
<path fill="#291973" d="
  M 958.61 474.01
  L 948.87 448.75
  Q 948.66 448.22 949.20 448.01
  L 954.57 446.00
  A 0.66 0.66 0.0 0 1 955.42 446.39
  L 971.02 487.02
  A 0.66 0.66 0.0 0 1 970.63 487.87
  L 965.27 489.88
  Q 964.74 490.08 964.54 489.55
  L 961.47 481.59
  A 0.50 0.49 -21.5 0 0 960.82 481.31
  L 950.95 485.16
  Q 950.47 485.35 950.28 484.88
  Q 946.88 476.59 943.75 468.31
  C 942.38 464.67 936.88 465.22 937.30 469.10
  C 938.05 475.93 945.25 482.49 943.37 489.39
  C 941.77 495.26 935.82 498.38 930.00 497.35
  C 921.22 495.81 915.46 482.86 915.01 475.24
  Q 914.49 466.34 922.74 461.34
  Q 923.10 461.12 923.25 461.52
  L 925.75 467.99
  A 0.60 0.60 0.0 0 1 925.50 468.72
  C 922.82 470.26 921.38 472.20 921.93 475.48
  C 922.70 480.11 928.64 495.65 935.72 487.38
  Q 936.04 487.00 936.02 486.49
  C 935.70 478.98 929.20 473.26 930.67 465.52
  Q 932.05 458.27 940.73 457.26
  C 947.29 456.49 951.95 471.60 953.58 476.04
  A 0.59 0.58 68.8 0 0 954.34 476.38
  L 958.24 474.86
  Q 958.85 474.62 958.61 474.01
  Z"
/>
<path fill="#291973" d="
  M 244.34 468.13
  L 242.36 473.10
  A 0.98 0.98 0.0 0 1 241.06 473.64
  L 236.15 471.53
  Q 235.61 471.30 235.83 470.77
  L 237.80 465.97
  A 1.29 1.29 0.0 0 0 236.60 464.19
  Q 228.82 464.26 222.13 467.85
  C 212.29 473.12 221.36 481.65 229.07 479.50
  Q 229.72 479.32 229.46 479.93
  L 227.16 485.56
  Q 226.95 486.07 226.44 486.26
  C 215.35 490.42 207.82 478.19 211.84 468.88
  C 216.16 458.89 231.31 457.19 240.91 458.29
  A 0.77 0.75 13.6 0 0 241.70 457.82
  L 244.29 451.42
  Q 244.51 450.87 245.06 451.09
  L 249.84 452.95
  A 0.62 0.61 21.9 0 1 250.19 453.76
  L 247.94 459.20
  A 0.72 0.71 22.2 0 0 248.34 460.14
  L 286.15 475.46
  Q 286.82 475.73 286.55 476.40
  L 283.97 482.75
  Q 283.74 483.33 283.16 483.09
  L 245.19 467.77
  Q 244.59 467.52 244.34 468.13
  Z"
/>
<path fill="#291973" d="
  M 1048.77 459.57
  L 1065.85 461.10
  A 0.40 0.40 0.0 0 1 1066.04 461.83
  L 1052.09 471.79
  A 0.40 0.40 0.0 0 1 1051.47 471.57
  L 1048.35 460.07
  A 0.40 0.40 0.0 0 1 1048.77 459.57
  Z"
/>
<path fill="#291973" d="
  M 243.57 496.18
  L 235.42 494.05
  A 0.63 0.63 0.0 0 0 234.65 494.50
  L 226.20 525.81
  Q 226.04 526.42 225.43 526.25
  L 220.09 524.82
  A 0.77 0.77 0.0 0 1 219.55 523.88
  L 231.96 477.49
  A 0.63 0.63 0.0 0 1 232.74 477.04
  L 238.26 478.57
  A 0.99 0.98 15.2 0 1 238.95 479.77
  L 237.37 485.74
  Q 237.24 486.24 237.74 486.38
  L 277.31 497.03
  Q 277.99 497.21 277.81 497.88
  L 276.01 504.61
  A 0.55 0.54 -75.1 0 1 275.35 505.00
  L 252.21 498.77
  Q 251.62 498.62 251.26 499.11
  C 247.05 504.81 241.48 518.89 251.72 522.22
  C 260.32 525.01 262.91 518.30 266.19 512.45
  Q 266.46 511.96 266.88 512.34
  L 271.70 516.62
  A 1.01 1.01 0.0 0 1 271.91 517.87
  C 266.74 527.05 260.56 534.62 248.62 529.90
  C 233.44 523.91 237.22 508.20 243.91 497.03
  A 0.58 0.57 -67.3 0 0 243.57 496.18
  Z"
/>
<circle fill="#291973" cx="906.01" cy="491.09" r="5.63"/>
<path fill="#291973" d="
  M 1079.44 505.19
  A 0.88 0.88 0.0 0 1 1080.44 505.94
  L 1082.05 517.13
  A 7.21 5.71 81.8 0 1 1077.43 525.08
  L 1076.50 525.22
  A 7.21 5.71 81.8 0 1 1069.82 518.90
  L 1068.21 507.70
  A 0.88 0.88 0.0 0 1 1068.95 506.71
  L 1079.44 505.19
  Z"
/>
<path fill="#291973" d="
  M 979.72 557.27
  A 0.59 0.59 0.0 0 0 979.03 556.80
  L 938.71 564.66
  Q 938.16 564.76 938.05 564.22
  L 936.66 557.09
  Q 936.56 556.54 937.11 556.43
  L 977.22 548.60
  Q 977.99 548.45 977.84 547.69
  L 975.12 533.58
  A 0.49 0.49 0.0 0 0 974.24 533.39
  Q 970.76 538.30 965.04 540.47
  C 958.77 542.86 948.23 544.16 943.06 538.77
  C 933.81 529.12 940.28 512.84 955.24 515.56
  A 0.81 0.80 0.1 0 1 955.89 516.20
  L 957.06 522.45
  Q 957.16 522.98 956.63 522.95
  C 952.35 522.75 944.71 521.77 944.60 528.51
  C 944.47 536.88 958.07 533.69 962.50 532.24
  Q 969.20 530.06 972.61 524.34
  Q 972.86 523.93 972.77 523.45
  L 969.87 508.48
  Q 969.76 507.94 970.31 507.83
  L 975.93 506.70
  A 0.63 0.63 0.0 0 1 976.68 507.20
  L 987.31 561.99
  Q 987.39 562.39 986.99 562.47
  L 981.50 563.58
  Q 980.93 563.70 980.82 563.12
  L 979.72 557.27
  Z"
/>
<path fill="#291973" d="
  M 223.78 547.25
  Q 227.73 543.07 233.69 543.30
  C 244.29 543.72 245.86 551.48 245.78 560.18
  A 0.60 0.59 4.3 0 0 246.30 560.78
  C 256.23 562.09 259.90 552.23 257.83 544.46
  Q 257.67 543.86 258.29 543.94
  L 265.17 544.83
  A 0.67 0.66 -87.0 0 1 265.75 545.48
  Q 265.79 550.87 264.26 557.47
  C 261.96 567.45 253.95 568.48 245.29 568.26
  A 0.64 0.64 0.0 0 0 244.67 568.70
  L 243.65 571.89
  Q 243.46 572.47 242.86 572.39
  L 236.27 571.52
  A 0.40 0.40 0.0 0 1 235.99 570.90
  Q 240.57 563.97 238.56 556.32
  C 237.22 551.22 231.87 550.46 227.70 552.72
  Q 226.05 553.62 223.39 557.53
  C 220.70 561.50 220.58 568.69 219.93 573.42
  A 0.57 0.56 8.2 0 1 219.29 573.89
  L 213.71 573.13
  Q 212.98 573.03 213.09 572.30
  L 218.70 532.43
  Q 218.80 531.68 219.55 531.79
  L 224.71 532.54
  Q 225.30 532.63 225.21 533.21
  L 223.24 546.99
  Q 223.10 547.98 223.78 547.25
  Z"
/>
<path fill="#291973" d="
  M 1066.42 562.30
  L 1083.02 567.72
  A 0.33 0.33 0.0 0 1 1083.04 568.34
  L 1066.91 575.02
  A 0.33 0.33 0.0 0 1 1066.45 574.73
  L 1065.99 562.62
  A 0.33 0.33 0.0 0 1 1066.42 562.30
  Z"
/>
<path fill="#291973" d="
  M 953.34 605.40
  Q 947.09 595.12 953.03 585.32
  C 958.13 576.92 972.57 579.25 981.33 578.91
  Q 981.81 578.89 981.80 578.41
  L 981.63 573.57
  A 0.55 0.55 0.0 0 1 982.18 573.00
  L 987.94 573.00
  Q 988.63 573.00 988.64 573.69
  L 989.41 620.31
  A 0.65 0.65 0.0 0 1 988.76 620.97
  L 982.91 621.01
  Q 982.25 621.01 982.25 620.35
  L 982.25 614.47
  A 0.83 0.82 -0.3 0 0 981.41 613.65
  L 940.69 614.37
  Q 940.00 614.38 940.00 613.69
  L 940.00 606.66
  Q 940.00 606.07 940.59 606.07
  L 953.02 605.97
  Q 953.68 605.97 953.34 605.40
  Z
  M 981.41 587.45
  C 976.38 587.42 964.06 586.43 960.05 589.29
  C 954.62 593.17 957.19 601.45 961.52 605.46
  Q 961.90 605.81 962.43 605.80
  L 981.76 605.43
  A 0.37 0.36 89.2 0 0 982.12 605.05
  L 981.77 587.80
  Q 981.76 587.45 981.41 587.45
  Z"
/>
<path fill="#291973" d="
  M 242.19 621.78
  L 243.27 633.98
  A 0.58 0.58 0.0 0 0 243.95 634.50
  C 253.67 632.78 260.20 635.66 260.06 646.48
  Q 259.95 655.39 251.34 657.59
  C 241.34 660.13 238.09 651.76 237.61 643.83
  Q 237.58 643.33 237.08 643.33
  Q 228.83 643.46 224.22 644.44
  C 217.09 645.97 222.38 657.64 228.34 651.41
  Q 228.72 651.01 229.06 651.45
  L 232.47 655.81
  A 1.32 1.32 0.0 0 1 232.11 657.76
  C 214.99 668.01 208.21 643.66 218.19 637.50
  C 222.43 634.88 231.06 635.01 236.40 634.67
  Q 237.03 634.64 236.97 634.01
  L 235.90 621.84
  A 0.57 0.57 0.0 0 0 235.28 621.32
  L 220.20 622.61
  A 0.75 0.74 -2.5 0 0 219.52 623.35
  Q 219.52 625.34 219.80 627.25
  Q 220.04 628.81 218.66 628.85
  Q 218.27 628.86 218.26 629.25
  L 218.23 631.11
  A 0.65 0.65 0.0 0 1 217.58 631.75
  L 212.48 631.75
  A 1.37 1.37 0.0 0 1 211.12 630.25
  Q 212.16 619.39 211.31 608.53
  Q 211.28 608.07 211.52 607.66
  C 211.85 607.11 212.15 606.65 212.17 605.98
  Q 212.67 592.40 213.10 578.83
  Q 213.12 578.25 213.69 578.25
  L 218.94 578.25
  Q 219.37 578.25 219.36 578.68
  L 219.20 586.02
  Q 219.19 586.61 219.78 586.63
  L 260.68 588.02
  Q 261.33 588.05 261.31 588.69
  L 261.12 595.58
  Q 261.10 596.26 260.42 596.24
  L 219.30 594.76
  A 0.46 0.45 -87.5 0 0 218.83 595.20
  L 218.20 614.25
  Q 218.17 615.14 219.06 615.07
  L 259.59 611.57
  Q 260.16 611.52 260.21 612.09
  L 260.82 619.14
  Q 260.87 619.66 260.35 619.70
  L 242.67 621.22
  Q 242.14 621.26 242.19 621.78
  Z
  M 244.36 643.33
  C 241.77 654.78 258.02 652.11 252.62 643.07
  A 1.11 1.10 -17.1 0 0 251.63 642.55
  L 244.85 642.91
  Q 244.45 642.93 244.36 643.33
  Z"
/>
<path fill="#291973" d="
  M 919.69 614.06
  C 910.98 605.68 918.33 587.36 924.14 579.26
  A 1.36 1.35 34.9 0 1 926.01 578.93
  L 930.50 581.99
  A 0.47 0.47 0.0 0 1 930.60 582.68
  C 925.84 588.39 918.80 599.37 923.30 606.30
  C 924.96 608.85 928.39 608.82 929.42 605.68
  Q 930.58 602.14 929.07 597.36
  Q 928.88 596.74 929.53 596.75
  L 934.32 596.76
  Q 934.89 596.76 935.00 597.32
  C 936.16 603.02 935.47 613.30 929.17 615.97
  Q 923.96 618.17 919.69 614.06
  Z"
/>
<path fill="#291973" d="
  M 978.06 654.81
  Q 972.03 660.82 963.27 657.73
  C 956.47 655.32 956.20 647.86 956.02 641.96
  A 0.90 0.89 -86.5 0 0 955.28 641.11
  C 945.42 639.52 942.73 650.10 944.66 657.41
  Q 944.82 657.99 944.23 657.92
  L 937.47 657.15
  Q 937.01 657.10 936.97 656.65
  C 936.28 649.39 937.64 638.04 944.99 635.01
  Q 949.32 633.22 956.67 633.37
  Q 957.32 633.38 957.53 632.77
  L 958.62 629.52
  A 0.72 0.71 -76.9 0 1 959.38 629.04
  L 965.93 629.84
  A 0.44 0.44 0.0 0 1 966.24 630.51
  C 963.30 635.06 960.54 646.82 967.85 649.16
  C 973.28 650.90 977.15 647.01 979.65 642.69
  C 982.00 638.64 981.85 631.94 982.47 627.23
  Q 982.54 626.75 983.02 626.81
  L 988.92 627.55
  Q 989.46 627.62 989.40 628.17
  L 984.43 668.35
  Q 984.35 669.04 983.65 668.95
  L 977.31 668.16
  Q 976.86 668.10 976.92 667.66
  L 978.49 655.02
  Q 978.58 654.29 978.06 654.81
  Z"
/>
<path fill="#291973" d="
  M 136.97 640.70
  L 119.98 636.55
  A 0.32 0.32 0.0 0 1 119.91 635.95
  L 135.53 628.08
  A 0.32 0.32 0.0 0 1 135.99 628.33
  L 137.36 640.36
  A 0.32 0.32 0.0 0 1 136.97 640.70
  Z"
/>
<path fill="#291973" d="
  M 1080.86 669.87
  A 0.88 0.88 0.0 0 1 1081.59 670.88
  L 1080.40 678.20
  A 8.46 6.63 -80.8 0 1 1072.51 685.50
  L 1071.97 685.41
  A 8.46 6.63 -80.8 0 1 1066.78 676.00
  L 1067.97 668.67
  A 0.88 0.88 0.0 0 1 1068.98 667.95
  L 1080.86 669.87
  Z"
/>
<path fill="#291973" d="
  M 142.61 696.68
  C 157.87 692.82 159.26 699.86 161.94 712.17
  A 0.55 0.54 -13.5 0 1 161.54 712.82
  L 132.31 720.10
  Q 131.79 720.23 131.65 719.72
  C 127.88 706.36 127.93 700.39 142.61 696.68
  Z"
/>
<path fill="#291973" d="
  M 1057.90 769.88
  A 0.73 0.73 0.0 0 1 1058.37 770.80
  L 1054.81 781.86
  A 6.95 5.75 -72.2 0 1 1047.22 786.72
  L 1046.24 786.41
  A 6.95 5.75 -72.2 0 1 1042.89 778.04
  L 1046.45 766.97
  A 0.73 0.73 0.0 0 1 1047.36 766.50
  L 1057.90 769.88
  Z"
/>
<path fill="#291973" d="
  M 572.95 1031.21
  A 0.25 0.25 0.0 0 0 572.52 1031.03
  C 562.60 1040.41 548.84 1032.46 546.46 1020.76
  C 543.80 1007.74 552.01 995.12 566.19 996.18
  C 586.82 997.71 586.66 1025.11 583.53 1039.26
  C 579.39 1057.93 553.26 1063.74 547.47 1042.06
  Q 547.31 1041.44 547.94 1041.38
  L 557.23 1040.49
  Q 557.68 1040.44 557.73 1040.89
  C 558.15 1044.69 560.78 1047.26 564.73 1046.77
  C 571.78 1045.90 572.98 1037.00 572.95 1031.21
  Z
  M 565.1346 1027.4609
  A 10.85 7.79 85.8 0 0 572.1091 1016.0695
  A 10.85 7.79 85.8 0 0 563.5454 1005.8191
  A 10.85 7.79 85.8 0 0 556.5709 1017.2105
  A 10.85 7.79 85.8 0 0 565.1346 1027.4609
  Z"
/>
<path fill="#291973" d="
  M 504.72 1013.49
  C 499.94 1016.98 496.41 1019.66 491.33 1021.19
  Q 490.75 1021.36 490.75 1020.75
  L 490.75 1011.52
  A 0.61 0.60 80.5 0 1 491.15 1010.95
  Q 501.91 1007.11 507.12 997.05
  Q 507.41 996.50 508.02 996.50
  L 515.63 996.50
  Q 516.25 996.50 516.25 997.13
  L 516.25 1054.52
  A 0.77 0.76 0.0 0 1 515.48 1055.28
  L 506.09 1055.19
  A 0.85 0.85 0.0 0 1 505.25 1054.34
  L 505.25 1013.76
  Q 505.25 1013.11 504.72 1013.49
  Z"
/>
<path fill="#291973" d="
  M 716.75 1013.49
  A 0.31 0.31 0.0 0 0 716.23 1013.26
  Q 710.34 1018.52 702.92 1021.21
  Q 702.25 1021.45 702.25 1020.74
  L 702.25 1011.54
  Q 702.25 1011.15 702.62 1011.02
  Q 713.47 1007.15 718.69 996.98
  Q 718.94 996.50 719.48 996.50
  L 727.13 996.50
  Q 727.75 996.50 727.75 997.13
  L 727.75 1054.57
  A 0.64 0.64 0.0 0 1 727.11 1055.21
  L 717.30 1055.16
  Q 716.75 1055.16 716.75 1054.61
  L 716.75 1013.49
  Z"
/>
<path fill="#291973" d="
  M 654.91 1017.80
  C 677.14 1010.83 687.87 1037.47 673.49 1051.20
  C 662.53 1061.68 642.52 1057.05 640.57 1040.72
  A 0.53 0.53 0.0 0 1 641.05 1040.13
  L 651.54 1039.08
  A 0.56 0.55 -7.9 0 1 652.14 1039.53
  C 653.66 1048.22 664.82 1050.59 667.67 1041.48
  C 669.79 1034.70 668.13 1024.45 658.73 1025.20
  Q 654.72 1025.52 651.47 1029.06
  Q 651.13 1029.42 650.64 1029.35
  L 643.06 1028.25
  A 1.01 1.01 0.0 0 1 642.21 1027.06
  L 647.58 998.29
  Q 647.68 997.75 648.23 997.75
  L 676.50 997.75
  Q 677.25 997.75 677.25 998.50
  L 677.25 1007.75
  Q 677.25 1008.25 676.75 1008.25
  L 656.73 1008.25
  Q 656.26 1008.25 656.17 1008.71
  L 654.54 1017.47
  Q 654.45 1017.94 654.91 1017.80
  Z"
/>
<path fill="#291973" d="
  M 1127.19 1341.81
  Q 612.14 1341.69 97.25 1341.77
  A 0.33 0.33 0.0 0 1 96.99 1341.24
  L 189.06 1217.93
  Q 189.38 1217.50 189.92 1217.50
  L 1050.64 1217.50
  Q 1051.14 1217.50 1051.41 1217.93
  L 1127.68 1341.05
  A 0.59 0.57 -51.2 0 1 1127.73 1341.56
  Q 1127.52 1342.18 1127.19 1341.81
  Z
  M 307.00 1294.26
  L 307.00 1305.56
  Q 307.00 1306.05 307.49 1306.05
  L 315.89 1305.98
  Q 316.50 1305.97 316.50 1305.36
  L 316.50 1259.95
  Q 316.50 1259.47 316.99 1259.47
  L 329.23 1259.51
  Q 330.00 1259.51 330.00 1260.29
  L 330.00 1305.42
  Q 330.00 1306.03 330.61 1306.03
  L 338.64 1305.99
  Q 339.27 1305.98 339.27 1305.36
  L 339.24 1260.14
  Q 339.24 1259.51 339.86 1259.51
  L 359.77 1259.48
  Q 360.25 1259.48 360.25 1259.96
  L 360.25 1272.79
  Q 360.25 1273.41 359.63 1273.45
  C 356.82 1273.61 351.73 1272.60 351.19 1276.61
  A 1.11 1.11 0.0 0 0 351.39 1277.41
  C 352.70 1279.18 369.32 1298.39 369.26 1286.58
  Q 369.19 1273.46 369.28 1260.24
  A 0.49 0.49 0.0 0 1 369.77 1259.75
  L 382.00 1259.75
  Q 382.50 1259.75 382.50 1260.25
  L 382.50 1305.73
  Q 382.50 1306.28 383.05 1306.29
  L 391.23 1306.29
  Q 391.75 1306.30 391.75 1305.77
  L 391.75 1260.25
  Q 391.75 1259.75 392.25 1259.75
  L 396.52 1259.75
  A 0.52 0.52 0.0 0 0 397.04 1259.23
  L 397.08 1252.67
  A 0.91 0.91 0.0 0 0 396.17 1251.75
  L 337.50 1251.75
  Q 336.98 1251.75 336.64 1251.35
  L 316.61 1227.61
  Q 316.23 1227.16 315.75 1227.51
  L 310.62 1231.31
  A 0.87 0.87 0.0 0 0 310.54 1232.64
  L 330.43 1251.38
  A 0.36 0.36 0.0 0 1 330.19 1252.00
  L 269.29 1252.00
  A 0.64 0.64 0.0 0 0 268.65 1252.65
  L 268.76 1258.67
  Q 268.77 1259.23 269.33 1259.24
  Q 275.41 1259.33 281.49 1259.09
  C 287.72 1258.84 292.19 1278.12 275.55 1275.54
  Q 275.04 1275.46 275.05 1275.98
  Q 275.15 1283.50 279.59 1288.67
  Q 290.65 1301.53 306.49 1293.94
  Q 307.00 1293.70 307.00 1294.26
  Z
  M 716.00 1261.25
  L 716.00 1284.84
  A 1.56 1.55 62.6 0 1 715.72 1285.73
  C 711.86 1291.25 703.07 1292.35 700.92 1284.56
  C 698.54 1275.99 704.47 1273.12 711.63 1273.25
  A 0.50 0.49 82.5 0 0 712.11 1272.62
  L 710.40 1266.47
  A 0.66 0.66 0.0 0 0 709.66 1265.99
  C 697.53 1267.76 689.26 1271.38 692.30 1285.98
  C 694.48 1296.44 706.91 1299.77 715.71 1295.02
  A 0.55 0.55 0.0 0 1 716.52 1295.51
  L 716.46 1306.34
  Q 716.46 1306.98 717.09 1306.98
  L 724.73 1307.05
  Q 725.25 1307.05 725.26 1306.52
  L 725.33 1281.03
  A 0.79 0.70 65.5 0 1 725.44 1280.67
  Q 728.52 1276.13 730.07 1275.32
  C 735.49 1272.48 739.11 1275.51 739.98 1280.86
  C 740.95 1286.80 736.27 1292.05 732.21 1295.59
  A 0.72 0.72 0.0 0 0 732.26 1296.71
  L 737.90 1300.87
  A 0.81 0.81 0.0 0 0 738.98 1300.78
  C 743.87 1295.58 748.78 1290.34 749.25 1282.95
  C 750.04 1270.51 736.37 1260.98 726.15 1270.04
  Q 725.50 1270.62 725.50 1269.75
  L 725.50 1260.75
  Q 725.50 1260.00 726.25 1260.00
  L 758.94 1260.00
  Q 760.38 1260.00 760.38 1261.44
  L 760.33 1306.54
  A 0.46 0.46 0.0 0 0 760.79 1307.00
  L 769.00 1307.00
  Q 769.50 1307.00 769.50 1306.50
  L 769.50 1260.75
  A 0.50 0.50 0.0 0 1 770.00 1260.25
  L 784.00 1260.25
  Q 784.70 1260.25 784.45 1260.90
  C 779.37 1274.11 793.31 1278.63 803.07 1274.99
  A 0.50 0.50 0.0 0 1 803.74 1275.51
  C 802.93 1283.09 792.26 1287.24 787.33 1280.64
  A 0.83 0.83 0.0 0 0 786.08 1280.55
  L 781.49 1285.12
  A 0.81 0.81 0.0 0 0 781.46 1286.23
  Q 792.10 1297.84 805.11 1306.73
  A 0.39 0.39 0.0 0 0 805.64 1306.65
  L 810.01 1301.19
  A 0.50 0.50 0.0 0 0 809.94 1300.49
  L 798.09 1290.96
  Q 796.70 1289.85 798.47 1289.61
  C 812.03 1287.74 818.11 1271.60 810.94 1260.34
  Q 810.56 1259.75 811.27 1259.75
  L 823.13 1259.75
  A 0.38 0.38 0.0 0 1 823.51 1260.13
  L 823.50 1306.31
  Q 823.50 1306.80 824.00 1306.80
  L 831.98 1306.73
  Q 832.75 1306.72 832.75 1305.95
  L 832.75 1260.75
  A 0.50 0.50 0.0 0 1 833.25 1260.25
  L 885.09 1260.25
  Q 885.63 1260.25 885.63 1260.78
  L 885.75 1269.95
  Q 885.76 1270.71 885.00 1270.78
  Q 879.71 1271.24 875.52 1274.37
  Q 875.10 1274.69 874.70 1274.34
  C 867.52 1268.14 856.94 1266.70 849.58 1273.06
  C 844.47 1277.47 842.07 1286.18 845.84 1292.42
  Q 851.54 1301.85 861.95 1307.07
  A 2.46 2.45 29.7 0 0 865.11 1306.21
  L 868.31 1301.28
  A 0.57 0.57 0.0 0 0 868.08 1300.45
  Q 859.13 1296.24 856.82 1293.93
  C 849.97 1287.07 852.67 1273.71 864.52 1276.71
  Q 867.85 1277.56 869.64 1279.79
  A 0.87 0.84 -52.2 0 1 869.74 1280.69
  L 866.98 1286.51
  A 0.69 0.69 0.0 0 0 867.33 1287.44
  L 873.41 1290.09
  Q 874.39 1290.51 874.65 1289.48
  Q 876.72 1281.12 884.44 1277.59
  A 0.76 0.75 -12.4 0 1 885.51 1278.27
  L 885.48 1306.27
  Q 885.48 1306.75 885.96 1306.75
  L 894.25 1306.75
  A 0.51 0.50 -0.0 0 0 894.76 1306.25
  L 894.73 1260.48
  A 0.48 0.48 0.0 0 1 895.21 1260.00
  L 911.75 1260.00
  A 0.50 0.50 0.0 0 1 912.25 1260.50
  L 912.25 1275.27
  A 0.65 0.65 0.0 0 1 911.64 1275.92
  C 909.95 1276.04 905.68 1275.65 905.29 1277.91
  C 904.78 1280.89 913.67 1289.30 916.00 1291.21
  C 922.13 1296.22 921.20 1285.52 921.31 1283.16
  A 0.69 0.69 0.0 0 1 922.00 1282.50
  L 936.25 1282.50
  A 0.75 0.75 0.0 0 1 937.00 1283.25
  L 937.00 1305.74
  Q 937.00 1306.29 937.55 1306.29
  L 945.26 1306.30
  Q 946.01 1306.30 946.01 1305.55
  L 946.00 1260.38
  Q 946.00 1259.75 946.62 1259.75
  L 950.68 1259.75
  Q 951.30 1259.75 951.29 1259.13
  L 951.23 1253.86
  Q 951.22 1253.25 950.61 1253.25
  L 765.53 1253.25
  Q 765.12 1253.25 764.89 1252.92
  L 746.92 1228.07
  A 0.68 0.68 0.0 0 0 746.08 1227.85
  L 739.63 1230.87
  A 0.51 0.51 0.0 0 0 739.49 1231.70
  L 761.21 1252.77
  A 0.28 0.28 0.0 0 1 761.01 1253.25
  L 685.75 1253.25
  Q 685.00 1253.25 685.00 1254.00
  L 685.00 1260.12
  Q 685.00 1260.75 685.62 1260.75
  L 715.50 1260.75
  Q 716.00 1260.75 716.00 1261.25
  Z
  M 496.25 1260.75
  L 496.25 1284.25
  A 1.06 1.04 -29.8 0 1 496.10 1284.79
  C 492.04 1291.46 482.65 1291.96 480.84 1283.21
  C 479.24 1275.44 485.08 1272.54 491.68 1273.13
  A 0.48 0.48 0.0 0 0 492.19 1272.53
  L 490.55 1266.49
  Q 490.39 1265.90 489.78 1265.96
  C 483.55 1266.61 474.56 1268.17 472.67 1275.43
  C 468.68 1290.83 480.94 1301.82 495.87 1294.86
  Q 496.50 1294.57 496.50 1295.26
  L 496.50 1306.25
  Q 496.50 1306.75 497.00 1306.75
  L 505.25 1306.75
  Q 505.75 1306.75 505.75 1306.25
  L 505.75 1280.79
  Q 505.75 1280.36 505.99 1280.01
  C 507.96 1277.09 510.51 1273.96 514.16 1274.14
  C 518.15 1274.35 520.25 1278.03 520.21 1281.75
  C 520.14 1288.00 516.87 1290.93 512.15 1295.80
  Q 511.76 1296.19 512.21 1296.51
  L 518.05 1300.74
  Q 518.49 1301.06 518.88 1300.68
  Q 523.88 1295.87 526.62 1291.61
  C 535.64 1277.53 521.84 1258.52 506.52 1270.24
  Q 506.00 1270.64 506.00 1269.98
  L 506.00 1260.50
  A 0.50 0.50 0.0 0 1 506.50 1260.00
  L 545.09 1260.00
  A 0.66 0.65 -0.0 0 1 545.75 1260.65
  L 545.75 1275.26
  Q 545.75 1275.92 545.09 1275.96
  C 543.13 1276.07 538.99 1275.56 538.81 1278.30
  C 538.59 1281.59 547.01 1289.49 549.55 1291.55
  C 555.68 1296.50 554.68 1285.77 554.85 1283.47
  Q 554.89 1282.81 555.55 1282.82
  L 569.43 1282.86
  Q 570.50 1282.86 570.50 1283.93
  L 570.50 1305.97
  Q 570.50 1306.75 571.28 1306.75
  L 578.88 1306.75
  Q 579.51 1306.75 579.51 1306.12
  L 579.49 1260.50
  A 0.51 0.50 -0.0 0 1 580.00 1260.00
  L 607.27 1260.00
  Q 607.78 1260.00 607.78 1260.52
  L 607.69 1273.69
  Q 607.68 1274.31 607.21 1274.71
  C 602.69 1278.60 599.01 1271.22 597.67 1268.07
  A 0.78 0.77 -28.1 0 0 596.52 1267.73
  L 590.92 1271.44
  A 0.90 0.89 -32.1 0 0 590.64 1272.63
  Q 600.87 1290.10 613.66 1305.79
  A 0.70 0.70 0.0 0 0 614.63 1305.91
  L 620.78 1301.26
  A 0.56 0.56 0.0 0 0 620.84 1300.42
  Q 612.98 1292.48 606.90 1283.12
  A 0.40 0.40 0.0 0 1 607.22 1282.50
  C 619.91 1281.94 616.86 1268.59 617.07 1260.21
  Q 617.08 1259.75 617.54 1259.75
  L 631.22 1259.75
  Q 632.00 1259.75 632.00 1260.53
  L 632.00 1274.50
  A 0.50 0.50 0.0 0 1 631.50 1275.00
  L 617.99 1275.00
  A 0.34 0.34 0.0 0 0 617.71 1275.54
  L 621.87 1281.20
  Q 622.14 1281.57 622.60 1281.56
  L 631.45 1281.47
  A 0.55 0.54 -0.0 0 1 632.00 1282.01
  L 632.00 1305.81
  Q 632.00 1306.30 632.49 1306.30
  L 640.48 1306.23
  Q 641.25 1306.22 641.25 1305.45
  L 641.25 1260.38
  Q 641.25 1259.75 641.88 1259.75
  L 645.93 1259.75
  Q 646.54 1259.75 646.54 1259.14
  L 646.48 1253.61
  A 0.87 0.87 0.0 0 0 645.61 1252.75
  L 576.31 1252.79
  Q 575.85 1252.80 575.63 1252.41
  C 573.55 1248.90 570.55 1242.84 571.90 1238.95
  C 573.46 1234.46 579.22 1234.22 583.35 1235.24
  A 0.53 0.52 -83.1 0 0 584.00 1234.73
  L 584.00 1230.71
  Q 584.00 1230.01 583.36 1229.74
  C 571.55 1224.80 560.24 1233.85 566.56 1246.46
  Q 568.11 1249.55 569.67 1252.39
  A 0.34 0.34 0.0 0 1 569.37 1252.90
  L 465.77 1252.71
  Q 464.99 1252.71 465.00 1253.49
  L 465.01 1259.60
  A 0.65 0.65 0.0 0 0 465.66 1260.25
  L 495.75 1260.25
  Q 496.25 1260.25 496.25 1260.75
  Z
  M 728.73 1241.79
  Q 738.13 1246.42 747.06 1251.03
  C 749.22 1252.15 750.94 1252.53 753.21 1252.19
  A 0.29 0.29 0.0 0 0 753.35 1251.67
  L 733.30 1235.80
  Q 732.85 1235.45 732.50 1235.90
  L 728.55 1241.03
  A 0.51 0.51 0.0 0 0 728.73 1241.79
  Z
  M 420.2732 1259.9576
  A 0.42 0.42 0.0 0 0 419.8561 1259.5347
  L 409.9564 1259.4656
  A 0.42 0.42 0.0 0 0 409.5334 1259.8826
  L 409.4668 1269.4224
  A 0.42 0.42 0.0 0 0 409.8839 1269.8453
  L 419.7836 1269.9144
  A 0.42 0.42 0.0 0 0 420.2066 1269.4974
  L 420.2732 1259.9576
  Z
  M 420.2581 1289.3794
  A 0.60 0.60 0.0 0 0 419.6591 1288.7784
  L 410.0792 1288.7616
  A 0.60 0.60 0.0 0 0 409.4781 1289.3606
  L 409.4619 1298.6406
  A 0.60 0.60 0.0 0 0 410.0609 1299.2416
  L 419.6408 1299.2584
  A 0.60 0.60 0.0 0 0 420.2419 1298.6594
  L 420.2581 1289.3794
  Z
  M 955.67 1326.59
  A 0.46 0.46 0.0 0 0 955.62 1325.99
  L 938.89 1309.63
  A 0.46 0.46 0.0 0 0 938.24 1309.64
  L 933.02 1315.12
  A 0.46 0.46 0.0 0 0 933.08 1315.81
  L 952.53 1330.00
  A 0.46 0.46 0.0 0 0 953.17 1329.91
  L 955.67 1326.59
  Z
  M 622.68 1321.05
  C 631.54 1315.20 636.49 1325.15 628.67 1326.38
  C 620.42 1327.69 610.64 1323.51 603.89 1319.13
  A 0.74 0.74 0.0 0 0 602.88 1319.33
  L 599.57 1324.10
  Q 599.21 1324.62 599.77 1324.92
  Q 606.05 1328.23 612.43 1330.49
  C 620.45 1333.33 641.91 1335.10 640.97 1321.22
  C 640.27 1310.80 624.58 1313.06 618.82 1316.61
  Q 618.39 1316.88 618.72 1317.27
  L 621.88 1320.94
  A 0.61 0.61 0.0 0 0 622.68 1321.05
  Z"
/>
<path fill="#291973" d="
  M 804.45 1266.81
  C 797.24 1274.45 787.16 1264.93 794.19 1260.18
  C 798.41 1257.33 803.18 1260.49 804.84 1264.82
  A 1.91 1.90 56.2 0 1 804.45 1266.81
  Z"
/>
<path fill="#291973" d="
  M 307.22 1282.98
  C 302.55 1289.89 289.27 1293.57 286.05 1282.78
  Q 285.88 1282.22 286.42 1282.01
  Q 302.22 1275.83 294.00 1260.21
  A 0.35 0.34 75.9 0 1 294.30 1259.70
  L 307.01 1259.77
  Q 307.50 1259.77 307.50 1260.26
  L 307.50 1282.07
  A 1.62 1.60 62.5 0 1 307.22 1282.98
  Z"
/>
<rect fill="#291973" x="-7.88" y="-7.88" transform="translate(562.37,1267.62) rotate(-0.1)" width="15.76" height="15.76" rx="0.52"/>
<rect fill="#291973" x="-7.87" y="-7.88" transform="translate(929.12,1267.62) rotate(0.1)" width="15.74" height="15.76" rx="0.62"/>
</svg>
