<?xml version="1.0" encoding="UTF-8" standalone="no"?>
<!DOCTYPE svg PUBLIC "-//W3C//DTD SVG 1.1//EN" "http://www.w3.org/Graphics/SVG/1.1/DTD/svg11.dtd">
<svg xmlns="http://www.w3.org/2000/svg" version="1.1" viewBox="0.00 0.00 368.00 245.00">
<g stroke-width="2.00" fill="none" stroke-linecap="butt">
<path stroke="#f6eced" vector-effect="non-scaling-stroke" d="
  M 368.00 171.76
  L 367.00 163.05
  Q 366.94 162.52 366.41 162.44
  Q 358.48 161.29 350.49 160.74
  C 348.66 160.61 346.56 161.01 344.49 160.80
  Q 341.31 160.48 338.38 160.40"
/>
<path stroke="#c9d8d3" vector-effect="non-scaling-stroke" d="
  M 338.38 160.40
  Q 337.93 158.15 335.76 158.26
  Q 332.26 158.44 332.40 156.90"
/>
<path stroke="#afc8ce" vector-effect="non-scaling-stroke" d="
  M 332.40 156.90
  Q 334.39 154.77 338.56 152.57
  Q 340.03 151.79 339.41 150.32"
/>
<path stroke="#c9d8d3" vector-effect="non-scaling-stroke" d="
  M 339.41 150.32
  Q 334.67 149.67 331.40 152.65
  Q 330.79 153.21 329.92 152.52"
/>
<path stroke="#afc8ce" vector-effect="non-scaling-stroke" d="
  M 329.92 152.52
  Q 330.50 149.88 329.73 146.85"
/>
<path stroke="#c9d8d3" vector-effect="non-scaling-stroke" d="
  M 329.73 146.85
  Q 330.29 146.89 329.67 145.97
  Q 329.40 145.56 328.91 145.60
  C 325.53 145.82 322.53 152.77 321.55 155.66
  C 321.16 156.81 321.50 157.01 321.95 158.00
  Q 322.55 159.31 321.33 159.56"
/>
<path stroke="#afc8ce" vector-effect="non-scaling-stroke" d="
  M 321.33 159.56
  Q 318.23 151.52 311.12 145.96"
/>
<path stroke="#c9d8d3" vector-effect="non-scaling-stroke" d="
  M 311.12 145.96
  Q 311.04 145.71 310.63 145.61
  A 0.74 0.72 -61.6 0 0 309.87 145.85
  C 308.80 147.12 308.88 148.36 309.93 149.70
  Q 312.35 152.79 314.47 156.55
  A 1.11 1.10 64.7 0 1 313.91 158.13
  Q 312.51 158.68 311.03 158.62
  Q 310.61 158.60 310.52 159.01
  Q 309.59 163.13 304.72 161.50"
/>
<path stroke="#d4d2ce" vector-effect="non-scaling-stroke" d="
  M 304.72 161.50
  Q 304.20 150.29 304.68 146.25
  Q 305.04 143.24 301.35 142.93"
/>
<path stroke="#efedeb" vector-effect="non-scaling-stroke" d="
  M 301.35 142.93
  L 292.06 142.62"
/>
<path stroke="#a5b3ab" vector-effect="non-scaling-stroke" d="
  M 292.06 142.62
  C 291.97 139.23 291.78 137.63 294.21 135.45
  Q 297.22 132.77 299.36 132.40"
/>
<path stroke="#becdc7" vector-effect="non-scaling-stroke" d="
  M 299.36 132.40
  C 302.48 135.00 307.47 134.51 311.25 133.40
  C 320.09 130.81 328.95 123.92 331.85 114.91
  C 333.67 109.27 331.65 103.54 325.00 103.13
  C 316.95 102.64 310.42 106.06 304.41 111.36
  C 300.23 115.05 295.89 120.60 296.32 126.54"
/>
<path stroke="#c9d8d3" vector-effect="non-scaling-stroke" d="
  M 296.32 126.54
  L 296.25 128.30
  A 1.52 1.49 67.1 0 1 295.90 129.18
  Q 294.56 130.79 292.98 131.58
  Q 292.37 131.88 292.07 131.04"
/>
<path stroke="#a5b3ab" vector-effect="non-scaling-stroke" d="
  M 292.07 131.04
  Q 292.04 118.89 292.20 106.75
  C 292.24 103.89 294.81 102.43 297.06 100.92
  C 298.89 99.69 301.83 100.52 304.01 99.85
  Q 317.17 95.80 325.17 84.44
  C 327.32 81.39 329.03 76.96 325.04 74.52"
/>
<path stroke="#c9d8d3" vector-effect="non-scaling-stroke" d="
  M 325.04 74.52
  Q 320.59 74.03 316.50 75.52
  C 308.68 78.37 296.05 86.80 295.18 96.01
  C 295.08 97.04 294.62 98.07 293.89 98.64
  Q 292.91 99.39 292.06 98.25"
/>
<path stroke="#a5b3ab" vector-effect="non-scaling-stroke" d="
  M 292.06 98.25
  L 292.00 77.98
  A 1.48 1.46 -15.6 0 1 292.72 76.72
  C 303.02 70.56 302.73 51.54 300.00 41.49
  C 298.87 37.32 295.77 30.71 290.81 30.43
  C 281.27 29.90 278.87 48.56 279.32 54.92"
/>
<path stroke="#c9d8d3" vector-effect="non-scaling-stroke" d="
  M 279.32 54.92
  Q 278.15 65.29 283.83 73.65"
/>
<path stroke="#a5b3ab" vector-effect="non-scaling-stroke" d="
  M 283.83 73.65
  L 286.76 76.29"
/>
<path stroke="#c9d8d3" vector-effect="non-scaling-stroke" d="
  M 286.76 76.29
  L 287.59 77.42
  Q 287.88 77.82 287.87 78.32
  L 287.67 88.82
  A 0.59 0.59 0.0 0 1 286.71 89.26
  Q 285.23 88.02 283.82 87.46"
/>
<path stroke="#a5b3ab" vector-effect="non-scaling-stroke" d="
  M 283.82 87.46
  C 280.79 85.19 280.54 83.98 279.05 80.64
  Q 276.99 76.01 272.66 72.87"
/>
<path stroke="#c9d8d3" vector-effect="non-scaling-stroke" d="
  M 272.66 72.87
  Q 268.35 67.10 260.72 65.32
  C 256.67 64.38 252.01 66.65 254.07 71.51
  C 257.51 79.65 269.11 92.27 279.40 89.67
  Q 279.95 89.53 280.40 89.87
  L 286.81 94.63
  Q 287.19 94.92 287.31 95.37
  Q 287.95 97.63 287.89 100.00
  Q 287.68 109.18 287.63 118.71
  A 0.53 0.53 0.0 0 1 286.77 119.13
  L 285.33 118.02"
/>
<path stroke="#becdc7" vector-effect="non-scaling-stroke" d="
  M 285.33 118.02
  Q 285.29 117.48 285.75 115.50
  C 287.38 108.38 278.84 100.11 273.26 97.15"
/>
<path stroke="#c9d8d3" vector-effect="non-scaling-stroke" d="
  M 273.26 97.15
  C 268.04 93.88 260.52 92.08 254.63 94.75"
/>
<path stroke="#efedeb" vector-effect="non-scaling-stroke" d="
  M 254.63 94.75
  Q 254.01 90.83 253.90 86.79
  Q 253.76 81.70 252.81 79.62
  C 251.04 75.76 247.27 72.37 242.75 72.29
  C 236.41 72.18 229.92 72.83 223.65 72.54
  C 221.71 72.46 219.94 73.37 218.26 73.43
  Q 213.85 73.59 209.45 73.97"
/>
<path stroke="#a19f9d" vector-effect="non-scaling-stroke" d="
  M 209.45 73.97
  Q 160.36 74.12 111.26 74.33
  C 99.50 74.38 98.84 81.26 98.78 91.38
  Q 98.54 133.22 98.22 175.09
  C 98.17 181.70 99.23 185.83 105.50 188.16"
/>
<path stroke="#efedeb" vector-effect="non-scaling-stroke" d="
  M 105.50 188.16
  Q 105.56 188.44 107.22 188.91
  A 0.21 0.21 0.0 0 1 107.27 189.30
  C 105.25 190.42 102.81 188.38 100.78 187.57"
/>
<path stroke="#f6eced" vector-effect="non-scaling-stroke" d="
  M 100.78 187.57
  Q 95.78 183.76 96.15 177.49
  Q 96.59 169.87 96.20 162.59
  A 1.06 1.06 0.0 0 0 95.13 161.58
  L 40.93 161.85
  Q 40.42 161.85 40.04 162.20
  Q 39.46 162.75 38.75 162.63
  Q 38.32 162.56 38.10 162.13
  Q 37.89 161.74 37.83 161.29"
/>
<path stroke="#c6c2bb" vector-effect="non-scaling-stroke" d="
  M 37.83 161.29
  Q 37.22 150.53 36.69 139.76
  C 36.59 137.76 37.06 135.68 37.06 133.75
  Q 37.12 115.34 37.22 96.97"
/>
<path stroke="#d4d2ce" vector-effect="non-scaling-stroke" d="
  M 37.22 96.97
  Q 37.39 89.06 37.86 81.17
  Q 38.33 73.21 40.09 69.58
  Q 42.88 63.82 48.90 60.89
  Q 59.83 55.58 100.00 38.67
  Q 101.17 38.18 101.62 39.28"
/>
<path stroke="#f0d8b5" vector-effect="non-scaling-stroke" d="
  M 101.62 39.28
  C 101.95 40.01 102.02 40.79 101.63 41.57
  Q 98.39 48.03 94.92 54.49
  Q 94.68 54.94 94.83 55.43
  Q 95.49 57.50 98.62 57.53"
/>
<path stroke="#e4c9a8" vector-effect="non-scaling-stroke" d="
  M 98.62 57.53
  Q 106.84 57.29 115.00 54.52"
/>
<path stroke="#d2b69a" vector-effect="non-scaling-stroke" d="
  M 115.00 54.52
  C 116.63 54.05 143.65 45.48 134.92 41.06
  Q 128.81 37.96 122.86 34.75
  Q 122.27 34.43 122.06 33.80
  L 117.91 20.94"
/>
<path stroke="#e4c9a8" vector-effect="non-scaling-stroke" d="
  M 117.91 20.94
  L 116.92 17.90"
/>
<path stroke="#f0d8b5" vector-effect="non-scaling-stroke" d="
  M 116.92 17.90
  Q 110.47 13.86 101.28 18.70
  C 95.64 21.67 97.34 26.61 99.27 31.57
  Q 99.45 32.04 99.94 32.07
  Q 101.14 32.16 101.28 33.27"
/>
<path stroke="#d4d2ce" vector-effect="non-scaling-stroke" d="
  M 101.28 33.27
  Q 96.95 33.98 95.75 34.63
  Q 92.71 36.30 87.48 38.33
  C 83.81 39.76 79.66 42.17 76.13 43.75
  Q 57.57 52.03 50.70 54.96
  C 46.51 56.74 41.70 59.78 39.68 63.96
  C 38.22 66.97 36.84 69.29 36.33 72.65
  Q 34.85 82.55 34.97 93.04"
/>
<path stroke="#c6c2bb" vector-effect="non-scaling-stroke" d="
  M 34.97 93.04
  L 35.24 153.28"
/>
<path stroke="#f6eced" vector-effect="non-scaling-stroke" d="
  M 35.24 153.28
  L 34.91 160.89
  A 1.02 1.02 0.0 0 1 33.91 161.87
  L 2.53 162.26
  A 1.96 1.96 0.0 0 0 0.61 163.97
  L 0.00 168.75"
/>
<path stroke="#d4a15e" vector-effect="non-scaling-stroke" d="
  M 116.92 17.90
  Q 114.92 16.78 112.87 16.72
  Q 112.27 16.71 111.82 17.10
  L 108.31 20.17
  Q 107.90 20.53 107.90 21.06
  Q 107.89 21.45 107.61 21.67
  Q 107.29 21.92 107.17 22.30
  Q 105.69 26.77 106.40 28.49
  C 107.79 31.85 108.04 35.04 109.93 38.34
  A 2.28 2.26 68.2 0 0 112.43 39.42
  Q 114.59 38.89 116.07 40.88
  Q 118.18 43.70 120.14 46.61
  Q 121.26 48.26 120.98 50.70"
/>
<path stroke="#c38f50" vector-effect="non-scaling-stroke" d="
  M 120.98 50.70
  L 113.21 53.78"
/>
<path stroke="#d4a15e" vector-effect="non-scaling-stroke" d="
  M 113.21 53.78
  Q 110.07 54.31 107.10 55.54
  C 105.98 56.00 104.71 56.01 103.51 56.21
  Q 102.49 56.37 101.76 55.87
  Q 101.39 55.61 101.70 55.28
  Q 102.48 54.46 102.84 53.36
  Q 103.66 50.85 104.41 48.33
  Q 105.00 46.34 105.72 44.42
  Q 107.46 39.79 104.30 36.22
  Q 103.97 35.86 103.57 36.13
  Q 102.11 37.09 102.34 38.50
  Q 103.12 43.22 101.12 46.41
  Q 100.88 46.80 100.84 47.26
  C 100.67 49.10 99.37 50.09 99.05 51.51
  Q 98.59 53.56 98.73 55.69
  Q 98.76 56.06 98.46 56.28
  Q 98.30 56.39 98.10 56.39
  Q 97.69 56.37 97.95 56.69
  L 98.62 57.53"
/>
<path stroke="#c5aa84" vector-effect="non-scaling-stroke" d="
  M 101.62 39.28
  L 101.81 37.52
  Q 101.86 37.03 102.14 36.62
  Q 103.62 34.48 101.28 33.27"
/>
<path stroke="#b78042" vector-effect="non-scaling-stroke" d="
  M 117.91 20.94
  Q 117.26 20.81 117.17 20.48
  Q 116.58 18.37 115.11 17.45
  A 1.81 1.80 22.9 0 0 112.41 18.54
  Q 112.03 20.05 110.98 21.38
  Q 110.67 21.78 110.62 22.29
  Q 110.20 26.31 112.04 29.92
  Q 112.05 29.95 112.18 30.34
  Q 112.27 30.60 112.51 30.75
  Q 112.97 31.03 112.90 31.56
  Q 112.59 34.10 113.61 36.48
  A 2.28 2.27 77.6 0 0 115.76 37.86
  Q 120.87 37.72 125.55 39.91
  A 1.02 0.02 10.2 0 0 126.52 40.10
  Q 126.92 40.17 127.22 40.66
  A 1.06 1.05 -6.6 0 0 127.78 41.10
  Q 130.23 41.90 131.86 43.96
  A 1.33 1.33 0.0 0 1 131.37 46.01
  L 120.98 50.70"
/>
<path stroke="#b78042" vector-effect="non-scaling-stroke" d="
  M 115.00 54.52
  Q 112.56 54.56 113.21 53.78"
/>
<path stroke="#6f8b7e" vector-effect="non-scaling-stroke" d="
  M 292.06 98.25
  Q 292.03 99.00 291.36 99.25
  A 0.93 0.92 -10.5 0 1 290.10 98.39
  L 289.95 52.00
  Q 289.94 51.43 289.43 51.68
  Q 289.14 51.82 289.05 52.26
  Q 288.76 53.74 288.73 55.25
  Q 288.53 65.00 288.72 75.57
  Q 288.75 76.73 287.61 76.48
  L 286.76 76.29"
/>
<path stroke="#6f8b7e" vector-effect="non-scaling-stroke" d="
  M 283.83 73.65
  Q 283.40 71.02 282.19 68.91
  Q 280.95 66.74 280.70 65.28
  Q 279.79 60.18 279.32 54.92"
/>
<path stroke="#a5b3ab" vector-effect="non-scaling-stroke" d="
  M 289.3490 37.4834
  A 1.83 1.11 74.5 0 0 289.9296 35.4234
  A 1.83 1.11 74.5 0 0 288.3710 33.9566
  A 1.83 1.11 74.5 0 0 287.7904 36.0166
  A 1.83 1.11 74.5 0 0 289.3490 37.4834"
/>
<path stroke="#a5b3ab" vector-effect="non-scaling-stroke" d="
  M 287.3844 45.0205
  A 3.28 2.09 47.3 0 0 286.6960 41.1926
  A 3.28 2.09 47.3 0 0 282.9356 40.1995
  A 3.28 2.09 47.3 0 0 283.6240 44.0274
  A 3.28 2.09 47.3 0 0 287.3844 45.0205"
/>
<path stroke="#a5b3ab" vector-effect="non-scaling-stroke" d="
  M 294.7728 51.7128
  A 4.00 2.09 112.6 0 0 298.2395 48.8232
  A 4.00 2.09 112.6 0 0 297.8472 44.3272
  A 4.00 2.09 112.6 0 0 294.3805 47.2168
  A 4.00 2.09 112.6 0 0 294.7728 51.7128"
/>
<path stroke="#a5b3ab" vector-effect="non-scaling-stroke" d="
  M 285.1816 60.3025
  A 1.60 1.08 20.2 0 0 284.0529 58.7364
  A 1.60 1.08 20.2 0 0 282.1784 59.1975
  A 1.60 1.08 20.2 0 0 283.3071 60.7636
  A 1.60 1.08 20.2 0 0 285.1816 60.3025"
/>
<path stroke="#95a196" vector-effect="non-scaling-stroke" d="
  M 297.1921 64.3853
  A 1.10 0.93 -27.9 0 0 295.7848 64.0781
  A 1.10 0.93 -27.9 0 0 295.2479 65.4147
  A 1.10 0.93 -27.9 0 0 296.6552 65.7219
  A 1.10 0.93 -27.9 0 0 297.1921 64.3853"
/>
<path stroke="#9b9589" vector-effect="non-scaling-stroke" d="
  M 37.22 96.97
  Q 36.72 89.09 37.00 86.50
  Q 37.79 79.34 37.49 76.38
  Q 37.45 75.97 37.04 76.01
  L 36.77 76.03
  Q 36.58 76.04 36.56 76.23
  L 34.97 93.04"
/>
<path stroke="#6f8b7e" vector-effect="non-scaling-stroke" d="
  M 325.04 74.52
  Q 316.19 75.91 308.12 81.10
  Q 300.10 86.26 295.98 95.09
  A 0.72 0.72 0.0 0 0 297.06 95.97
  L 309.50 86.65
  Q 310.58 85.84 311.06 87.11
  Q 311.34 87.84 310.40 89.01
  Q 309.99 89.52 309.20 90.09
  Q 300.13 96.71 291.13 103.50
  A 2.39 2.39 0.0 0 0 290.17 105.29
  Q 289.45 118.07 290.17 130.83
  Q 290.20 131.35 290.63 131.64
  Q 291.87 132.48 292.07 131.04"
/>
<path stroke="#88a69a" vector-effect="non-scaling-stroke" d="
  M 296.32 126.54
  Q 296.64 127.03 296.63 127.15
  A 0.76 0.66 -17.8 0 0 297.78 127.64
  Q 299.18 126.77 300.07 125.37
  Q 300.35 124.92 300.88 124.88
  Q 302.43 124.78 302.24 123.87"
/>
<path stroke="#c9d8d3" vector-effect="non-scaling-stroke" d="
  M 302.24 123.87
  Q 303.29 124.02 303.21 123.00"
/>
<path stroke="#88a69a" vector-effect="non-scaling-stroke" d="
  M 303.21 123.00
  Q 303.68 123.15 304.06 123.15
  Q 304.44 123.16 304.82 122.81
  Q 309.28 118.77 314.55 115.64
  A 0.45 0.45 0.0 0 1 315.22 115.96
  Q 315.30 116.50 314.94 117.58"
/>
<path stroke="#6f8b7e" vector-effect="non-scaling-stroke" d="
  M 314.94 117.58
  Q 311.71 120.21 308.13 122.92
  Q 302.79 126.94 297.41 130.92
  C 294.75 132.89 291.99 134.35 289.85 137.28
  A 1.23 1.21 -27.6 0 0 289.62 137.99
  L 289.62 143.56
  Q 289.62 143.68 289.72 143.75
  L 289.95 143.91"
/>
<path stroke="#b8c6be" vector-effect="non-scaling-stroke" d="
  M 289.95 143.91
  Q 282.97 144.09 278.62 143.88
  Q 277.75 143.83 277.95 143.22"
/>
<path stroke="#c9d8d3" vector-effect="non-scaling-stroke" d="
  M 277.95 143.22
  L 286.80 142.81
  A 0.85 0.85 0.0 0 0 287.60 142.01
  Q 288.05 135.00 287.58 127.61
  C 287.36 124.21 285.27 122.49 282.51 121.09
  Q 282.05 120.86 281.58 121.09
  C 272.65 125.56 262.28 119.19 255.57 113.55"
/>
<path stroke="#b8c6be" vector-effect="non-scaling-stroke" d="
  M 255.57 113.55
  L 254.63 94.75"
/>
<path stroke="#88a69a" vector-effect="non-scaling-stroke" d="
  M 273.26 97.15
  Q 272.73 97.06 272.46 97.16
  Q 271.97 97.36 272.42 97.64
  C 278.32 101.28 285.46 107.44 284.25 115.26
  A 0.88 0.88 0.0 0 1 282.85 115.84
  L 268.60 105.08
  A 0.78 0.78 0.0 0 0 267.37 105.55
  Q 267.18 106.51 268.28 107.17
  C 274.00 110.59 278.85 115.02 284.39 118.77
  A 0.70 0.70 0.0 0 0 285.36 118.60
  Q 285.48 118.45 285.33 118.02"
/>
<path stroke="#6f8b7e" vector-effect="non-scaling-stroke" d="
  M 272.66 72.87
  Q 276.45 77.90 278.47 83.10
  C 279.52 85.81 281.04 87.24 283.82 87.46"
/>
<path stroke="#6f8b7e" vector-effect="non-scaling-stroke" d="
  M 265.0731 72.7941
  A 1.66 0.66 73.8 0 0 265.2438 71.0159
  A 1.66 0.66 73.8 0 0 264.1469 69.6059
  A 1.66 0.66 73.8 0 0 263.9762 71.3841
  A 1.66 0.66 73.8 0 0 265.0731 72.7941"
/>
<path stroke="#6f8b7e" vector-effect="non-scaling-stroke" d="
  M 273.98 76.72
  A 0.65 0.65 0.0 0 0 272.84 77.03
  Q 272.64 78.16 273.45 78.71
  Q 273.97 79.07 274.23 78.49
  Q 274.68 77.53 273.98 76.72"
/>
<path stroke="#c9d8d3" vector-effect="non-scaling-stroke" d="
  M 267.11 83.54
  Q 267.78 84.41 268.58 84.41
  A 0.61 0.61 0.0 0 0 269.18 83.68
  Q 268.92 82.47 268.19 81.46
  Q 267.88 81.04 267.37 81.02
  Q 266.87 80.99 266.55 81.27"
/>
<path stroke="#6f8b7e" vector-effect="non-scaling-stroke" d="
  M 266.55 81.27
  Q 266.56 81.08 266.41 80.95
  A 0.35 0.34 48.5 0 0 265.97 80.92
  Q 265.04 81.57 264.82 82.68
  Q 264.70 83.29 265.23 83.62
  Q 266.61 84.49 267.11 83.54"
/>
<path stroke="#a5b3ab" vector-effect="non-scaling-stroke" d="
  M 266.55 81.27
  Q 265.71 82.39 267.11 83.54"
/>
<path stroke="#c9d8d3" vector-effect="non-scaling-stroke" d="
  M 267.9383 101.1725
  A 1.82 1.18 42.2 0 0 267.3826 99.0759
  A 1.82 1.18 42.2 0 0 265.2417 98.7275
  A 1.82 1.18 42.2 0 0 265.7974 100.8241
  A 1.82 1.18 42.2 0 0 267.9383 101.1725"
/>
<path stroke="#b8c6be" vector-effect="non-scaling-stroke" d="
  M 275.69 104.42
  L 275.38 105.73
  Q 275.25 106.28 275.81 106.38
  Q 276.34 106.47 276.70 105.98
  Q 277.83 104.44 276.80 103.70"
/>
<path stroke="#88a69a" vector-effect="non-scaling-stroke" d="
  M 276.80 103.70
  Q 277.07 103.36 277.18 102.96
  Q 277.35 102.39 276.76 102.45
  Q 275.26 102.59 274.17 103.54
  A 0.86 0.86 0.0 0 0 273.93 104.49
  Q 274.40 105.79 275.69 104.42"
/>
<path stroke="#aebbb2" vector-effect="non-scaling-stroke" d="
  M 276.80 103.70
  L 275.69 104.42"
/>
<path stroke="#b8c6be" vector-effect="non-scaling-stroke" d="
  M 262.52 109.42
  L 260.81 110.07
  A 0.48 0.48 0.0 0 0 260.96 110.99
  Q 262.59 111.08 263.60 109.81
  Q 264.07 109.22 263.32 109.09
  Q 262.94 109.02 262.72 109.28
  Q 262.64 109.37 262.52 109.42"
/>
<path stroke="#c9d8d3" vector-effect="non-scaling-stroke" d="
  M 266.20 117.85
  C 268.40 119.69 271.14 117.40 271.98 115.37
  A 0.43 0.43 0.0 0 0 271.58 114.77
  L 269.04 114.76"
/>
<path stroke="#88a69a" vector-effect="non-scaling-stroke" d="
  M 269.04 114.76
  L 269.96 113.90
  Q 270.61 113.30 269.74 113.16
  C 268.22 112.92 266.75 114.47 265.69 115.39
  Q 265.07 115.94 264.88 116.59
  Q 264.37 118.31 266.20 117.85"
/>
<path stroke="#becdc7" vector-effect="non-scaling-stroke" d="
  M 269.04 114.76
  Q 266.68 115.73 266.20 117.85"
/>
<path stroke="#efedeb" vector-effect="non-scaling-stroke" d="
  M 255.57 113.55
  Q 255.18 113.13 254.66 112.95
  Q 254.30 112.82 254.30 113.21
  L 253.78 160.15
  Q 253.77 160.73 254.27 161.05
  C 255.77 161.98 257.09 161.37 258.41 161.38
  Q 266.19 161.44 273.75 161.04
  A 1.73 1.72 87.9 0 0 275.38 159.28
  Q 275.26 151.30 276.87 144.00
  Q 277.03 143.28 277.95 143.22"
/>
<path stroke="#95a196" vector-effect="non-scaling-stroke" d="
  M 289.95 143.91
  Q 290.70 144.12 291.51 143.99
  Q 291.97 143.91 292.01 143.44
  L 292.06 142.62"
/>
<path stroke="#c4c0b9" vector-effect="non-scaling-stroke" d="
  M 301.35 142.93
  Q 299.19 143.26 296.88 144.95
  A 1.15 1.11 31.2 0 1 296.00 145.15
  Q 294.82 144.94 293.87 145.60
  A 3.81 2.82 61.5 0 0 293.26 149.90
  Q 293.69 150.80 292.84 151.58
  Q 292.54 151.85 292.14 151.91
  Q 291.36 152.02 290.58 152.20
  Q 290.52 152.21 290.49 152.27
  Q 290.42 152.41 290.35 152.55
  A 0.20 0.20 0.0 0 0 290.52 152.83
  L 292.53 152.89
  Q 292.82 152.90 292.84 153.19
  L 292.86 153.53
  A 0.29 0.28 -13.8 0 1 292.68 153.82
  Q 291.78 154.19 290.85 154.13
  A 0.38 0.38 0.0 0 0 290.72 154.87
  L 291.55 155.14
  Q 291.96 155.28 292.09 155.69
  Q 292.26 156.21 292.04 156.72
  Q 291.96 156.88 291.79 156.88
  Q 291.66 156.88 291.53 156.88
  A 0.38 0.37 -18.6 0 0 291.23 157.48
  Q 291.52 157.84 291.96 157.97
  Q 292.46 158.11 292.50 158.63
  Q 293.20 167.13 291.41 174.25
  Q 291.29 174.75 290.70 174.61
  Q 290.34 174.53 290.40 174.16
  Q 290.68 172.33 291.01 170.55
  C 291.71 166.71 291.57 162.35 291.65 158.48
  A 0.64 0.63 -78.9 0 0 291.25 157.87
  L 290.94 157.75
  Q 290.59 157.61 290.58 157.99
  L 290.29 168.95
  Q 290.28 169.35 290.06 169.69
  Q 289.43 170.62 289.73 172.07
  A 2.19 2.18 86.2 0 1 287.45 174.68
  L 275.95 173.97"
/>
<path stroke="#e6dad8" vector-effect="non-scaling-stroke" d="
  M 275.95 173.97
  Q 274.40 171.74 274.62 167.57
  A 0.94 0.93 -79.5 0 0 273.98 166.63
  Q 273.07 166.34 271.09 166.54
  A 0.17 0.16 9.9 0 0 270.96 166.63
  C 268.84 170.96 265.04 167.60 262.24 166.65
  Q 259.31 165.65 255.80 167.11
  Q 255.33 167.31 255.29 167.82
  C 254.96 172.10 254.96 176.75 253.73 180.89
  C 252.67 184.48 252.56 188.05 249.00 189.67
  Q 248.15 190.06 248.69 189.30
  Q 249.00 188.86 249.45 188.51
  Q 250.28 187.86 249.24 187.98
  Q 247.96 188.12 246.93 188.94
  Q 246.55 189.24 246.08 189.34
  C 244.27 189.71 242.74 190.57 240.93 190.64
  Q 234.87 190.88 228.78 190.85"
/>
<path stroke="#c4c0b9" vector-effect="non-scaling-stroke" d="
  M 228.78 190.85
  L 111.89 190.64
  Q 111.62 190.64 111.62 190.91
  L 111.62 191.16
  A 0.47 0.46 -90.0 0 0 112.08 191.63
  Q 123.02 191.63 134.00 191.62
  Q 135.37 191.62 137.50 192.14
  C 138.66 192.42 140.17 191.65 141.50 191.76
  C 145.80 192.13 149.64 191.51 153.61 191.77
  Q 157.56 192.02 159.92 191.86
  Q 166.79 191.41 173.67 191.90
  C 176.09 192.08 178.51 191.80 181.00 191.83
  Q 194.73 191.98 208.46 191.67
  Q 209.70 191.65 212.02 191.85
  C 214.96 192.10 219.13 191.64 220.92 191.64
  Q 227.80 191.66 234.95 191.55"
/>
<path stroke="#e6dad8" vector-effect="non-scaling-stroke" d="
  M 234.95 191.55
  L 247.92 191.62
  Q 248.05 191.62 247.96 191.71
  L 247.71 191.96
  Q 247.21 192.45 247.91 192.60
  L 254.23 193.91
  A 2.46 2.46 0.0 0 1 256.17 196.62
  Q 255.93 198.62 257.32 199.98
  Q 257.64 200.29 258.08 200.35
  L 258.99 200.46"
/>
<path stroke="#d1c8c5" vector-effect="non-scaling-stroke" d="
  M 258.99 200.46
  L 257.89 200.57
  Q 257.34 200.63 257.35 201.18
  C 257.39 204.98 258.91 209.56 257.72 212.53
  A 1.03 1.03 0.0 0 1 256.98 213.14
  L 252.11 214.17"
/>
<path stroke="#c4c0b9" vector-effect="non-scaling-stroke" d="
  M 252.11 214.17
  Q 247.58 215.00 245.25 214.99
  Q 170.28 214.88 95.22 215.00"
/>
<path stroke="#e6dad8" vector-effect="non-scaling-stroke" d="
  M 95.22 215.00
  Q 94.92 215.60 94.48 214.95
  Q 94.24 214.60 94.63 214.45
  Q 94.87 214.37 95.04 214.23
  Q 95.34 213.98 94.96 214.00
  Q 92.37 214.09 91.30 211.81
  A 1.40 1.38 37.7 0 1 91.19 211.00
  Q 92.69 202.40 96.41 194.53
  Q 96.64 194.03 96.97 193.86
  Q 97.51 193.57 97.93 194.02
  A 0.45 0.45 0.0 0 0 98.65 193.92
  Q 99.54 192.31 101.19 193.12
  A 0.31 0.31 0.0 0 0 101.63 192.78
  Q 101.50 192.16 101.89 192.46
  Q 102.34 192.81 102.27 192.24
  L 102.10 191.06
  Q 102.08 190.91 102.21 190.98
  Q 102.37 191.05 102.52 191.13
  A 0.29 0.29 0.0 0 0 102.93 190.81
  Q 102.66 189.57 100.78 187.57"
/>
<path stroke="#908d88" vector-effect="non-scaling-stroke" d="
  M 105.50 188.16
  L 119.54 188.39"
/>
<path stroke="#8d8b86" vector-effect="non-scaling-stroke" d="
  M 119.54 188.39
  Q 179.67 188.55 239.81 188.31
  C 247.03 188.28 252.13 185.03 252.05 177.24
  Q 251.58 132.65 251.42 88.05
  Q 251.39 81.82 249.93 79.21
  Q 247.37 74.64 241.25 74.36
  Q 237.41 74.18 225.32 74.28"
/>
<path stroke="#908d88" vector-effect="non-scaling-stroke" d="
  M 225.32 74.28
  L 209.45 73.97"
/>
<path stroke="#b8c6be" vector-effect="non-scaling-stroke" d="
  M 222.97 204.11
  L 227.29 204.25"
/>
<path stroke="#9eb6ba" vector-effect="non-scaling-stroke" d="
  M 227.29 204.25
  L 240.72 204.33
  A 0.85 0.85 0.0 0 0 241.56 203.33
  L 240.07 195.23
  Q 239.73 193.37 237.84 193.36
  L 215.23 193.27
  A 0.63 0.63 0.0 0 0 214.60 193.89
  L 214.60 195.27
  A 0.50 0.49 9.6 0 1 213.95 195.73
  Q 212.68 195.30 212.27 193.95
  A 0.82 0.82 0.0 0 0 211.50 193.38
  Q 208.15 193.33 197.99 193.39
  Q 195.43 193.41 195.43 195.21
  A 0.44 0.44 0.0 0 1 194.80 195.61
  C 193.41 194.95 193.88 193.38 191.37 193.29
  Q 185.06 193.08 178.75 193.38
  Q 176.56 193.49 176.65 195.26
  Q 176.66 195.42 176.51 195.49
  Q 176.36 195.57 176.20 195.65
  Q 175.76 195.87 175.69 195.38
  Q 175.48 193.96 174.00 193.44
  Q 173.61 193.30 173.20 193.30
  L 159.46 193.31
  Q 158.91 193.31 158.48 193.66
  Q 157.89 194.14 158.25 194.60
  Q 158.67 195.14 158.01 195.32
  L 157.47 195.47
  Q 156.94 195.61 156.68 195.13
  Q 155.72 193.40 153.00 193.33
  Q 147.17 193.17 140.28 193.36
  A 1.24 1.24 0.0 0 0 139.08 194.47
  Q 138.98 195.40 138.26 195.84
  A 0.52 0.52 0.0 0 1 137.50 195.57
  Q 137.13 194.54 136.36 193.75
  Q 135.90 193.29 135.25 193.29
  L 112.44 193.32
  A 0.98 0.97 7.8 0 0 111.50 194.03
  L 109.08 202.48
  A 1.23 1.23 0.0 0 0 110.24 204.05
  L 126.07 204.35
  A 0.65 0.65 0.0 0 0 126.73 203.67
  L 126.68 202.50
  Q 126.54 199.20 128.01 202.27
  Q 128.17 202.59 128.30 203.09
  A 1.53 1.53 0.0 0 0 129.77 204.24
  L 203.11 204.31
  A 0.73 0.73 0.0 0 0 203.76 203.26
  Q 203.39 202.50 203.67 201.73
  Q 203.96 200.95 204.45 201.63
  C 207.37 205.65 216.99 204.49 222.97 204.11"
/>
<path stroke="#78a0a2" vector-effect="non-scaling-stroke" d="
  M 227.29 204.25
  Q 226.46 203.23 225.10 203.17
  A 1.07 1.06 -15.2 0 1 224.24 202.68
  L 223.57 201.61
  A 0.49 0.48 -46.6 0 0 222.74 201.64
  Q 222.39 202.26 222.69 203.03
  Q 223.32 203.37 222.97 204.11"
/>
<path stroke="#3f3d38" vector-effect="non-scaling-stroke" d="
  M 225.32 74.28
  L 220.65 74.90
  Q 220.19 74.96 219.80 75.20
  Q 219.11 75.61 218.31 75.54
  Q 217.73 75.49 218.04 75.98
  Q 218.53 76.74 218.66 77.70
  A 1.66 1.66 0.0 0 1 218.31 78.97
  Q 216.16 81.57 214.16 84.27
  Q 214.16 84.68 213.81 84.77
  Q 213.46 84.86 213.44 85.22
  C 213.30 87.57 213.23 91.88 211.80 93.79
  Q 210.96 94.91 210.06 96.00
  Q 209.77 96.37 209.70 96.83
  Q 209.28 99.75 207.63 102.11
  C 205.99 104.44 203.61 104.27 201.01 104.13
  A 0.90 0.90 0.0 0 0 200.07 105.00
  L 199.88 111.47
  Q 199.87 111.89 199.57 112.18
  Q 199.43 112.31 199.38 112.50
  Q 199.32 112.72 199.45 112.91
  Q 199.53 113.05 199.65 113.09
  Q 199.81 113.15 199.70 113.29
  Q 198.54 114.68 197.74 116.33
  Q 197.64 116.53 197.66 116.74
  Q 197.69 116.99 197.77 117.24
  Q 197.88 117.63 197.48 117.63
  L 196.78 117.64
  Q 196.51 117.64 196.51 117.91
  Q 196.51 118.07 196.49 118.24
  Q 196.46 118.53 196.75 118.54
  L 198.19 118.62
  A 0.05 0.04 -46.8 0 1 198.19 118.71
  L 197.75 118.79
  Q 197.31 118.87 197.75 118.94
  Q 197.91 118.96 198.06 119.00
  Q 198.44 119.10 198.05 119.11
  Q 197.42 119.13 197.47 119.58"
/>
<path stroke="#908d88" vector-effect="non-scaling-stroke" d="
  M 197.47 119.58
  Q 170.87 119.71 144.25 119.75
  Q 141.59 119.75 140.39 123.14"
/>
<path stroke="#988c8a" vector-effect="non-scaling-stroke" d="
  M 140.39 123.14
  Q 139.53 119.74 136.52 119.74
  Q 125.83 119.72 115.20 119.77
  A 3.53 3.52 89.8 0 0 111.70 123.30
  L 111.76 144.74
  A 3.53 3.52 89.8 0 0 115.29 148.26
  Q 125.71 148.23 136.64 148.11
  Q 139.83 148.07 140.36 144.81"
/>
<path stroke="#908d88" vector-effect="non-scaling-stroke" d="
  M 140.36 144.81
  Q 141.64 148.23 145.00 148.18
  Q 165.33 147.85 204.30 148.06"
/>
<path stroke="#3f3d38" vector-effect="non-scaling-stroke" d="
  M 204.30 148.06
  Q 194.54 148.67 193.22 148.61
  Q 187.08 148.36 184.00 148.47
  L 155.76 149.48
  A 0.08 0.07 42.5 0 0 155.77 149.63
  Q 158.03 149.63 160.50 149.65
  Q 161.00 149.66 160.94 150.09
  Q 160.90 150.49 160.51 150.59
  Q 159.03 150.97 157.50 150.87
  Q 156.98 150.83 156.71 151.18
  Q 156.41 151.55 155.94 151.58
  Q 154.30 151.70 153.20 153.00
  Q 153.09 153.13 152.92 153.09
  Q 152.76 153.06 152.62 153.09
  Q 152.27 153.16 152.31 153.52
  Q 152.71 156.60 151.77 159.53
  A 0.54 0.50 79.6 0 1 151.65 159.72
  L 148.93 162.04
  A 0.83 0.81 68.9 0 0 148.64 162.71
  Q 148.67 163.98 147.75 164.87
  Q 147.44 165.17 147.38 165.60
  C 147.07 167.68 145.52 167.72 144.51 168.69
  C 140.75 172.33 140.23 176.67 139.10 181.24
  Q 138.98 181.76 139.24 182.22
  Q 139.57 182.80 139.10 183.50
  Q 138.85 183.86 138.99 184.27
  Q 139.21 184.93 139.73 185.47
  Q 140.09 185.83 139.66 186.09
  Q 137.99 187.10 135.99 187.10
  Q 124.44 187.10 112.88 187.25
  C 111.47 187.26 110.08 188.11 108.36 187.55
  Q 108.14 187.48 108.10 187.71
  L 108.10 187.72
  Q 108.06 187.95 108.29 187.96
  L 119.54 188.39"
/>
<path stroke="#8d8b86" vector-effect="non-scaling-stroke" d="
  M 204.30 148.06
  L 236.48 147.79
  Q 240.48 147.75 240.48 143.76
  L 240.50 123.24
  A 3.76 3.75 89.9 0 0 236.74 119.48
  L 197.47 119.58"
/>
<path stroke="#a5b3ab" vector-effect="non-scaling-stroke" d="
  M 321.3321 77.4599
  A 2.45 1.02 -36.0 0 0 318.7505 78.0748
  A 2.45 1.02 -36.0 0 0 317.3679 80.3401
  A 2.45 1.02 -36.0 0 0 319.9495 79.7252
  A 2.45 1.02 -36.0 0 0 321.3321 77.4599"
/>
<path stroke="#95a196" vector-effect="non-scaling-stroke" d="
  M 309.40 82.22
  Q 309.13 82.46 309.34 82.75
  Q 309.74 83.30 310.66 82.89
  Q 311.12 82.68 311.02 82.11
  A 0.40 0.40 0.0 0 0 310.64 81.77
  Q 309.94 81.74 309.40 82.22"
/>
<path stroke="#bdafa8" vector-effect="non-scaling-stroke" d="
  M 37.83 161.29
  C 37.55 165.10 37.11 172.02 40.09 173.85
  Q 42.07 175.06 39.76 174.84
  C 34.92 174.38 36.04 164.63 36.34 161.50
  Q 36.51 159.78 35.24 153.28"
/>
<path stroke="#686258" vector-effect="non-scaling-stroke" d="
  M 36.15 141.29
  Q 36.76 139.59 36.40 137.75
  Q 36.37 137.62 36.25 137.62
  Q 36.07 137.62 35.87 137.60
  Q 35.36 137.56 35.39 138.07
  L 35.55 141.20
  Q 35.62 142.76 36.15 141.29"
/>
<path stroke="#648172" vector-effect="non-scaling-stroke" d="
  M 299.36 132.40
  Q 303.70 129.65 307.34 126.38
  C 309.71 124.25 316.94 120.69 317.27 117.54
  A 0.85 0.85 0.0 0 0 315.87 116.80
  L 314.94 117.58"
/>
<path stroke="#becdc7" vector-effect="non-scaling-stroke" d="
  M 303.21 123.00
  Q 302.88 121.24 301.74 120.69
  Q 301.19 120.43 300.93 120.97
  Q 300.14 122.59 302.24 123.87"
/>
<path stroke="#becdc7" vector-effect="non-scaling-stroke" d="
  M 323.7045 111.6661
  A 2.71 1.93 129.0 0 0 326.9099 110.7746
  A 2.71 1.93 129.0 0 0 327.1155 107.4539
  A 2.71 1.93 129.0 0 0 323.9101 108.3454
  A 2.71 1.93 129.0 0 0 323.7045 111.6661"
/>
<path stroke="#becdc7" vector-effect="non-scaling-stroke" d="
  M 323.13 118.99
  L 324.46 119.54
  A 0.88 0.87 4.9 0 0 325.65 118.54
  Q 325.17 116.40 323.14 117.21
  A 0.96 0.96 0.0 0 0 323.13 118.99"
/>
<path stroke="#aebbb2" vector-effect="non-scaling-stroke" d="
  M 313.7802 128.9766
  A 1.42 0.87 42.9 0 0 313.3322 127.3727
  A 1.42 0.87 42.9 0 0 311.6998 127.0434
  A 1.42 0.87 42.9 0 0 312.1478 128.6473
  A 1.42 0.87 42.9 0 0 313.7802 128.9766"
/>
<path stroke="#e6dad8" vector-effect="non-scaling-stroke" d="
  M 140.36 144.81
  Q 140.45 144.86 140.51 144.28"
/>
<path stroke="#c4c0b9" vector-effect="non-scaling-stroke" d="
  M 140.51 144.28
  L 140.53 123.36"
/>
<path stroke="#e6dad8" vector-effect="non-scaling-stroke" d="
  M 140.53 123.36
  Q 139.98 123.45 140.39 123.14"
/>
<path stroke="#cbbfbb" vector-effect="non-scaling-stroke" d="
  M 140.53 123.36
  Q 140.39 123.40 140.25 123.43
  Q 140.03 123.48 140.03 123.70
  L 139.98 144.29
  Q 139.98 144.57 140.24 144.47
  Q 140.38 144.41 140.51 144.28"
/>
<path stroke="#c2969e" vector-effect="non-scaling-stroke" d="
  M 124.61 139.91
  C 135.93 146.43 142.18 128.16 129.99 126.49
  C 123.12 125.55 118.39 131.91 122.99 137.67
  A 0.74 0.73 48.7 0 1 122.93 138.65
  L 117.68 143.75
  A 0.39 0.39 0.0 0 0 117.82 144.39
  L 118.10 144.48
  Q 118.78 144.73 119.28 144.21
  L 123.34 140.09
  A 1.06 1.05 -52.8 0 1 124.61 139.91"
/>
<path stroke="#c2969e" vector-effect="non-scaling-stroke" d="
  M 123.55 130.06
  C 122.14 132.14 122.24 138.63 125.22 139.49
  Q 132.22 141.50 134.61 135.75
  C 138.12 127.30 127.28 124.54 123.55 130.06"
/>
<path stroke="#9eaaa1" vector-effect="non-scaling-stroke" d="
  M 304.72 161.50
  Q 303.34 163.23 300.40 165.06
  A 0.62 0.62 0.0 0 0 300.27 166.01
  L 300.51 166.26
  A 0.56 0.56 0.0 0 0 301.19 166.37
  L 307.11 163.15
  A 0.55 0.54 -10.2 0 1 307.91 163.70
  Q 307.88 163.91 307.87 164.00
  Q 307.84 164.36 307.60 164.37
  Q 307.19 164.38 307.24 164.68"
/>
<path stroke="#cbbfbb" vector-effect="non-scaling-stroke" d="
  M 307.24 164.68
  Q 306.38 165.48 305.39 165.76
  A 1.08 1.08 0.0 0 0 304.60 166.79
  L 304.52 174.27
  A 0.50 0.50 0.0 0 0 305.02 174.78
  L 308.97 174.80
  Q 309.87 174.81 309.87 175.71
  L 309.87 176.29
  Q 309.87 177.39 308.78 177.47
  Q 296.99 178.35 284.92 178.11
  C 282.72 178.06 279.42 178.30 276.89 177.59
  Q 274.43 176.90 276.97 176.79
  Q 278.33 176.72 280.74 177.09"
/>
<path stroke="#c4c0b9" vector-effect="non-scaling-stroke" d="
  M 280.74 177.09
  L 290.73 177.11
  A 0.41 0.40 20.9 0 0 291.03 176.98
  Q 291.14 176.86 291.16 176.71
  Q 291.22 176.32 290.83 176.25
  Q 288.15 175.72 286.60 176.34"
/>
<path stroke="#cbbfbb" vector-effect="non-scaling-stroke" d="
  M 286.60 176.34
  C 282.86 175.57 279.70 176.62 275.95 173.97"
/>
<path stroke="#78a0a2" vector-effect="non-scaling-stroke" d="
  M 311.12 145.96
  Q 310.27 147.11 311.98 148.64
  Q 313.10 149.64 313.62 150.62
  Q 315.09 153.38 317.20 156.31
  A 1.42 1.41 58.8 0 1 316.69 158.40
  C 314.19 159.64 312.46 158.59 310.21 161.07
  A 0.76 0.76 0.0 0 0 310.47 162.28
  Q 312.30 163.08 313.41 164.75
  Q 313.70 165.21 313.64 165.74
  Q 313.43 167.44 314.68 167.44"
/>
<path stroke="#c0c5c0" vector-effect="non-scaling-stroke" d="
  M 314.68 167.44
  C 312.27 167.76 311.94 166.00 310.52 165.29
  Q 308.91 164.48 307.24 164.68"
/>
<path stroke="#78a0a2" vector-effect="non-scaling-stroke" d="
  M 329.73 146.85
  Q 328.55 149.73 328.80 152.76
  Q 328.86 153.38 329.41 153.08
  Q 329.71 152.92 329.92 152.52"
/>
<path stroke="#78a0a2" vector-effect="non-scaling-stroke" d="
  M 339.41 150.32
  Q 327.98 153.82 324.71 163.11
  Q 324.65 163.27 324.55 163.33
  Q 324.41 163.41 324.25 163.38
  Q 323.93 163.32 323.91 162.99
  Q 323.78 161.16 324.47 159.49
  A 0.33 0.33 0.0 0 0 323.92 159.15
  L 322.67 160.62
  A 0.68 0.67 -40.2 0 1 321.58 160.53
  Q 321.24 159.99 321.33 159.56"
/>
<path stroke="#78a0a2" vector-effect="non-scaling-stroke" d="
  M 332.40 156.90
  C 330.42 159.24 327.57 158.93 326.13 162.37
  Q 325.13 164.76 327.22 163.24
  Q 327.41 163.10 328.19 161.92
  C 329.50 159.93 332.58 160.87 334.41 161.41
  Q 334.83 161.54 334.81 161.97
  Q 334.79 162.59 335.24 162.82
  C 335.92 163.17 337.09 162.59 337.95 162.73"
/>
<path stroke="#a6b5bc" vector-effect="non-scaling-stroke" d="
  M 337.95 162.73
  Q 342.84 163.51 344.21 165.90
  Q 346.93 170.65 341.98 168.32
  C 339.56 167.18 338.44 164.90 335.28 165.85"
/>
<path stroke="#849a9d" vector-effect="non-scaling-stroke" d="
  M 335.28 165.85
  Q 333.85 166.53 334.00 167.38
  A 0.59 0.58 -4.9 0 1 333.42 168.06
  L 322.25 167.97"
/>
<path stroke="#9eb6ba" vector-effect="non-scaling-stroke" d="
  M 322.25 167.97
  L 319.59 167.82"
/>
<path stroke="#a6b5bc" vector-effect="non-scaling-stroke" d="
  M 319.59 167.82
  L 314.68 167.44"
/>
<path stroke="#cbbfbb" vector-effect="non-scaling-stroke" d="
  M 95.22 215.00
  Q 101.26 215.90 110.50 215.93
  Q 176.62 216.15 242.75 216.08
  Q 251.05 216.07 255.24 215.85"
/>
<path stroke="#d9c7c7" vector-effect="non-scaling-stroke" d="
  M 255.24 215.85
  Q 260.08 215.90 264.68 214.61
  C 267.80 213.74 270.24 211.35 273.26 209.83
  A 0.70 0.69 41.1 0 0 273.17 208.55
  L 270.61 207.65
  Q 270.17 207.50 270.41 207.11
  Q 270.85 206.42 271.75 206.41
  C 277.47 206.33 282.69 204.92 288.46 205.09
  C 292.37 205.20 297.07 205.03 300.89 204.48
  Q 306.21 203.71 311.64 203.88
  A 0.16 0.16 0.0 0 0 311.81 203.72
  L 311.81 203.45
  Q 311.82 203.20 311.57 203.20
  Q 307.35 203.17 303.18 202.90
  C 296.12 202.43 288.59 203.05 282.50 202.78
  Q 274.65 202.42 259.37 200.77
  Q 259.25 200.76 259.17 200.66
  Q 259.06 200.55 258.99 200.46"
/>
<path stroke="#cbbfbb" vector-effect="non-scaling-stroke" d="
  M 234.95 191.55
  L 228.78 190.85"
/>
<path stroke="#e6dad8" vector-effect="non-scaling-stroke" d="
  M 286.60 176.34
  Q 284.27 177.43 280.74 177.09"
/>
<path stroke="#e6dad8" vector-effect="non-scaling-stroke" d="
  M 319.59 167.82
  L 319.23 183.85
  Q 319.22 184.34 318.93 184.73
  L 318.64 185.14
  Q 318.30 185.61 318.80 185.89
  Q 319.04 186.03 318.99 186.43
  Q 318.97 186.61 318.78 186.65
  Q 318.30 186.76 318.06 187.26
  Q 317.84 187.75 318.35 187.89
  Q 318.62 187.96 318.62 188.28
  Q 318.61 188.81 318.08 188.90
  Q 317.63 188.97 317.50 189.26"
/>
<path stroke="#cbbfbb" vector-effect="non-scaling-stroke" d="
  M 317.50 189.26
  Q 314.60 188.83 312.51 189.45
  Q 311.37 189.79 312.55 189.99
  Q 320.46 191.30 328.58 190.66"
/>
<path stroke="#bdafa8" vector-effect="non-scaling-stroke" d="
  M 328.58 190.66
  Q 337.22 190.13 345.98 189.63
  C 347.14 189.56 348.00 189.18 349.12 188.89
  Q 349.13 188.89 349.13 188.88
  L 349.13 188.58
  Q 349.13 188.37 348.92 188.37
  L 337.95 188.31"
/>
<path stroke="#cbbfbb" vector-effect="non-scaling-stroke" d="
  M 337.95 188.31
  L 336.46 188.28
  Q 335.94 188.26 335.93 187.74
  L 335.88 176.78
  Q 335.88 176.18 336.47 176.14
  L 348.08 175.42
  A 0.49 0.49 0.0 0 0 348.54 174.93
  L 348.54 174.59
  Q 348.54 174.13 348.08 174.13
  L 336.71 174.13
  Q 336.13 174.13 335.99 173.57
  Q 335.41 171.32 335.85 168.74
  Q 335.98 167.99 335.24 167.59
  Q 334.82 167.36 334.96 166.91
  L 335.28 165.85"
/>
<path stroke="#c0c5c0" vector-effect="non-scaling-stroke" d="
  M 337.95 162.73
  L 338.38 160.40"
/>
<path stroke="#f6eced" vector-effect="non-scaling-stroke" d="
  M 368.00 179.36
  L 368.00 200.01"
/>
<path stroke="#cbbfbb" vector-effect="non-scaling-stroke" d="
  M 41.73 178.13
  C 38.57 178.10 35.58 179.15 32.77 179.27
  Q 20.88 179.74 9.00 179.09
  Q 8.31 179.05 8.49 179.53
  A 0.35 0.34 -8.9 0 0 8.80 179.75
  C 14.60 179.85 20.88 180.59 26.09 180.73
  C 42.81 181.17 52.49 181.22 65.62 179.63
  Q 66.03 179.58 66.21 179.27
  A 0.48 0.48 0.0 0 0 65.77 178.55
  Q 64.04 178.63 63.66 177.04
  A 1.16 1.15 79.6 0 0 62.38 176.15
  Q 52.15 177.49 42.32 177.85
  Q 42.24 177.85 42.18 177.89
  Q 42.06 177.95 41.97 178.03
  Q 41.87 178.13 41.73 178.13"
/>
<path stroke="#9b9589" vector-effect="non-scaling-stroke" d="
  M 337.95 188.31
  L 323.25 189.34
  Q 322.86 189.36 322.88 189.75
  L 322.90 190.19
  Q 322.92 190.52 323.26 190.53
  L 328.58 190.66"
/>
<path stroke="#c4c0b9" vector-effect="non-scaling-stroke" d="
  M 317.50 189.26
  L 323.09 188.60
  A 0.93 0.92 -9.4 0 0 323.89 187.49
  Q 323.70 186.57 324.46 186.05
  Q 324.87 185.77 324.87 185.28
  C 324.88 182.44 325.36 178.20 324.53 175.55
  Q 324.15 174.35 323.69 173.21
  Q 322.68 170.74 322.25 167.97"
/>
<path stroke="#9eb6ba" vector-effect="non-scaling-stroke" d="
  M 147.97 196.29
  A 0.86 0.86 0.0 0 0 146.39 196.89
  Q 146.61 198.16 147.77 198.33
  Q 148.38 198.41 148.37 197.80
  Q 148.36 196.92 147.97 196.29"
/>
<path stroke="#9eb6ba" vector-effect="non-scaling-stroke" d="
  M 167.91 197.51
  L 166.47 196.27
  A 0.45 0.45 0.0 0 0 165.79 196.39
  Q 165.38 197.09 165.62 197.85
  A 0.53 0.52 -14.6 0 0 166.23 198.20
  L 167.83 197.84
  A 0.19 0.19 0.0 0 0 167.91 197.51"
/>
<path stroke="#78a0a2" vector-effect="non-scaling-stroke" d="
  M 205.12 197.13
  Q 204.55 195.86 203.43 196.06
  A 0.60 0.60 0.0 0 0 203.00 196.93
  Q 203.94 198.72 205.99 198.25
  Q 206.70 198.08 206.03 197.79
  Q 205.28 197.47 205.12 197.13"
/>
<path stroke="#9eb6ba" vector-effect="non-scaling-stroke" d="
  M 127.72 196.59
  Q 127.74 197.25 128.04 197.82
  Q 128.33 198.36 128.93 198.24
  Q 129.10 198.21 129.26 198.16
  A 0.48 0.47 -13.7 0 0 129.60 197.61
  Q 129.35 196.34 128.07 196.26
  A 0.32 0.32 0.0 0 0 127.72 196.59"
/>
<path stroke="#9eb6ba" vector-effect="non-scaling-stroke" d="
  M 186.5629 197.8124
  A 1.28 0.85 23.6 0 0 185.7303 196.5211
  A 1.28 0.85 23.6 0 0 184.2171 196.7876
  A 1.28 0.85 23.6 0 0 185.0497 198.0789
  A 1.28 0.85 23.6 0 0 186.5629 197.8124"
/>
<path stroke="#9eb6ba" vector-effect="non-scaling-stroke" d="
  M 222.50 196.70
  Q 222.32 196.73 222.16 196.84
  Q 221.77 197.11 222.14 197.40
  Q 222.74 197.89 223.54 197.93
  A 0.41 0.41 0.0 0 0 223.96 197.42
  Q 223.85 196.97 223.48 196.74
  Q 223.23 196.59 222.98 196.62
  Q 222.80 196.64 222.50 196.70"
/>
<path stroke="#9eb6ba" vector-effect="non-scaling-stroke" d="
  M 138.78 199.91
  L 138.33 199.34
  Q 137.99 198.91 137.44 198.89
  L 136.55 198.87
  A 0.59 0.59 0.0 0 0 135.98 199.67
  Q 136.61 201.26 138.54 200.66
  Q 139.20 200.46 138.78 199.91"
/>
<path stroke="#9eb6ba" vector-effect="non-scaling-stroke" d="
  M 157.95 199.62
  Q 157.37 198.79 157.16 198.79
  Q 154.11 198.86 156.62 200.58
  Q 157.23 200.99 158.36 200.70
  Q 158.71 200.61 158.54 200.29
  Q 158.48 200.16 158.36 200.05
  Q 158.02 199.72 157.95 199.62"
/>
<path stroke="#9eb6ba" vector-effect="non-scaling-stroke" d="
  M 177.50 200.07
  Q 176.22 198.70 175.23 198.81
  A 0.42 0.42 0.0 0 0 174.86 199.22
  L 174.84 199.58
  Q 174.83 200.14 175.36 200.33
  Q 176.57 200.76 177.87 200.61
  Q 178.27 200.56 178.01 200.26
  Q 177.86 200.07 177.50 200.07"
/>
<path stroke="#9eb6ba" vector-effect="non-scaling-stroke" d="
  M 196.23 200.00
  Q 195.59 199.18 194.58 198.91
  A 0.54 0.54 0.0 0 0 193.99 199.73
  Q 194.67 200.73 196.00 200.56
  Q 196.60 200.48 196.23 200.00"
/>
<path stroke="#9eb6ba" vector-effect="non-scaling-stroke" d="
  M 215.35 200.08
  Q 214.92 198.79 213.57 198.75
  A 0.77 0.77 0.0 0 0 213.06 200.11
  Q 213.93 200.84 215.04 200.61
  Q 215.49 200.52 215.35 200.08"
/>
<path stroke="#b7aca8" vector-effect="non-scaling-stroke" d="
  M 255.24 215.85
  L 247.08 215.60
  Q 246.94 215.60 246.94 215.47
  L 246.94 215.46
  A 0.13 0.13 0.0 0 1 247.09 215.34
  Q 249.88 215.79 252.11 214.17"
/>
</g>
<path fill="#ffffff" d="
  M 0.00 0.00
  L 368.00 0.00
  L 368.00 171.76
  L 367.00 163.05
  Q 366.94 162.52 366.41 162.44
  Q 358.48 161.29 350.49 160.74
  C 348.66 160.61 346.56 161.01 344.49 160.80
  Q 341.31 160.48 338.38 160.40
  Q 337.93 158.15 335.76 158.26
  Q 332.26 158.44 332.40 156.90
  Q 334.39 154.77 338.56 152.57
  Q 340.03 151.79 339.41 150.32
  Q 334.67 149.67 331.40 152.65
  Q 330.79 153.21 329.92 152.52
  Q 330.50 149.88 329.73 146.85
  Q 330.29 146.89 329.67 145.97
  Q 329.40 145.56 328.91 145.60
  C 325.53 145.82 322.53 152.77 321.55 155.66
  C 321.16 156.81 321.50 157.01 321.95 158.00
  Q 322.55 159.31 321.33 159.56
  Q 318.23 151.52 311.12 145.96
  Q 311.04 145.71 310.63 145.61
  A 0.74 0.72 -61.6 0 0 309.87 145.85
  C 308.80 147.12 308.88 148.36 309.93 149.70
  Q 312.35 152.79 314.47 156.55
  A 1.11 1.10 64.7 0 1 313.91 158.13
  Q 312.51 158.68 311.03 158.62
  Q 310.61 158.60 310.52 159.01
  Q 309.59 163.13 304.72 161.50
  Q 304.20 150.29 304.68 146.25
  Q 305.04 143.24 301.35 142.93
  L 292.06 142.62
  C 291.97 139.23 291.78 137.63 294.21 135.45
  Q 297.22 132.77 299.36 132.40
  C 302.48 135.00 307.47 134.51 311.25 133.40
  C 320.09 130.81 328.95 123.92 331.85 114.91
  C 333.67 109.27 331.65 103.54 325.00 103.13
  C 316.95 102.64 310.42 106.06 304.41 111.36
  C 300.23 115.05 295.89 120.60 296.32 126.54
  L 296.25 128.30
  A 1.52 1.49 67.1 0 1 295.90 129.18
  Q 294.56 130.79 292.98 131.58
  Q 292.37 131.88 292.07 131.04
  Q 292.04 118.89 292.20 106.75
  C 292.24 103.89 294.81 102.43 297.06 100.92
  C 298.89 99.69 301.83 100.52 304.01 99.85
  Q 317.17 95.80 325.17 84.44
  C 327.32 81.39 329.03 76.96 325.04 74.52
  Q 320.59 74.03 316.50 75.52
  C 308.68 78.37 296.05 86.80 295.18 96.01
  C 295.08 97.04 294.62 98.07 293.89 98.64
  Q 292.91 99.39 292.06 98.25
  L 292.00 77.98
  A 1.48 1.46 -15.6 0 1 292.72 76.72
  C 303.02 70.56 302.73 51.54 300.00 41.49
  C 298.87 37.32 295.77 30.71 290.81 30.43
  C 281.27 29.90 278.87 48.56 279.32 54.92
  Q 278.15 65.29 283.83 73.65
  L 286.76 76.29
  L 287.59 77.42
  Q 287.88 77.82 287.87 78.32
  L 287.67 88.82
  A 0.59 0.59 0.0 0 1 286.71 89.26
  Q 285.23 88.02 283.82 87.46
  C 280.79 85.19 280.54 83.98 279.05 80.64
  Q 276.99 76.01 272.66 72.87
  Q 268.35 67.10 260.72 65.32
  C 256.67 64.38 252.01 66.65 254.07 71.51
  C 257.51 79.65 269.11 92.27 279.40 89.67
  Q 279.95 89.53 280.40 89.87
  L 286.81 94.63
  Q 287.19 94.92 287.31 95.37
  Q 287.95 97.63 287.89 100.00
  Q 287.68 109.18 287.63 118.71
  A 0.53 0.53 0.0 0 1 286.77 119.13
  L 285.33 118.02
  Q 285.29 117.48 285.75 115.50
  C 287.38 108.38 278.84 100.11 273.26 97.15
  C 268.04 93.88 260.52 92.08 254.63 94.75
  Q 254.01 90.83 253.90 86.79
  Q 253.76 81.70 252.81 79.62
  C 251.04 75.76 247.27 72.37 242.75 72.29
  C 236.41 72.18 229.92 72.83 223.65 72.54
  C 221.71 72.46 219.94 73.37 218.26 73.43
  Q 213.85 73.59 209.45 73.97
  Q 160.36 74.12 111.26 74.33
  C 99.50 74.38 98.84 81.26 98.78 91.38
  Q 98.54 133.22 98.22 175.09
  C 98.17 181.70 99.23 185.83 105.50 188.16
  Q 105.56 188.44 107.22 188.91
  A 0.21 0.21 0.0 0 1 107.27 189.30
  C 105.25 190.42 102.81 188.38 100.78 187.57
  Q 95.78 183.76 96.15 177.49
  Q 96.59 169.87 96.20 162.59
  A 1.06 1.06 0.0 0 0 95.13 161.58
  L 40.93 161.85
  Q 40.42 161.85 40.04 162.20
  Q 39.46 162.75 38.75 162.63
  Q 38.32 162.56 38.10 162.13
  Q 37.89 161.74 37.83 161.29
  Q 37.22 150.53 36.69 139.76
  C 36.59 137.76 37.06 135.68 37.06 133.75
  Q 37.12 115.34 37.22 96.97
  Q 37.39 89.06 37.86 81.17
  Q 38.33 73.21 40.09 69.58
  Q 42.88 63.82 48.90 60.89
  Q 59.83 55.58 100.00 38.67
  Q 101.17 38.18 101.62 39.28
  C 101.95 40.01 102.02 40.79 101.63 41.57
  Q 98.39 48.03 94.92 54.49
  Q 94.68 54.94 94.83 55.43
  Q 95.49 57.50 98.62 57.53
  Q 106.84 57.29 115.00 54.52
  C 116.63 54.05 143.65 45.48 134.92 41.06
  Q 128.81 37.96 122.86 34.75
  Q 122.27 34.43 122.06 33.80
  L 117.91 20.94
  L 116.92 17.90
  Q 110.47 13.86 101.28 18.70
  C 95.64 21.67 97.34 26.61 99.27 31.57
  Q 99.45 32.04 99.94 32.07
  Q 101.14 32.16 101.28 33.27
  Q 96.95 33.98 95.75 34.63
  Q 92.71 36.30 87.48 38.33
  C 83.81 39.76 79.66 42.17 76.13 43.75
  Q 57.57 52.03 50.70 54.96
  C 46.51 56.74 41.70 59.78 39.68 63.96
  C 38.22 66.97 36.84 69.29 36.33 72.65
  Q 34.85 82.55 34.97 93.04
  L 35.24 153.28
  L 34.91 160.89
  A 1.02 1.02 0.0 0 1 33.91 161.87
  L 2.53 162.26
  A 1.96 1.96 0.0 0 0 0.61 163.97
  L 0.00 168.75
  L 0.00 0.00
  Z"
/>
<path fill="#e0b06b" d="
  M 116.92 17.90
  Q 114.92 16.78 112.87 16.72
  Q 112.27 16.71 111.82 17.10
  L 108.31 20.17
  Q 107.90 20.53 107.90 21.06
  Q 107.89 21.45 107.61 21.67
  Q 107.29 21.92 107.17 22.30
  Q 105.69 26.77 106.40 28.49
  C 107.79 31.85 108.04 35.04 109.93 38.34
  A 2.28 2.26 68.2 0 0 112.43 39.42
  Q 114.59 38.89 116.07 40.88
  Q 118.18 43.70 120.14 46.61
  Q 121.26 48.26 120.98 50.70
  L 113.21 53.78
  Q 110.07 54.31 107.10 55.54
  C 105.98 56.00 104.71 56.01 103.51 56.21
  Q 102.49 56.37 101.76 55.87
  Q 101.39 55.61 101.70 55.28
  Q 102.48 54.46 102.84 53.36
  Q 103.66 50.85 104.41 48.33
  Q 105.00 46.34 105.72 44.42
  Q 107.46 39.79 104.30 36.22
  Q 103.97 35.86 103.57 36.13
  Q 102.11 37.09 102.34 38.50
  Q 103.12 43.22 101.12 46.41
  Q 100.88 46.80 100.84 47.26
  C 100.67 49.10 99.37 50.09 99.05 51.51
  Q 98.59 53.56 98.73 55.69
  Q 98.76 56.06 98.46 56.28
  Q 98.30 56.39 98.10 56.39
  Q 97.69 56.37 97.95 56.69
  L 98.62 57.53
  Q 95.49 57.50 94.83 55.43
  Q 94.68 54.94 94.92 54.49
  Q 98.39 48.03 101.63 41.57
  C 102.02 40.79 101.95 40.01 101.62 39.28
  L 101.81 37.52
  Q 101.86 37.03 102.14 36.62
  Q 103.62 34.48 101.28 33.27
  Q 101.14 32.16 99.94 32.07
  Q 99.45 32.04 99.27 31.57
  C 97.34 26.61 95.64 21.67 101.28 18.70
  Q 110.47 13.86 116.92 17.90
  Z"
/>
<path fill="#c89250" d="
  M 116.92 17.90
  L 117.91 20.94
  Q 117.26 20.81 117.17 20.48
  Q 116.58 18.37 115.11 17.45
  A 1.81 1.80 22.9 0 0 112.41 18.54
  Q 112.03 20.05 110.98 21.38
  Q 110.67 21.78 110.62 22.29
  Q 110.20 26.31 112.04 29.92
  Q 112.05 29.95 112.18 30.34
  Q 112.27 30.60 112.51 30.75
  Q 112.97 31.03 112.90 31.56
  Q 112.59 34.10 113.61 36.48
  A 2.28 2.27 77.6 0 0 115.76 37.86
  Q 120.87 37.72 125.55 39.91
  A 1.02 0.02 10.2 0 0 126.52 40.10
  Q 126.92 40.17 127.22 40.66
  A 1.06 1.05 -6.6 0 0 127.78 41.10
  Q 130.23 41.90 131.86 43.96
  A 1.33 1.33 0.0 0 1 131.37 46.01
  L 120.98 50.70
  Q 121.26 48.26 120.14 46.61
  Q 118.18 43.70 116.07 40.88
  Q 114.59 38.89 112.43 39.42
  A 2.28 2.26 68.2 0 1 109.93 38.34
  C 108.04 35.04 107.79 31.85 106.40 28.49
  Q 105.69 26.77 107.17 22.30
  Q 107.29 21.92 107.61 21.67
  Q 107.89 21.45 107.90 21.06
  Q 107.90 20.53 108.31 20.17
  L 111.82 17.10
  Q 112.27 16.71 112.87 16.72
  Q 114.92 16.78 116.92 17.90
  Z"
/>
<path fill="#a56d34" d="
  M 117.91 20.94
  L 122.06 33.80
  Q 122.27 34.43 122.86 34.75
  Q 128.81 37.96 134.92 41.06
  C 143.65 45.48 116.63 54.05 115.00 54.52
  Q 112.56 54.56 113.21 53.78
  L 120.98 50.70
  L 131.37 46.01
  A 1.33 1.33 0.0 0 0 131.86 43.96
  Q 130.23 41.90 127.78 41.10
  A 1.06 1.05 -6.6 0 1 127.22 40.66
  Q 126.92 40.17 126.52 40.10
  A 1.02 0.02 10.2 0 1 125.55 39.91
  Q 120.87 37.72 115.76 37.86
  A 2.28 2.27 77.6 0 1 113.61 36.48
  Q 112.59 34.10 112.90 31.56
  Q 112.97 31.03 112.51 30.75
  Q 112.27 30.60 112.18 30.34
  Q 112.05 29.95 112.04 29.92
  Q 110.20 26.31 110.62 22.29
  Q 110.67 21.78 110.98 21.38
  Q 112.03 20.05 112.41 18.54
  A 1.81 1.80 22.9 0 1 115.11 17.45
  Q 116.58 18.37 117.17 20.48
  Q 117.26 20.81 117.91 20.94
  Z"
/>
<path fill="#4b6656" d="
  M 292.06 98.25
  Q 292.03 99.00 291.36 99.25
  A 0.93 0.92 -10.5 0 1 290.10 98.39
  L 289.95 52.00
  Q 289.94 51.43 289.43 51.68
  Q 289.14 51.82 289.05 52.26
  Q 288.76 53.74 288.73 55.25
  Q 288.53 65.00 288.72 75.57
  Q 288.75 76.73 287.61 76.48
  L 286.76 76.29
  L 283.83 73.65
  Q 283.40 71.02 282.19 68.91
  Q 280.95 66.74 280.70 65.28
  Q 279.79 60.18 279.32 54.92
  C 278.87 48.56 281.27 29.90 290.81 30.43
  C 295.77 30.71 298.87 37.32 300.00 41.49
  C 302.73 51.54 303.02 70.56 292.72 76.72
  A 1.48 1.46 -15.6 0 0 292.00 77.98
  L 292.06 98.25
  Z
  M 289.3490 37.4834
  A 1.83 1.11 74.5 0 0 289.9296 35.4234
  A 1.83 1.11 74.5 0 0 288.3710 33.9566
  A 1.83 1.11 74.5 0 0 287.7904 36.0166
  A 1.83 1.11 74.5 0 0 289.3490 37.4834
  Z
  M 287.3844 45.0205
  A 3.28 2.09 47.3 0 0 286.6960 41.1926
  A 3.28 2.09 47.3 0 0 282.9356 40.1995
  A 3.28 2.09 47.3 0 0 283.6240 44.0274
  A 3.28 2.09 47.3 0 0 287.3844 45.0205
  Z
  M 294.7728 51.7128
  A 4.00 2.09 112.6 0 0 298.2395 48.8232
  A 4.00 2.09 112.6 0 0 297.8472 44.3272
  A 4.00 2.09 112.6 0 0 294.3805 47.2168
  A 4.00 2.09 112.6 0 0 294.7728 51.7128
  Z
  M 285.1816 60.3025
  A 1.60 1.08 20.2 0 0 284.0529 58.7364
  A 1.60 1.08 20.2 0 0 282.1784 59.1975
  A 1.60 1.08 20.2 0 0 283.3071 60.7636
  A 1.60 1.08 20.2 0 0 285.1816 60.3025
  Z
  M 297.1921 64.3853
  A 1.10 0.93 -27.9 0 0 295.7848 64.0781
  A 1.10 0.93 -27.9 0 0 295.2479 65.4147
  A 1.10 0.93 -27.9 0 0 296.6552 65.7219
  A 1.10 0.93 -27.9 0 0 297.1921 64.3853
  Z"
/>
<path fill="#a9a49c" d="
  M 101.62 39.28
  Q 101.17 38.18 100.00 38.67
  Q 59.83 55.58 48.90 60.89
  Q 42.88 63.82 40.09 69.58
  Q 38.33 73.21 37.86 81.17
  Q 37.39 89.06 37.22 96.97
  Q 36.72 89.09 37.00 86.50
  Q 37.79 79.34 37.49 76.38
  Q 37.45 75.97 37.04 76.01
  L 36.77 76.03
  Q 36.58 76.04 36.56 76.23
  L 34.97 93.04
  Q 34.85 82.55 36.33 72.65
  C 36.84 69.29 38.22 66.97 39.68 63.96
  C 41.70 59.78 46.51 56.74 50.70 54.96
  Q 57.57 52.03 76.13 43.75
  C 79.66 42.17 83.81 39.76 87.48 38.33
  Q 92.71 36.30 95.75 34.63
  Q 96.95 33.98 101.28 33.27
  Q 103.62 34.48 102.14 36.62
  Q 101.86 37.03 101.81 37.52
  L 101.62 39.28
  Z"
/>
<ellipse fill="#ffffff" cx="0.00" cy="0.00" transform="translate(288.86,35.72) rotate(74.5)" rx="1.83" ry="1.11"/>
<path fill="#c89250" d="
  M 113.21 53.78
  Q 112.56 54.56 115.00 54.52
  Q 106.84 57.29 98.62 57.53
  L 97.95 56.69
  Q 97.69 56.37 98.10 56.39
  Q 98.30 56.39 98.46 56.28
  Q 98.76 56.06 98.73 55.69
  Q 98.59 53.56 99.05 51.51
  C 99.37 50.09 100.67 49.10 100.84 47.26
  Q 100.88 46.80 101.12 46.41
  Q 103.12 43.22 102.34 38.50
  Q 102.11 37.09 103.57 36.13
  Q 103.97 35.86 104.30 36.22
  Q 107.46 39.79 105.72 44.42
  Q 105.00 46.34 104.41 48.33
  Q 103.66 50.85 102.84 53.36
  Q 102.48 54.46 101.70 55.28
  Q 101.39 55.61 101.76 55.87
  Q 102.49 56.37 103.51 56.21
  C 104.71 56.01 105.98 56.00 107.10 55.54
  Q 110.07 54.31 113.21 53.78
  Z"
/>
<ellipse fill="#ffffff" cx="0.00" cy="0.00" transform="translate(285.16,42.61) rotate(47.3)" rx="3.28" ry="2.09"/>
<ellipse fill="#ffffff" cx="0.00" cy="0.00" transform="translate(296.31,48.02) rotate(112.6)" rx="4.00" ry="2.09"/>
<path fill="#92b0a6" d="
  M 292.06 98.25
  Q 292.91 99.39 293.89 98.64
  C 294.62 98.07 295.08 97.04 295.18 96.01
  C 296.05 86.80 308.68 78.37 316.50 75.52
  Q 320.59 74.03 325.04 74.52
  Q 316.19 75.91 308.12 81.10
  Q 300.10 86.26 295.98 95.09
  A 0.72 0.72 0.0 0 0 297.06 95.97
  L 309.50 86.65
  Q 310.58 85.84 311.06 87.11
  Q 311.34 87.84 310.40 89.01
  Q 309.99 89.52 309.20 90.09
  Q 300.13 96.71 291.13 103.50
  A 2.39 2.39 0.0 0 0 290.17 105.29
  Q 289.45 118.07 290.17 130.83
  Q 290.20 131.35 290.63 131.64
  Q 291.87 132.48 292.07 131.04
  Q 292.37 131.88 292.98 131.58
  Q 294.56 130.79 295.90 129.18
  A 1.52 1.49 67.1 0 0 296.25 128.30
  L 296.32 126.54
  Q 296.64 127.03 296.63 127.15
  A 0.76 0.66 -17.8 0 0 297.78 127.64
  Q 299.18 126.77 300.07 125.37
  Q 300.35 124.92 300.88 124.88
  Q 302.43 124.78 302.24 123.87
  Q 303.29 124.02 303.21 123.00
  Q 303.68 123.15 304.06 123.15
  Q 304.44 123.16 304.82 122.81
  Q 309.28 118.77 314.55 115.64
  A 0.45 0.45 0.0 0 1 315.22 115.96
  Q 315.30 116.50 314.94 117.58
  Q 311.71 120.21 308.13 122.92
  Q 302.79 126.94 297.41 130.92
  C 294.75 132.89 291.99 134.35 289.85 137.28
  A 1.23 1.21 -27.6 0 0 289.62 137.99
  L 289.62 143.56
  Q 289.62 143.68 289.72 143.75
  L 289.95 143.91
  Q 282.97 144.09 278.62 143.88
  Q 277.75 143.83 277.95 143.22
  L 286.80 142.81
  A 0.85 0.85 0.0 0 0 287.60 142.01
  Q 288.05 135.00 287.58 127.61
  C 287.36 124.21 285.27 122.49 282.51 121.09
  Q 282.05 120.86 281.58 121.09
  C 272.65 125.56 262.28 119.19 255.57 113.55
  L 254.63 94.75
  C 260.52 92.08 268.04 93.88 273.26 97.15
  Q 272.73 97.06 272.46 97.16
  Q 271.97 97.36 272.42 97.64
  C 278.32 101.28 285.46 107.44 284.25 115.26
  A 0.88 0.88 0.0 0 1 282.85 115.84
  L 268.60 105.08
  A 0.78 0.78 0.0 0 0 267.37 105.55
  Q 267.18 106.51 268.28 107.17
  C 274.00 110.59 278.85 115.02 284.39 118.77
  A 0.70 0.70 0.0 0 0 285.36 118.60
  Q 285.48 118.45 285.33 118.02
  L 286.77 119.13
  A 0.53 0.53 0.0 0 0 287.63 118.71
  Q 287.68 109.18 287.89 100.00
  Q 287.95 97.63 287.31 95.37
  Q 287.19 94.92 286.81 94.63
  L 280.40 89.87
  Q 279.95 89.53 279.40 89.67
  C 269.11 92.27 257.51 79.65 254.07 71.51
  C 252.01 66.65 256.67 64.38 260.72 65.32
  Q 268.35 67.10 272.66 72.87
  Q 276.45 77.90 278.47 83.10
  C 279.52 85.81 281.04 87.24 283.82 87.46
  Q 285.23 88.02 286.71 89.26
  A 0.59 0.59 0.0 0 0 287.67 88.82
  L 287.87 78.32
  Q 287.88 77.82 287.59 77.42
  L 286.76 76.29
  L 287.61 76.48
  Q 288.75 76.73 288.72 75.57
  Q 288.53 65.00 288.73 55.25
  Q 288.76 53.74 289.05 52.26
  Q 289.14 51.82 289.43 51.68
  Q 289.94 51.43 289.95 52.00
  L 290.10 98.39
  A 0.93 0.92 -10.5 0 0 291.36 99.25
  Q 292.03 99.00 292.06 98.25
  Z
  M 265.0731 72.7941
  A 1.66 0.66 73.8 0 0 265.2438 71.0159
  A 1.66 0.66 73.8 0 0 264.1469 69.6059
  A 1.66 0.66 73.8 0 0 263.9762 71.3841
  A 1.66 0.66 73.8 0 0 265.0731 72.7941
  Z
  M 273.98 76.72
  A 0.65 0.65 0.0 0 0 272.84 77.03
  Q 272.64 78.16 273.45 78.71
  Q 273.97 79.07 274.23 78.49
  Q 274.68 77.53 273.98 76.72
  Z
  M 267.11 83.54
  Q 267.78 84.41 268.58 84.41
  A 0.61 0.61 0.0 0 0 269.18 83.68
  Q 268.92 82.47 268.19 81.46
  Q 267.88 81.04 267.37 81.02
  Q 266.87 80.99 266.55 81.27
  Q 266.56 81.08 266.41 80.95
  A 0.35 0.34 48.5 0 0 265.97 80.92
  Q 265.04 81.57 264.82 82.68
  Q 264.70 83.29 265.23 83.62
  Q 266.61 84.49 267.11 83.54
  Z
  M 267.9383 101.1725
  A 1.82 1.18 42.2 0 0 267.3826 99.0759
  A 1.82 1.18 42.2 0 0 265.2417 98.7275
  A 1.82 1.18 42.2 0 0 265.7974 100.8241
  A 1.82 1.18 42.2 0 0 267.9383 101.1725
  Z
  M 275.69 104.42
  L 275.38 105.73
  Q 275.25 106.28 275.81 106.38
  Q 276.34 106.47 276.70 105.98
  Q 277.83 104.44 276.80 103.70
  Q 277.07 103.36 277.18 102.96
  Q 277.35 102.39 276.76 102.45
  Q 275.26 102.59 274.17 103.54
  A 0.86 0.86 0.0 0 0 273.93 104.49
  Q 274.40 105.79 275.69 104.42
  Z
  M 262.52 109.42
  L 260.81 110.07
  A 0.48 0.48 0.0 0 0 260.96 110.99
  Q 262.59 111.08 263.60 109.81
  Q 264.07 109.22 263.32 109.09
  Q 262.94 109.02 262.72 109.28
  Q 262.64 109.37 262.52 109.42
  Z
  M 266.20 117.85
  C 268.40 119.69 271.14 117.40 271.98 115.37
  A 0.43 0.43 0.0 0 0 271.58 114.77
  L 269.04 114.76
  L 269.96 113.90
  Q 270.61 113.30 269.74 113.16
  C 268.22 112.92 266.75 114.47 265.69 115.39
  Q 265.07 115.94 264.88 116.59
  Q 264.37 118.31 266.20 117.85
  Z"
/>
<path fill="#92b0a6" d="
  M 279.32 54.92
  Q 279.79 60.18 280.70 65.28
  Q 280.95 66.74 282.19 68.91
  Q 283.40 71.02 283.83 73.65
  Q 278.15 65.29 279.32 54.92
  Z"
/>
<ellipse fill="#ffffff" cx="0.00" cy="0.00" transform="translate(283.68,59.75) rotate(20.2)" rx="1.60" ry="1.08"/>
<ellipse fill="#dedbd6" cx="0.00" cy="0.00" transform="translate(296.22,64.90) rotate(-27.9)" rx="1.10" ry="0.93"/>
<ellipse fill="#4b6656" cx="0.00" cy="0.00" transform="translate(264.61,71.20) rotate(73.8)" rx="1.66" ry="0.66"/>
<path fill="#dedbd6" d="
  M 254.63 94.75
  L 255.57 113.55
  Q 255.18 113.13 254.66 112.95
  Q 254.30 112.82 254.30 113.21
  L 253.78 160.15
  Q 253.77 160.73 254.27 161.05
  C 255.77 161.98 257.09 161.37 258.41 161.38
  Q 266.19 161.44 273.75 161.04
  A 1.73 1.72 87.9 0 0 275.38 159.28
  Q 275.26 151.30 276.87 144.00
  Q 277.03 143.28 277.95 143.22
  Q 277.75 143.83 278.62 143.88
  Q 282.97 144.09 289.95 143.91
  Q 290.70 144.12 291.51 143.99
  Q 291.97 143.91 292.01 143.44
  L 292.06 142.62
  L 301.35 142.93
  Q 299.19 143.26 296.88 144.95
  A 1.15 1.11 31.2 0 1 296.00 145.15
  Q 294.82 144.94 293.87 145.60
  A 3.81 2.82 61.5 0 0 293.26 149.90
  Q 293.69 150.80 292.84 151.58
  Q 292.54 151.85 292.14 151.91
  Q 291.36 152.02 290.58 152.20
  Q 290.52 152.21 290.49 152.27
  Q 290.42 152.41 290.35 152.55
  A 0.20 0.20 0.0 0 0 290.52 152.83
  L 292.53 152.89
  Q 292.82 152.90 292.84 153.19
  L 292.86 153.53
  A 0.29 0.28 -13.8 0 1 292.68 153.82
  Q 291.78 154.19 290.85 154.13
  A 0.38 0.38 0.0 0 0 290.72 154.87
  L 291.55 155.14
  Q 291.96 155.28 292.09 155.69
  Q 292.26 156.21 292.04 156.72
  Q 291.96 156.88 291.79 156.88
  Q 291.66 156.88 291.53 156.88
  A 0.38 0.37 -18.6 0 0 291.23 157.48
  Q 291.52 157.84 291.96 157.97
  Q 292.46 158.11 292.50 158.63
  Q 293.20 167.13 291.41 174.25
  Q 291.29 174.75 290.70 174.61
  Q 290.34 174.53 290.40 174.16
  Q 290.68 172.33 291.01 170.55
  C 291.71 166.71 291.57 162.35 291.65 158.48
  A 0.64 0.63 -78.9 0 0 291.25 157.87
  L 290.94 157.75
  Q 290.59 157.61 290.58 157.99
  L 290.29 168.95
  Q 290.28 169.35 290.06 169.69
  Q 289.43 170.62 289.73 172.07
  A 2.19 2.18 86.2 0 1 287.45 174.68
  L 275.95 173.97
  Q 274.40 171.74 274.62 167.57
  A 0.94 0.93 -79.5 0 0 273.98 166.63
  Q 273.07 166.34 271.09 166.54
  A 0.17 0.16 9.9 0 0 270.96 166.63
  C 268.84 170.96 265.04 167.60 262.24 166.65
  Q 259.31 165.65 255.80 167.11
  Q 255.33 167.31 255.29 167.82
  C 254.96 172.10 254.96 176.75 253.73 180.89
  C 252.67 184.48 252.56 188.05 249.00 189.67
  Q 248.15 190.06 248.69 189.30
  Q 249.00 188.86 249.45 188.51
  Q 250.28 187.86 249.24 187.98
  Q 247.96 188.12 246.93 188.94
  Q 246.55 189.24 246.08 189.34
  C 244.27 189.71 242.74 190.57 240.93 190.64
  Q 234.87 190.88 228.78 190.85
  L 111.89 190.64
  Q 111.62 190.64 111.62 190.91
  L 111.62 191.16
  A 0.47 0.46 -90.0 0 0 112.08 191.63
  Q 123.02 191.63 134.00 191.62
  Q 135.37 191.62 137.50 192.14
  C 138.66 192.42 140.17 191.65 141.50 191.76
  C 145.80 192.13 149.64 191.51 153.61 191.77
  Q 157.56 192.02 159.92 191.86
  Q 166.79 191.41 173.67 191.90
  C 176.09 192.08 178.51 191.80 181.00 191.83
  Q 194.73 191.98 208.46 191.67
  Q 209.70 191.65 212.02 191.85
  C 214.96 192.10 219.13 191.64 220.92 191.64
  Q 227.80 191.66 234.95 191.55
  L 247.92 191.62
  Q 248.05 191.62 247.96 191.71
  L 247.71 191.96
  Q 247.21 192.45 247.91 192.60
  L 254.23 193.91
  A 2.46 2.46 0.0 0 1 256.17 196.62
  Q 255.93 198.62 257.32 199.98
  Q 257.64 200.29 258.08 200.35
  L 258.99 200.46
  L 257.89 200.57
  Q 257.34 200.63 257.35 201.18
  C 257.39 204.98 258.91 209.56 257.72 212.53
  A 1.03 1.03 0.0 0 1 256.98 213.14
  L 252.11 214.17
  Q 247.58 215.00 245.25 214.99
  Q 170.28 214.88 95.22 215.00
  Q 94.92 215.60 94.48 214.95
  Q 94.24 214.60 94.63 214.45
  Q 94.87 214.37 95.04 214.23
  Q 95.34 213.98 94.96 214.00
  Q 92.37 214.09 91.30 211.81
  A 1.40 1.38 37.7 0 1 91.19 211.00
  Q 92.69 202.40 96.41 194.53
  Q 96.64 194.03 96.97 193.86
  Q 97.51 193.57 97.93 194.02
  A 0.45 0.45 0.0 0 0 98.65 193.92
  Q 99.54 192.31 101.19 193.12
  A 0.31 0.31 0.0 0 0 101.63 192.78
  Q 101.50 192.16 101.89 192.46
  Q 102.34 192.81 102.27 192.24
  L 102.10 191.06
  Q 102.08 190.91 102.21 190.98
  Q 102.37 191.05 102.52 191.13
  A 0.29 0.29 0.0 0 0 102.93 190.81
  Q 102.66 189.57 100.78 187.57
  C 102.81 188.38 105.25 190.42 107.27 189.30
  A 0.21 0.21 0.0 0 0 107.22 188.91
  Q 105.56 188.44 105.50 188.16
  L 119.54 188.39
  Q 179.67 188.55 239.81 188.31
  C 247.03 188.28 252.13 185.03 252.05 177.24
  Q 251.58 132.65 251.42 88.05
  Q 251.39 81.82 249.93 79.21
  Q 247.37 74.64 241.25 74.36
  Q 237.41 74.18 225.32 74.28
  L 209.45 73.97
  Q 213.85 73.59 218.26 73.43
  C 219.94 73.37 221.71 72.46 223.65 72.54
  C 229.92 72.83 236.41 72.18 242.75 72.29
  C 247.27 72.37 251.04 75.76 252.81 79.62
  Q 253.76 81.70 253.90 86.79
  Q 254.01 90.83 254.63 94.75
  Z
  M 222.97 204.11
  L 227.29 204.25
  L 240.72 204.33
  A 0.85 0.85 0.0 0 0 241.56 203.33
  L 240.07 195.23
  Q 239.73 193.37 237.84 193.36
  L 215.23 193.27
  A 0.63 0.63 0.0 0 0 214.60 193.89
  L 214.60 195.27
  A 0.50 0.49 9.6 0 1 213.95 195.73
  Q 212.68 195.30 212.27 193.95
  A 0.82 0.82 0.0 0 0 211.50 193.38
  Q 208.15 193.33 197.99 193.39
  Q 195.43 193.41 195.43 195.21
  A 0.44 0.44 0.0 0 1 194.80 195.61
  C 193.41 194.95 193.88 193.38 191.37 193.29
  Q 185.06 193.08 178.75 193.38
  Q 176.56 193.49 176.65 195.26
  Q 176.66 195.42 176.51 195.49
  Q 176.36 195.57 176.20 195.65
  Q 175.76 195.87 175.69 195.38
  Q 175.48 193.96 174.00 193.44
  Q 173.61 193.30 173.20 193.30
  L 159.46 193.31
  Q 158.91 193.31 158.48 193.66
  Q 157.89 194.14 158.25 194.60
  Q 158.67 195.14 158.01 195.32
  L 157.47 195.47
  Q 156.94 195.61 156.68 195.13
  Q 155.72 193.40 153.00 193.33
  Q 147.17 193.17 140.28 193.36
  A 1.24 1.24 0.0 0 0 139.08 194.47
  Q 138.98 195.40 138.26 195.84
  A 0.52 0.52 0.0 0 1 137.50 195.57
  Q 137.13 194.54 136.36 193.75
  Q 135.90 193.29 135.25 193.29
  L 112.44 193.32
  A 0.98 0.97 7.8 0 0 111.50 194.03
  L 109.08 202.48
  A 1.23 1.23 0.0 0 0 110.24 204.05
  L 126.07 204.35
  A 0.65 0.65 0.0 0 0 126.73 203.67
  L 126.68 202.50
  Q 126.54 199.20 128.01 202.27
  Q 128.17 202.59 128.30 203.09
  A 1.53 1.53 0.0 0 0 129.77 204.24
  L 203.11 204.31
  A 0.73 0.73 0.0 0 0 203.76 203.26
  Q 203.39 202.50 203.67 201.73
  Q 203.96 200.95 204.45 201.63
  C 207.37 205.65 216.99 204.49 222.97 204.11
  Z"
/>
<path fill="#4b6656" d="
  M 272.66 72.87
  Q 276.99 76.01 279.05 80.64
  C 280.54 83.98 280.79 85.19 283.82 87.46
  C 281.04 87.24 279.52 85.81 278.47 83.10
  Q 276.45 77.90 272.66 72.87
  Z"
/>
<path fill="#423f3a" d="
  M 209.45 73.97
  L 225.32 74.28
  L 220.65 74.90
  Q 220.19 74.96 219.80 75.20
  Q 219.11 75.61 218.31 75.54
  Q 217.73 75.49 218.04 75.98
  Q 218.53 76.74 218.66 77.70
  A 1.66 1.66 0.0 0 1 218.31 78.97
  Q 216.16 81.57 214.16 84.27
  Q 214.16 84.68 213.81 84.77
  Q 213.46 84.86 213.44 85.22
  C 213.30 87.57 213.23 91.88 211.80 93.79
  Q 210.96 94.91 210.06 96.00
  Q 209.77 96.37 209.70 96.83
  Q 209.28 99.75 207.63 102.11
  C 205.99 104.44 203.61 104.27 201.01 104.13
  A 0.90 0.90 0.0 0 0 200.07 105.00
  L 199.88 111.47
  Q 199.87 111.89 199.57 112.18
  Q 199.43 112.31 199.38 112.50
  Q 199.32 112.72 199.45 112.91
  Q 199.53 113.05 199.65 113.09
  Q 199.81 113.15 199.70 113.29
  Q 198.54 114.68 197.74 116.33
  Q 197.64 116.53 197.66 116.74
  Q 197.69 116.99 197.77 117.24
  Q 197.88 117.63 197.48 117.63
  L 196.78 117.64
  Q 196.51 117.64 196.51 117.91
  Q 196.51 118.07 196.49 118.24
  Q 196.46 118.53 196.75 118.54
  L 198.19 118.62
  A 0.05 0.04 -46.8 0 1 198.19 118.71
  L 197.75 118.79
  Q 197.31 118.87 197.75 118.94
  Q 197.91 118.96 198.06 119.00
  Q 198.44 119.10 198.05 119.11
  Q 197.42 119.13 197.47 119.58
  Q 170.87 119.71 144.25 119.75
  Q 141.59 119.75 140.39 123.14
  Q 139.53 119.74 136.52 119.74
  Q 125.83 119.72 115.20 119.77
  A 3.53 3.52 89.8 0 0 111.70 123.30
  L 111.76 144.74
  A 3.53 3.52 89.8 0 0 115.29 148.26
  Q 125.71 148.23 136.64 148.11
  Q 139.83 148.07 140.36 144.81
  Q 141.64 148.23 145.00 148.18
  Q 165.33 147.85 204.30 148.06
  Q 194.54 148.67 193.22 148.61
  Q 187.08 148.36 184.00 148.47
  L 155.76 149.48
  A 0.08 0.07 42.5 0 0 155.77 149.63
  Q 158.03 149.63 160.50 149.65
  Q 161.00 149.66 160.94 150.09
  Q 160.90 150.49 160.51 150.59
  Q 159.03 150.97 157.50 150.87
  Q 156.98 150.83 156.71 151.18
  Q 156.41 151.55 155.94 151.58
  Q 154.30 151.70 153.20 153.00
  Q 153.09 153.13 152.92 153.09
  Q 152.76 153.06 152.62 153.09
  Q 152.27 153.16 152.31 153.52
  Q 152.71 156.60 151.77 159.53
  A 0.54 0.50 79.6 0 1 151.65 159.72
  L 148.93 162.04
  A 0.83 0.81 68.9 0 0 148.64 162.71
  Q 148.67 163.98 147.75 164.87
  Q 147.44 165.17 147.38 165.60
  C 147.07 167.68 145.52 167.72 144.51 168.69
  C 140.75 172.33 140.23 176.67 139.10 181.24
  Q 138.98 181.76 139.24 182.22
  Q 139.57 182.80 139.10 183.50
  Q 138.85 183.86 138.99 184.27
  Q 139.21 184.93 139.73 185.47
  Q 140.09 185.83 139.66 186.09
  Q 137.99 187.10 135.99 187.10
  Q 124.44 187.10 112.88 187.25
  C 111.47 187.26 110.08 188.11 108.36 187.55
  Q 108.14 187.48 108.10 187.71
  L 108.10 187.72
  Q 108.06 187.95 108.29 187.96
  L 119.54 188.39
  L 105.50 188.16
  C 99.23 185.83 98.17 181.70 98.22 175.09
  Q 98.54 133.22 98.78 91.38
  C 98.84 81.26 99.50 74.38 111.26 74.33
  Q 160.36 74.12 209.45 73.97
  Z"
/>
<path fill="#3b3a36" d="
  M 225.32 74.28
  Q 237.41 74.18 241.25 74.36
  Q 247.37 74.64 249.93 79.21
  Q 251.39 81.82 251.42 88.05
  Q 251.58 132.65 252.05 177.24
  C 252.13 185.03 247.03 188.28 239.81 188.31
  Q 179.67 188.55 119.54 188.39
  L 108.29 187.96
  Q 108.06 187.95 108.10 187.72
  L 108.10 187.71
  Q 108.14 187.48 108.36 187.55
  C 110.08 188.11 111.47 187.26 112.88 187.25
  Q 124.44 187.10 135.99 187.10
  Q 137.99 187.10 139.66 186.09
  Q 140.09 185.83 139.73 185.47
  Q 139.21 184.93 138.99 184.27
  Q 138.85 183.86 139.10 183.50
  Q 139.57 182.80 139.24 182.22
  Q 138.98 181.76 139.10 181.24
  C 140.23 176.67 140.75 172.33 144.51 168.69
  C 145.52 167.72 147.07 167.68 147.38 165.60
  Q 147.44 165.17 147.75 164.87
  Q 148.67 163.98 148.64 162.71
  A 0.83 0.81 68.9 0 1 148.93 162.04
  L 151.65 159.72
  A 0.54 0.50 79.6 0 0 151.77 159.53
  Q 152.71 156.60 152.31 153.52
  Q 152.27 153.16 152.62 153.09
  Q 152.76 153.06 152.92 153.09
  Q 153.09 153.13 153.20 153.00
  Q 154.30 151.70 155.94 151.58
  Q 156.41 151.55 156.71 151.18
  Q 156.98 150.83 157.50 150.87
  Q 159.03 150.97 160.51 150.59
  Q 160.90 150.49 160.94 150.09
  Q 161.00 149.66 160.50 149.65
  Q 158.03 149.63 155.77 149.63
  A 0.08 0.07 42.5 0 1 155.76 149.48
  L 184.00 148.47
  Q 187.08 148.36 193.22 148.61
  Q 194.54 148.67 204.30 148.06
  L 236.48 147.79
  Q 240.48 147.75 240.48 143.76
  L 240.50 123.24
  A 3.76 3.75 89.9 0 0 236.74 119.48
  L 197.47 119.58
  Q 197.42 119.13 198.05 119.11
  Q 198.44 119.10 198.06 119.00
  Q 197.91 118.96 197.75 118.94
  Q 197.31 118.87 197.75 118.79
  L 198.19 118.71
  A 0.05 0.04 -46.8 0 0 198.19 118.62
  L 196.75 118.54
  Q 196.46 118.53 196.49 118.24
  Q 196.51 118.07 196.51 117.91
  Q 196.51 117.64 196.78 117.64
  L 197.48 117.63
  Q 197.88 117.63 197.77 117.24
  Q 197.69 116.99 197.66 116.74
  Q 197.64 116.53 197.74 116.33
  Q 198.54 114.68 199.70 113.29
  Q 199.81 113.15 199.65 113.09
  Q 199.53 113.05 199.45 112.91
  Q 199.32 112.72 199.38 112.50
  Q 199.43 112.31 199.57 112.18
  Q 199.87 111.89 199.88 111.47
  L 200.07 105.00
  A 0.90 0.90 0.0 0 1 201.01 104.13
  C 203.61 104.27 205.99 104.44 207.63 102.11
  Q 209.28 99.75 209.70 96.83
  Q 209.77 96.37 210.06 96.00
  Q 210.96 94.91 211.80 93.79
  C 213.23 91.88 213.30 87.57 213.44 85.22
  Q 213.46 84.86 213.81 84.77
  Q 214.16 84.68 214.16 84.27
  Q 216.16 81.57 218.31 78.97
  A 1.66 1.66 0.0 0 0 218.66 77.70
  Q 218.53 76.74 218.04 75.98
  Q 217.73 75.49 218.31 75.54
  Q 219.11 75.61 219.80 75.20
  Q 220.19 74.96 220.65 74.90
  L 225.32 74.28
  Z"
/>
<path fill="#4b6656" d="
  M 325.04 74.52
  C 329.03 76.96 327.32 81.39 325.17 84.44
  Q 317.17 95.80 304.01 99.85
  C 301.83 100.52 298.89 99.69 297.06 100.92
  C 294.81 102.43 292.24 103.89 292.20 106.75
  Q 292.04 118.89 292.07 131.04
  Q 291.87 132.48 290.63 131.64
  Q 290.20 131.35 290.17 130.83
  Q 289.45 118.07 290.17 105.29
  A 2.39 2.39 0.0 0 1 291.13 103.50
  Q 300.13 96.71 309.20 90.09
  Q 309.99 89.52 310.40 89.01
  Q 311.34 87.84 311.06 87.11
  Q 310.58 85.84 309.50 86.65
  L 297.06 95.97
  A 0.72 0.72 0.0 0 1 295.98 95.09
  Q 300.10 86.26 308.12 81.10
  Q 316.19 75.91 325.04 74.52
  Z
  M 321.3321 77.4599
  A 2.45 1.02 -36.0 0 0 318.7505 78.0748
  A 2.45 1.02 -36.0 0 0 317.3679 80.3401
  A 2.45 1.02 -36.0 0 0 319.9495 79.7252
  A 2.45 1.02 -36.0 0 0 321.3321 77.4599
  Z
  M 309.40 82.22
  Q 309.13 82.46 309.34 82.75
  Q 309.74 83.30 310.66 82.89
  Q 311.12 82.68 311.02 82.11
  A 0.40 0.40 0.0 0 0 310.64 81.77
  Q 309.94 81.74 309.40 82.22
  Z"
/>
<path fill="#8d8576" d="
  M 37.22 96.97
  Q 37.12 115.34 37.06 133.75
  C 37.06 135.68 36.59 137.76 36.69 139.76
  Q 37.22 150.53 37.83 161.29
  C 37.55 165.10 37.11 172.02 40.09 173.85
  Q 42.07 175.06 39.76 174.84
  C 34.92 174.38 36.04 164.63 36.34 161.50
  Q 36.51 159.78 35.24 153.28
  L 34.97 93.04
  L 36.56 76.23
  Q 36.58 76.04 36.77 76.03
  L 37.04 76.01
  Q 37.45 75.97 37.49 76.38
  Q 37.79 79.34 37.00 86.50
  Q 36.72 89.09 37.22 96.97
  Z
  M 36.15 141.29
  Q 36.76 139.59 36.40 137.75
  Q 36.37 137.62 36.25 137.62
  Q 36.07 137.62 35.87 137.60
  Q 35.36 137.56 35.39 138.07
  L 35.55 141.20
  Q 35.62 142.76 36.15 141.29
  Z"
/>
<path fill="#4b6656" d="
  M 273.98 76.72
  Q 274.68 77.53 274.23 78.49
  Q 273.97 79.07 273.45 78.71
  Q 272.64 78.16 272.84 77.03
  A 0.65 0.65 0.0 0 1 273.98 76.72
  Z"
/>
<ellipse fill="#ffffff" cx="0.00" cy="0.00" transform="translate(319.35,78.90) rotate(-36.0)" rx="2.45" ry="1.02"/>
<path fill="#4b6656" d="
  M 266.55 81.27
  Q 265.71 82.39 267.11 83.54
  Q 266.61 84.49 265.23 83.62
  Q 264.70 83.29 264.82 82.68
  Q 265.04 81.57 265.97 80.92
  A 0.35 0.34 48.5 0 1 266.41 80.95
  Q 266.56 81.08 266.55 81.27
  Z"
/>
<path fill="#ffffff" d="
  M 267.11 83.54
  Q 265.71 82.39 266.55 81.27
  Q 266.87 80.99 267.37 81.02
  Q 267.88 81.04 268.19 81.46
  Q 268.92 82.47 269.18 83.68
  A 0.61 0.61 0.0 0 1 268.58 84.41
  Q 267.78 84.41 267.11 83.54
  Z"
/>
<path fill="#dedbd6" d="
  M 309.40 82.22
  Q 309.94 81.74 310.64 81.77
  A 0.40 0.40 0.0 0 1 311.02 82.11
  Q 311.12 82.68 310.66 82.89
  Q 309.74 83.30 309.34 82.75
  Q 309.13 82.46 309.40 82.22
  Z"
/>
<path fill="#7d9b8e" d="
  M 273.26 97.15
  C 278.84 100.11 287.38 108.38 285.75 115.50
  Q 285.29 117.48 285.33 118.02
  Q 285.48 118.45 285.36 118.60
  A 0.70 0.70 0.0 0 1 284.39 118.77
  C 278.85 115.02 274.00 110.59 268.28 107.17
  Q 267.18 106.51 267.37 105.55
  A 0.78 0.78 0.0 0 1 268.60 105.08
  L 282.85 115.84
  A 0.88 0.88 0.0 0 0 284.25 115.26
  C 285.46 107.44 278.32 101.28 272.42 97.64
  Q 271.97 97.36 272.46 97.16
  Q 272.73 97.06 273.26 97.15
  Z"
/>
<ellipse fill="#ffffff" cx="0.00" cy="0.00" transform="translate(266.59,99.95) rotate(42.2)" rx="1.82" ry="1.18"/>
<path fill="#7d9b8e" d="
  M 276.80 103.70
  L 275.69 104.42
  Q 274.40 105.79 273.93 104.49
  A 0.86 0.86 0.0 0 1 274.17 103.54
  Q 275.26 102.59 276.76 102.45
  Q 277.35 102.39 277.18 102.96
  Q 277.07 103.36 276.80 103.70
  Z"
/>
<path fill="#7d9b8e" d="
  M 299.36 132.40
  Q 303.70 129.65 307.34 126.38
  C 309.71 124.25 316.94 120.69 317.27 117.54
  A 0.85 0.85 0.0 0 0 315.87 116.80
  L 314.94 117.58
  Q 315.30 116.50 315.22 115.96
  A 0.45 0.45 0.0 0 0 314.55 115.64
  Q 309.28 118.77 304.82 122.81
  Q 304.44 123.16 304.06 123.15
  Q 303.68 123.15 303.21 123.00
  Q 302.88 121.24 301.74 120.69
  Q 301.19 120.43 300.93 120.97
  Q 300.14 122.59 302.24 123.87
  Q 302.43 124.78 300.88 124.88
  Q 300.35 124.92 300.07 125.37
  Q 299.18 126.77 297.78 127.64
  A 0.76 0.66 -17.8 0 1 296.63 127.15
  Q 296.64 127.03 296.32 126.54
  C 295.89 120.60 300.23 115.05 304.41 111.36
  C 310.42 106.06 316.95 102.64 325.00 103.13
  C 331.65 103.54 333.67 109.27 331.85 114.91
  C 328.95 123.92 320.09 130.81 311.25 133.40
  C 307.47 134.51 302.48 135.00 299.36 132.40
  Z
  M 323.7045 111.6661
  A 2.71 1.93 129.0 0 0 326.9099 110.7746
  A 2.71 1.93 129.0 0 0 327.1155 107.4539
  A 2.71 1.93 129.0 0 0 323.9101 108.3454
  A 2.71 1.93 129.0 0 0 323.7045 111.6661
  Z
  M 323.13 118.99
  L 324.46 119.54
  A 0.88 0.87 4.9 0 0 325.65 118.54
  Q 325.17 116.40 323.14 117.21
  A 0.96 0.96 0.0 0 0 323.13 118.99
  Z
  M 313.7802 128.9766
  A 1.42 0.87 42.9 0 0 313.3322 127.3727
  A 1.42 0.87 42.9 0 0 311.6998 127.0434
  A 1.42 0.87 42.9 0 0 312.1478 128.6473
  A 1.42 0.87 42.9 0 0 313.7802 128.9766
  Z"
/>
<path fill="#dedbd6" d="
  M 276.80 103.70
  Q 277.83 104.44 276.70 105.98
  Q 276.34 106.47 275.81 106.38
  Q 275.25 106.28 275.38 105.73
  L 275.69 104.42
  L 276.80 103.70
  Z"
/>
<ellipse fill="#ffffff" cx="0.00" cy="0.00" transform="translate(325.41,109.56) rotate(129.0)" rx="2.71" ry="1.93"/>
<path fill="#dedbd6" d="
  M 262.72 109.28
  Q 262.94 109.02 263.32 109.09
  Q 264.07 109.22 263.60 109.81
  Q 262.59 111.08 260.96 110.99
  A 0.48 0.48 0.0 0 1 260.81 110.07
  L 262.52 109.42
  Q 262.64 109.37 262.72 109.28
  Z"
/>
<path fill="#ffffff" d="
  M 255.57 113.55
  C 262.28 119.19 272.65 125.56 281.58 121.09
  Q 282.05 120.86 282.51 121.09
  C 285.27 122.49 287.36 124.21 287.58 127.61
  Q 288.05 135.00 287.60 142.01
  A 0.85 0.85 0.0 0 1 286.80 142.81
  L 277.95 143.22
  Q 277.03 143.28 276.87 144.00
  Q 275.26 151.30 275.38 159.28
  A 1.73 1.72 87.9 0 1 273.75 161.04
  Q 266.19 161.44 258.41 161.38
  C 257.09 161.37 255.77 161.98 254.27 161.05
  Q 253.77 160.73 253.78 160.15
  L 254.30 113.21
  Q 254.30 112.82 254.66 112.95
  Q 255.18 113.13 255.57 113.55
  Z"
/>
<path fill="#7d9b8e" d="
  M 269.04 114.76
  Q 266.68 115.73 266.20 117.85
  Q 264.37 118.31 264.88 116.59
  Q 265.07 115.94 265.69 115.39
  C 266.75 114.47 268.22 112.92 269.74 113.16
  Q 270.61 113.30 269.96 113.90
  L 269.04 114.76
  Z"
/>
<path fill="#ffffff" d="
  M 269.04 114.76
  L 271.58 114.77
  A 0.43 0.43 0.0 0 1 271.98 115.37
  C 271.14 117.40 268.40 119.69 266.20 117.85
  Q 266.68 115.73 269.04 114.76
  Z"
/>
<path fill="#4b6656" d="
  M 299.36 132.40
  Q 297.22 132.77 294.21 135.45
  C 291.78 137.63 291.97 139.23 292.06 142.62
  L 292.01 143.44
  Q 291.97 143.91 291.51 143.99
  Q 290.70 144.12 289.95 143.91
  L 289.72 143.75
  Q 289.62 143.68 289.62 143.56
  L 289.62 137.99
  A 1.23 1.21 -27.6 0 1 289.85 137.28
  C 291.99 134.35 294.75 132.89 297.41 130.92
  Q 302.79 126.94 308.13 122.92
  Q 311.71 120.21 314.94 117.58
  L 315.87 116.80
  A 0.85 0.85 0.0 0 1 317.27 117.54
  C 316.94 120.69 309.71 124.25 307.34 126.38
  Q 303.70 129.65 299.36 132.40
  Z"
/>
<path fill="#ffffff" d="
  M 323.13 118.99
  A 0.96 0.96 0.0 0 1 323.14 117.21
  Q 325.17 116.40 325.65 118.54
  A 0.88 0.87 4.9 0 1 324.46 119.54
  L 323.13 118.99
  Z"
/>
<path fill="#dedbd6" d="
  M 197.47 119.58
  L 236.74 119.48
  A 3.76 3.75 89.9 0 1 240.50 123.24
  L 240.48 143.76
  Q 240.48 147.75 236.48 147.79
  L 204.30 148.06
  Q 165.33 147.85 145.00 148.18
  Q 141.64 148.23 140.36 144.81
  Q 140.45 144.86 140.51 144.28
  L 140.53 123.36
  Q 139.98 123.45 140.39 123.14
  Q 141.59 119.75 144.25 119.75
  Q 170.87 119.71 197.47 119.58
  Z"
/>
<path fill="#edd9da" d="
  M 140.39 123.14
  Q 139.98 123.45 140.53 123.36
  Q 140.39 123.40 140.25 123.43
  Q 140.03 123.48 140.03 123.70
  L 139.98 144.29
  Q 139.98 144.57 140.24 144.47
  Q 140.38 144.41 140.51 144.28
  Q 140.45 144.86 140.36 144.81
  Q 139.83 148.07 136.64 148.11
  Q 125.71 148.23 115.29 148.26
  A 3.53 3.52 89.8 0 1 111.76 144.74
  L 111.70 123.30
  A 3.53 3.52 89.8 0 1 115.20 119.77
  Q 125.83 119.72 136.52 119.74
  Q 139.53 119.74 140.39 123.14
  Z
  M 124.61 139.91
  C 135.93 146.43 142.18 128.16 129.99 126.49
  C 123.12 125.55 118.39 131.91 122.99 137.67
  A 0.74 0.73 48.7 0 1 122.93 138.65
  L 117.68 143.75
  A 0.39 0.39 0.0 0 0 117.82 144.39
  L 118.10 144.48
  Q 118.78 144.73 119.28 144.21
  L 123.34 140.09
  A 1.06 1.05 -52.8 0 1 124.61 139.91
  Z"
/>
<path fill="#ffffff" d="
  M 303.21 123.00
  Q 303.29 124.02 302.24 123.87
  Q 300.14 122.59 300.93 120.97
  Q 301.19 120.43 301.74 120.69
  Q 302.88 121.24 303.21 123.00
  Z"
/>
<path fill="#a9a49c" d="
  M 140.53 123.36
  L 140.51 144.28
  Q 140.38 144.41 140.24 144.47
  Q 139.98 144.57 139.98 144.29
  L 140.03 123.70
  Q 140.03 123.48 140.25 123.43
  Q 140.39 123.40 140.53 123.36
  Z"
/>
<path fill="#965361" d="
  M 124.61 139.91
  A 1.06 1.05 -52.8 0 0 123.34 140.09
  L 119.28 144.21
  Q 118.78 144.73 118.10 144.48
  L 117.82 144.39
  A 0.39 0.39 0.0 0 1 117.68 143.75
  L 122.93 138.65
  A 0.74 0.73 48.7 0 0 122.99 137.67
  C 118.39 131.91 123.12 125.55 129.99 126.49
  C 142.18 128.16 135.93 146.43 124.61 139.91
  Z
  M 123.55 130.06
  C 122.14 132.14 122.24 138.63 125.22 139.49
  Q 132.22 141.50 134.61 135.75
  C 138.12 127.30 127.28 124.54 123.55 130.06
  Z"
/>
<ellipse fill="#dedbd6" cx="0.00" cy="0.00" transform="translate(312.74,128.01) rotate(42.9)" rx="1.42" ry="0.87"/>
<path fill="#edd9da" d="
  M 125.22 139.49
  C 122.24 138.63 122.14 132.14 123.55 130.06
  C 127.28 124.54 138.12 127.30 134.61 135.75
  Q 132.22 141.50 125.22 139.49
  Z"
/>
<path fill="#423f3a" d="
  M 36.15 141.29
  Q 35.62 142.76 35.55 141.20
  L 35.39 138.07
  Q 35.36 137.56 35.87 137.60
  Q 36.07 137.62 36.25 137.62
  Q 36.37 137.62 36.40 137.75
  Q 36.76 139.59 36.15 141.29
  Z"
/>
<path fill="#a9a49c" d="
  M 301.35 142.93
  Q 305.04 143.24 304.68 146.25
  Q 304.20 150.29 304.72 161.50
  Q 303.34 163.23 300.40 165.06
  A 0.62 0.62 0.0 0 0 300.27 166.01
  L 300.51 166.26
  A 0.56 0.56 0.0 0 0 301.19 166.37
  L 307.11 163.15
  A 0.55 0.54 -10.2 0 1 307.91 163.70
  Q 307.88 163.91 307.87 164.00
  Q 307.84 164.36 307.60 164.37
  Q 307.19 164.38 307.24 164.68
  Q 306.38 165.48 305.39 165.76
  A 1.08 1.08 0.0 0 0 304.60 166.79
  L 304.52 174.27
  A 0.50 0.50 0.0 0 0 305.02 174.78
  L 308.97 174.80
  Q 309.87 174.81 309.87 175.71
  L 309.87 176.29
  Q 309.87 177.39 308.78 177.47
  Q 296.99 178.35 284.92 178.11
  C 282.72 178.06 279.42 178.30 276.89 177.59
  Q 274.43 176.90 276.97 176.79
  Q 278.33 176.72 280.74 177.09
  L 290.73 177.11
  A 0.41 0.40 20.9 0 0 291.03 176.98
  Q 291.14 176.86 291.16 176.71
  Q 291.22 176.32 290.83 176.25
  Q 288.15 175.72 286.60 176.34
  C 282.86 175.57 279.70 176.62 275.95 173.97
  L 287.45 174.68
  A 2.19 2.18 86.2 0 0 289.73 172.07
  Q 289.43 170.62 290.06 169.69
  Q 290.28 169.35 290.29 168.95
  L 290.58 157.99
  Q 290.59 157.61 290.94 157.75
  L 291.25 157.87
  A 0.64 0.63 -78.9 0 1 291.65 158.48
  C 291.57 162.35 291.71 166.71 291.01 170.55
  Q 290.68 172.33 290.40 174.16
  Q 290.34 174.53 290.70 174.61
  Q 291.29 174.75 291.41 174.25
  Q 293.20 167.13 292.50 158.63
  Q 292.46 158.11 291.96 157.97
  Q 291.52 157.84 291.23 157.48
  A 0.38 0.37 -18.6 0 1 291.53 156.88
  Q 291.66 156.88 291.79 156.88
  Q 291.96 156.88 292.04 156.72
  Q 292.26 156.21 292.09 155.69
  Q 291.96 155.28 291.55 155.14
  L 290.72 154.87
  A 0.38 0.38 0.0 0 1 290.85 154.13
  Q 291.78 154.19 292.68 153.82
  A 0.29 0.28 -13.8 0 0 292.86 153.53
  L 292.84 153.19
  Q 292.82 152.90 292.53 152.89
  L 290.52 152.83
  A 0.20 0.20 0.0 0 1 290.35 152.55
  Q 290.42 152.41 290.49 152.27
  Q 290.52 152.21 290.58 152.20
  Q 291.36 152.02 292.14 151.91
  Q 292.54 151.85 292.84 151.58
  Q 293.69 150.80 293.26 149.90
  A 3.81 2.82 61.5 0 1 293.87 145.60
  Q 294.82 144.94 296.00 145.15
  A 1.15 1.11 31.2 0 0 296.88 144.95
  Q 299.19 143.26 301.35 142.93
  Z"
/>
<path fill="#92b0a6" d="
  M 311.12 145.96
  Q 310.27 147.11 311.98 148.64
  Q 313.10 149.64 313.62 150.62
  Q 315.09 153.38 317.20 156.31
  A 1.42 1.41 58.8 0 1 316.69 158.40
  C 314.19 159.64 312.46 158.59 310.21 161.07
  A 0.76 0.76 0.0 0 0 310.47 162.28
  Q 312.30 163.08 313.41 164.75
  Q 313.70 165.21 313.64 165.74
  Q 313.43 167.44 314.68 167.44
  C 312.27 167.76 311.94 166.00 310.52 165.29
  Q 308.91 164.48 307.24 164.68
  Q 307.19 164.38 307.60 164.37
  Q 307.84 164.36 307.87 164.00
  Q 307.88 163.91 307.91 163.70
  A 0.55 0.54 -10.2 0 0 307.11 163.15
  L 301.19 166.37
  A 0.56 0.56 0.0 0 1 300.51 166.26
  L 300.27 166.01
  A 0.62 0.62 0.0 0 1 300.40 165.06
  Q 303.34 163.23 304.72 161.50
  Q 309.59 163.13 310.52 159.01
  Q 310.61 158.60 311.03 158.62
  Q 312.51 158.68 313.91 158.13
  A 1.11 1.10 64.7 0 0 314.47 156.55
  Q 312.35 152.79 309.93 149.70
  C 308.88 148.36 308.80 147.12 309.87 145.85
  A 0.74 0.72 -61.6 0 1 310.63 145.61
  Q 311.04 145.71 311.12 145.96
  Z"
/>
<path fill="#92b0a6" d="
  M 329.73 146.85
  Q 328.55 149.73 328.80 152.76
  Q 328.86 153.38 329.41 153.08
  Q 329.71 152.92 329.92 152.52
  Q 330.79 153.21 331.40 152.65
  Q 334.67 149.67 339.41 150.32
  Q 327.98 153.82 324.71 163.11
  Q 324.65 163.27 324.55 163.33
  Q 324.41 163.41 324.25 163.38
  Q 323.93 163.32 323.91 162.99
  Q 323.78 161.16 324.47 159.49
  A 0.33 0.33 0.0 0 0 323.92 159.15
  L 322.67 160.62
  A 0.68 0.67 -40.2 0 1 321.58 160.53
  Q 321.24 159.99 321.33 159.56
  Q 322.55 159.31 321.95 158.00
  C 321.50 157.01 321.16 156.81 321.55 155.66
  C 322.53 152.77 325.53 145.82 328.91 145.60
  Q 329.40 145.56 329.67 145.97
  Q 330.29 146.89 329.73 146.85
  Z"
/>
<path fill="#5e909d" d="
  M 311.12 145.96
  Q 318.23 151.52 321.33 159.56
  Q 321.24 159.99 321.58 160.53
  A 0.68 0.67 -40.2 0 0 322.67 160.62
  L 323.92 159.15
  A 0.33 0.33 0.0 0 1 324.47 159.49
  Q 323.78 161.16 323.91 162.99
  Q 323.93 163.32 324.25 163.38
  Q 324.41 163.41 324.55 163.33
  Q 324.65 163.27 324.71 163.11
  Q 327.98 153.82 339.41 150.32
  Q 340.03 151.79 338.56 152.57
  Q 334.39 154.77 332.40 156.90
  C 330.42 159.24 327.57 158.93 326.13 162.37
  Q 325.13 164.76 327.22 163.24
  Q 327.41 163.10 328.19 161.92
  C 329.50 159.93 332.58 160.87 334.41 161.41
  Q 334.83 161.54 334.81 161.97
  Q 334.79 162.59 335.24 162.82
  C 335.92 163.17 337.09 162.59 337.95 162.73
  Q 342.84 163.51 344.21 165.90
  Q 346.93 170.65 341.98 168.32
  C 339.56 167.18 338.44 164.90 335.28 165.85
  Q 333.85 166.53 334.00 167.38
  A 0.59 0.58 -4.9 0 1 333.42 168.06
  L 322.25 167.97
  L 319.59 167.82
  L 314.68 167.44
  Q 313.43 167.44 313.64 165.74
  Q 313.70 165.21 313.41 164.75
  Q 312.30 163.08 310.47 162.28
  A 0.76 0.76 0.0 0 1 310.21 161.07
  C 312.46 158.59 314.19 159.64 316.69 158.40
  A 1.42 1.41 58.8 0 0 317.20 156.31
  Q 315.09 153.38 313.62 150.62
  Q 313.10 149.64 311.98 148.64
  Q 310.27 147.11 311.12 145.96
  Z"
/>
<path fill="#5e909d" d="
  M 329.73 146.85
  Q 330.50 149.88 329.92 152.52
  Q 329.71 152.92 329.41 153.08
  Q 328.86 153.38 328.80 152.76
  Q 328.55 149.73 329.73 146.85
  Z"
/>
<path fill="#edd9da" d="
  M 35.24 153.28
  Q 36.51 159.78 36.34 161.50
  C 36.04 164.63 34.92 174.38 39.76 174.84
  Q 42.07 175.06 40.09 173.85
  C 37.11 172.02 37.55 165.10 37.83 161.29
  Q 37.89 161.74 38.10 162.13
  Q 38.32 162.56 38.75 162.63
  Q 39.46 162.75 40.04 162.20
  Q 40.42 161.85 40.93 161.85
  L 95.13 161.58
  A 1.06 1.06 0.0 0 1 96.20 162.59
  Q 96.59 169.87 96.15 177.49
  Q 95.78 183.76 100.78 187.57
  Q 102.66 189.57 102.93 190.81
  A 0.29 0.29 0.0 0 1 102.52 191.13
  Q 102.37 191.05 102.21 190.98
  Q 102.08 190.91 102.10 191.06
  L 102.27 192.24
  Q 102.34 192.81 101.89 192.46
  Q 101.50 192.16 101.63 192.78
  A 0.31 0.31 0.0 0 1 101.19 193.12
  Q 99.54 192.31 98.65 193.92
  A 0.45 0.45 0.0 0 1 97.93 194.02
  Q 97.51 193.57 96.97 193.86
  Q 96.64 194.03 96.41 194.53
  Q 92.69 202.40 91.19 211.00
  A 1.40 1.38 37.7 0 0 91.30 211.81
  Q 92.37 214.09 94.96 214.00
  Q 95.34 213.98 95.04 214.23
  Q 94.87 214.37 94.63 214.45
  Q 94.24 214.60 94.48 214.95
  Q 94.92 215.60 95.22 215.00
  Q 101.26 215.90 110.50 215.93
  Q 176.62 216.15 242.75 216.08
  Q 251.05 216.07 255.24 215.85
  Q 260.08 215.90 264.68 214.61
  C 267.80 213.74 270.24 211.35 273.26 209.83
  A 0.70 0.69 41.1 0 0 273.17 208.55
  L 270.61 207.65
  Q 270.17 207.50 270.41 207.11
  Q 270.85 206.42 271.75 206.41
  C 277.47 206.33 282.69 204.92 288.46 205.09
  C 292.37 205.20 297.07 205.03 300.89 204.48
  Q 306.21 203.71 311.64 203.88
  A 0.16 0.16 0.0 0 0 311.81 203.72
  L 311.81 203.45
  Q 311.82 203.20 311.57 203.20
  Q 307.35 203.17 303.18 202.90
  C 296.12 202.43 288.59 203.05 282.50 202.78
  Q 274.65 202.42 259.37 200.77
  Q 259.25 200.76 259.17 200.66
  Q 259.06 200.55 258.99 200.46
  L 258.08 200.35
  Q 257.64 200.29 257.32 199.98
  Q 255.93 198.62 256.17 196.62
  A 2.46 2.46 0.0 0 0 254.23 193.91
  L 247.91 192.60
  Q 247.21 192.45 247.71 191.96
  L 247.96 191.71
  Q 248.05 191.62 247.92 191.62
  L 234.95 191.55
  L 228.78 190.85
  Q 234.87 190.88 240.93 190.64
  C 242.74 190.57 244.27 189.71 246.08 189.34
  Q 246.55 189.24 246.93 188.94
  Q 247.96 188.12 249.24 187.98
  Q 250.28 187.86 249.45 188.51
  Q 249.00 188.86 248.69 189.30
  Q 248.15 190.06 249.00 189.67
  C 252.56 188.05 252.67 184.48 253.73 180.89
  C 254.96 176.75 254.96 172.10 255.29 167.82
  Q 255.33 167.31 255.80 167.11
  Q 259.31 165.65 262.24 166.65
  C 265.04 167.60 268.84 170.96 270.96 166.63
  A 0.17 0.16 9.9 0 1 271.09 166.54
  Q 273.07 166.34 273.98 166.63
  A 0.94 0.93 -79.5 0 1 274.62 167.57
  Q 274.40 171.74 275.95 173.97
  C 279.70 176.62 282.86 175.57 286.60 176.34
  Q 284.27 177.43 280.74 177.09
  Q 278.33 176.72 276.97 176.79
  Q 274.43 176.90 276.89 177.59
  C 279.42 178.30 282.72 178.06 284.92 178.11
  Q 296.99 178.35 308.78 177.47
  Q 309.87 177.39 309.87 176.29
  L 309.87 175.71
  Q 309.87 174.81 308.97 174.80
  L 305.02 174.78
  A 0.50 0.50 0.0 0 1 304.52 174.27
  L 304.60 166.79
  A 1.08 1.08 0.0 0 1 305.39 165.76
  Q 306.38 165.48 307.24 164.68
  Q 308.91 164.48 310.52 165.29
  C 311.94 166.00 312.27 167.76 314.68 167.44
  L 319.59 167.82
  L 319.23 183.85
  Q 319.22 184.34 318.93 184.73
  L 318.64 185.14
  Q 318.30 185.61 318.80 185.89
  Q 319.04 186.03 318.99 186.43
  Q 318.97 186.61 318.78 186.65
  Q 318.30 186.76 318.06 187.26
  Q 317.84 187.75 318.35 187.89
  Q 318.62 187.96 318.62 188.28
  Q 318.61 188.81 318.08 188.90
  Q 317.63 188.97 317.50 189.26
  Q 314.60 188.83 312.51 189.45
  Q 311.37 189.79 312.55 189.99
  Q 320.46 191.30 328.58 190.66
  Q 337.22 190.13 345.98 189.63
  C 347.14 189.56 348.00 189.18 349.12 188.89
  Q 349.13 188.89 349.13 188.88
  L 349.13 188.58
  Q 349.13 188.37 348.92 188.37
  L 337.95 188.31
  L 336.46 188.28
  Q 335.94 188.26 335.93 187.74
  L 335.88 176.78
  Q 335.88 176.18 336.47 176.14
  L 348.08 175.42
  A 0.49 0.49 0.0 0 0 348.54 174.93
  L 348.54 174.59
  Q 348.54 174.13 348.08 174.13
  L 336.71 174.13
  Q 336.13 174.13 335.99 173.57
  Q 335.41 171.32 335.85 168.74
  Q 335.98 167.99 335.24 167.59
  Q 334.82 167.36 334.96 166.91
  L 335.28 165.85
  C 338.44 164.90 339.56 167.18 341.98 168.32
  Q 346.93 170.65 344.21 165.90
  Q 342.84 163.51 337.95 162.73
  L 338.38 160.40
  Q 341.31 160.48 344.49 160.80
  C 346.56 161.01 348.66 160.61 350.49 160.74
  Q 358.48 161.29 366.41 162.44
  Q 366.94 162.52 367.00 163.05
  L 368.00 171.76
  L 368.00 179.36
  L 368.00 200.01
  L 368.00 245.00
  L 0.00 245.00
  L 0.00 168.75
  L 0.61 163.97
  A 1.96 1.96 0.0 0 1 2.53 162.26
  L 33.91 161.87
  A 1.02 1.02 0.0 0 0 34.91 160.89
  L 35.24 153.28
  Z
  M 41.73 178.13
  C 38.57 178.10 35.58 179.15 32.77 179.27
  Q 20.88 179.74 9.00 179.09
  Q 8.31 179.05 8.49 179.53
  A 0.35 0.34 -8.9 0 0 8.80 179.75
  C 14.60 179.85 20.88 180.59 26.09 180.73
  C 42.81 181.17 52.49 181.22 65.62 179.63
  Q 66.03 179.58 66.21 179.27
  A 0.48 0.48 0.0 0 0 65.77 178.55
  Q 64.04 178.63 63.66 177.04
  A 1.16 1.15 79.6 0 0 62.38 176.15
  Q 52.15 177.49 42.32 177.85
  Q 42.24 177.85 42.18 177.89
  Q 42.06 177.95 41.97 178.03
  Q 41.87 178.13 41.73 178.13
  Z"
/>
<path fill="#92b0a6" d="
  M 332.40 156.90
  Q 332.26 158.44 335.76 158.26
  Q 337.93 158.15 338.38 160.40
  L 337.95 162.73
  C 337.09 162.59 335.92 163.17 335.24 162.82
  Q 334.79 162.59 334.81 161.97
  Q 334.83 161.54 334.41 161.41
  C 332.58 160.87 329.50 159.93 328.19 161.92
  Q 327.41 163.10 327.22 163.24
  Q 325.13 164.76 326.13 162.37
  C 327.57 158.93 330.42 159.24 332.40 156.90
  Z"
/>
<path fill="#a9a49c" d="
  M 335.28 165.85
  L 334.96 166.91
  Q 334.82 167.36 335.24 167.59
  Q 335.98 167.99 335.85 168.74
  Q 335.41 171.32 335.99 173.57
  Q 336.13 174.13 336.71 174.13
  L 348.08 174.13
  Q 348.54 174.13 348.54 174.59
  L 348.54 174.93
  A 0.49 0.49 0.0 0 1 348.08 175.42
  L 336.47 176.14
  Q 335.88 176.18 335.88 176.78
  L 335.93 187.74
  Q 335.94 188.26 336.46 188.28
  L 337.95 188.31
  L 323.25 189.34
  Q 322.86 189.36 322.88 189.75
  L 322.90 190.19
  Q 322.92 190.52 323.26 190.53
  L 328.58 190.66
  Q 320.46 191.30 312.55 189.99
  Q 311.37 189.79 312.51 189.45
  Q 314.60 188.83 317.50 189.26
  L 323.09 188.60
  A 0.93 0.92 -9.4 0 0 323.89 187.49
  Q 323.70 186.57 324.46 186.05
  Q 324.87 185.77 324.87 185.28
  C 324.88 182.44 325.36 178.20 324.53 175.55
  Q 324.15 174.35 323.69 173.21
  Q 322.68 170.74 322.25 167.97
  L 333.42 168.06
  A 0.59 0.58 -4.9 0 0 334.00 167.38
  Q 333.85 166.53 335.28 165.85
  Z"
/>
<path fill="#dedbd6" d="
  M 319.59 167.82
  L 322.25 167.97
  Q 322.68 170.74 323.69 173.21
  Q 324.15 174.35 324.53 175.55
  C 325.36 178.20 324.88 182.44 324.87 185.28
  Q 324.87 185.77 324.46 186.05
  Q 323.70 186.57 323.89 187.49
  A 0.93 0.92 -9.4 0 1 323.09 188.60
  L 317.50 189.26
  Q 317.63 188.97 318.08 188.90
  Q 318.61 188.81 318.62 188.28
  Q 318.62 187.96 318.35 187.89
  Q 317.84 187.75 318.06 187.26
  Q 318.30 186.76 318.78 186.65
  Q 318.97 186.61 318.99 186.43
  Q 319.04 186.03 318.80 185.89
  Q 318.30 185.61 318.64 185.14
  L 318.93 184.73
  Q 319.22 184.34 319.23 183.85
  L 319.59 167.82
  Z"
/>
<path fill="#dedbd6" d="
  M 286.60 176.34
  Q 288.15 175.72 290.83 176.25
  Q 291.22 176.32 291.16 176.71
  Q 291.14 176.86 291.03 176.98
  A 0.41 0.40 20.9 0 1 290.73 177.11
  L 280.74 177.09
  Q 284.27 177.43 286.60 176.34
  Z"
/>
<path fill="#a9a49c" d="
  M 41.97 178.03
  Q 42.06 177.95 42.18 177.89
  Q 42.24 177.85 42.32 177.85
  Q 52.15 177.49 62.38 176.15
  A 1.16 1.15 79.6 0 1 63.66 177.04
  Q 64.04 178.63 65.77 178.55
  A 0.48 0.48 0.0 0 1 66.21 179.27
  Q 66.03 179.58 65.62 179.63
  C 52.49 181.22 42.81 181.17 26.09 180.73
  C 20.88 180.59 14.60 179.85 8.80 179.75
  A 0.35 0.34 -8.9 0 1 8.49 179.53
  Q 8.31 179.05 9.00 179.09
  Q 20.88 179.74 32.77 179.27
  C 35.58 179.15 38.57 178.10 41.73 178.13
  Q 41.87 178.13 41.97 178.03
  Z"
/>
<path fill="#ffffff" d="
  M 368.00 179.36
  L 368.00 200.01
  L 368.00 179.36
  Z"
/>
<path fill="#8d8576" d="
  M 337.95 188.31
  L 348.92 188.37
  Q 349.13 188.37 349.13 188.58
  L 349.13 188.88
  Q 349.13 188.89 349.12 188.89
  C 348.00 189.18 347.14 189.56 345.98 189.63
  Q 337.22 190.13 328.58 190.66
  L 323.26 190.53
  Q 322.92 190.52 322.90 190.19
  L 322.88 189.75
  Q 322.86 189.36 323.25 189.34
  L 337.95 188.31
  Z"
/>
<path fill="#a9a49c" d="
  M 228.78 190.85
  L 234.95 191.55
  Q 227.80 191.66 220.92 191.64
  C 219.13 191.64 214.96 192.10 212.02 191.85
  Q 209.70 191.65 208.46 191.67
  Q 194.73 191.98 181.00 191.83
  C 178.51 191.80 176.09 192.08 173.67 191.90
  Q 166.79 191.41 159.92 191.86
  Q 157.56 192.02 153.61 191.77
  C 149.64 191.51 145.80 192.13 141.50 191.76
  C 140.17 191.65 138.66 192.42 137.50 192.14
  Q 135.37 191.62 134.00 191.62
  Q 123.02 191.63 112.08 191.63
  A 0.47 0.46 -90.0 0 1 111.62 191.16
  L 111.62 190.91
  Q 111.62 190.64 111.89 190.64
  L 228.78 190.85
  Z"
/>
<path fill="#5e909d" d="
  M 227.29 204.25
  Q 226.46 203.23 225.10 203.17
  A 1.07 1.06 -15.2 0 1 224.24 202.68
  L 223.57 201.61
  A 0.49 0.48 -46.6 0 0 222.74 201.64
  Q 222.39 202.26 222.69 203.03
  Q 223.32 203.37 222.97 204.11
  C 216.99 204.49 207.37 205.65 204.45 201.63
  Q 203.96 200.95 203.67 201.73
  Q 203.39 202.50 203.76 203.26
  A 0.73 0.73 0.0 0 1 203.11 204.31
  L 129.77 204.24
  A 1.53 1.53 0.0 0 1 128.30 203.09
  Q 128.17 202.59 128.01 202.27
  Q 126.54 199.20 126.68 202.50
  L 126.73 203.67
  A 0.65 0.65 0.0 0 1 126.07 204.35
  L 110.24 204.05
  A 1.23 1.23 0.0 0 1 109.08 202.48
  L 111.50 194.03
  A 0.98 0.97 7.8 0 1 112.44 193.32
  L 135.25 193.29
  Q 135.90 193.29 136.36 193.75
  Q 137.13 194.54 137.50 195.57
  A 0.52 0.52 0.0 0 0 138.26 195.84
  Q 138.98 195.40 139.08 194.47
  A 1.24 1.24 0.0 0 1 140.28 193.36
  Q 147.17 193.17 153.00 193.33
  Q 155.72 193.40 156.68 195.13
  Q 156.94 195.61 157.47 195.47
  L 158.01 195.32
  Q 158.67 195.14 158.25 194.60
  Q 157.89 194.14 158.48 193.66
  Q 158.91 193.31 159.46 193.31
  L 173.20 193.30
  Q 173.61 193.30 174.00 193.44
  Q 175.48 193.96 175.69 195.38
  Q 175.76 195.87 176.20 195.65
  Q 176.36 195.57 176.51 195.49
  Q 176.66 195.42 176.65 195.26
  Q 176.56 193.49 178.75 193.38
  Q 185.06 193.08 191.37 193.29
  C 193.88 193.38 193.41 194.95 194.80 195.61
  A 0.44 0.44 0.0 0 0 195.43 195.21
  Q 195.43 193.41 197.99 193.39
  Q 208.15 193.33 211.50 193.38
  A 0.82 0.82 0.0 0 1 212.27 193.95
  Q 212.68 195.30 213.95 195.73
  A 0.50 0.49 9.6 0 0 214.60 195.27
  L 214.60 193.89
  A 0.63 0.63 0.0 0 1 215.23 193.27
  L 237.84 193.36
  Q 239.73 193.37 240.07 195.23
  L 241.56 203.33
  A 0.85 0.85 0.0 0 1 240.72 204.33
  L 227.29 204.25
  Z
  M 147.97 196.29
  A 0.86 0.86 0.0 0 0 146.39 196.89
  Q 146.61 198.16 147.77 198.33
  Q 148.38 198.41 148.37 197.80
  Q 148.36 196.92 147.97 196.29
  Z
  M 167.91 197.51
  L 166.47 196.27
  A 0.45 0.45 0.0 0 0 165.79 196.39
  Q 165.38 197.09 165.62 197.85
  A 0.53 0.52 -14.6 0 0 166.23 198.20
  L 167.83 197.84
  A 0.19 0.19 0.0 0 0 167.91 197.51
  Z
  M 205.12 197.13
  Q 204.55 195.86 203.43 196.06
  A 0.60 0.60 0.0 0 0 203.00 196.93
  Q 203.94 198.72 205.99 198.25
  Q 206.70 198.08 206.03 197.79
  Q 205.28 197.47 205.12 197.13
  Z
  M 127.72 196.59
  Q 127.74 197.25 128.04 197.82
  Q 128.33 198.36 128.93 198.24
  Q 129.10 198.21 129.26 198.16
  A 0.48 0.47 -13.7 0 0 129.60 197.61
  Q 129.35 196.34 128.07 196.26
  A 0.32 0.32 0.0 0 0 127.72 196.59
  Z
  M 186.5629 197.8124
  A 1.28 0.85 23.6 0 0 185.7303 196.5211
  A 1.28 0.85 23.6 0 0 184.2171 196.7876
  A 1.28 0.85 23.6 0 0 185.0497 198.0789
  A 1.28 0.85 23.6 0 0 186.5629 197.8124
  Z
  M 222.50 196.70
  Q 222.32 196.73 222.16 196.84
  Q 221.77 197.11 222.14 197.40
  Q 222.74 197.89 223.54 197.93
  A 0.41 0.41 0.0 0 0 223.96 197.42
  Q 223.85 196.97 223.48 196.74
  Q 223.23 196.59 222.98 196.62
  Q 222.80 196.64 222.50 196.70
  Z
  M 138.78 199.91
  L 138.33 199.34
  Q 137.99 198.91 137.44 198.89
  L 136.55 198.87
  A 0.59 0.59 0.0 0 0 135.98 199.67
  Q 136.61 201.26 138.54 200.66
  Q 139.20 200.46 138.78 199.91
  Z
  M 157.95 199.62
  Q 157.37 198.79 157.16 198.79
  Q 154.11 198.86 156.62 200.58
  Q 157.23 200.99 158.36 200.70
  Q 158.71 200.61 158.54 200.29
  Q 158.48 200.16 158.36 200.05
  Q 158.02 199.72 157.95 199.62
  Z
  M 177.50 200.07
  Q 176.22 198.70 175.23 198.81
  A 0.42 0.42 0.0 0 0 174.86 199.22
  L 174.84 199.58
  Q 174.83 200.14 175.36 200.33
  Q 176.57 200.76 177.87 200.61
  Q 178.27 200.56 178.01 200.26
  Q 177.86 200.07 177.50 200.07
  Z
  M 196.23 200.00
  Q 195.59 199.18 194.58 198.91
  A 0.54 0.54 0.0 0 0 193.99 199.73
  Q 194.67 200.73 196.00 200.56
  Q 196.60 200.48 196.23 200.00
  Z
  M 215.35 200.08
  Q 214.92 198.79 213.57 198.75
  A 0.77 0.77 0.0 0 0 213.06 200.11
  Q 213.93 200.84 215.04 200.61
  Q 215.49 200.52 215.35 200.08
  Z"
/>
<path fill="#dedbd6" d="
  M 147.97 196.29
  Q 148.36 196.92 148.37 197.80
  Q 148.38 198.41 147.77 198.33
  Q 146.61 198.16 146.39 196.89
  A 0.86 0.86 0.0 0 1 147.97 196.29
  Z"
/>
<path fill="#dedbd6" d="
  M 167.91 197.51
  A 0.19 0.19 0.0 0 1 167.83 197.84
  L 166.23 198.20
  A 0.53 0.52 -14.6 0 1 165.62 197.85
  Q 165.38 197.09 165.79 196.39
  A 0.45 0.45 0.0 0 1 166.47 196.27
  L 167.91 197.51
  Z"
/>
<path fill="#92b0a6" d="
  M 205.12 197.13
  Q 205.28 197.47 206.03 197.79
  Q 206.70 198.08 205.99 198.25
  Q 203.94 198.72 203.00 196.93
  A 0.60 0.60 0.0 0 1 203.43 196.06
  Q 204.55 195.86 205.12 197.13
  Z"
/>
<path fill="#dedbd6" d="
  M 127.72 196.59
  A 0.32 0.32 0.0 0 1 128.07 196.26
  Q 129.35 196.34 129.60 197.61
  A 0.48 0.47 -13.7 0 1 129.26 198.16
  Q 129.10 198.21 128.93 198.24
  Q 128.33 198.36 128.04 197.82
  Q 127.74 197.25 127.72 196.59
  Z"
/>
<ellipse fill="#dedbd6" cx="0.00" cy="0.00" transform="translate(185.39,197.30) rotate(23.6)" rx="1.28" ry="0.85"/>
<path fill="#dedbd6" d="
  M 222.98 196.62
  Q 223.23 196.59 223.48 196.74
  Q 223.85 196.97 223.96 197.42
  A 0.41 0.41 0.0 0 1 223.54 197.93
  Q 222.74 197.89 222.14 197.40
  Q 221.77 197.11 222.16 196.84
  Q 222.32 196.73 222.50 196.70
  Q 222.80 196.64 222.98 196.62
  Z"
/>
<path fill="#dedbd6" d="
  M 138.78 199.91
  Q 139.20 200.46 138.54 200.66
  Q 136.61 201.26 135.98 199.67
  A 0.59 0.59 0.0 0 1 136.55 198.87
  L 137.44 198.89
  Q 137.99 198.91 138.33 199.34
  L 138.78 199.91
  Z"
/>
<path fill="#dedbd6" d="
  M 158.36 200.05
  Q 158.48 200.16 158.54 200.29
  Q 158.71 200.61 158.36 200.70
  Q 157.23 200.99 156.62 200.58
  Q 154.11 198.86 157.16 198.79
  Q 157.37 198.79 157.95 199.62
  Q 158.02 199.72 158.36 200.05
  Z"
/>
<path fill="#dedbd6" d="
  M 177.50 200.07
  Q 177.86 200.07 178.01 200.26
  Q 178.27 200.56 177.87 200.61
  Q 176.57 200.76 175.36 200.33
  Q 174.83 200.14 174.84 199.58
  L 174.86 199.22
  A 0.42 0.42 0.0 0 1 175.23 198.81
  Q 176.22 198.70 177.50 200.07
  Z"
/>
<path fill="#dedbd6" d="
  M 196.23 200.00
  Q 196.60 200.48 196.00 200.56
  Q 194.67 200.73 193.99 199.73
  A 0.54 0.54 0.0 0 1 194.58 198.91
  Q 195.59 199.18 196.23 200.00
  Z"
/>
<path fill="#dedbd6" d="
  M 215.35 200.08
  Q 215.49 200.52 215.04 200.61
  Q 213.93 200.84 213.06 200.11
  A 0.77 0.77 0.0 0 1 213.57 198.75
  Q 214.92 198.79 215.35 200.08
  Z"
/>
<path fill="#c4b4b3" d="
  M 258.99 200.46
  Q 259.06 200.55 259.17 200.66
  Q 259.25 200.76 259.37 200.77
  Q 274.65 202.42 282.50 202.78
  C 288.59 203.05 296.12 202.43 303.18 202.90
  Q 307.35 203.17 311.57 203.20
  Q 311.82 203.20 311.81 203.45
  L 311.81 203.72
  A 0.16 0.16 0.0 0 1 311.64 203.88
  Q 306.21 203.71 300.89 204.48
  C 297.07 205.03 292.37 205.20 288.46 205.09
  C 282.69 204.92 277.47 206.33 271.75 206.41
  Q 270.85 206.42 270.41 207.11
  Q 270.17 207.50 270.61 207.65
  L 273.17 208.55
  A 0.70 0.69 41.1 0 1 273.26 209.83
  C 270.24 211.35 267.80 213.74 264.68 214.61
  Q 260.08 215.90 255.24 215.85
  L 247.08 215.60
  Q 246.94 215.60 246.94 215.47
  L 246.94 215.46
  A 0.13 0.13 0.0 0 1 247.09 215.34
  Q 249.88 215.79 252.11 214.17
  L 256.98 213.14
  A 1.03 1.03 0.0 0 0 257.72 212.53
  C 258.91 209.56 257.39 204.98 257.35 201.18
  Q 257.34 200.63 257.89 200.57
  L 258.99 200.46
  Z"
/>
<path fill="#92b0a6" d="
  M 227.29 204.25
  L 222.97 204.11
  Q 223.32 203.37 222.69 203.03
  Q 222.39 202.26 222.74 201.64
  A 0.49 0.48 -46.6 0 1 223.57 201.61
  L 224.24 202.68
  A 1.07 1.06 -15.2 0 0 225.10 203.17
  Q 226.46 203.23 227.29 204.25
  Z"
/>
<path fill="#a9a49c" d="
  M 252.11 214.17
  Q 249.88 215.79 247.09 215.34
  A 0.13 0.13 0.0 0 0 246.94 215.46
  L 246.94 215.47
  Q 246.94 215.60 247.08 215.60
  L 255.24 215.85
  Q 251.05 216.07 242.75 216.08
  Q 176.62 216.15 110.50 215.93
  Q 101.26 215.90 95.22 215.00
  Q 170.28 214.88 245.25 214.99
  Q 247.58 215.00 252.11 214.17
  Z"
/>
</svg>
