<svg xmlns="http://www.w3.org/2000/svg" viewBox="0 0 260 270"><g stroke-width="2" fill="none" stroke="#eead95"><path vector-effect="non-scaling-stroke" d="M150.16 109.38c-9.7 4.25-18.26.55-26.74-3.66-7.18-3.56-14.25-1.56-18.5 5.33q-.27.43.1.79 16.5 16.15 39.19 15.58c32.98-.83 40.58-43.92 5.77-51.82-6.2-1.4-24.77-3.76-24.9-12.1-.07-4.73 4.06-8.01 8.44-8.96 6.64-1.45 11.22-.06 17.13 2.7q12.06 5.63 19.66-5.69a.62.61-51.8 0 0-.09-.78q-10.8-10.05-24.62-12.62c-15.67-2.91-34.17 4.44-36.85 21.72-1.93 12.44 6.04 22.82 17.86 26.52q8.56 2.69 17.36 4.49 5.28 1.08 8.47 3.17c6.44 4.24 4.13 12.51-2.28 15.33M29.88 69.12l38.4 56.69q.28.42.77.42l14.29.07q1.4 0 1.4-1.39l.02-85.4a1.96 1.96 0 0 0-2.1-1.95c-11.36.85-14.69 7.15-14.67 17.55q.04 19.68 0 39.4a.39.39 0 0 1-.71.22L29.23 38.38q-.35-.53-.99-.53l-14.84-.14q-.65-.01-.65.64v87.38q0 .44.44.48c11.34.93 16.13-5.75 16.09-15.92q-.07-20.61-.01-40.98a.34.33-62.1 0 1 .61-.19M254.88 59.71c-2.53-13.93-16.99-21.73-30.14-21.77q-15.71-.04-31.53.12-.46 0-.46.46v87.23q0 .49.49.52c20.29 1.36 16.07-19.14 16.3-31.6a.69.68.4 0 1 .69-.67h14.01a.82.81 76 0 1 .72.44q5.47 10.56 10.94 21.14c6.49 12.56 10.61 10.1 23.42 10.86a.43.43 0 0 0 .4-.63l-18.41-35.32a.46.45 60.4 0 1 .16-.6q17-10.42 13.41-30.18M86.43 210.64c-12.48-9.2-17.86 1.35-28.73 3.95-24.2 5.8-44.06-21.83-29.4-42.41 7.45-10.46 19.73-14.51 32.08-10.5 9.79 3.18 14.16 11.57 25.77 3.49a1.2 1.2 0 0 0 .29-1.69c-20.8-29.18-65.31-23.04-76.39 11.37-7.96 24.68 8.53 50.28 33.19 55.08 16.71 3.25 34.12-4.34 43.34-18.43a.64.63-55.5 0 0-.15-.86M130.51 149.78c-8.69 3.18-18.7-1.26-27.17 3.44q-.54.3-.02.65c10.49 7.11 15.83 13.58 29.32 12.45q2.8-.23 8.37-2.21c5.71-2.04 10.91-3.43 17.22-3.29 5.15.11 10.76.94 15.41-2.1q.47-.3 0-.61c-4.92-3.19-9.74-8.06-14.57-10.1-10.44-4.42-18.23-2.01-28.56 1.77M209.53 213.69q-.09-26.28-.21-52.59c-.05-9.78-5.53-15.81-15.97-15.26q-.6.03-.6.63v83.76q0 .49.49.49l59.72.03q1.3 0 1.37-1.3c.7-13.42-8.73-15.23-20-15.2q-12.14.04-24.27-.02-.53 0-.53-.54M129.94 182.66c-8.47 3.04-17.8-1.01-26.52 3.11q-.56.27-.06.65c9.6 7.32 16.29 13.7 29.42 12.65 6.84-.55 13.09-4.51 19.83-5.25 7.34-.8 13.87 1.33 21.18-2.23q.41-.2.04-.47c-10.04-7.49-16.14-13.95-29.96-12.66-4.51.41-9.41 2.58-13.93 4.2M130.24 213.98c-8.8 3.28-17.66-.77-26.6 3.01q-1.04.44-.12 1.08c4.82 3.33 9.9 8.12 14.78 10.2 8.73 3.72 16.34 2.56 25.07-.68 6.34-2.35 11.86-3.01 18.33-2.55 4.97.36 7.97.05 11.95-2.07a.34.34 0 0 0 .03-.58q-4.6-3.28-8.74-6.56c-11.34-9-22.03-6.57-34.7-1.85"/><path vector-effect="non-scaling-stroke" d="m209.57 52.93-.14 26a.24.24 0 0 0 .24.24l17.21.09a13.07 12.49.3 0 0 13.14-12.42v-1.5a13.07 12.49.3 0 0-13-12.56l-17.21-.09a.24.24 0 0 0-.24.24"/></g><path fill="#fff" d="M0 0h260v270H0V0zm150.16 109.38c-9.7 4.25-18.26.55-26.74-3.66-7.18-3.56-14.25-1.56-18.5 5.33q-.27.43.1.79 16.5 16.15 39.19 15.58c32.98-.83 40.58-43.92 5.77-51.82-6.2-1.4-24.77-3.76-24.9-12.1-.07-4.73 4.06-8.01 8.44-8.96 6.64-1.45 11.22-.06 17.13 2.7q12.06 5.63 19.66-5.69a.62.61-51.8 0 0-.09-.78q-10.8-10.05-24.62-12.62c-15.67-2.91-34.17 4.44-36.85 21.72-1.93 12.44 6.04 22.82 17.86 26.52q8.56 2.69 17.36 4.49 5.28 1.08 8.47 3.17c6.44 4.24 4.13 12.51-2.28 15.33zM29.88 69.12l38.4 56.69q.28.42.77.42l14.29.07q1.4 0 1.4-1.39l.02-85.4a1.96 1.96 0 0 0-2.1-1.95c-11.36.85-14.69 7.15-14.67 17.55q.04 19.68 0 39.4a.39.39 0 0 1-.71.22L29.23 38.38q-.35-.53-.99-.53l-14.84-.14q-.65-.01-.65.64v87.38q0 .44.44.48c11.34.93 16.13-5.75 16.09-15.92q-.07-20.61-.01-40.98a.34.33-62.1 0 1 .61-.19zm225-9.41c-2.53-13.93-16.99-21.73-30.14-21.77q-15.71-.04-31.53.12-.46 0-.46.46v87.23q0 .49.49.52c20.29 1.36 16.07-19.14 16.3-31.6a.69.68.4 0 1 .69-.67h14.01a.82.81 76 0 1 .72.44q5.47 10.56 10.94 21.14c6.49 12.56 10.61 10.1 23.42 10.86a.43.43 0 0 0 .4-.63l-18.41-35.32a.46.45 60.4 0 1 .16-.6q17-10.42 13.41-30.18zM86.43 210.64c-12.48-9.2-17.86 1.35-28.73 3.95-24.2 5.8-44.06-21.83-29.4-42.41 7.45-10.46 19.73-14.51 32.08-10.5 9.79 3.18 14.16 11.57 25.77 3.49a1.2 1.2 0 0 0 .29-1.69c-20.8-29.18-65.31-23.04-76.39 11.37-7.96 24.68 8.53 50.28 33.19 55.08 16.71 3.25 34.12-4.34 43.34-18.43a.64.63-55.5 0 0-.15-.86zm44.08-60.86c-8.69 3.18-18.7-1.26-27.17 3.44q-.54.3-.02.65c10.49 7.11 15.83 13.58 29.32 12.45q2.8-.23 8.37-2.21c5.71-2.04 10.91-3.43 17.22-3.29 5.15.11 10.76.94 15.41-2.1q.47-.3 0-.61c-4.92-3.19-9.74-8.06-14.57-10.1-10.44-4.42-18.23-2.01-28.56 1.77zm79.02 63.91q-.09-26.28-.21-52.59c-.05-9.78-5.53-15.81-15.97-15.26q-.6.03-.6.63v83.76q0 .49.49.49l59.72.03q1.3 0 1.37-1.3c.7-13.42-8.73-15.23-20-15.2q-12.14.04-24.27-.02-.53 0-.53-.54zm-79.59-31.03c-8.47 3.04-17.8-1.01-26.52 3.11q-.56.27-.06.65c9.6 7.32 16.29 13.7 29.42 12.65 6.84-.55 13.09-4.51 19.83-5.25 7.34-.8 13.87 1.33 21.18-2.23q.41-.2.04-.47c-10.04-7.49-16.14-13.95-29.96-12.66-4.51.41-9.41 2.58-13.93 4.2zm.3 31.32c-8.8 3.28-17.66-.77-26.6 3.01q-1.04.44-.12 1.08c4.82 3.33 9.9 8.12 14.78 10.2 8.73 3.72 16.34 2.56 25.07-.68 6.34-2.35 11.86-3.01 18.33-2.55 4.97.36 7.97.05 11.95-2.07a.34.34 0 0 0 .03-.58q-4.6-3.28-8.74-6.56c-11.34-9-22.03-6.57-34.7-1.85z"/><path fill="#dc5b2b" d="M123.42 105.72c8.48 4.21 17.04 7.91 26.74 3.66 6.41-2.82 8.72-11.09 2.28-15.33q-3.19-2.09-8.47-3.17-8.8-1.8-17.36-4.49c-11.82-3.7-19.79-14.08-17.86-26.52 2.68-17.28 21.18-24.63 36.85-21.72q13.82 2.57 24.62 12.62a.62.61-51.8 0 1 .09.78q-7.6 11.32-19.66 5.69c-5.91-2.76-10.49-4.15-17.13-2.7-4.38.95-8.51 4.23-8.44 8.96.13 8.34 18.7 10.7 24.9 12.1 34.81 7.9 27.21 50.99-5.77 51.82q-22.69.57-39.19-15.58-.37-.36-.1-.79c4.25-6.89 11.32-8.89 18.5-5.33zM29.88 69.12a.34.33-62.1 0 0-.61.19q-.06 20.37.01 40.98c.04 10.17-4.75 16.85-16.09 15.92q-.44-.04-.44-.48V38.35q0-.65.65-.64l14.84.14q.64 0 .99.53l38.05 56.35a.39.39 0 0 0 .71-.22q.04-19.72 0-39.4c-.02-10.4 3.31-16.7 14.67-17.55a1.96 1.96 0 0 1 2.1 1.95l-.02 85.4q0 1.39-1.4 1.39l-14.29-.07q-.49 0-.77-.42l-38.4-56.69zM224.74 37.94c13.15.04 27.61 7.84 30.14 21.77q3.59 19.76-13.41 30.18a.46.45 60.4 0 0-.16.6l18.41 35.32a.43.43 0 0 1-.4.63c-12.81-.76-16.93 1.7-23.42-10.86q-5.47-10.58-10.94-21.14a.82.81 76 0 0-.72-.44h-14.01a.69.68.4 0 0-.69.67c-.23 12.46 3.99 32.96-16.3 31.6q-.49-.03-.49-.52V38.52q0-.46.46-.46 15.82-.16 31.53-.12zm-15.17 14.99-.14 26a.24.24 0 0 0 .24.24l17.21.09a13.07 12.49.3 0 0 13.14-12.42v-1.5a13.07 12.49.3 0 0-13-12.56l-17.21-.09a.24.24 0 0 0-.24.24z"/><path fill="#fff" d="M209.57 52.93a.24.24 0 0 1 .24-.24l17.21.09a13.07 12.49.3 0 1 13 12.56v1.5a13.07 12.49.3 0 1-13.14 12.42l-17.21-.09a.24.24 0 0 1-.24-.24l.14-26z"/><path fill="#dc5b2b" d="M86.43 210.64a.64.63-55.5 0 1 .15.86c-9.22 14.09-26.63 21.68-43.34 18.43-24.66-4.8-41.15-30.4-33.19-55.08 11.08-34.41 55.59-40.55 76.39-11.37a1.2 1.2 0 0 1-.29 1.69c-11.61 8.08-15.98-.31-25.77-3.49-12.35-4.01-24.63.04-32.08 10.5-14.66 20.58 5.2 48.21 29.4 42.41 10.87-2.6 16.25-13.15 28.73-3.95zM103.34 153.22c8.47-4.7 18.48-.26 27.17-3.44 10.33-3.78 18.12-6.19 28.56-1.77 4.83 2.04 9.65 6.91 14.57 10.1q.47.31 0 .61c-4.65 3.04-10.26 2.21-15.41 2.1-6.31-.14-11.51 1.25-17.22 3.29q-5.57 1.98-8.37 2.21c-13.49 1.13-18.83-5.34-29.32-12.45q-.52-.35.02-.65zM210.06 214.23q12.13.06 24.27.02c11.27-.03 20.7 1.78 20 15.2q-.07 1.3-1.37 1.3l-59.72-.03q-.49 0-.49-.49v-83.76q0-.6.6-.63c10.44-.55 15.92 5.48 15.97 15.26q.12 26.31.21 52.59 0 .54.53.54zM103.42 185.77c8.72-4.12 18.05-.07 26.52-3.11 4.52-1.62 9.42-3.79 13.93-4.2 13.82-1.29 19.92 5.17 29.96 12.66q.37.27-.04.47c-7.31 3.56-13.84 1.43-21.18 2.23-6.74.74-12.99 4.7-19.83 5.25-13.13 1.05-19.82-5.33-29.42-12.65q-.5-.38.06-.65zM103.64 216.99c8.94-3.78 17.8.27 26.6-3.01 12.67-4.72 23.36-7.15 34.7 1.85q4.14 3.28 8.74 6.56a.34.34 0 0 1-.03.58c-3.98 2.12-6.98 2.43-11.95 2.07-6.47-.46-11.99.2-18.33 2.55-8.73 3.24-16.34 4.4-25.07.68-4.88-2.08-9.96-6.87-14.78-10.2q-.92-.64.12-1.08z"/></svg>