<?xml version="1.0" encoding="UTF-8" standalone="no"?>
<!DOCTYPE svg PUBLIC "-//W3C//DTD SVG 1.1//EN" "http://www.w3.org/Graphics/SVG/1.1/DTD/svg11.dtd">
<svg xmlns="http://www.w3.org/2000/svg" version="1.1" viewBox="0.00 0.00 300.00 82.00">
<circle fill="#f05a22" cx="202.35" cy="11.16" r="3.36"/>
<path fill="#f05a22" d="
  M 254.00 20.22
  L 254.00 8.50
  Q 254.00 8.00 254.50 8.00
  L 258.74 8.00
  Q 259.22 8.01 259.22 8.49
  L 259.22 40.32
  Q 259.22 40.87 258.67 40.87
  L 254.57 40.85
  Q 254.04 40.85 254.02 40.32
  L 253.98 38.51
  Q 253.96 37.65 253.37 38.28
  C 246.87 45.19 236.97 41.48 234.64 32.80
  C 231.65 21.61 244.00 11.92 253.55 20.42
  Q 254.00 20.82 254.00 20.22
  Z
  M 246.7152 36.4500
  A 7.11 6.62 90.2 0 0 253.3600 29.3631
  A 7.11 6.62 90.2 0 0 246.7648 22.2300
  A 7.11 6.62 90.2 0 0 240.1200 29.3169
  A 7.11 6.62 90.2 0 0 246.7152 36.4500
  Z"
/>
<circle fill="#2f3291" cx="267.01" cy="11.17" r="3.36"/>
<path fill="#f05a22" d="
  M 60.99 22.74
  L 57.33 22.75
  A 0.42 0.42 0.0 0 1 56.90 22.33
  L 56.91 18.43
  Q 56.91 17.78 57.57 17.79
  L 60.74 17.83
  Q 61.32 17.84 61.31 17.26
  L 61.24 12.01
  Q 61.23 11.50 61.74 11.50
  L 66.04 11.49
  A 0.55 0.55 0.0 0 1 66.59 12.04
  L 66.59 17.20
  Q 66.59 17.82 67.20 17.82
  L 72.34 17.81
  Q 72.86 17.81 72.86 18.34
  L 72.83 22.21
  Q 72.82 22.74 72.29 22.74
  L 67.22 22.75
  Q 66.64 22.75 66.62 23.34
  Q 66.48 28.31 66.60 33.25
  C 66.68 36.79 69.74 36.24 72.21 36.08
  Q 72.77 36.05 72.93 36.58
  L 74.04 40.19
  Q 74.19 40.69 73.67 40.71
  C 68.74 40.89 61.51 41.71 61.50 35.50
  Q 61.50 29.33 61.41 23.15
  Q 61.40 22.73 60.99 22.74
  Z"
/>
<path fill="#f05a22" d="
  M 135.30 17.82
  L 140.55 17.81
  Q 141.05 17.81 141.05 18.31
  L 141.03 22.24
  Q 141.03 22.75 140.51 22.75
  L 135.27 22.75
  Q 134.79 22.75 134.79 23.23
  L 134.80 34.09
  A 2.04 2.03 0.0 0 0 136.84 36.12
  L 140.27 36.11
  Q 140.91 36.10 141.10 36.71
  L 142.23 40.21
  Q 142.40 40.71 141.87 40.73
  C 138.41 40.86 132.22 41.69 130.37 38.07
  Q 129.73 36.82 129.74 33.34
  Q 129.74 28.29 129.54 23.25
  Q 129.52 22.74 129.00 22.74
  L 125.50 22.75
  Q 124.99 22.76 124.99 22.25
  L 124.99 18.27
  Q 124.99 17.78 125.48 17.78
  L 128.91 17.84
  Q 129.42 17.85 129.41 17.34
  L 129.36 11.95
  Q 129.35 11.50 129.80 11.50
  L 134.27 11.49
  Q 134.79 11.49 134.79 12.02
  L 134.79 17.30
  Q 134.79 17.82 135.30 17.82
  Z"
/>
<path fill="#f05a22" d="
  M 11.81 24.23
  L 9.21 24.26
  A 0.34 0.34 0.0 0 1 8.86 23.91
  L 8.88 19.84
  A 0.34 0.34 0.0 0 1 9.22 19.50
  L 12.97 19.50
  A 0.34 0.34 0.0 0 0 13.30 19.23
  L 14.47 14.02
  A 0.34 0.34 0.0 0 1 14.80 13.75
  L 19.11 13.75
  A 0.34 0.34 0.0 0 1 19.44 14.17
  L 18.27 19.09
  A 0.34 0.34 0.0 0 0 18.60 19.51
  L 22.24 19.50
  A 0.34 0.34 0.0 0 0 22.57 19.23
  L 23.68 14.02
  A 0.34 0.34 0.0 0 1 24.01 13.75
  L 28.32 13.75
  A 0.34 0.34 0.0 0 1 28.66 14.16
  L 27.54 19.10
  A 0.34 0.34 0.0 0 0 27.88 19.52
  L 30.38 19.49
  A 0.34 0.34 0.0 0 1 30.72 19.83
  L 30.73 23.91
  A 0.34 0.34 0.0 0 1 30.39 24.25
  L 26.67 24.24
  A 0.34 0.34 0.0 0 0 26.34 24.50
  L 24.89 30.82
  A 0.34 0.34 0.0 0 0 25.22 31.24
  L 27.70 31.22
  A 0.34 0.34 0.0 0 1 28.04 31.56
  L 28.03 35.69
  A 0.34 0.34 0.0 0 1 27.69 36.03
  L 23.99 36.02
  A 0.34 0.34 0.0 0 0 23.66 36.29
  L 22.70 40.74
  A 0.34 0.34 0.0 0 1 22.37 41.01
  L 18.23 41.01
  A 0.34 0.34 0.0 0 1 17.90 40.60
  L 18.72 36.43
  A 0.34 0.34 0.0 0 0 18.39 36.02
  L 14.74 36.02
  A 0.34 0.34 0.0 0 0 14.41 36.29
  L 13.46 40.74
  A 0.34 0.34 0.0 0 1 13.13 41.01
  L 9.00 41.01
  A 0.34 0.34 0.0 0 1 8.67 40.60
  L 9.50 36.43
  A 0.34 0.34 0.0 0 0 9.16 36.02
  L 6.46 36.03
  A 0.34 0.34 0.0 0 1 6.12 35.69
  L 6.13 31.57
  A 0.34 0.34 0.0 0 1 6.47 31.23
  L 10.39 31.23
  A 0.34 0.34 0.0 0 0 10.72 30.96
  L 12.15 24.64
  A 0.34 0.34 0.0 0 0 11.81 24.23
  Z
  M 21.11 24.57
  L 17.49 23.78
  A 0.25 0.25 0.0 0 0 17.19 23.97
  L 15.75 30.59
  A 0.30 0.30 0.0 0 0 15.98 30.94
  L 19.50 31.71
  A 0.30 0.30 0.0 0 0 19.86 31.48
  L 21.30 24.87
  A 0.25 0.25 0.0 0 0 21.11 24.57
  Z"
/>
<path fill="#f05a22" d="
  M 177.30 20.29
  Q 181.87 16.34 187.12 17.43
  C 199.56 20.01 199.44 38.94 187.02 41.44
  Q 181.77 42.50 177.29 38.50
  Q 176.77 38.04 176.77 38.73
  L 176.77 50.00
  Q 176.77 50.52 176.25 50.52
  L 171.97 50.52
  A 0.56 0.56 0.0 0 1 171.41 49.96
  L 171.37 18.57
  Q 171.36 17.99 171.94 17.99
  L 176.29 17.99
  Q 176.85 17.99 176.82 18.55
  L 176.76 20.03
  Q 176.73 20.78 177.30 20.29
  Z
  M 190.96 29.43
  A 6.81 6.81 0.0 0 0 184.15 22.62
  A 6.81 6.81 0.0 0 0 177.34 29.43
  A 6.81 6.81 0.0 0 0 184.15 36.24
  A 6.81 6.81 0.0 0 0 190.96 29.43
  Z"
/>
<path fill="#f05a22" d="
  M 41.76 26.13
  C 44.70 26.79 50.19 26.54 52.76 29.09
  C 56.89 33.18 54.10 39.64 49.04 41.20
  Q 41.09 43.65 34.47 38.13
  Q 34.03 37.76 34.36 37.30
  L 36.54 34.26
  Q 36.91 33.75 37.41 34.13
  Q 41.96 37.51 47.24 36.38
  C 49.38 35.93 49.89 32.39 47.24 31.85
  C 44.25 31.24 40.23 31.13 37.97 29.65
  C 35.22 27.86 34.02 24.51 35.56 21.47
  C 38.69 15.29 48.63 16.74 53.31 19.66
  A 0.49 0.49 0.0 0 1 53.44 20.38
  L 50.93 23.51
  Q 50.61 23.90 50.17 23.66
  C 47.43 22.22 44.97 20.95 41.69 22.16
  Q 41.30 22.30 41.06 22.63
  Q 40.13 23.96 40.90 25.47
  A 1.28 1.26 -6.9 0 0 41.76 26.13
  Z"
/>
<path fill="#f05a22" d="
  M 93.74 38.29
  C 83.23 48.92 69.44 34.33 76.29 22.84
  C 80.13 16.41 87.86 15.41 93.74 20.25
  Q 94.29 20.70 94.27 19.99
  L 94.24 18.43
  Q 94.23 17.85 94.82 17.85
  L 98.80 17.87
  Q 99.47 17.88 99.47 18.55
  L 99.47 40.33
  A 0.54 0.54 0.0 0 1 98.92 40.87
  L 94.77 40.83
  Q 94.21 40.82 94.23 40.26
  L 94.30 38.53
  Q 94.33 37.70 93.74 38.29
  Z
  M 86.9480 36.4397
  A 7.11 6.62 90.5 0 0 93.6297 29.3878
  A 7.11 6.62 90.5 0 0 87.0720 22.2203
  A 7.11 6.62 90.5 0 0 80.3903 29.2722
  A 7.11 6.62 90.5 0 0 86.9480 36.4397
  Z"
/>
<path fill="#f05a22" d="
  M 109.59 20.17
  Q 114.92 14.90 121.54 18.94
  Q 122.02 19.23 121.76 19.73
  L 119.69 23.75
  Q 119.46 24.20 119.03 23.92
  C 114.41 20.93 109.74 22.63 109.65 28.51
  Q 109.56 34.41 109.51 40.34
  Q 109.51 40.86 108.98 40.86
  L 104.55 40.85
  Q 104.00 40.85 104.00 40.30
  L 104.00 18.30
  Q 104.00 17.84 104.45 17.85
  L 108.69 17.87
  A 0.55 0.55 0.0 0 1 109.23 18.44
  L 109.18 19.99
  Q 109.15 20.60 109.59 20.17
  Z"
/>
<path fill="#f05a22" d="
  M 214.24 20.71
  C 215.54 19.43 216.84 18.08 218.68 17.69
  C 225.31 16.28 231.16 20.05 231.26 27.03
  Q 231.36 33.61 231.26 40.16
  Q 231.25 40.66 230.75 40.67
  L 226.29 40.69
  Q 225.84 40.69 225.84 40.24
  Q 225.77 34.60 225.76 29.02
  C 225.76 24.11 221.86 20.92 217.36 23.08
  C 212.91 25.21 214.04 34.11 214.26 40.15
  Q 214.27 40.67 213.75 40.67
  L 209.22 40.69
  Q 208.74 40.69 208.74 40.22
  L 208.74 18.25
  Q 208.74 17.75 209.25 17.75
  L 213.27 17.74
  Q 213.79 17.74 213.79 18.27
  L 213.76 20.50
  Q 213.75 21.19 214.24 20.71
  Z"
/>
<path fill="#f05a22" d="
  M 292.55 20.24
  L 292.48 18.58
  Q 292.46 17.86 293.17 17.86
  L 297.17 17.87
  A 0.56 0.55 -0.0 0 1 297.73 18.42
  L 297.72 40.32
  A 0.54 0.54 0.0 0 1 297.18 40.86
  L 293.02 40.84
  Q 292.46 40.83 292.48 40.27
  L 292.53 38.51
  Q 292.56 37.64 291.95 38.25
  C 286.71 43.51 279.30 42.88 275.01 37.07
  C 266.85 26.05 280.65 10.05 292.09 20.45
  Q 292.58 20.90 292.55 20.24
  Z
  M 284.9818 36.4372
  A 7.10 6.65 91.6 0 0 291.8274 29.5257
  A 7.10 6.65 91.6 0 0 285.3782 22.2428
  A 7.10 6.65 91.6 0 0 278.5326 29.1543
  A 7.10 6.65 91.6 0 0 284.9818 36.4372
  Z"
/>
<rect fill="#f05a22" x="199.57" y="17.74" width="5.62" height="22.94" rx="0.32"/>
<rect fill="#2f3291" x="264.14" y="17.73" width="5.80" height="23.14" rx="0.28"/>
<path fill="#f05a22" d="
  M 162.44 37.90
  C 157.95 43.37 149.07 42.02 146.31 35.65
  C 144.58 31.64 145.47 23.38 145.45 18.54
  Q 145.45 17.99 146.00 17.99
  L 150.25 17.99
  Q 150.78 17.99 150.79 18.53
  C 150.80 22.89 149.67 31.45 152.99 34.75
  C 156.80 38.53 162.14 34.99 162.35 30.00
  Q 162.59 24.25 162.52 18.50
  Q 162.51 17.99 163.02 17.99
  L 167.50 17.99
  Q 168.00 17.99 168.00 18.50
  L 168.00 40.24
  Q 168.00 40.72 167.51 40.72
  L 163.57 40.72
  Q 162.92 40.72 162.90 40.07
  L 162.82 38.03
  Q 162.80 37.45 162.44 37.90
  Z"
/>
<path fill="#1fb04c" d="
  M 242.95 65.89
  L 242.95 44.85
  A 0.36 0.36 0.0 0 1 243.31 44.49
  L 269.58 44.49
  A 0.36 0.36 0.0 0 1 269.94 44.85
  L 269.95 49.64
  A 0.36 0.36 0.0 0 1 269.59 50.00
  L 248.88 50.00
  A 0.36 0.36 0.0 0 0 248.52 50.36
  L 248.53 71.64
  A 0.36 0.36 0.0 0 1 248.17 72.00
  L 221.11 72.00
  A 0.36 0.36 0.0 0 1 220.75 71.64
  L 220.76 66.61
  A 0.36 0.36 0.0 0 1 221.12 66.25
  L 242.59 66.25
  A 0.36 0.36 0.0 0 0 242.95 65.89
  Z"
/>
</svg>
