<svg xmlns="http://www.w3.org/2000/svg" viewBox="0 0 566 992"><g stroke-width="2" fill="none"><path stroke="gray" vector-effect="non-scaling-stroke" d="M55.46 2.94C28.61 6.39 9.23 29.95 9.24 56.75q.05 130.84-.03 261.69c-.01 24.85-.8 49.72-.68 74.57.79 174.8.22 349.63.23 524.43q0 13.39 1.4 19.88c5.19 24.08 25.86 42.96 51.09 43.02q155.07.36 443.44-.04c22.86-.03 43.46-15.57 50.04-37.44 2.62-8.72 1.83-19.74 1.84-29.36q.18-170.82.18-341.64a.67.66 64.3 0 1 .14-.41q.12-.16.12-.45-.07-108.01.02-424.94c0-26.39.41-52.73-.04-79.12q-.3-17.91-.57-19.99c-3.35-25.77-26.08-44.4-51.93-44.4-145.81.02-291.67.09-437.49-.6q-3.73-.02-11.54.99"/><path stroke="gray" vector-effect="non-scaling-stroke" d="M203.06 42.99c-38.79-.1-77.72-.34-116.5.25q-12.34.19-18.3 1.28C55.02 46.94 45.46 60.68 45.48 74c.17 123.47-.81 207.35.13 311 .36 38.94-.31 77.82-.32 116.75q-.11 297.28-.37 399.75-.06 23.86 20.46 32.78c2.92 1.27 7.51 1.93 10.18 1.93q201.6.07 403.19.36c1.82.01 4.94-.36 7.76-.27 13.79.46 26.34-8.93 30.51-21.96q1.34-4.18 1.35-11.83c.19-179.62.53-359.25.4-538.85-.06-69.18-.54-138.43.15-207.6q.58-59.38-.23-82.24c-.63-17.79-14.14-30.61-31.94-30.57q-97.66.19-283.69-.26"/><path stroke="gray" vector-effect="non-scaling-stroke" d="M188.09 111.43c2.42 9.31 13.87 13.64 22.41 13.64q72.95-.06 145.9-.07c27.47 0 32.42-23.76 28.78-45.73-2.31-13.86-11.66-22.86-25.65-23.26-50.08-1.41-100.54-.55-150.67-.19-8.71.06-16.1 3.08-20.93 10.67-8.44 13.27-3.69 30.18.16 44.94"/><path stroke="#8c8b8e" vector-effect="non-scaling-stroke" d="M429.33 268.54c-2.58 2.76-1.58 7.81 2.67 7.74q28.12-.46 56.22-.23a.72.71 89.2 0 1 .71.7q.42 27.26.33 54.67c-.03 8.85 8.74 6.06 8.74 2.59v-62.3a3.62 3.62 0 0 0-3.61-3.62l-63.73-.13a1.82 1.81-68.4 0 0-1.33.58M91.83 275.94l64.09-.29q.82-.01.86-.82l.29-5.5q.04-.67-.63-.74-2.96-.3-5.94-.3-32.11-.05-64.78-.03-1.45 0-1.68 1.44c-.2 1.33-.52 3.06-.52 4.5q-.04 29.54-.01 59.08c0 5.37 7.19 5.65 7.7-.07q.34-3.82.32-6.21-.15-25.25-.24-50.51-.01-.54.54-.55"/><path stroke="#b6c6a5" vector-effect="non-scaling-stroke" d="M350.5 301.43c-17.09 6.55-26.38 19.35-32.32 36.33"/><path stroke="#d0dead" vector-effect="non-scaling-stroke" d="m318.18 337.76-3.16 3.97a1.58 1.57-70.2 0 0 1.2 2.56c2.39.03 3.12-1.51 5.96-.77"/><path stroke="#b6c6a5" vector-effect="non-scaling-stroke" d="M322.18 343.52q12.06.85 24.76.39c2.46-.09 4.37-1.35 6.46-1.72q7.61-1.34 14.37-3.79"/><path stroke="#d0dead" vector-effect="non-scaling-stroke" d="M367.77 338.4c12.4-4.65 25.22-9.82 37.27-13.12q14.3-3.91 28.61-6.4a2.81 2.8 78.1 0 0 2.24-3.45c-2.2-8.83-28.54-16.06-36.39-18.18-3.11-.84-7.56-.68-11.6-1.44-6.65-1.26-13.27.41-18.69 1.01q-9.63 1.06-18.71 4.61"/><path stroke="#87a553" vector-effect="non-scaling-stroke" d="M367.77 338.4q-.14-4.94 1.71-9.89c.49-1.32.52-2.43-1.14-2.6q-.55-.06-.98-.42l-3.89-3.29a1.98 1.97 56.5 0 1 .68-3.39q1.07-.33 1.93-1.04.39-.33.35-.84c-.21-2.63-2.34-3.58-3.48-5.66-2.44-4.46-6.06-7.05-11.06-8.08q-.53-.1-.59-.64-.14-1.15-.8-1.12M322.18 343.52l-3.55-3.1q-.35-.31-.37-.79l-.08-1.87"/><path stroke="#f892a1" vector-effect="non-scaling-stroke" d="m293.21 360.63-33.8-8.78"/><path stroke="#f38995" vector-effect="non-scaling-stroke" d="m259.41 351.85-2.23-.51"/><path stroke="#ec8080" vector-effect="non-scaling-stroke" d="M257.18 351.34c-7.18-1.21-14.61-2.8-21.64-2.59q-36.6 1.09-60.97 28.82-4.23 4.81-10.85 15.58"/><path stroke="#f38995" vector-effect="non-scaling-stroke" d="m163.72 393.15-5.47 10.58"/><path stroke="#f892a1" vector-effect="non-scaling-stroke" d="M158.25 403.73q-11.22 25.38-15.36 52.75"/><path stroke="#feb0b5" vector-effect="non-scaling-stroke" d="M142.89 456.48c-3.27 22.03-.74 42.2 3.36 64.52 5.77 31.36 23.77 74.83 61.18 79.16 2.87.33 5.69 1.37 8.85 1.55"/><path stroke="#ec8080" vector-effect="non-scaling-stroke" d="M216.28 601.71q7.08 2.09 8.9 3.1c16.07 8.86 29.97 15.46 48.98 14.8 24.47-.86 60.15-16.37 77.13-34.37"/><path stroke="#f892a1" vector-effect="non-scaling-stroke" d="M351.29 585.24c18.34-18 32.53-42.35 42.03-66.46"/><path stroke="#feb0b5" vector-effect="non-scaling-stroke" d="M393.32 518.78q7.47-19.34 9.39-31.79 3.28-21.24 3.53-28.49c.22-6.51-1.31-13.23-1.99-19.73-3.32-31.61-27.55-53.79-55.46-65.06"/><path stroke="#f892a1" vector-effect="non-scaling-stroke" d="m348.79 373.71-16.28-5.99"/><path stroke="#ec8080" vector-effect="non-scaling-stroke" d="M332.51 367.72c-9.62-3.18-20.59-3.59-32.07-6.33"/><path stroke="#b2a099" vector-effect="non-scaling-stroke" d="M300.44 361.39c.85-2.69 6.81-7.29 10.07-10.08"/><path stroke="#d0dead" vector-effect="non-scaling-stroke" d="m310.51 351.31 2.65-1.66q.61-.38-.07-.61l-3.65-1.22"/><path stroke="#b2a099" vector-effect="non-scaling-stroke" d="m309.44 347.82-7.77 8.67a.42.42 0 0 1-.72-.36q.42-2.15 1.38-4.12a2.33 2.23 62.1 0 0 .23-.81c.5-5.55 2.54-10.56 2.79-15.92q.52-11.6 1.77-23.14c.29-2.71 1.87-15.44-1.59-16q-8.5-1.39-13.81 5.85-.29.39-.01.79 3.69 5.39 4.27 7.47.88 3.12 2.31 4.58a1.22 1.19-68.7 0 1 .35.83q.42 11.96-.32 23.91c-.12 1.95-1.31 3.43-1.5 5.24-.28 2.73-1.72 14.27-3.61 15.82"/><path stroke="#837e47" vector-effect="non-scaling-stroke" d="M309.44 347.82q1.58 1.63 1.07 3.49"/><path stroke="#9f201a" vector-effect="non-scaling-stroke" d="M300.44 361.39c-2.04 1.79-4.55.18-6.68-.5"/><path stroke="#ab323b" vector-effect="non-scaling-stroke" d="m293.76 360.89-.55-.26"/><path stroke="#e51222" vector-effect="non-scaling-stroke" d="M293.76 360.89c-.33 2.24-1.8 3.57-2.38 5.12q-2.23 6.03-1.17 12.25a1.76 1.76 0 0 0 1.65 1.46q6.77.33 13.49-.44c5.88-.68 11.96-.76 17.28-3.71 3.49-1.93 8.72-3.48 9.88-7.85"/><path stroke="#f64357" vector-effect="non-scaling-stroke" d="M348.79 373.71q-.89 1.39-4.29 2.31c-2.55.7-4.49 3.28-7.26 4.05-12.79 3.6-25.22 6.65-38.52 3.72-4.79-1.05-8.54-.68-13.19-.62q-.9.01-.03-.22l.98-.25q.39-.1-.01-.15c-4.21-.42-7.28 2.31-11.63 5.59q-.38.29-.49.75c-.96 3.92-4.62 5.84-5.14 9.56q-.64 4.57-.01 9.87c.35 2.96 1.95 4.58 4.13 6.33a.68.68 0 0 1-.6 1.19c-.83-.21-4.14 29.34-4.47 32.16q-1.07 9.18-.06 29.96c.1 1.95 1.19 4.12 1.12 6.03q-.59 16.36 7.49 30.49c3.72 6.51 6.57 14.09 13.52 20.41q.33.31.77.36c1.72.22 9.1 9.11 10.52 10.87 2.4 2.97 6.55 6.49 9.63 7.17q11.71 2.56 23.13 6.38.49.16.98.05 10.68-2.28 21.43.09.35.08 0 .14-.14.03-.27.06-.6.15.01.21 3.76.35 7.51-2.46 4.49-3.38 5.79-4.71l.13-.14-.26-.23q-.22-.18.04-.32l5.74-3.15q.35-.19.49.19l.11.35a.23.23 0 0 0 .42.05c5.03-8.68 11.1-18.17 13.56-27.94a1.51 1.5 77.4 0 1 .49-.78l2.77-2.3"/><path stroke="#e00915" vector-effect="non-scaling-stroke" d="M257.18 351.34c.68 1.52.62 2.31-.92 3.14q-2.94 1.58-4.27 4.91a.18.18 0 0 1-.35-.08q.06-.8.47-1.61a.23.23 0 0 0-.39-.24q-1.04 1.3-.69 2.98a1.7 1.65 51.7 0 1-.1.98q-2.08 4.65-.78 9.43.36 1.31 2.07 3.34 3.23 3.81 2.34 9.27a.65.64-85.2 0 1-.63.54H252q-.5 0-.5.5v1.81q0 .63-.42 1.1c-2.95 3.29-3.27 6.82-5.36 10.23-2.65 4.31-4.67 8.84-7.31 13.24-5.31 8.87-9.05 18.37-9.03 28.86q.01 3.52-.24 9.69-.83 21.13 4.37 42.24c1.18 4.78 3.67 9.84 5.29 14.87 2.65 8.24 7.66 15.69 12.38 22.88.41.62.33 1 .32 1.71q-.01.48.25.9 5.69 9.37 7.92 12.05 4.68 5.63 21.89 21.2c2.03 1.84 4.07 2.67 6.44 3.91 3.85 2 8.11 2.61 11.79 6.15 5.33 5.15 16.33 5.87 23.26 7.16q4.17.78 8.41 1 1.46.08 4.64-.6 6.45-1.36 10.26 4.63.26.4.63.11l3.93-3.05"/><path stroke="#e51222" vector-effect="non-scaling-stroke" d="M350.92 584.59q.44.36.37.65"/><path stroke="#eb3136" vector-effect="non-scaling-stroke" d="M216.28 601.71q-7.93-4.2-15.76-7.79-9.07-4.16-12.92-6.92c-13.34-9.58-21.78-24.95-27.32-40.47-2.04-5.71-1.93-11.26-2.57-15.91q-1.12-8.1-2.05-16.23c-.33-2.85-1.69-5.86-1.73-9.18q-.04-2.93-.51-4.85-1.5-6.16-1.42-12.26"/><path stroke="#e00915" vector-effect="non-scaling-stroke" d="M152 488.1q1.1-7.41 1.27-13.6c.07-2.35-.44-4.35-.06-6.92.48-3.3-.16-6.8.05-9.85.26-3.71.03-7.28.9-10.89.55-2.27 4.3-21.51 4.62-21.75a1.08 1.07 75.6 0 0 .45-.77q.88-8.12 5.11-14.92c3.25-5.23 4.35-11.95 5.74-18.01a.22.21-24.1 0 0-.4-.15q-1.65 2.97-2.42 6.51-.57 2.64-3.4 10.14-.67 1.78-2.82 5.37-1.86 3.1-2.73 6.71a.01.01 0 0 1-.02-.01q.98-5.59 1.73-6.95c2.74-5.02 6.17-14.35 3.7-19.86"/><path stroke="#ec1b37" vector-effect="non-scaling-stroke" d="M259.41 351.85c2.03 2.7-1.04 2.26-2.21 2.87-1.61.85-3.27 4.89-4.13 6.47a3.65 3.65 0 0 0-.05 3.45l4.68 9.13q.24.47.2.99l-.19 2.36q-.06.72.67.66l7.63-.68a1.61 1.61 0 0 1 1.07 2.91c-2.25 1.61 2.57 5.95-1.12 8.84-2.97 2.33-3.75 3.67-4.74 7.08-1.67 5.78-5.84 11.18-9.46 15.9q-.09.12-.21.03-.1-.08-.12-.25-.01-.05-.04 0c-4.83 7.87-11.12 18.13-12.08 27.42-2.46 23.99-.92 51.55 11.91 72.74q.16.26.45.28.37.02.57.34 5.38 8.72 12.09 16.47.63.73 1.3 2.17c.91 1.95 2.54 3.18 3.39 5.21 1.24 2.99 3.22 4.84 5.05 7.3q.28.38.74.48c1.49.33 6.46 6.45 8.06 7.92a.04.04 0 0 0 .07-.01l.1-.29q.09-.29.27-.04c3.96 5.46 7.72 8.47 14.31 11.7q4.17 2.05 8.07 4.59c2.05 1.34 3.08 3.49 5.16 4.91a1.88 1.88 0 0 0 2.38-.2l3.35-3.28q.31-.31.75-.32c2.57-.09 7.29-.5 8.62 2.37a1.11 1.08 86.5 0 0 .65.59q7.26 2.56 14.93 1.06 1.5-.29 4.02 1.62.2.15.2-.1 0-.18-.01-.37a.22.22 0 0 1 .34-.19l2.69 1.8q.39.27.86.17 1.13-.23 1.59.52.25.41.66.65 1.58.93 2.44 2.4.29.49-.22.74-1.06.52-.88 1.71.06.39-.23.66l-2.07 1.96"/><path stroke="#f23a4b" vector-effect="non-scaling-stroke" d="m152 488.1-.67-31.05q-.02-.99-.26-.07-.06.22-.06.52.09 10.13-.31 30.38a.06.06 0 0 1-.12 0c-.18-2.9-.08-4.89-.53-8.22-.3-2.14.41-4.15.39-5.99q-.07-5.89-.31-11.62"/><path stroke="#ec1b37" vector-effect="non-scaling-stroke" d="M150.13 462.05q-1.02-9.57 1.8-18.54 1.45-4.6 1.73-9.72c.19-3.57 1.86-6.4 1.56-10.3q-.04-.51.23-.95c1.19-1.92.99-3.86 1.74-5.86.77-2.06.59-4.14 1.63-6 1.54-2.75 2.96-3.96 2.27-7.42q-.12-.59-.55-.17-1.02.99-2.29.64"/><path stroke="#f64357" vector-effect="non-scaling-stroke" d="m150.13 462.05-.69-4.52q-.21-1.37-.29.01-.38 6.66-.08 13.32.01.08.09.11l.08.02q.15.06.16.24.48 6.89-.42 13.7c-.37 2.82.78 6.67 1.28 9.55.4 2.3-.82 4.79-.89 6.44-.31 7.65 1.9 14.63 2.34 21.26.13 1.91.83 3.27 1.37 5.04q.14.48-.22.14c-4-3.77-5.79-25.47-4.67-30.67 1.08-5.07-.46-10.33.55-15.85q.08-.44-.31-.65-.5-.28-.45-.93.76-10.17-1.97-20.03-.52-1.87-2.45-1.78-.53.03-.6-.5l-.07-.47"/><path stroke="#8c8b8e" vector-effect="non-scaling-stroke" d="M84.94 712.38q32.67.3 63.81.11 1.28-.01 2.7-.35.51-.12.68-.62.96-2.83-.41-5.44-.26-.5-.82-.54c-1.15-.09-2.25-.35-3.38-.34q-27.6.23-55.31-.17-.54-.01-.58-.55c-1.24-19.05-.37-38.79-.39-57.91q0-.75-1.16-2.11-.29-.34-.71-.46c-4.8-1.42-5.84 1.39-5.86 5.47q-.15 31.13.29 61.78a1.15 1.14 0 0 0 1.14 1.13M428.73 711.93q1.58.25 4.52.27 30.67.23 62.71-.21 1.62-.02 1.74-1.63.16-1.91.18-4.87.23-29.97-.2-60.03-.01-.56-.5-.82c-2.38-1.27-7.51-2.24-7.55 2.18q-.24 28.44-.46 57.14a1.28 1.28 0 0 1-1.28 1.27q-27.45.07-55.22-.04c-3.85-.02-5.94 2.39-4.7 6.1q.19.55.76.64"/><path stroke="#3f2c28" vector-effect="non-scaling-stroke" d="M493.244 655.874a3.38.56 93.5 0 0 .765-3.34 3.38.56 93.5 0 0-.353-3.408 3.38.56 93.5 0 0-.765 3.34 3.38.56 93.5 0 0 .353 3.408"/></g><path fill="#fff" d="M0 0h566v992H0V0zm55.46 2.94C28.61 6.39 9.23 29.95 9.24 56.75q.05 130.84-.03 261.69c-.01 24.85-.8 49.72-.68 74.57.79 174.8.22 349.63.23 524.43q0 13.39 1.4 19.88c5.19 24.08 25.86 42.96 51.09 43.02q155.07.36 443.44-.04c22.86-.03 43.46-15.57 50.04-37.44 2.62-8.72 1.83-19.74 1.84-29.36q.18-170.82.18-341.64a.67.66 64.3 0 1 .14-.41q.12-.16.12-.45-.07-108.01.02-424.94c0-26.39.41-52.73-.04-79.12q-.3-17.91-.57-19.99c-3.35-25.77-26.08-44.4-51.93-44.4-145.81.02-291.67.09-437.49-.6q-3.73-.02-11.54.99z"/><path d="M9.24 56.75C9.23 29.95 28.61 6.39 55.46 2.94Q63.27 1.93 67 1.95c145.82.69 291.68.62 437.49.6 25.85 0 48.58 18.63 51.93 44.4q.27 2.08.57 19.99c.45 26.39.04 52.73.04 79.12q-.09 316.93-.02 424.94 0 .29-.12.45a.67.66 64.3 0 0-.14.41q0 170.82-.18 341.64c-.01 9.62.78 20.64-1.84 29.36-6.58 21.87-27.18 37.41-50.04 37.44q-288.37.4-443.44.04c-25.23-.06-45.9-18.94-51.09-43.02q-1.4-6.49-1.4-19.88c-.01-174.8.56-349.63-.23-524.43-.12-24.85.67-49.72.68-74.57q.08-130.85.03-261.69zm193.82-13.76c-38.79-.1-77.72-.34-116.5.25q-12.34.19-18.3 1.28C55.02 46.94 45.46 60.68 45.48 74c.17 123.47-.81 207.35.13 311 .36 38.94-.31 77.82-.32 116.75q-.11 297.28-.37 399.75-.06 23.86 20.46 32.78c2.92 1.27 7.51 1.93 10.18 1.93q201.6.07 403.19.36c1.82.01 4.94-.36 7.76-.27 13.79.46 26.34-8.93 30.51-21.96q1.34-4.18 1.35-11.83c.19-179.62.53-359.25.4-538.85-.06-69.18-.54-138.43.15-207.6q.58-59.38-.23-82.24c-.63-17.79-14.14-30.61-31.94-30.57q-97.66.19-283.69-.26z"/><path fill="#fff" d="M86.56 43.24c38.78-.59 77.71-.35 116.5-.25q186.03.45 283.69.26c17.8-.04 31.31 12.78 31.94 30.57q.81 22.86.23 82.24c-.69 69.17-.21 138.42-.15 207.6.13 179.6-.21 359.23-.4 538.85q-.01 7.65-1.35 11.83c-4.17 13.03-16.72 22.42-30.51 21.96-2.82-.09-5.94.28-7.76.27q-201.59-.29-403.19-.36c-2.67 0-7.26-.66-10.18-1.93q-20.52-8.92-20.46-32.78.26-102.47.37-399.75c.01-38.93.68-77.81.32-116.75-.94-103.65.04-187.53-.13-311-.02-13.32 9.54-27.06 22.78-29.48q5.96-1.09 18.3-1.28zm101.53 68.19c2.42 9.31 13.87 13.64 22.41 13.64q72.95-.06 145.9-.07c27.47 0 32.42-23.76 28.78-45.73-2.31-13.86-11.66-22.86-25.65-23.26-50.08-1.41-100.54-.55-150.67-.19-8.71.06-16.1 3.08-20.93 10.67-8.44 13.27-3.69 30.18.16 44.94zm241.24 157.11c-2.58 2.76-1.58 7.81 2.67 7.74q28.12-.46 56.22-.23a.72.71 89.2 0 1 .71.7q.42 27.26.33 54.67c-.03 8.85 8.74 6.06 8.74 2.59v-62.3a3.62 3.62 0 0 0-3.61-3.62l-63.73-.13a1.82 1.81-68.4 0 0-1.33.58zm-337.5 7.4 64.09-.29q.82-.01.86-.82l.29-5.5q.04-.67-.63-.74-2.96-.3-5.94-.3-32.11-.05-64.78-.03-1.45 0-1.68 1.44c-.2 1.33-.52 3.06-.52 4.5q-.04 29.54-.01 59.08c0 5.37 7.19 5.65 7.7-.07q.34-3.82.32-6.21-.15-25.25-.24-50.51-.01-.54.54-.55zm258.67 25.49c-17.09 6.55-26.38 19.35-32.32 36.33l-3.16 3.97a1.58 1.57-70.2 0 0 1.2 2.56c2.39.03 3.12-1.51 5.96-.77q12.06.85 24.76.39c2.46-.09 4.37-1.35 6.46-1.72q7.61-1.34 14.37-3.79c12.4-4.65 25.22-9.82 37.27-13.12q14.3-3.91 28.61-6.4a2.81 2.8 78.1 0 0 2.24-3.45c-2.2-8.83-28.54-16.06-36.39-18.18-3.11-.84-7.56-.68-11.6-1.44-6.65-1.26-13.27.41-18.69 1.01q-9.63 1.06-18.71 4.61zm-57.29 59.2-33.8-8.78-2.23-.51c-7.18-1.21-14.61-2.8-21.64-2.59q-36.6 1.09-60.97 28.82-4.23 4.81-10.85 15.58l-5.47 10.58q-11.22 25.38-15.36 52.75c-3.27 22.03-.74 42.2 3.36 64.52 5.77 31.36 23.77 74.83 61.18 79.16 2.87.33 5.69 1.37 8.85 1.55q7.08 2.09 8.9 3.1c16.07 8.86 29.97 15.46 48.98 14.8 24.47-.86 60.15-16.37 77.13-34.37 18.34-18 32.53-42.35 42.03-66.46q7.47-19.34 9.39-31.79 3.28-21.24 3.53-28.49c.22-6.51-1.31-13.23-1.99-19.73-3.32-31.61-27.55-53.79-55.46-65.06l-16.28-5.99c-9.62-3.18-20.59-3.59-32.07-6.33.85-2.69 6.81-7.29 10.07-10.08l2.65-1.66q.61-.38-.07-.61l-3.65-1.22-7.77 8.67a.42.42 0 0 1-.72-.36q.42-2.15 1.38-4.12a2.33 2.23 62.1 0 0 .23-.81c.5-5.55 2.54-10.56 2.79-15.92q.52-11.6 1.77-23.14c.29-2.71 1.87-15.44-1.59-16q-8.5-1.39-13.81 5.85-.29.39-.01.79 3.69 5.39 4.27 7.47.88 3.12 2.31 4.58a1.22 1.19-68.7 0 1 .35.83q.42 11.96-.32 23.91c-.12 1.95-1.31 3.43-1.5 5.24-.28 2.73-1.72 14.27-3.61 15.82zM84.94 712.38q32.67.3 63.81.11 1.28-.01 2.7-.35.51-.12.68-.62.96-2.83-.41-5.44-.26-.5-.82-.54c-1.15-.09-2.25-.35-3.38-.34q-27.6.23-55.31-.17-.54-.01-.58-.55c-1.24-19.05-.37-38.79-.39-57.91q0-.75-1.16-2.11-.29-.34-.71-.46c-4.8-1.42-5.84 1.39-5.86 5.47q-.15 31.13.29 61.78a1.15 1.14 0 0 0 1.14 1.13zm343.79-.45q1.58.25 4.52.27 30.67.23 62.71-.21 1.62-.02 1.74-1.63.16-1.91.18-4.87.23-29.97-.2-60.03-.01-.56-.5-.82c-2.38-1.27-7.51-2.24-7.55 2.18q-.24 28.44-.46 57.14a1.28 1.28 0 0 1-1.28 1.27q-27.45.07-55.22-.04c-3.85-.02-5.94 2.39-4.7 6.1q.19.55.76.64z"/><path d="M210.5 125.07c-8.54 0-19.99-4.33-22.41-13.64-3.85-14.76-8.6-31.67-.16-44.94 4.83-7.59 12.22-10.61 20.93-10.67 50.13-.36 100.59-1.22 150.67.19 13.99.4 23.34 9.4 25.65 23.26 3.64 21.97-1.31 45.73-28.78 45.73q-72.95.01-145.9.07z"/><path fill="#18171c" d="M432 276.28c-4.25.07-5.25-4.98-2.67-7.74a1.82 1.81-68.4 0 1 1.33-.58l63.73.13a3.62 3.62 0 0 1 3.61 3.62v62.3c0 3.47-8.77 6.26-8.74-2.59q.09-27.41-.33-54.67a.72.71 89.2 0 0-.71-.7q-28.1-.23-56.22.23zM91.29 276.49q.09 25.26.24 50.51.02 2.39-.32 6.21c-.51 5.72-7.7 5.44-7.7.07q-.03-29.54.01-59.08c0-1.44.32-3.17.52-4.5q.23-1.44 1.68-1.44 32.67-.02 64.78.03 2.98 0 5.94.3.67.07.63.74l-.29 5.5q-.04.81-.86.82l-64.09.29q-.55.01-.54.55z"/><path fill="#a1bc5a" d="M367.77 338.4q-.14-4.94 1.71-9.89c.49-1.32.52-2.43-1.14-2.6q-.55-.06-.98-.42l-3.89-3.29a1.98 1.97 56.5 0 1 .68-3.39q1.07-.33 1.93-1.04.39-.33.35-.84c-.21-2.63-2.34-3.58-3.48-5.66-2.44-4.46-6.06-7.05-11.06-8.08q-.53-.1-.59-.64-.14-1.15-.8-1.12 9.08-3.55 18.71-4.61c5.42-.6 12.04-2.27 18.69-1.01 4.04.76 8.49.6 11.6 1.44 7.85 2.12 34.19 9.35 36.39 18.18a2.81 2.8 78.1 0 1-2.24 3.45q-14.31 2.49-28.61 6.4c-12.05 3.3-24.87 8.47-37.27 13.12z"/><path fill="#654033" d="M309.44 347.82q1.58 1.63 1.07 3.49c-3.26 2.79-9.22 7.39-10.07 10.08-2.04 1.79-4.55.18-6.68-.5l-.55-.26c1.89-1.55 3.33-13.09 3.61-15.82.19-1.81 1.38-3.29 1.5-5.24q.74-11.95.32-23.91a1.22 1.19-68.7 0 0-.35-.83q-1.43-1.46-2.31-4.58-.58-2.08-4.27-7.47-.28-.4.01-.79 5.31-7.24 13.81-5.85c3.46.56 1.88 13.29 1.59 16q-1.25 11.54-1.77 23.14c-.25 5.36-2.29 10.37-2.79 15.92a2.33 2.23 62.1 0 1-.23.81q-.96 1.97-1.38 4.12a.42.42 0 0 0 .72.36l7.77-8.67z"/><path fill="#6d8d4b" d="M350.5 301.43q.66-.03.8 1.12.06.54.59.64c5 1.03 8.62 3.62 11.06 8.08 1.14 2.08 3.27 3.03 3.48 5.66q.04.51-.35.84-.86.71-1.93 1.04a1.98 1.97 56.5 0 0-.68 3.39l3.89 3.29q.43.36.98.42c1.66.17 1.63 1.28 1.14 2.6q-1.85 4.95-1.71 9.89-6.76 2.45-14.37 3.79c-2.09.37-4 1.63-6.46 1.72q-12.7.46-24.76-.39l-3.55-3.1q-.35-.31-.37-.79l-.08-1.87c5.94-16.98 15.23-29.78 32.32-36.33z"/><path fill="#a1bc5a" d="m318.18 337.76.08 1.87q.02.48.37.79l3.55 3.1c-2.84-.74-3.57.8-5.96.77a1.58 1.57-70.2 0 1-1.2-2.56l3.16-3.97zM309.44 347.82l3.65 1.22q.68.23.07.61l-2.65 1.66q.51-1.86-1.07-3.49z"/><path fill="#d90000" d="M257.18 351.34c.68 1.52.62 2.31-.92 3.14q-2.94 1.58-4.27 4.91a.18.18 0 0 1-.35-.08q.06-.8.47-1.61a.23.23 0 0 0-.39-.24q-1.04 1.3-.69 2.98a1.7 1.65 51.7 0 1-.1.98q-2.08 4.65-.78 9.43.36 1.31 2.07 3.34 3.23 3.81 2.34 9.27a.65.64-85.2 0 1-.63.54H252q-.5 0-.5.5v1.81q0 .63-.42 1.1c-2.95 3.29-3.27 6.82-5.36 10.23-2.65 4.31-4.67 8.84-7.31 13.24-5.31 8.87-9.05 18.37-9.03 28.86q.01 3.52-.24 9.69-.83 21.13 4.37 42.24c1.18 4.78 3.67 9.84 5.29 14.87 2.65 8.24 7.66 15.69 12.38 22.88.41.62.33 1 .32 1.71q-.01.48.25.9 5.69 9.37 7.92 12.05 4.68 5.63 21.89 21.2c2.03 1.84 4.07 2.67 6.44 3.91 3.85 2 8.11 2.61 11.79 6.15 5.33 5.15 16.33 5.87 23.26 7.16q4.17.78 8.41 1 1.46.08 4.64-.6 6.45-1.36 10.26 4.63.26.4.63.11l3.93-3.05q.44.36.37.65c-16.98 18-52.66 33.51-77.13 34.37-19.01.66-32.91-5.94-48.98-14.8q-1.82-1.01-8.9-3.1-7.93-4.2-15.76-7.79-9.07-4.16-12.92-6.92c-13.34-9.58-21.78-24.95-27.32-40.47-2.04-5.71-1.93-11.26-2.57-15.91q-1.12-8.1-2.05-16.23c-.33-2.85-1.69-5.86-1.73-9.18q-.04-2.93-.51-4.85-1.5-6.16-1.42-12.26 1.1-7.41 1.27-13.6c.07-2.35-.44-4.35-.06-6.92.48-3.3-.16-6.8.05-9.85.26-3.71.03-7.28.9-10.89.55-2.27 4.3-21.51 4.62-21.75a1.08 1.07 75.6 0 0 .45-.77q.88-8.12 5.11-14.92c3.25-5.23 4.35-11.95 5.74-18.01a.22.21-24.1 0 0-.4-.15q-1.65 2.97-2.42 6.51-.57 2.64-3.4 10.14-.67 1.78-2.82 5.37-1.86 3.1-2.73 6.71a.01.01 0 0 1-.02-.01q.98-5.59 1.73-6.95c2.74-5.02 6.17-14.35 3.7-19.86q6.62-10.77 10.85-15.58 24.37-27.73 60.97-28.82c7.03-.21 14.46 1.38 21.64 2.59z"/><path fill="#e7122a" d="m257.18 351.34 2.23.51c2.03 2.7-1.04 2.26-2.21 2.87-1.61.85-3.27 4.89-4.13 6.47a3.65 3.65 0 0 0-.05 3.45l4.68 9.13q.24.47.2.99l-.19 2.36q-.06.72.67.66l7.63-.68a1.61 1.61 0 0 1 1.07 2.91c-2.25 1.61 2.57 5.95-1.12 8.84-2.97 2.33-3.75 3.67-4.74 7.08-1.67 5.78-5.84 11.18-9.46 15.9q-.09.12-.21.03-.1-.08-.12-.25-.01-.05-.04 0c-4.83 7.87-11.12 18.13-12.08 27.42-2.46 23.99-.92 51.55 11.91 72.74q.16.26.45.28.37.02.57.34 5.38 8.72 12.09 16.47.63.73 1.3 2.17c.91 1.95 2.54 3.18 3.39 5.21 1.24 2.99 3.22 4.84 5.05 7.3q.28.38.74.48c1.49.33 6.46 6.45 8.06 7.92a.04.04 0 0 0 .07-.01l.1-.29q.09-.29.27-.04c3.96 5.46 7.72 8.47 14.31 11.7q4.17 2.05 8.07 4.59c2.05 1.34 3.08 3.49 5.16 4.91a1.88 1.88 0 0 0 2.38-.2l3.35-3.28q.31-.31.75-.32c2.57-.09 7.29-.5 8.62 2.37a1.11 1.08 86.5 0 0 .65.59q7.26 2.56 14.93 1.06 1.5-.29 4.02 1.62.2.15.2-.1 0-.18-.01-.37a.22.22 0 0 1 .34-.19l2.69 1.8q.39.27.86.17 1.13-.23 1.59.52.25.41.66.65 1.58.93 2.44 2.4.29.49-.22.74-1.06.52-.88 1.71.06.39-.23.66l-2.07 1.96-3.93 3.05q-.37.29-.63-.11-3.81-5.99-10.26-4.63-3.18.68-4.64.6-4.24-.22-8.41-1c-6.93-1.29-17.93-2.01-23.26-7.16-3.68-3.54-7.94-4.15-11.79-6.15-2.37-1.24-4.41-2.07-6.44-3.91q-17.21-15.57-21.89-21.2-2.23-2.68-7.92-12.05-.26-.42-.25-.9c.01-.71.09-1.09-.32-1.71-4.72-7.19-9.73-14.64-12.38-22.88-1.62-5.03-4.11-10.09-5.29-14.87q-5.2-21.11-4.37-42.24.25-6.17.24-9.69c-.02-10.49 3.72-19.99 9.03-28.86 2.64-4.4 4.66-8.93 7.31-13.24 2.09-3.41 2.41-6.94 5.36-10.23q.42-.47.42-1.1v-1.81q0-.5.5-.5h1.93a.65.64-85.2 0 0 .63-.54q.89-5.46-2.34-9.27-1.71-2.03-2.07-3.34-1.3-4.78.78-9.43a1.7 1.65 51.7 0 0 .1-.98q-.35-1.68.69-2.98a.23.23 0 0 1 .39.24q-.41.81-.47 1.61a.18.18 0 0 0 .35.08q1.33-3.33 4.27-4.91c1.54-.83 1.6-1.62.92-3.14z"/><path fill="#f02443" d="m259.41 351.85 33.8 8.78.55.26c-.33 2.24-1.8 3.57-2.38 5.12q-2.23 6.03-1.17 12.25a1.76 1.76 0 0 0 1.65 1.46q6.77.33 13.49-.44c5.88-.68 11.96-.76 17.28-3.71 3.49-1.93 8.72-3.48 9.88-7.85l16.28 5.99q-.89 1.39-4.29 2.31c-2.55.7-4.49 3.28-7.26 4.05-12.79 3.6-25.22 6.65-38.52 3.72-4.79-1.05-8.54-.68-13.19-.62q-.9.01-.03-.22l.98-.25q.39-.1-.01-.15c-4.21-.42-7.28 2.31-11.63 5.59q-.38.29-.49.75c-.96 3.92-4.62 5.84-5.14 9.56q-.64 4.57-.01 9.87c.35 2.96 1.95 4.58 4.13 6.33a.68.68 0 0 1-.6 1.19c-.83-.21-4.14 29.34-4.47 32.16q-1.07 9.18-.06 29.96c.1 1.95 1.19 4.12 1.12 6.03q-.59 16.36 7.49 30.49c3.72 6.51 6.57 14.09 13.52 20.41q.33.31.77.36c1.72.22 9.1 9.11 10.52 10.87 2.4 2.97 6.55 6.49 9.63 7.17q11.71 2.56 23.13 6.38.49.16.98.05 10.68-2.28 21.43.09.35.08 0 .14-.14.03-.27.06-.6.15.01.21 3.76.35 7.51-2.46 4.49-3.38 5.79-4.71l.13-.14-.26-.23q-.22-.18.04-.32l5.74-3.15q.35-.19.49.19l.11.35a.23.23 0 0 0 .42.05c5.03-8.68 11.1-18.17 13.56-27.94a1.51 1.5 77.4 0 1 .49-.78l2.77-2.3c-9.5 24.11-23.69 48.46-42.03 66.46q.07-.29-.37-.65l2.07-1.96q.29-.27.23-.66-.18-1.19.88-1.71.51-.25.22-.74-.86-1.47-2.44-2.4-.41-.24-.66-.65-.46-.75-1.59-.52-.47.1-.86-.17l-2.69-1.8a.22.22 0 0 0-.34.19q.01.19.01.37 0 .25-.2.1-2.52-1.91-4.02-1.62-7.67 1.5-14.93-1.06a1.11 1.08 86.5 0 1-.65-.59c-1.33-2.87-6.05-2.46-8.62-2.37q-.44.01-.75.32l-3.35 3.28a1.88 1.88 0 0 1-2.38.2c-2.08-1.42-3.11-3.57-5.16-4.91q-3.9-2.54-8.07-4.59c-6.59-3.23-10.35-6.24-14.31-11.7q-.18-.25-.27.04l-.1.29a.04.04 0 0 1-.07.01c-1.6-1.47-6.57-7.59-8.06-7.92q-.46-.1-.74-.48c-1.83-2.46-3.81-4.31-5.05-7.3-.85-2.03-2.48-3.26-3.39-5.21q-.67-1.44-1.3-2.17-6.71-7.75-12.09-16.47-.2-.32-.57-.34-.29-.02-.45-.28c-12.83-21.19-14.37-48.75-11.91-72.74.96-9.29 7.25-19.55 12.08-27.42q.03-.05.04 0 .02.17.12.25.12.09.21-.03c3.62-4.72 7.79-10.12 9.46-15.9.99-3.41 1.77-4.75 4.74-7.08 3.69-2.89-1.13-7.23 1.12-8.84a1.61 1.61 0 0 0-1.07-2.91l-7.63.68q-.73.06-.67-.66l.19-2.36q.04-.52-.2-.99l-4.68-9.13a3.65 3.65 0 0 1 .05-3.45c.86-1.58 2.52-5.62 4.13-6.47 1.17-.61 4.24-.17 2.21-2.87z"/><path fill="#d90000" d="M293.76 360.89c2.13.68 4.64 2.29 6.68.5 11.48 2.74 22.45 3.15 32.07 6.33-1.16 4.37-6.39 5.92-9.88 7.85-5.32 2.95-11.4 3.03-17.28 3.71q-6.72.77-13.49.44a1.76 1.76 0 0 1-1.65-1.46q-1.06-6.22 1.17-12.25c.58-1.55 2.05-2.88 2.38-5.12z"/><path fill="#fc616b" d="M348.79 373.71c27.91 11.27 52.14 33.45 55.46 65.06.68 6.5 2.21 13.22 1.99 19.73q-.25 7.25-3.53 28.49-1.92 12.45-9.39 31.79l-2.77 2.3a1.51 1.5 77.4 0 0-.49.78c-2.46 9.77-8.53 19.26-13.56 27.94a.23.23 0 0 1-.42-.05l-.11-.35q-.14-.38-.49-.19l-5.74 3.15q-.26.14-.04.32l.26.23-.13.14q-1.3 1.33-5.79 4.71-3.75 2.81-7.51 2.46-.61-.06-.01-.21.13-.03.27-.06.35-.06 0-.14-10.75-2.37-21.43-.09-.49.11-.98-.05-11.42-3.82-23.13-6.38c-3.08-.68-7.23-4.2-9.63-7.17-1.42-1.76-8.8-10.65-10.52-10.87q-.44-.05-.77-.36c-6.95-6.32-9.8-13.9-13.52-20.41q-8.08-14.13-7.49-30.49c.07-1.91-1.02-4.08-1.12-6.03q-1.01-20.78.06-29.96c.33-2.82 3.64-32.37 4.47-32.16a.68.68 0 0 0 .6-1.19c-2.18-1.75-3.78-3.37-4.13-6.33q-.63-5.3.01-9.87c.52-3.72 4.18-5.64 5.14-9.56q.11-.46.49-.75c4.35-3.28 7.42-6.01 11.63-5.59q.4.05.01.15l-.98.25q-.87.23.03.22c4.65-.06 8.4-.43 13.19.62 13.3 2.93 25.73-.12 38.52-3.72 2.77-.77 4.71-3.35 7.26-4.05q3.4-.92 4.29-2.31z"/><path fill="#e7122a" d="m152 488.1-.67-31.05q-.02-.99-.26-.07-.06.22-.06.52.09 10.13-.31 30.38a.06.06 0 0 1-.12 0c-.18-2.9-.08-4.89-.53-8.22-.3-2.14.41-4.15.39-5.99q-.07-5.89-.31-11.62-1.02-9.57 1.8-18.54 1.45-4.6 1.73-9.72c.19-3.57 1.86-6.4 1.56-10.3q-.04-.51.23-.95c1.19-1.92.99-3.86 1.74-5.86.77-2.06.59-4.14 1.63-6 1.54-2.75 2.96-3.96 2.27-7.42q-.12-.59-.55-.17-1.02.99-2.29.64l5.47-10.58c2.47 5.51-.96 14.84-3.7 19.86q-.75 1.36-1.73 6.95a.01.01 0 0 0 .02.01q.87-3.61 2.73-6.71 2.15-3.59 2.82-5.37 2.83-7.5 3.4-10.14.77-3.54 2.42-6.51a.22.21-24.1 0 1 .4.15c-1.39 6.06-2.49 12.78-5.74 18.01q-4.23 6.8-5.11 14.92a1.08 1.07 75.6 0 1-.45.77c-.32.24-4.07 19.48-4.62 21.75-.87 3.61-.64 7.18-.9 10.89-.21 3.05.43 6.55-.05 9.85-.38 2.57.13 4.57.06 6.92q-.17 6.19-1.27 13.6z"/><path fill="#f02443" d="m150.13 462.05-.69-4.52q-.21-1.37-.29.01-.38 6.66-.08 13.32.01.08.09.11l.08.02q.15.06.16.24.48 6.89-.42 13.7c-.37 2.82.78 6.67 1.28 9.55.4 2.3-.82 4.79-.89 6.44-.31 7.65 1.9 14.63 2.34 21.26.13 1.91.83 3.27 1.37 5.04q.14.48-.22.14c-4-3.77-5.79-25.47-4.67-30.67 1.08-5.07-.46-10.33.55-15.85q.08-.44-.31-.65-.5-.28-.45-.93.76-10.17-1.97-20.03-.52-1.87-2.45-1.78-.53.03-.6-.5l-.07-.47q4.14-27.37 15.36-52.75 1.27.35 2.29-.64.43-.42.55.17c.69 3.46-.73 4.67-2.27 7.42-1.04 1.86-.86 3.94-1.63 6-.75 2-.55 3.94-1.74 5.86q-.27.44-.23.95c.3 3.9-1.37 6.73-1.56 10.3q-.28 5.12-1.73 9.72-2.82 8.97-1.8 18.54z"/><path fill="#fc616b" d="m142.89 456.48.07.47q.07.53.6.5 1.93-.09 2.45 1.78 2.73 9.86 1.97 20.03-.05.65.45.93.39.21.31.65c-1.01 5.52.53 10.78-.55 15.85-1.12 5.2.67 26.9 4.67 30.67q.36.34.22-.14c-.54-1.77-1.24-3.13-1.37-5.04-.44-6.63-2.65-13.61-2.34-21.26.07-1.65 1.29-4.14.89-6.44-.5-2.88-1.65-6.73-1.28-9.55q.9-6.81.42-13.7-.01-.18-.16-.24l-.08-.02q-.08-.03-.09-.11-.3-6.66.08-13.32.08-1.38.29-.01l.69 4.52q.24 5.73.31 11.62c.02 1.84-.69 3.85-.39 5.99.45 3.33.35 5.32.53 8.22a.06.06 0 0 0 .12 0q.4-20.25.31-30.38 0-.3.06-.52.24-.92.26.07l.67 31.05q-.08 6.1 1.42 12.26.47 1.92.51 4.85c.04 3.32 1.4 6.33 1.73 9.18q.93 8.13 2.05 16.23c.64 4.65.53 10.2 2.57 15.91 5.54 15.52 13.98 30.89 27.32 40.47q3.85 2.76 12.92 6.92 7.83 3.59 15.76 7.79c-3.16-.18-5.98-1.22-8.85-1.55-37.41-4.33-55.41-47.8-61.18-79.16-4.1-22.32-6.63-42.49-3.36-64.52z"/><path fill="#18171c" d="M84.94 712.38a1.15 1.14 0 0 1-1.14-1.13q-.44-30.65-.29-61.78c.02-4.08 1.06-6.89 5.86-5.47q.42.12.71.46 1.16 1.36 1.16 2.11c.02 19.12-.85 38.86.39 57.91q.04.54.58.55 27.71.4 55.31.17c1.13-.01 2.23.25 3.38.34q.56.04.82.54 1.37 2.61.41 5.44-.17.5-.68.62-1.42.34-2.7.35-31.14.19-63.81-.11zM427.97 711.29c-1.24-3.71.85-6.12 4.7-6.1q27.77.11 55.22.04a1.28 1.28 0 0 0 1.28-1.27q.22-28.7.46-57.14c.04-4.42 5.17-3.45 7.55-2.18q.49.26.5.82.43 30.06.2 60.03-.02 2.96-.18 4.87-.12 1.61-1.74 1.63-32.04.44-62.71.21-2.94-.02-4.52-.27-.57-.09-.76-.64zm65.274-55.416a3.38.56 93.5 0 0 .765-3.34 3.38.56 93.5 0 0-.353-3.408 3.38.56 93.5 0 0-.765 3.34 3.38.56 93.5 0 0 .353 3.408z"/><ellipse fill="#654033" transform="rotate(93.5 -60.18 558.346)" rx="3.38" ry=".56"/></svg>