<svg xmlns="http://www.w3.org/2000/svg" viewBox="0 0 256 193"><g stroke-width="2" fill="none"><path stroke="#29211e" vector-effect="non-scaling-stroke" d="M155.42 36.74q.64-4.95-.76-9.97c-1.02-3.63-4.71-8.53-9.09-8.39q-.6.02-.78-.56l-.38-1.29q-.16-.53-.71-.53h-.49"/><path stroke="#83623f" vector-effect="non-scaling-stroke" d="m143.21 16-1.55-3.14"/><path stroke="#29211e" vector-effect="non-scaling-stroke" d="M141.66 12.86c3.35-4.25 10.61 1.68 12.29 4.93q4.79 9.33 3.96 20.08-.05.55.51.52.53-.02.65-.72c2.03-11.08-.56-26.58-15.08-26.94q-2.2-.05-4.53-.18"/><path stroke="#83623f" vector-effect="non-scaling-stroke" d="M139.46 10.55q-1.18-1.07-2.67-1.34"/><path stroke="#957753" vector-effect="non-scaling-stroke" d="M136.79 9.21q-.34-.73-1.08-1.21"/><path stroke="#4e3f3b" vector-effect="non-scaling-stroke" d="M135.71 8q-1.37-1.06-.42-2.49 1.21-1.81 4.84-5.09"/><path stroke="#a4845f" vector-effect="non-scaling-stroke" d="m135.71 8-6.15-1.59"/><path stroke="#4e3f3b" vector-effect="non-scaling-stroke" d="M129.56 6.41q1.01-2.16 3.36-3.62"/><path stroke="#957753" vector-effect="non-scaling-stroke" d="m129.56 6.41-2.55.37q-.47.06-.17.44c3.02 3.86 5.84 1.28 8.93 3.56"/><path stroke="#83623f" vector-effect="non-scaling-stroke" d="M135.77 10.78q1.27 2.39 3.62 3.82.44.27.68.73 1.11 2.11 3.15 3.15"/><path stroke="#29211e" vector-effect="non-scaling-stroke" d="M143.22 18.48q3.24 2.44 4 5.8c1.16 5.15 3.18 8.17 1.64 13.79"/><path stroke="#3a2e2b" stroke-opacity=".541" vector-effect="non-scaling-stroke" d="M148.86 38.07q-1.07 3.11-.7 6.21"/><path stroke="#29211e" vector-effect="non-scaling-stroke" d="M148.16 44.28q-.17 3.35-2.35 6.09"/><path stroke="#7c5544" vector-effect="non-scaling-stroke" d="m145.81 50.37-2.74-2.28"/><path stroke="#29211e" vector-effect="non-scaling-stroke" d="M143.07 48.09q1.19-.96-1.04-1.57a.75.75 0 0 0-.85 1.09q.06.1.54.29"/><path stroke="#7c5544" vector-effect="non-scaling-stroke" d="M141.72 47.9q-3.55.15-5.84 2.28a2.36 2.36 0 0 1-3.77-.78l-3.99-9.1q-.21-.47-.71-.53-1.85-.23-2.91-.92"/><path stroke="#927060" vector-effect="non-scaling-stroke" d="m124.5 38.85-9.73-3.38"/><path stroke="#4e3f3b" vector-effect="non-scaling-stroke" d="M114.77 35.47c.8-1.96 3.67-.06 5.18.38A1.6 1.59-82 0 0 122 34.3c-.11-9.51 5.12-12.35 11.7-17.64a1.25 1.25 0 0 0-.91-2.22q-2.28.22-3.81 1.9a.52.52 0 0 1-.82-.06q-1.54-2.32-.32-4.77a.51.51 0 0 0-.42-.74q-1.59-.12-2.88.86-.39.3-.88.38c-3.31.5-1.22-4.1-2.92-3.5"/><path stroke="#d9a763" vector-effect="non-scaling-stroke" d="M136.79 9.21q.06 1.23-1.02 1.57"/><path stroke="#a17d6c" vector-effect="non-scaling-stroke" d="m114.77 35.47-14.42-3.09a2.17 2.17 0 0 0-2.57 1.65l-1.07 4.72"/><path stroke="#66554f" vector-effect="non-scaling-stroke" d="M96.04 33.23q1.81-2.6 7.89-1.58 3.42.58 7.03.29.53-.05.86-.47 2.13-2.76.82-6.17-.17-.44-.61-.63l-11-4.7"/><path stroke="#6d512f" vector-effect="non-scaling-stroke" d="m139.46 10.55 2.2 2.31M143.21 16q.39 1.31.01 2.48"/><path stroke="#664334" vector-effect="non-scaling-stroke" d="M146.25 57.96q2.27-3.66-.44-7.59"/><path stroke="#120e0d" stroke-opacity=".541" vector-effect="non-scaling-stroke" d="m148.16 44.28.26 7.95"/><path stroke="#0f0c0b" stroke-opacity=".647" vector-effect="non-scaling-stroke" d="M148.42 52.23q-.43 1.82-.08 3.56.12.57.57.21.67-.54.58-1.72"/><path stroke="#120e0d" stroke-opacity=".541" vector-effect="non-scaling-stroke" d="M149.49 54.28q1.14-8.14-.63-16.21"/><path stroke="#cf9376" vector-effect="non-scaling-stroke" d="M124.5 38.85q-.44 5.95-3.13 10.8"/><path stroke="#a17d6c" vector-effect="non-scaling-stroke" d="M121.37 49.65q-5.44-1.36-9.94-.81a1.42 1.41 1.4 0 0-1.22 1.16c-.49 2.88 9.62 2.39 11.45 2.4"/><path stroke="#cf9376" vector-effect="non-scaling-stroke" d="M121.66 52.4q2.97 4.86-.89 5.74"/><path stroke="#7c5f50" vector-effect="non-scaling-stroke" d="M120.77 58.14c-5.23-8.44-14.37 1.46-5.53 4.08"/><path stroke="#cf9376" vector-effect="non-scaling-stroke" d="M115.24 62.22q.41.54.98.55"/><path stroke="#d89e81" vector-effect="non-scaling-stroke" d="M116.22 62.77q-1.57 3.59-4.47 3.47a2.42 2.42 0 0 1-2.32-2.23q-.2-2.55-1.47-4.77a.53.53 0 0 0-.98.33q.22 1.53-.9 2.49-.38.32-.61.75l-.89 1.63q-.25.46.25.64 3.43 1.26 4.98 4.28"/><path stroke="#cf9376" vector-effect="non-scaling-stroke" d="M109.81 69.36c-2.7.36-.07 1.62 1.19 1.3"/><path stroke="#d89e81" vector-effect="non-scaling-stroke" d="M111 70.66q.53.21.73.55a.54.54 0 0 1-.35.8q-3.07.67-5.88-.58a.83.83 0 0 0-1.11 1.04c.99 2.77 4.45 2.77 6.83 3.15q.51.08.76.54.59 1.1.01 2.79"/><path stroke="#cf9376" vector-effect="non-scaling-stroke" d="m111.99 78.95-3.28.42"/><path stroke="#e8b584" vector-effect="non-scaling-stroke" d="M108.71 79.37q-.93-.1-1.67-.67"/><path stroke="#7c5f50" vector-effect="non-scaling-stroke" d="M97.56 57.19q1.05.06 1.67.81a1.73 1.73 0 0 0 2.97-.57c.92-2.81-2.91-9.23-5.15-5.29"/><path stroke="#aa8674" vector-effect="non-scaling-stroke" d="m95.99 47.19 4.4 2.21a1.13 1.13 0 0 0 1.49-1.56q-1.68-3-5.77-4.15"/><path stroke="#664334" vector-effect="non-scaling-stroke" d="m141.72 47.9 1.35.19M145.02 59.24q-2.23 1.91-3.91 2"/><path stroke="#814936" vector-effect="non-scaling-stroke" d="M138.67 72.42c3.59 9.33-14.97 12.62-19.55 6.24q-.34-.46-.6.05-.12.25.02.54"/><path stroke="#d29a69" vector-effect="non-scaling-stroke" d="M118.54 79.25q-.86-.74-1.48-.44-4.2 2.1-8.35.56"/><path stroke="#c38365" vector-effect="non-scaling-stroke" d="M111.99 78.95q4.34-1.26 7.07-5.92c1.58-2.7 3.49-4.33 3.1-8.2q-.05-.51-.48-.78-2.41-1.53-5.46-1.28"/><path stroke="#664334" vector-effect="non-scaling-stroke" d="M115.24 62.22q5.52.64 5.53-4.08"/><path stroke="#8b6251" vector-effect="non-scaling-stroke" d="M121.66 52.4q.6-.27.61-1.13a1.42 1.37 27.1 0 0-.31-.9l-.59-.72"/><path stroke="#716d6a" vector-effect="non-scaling-stroke" d="M100.02 53.12q-.02-.19-.01-.37a.5.37 69.4 0 0-.72-.47q-.92 1.63.37 1.33a.46.45-9.3 0 0 .36-.49M113.89 56.94q.52.36.85.02.23-.24.2-.58-.01-.16-.05-.28-.08-.27-.36-.19-.88.25-.79.79a.4.39-77.8 0 0 .15.24"/><path stroke="#c38365" vector-effect="non-scaling-stroke" d="m111 70.66 2.95-1a.44.44 0 0 0-.2-.86l-3.94.56"/><path stroke="#b47a3f" vector-effect="non-scaling-stroke" d="M172.15 81.21q-1.33-.27-2.59-1.08-1.48-.95-2.46-1.16c-9.59-2.04-13.83 3.23-21.82 5.71a.13.13 0 0 0 .07.25c1.1-.27 10.97-4.21 11.16-4.14q.39.15 0 .3c-2.91 1.08-5.51 3.03-8.14 3.88-7.07 2.28-14.27 3.57-20.27-1.97"/><path stroke="#753e20" vector-effect="non-scaling-stroke" d="M128.1 83q4.93.1 9.33-3.33 3.47-2.71 4.25-7.46"/><path stroke="#885730" vector-effect="non-scaling-stroke" d="m128.1 83-3.11-.26"/><path stroke="#9a6c44" vector-effect="non-scaling-stroke" d="M124.99 82.74q-3.91-.83-6.45-3.49"/><path stroke="#c08555" vector-effect="non-scaling-stroke" d="M190.43 116.38q-2.68 3.85-6.6 6.09-.42.23-.88.13-2.2-.48-3.21-1.86-1.5-2.02-5.96-9.25c-.76-1.25-1.15-3.09-2.48-4.33q-.36-.33-.53-.77-1.72-4.31-6.11-5.76a.83.83 0 0 0-.89.26q-.48.56-.7 1.34"/><path stroke="#b16a34" vector-effect="non-scaling-stroke" d="M163.07 102.23c-2.54.38 4.12 19.26 5.16 22.11"/><path stroke="#93947b" vector-effect="non-scaling-stroke" d="M170.76 133.35q-2.23-2.64-3.59-5.74c-.38-.87-1.08-1.6-2-.91a.7.69 57.3 0 0-.19.89l5.76 10.14"/><path stroke="#c08555" vector-effect="non-scaling-stroke" d="M170.74 137.73q-4.93-.43-9.72.73c-8.05 1.94-15.74 2.25-23.99 2.01q-.49-.02-.85-.35-5.59-5.14-9.98-11.33-.09-.12-.04-.27.04-.13.05-.31.02-.16-.09-.27-1.41-1.48-2.11-3.47"/><path stroke="#c7924f" vector-effect="non-scaling-stroke" d="m124.01 124.47 3.5 3.79a.15.15 0 0 0 .24-.19l-3.43-5"/><path stroke="#d9a763" vector-effect="non-scaling-stroke" d="M124.32 123.07q3.13 2.77 3.96 3.64 5.21 5.41 11.15 2.58c3.08-1.46 9.06-7.55 10.69-10.62 2.27-4.24 2.14-10.23 2.77-14.97.44-3.31 2.68-5.85 4.01-8.93.79-1.85 2.49-3.13 2.04-5.96q-.07-.45-.41-.76-2.55-2.36-5.48-1.28c-6.31 2.33-13.63 4.7-19.64 2.39-3.36-1.29-7.64-2.39-8.42-6.42M124.32 123.07c-2.95-2.97-4.66-7.52-6.33-10.17q-4.3-6.85-8.67-13.96a1.71 1.71 0 0 0-3.08.37 14.91 14.91 0 0 0-.69 5.6q.6 8.34-.52 16.97"/><path stroke="#c37f48" vector-effect="non-scaling-stroke" d="M105.03 121.88q-2.36-1.47-3.74-1.09"/><path stroke="#dca574" vector-effect="non-scaling-stroke" d="M101.29 120.79q-3.51-.82-6.77.28"/><path stroke="#e8b584" vector-effect="non-scaling-stroke" d="M94.52 121.07q-.28-.16-.94.01"/><path stroke="#ddc49f" vector-effect="non-scaling-stroke" d="M93.58 121.08q-.91-10.36-3.25-19.91"/><path stroke="#dddad5" vector-effect="non-scaling-stroke" d="M83.75 95.9q4.47 4.56 4.96 7.16 2.8 14.96 8.22 57.37c.66 5.22-.04 9.72-6.41 9.33q-24.88-1.53-49.78-2.99-14.04-.83-20.71-.76a.27.27 0 0 0-.05.53c2.8.64 5.84.44 8.46.97q3.57.72 7.21.71c6.71-.03 11.38.26 17.13.65 2.1.14 4.58-.32 6.96.09q4.19.72 5.09.76 15.09.64 30.2 1.45.56.03.46.59-.11.57-1.28.94"/><path stroke="#7f7c79" vector-effect="non-scaling-stroke" d="M94.21 172.7c-9.86.29-20.01-1.02-28.46-1.21"/><path stroke="#d9d7d3" stroke-opacity=".541" vector-effect="non-scaling-stroke" d="m65.75 171.49-46.02-2.85"/><path stroke="#d9bdac" vector-effect="non-scaling-stroke" d="m93.58 121.08 2.37 15.43"/><path stroke="#cdad9b" vector-effect="non-scaling-stroke" d="m95.95 136.51 2.77 19.79"/><path stroke="#c4a190" vector-effect="non-scaling-stroke" d="M98.72 156.3q-.16.72.17 1.25.27.42.77.45l17.56.82"/><path stroke="#b4ada5" vector-effect="non-scaling-stroke" d="M117.22 158.82q.86.25 1.05.59.3.54-.31.63l-5.17.8"/><path stroke="#7e8b8b" vector-effect="non-scaling-stroke" d="m112.79 160.84-13.08-.98q-.51-.04-.43.48.44 2.85-.27 5.66"/><path stroke="#b4ada5" vector-effect="non-scaling-stroke" d="m99.01 166-2.03 2.54q-.44.54.26.56 3.32.12 5.81-.83 11.01-4.19 22.22-8.1"/><path stroke="#716d6a" vector-effect="non-scaling-stroke" d="M125.27 160.17c1.15 1.67.41 3-1.34 3.72-9.02 3.68-19.86 9.54-29.72 8.81"/><path stroke="#c08555" vector-effect="non-scaling-stroke" d="m124.01 124.47-1.35-1.55q-.33-.38-.24.11.24 1.19.93 2.13l-.95-.34"/><path stroke="#b47a3f" vector-effect="non-scaling-stroke" d="M122.4 124.82q-2.08-4-4.27-7.99c-1.05-1.9-1.02-5.56-3.44-6.56"/><path stroke="#b16a34" vector-effect="non-scaling-stroke" d="M114.69 110.27q-.05-1.27-.93-1.79-.62-.36-.64.35l-.51 19.64a.43.43 0 0 1-.84.11q-1.64-5.49-6.74-6.7"/><path stroke="#664334" vector-effect="non-scaling-stroke" d="M200.98 134.09q-.84.06-1.33.69"/><path stroke="#d29a69" vector-effect="non-scaling-stroke" d="M199.65 134.78q-.81-1.51-2.48-.53"/><path stroke="#c38365" vector-effect="non-scaling-stroke" d="M197.17 134.25q-4.91-2.91-9.67 6.17"/><path stroke="#aa5c39" vector-effect="non-scaling-stroke" d="M187.5 140.42c-1.77-3.44.68-3.48 1.77-6.29q.17-.45.59-.69.86-.49 1.37-1.26a.49.48 14.6 0 0-.44-.75q-4.43.34-7.13-2.78a1.83 1.8 21.4 0 1-.42-.94l-.45-3.45a.8.79-3.7 0 0-.79-.69c-4.83-.01-6.57-4.5-8.93-8.96-1.25-2.37-3.33-4.65-4.6-7.34q-1.86-3.93-5.4-5.04"/><path stroke="#c08555" vector-effect="non-scaling-stroke" d="m173.58 113.76.39-.23a.16.16 0 0 0 .06-.22l-.06-.11a8.29.33 60 0 0-4.43-7.02l-.11.06a8.29.33 60 0 0 3.86 7.35l.07.11a.16.16 0 0 0 .22.06"/><path stroke="#c08555" vector-effect="non-scaling-stroke" d="m176.43 118.08-1.71-3.83q-.27-.6-.2.05.44 3.95 3.59 6.32.4.29.21-.16-.43-1.02-1.35-1.71a1.85 1.84-84 0 1-.54-.67"/><path stroke="#b36844" vector-effect="non-scaling-stroke" d="M187.5 140.42q.53 1.63-.1 3.41"/><path stroke="#9e5124" vector-effect="non-scaling-stroke" d="M114.69 110.27q3.27 8.6 6.8 17.09c1.58 3.8.46 8.27 1.73 12.54q.12.42-.32.4l-3.94-.17a.82.8 75.3 0 1-.68-.41q-1.19-2.13-2.59-4.21-.28-.42-.75-.62-2.02-.83-3.14-2.68-.23-.39-.58-.11-1.18.94-.75 2.33"/><path stroke="#aa5c39" vector-effect="non-scaling-stroke" d="m107.61 136.38.72-10.04q.04-.53-.31-.92-2.32-2.54-5.69-3.23"/><path stroke="#b36844" vector-effect="non-scaling-stroke" d="M102.33 122.19c-.48-.07-2.8-.56-1.04-1.4"/><path stroke="#ad6c45" vector-effect="non-scaling-stroke" d="M122.4 124.82q.12 1.18.71 2.23c1.37 2.47.95 4.6 2.02 7.03q1.36 3.1 1.24 6.71"/><path stroke="#b77850" vector-effect="non-scaling-stroke" d="m126.37 140.79-14.88-.53"/><path stroke="#c38365" vector-effect="non-scaling-stroke" d="M102.33 122.19q.01 7.74-2.28 15.08-.17.53.19.95 2.69 3.18 7.01 1.99M126.37 140.79c3.33-.33 12.39.15 12.09 4.53a.85.83 13.1 0 0 .53.83l2.29.91q.31.13.16.42-.83 1.67-1.93 1.79c-4.51.52-8.7 1.37-13.39 1.56-10.03.39-18.8 4.55-27.4 5.47"/><path stroke="#d89e81" vector-effect="non-scaling-stroke" d="M95.95 136.51q-.16-2.28 1.23-3.97.27-.33.35-.74l1.78-9.07a.97.97 0 0 0-.78-1.13q-2.05-.36-4 .39-.58.22-.53-.4.03-.37.52-.52"/><path stroke="#8c8781" vector-effect="non-scaling-stroke" d="M170.74 137.73q.48-.07.49.28"/><path stroke="#c38365" vector-effect="non-scaling-stroke" d="M171.23 138.01q-4.43-.31-5.46 4.02a1.53 1.53 0 0 1-.49.82c-1.37 1.19-2.59 1.66-3.37 3.37q-3.54 7.82.84 12.53"/><path stroke="#814936" vector-effect="non-scaling-stroke" d="m162.75 158.75-8.18.27"/><path stroke="#aa5c39" vector-effect="non-scaling-stroke" d="m154.57 159.02-10.37-.82q-.46-.04-.83-.32c-1.87-1.45-18.33-.36-25.49-.32q-.31 0-.53.22l-.27.27a.23.23 0 0 0 .17.39q.74-.04 1.26.3"/><path stroke="#a9836f" vector-effect="non-scaling-stroke" d="m118.51 158.74-1.29.08"/><path stroke="#c08555" vector-effect="non-scaling-stroke" d="m123.35 125.16 2.55 5.46q.53 1.14.31-.1-.56-3.18-2.86-5.36"/><path stroke="#95928c" vector-effect="non-scaling-stroke" d="M173.22 138.23q-.96.11-1.99-.22"/><path stroke="#dca574" vector-effect="non-scaling-stroke" d="M197.17 134.25q-6.73 3.66-8.69 11"/><path stroke="#7f6643" vector-effect="non-scaling-stroke" d="m199.65 134.78 7.87 4.2"/><path stroke="#dca574" vector-effect="non-scaling-stroke" d="M207.52 138.98q.66 1.16-.91 1.13a.58.56-26 0 1-.34-.11q-3.6-2.43-7.14-2.83"/><path stroke="#d29a69" vector-effect="non-scaling-stroke" d="M199.13 137.17q-1.35-1.72-3.19-.48-5.09 3.39-6.54 9.72"/><path stroke="#704f3f" vector-effect="non-scaling-stroke" d="M208.82 138.86q-.72.26-1.3.12"/><path stroke="#c38365" vector-effect="non-scaling-stroke" d="M199.13 137.17q-7.1 1.73-7.92 7.57-.44 3.19 1.64 4.4"/><path stroke="#814936" vector-effect="non-scaling-stroke" d="M192.85 149.14q-.07 2.83-1.82 3.87-.18.11-.09.31.1.21.08.36"/><path stroke="#a9836f" vector-effect="non-scaling-stroke" d="m191.02 153.68-2.36-.16"/><path stroke="#cdad9b" vector-effect="non-scaling-stroke" d="m222.52 158.77-2.62-.26"/><path stroke="#704f3f" vector-effect="non-scaling-stroke" d="M219.9 158.51q.13-2.65-2.14-.75-.38.32-.86.26-2.13-.25-3.22-2.26"/><path stroke="#8b5541" vector-effect="non-scaling-stroke" d="M213.68 155.76q.64-3.49-1.38-5.46-.49-.47-.47.2l.14 5.26"/><path stroke="#704f3f" vector-effect="non-scaling-stroke" d="M211.97 155.76q-.06 1.01-.71 1.18"/><path stroke="#8b5541" vector-effect="non-scaling-stroke" d="M211.26 156.94c-4.54.34-4.73-3.44-5.9-6.54a.56.56 0 0 0-1.06.05q-1.56 5.85.77 6.18"/><path stroke="#cdad9b" vector-effect="non-scaling-stroke" d="M205.07 156.63q-2.12.51-3.97-.56"/><path stroke="#8b5541" vector-effect="non-scaling-stroke" d="M201.1 156.07c-2.61-2.86-3.77-7.1-8.25-6.93"/><path stroke="#bd8368" stroke-opacity=".541" vector-effect="non-scaling-stroke" d="M208.69 143.04a.38.37 76.1 0 0 .34-.57l-.56-.91a.5.5 0 0 0-.92.26q0 1.15 1.14 1.22"/><path stroke="#b77850" vector-effect="non-scaling-stroke" d="m180.09 149.33-9.17-8.09a.53.53 0 0 0-.88.38q-.03.78.94 1.38 6.82 4.2 8.43 10.99"/><path stroke="#cdad9b" vector-effect="non-scaling-stroke" d="M179.41 153.99q.45.16.56 1.11"/><path stroke="#956d5c" vector-effect="non-scaling-stroke" d="m179.97 155.1-2.72-.38"/><path stroke="#c38365" vector-effect="non-scaling-stroke" d="M177.25 154.72q.18-1.95-1.6-2.22a1.67 1.62-18.4 0 1-.85-.41l-6.11-5.71q-.53-.49-.48.23c.18 2.46 4.72 5.69 6.53 7.27"/><path stroke="#956d5c" vector-effect="non-scaling-stroke" d="M174.74 153.88q1.87 2.5.33 5.21"/><path stroke="#b38e7a" vector-effect="non-scaling-stroke" d="M175.07 159.09q.25.2-.08.32"/><path stroke="#cdad9b" vector-effect="non-scaling-stroke" d="m174.99 159.41-3.5.55"/><path stroke="#8b5541" vector-effect="non-scaling-stroke" d="M171.49 159.96q1.22-.53-.57-2.33-1.19-1.2-2.13.2c-1.7 2.52-3.14 2.93-6.04.92"/><path stroke="#9d785a" vector-effect="non-scaling-stroke" d="M181.74 152.66q-.14.06-.27.12"/><path stroke="#b8967b" vector-effect="non-scaling-stroke" d="M181.47 152.78q-.78-.44-2.06 1.21"/><path stroke="#8b6251" vector-effect="non-scaling-stroke" d="M177.25 154.72q-1.59-.98-2.51-.84"/><path stroke="#8c736c" vector-effect="non-scaling-stroke" d="m201.1 156.07-2.86-.67"/><path stroke="#71554b" vector-effect="non-scaling-stroke" d="m198.24 155.4-7.22-1.72"/><path stroke="#2e1510" vector-effect="non-scaling-stroke" d="m211.26 156.94-.03.92"/><path stroke="#8c736c" vector-effect="non-scaling-stroke" d="m211.23 157.86-6.16-1.23"/><path stroke="#2e1510" vector-effect="non-scaling-stroke" d="M213.68 155.76q-.94-.5-1.71 0"/><path stroke="#b4ada5" vector-effect="non-scaling-stroke" d="M198.24 155.4q-1.82.3-3.38 1.4-.36.26-.79.21l-3.22-.31a.5.49-34.1 0 0-.19.97c5.99 1.71 13.49 2.32 18.46 6.4a.98.97-70.1 0 1 .36.78q-.03 1.38.98 1.13"/><path stroke="#7c9296" vector-effect="non-scaling-stroke" d="m210.46 165.98.49.72"/><path stroke="#564f49" vector-effect="non-scaling-stroke" d="M210.95 166.7q-1.05.63-1.95 2.07M208.73 168.84q-1.9-1.22-4.79-1.52"/><path stroke="#b4ada5" vector-effect="non-scaling-stroke" d="m203.94 167.32 3.49-.73a.77.77 0 0 0-.04-1.51q-2.06-.3-2.94-2.32-.2-.44-.66-.55l-20.62-4.86q-.52-.12-.91.24-1.31 1.23-3.12.89-.48-.09-.83.25-1.27 1.24-3.32.68"/><path stroke="#7b6d66" vector-effect="non-scaling-stroke" d="M175.07 159.09q2.6-.25 3.93-1.62.32-.33.77-.32c.86.02 3.6.26 4.06-.39q.36-.51-.26-.5-1.85.02-2.93-1.23"/><path stroke="#b4ada5" vector-effect="non-scaling-stroke" d="m180.64 155.03 1.02-.83q.45-.36.15-.85l-.34-.57"/><path stroke="#968c87" vector-effect="non-scaling-stroke" d="M180.64 155.03q-.23-.16-.67.07"/><path stroke="#716d6a" vector-effect="non-scaling-stroke" d="m211.23 157.86 8.67.65M242.3 165.48q-.73.11-1.24-.19-.41-.25-.89-.22l-22.66 1.32"/><path stroke="#96b1b7" vector-effect="non-scaling-stroke" d="m217.51 166.39-7.05-.41"/><path stroke="#9f948f" vector-effect="non-scaling-stroke" d="M228.05 161.71c-3.31-.89-16.36-2.7-17.81.35q-.23.48.24.23c4.85-2.57 12.23-.56 17.47-.07a.26.26 0 0 0 .1-.51"/><path stroke="#8c736c" vector-effect="non-scaling-stroke" d="m171.49 159.96-4.46.86"/><path stroke="#71554b" vector-effect="non-scaling-stroke" d="m167.03 160.82-15.41-.98"/><path stroke="#722e15" vector-effect="non-scaling-stroke" d="M151.62 159.84q-1.37-1.17 2.95-.82"/><path stroke="#9a684e" vector-effect="non-scaling-stroke" d="m151.62 159.84-8.43-.16"/><path stroke="#572813" vector-effect="non-scaling-stroke" d="m143.19 159.68-17.95-.13"/><path stroke="#9a684e" vector-effect="non-scaling-stroke" d="m125.24 159.55-6.73-.81"/><path stroke="#716d6a" vector-effect="non-scaling-stroke" d="m203.94 167.32-30.18 3.62"/><path stroke="#7e8b8b" vector-effect="non-scaling-stroke" d="m173.76 170.94-2.52-.32"/><path stroke="#dddad5" vector-effect="non-scaling-stroke" d="M171.24 170.62q2.53-.2 4.55-1.6a.43.43 0 0 0-.13-.77q-4.31-1.16-8.78-1.01a.9.9 0 0 0-.8.56l-.55 1.3"/><path stroke="#7e8b8b" vector-effect="non-scaling-stroke" d="m165.53 169.1-10.05-3.11"/><path stroke="#b4ada5" vector-effect="non-scaling-stroke" d="M155.48 165.99q.08-1.87 2.97-1.13.17.04.22-.12l.1-.3q.14-.39.55-.46 1.56-.27 2.49-1.52.3-.4.79-.43 2.36-.13 4.43-1.21"/><path stroke="#564f49" vector-effect="non-scaling-stroke" d="m125.24 159.55.03.62"/><path stroke="#636c6a" vector-effect="non-scaling-stroke" d="m99.01 166 13.78-5.16"/><path stroke="#564f49" vector-effect="non-scaling-stroke" d="M143.19 159.68q-.94 1.91-1.86 2.62"/><path stroke="#0f0c0b" stroke-opacity=".647" vector-effect="non-scaling-stroke" d="m141.33 162.3-14.6-1.06q-.62-.04-.52.56l.31 1.79q.06.36-.15.66c-1.06 1.56-2.15 1.09-3.42 1.51q-9.48 3.14-18.46 7.43"/><path stroke="#120e0d" stroke-opacity=".541" vector-effect="non-scaling-stroke" d="m100.01 173.73-34.26-2.24"/><path stroke="#636c6a" vector-effect="non-scaling-stroke" d="M155.48 165.99c-2.19-.52-12.41-3.77-13.75-2.93"/><path stroke="#776e66" stroke-opacity=".647" vector-effect="non-scaling-stroke" d="M141.73 163.06q-.57-.26-.4-.76"/><path stroke="#23393e" stroke-opacity=".647" vector-effect="non-scaling-stroke" d="m141.73 163.06 15.08 4.57"/><path stroke="#8c9a9a" vector-effect="non-scaling-stroke" d="m165.53 169.1 5.71 1.52"/><path stroke="#202d2f" vector-effect="non-scaling-stroke" d="M173.76 170.94q-1.28.79-3.04.66"/><path stroke="#39535b" vector-effect="non-scaling-stroke" d="m210.95 166.7 6.56-.31"/></g><path fill="#3f322e" d="M155.42 36.74q.64-4.95-.76-9.97c-1.02-3.63-4.71-8.53-9.09-8.39q-.6.02-.78-.56l-.38-1.29q-.16-.53-.71-.53h-.49l-1.55-3.14c3.35-4.25 10.61 1.68 12.29 4.93q4.79 9.33 3.96 20.08-.05.55.51.52.53-.02.65-.72c2.03-11.08-.56-26.58-15.08-26.94q-2.2-.05-4.53-.18-1.18-1.07-2.67-1.34-.34-.73-1.08-1.21-1.37-1.06-.42-2.49 1.21-1.81 4.84-5.09 5.69-1.18 9.18 4.45.26.41.73.54 6.91 1.89 9.45 8.16c4.32 10.63 2.13 19.46-1.33 31.64q-2.41 8.51-5.29 16.89a.22.22 0 0 1-.43-.1q.33-2.48 1.13-4.85.17-.52.07-1.06c-.09-.49-.23-.61-.06-1.17q2.58-8.84 1.84-18.18z"/><path fill="#5d4c47" d="M140.13.42q-3.63 3.28-4.84 5.09-.95 1.43.42 2.49l-6.15-1.59q1.01-2.16 3.36-3.62l7.21-2.37z"/><path fill="#3f322e" d="M132.92 2.79q-2.35 1.46-3.36 3.62l-2.55.37q-.47.06-.17.44c3.02 3.86 5.84 1.28 8.93 3.56q1.27 2.39 3.62 3.82.44.27.68.73 1.11 2.11 3.15 3.15 3.24 2.44 4 5.8c1.16 5.15 3.18 8.17 1.64 13.79q-1.07 3.11-.7 6.21-.17 3.35-2.35 6.09l-2.74-2.28q1.19-.96-1.04-1.57a.75.75 0 0 0-.85 1.09q.06.1.54.29-3.55.15-5.84 2.28a2.36 2.36 0 0 1-3.77-.78l-3.99-9.1q-.21-.47-.71-.53-1.85-.23-2.91-.92l-9.73-3.38c.8-1.96 3.67-.06 5.18.38A1.6 1.59-82 0 0 122 34.3c-.11-9.51 5.12-12.35 11.7-17.64a1.25 1.25 0 0 0-.91-2.22q-2.28.22-3.81 1.9a.52.52 0 0 1-.82-.06q-1.54-2.32-.32-4.77a.51.51 0 0 0-.42-.74q-1.59-.12-2.88.86-.39.3-.88.38c-3.31.5-1.22-4.1-2.92-3.5l3.09-1.4q.49-.22.66-.73 1.98-5.87 8.43-3.59z"/><path fill="#ebbc77" d="M129.56 6.41 135.71 8q.74.48 1.08 1.21.06 1.23-1.02 1.57c-3.09-2.28-5.91.3-8.93-3.56q-.3-.38.17-.44l2.55-.37z"/><path fill="#5d4c47" d="M120.74 8.51c1.7-.6-.39 4 2.92 3.5q.49-.08.88-.38 1.29-.98 2.88-.86a.51.51 0 0 1 .42.74q-1.22 2.45.32 4.77a.52.52 0 0 0 .82.06q1.53-1.68 3.81-1.9a1.25 1.25 0 0 1 .91 2.22c-6.58 5.29-11.81 8.13-11.7 17.64a1.6 1.59-82 0 1-2.05 1.55c-1.51-.44-4.38-2.34-5.18-.38l-14.42-3.09a2.17 2.17 0 0 0-2.57 1.65l-1.07 4.72-.67-5.52q1.81-2.6 7.89-1.58 3.42.58 7.03.29.53-.05.86-.47 2.13-2.76.82-6.17-.17-.44-.61-.63l-11-4.7c5.16-6.65 10.98-11.12 19.71-11.46z"/><path fill="#c7924f" d="M136.79 9.21q1.49.27 2.67 1.34l2.2 2.31 1.55 3.14q.39 1.31.01 2.48-2.04-1.04-3.15-3.15-.24-.46-.68-.73-2.35-1.43-3.62-3.82 1.08-.34 1.02-1.57z"/><path fill="#130f0e" d="M139.46 10.55q2.33.13 4.53.18c14.52.36 17.11 15.86 15.08 26.94q-.12.7-.65.72-.56.03-.51-.52.83-10.75-3.96-20.08c-1.68-3.25-8.94-9.18-12.29-4.93l-2.2-2.31z"/><path fill="#130f0e" d="M143.21 16h.49q.55 0 .71.53l.38 1.29q.18.58.78.56c4.38-.14 8.07 4.76 9.09 8.39q1.4 5.02.76 9.97l-.33-.87q-.62-1.64-.75.11-.84 11.83-4.72 23.04a1.96 1.94-42.8 0 0-.05 1.11l2.33 9.1a.16.16 0 0 1-.3.12c-.17-.33-1.54-4.38-2.16-4.32q-.48.04-.44.53.04.41-.12.77-.26.57-.42-.03l-2.21-8.34q2.27-3.66-.44-7.59 2.18-2.74 2.35-6.09l.26 7.95q-.43 1.82-.08 3.56.12.57.57.21.67-.54.58-1.72 1.14-8.14-.63-16.21c1.54-5.62-.48-8.64-1.64-13.79q-.76-3.36-4-5.8.38-1.17-.01-2.48z"/><path fill="#6f5d57" d="m101.03 19.97 11 4.7q.44.19.61.63 1.31 3.41-.82 6.17-.33.42-.86.47-3.61.29-7.03-.29-6.08-1.02-7.89 1.58-1.21-6.92 4.99-13.26z"/><path fill="#e4ae91" d="m114.77 35.47 9.73 3.38q-.44 5.95-3.13 10.8-5.44-1.36-9.94-.81a1.42 1.41 1.4 0 0-1.22 1.16c-.49 2.88 9.62 2.39 11.45 2.4q2.97 4.86-.89 5.74c-5.23-8.44-14.37 1.46-5.53 4.08q.41.54.98.55-1.57 3.59-4.47 3.47a2.42 2.42 0 0 1-2.32-2.23q-.2-2.55-1.47-4.77a.53.53 0 0 0-.98.33q.22 1.53-.9 2.49-.38.32-.61.75l-.89 1.63q-.25.46.25.64 3.43 1.26 4.98 4.28c-2.7.36-.07 1.62 1.19 1.3q.53.21.73.55a.54.54 0 0 1-.35.8q-3.07.67-5.88-.58a.83.83 0 0 0-1.11 1.04c.99 2.77 4.45 2.77 6.83 3.15q.51.08.76.54.59 1.1.01 2.79l-3.28.42q-.93-.1-1.67-.67c-6.49-5.79-8.56-12.86-9.48-21.51q1.05.06 1.67.81a1.73 1.73 0 0 0 2.97-.57c.92-2.81-2.91-9.23-5.15-5.29l-1.06-4.95 4.4 2.21a1.13 1.13 0 0 0 1.49-1.56q-1.68-3-5.77-4.15l.6-4.94 1.07-4.72a2.17 2.17 0 0 1 2.57-1.65l14.42 3.09z"/><path fill="#020101" fill-opacity=".082" d="M148.86 38.07q1.77 8.07.63 16.21-1.24.47-1.07-2.05l-.26-7.95q-.37-3.1.7-6.21z"/><path fill="#b9775a" d="M124.5 38.85q1.06.69 2.91.92.5.06.71.53l3.99 9.1a2.36 2.36 0 0 0 3.77.78q2.29-2.13 5.84-2.28l1.35.19 2.74 2.28q2.71 3.93.44 7.59-.8.56-1.23 1.28-2.23 1.91-3.91 2-3.48.61-4.93 4.75-.16.45.04.89l2.45 5.54c3.59 9.33-14.97 12.62-19.55 6.24q-.34-.46-.6.05-.12.25.02.54-.86-.74-1.48-.44-4.2 2.1-8.35.56l3.28-.42q4.34-1.26 7.07-5.92c1.58-2.7 3.49-4.33 3.1-8.2q-.05-.51-.48-.78-2.41-1.53-5.46-1.28-.57-.01-.98-.55 5.52.64 5.53-4.08 3.86-.88.89-5.74.6-.27.61-1.13a1.42 1.37 27.1 0 0-.31-.9l-.59-.72q2.69-4.85 3.13-10.8z"/><path fill="#6f5d57" d="M96.11 43.69q4.09 1.15 5.77 4.15a1.13 1.13 0 0 1-1.49 1.56l-4.4-2.21-1.13-1.61q-.35-.5.11-.91l1.14-.98z"/><path fill="#130f0e" d="m143.07 48.09-1.35-.19q-.48-.19-.54-.29a.75.75 0 0 1 .85-1.09q2.23.61 1.04 1.57z"/><path fill="#5d4c47" d="m121.37 49.65.59.72a1.42 1.37 27.1 0 1 .31.9q-.01.86-.61 1.13c-1.83-.01-11.94.48-11.45-2.4a1.42 1.41 1.4 0 1 1.22-1.16q4.5-.55 9.94.81z"/><path fill="#130f0e" d="M97.56 57.19q-.94-2.71-.51-5.05c2.24-3.94 6.07 2.48 5.15 5.29a1.73 1.73 0 0 1-2.97.57q-.62-.75-1.67-.81zm2.46-4.07q-.02-.19-.01-.37a.5.37 69.4 0 0-.72-.47q-.92 1.63.37 1.33a.46.45-9.3 0 0 .36-.49z"/><path fill="#cecbc6" d="M99.66 53.61q-1.29.3-.37-1.33a.5.37 69.4 0 1 .72.47q-.01.18.01.37a.46.45-9.3 0 1-.36.49z"/><path fill-opacity=".29" d="M148.42 52.23q-.17 2.52 1.07 2.05.09 1.18-.58 1.72-.45.36-.57-.21-.35-1.74.08-3.56z"/><path fill="#130f0e" d="M120.77 58.14q-.01 4.72-5.53 4.08c-8.84-2.62.3-12.52 5.53-4.08zm-6.88-1.2q.52.36.85.02.23-.24.2-.58-.01-.16-.05-.28-.08-.27-.36-.19-.88.25-.79.79a.4.39-77.8 0 0 .15.24z"/><path fill="#cecbc6" d="M113.89 56.94a.4.39-77.8 0 1-.15-.24q-.09-.54.79-.79.28-.08.36.19.04.12.05.28.03.34-.2.58-.33.34-.85-.02z"/><path fill="#cc8e70" d="M116.22 62.77q3.05-.25 5.46 1.28.43.27.48.78c.39 3.87-1.52 5.5-3.1 8.2q-2.73 4.66-7.07 5.92.58-1.69-.01-2.79-.25-.46-.76-.54c-2.38-.38-5.84-.38-6.83-3.15a.83.83 0 0 1 1.11-1.04q2.81 1.25 5.88.58a.54.54 0 0 0 .35-.8q-.2-.34-.73-.55l2.95-1a.44.44 0 0 0-.2-.86l-3.94.56q-1.55-3.02-4.98-4.28-.5-.18-.25-.64l.89-1.63q.23-.43.61-.75 1.12-.96.9-2.49a.53.53 0 0 1 .98-.33q1.27 2.22 1.47 4.77a2.42 2.42 0 0 0 2.32 2.23q2.9.12 4.47-3.47z"/><path fill="#130f0e" d="M145.02 59.24c-.05.99-.35 12.11-2.52 10.37a.77.75 16.4 0 1-.27-.48l-1.12-7.89q1.68-.09 3.91-2z"/><path fill="#b9775a" d="M111 70.66c-1.26.32-3.89-.94-1.19-1.3l3.94-.56a.44.44 0 0 1 .2.86l-2.95 1z"/><path fill="#a1612f" d="M172.15 81.21q-1.33-.27-2.59-1.08-1.48-.95-2.46-1.16c-9.59-2.04-13.83 3.23-21.82 5.71a.13.13 0 0 0 .07.25c1.1-.27 10.97-4.21 11.16-4.14q.39.15 0 .3c-2.91 1.08-5.51 3.03-8.14 3.88-7.07 2.28-14.27 3.57-20.27-1.97q4.93.1 9.33-3.33 3.47-2.71 4.25-7.46 2.98.06 8.82-.46 12.83-1.13 21.65 9.46z"/><path fill="#491b11" d="m138.67 72.42 3.01-.21q-.78 4.75-4.25 7.46-4.4 3.43-9.33 3.33l-3.11-.26q-3.91-.83-6.45-3.49-.14-.29-.02-.54.26-.51.6-.05c4.58 6.38 23.14 3.09 19.55-6.24z"/><path fill="#c7924f" d="M172.15 81.21q10.27 14.34 18.08 30.45c.8 1.65.65 3.08.2 4.72q-2.68 3.85-6.6 6.09-.42.23-.88.13-2.2-.48-3.21-1.86-1.5-2.02-5.96-9.25c-.76-1.25-1.15-3.09-2.48-4.33q-.36-.33-.53-.77-1.72-4.31-6.11-5.76a.83.83 0 0 0-.89.26q-.48.56-.7 1.34c-2.54.38 4.12 19.26 5.16 22.11l2.53 9.01q-2.23-2.64-3.59-5.74c-.38-.87-1.08-1.6-2-.91a.7.69 57.3 0 0-.19.89l5.76 10.14q-4.93-.43-9.72.73c-8.05 1.94-15.74 2.25-23.99 2.01q-.49-.02-.85-.35-5.59-5.14-9.98-11.33-.09-.12-.04-.27.04-.13.05-.31.02-.16-.09-.27-1.41-1.48-2.11-3.47l3.5 3.79a.15.15 0 0 0 .24-.19l-3.43-5q3.13 2.77 3.96 3.64 5.21 5.41 11.15 2.58c3.08-1.46 9.06-7.55 10.69-10.62 2.27-4.24 2.14-10.23 2.77-14.97.44-3.31 2.68-5.85 4.01-8.93.79-1.85 2.49-3.13 2.04-5.96q-.07-.45-.41-.76-2.55-2.36-5.48-1.28c-6.31 2.33-13.63 4.7-19.64 2.39-3.36-1.29-7.64-2.39-8.42-6.42l3.11.26c6 5.54 13.2 4.25 20.27 1.97 2.63-.85 5.23-2.8 8.14-3.88q.39-.15 0-.3c-.19-.07-10.06 3.87-11.16 4.14a.13.13 0 0 1-.07-.25c7.99-2.48 12.23-7.75 21.82-5.71q.98.21 2.46 1.16 1.26.81 2.59 1.08z"/><path fill="#ebbc77" d="M107.04 78.7q.74.57 1.67.67 4.15 1.54 8.35-.56.62-.3 1.48.44 2.54 2.66 6.45 3.49c.78 4.03 5.06 5.13 8.42 6.42 6.01 2.31 13.33-.06 19.64-2.39q2.93-1.08 5.48 1.28.34.31.41.76c.45 2.83-1.25 4.11-2.04 5.96-1.33 3.08-3.57 5.62-4.01 8.93-.63 4.74-.5 10.73-2.77 14.97-1.63 3.07-7.61 9.16-10.69 10.62q-5.94 2.83-11.15-2.58-.83-.87-3.96-3.64c-2.95-2.97-4.66-7.52-6.33-10.17q-4.3-6.85-8.67-13.96a1.71 1.71 0 0 0-3.08.37 14.91 14.91 0 0 0-.69 5.6q.6 8.34-.52 16.97-2.36-1.47-3.74-1.09-3.51-.82-6.77.28-.28-.16-.94.01-.91-10.36-3.25-19.91.42-.23.5-.6 3.2-14.82 16.21-21.87z"/><path fill="#ebe9e4" d="M83.75 95.9q4.47 4.56 4.96 7.16 2.8 14.96 8.22 57.37c.66 5.22-.04 9.72-6.41 9.33q-24.88-1.53-49.78-2.99-14.04-.83-20.71-.76a.27.27 0 0 0-.05.53c2.8.64 5.84.44 8.46.97q3.57.72 7.21.71c6.71-.03 11.38.26 17.13.65 2.1.14 4.58-.32 6.96.09q4.19.72 5.09.76 15.09.64 30.2 1.45.56.03.46.59-.11.57-1.28.94c-9.86.29-20.01-1.02-28.46-1.21l-46.02-2.85q-2.64-.52-2.91-2.76a1.01 1 9.8 0 0-.54-.76q-4.64-2.33-5.52-6.87Q5.35 130.6 0 102.93v-.74c.85-5.18 4.18-6.75 9.31-6.73q37.56.12 74.44.44z"/><path fill="#cecbc6" d="M83.75 95.9q4.26 1.65 6.58 5.27 2.34 9.55 3.25 19.91l2.37 15.43 2.77 19.79q-.16.72.17 1.25.27.42.77.45l17.56.82q.86.25 1.05.59.3.54-.31.63l-5.17.8-13.08-.98q-.51-.04-.43.48.44 2.85-.27 5.66l-2.03 2.54q-.44.54.26.56 3.32.12 5.81-.83 11.01-4.19 22.22-8.1c1.15 1.67.41 3-1.34 3.72-9.02 3.68-19.86 9.54-29.72 8.81q1.17-.37 1.28-.94.1-.56-.46-.59-15.11-.81-30.2-1.45-.9-.04-5.09-.76c-2.38-.41-4.86.05-6.96-.09-5.75-.39-10.42-.68-17.13-.65q-3.64.01-7.21-.71c-2.62-.53-5.66-.33-8.46-.97a.27.27 0 0 1 .05-.53q6.67-.07 20.71.76 24.9 1.46 49.78 2.99c6.37.39 7.07-4.11 6.41-9.33q-5.42-42.41-8.22-57.37-.49-2.6-4.96-7.16z"/><path fill="#c7924f" d="m124.32 123.07 3.43 5a.15.15 0 0 1-.24.19l-3.5-3.79-1.35-1.55q-.33-.38-.24.11.24 1.19.93 2.13l-.95-.34q-2.08-4-4.27-7.99c-1.05-1.9-1.02-5.56-3.44-6.56q-.05-1.27-.93-1.79-.62-.36-.64.35l-.51 19.64a.43.43 0 0 1-.84.11q-1.64-5.49-6.74-6.7 1.12-8.63.52-16.97c-.14-1.93.14-3.94.69-5.6a1.71 1.71 0 0 1 3.08-.37q4.37 7.11 8.67 13.96c1.67 2.65 3.38 7.2 6.33 10.17z"/><path fill="#b9775a" d="m190.43 116.38 10.55 17.71q-.84.06-1.33.69-.81-1.51-2.48-.53-4.91-2.91-9.67 6.17c-1.77-3.44.68-3.48 1.77-6.29q.17-.45.59-.69.86-.49 1.37-1.26a.49.48 14.6 0 0-.44-.75q-4.43.34-7.13-2.78a1.83 1.8 21.4 0 1-.42-.94l-.45-3.45a.8.79-3.7 0 0-.79-.69c-4.83-.01-6.57-4.5-8.93-8.96-1.25-2.37-3.33-4.65-4.6-7.34q-1.86-3.93-5.4-5.04.22-.78.7-1.34a.83.83 0 0 1 .89-.26q4.39 1.45 6.11 5.76.17.44.53.77c1.33 1.24 1.72 3.08 2.48 4.33q4.46 7.23 5.96 9.25 1.01 1.38 3.21 1.86.46.1.88-.13 3.92-2.24 6.6-6.09zm-16.85-2.62.39-.23a.16.16 0 0 0 .06-.22l-.06-.11a8.29.33 60 0 0-4.43-7.02l-.11.06a8.29.33 60 0 0 3.86 7.35l.07.11a.16.16 0 0 0 .22.06zm2.85 4.32-1.71-3.83q-.27-.6-.2.05.44 3.95 3.59 6.32.4.29.21-.16-.43-1.02-1.35-1.71a1.85 1.84-84 0 1-.54-.67z"/><path fill="#9a4118" d="M163.07 102.23q3.54 1.11 5.4 5.04c1.27 2.69 3.35 4.97 4.6 7.34 2.36 4.46 4.1 8.95 8.93 8.96a.8.79-3.7 0 1 .79.69l.45 3.45a1.83 1.8 21.4 0 0 .42.94q2.7 3.12 7.13 2.78a.49.48 14.6 0 1 .44.75q-.51.77-1.37 1.26-.42.24-.59.69c-1.09 2.81-3.54 2.85-1.77 6.29q.53 1.63-.1 3.41l-11-17.7q-.27-.44-.79-.53l-7.38-1.26c-1.04-2.85-7.7-21.73-5.16-22.11z"/><path fill="#c7924f" d="M173.58 113.76a.16.16 0 0 1-.22-.06l-.07-.11a8.29.33 60 0 1-3.86-7.35l.11-.06a8.29.33 60 0 1 4.43 7.02l.06.11a.16.16 0 0 1-.06.22l-.39.23z"/><path fill="#9a4118" d="M114.69 110.27q3.27 8.6 6.8 17.09c1.58 3.8.46 8.27 1.73 12.54q.12.42-.32.4l-3.94-.17a.82.8 75.3 0 1-.68-.41q-1.19-2.13-2.59-4.21-.28-.42-.75-.62-2.02-.83-3.14-2.68-.23-.39-.58-.11-1.18.94-.75 2.33l-2.86 1.95.72-10.04q.04-.53-.31-.92-2.32-2.54-5.69-3.23c-.48-.07-2.8-.56-1.04-1.4q1.38-.38 3.74 1.09 5.1 1.21 6.74 6.7a.43.43 0 0 0 .84-.11l.51-19.64q.02-.71.64-.35.88.52.93 1.79z"/><path fill="#a1612f" d="M114.69 110.27c2.42 1 2.39 4.66 3.44 6.56q2.19 3.99 4.27 7.99.12 1.18.71 2.23c1.37 2.47.95 4.6 2.02 7.03q1.36 3.1 1.24 6.71l-14.88-.53-1.02-5.83q-.43-1.39.75-2.33.35-.28.58.11 1.12 1.85 3.14 2.68.47.2.75.62 1.4 2.08 2.59 4.21a.82.8 75.3 0 0 .68.41l3.94.17q.44.02.32-.4c-1.27-4.27-.15-8.74-1.73-12.54q-3.53-8.49-6.8-17.09z"/><path fill="#c7924f" d="M176.97 118.75q.92.69 1.35 1.71.19.45-.21.16-3.15-2.37-3.59-6.32-.07-.65.2-.05l1.71 3.83a1.85 1.84-84 0 0 .54.67z"/><path fill="#cc8e70" d="M101.29 120.79c-1.76.84.56 1.33 1.04 1.4q.01 7.74-2.28 15.08-.17.53.19.95 2.69 3.18 7.01 1.99l4.24.05 14.88.53c3.33-.33 12.39.15 12.09 4.53a.85.83 13.1 0 0 .53.83l2.29.91q.31.13.16.42-.83 1.67-1.93 1.79c-4.51.52-8.7 1.37-13.39 1.56-10.03.39-18.8 4.55-27.4 5.47l-2.77-19.79q-.16-2.28 1.23-3.97.27-.33.35-.74l1.78-9.07a.97.97 0 0 0-.78-1.13q-2.05-.36-4 .39-.58.22-.53-.4.03-.37.52-.52 3.26-1.1 6.77-.28z"/><path fill="#e4ae91" d="M93.58 121.08q.66-.17.94-.01-.49.15-.52.52-.05.62.53.4 1.95-.75 4-.39a.97.97 0 0 1 .78 1.13l-1.78 9.07q-.08.41-.35.74-1.39 1.69-1.23 3.97l-2.37-15.43z"/><path fill="#b9775a" d="M102.33 122.19q3.37.69 5.69 3.23.35.39.31.92l-.72 10.04q-.68 1.52-.36 3.83-4.32 1.19-7.01-1.99-.36-.42-.19-.95 2.29-7.34 2.28-15.08zM124.01 124.47q.7 1.99 2.11 3.47.11.11.09.27-.01.18-.05.31-.05.15.04.27 4.39 6.19 9.98 11.33.36.33.85.35c8.25.24 15.94-.07 23.99-2.01q4.79-1.16 9.72-.73.48-.07.49.28-4.43-.31-5.46 4.02a1.53 1.53 0 0 1-.49.82c-1.37 1.19-2.59 1.66-3.37 3.37q-3.54 7.82.84 12.53l-8.18.27-10.37-.82q-.46-.04-.83-.32c-1.87-1.45-18.33-.36-25.49-.32q-.31 0-.53.22l-.27.27a.23.23 0 0 0 .17.39q.74-.04 1.26.3l-1.29.08-17.56-.82q-.5-.03-.77-.45-.33-.53-.17-1.25c8.6-.92 17.37-5.08 27.4-5.47 4.69-.19 8.88-1.04 13.39-1.56q1.1-.12 1.93-1.79.15-.29-.16-.42l-2.29-.91a.85.83 13.1 0 1-.53-.83c.3-4.38-8.76-4.86-12.09-4.53q.12-3.61-1.24-6.71c-1.07-2.43-.65-4.56-2.02-7.03q-.59-1.05-.71-2.23l.95.34 2.55 5.46q.53 1.14.31-.1-.56-3.18-2.86-5.36-.69-.94-.93-2.13-.09-.49.24-.11l1.35 1.55z"/><path fill="#c7924f" d="M123.35 125.16q2.3 2.18 2.86 5.36.22 1.24-.31.1l-2.55-5.46z"/><path fill="#5e96a7" d="m170.76 133.35 2.46 4.88q-.96.11-1.99-.22-.01-.35-.49-.28l-5.76-10.14a.7.69 57.3 0 1 .19-.89c.92-.69 1.62.04 2 .91q1.36 3.1 3.59 5.74z"/><path fill="#cc8e70" d="M197.17 134.25q-6.73 3.66-8.69 11l-1.08-1.42q.63-1.78.1-3.41 4.76-9.08 9.67-6.17z"/><path fill="#ebbc77" d="m199.65 134.78 7.87 4.2q.66 1.16-.91 1.13a.58.56-26 0 1-.34-.11q-3.6-2.43-7.14-2.83-1.35-1.72-3.19-.48-5.09 3.39-6.54 9.72l-.92-1.16q1.96-7.34 8.69-11 1.67-.98 2.48.53z"/><path fill="#130f0e" d="m200.98 134.09 7.84 4.77q-.72.26-1.3.12l-7.87-4.2q.49-.63 1.33-.69z"/><path fill="#b9775a" d="M199.13 137.17q-7.1 1.73-7.92 7.57-.44 3.19 1.64 4.4-.07 2.83-1.82 3.87-.18.11-.09.31.1.21.08.36l-2.36-.16q2.44-4.85.74-7.11 1.45-6.33 6.54-9.72 1.84-1.24 3.19.48z"/><path fill="#cc8e70" d="M199.13 137.17q3.54.4 7.14 2.83a.58.56-26 0 0 .34.11q1.57.03.91-1.13.58.14 1.3-.12 1.38 2.27 1.34 4.88-.01.51.43.77c3.8 2.31 5.86 4.35 8.82 6.05 3.33 1.9 5.88 4.04 3.11 8.21l-2.62-.26q.13-2.65-2.14-.75-.38.32-.86.26-2.13-.25-3.22-2.26.64-3.49-1.38-5.46-.49-.47-.47.2l.14 5.26q-.06 1.01-.71 1.18c-4.54.34-4.73-3.44-5.9-6.54a.56.56 0 0 0-1.06.05q-1.56 5.85.77 6.18-2.12.51-3.97-.56c-2.61-2.86-3.77-7.1-8.25-6.93q-2.08-1.21-1.64-4.4.82-5.84 7.92-7.57zm9.56 5.87a.38.37 76.1 0 0 .34-.57l-.56-.91a.5.5 0 0 0-.92.26q0 1.15 1.14 1.22zM171.23 138.01q1.03.33 1.99.22c3.43 1.59 9.87 6.68 6.87 11.1l-9.17-8.09a.53.53 0 0 0-.88.38q-.03.78.94 1.38 6.82 4.2 8.43 10.99.45.16.56 1.11l-2.72-.38q.18-1.95-1.6-2.22a1.67 1.62-18.4 0 1-.85-.41l-6.11-5.71q-.53-.49-.48.23c.18 2.46 4.72 5.69 6.53 7.27q1.87 2.5.33 5.21.25.2-.08.32l-3.5.55q1.22-.53-.57-2.33-1.19-1.2-2.13.2c-1.7 2.52-3.14 2.93-6.04.92q-4.38-4.71-.84-12.53c.78-1.71 2-2.18 3.37-3.37a1.53 1.53 0 0 0 .49-.82q1.03-4.33 5.46-4.02z"/><path fill="#a1612f" d="M180.09 149.33q-.6 1.54 1.65 3.33-.14.06-.27.12-.78-.44-2.06 1.21-1.61-6.79-8.43-10.99-.97-.6-.94-1.38a.53.53 0 0 1 .88-.38l9.17 8.09z"/><path fill="#020101" fill-opacity=".082" d="M208.69 143.04q-1.14-.07-1.14-1.22a.5.5 0 0 1 .92-.26l.56.91a.38.37 76.1 0 1-.34.57z"/><path fill="#b9775a" d="M177.25 154.72q-1.59-.98-2.51-.84c-1.81-1.58-6.35-4.81-6.53-7.27q-.05-.72.48-.23l6.11 5.71a1.67 1.62-18.4 0 0 .85.41q1.78.27 1.6 2.22z"/><path fill="#491b11" d="m201.1 156.07-2.86-.67-7.22-1.72q.02-.15-.08-.36-.09-.2.09-.31 1.75-1.04 1.82-3.87c4.48-.17 5.64 4.07 8.25 6.93zM211.26 156.94l-.03.92-6.16-1.23q-2.33-.33-.77-6.18a.56.56 0 0 1 1.06-.05c1.17 3.1 1.36 6.88 5.9 6.54zM213.68 155.76q-.94-.5-1.71 0l-.14-5.26q-.02-.67.47-.2 2.02 1.97 1.38 5.46z"/><path fill="#998e84" d="m188.66 153.52 2.36.16 7.22 1.72q-1.82.3-3.38 1.4-.36.26-.79.21l-3.22-.31a.5.49-34.1 0 0-.19.97c5.99 1.71 13.49 2.32 18.46 6.4a.98.97-70.1 0 1 .36.78q-.03 1.38.98 1.13l.49.72q-1.05.63-1.95 2.07-.14.04-.27.07-1.9-1.22-4.79-1.52l3.49-.73a.77.77 0 0 0-.04-1.51q-2.06-.3-2.94-2.32-.2-.44-.66-.55l-20.62-4.86q-.52-.12-.91.24-1.31 1.23-3.12.89-.48-.09-.83.25-1.27 1.24-3.32.68.33-.12.08-.32 2.6-.25 3.93-1.62.32-.33.77-.32c.86.02 3.6.26 4.06-.39q.36-.51-.26-.5-1.85.02-2.93-1.23l1.02-.83q.45-.36.15-.85l-.34-.57q.13-.06.27-.12l6.92.86z"/><path fill="#cecbc6" d="m181.47 152.78.34.57q.3.49-.15.85l-1.02.83q-.23-.16-.67.07-.11-.95-.56-1.11 1.28-1.65 2.06-1.21z"/><path fill="#5d4c47" d="m177.25 154.72 2.72.38q.44-.23.67-.07 1.08 1.25 2.93 1.23.62-.01.26.5c-.46.65-3.2.41-4.06.39q-.45-.01-.77.32-1.33 1.37-3.93 1.62 1.54-2.71-.33-5.21.92-.14 2.51.84z"/><path fill="#cecbc6" d="m198.24 155.4 2.86.67q1.85 1.07 3.97.56l6.16 1.23 8.67.65 2.62.26q13 2.35 16.98 3.48 1.77.5 2.8 3.23-.73.11-1.24-.19-.41-.25-.89-.22l-22.66 1.32-7.05-.41q-1.01.25-.98-1.13a.98.97-70.1 0 0-.36-.78c-4.97-4.08-12.47-4.69-18.46-6.4a.5.49-34.1 0 1 .19-.97l3.22.31q.43.05.79-.21 1.56-1.1 3.38-1.4zm29.81 6.31c-3.31-.89-16.36-2.7-17.81.35q-.23.48.24.23c4.85-2.57 12.23-.56 17.47-.07a.26.26 0 0 0 .1-.51z"/><path fill="#130f0e" d="M213.68 155.76q1.09 2.01 3.22 2.26.48.06.86-.26 2.27-1.9 2.14.75l-8.67-.65.03-.92q.65-.17.71-1.18.77-.5 1.71 0z"/><path fill="#491b11" d="m171.49 159.96-4.46.86-15.41-.98q-1.37-1.17 2.95-.82l8.18-.27c2.9 2.01 4.34 1.6 6.04-.92q.94-1.4 2.13-.2 1.79 1.8.57 2.33z"/><path fill="#9a4118" d="M154.57 159.02q-4.32-.35-2.95.82l-8.43-.16-17.95-.13-6.73-.81q-.52-.34-1.26-.3a.23.23 0 0 1-.17-.39l.27-.27q.22-.22.53-.22c7.16-.04 23.62-1.13 25.49.32q.37.28.83.32l10.37.82z"/><path fill="#cecbc6" d="m203.94 167.32-30.18 3.62-2.52-.32q2.53-.2 4.55-1.6a.43.43 0 0 0-.13-.77q-4.31-1.16-8.78-1.01a.9.9 0 0 0-.8.56l-.55 1.3-10.05-3.11q.08-1.87 2.97-1.13.17.04.22-.12l.1-.3q.14-.39.55-.46 1.56-.27 2.49-1.52.3-.4.79-.43 2.36-.13 4.43-1.21l4.46-.86 3.5-.55q2.05.56 3.32-.68.35-.34.83-.25 1.81.34 3.12-.89.39-.36.91-.24l20.62 4.86q.46.11.66.55.88 2.02 2.94 2.32a.77.77 0 0 1 .04 1.51l-3.49.73z"/><path fill="#998e84" d="m117.22 158.82 1.29-.08 6.73.81.03.62q-11.21 3.91-22.22 8.1-2.49.95-5.81.83-.7-.02-.26-.56l2.03-2.54 13.78-5.16 5.17-.8q.61-.09.31-.63-.19-.34-1.05-.59z"/><path fill="#130f0e" d="M143.19 159.68q-.94 1.91-1.86 2.62l-14.6-1.06q-.62-.04-.52.56l.31 1.79q.06.36-.15.66c-1.06 1.56-2.15 1.09-3.42 1.51q-9.48 3.14-18.46 7.43l-4.48.54-34.26-2.24c8.45.19 18.6 1.5 28.46 1.21 9.86.73 20.7-5.13 29.72-8.81 1.75-.72 2.49-2.05 1.34-3.72l-.03-.62 17.95.13z"/><path fill="#2d4a50" d="M112.79 160.84 99.01 166q.71-2.81.27-5.66-.08-.52.43-.48l13.08.98z"/><path fill="#998e84" d="m143.19 159.68 8.43.16 15.41.98q-2.07 1.08-4.43 1.21-.49.03-.79.43-.93 1.25-2.49 1.52-.41.07-.55.46l-.1.3q-.05.16-.22.12-2.89-.74-2.97 1.13c-2.19-.52-12.41-3.77-13.75-2.93q-.57-.26-.4-.76.92-.71 1.86-2.62z"/><path fill="#6f5d57" d="M228.05 161.71a.26.26 0 0 1-.1.51c-5.24-.49-12.62-2.5-17.47.07q-.47.25-.24-.23c1.45-3.05 14.5-1.24 17.81-.35z"/><path fill-opacity=".29" d="M141.33 162.3q-.17.5.4.76l15.08 4.57-1.52.21a.45.45 0 0 0-.12.85l1.32.61a.27.27 0 0 1-.1.51q-1.74.12-4.4-1.02-2.02-.85-6.9-1.03c-2.98-.11-5.33 1.53-8.81.88a1.17 1.15 32 0 0-.89.2q-1.92 1.39-4.36.8a.82.82 0 0 0-.76.22l-.32.31q-.37.37-.9.33c-2.35-.23-4.44.95-6.06 1.28q-9.11 1.85-18.5 1.41 8.98-4.29 18.46-7.43c1.27-.42 2.36.05 3.42-1.51q.21-.3.15-.66l-.31-1.79q-.1-.6.52-.56l14.6 1.06z"/><path fill="#2d4a50" d="m155.48 165.99 10.05 3.11 5.71 1.52 2.52.32q-1.28.79-3.04.66l-13.91-3.97-15.08-4.57c1.34-.84 11.56 2.41 13.75 2.93z"/><path fill="#130f0e" d="M242.3 165.48c-.6 1.15-29.77 3.04-33.3 3.29q.9-1.44 1.95-2.07l6.56-.31 22.66-1.32q.48-.03.89.22.51.3 1.24.19z"/><path fill="#5e96a7" d="m217.51 166.39-6.56.31-.49-.72 7.05.41z"/><path fill="#ebe9e4" d="m171.24 170.62-5.71-1.52.55-1.3a.9.9 0 0 1 .8-.56q4.47-.15 8.78 1.01a.43.43 0 0 1 .13.77q-2.02 1.4-4.55 1.6z"/><path fill="#130f0e" d="M203.94 167.32q2.89.3 4.79 1.52-16.14 1.39-32.31 3.02c-1.94.19-3.8-.04-5.7-.26q1.76.13 3.04-.66l30.18-3.62z"/><path fill="#020101" fill-opacity=".082" d="m19.73 168.64 46.02 2.85 34.26 2.24-15.83-.07q-.54 0-.13.34 2.43 2.04 5.51 1.64a.58.57-7.1 0 1 .64.49c.14 1.1-40.91.71-41.94.66q-.3-.02-.24-.32.04-.19.15-.34.04-.07-.04-.08l-3.61-.38q-.47-.05-.74-.43-.31-.45-.71.03-.36.44-.89.22c-.76-.3-1.5-.82-2.32-.8q-7.53.16-15.04-.03-.51-.01-.77-.45-.47-.81-1.56-.42a.36.29 8.3 0 1-.43-.47q.11-.11.21-.22a.11.11 0 0 0-.07-.19l-3.36-.33q-.5-.05-.33-.52l1.22-3.42z"/></svg>