<?xml version="1.0" encoding="UTF-8" standalone="no"?>
<!DOCTYPE svg PUBLIC "-//W3C//DTD SVG 1.1//EN" "http://www.w3.org/Graphics/SVG/1.1/DTD/svg11.dtd">
<svg xmlns="http://www.w3.org/2000/svg" version="1.1" viewBox="0.00 0.00 581.00 159.00">
<g stroke-width="2.00" fill="none" stroke-linecap="butt">
<path stroke="#eaf5ec" vector-effect="non-scaling-stroke" d="
  M 156.13 0.00
  L 154.93 0.45
  Q 154.53 0.61 154.34 0.99
  Q 153.89 1.92 154.52 2.75
  A 0.76 0.75 48.8 0 1 154.46 3.73
  Q 153.26 4.99 153.07 6.79
  A 0.58 0.58 0.0 0 1 152.74 7.26
  Q 152.62 7.31 152.50 7.35
  Q 152.31 7.40 152.45 7.54
  L 152.78 7.87
  A 0.38 0.38 0.0 0 1 152.37 8.50
  Q 149.77 7.48 147.85 9.81
  A 0.84 0.69 -20.7 0 0 147.74 10.00
  Q 147.48 10.64 146.59 10.52
  Q 146.03 10.45 146.07 9.88
  L 146.15 8.73
  A 0.43 0.43 0.0 0 0 145.46 8.35
  L 145.06 8.65
  Q 144.47 9.09 143.90 8.61
  Q 142.77 7.67 143.30 6.47
  Q 143.52 5.95 143.08 5.62
  Q 140.85 3.96 138.05 4.20
  C 137.09 4.28 136.52 4.90 135.21 4.48
  Q 134.77 4.34 134.40 4.62
  Q 133.43 5.39 131.76 3.21
  A 0.19 0.18 46.0 0 0 131.48 3.20
  Q 130.89 3.87 130.14 3.58
  Q 129.90 3.48 129.64 3.44
  Q 127.77 3.12 126.21 3.88
  A 0.26 0.26 0.0 0 0 126.19 4.33
  L 126.63 4.61
  A 0.09 0.08 6.3 0 0 126.76 4.51
  Q 126.64 4.25 126.89 4.14
  Q 128.12 3.60 128.30 5.01
  A 0.60 0.59 0.0 0 1 127.63 5.67
  L 125.49 5.41
  A 0.13 0.13 0.0 0 0 125.38 5.63
  L 125.63 5.88
  Q 126.12 6.37 126.61 5.89
  Q 127.11 5.41 127.68 5.82
  Q 128.10 6.12 127.68 6.43
  L 126.12 7.58
  Q 125.77 7.83 125.90 8.24
  Q 126.16 8.98 125.87 9.68
  A 1.54 1.54 0.0 0 0 127.21 11.81
  L 136.57 12.33
  Q 137.12 12.36 137.49 11.97
  Q 137.89 11.55 138.58 11.63
  Q 138.97 11.67 138.71 11.97
  Q 138.52 12.21 138.28 12.16
  A 0.02 0.01 47.7 0 1 138.28 12.13
  L 139.00 12.13
  Q 139.08 12.13 139.03 12.04
  Q 138.99 11.98 138.99 11.90
  Q 138.99 11.65 139.26 11.68
  Q 140.10 11.76 140.40 12.60
  Q 140.76 13.62 140.52 13.74
  Q 140.18 13.93 140.64 14.13
  Q 141.12 14.34 141.19 14.86
  Q 141.33 15.85 141.46 16.79
  Q 141.53 17.28 141.81 17.69
  Q 142.59 18.81 141.90 20.24"
/>
<path stroke="#75aca6" vector-effect="non-scaling-stroke" d="
  M 141.90 20.24
  L 139.52 13.47
  Q 139.34 12.97 138.82 12.98
  L 119.16 13.06
  A 1.53 1.53 0.0 0 0 117.72 14.08
  L 91.23 87.44
  A 0.52 0.52 0.0 0 0 91.72 88.14
  L 109.11 88.18
  Q 109.70 88.18 109.94 87.63
  L 111.29 84.42"
/>
<path stroke="#eaf5ec" vector-effect="non-scaling-stroke" d="
  M 111.29 84.42
  Q 111.94 87.05 110.83 88.99
  Q 110.60 89.39 110.67 89.84
  Q 111.15 92.63 108.61 94.95
  Q 108.13 95.39 107.48 95.29
  Q 104.86 94.88 103.22 96.24
  A 0.48 0.48 0.0 0 0 103.41 97.08
  L 103.80 97.18
  A 0.31 0.31 0.0 0 1 103.95 97.70
  L 103.09 98.60
  Q 102.76 98.95 103.24 98.92
  L 106.15 98.77
  Q 106.37 98.76 106.37 98.98
  L 106.37 99.25
  A 0.35 0.35 0.0 0 0 106.81 99.59
  L 107.65 99.39
  A 0.32 0.32 0.0 0 1 107.98 99.89
  Q 106.65 101.63 104.56 101.72
  A 0.46 0.46 0.0 0 0 104.25 102.51
  L 104.43 102.69
  Q 104.99 103.24 104.42 103.78
  L 102.75 105.37
  Q 102.41 105.70 102.29 106.16
  Q 101.88 107.66 102.65 108.94
  Q 102.93 109.41 102.67 109.89
  Q 100.72 113.39 102.98 116.35
  A 0.40 0.39 56.8 0 1 102.86 116.93
  Q 102.65 117.05 102.50 117.11
  Q 102.08 117.28 101.94 117.70
  Q 101.64 118.61 102.37 118.95
  Q 102.94 119.21 103.28 119.73
  L 104.51 121.59
  Q 104.61 121.75 104.65 121.56
  Q 104.69 121.37 104.78 121.20
  Q 104.90 120.99 105.07 121.16
  L 105.39 121.49
  Q 105.41 121.51 105.41 121.48
  L 105.25 120.80
  Q 105.21 120.64 105.37 120.64
  L 105.77 120.63
  Q 106.29 120.62 106.31 121.14
  L 106.37 122.36
  A 0.09 0.08 -16.1 0 0 106.50 122.43
  L 106.93 122.16
  Q 107.20 121.98 107.29 122.29
  L 107.36 122.56
  A 0.35 0.35 0.0 0 0 108.04 122.56
  L 108.87 119.39
  Q 108.99 118.93 109.46 119.00
  L 115.38 119.85
  A 0.63 0.63 0.0 0 1 115.88 120.68
  L 115.44 121.96
  Q 115.29 122.39 114.84 122.39
  L 113.48 122.39
  Q 113.25 122.38 113.22 122.61
  L 113.15 123.04
  Q 113.12 123.24 112.91 123.26
  L 112.02 123.31
  Q 111.25 123.35 111.67 124.00
  Q 112.12 124.71 111.45 125.08
  A 0.32 0.32 0.0 0 0 111.68 125.67
  Q 112.54 125.46 113.37 125.39
  Q 113.79 125.36 114.18 125.21
  Q 115.17 124.81 115.78 125.49
  Q 116.17 125.92 116.73 125.75
  Q 118.40 125.25 119.99 126.03
  A 0.26 0.26 0.0 0 1 119.99 126.49
  Q 119.87 126.55 119.75 126.60
  Q 119.65 126.65 119.80 126.64
  Q 119.90 126.63 119.98 126.57
  Q 121.36 125.65 123.08 125.79
  Q 124.29 125.88 124.01 127.09"
/>
<path stroke="#b7cabf" vector-effect="non-scaling-stroke" d="
  M 124.01 127.09
  C 114.91 126.03 112.91 135.13 116.31 141.54"
/>
<path stroke="#eaf5ec" vector-effect="non-scaling-stroke" d="
  M 116.31 141.54
  Q 115.29 141.23 114.89 140.37
  Q 114.65 139.86 114.18 140.16
  L 113.92 140.33
  A 0.29 0.28 72.3 0 0 113.79 140.59
  L 113.82 140.87
  A 0.18 0.17 25.5 0 1 113.50 140.98
  L 113.10 140.43
  A 0.39 0.39 0.0 0 0 112.39 140.66
  Q 112.41 141.43 111.89 141.60
  Q 110.62 142.02 110.03 142.73
  Q 109.73 143.08 109.29 143.19
  L 107.32 143.67"
/>
<path stroke="#b7cabf" vector-effect="non-scaling-stroke" d="
  M 107.32 143.67
  L 110.56 141.72
  A 1.51 1.51 0.0 0 0 109.89 138.92
  C 108.40 138.81 107.21 140.39 105.74 140.66
  Q 101.60 141.42 100.83 137.01
  A 0.65 0.65 0.0 0 1 101.48 136.25
  L 110.24 136.38
  Q 111.80 136.40 111.77 134.84
  Q 111.69 128.92 106.75 127.31
  Q 103.33 126.19 100.47 128.02
  C 95.98 130.89 96.21 137.30 98.46 141.58"
/>
<path stroke="#eaf5ec" vector-effect="non-scaling-stroke" d="
  M 98.46 141.58
  Q 96.25 140.42 94.70 142.72"
/>
<path stroke="#b7cabf" vector-effect="non-scaling-stroke" d="
  M 94.70 142.72
  Q 94.57 141.22 93.90 140.50
  Q 93.60 140.19 93.18 140.23
  L 90.18 140.57
  A 0.68 0.68 0.0 0 1 89.42 139.89
  L 89.42 130.80
  A 0.67 0.67 0.0 0 1 90.20 130.14
  L 93.19 130.63
  Q 93.85 130.74 93.99 130.09
  L 94.42 128.14
  A 0.67 0.67 0.0 0 0 93.75 127.33
  L 90.18 127.41
  A 0.77 0.76 -1.9 0 1 89.40 126.69
  L 89.26 124.55
  A 1.19 1.18 -4.6 0 0 87.95 123.44
  Q 85.47 123.70 85.67 126.22
  A 0.87 0.86 78.1 0 1 85.09 127.12
  L 83.77 127.57
  A 1.28 1.28 0.0 0 0 83.95 130.04
  C 86.21 130.46 85.55 135.92 85.50 137.58"
/>
<path stroke="#eaf5ec" vector-effect="non-scaling-stroke" d="
  M 85.50 137.58
  Q 84.77 136.76 84.03 137.55
  Q 83.64 137.97 83.35 137.48
  L 82.32 135.81
  A 0.98 0.98 0.0 0 0 80.54 136.58
  Q 80.96 138.16 80.16 139.41
  A 2.19 2.18 36.3 0 0 80.60 142.24
  L 84.11 145.22
  A 0.88 0.87 31.2 0 1 84.36 146.21
  C 83.62 148.10 80.76 154.39 77.48 153.81
  Q 77.02 153.72 76.58 153.88
  Q 75.60 154.23 74.64 154.00
  Q 74.28 153.92 73.92 153.97
  L 70.66 154.46
  Q 70.21 154.52 69.84 154.79
  L 67.94 156.11
  Q 67.53 156.39 67.87 156.76
  Q 69.10 158.06 70.39 158.10
  Q 83.94 158.56 97.51 159.00"
/>
<path stroke="#b7cabf" vector-effect="non-scaling-stroke" d="
  M 18.75 121.27
  C 12.53 126.38 12.27 143.19 19.76 147.17
  A 0.90 0.90 0.0 0 0 20.99 145.99
  Q 15.51 134.46 20.61 122.67
  A 1.20 1.20 0.0 0 0 18.75 121.27"
/>
<path stroke="#b7cabf" vector-effect="non-scaling-stroke" d="
  M 79.48 121.60
  L 76.46 121.64
  A 0.73 0.73 0.0 0 0 75.74 122.38
  L 75.74 122.93
  A 2.16 2.05 89.2 0 0 77.82 125.06
  L 78.20 125.06
  A 2.16 2.05 89.2 0 0 80.22 122.87
  L 80.22 122.32
  A 0.73 0.73 0.0 0 0 79.48 121.60"
/>
<path stroke="#75aca6" vector-effect="non-scaling-stroke" d="
  M 36.76 138.68
  A 0.86 0.86 0.0 0 1 37.58 139.31
  L 38.67 143.14
  A 0.86 0.86 0.0 0 0 39.52 143.76
  L 42.09 143.70
  A 0.86 0.86 0.0 0 0 42.88 142.56
  L 35.99 122.67
  A 0.86 0.86 0.0 0 0 35.17 122.09
  L 31.03 122.15
  A 0.86 0.86 0.0 0 0 30.23 122.73
  L 23.36 142.52
  A 0.86 0.86 0.0 0 0 24.16 143.66
  L 26.60 143.71
  A 0.86 0.86 0.0 0 0 27.43 143.11
  L 28.66 139.20
  A 0.86 0.86 0.0 0 1 29.49 138.60
  L 36.76 138.68"
/>
<path stroke="#b7cabf" vector-effect="non-scaling-stroke" d="
  M 56.46 127.28
  A 0.73 0.73 0.0 0 1 55.47 127.96
  C 50.53 126.09 45.35 128.24 46.59 134.24
  Q 46.70 134.76 47.04 135.16
  L 48.30 136.66
  A 0.65 0.65 0.0 0 1 48.09 137.66
  Q 45.40 139.03 46.89 141.74
  A 0.87 0.87 0.0 0 1 46.80 142.72
  C 45.39 144.43 43.25 147.33 46.00 148.98
  C 49.83 151.26 59.52 151.91 59.92 145.24
  C 60.39 137.40 49.51 143.36 49.26 138.85
  A 1.05 1.05 0.0 0 1 50.26 137.75
  Q 51.78 137.68 53.72 137.50
  C 57.64 137.13 59.71 133.30 57.54 129.90
  A 1.39 1.39 0.0 0 1 58.01 127.95
  Q 59.30 127.19 59.13 125.79
  A 0.79 0.79 0.0 0 0 58.24 125.10
  Q 56.45 125.35 56.46 127.28"
/>
<path stroke="#b7cabf" vector-effect="non-scaling-stroke" d="
  M 66.51 128.85
  Q 66.06 126.92 63.99 127.20
  A 0.55 0.54 86.4 0 0 63.52 127.74
  L 63.44 142.83
  A 0.79 0.78 5.1 0 0 64.10 143.61
  L 65.97 143.92
  Q 66.76 144.05 66.79 143.25
  L 67.17 132.76
  A 1.92 1.91 -0.7 0 1 68.98 130.92
  C 70.08 130.85 72.05 130.82 72.85 129.88
  Q 73.75 128.83 72.80 127.53
  A 1.26 1.25 55.6 0 0 71.10 127.21
  L 67.77 129.36
  A 0.83 0.83 0.0 0 1 66.51 128.85"
/>
<path stroke="#b7cabf" vector-effect="non-scaling-stroke" d="
  M 79.7068 128.1653
  A 0.99 0.99 0.0 0 0 78.7082 127.1839
  L 77.2482 127.1967
  A 0.99 0.99 0.0 0 0 76.2669 128.1953
  L 76.3932 142.6747
  A 0.99 0.99 0.0 0 0 77.3918 143.6561
  L 78.8518 143.6433
  A 0.99 0.99 0.0 0 0 79.8331 142.6447
  L 79.7068 128.1653"
/>
<path stroke="#eaf5ec" vector-effect="non-scaling-stroke" d="
  M 390.00 0.00
  L 406.65 1.42
  Q 407.13 1.46 406.87 1.86
  Q 406.80 1.97 406.67 2.03
  Q 406.47 2.12 406.56 2.33
  Q 407.14 3.58 408.01 3.29
  Q 408.48 3.14 408.93 3.37
  Q 411.63 4.77 411.87 7.81
  Q 411.90 8.26 412.29 8.50
  Q 413.93 9.51 413.01 11.44
  A 0.94 0.94 0.0 0 0 412.98 12.15
  Q 413.38 13.21 414.17 13.76
  Q 414.46 13.96 414.52 14.30
  L 414.77 15.75
  Q 414.82 15.99 414.88 15.76
  Q 415.00 15.33 415.03 14.96
  Q 415.11 13.91 415.50 14.45
  Q 415.75 14.80 416.09 15.77"
/>
<path stroke="#78ada9" vector-effect="non-scaling-stroke" d="
  M 416.09 15.77
  L 416.02 87.23
  A 0.96 0.96 0.0 0 0 416.98 88.19
  L 433.75 88.11
  Q 434.11 88.11 434.11 87.74
  L 434.09 43.72
  Q 434.09 41.16 435.50 43.30
  L 464.66 87.68
  Q 464.97 88.15 465.53 88.14
  L 483.14 88.07"
/>
<path stroke="#eaf5ec" vector-effect="non-scaling-stroke" d="
  M 483.14 88.07
  Q 482.76 89.48 483.71 90.39
  Q 484.12 90.78 483.96 91.33
  Q 483.62 92.51 482.23 92.37
  A 0.76 0.75 15.9 0 0 481.48 92.78
  Q 479.87 95.87 481.00 99.23
  A 1.65 1.65 0.0 0 1 479.80 101.37
  Q 478.70 101.62 478.42 102.48
  Q 478.25 103.03 477.67 102.99
  L 476.51 102.89
  Q 475.13 102.78 476.27 103.56
  Q 477.55 104.45 478.94 103.75
  A 0.44 0.44 0.0 0 1 479.57 104.06
  C 479.92 105.78 479.76 106.54 478.75 108.11
  Q 478.14 109.07 477.91 110.31
  Q 477.84 110.73 477.59 111.08
  Q 476.90 112.02 477.23 113.12
  Q 477.38 113.62 477.88 113.78
  L 478.99 114.14
  Q 479.44 114.28 479.45 114.74
  L 479.64 122.26
  Q 479.65 122.71 479.28 122.97
  Q 478.64 123.41 479.02 123.95
  A 0.32 0.32 0.0 0 1 478.54 124.38
  Q 477.24 123.25 476.68 124.00"
/>
<path stroke="#78ada9" vector-effect="non-scaling-stroke" d="
  M 476.68 124.00
  Q 475.27 121.02 471.31 122.22
  Q 470.72 122.39 470.72 123.00
  L 470.74 142.91
  A 0.73 0.72 3.6 0 0 471.38 143.63
  L 473.34 143.86
  Q 474.69 144.02 474.69 142.65
  L 474.67 129.25
  A 0.37 0.37 0.0 0 1 475.36 129.05
  L 482.11 140.15"
/>
<path stroke="#eaf5ec" vector-effect="non-scaling-stroke" d="
  M 482.11 140.15
  Q 484.40 144.65 483.83 148.53
  Q 483.80 148.72 483.99 148.78
  Q 484.22 148.85 484.40 148.79
  Q 484.70 148.68 484.73 149.00
  L 485.28 154.74
  A 0.82 0.81 19.3 0 0 485.53 155.25
  L 487.75 157.34
  Q 488.04 157.62 488.40 157.44
  L 490.29 156.52
  A 0.23 0.23 0.0 0 0 490.23 156.09
  Q 490.09 156.07 489.97 156.05
  Q 489.67 155.99 489.92 155.81
  Q 491.34 154.85 492.00 156.34
  Q 492.21 156.82 492.23 157.34
  Q 492.24 157.48 492.27 157.62
  Q 492.35 158.02 492.74 158.13
  L 493.60 158.39
  Q 493.90 158.48 493.59 158.45
  Q 488.60 157.99 483.86 159.00"
/>
<path stroke="#baccc1" vector-effect="non-scaling-stroke" d="
  M 85.50 137.58
  Q 85.18 141.04 86.80 142.46
  Q 90.35 145.58 94.70 142.72"
/>
<path stroke="#baccc1" vector-effect="non-scaling-stroke" d="
  M 98.46 141.58
  Q 101.98 144.55 107.32 143.67"
/>
<path stroke="#baccc1" vector-effect="non-scaling-stroke" d="
  M 116.31 141.54
  Q 122.76 146.32 127.96 141.49
  C 128.92 140.60 129.10 138.99 127.82 138.29
  A 0.82 0.81 38.3 0 0 126.88 138.40
  Q 123.73 141.22 121.16 140.43
  C 117.11 139.20 117.55 129.67 123.45 130.17
  Q 123.98 130.21 124.35 130.60
  L 126.03 132.38
  A 0.74 0.73 46.4 0 0 127.07 132.41
  L 128.62 130.96
  Q 129.06 130.54 128.72 130.04
  Q 127.18 127.74 124.01 127.09"
/>
<path stroke="#78ada9" vector-effect="non-scaling-stroke" d="
  M 111.29 84.42
  L 114.19 75.43
  Q 114.36 74.91 114.90 74.91
  L 142.30 74.84
  Q 142.81 74.84 142.97 75.32
  L 147.06 87.74
  Q 147.22 88.22 147.74 88.22
  L 165.51 88.18
  A 0.66 0.66 0.0 0 0 166.13 87.30
  L 141.90 20.24"
/>
<path stroke="#78ada9" vector-effect="non-scaling-stroke" d="
  M 190.37 27.36
  A 0.42 0.42 0.0 0 1 190.79 27.78
  L 190.80 87.80
  A 0.42 0.42 0.0 0 0 191.22 88.22
  L 208.40 88.13
  A 0.42 0.42 0.0 0 0 208.82 87.71
  L 208.82 27.78
  A 0.42 0.42 0.0 0 1 209.24 27.36
  L 228.42 27.34
  A 0.42 0.42 0.0 0 0 228.84 26.92
  L 228.92 13.46
  A 0.42 0.42 0.0 0 0 228.50 13.04
  L 171.19 12.97
  A 0.42 0.42 0.0 0 0 170.77 13.39
  L 170.70 27.04
  A 0.42 0.42 0.0 0 0 171.12 27.46
  L 190.37 27.36"
/>
<path stroke="#78ada9" vector-effect="non-scaling-stroke" d="
  M 281.31 64.85
  A 0.25 0.25 0.0 0 1 280.85 64.85
  L 259.97 13.21
  A 0.25 0.25 0.0 0 0 259.74 13.05
  L 238.53 13.01
  A 0.25 0.25 0.0 0 0 238.28 13.26
  L 238.43 87.98
  A 0.25 0.25 0.0 0 0 238.68 88.23
  L 256.15 88.17
  A 0.25 0.25 0.0 0 0 256.40 87.92
  L 256.31 44.33
  A 0.25 0.25 0.0 0 1 256.34 44.20
  L 256.65 43.67
  A 0.25 0.25 0.0 0 1 257.10 43.71
  L 273.55 88.08
  A 0.25 0.25 0.0 0 0 273.79 88.24
  L 288.15 88.08
  A 0.25 0.25 0.0 0 0 288.38 87.92
  L 305.01 43.11
  A 0.25 0.25 0.0 0 1 305.50 43.20
  L 305.41 87.95
  A 0.25 0.25 0.0 0 0 305.66 88.20
  L 323.24 88.15
  A 0.25 0.25 0.0 0 0 323.49 87.90
  L 323.47 13.29
  A 0.25 0.25 0.0 0 0 323.22 13.04
  L 302.08 13.04
  A 0.25 0.25 0.0 0 0 301.85 13.20
  L 281.31 64.85"
/>
<path stroke="#78ada9" vector-effect="non-scaling-stroke" d="
  M 383.43 74.87
  A 0.53 0.53 0.0 0 1 383.93 75.23
  L 388.12 87.82
  A 0.53 0.53 0.0 0 0 388.63 88.19
  L 406.63 88.07
  A 0.53 0.53 0.0 0 0 407.13 87.35
  L 380.40 13.38
  A 0.53 0.53 0.0 0 0 379.90 13.03
  L 359.48 12.96
  A 0.53 0.53 0.0 0 0 358.98 13.31
  L 332.30 87.34
  A 0.53 0.53 0.0 0 0 332.80 88.05
  L 350.58 88.12
  A 0.53 0.53 0.0 0 0 351.08 87.76
  L 355.23 75.31
  A 0.53 0.53 0.0 0 1 355.73 74.95
  L 383.43 74.87"
/>
<path stroke="#baccc1" vector-effect="non-scaling-stroke" d="
  M 291.10 128.77
  C 283.85 124.28 278.78 129.99 279.76 137.33
  C 280.58 143.34 285.50 145.92 290.87 142.06
  Q 291.30 141.76 291.47 142.25
  Q 292.17 144.29 294.47 143.93
  A 0.93 0.92 85.3 0 0 295.24 143.01
  L 295.24 121.14
  Q 295.24 120.54 294.63 120.59
  L 292.15 120.82
  A 0.75 0.75 0.0 0 0 291.48 121.57
  L 291.55 128.52
  Q 291.55 129.05 291.10 128.77"
/>
<path stroke="#baccc1" vector-effect="non-scaling-stroke" d="
  M 135.96 128.79
  L 136.19 121.65
  Q 136.21 120.84 135.40 120.88
  L 133.18 120.98
  Q 132.61 121.00 132.61 121.57
  L 132.62 143.08
  Q 132.62 143.53 133.08 143.55
  L 135.74 143.66
  A 0.55 0.55 0.0 0 0 136.31 143.06
  Q 135.60 135.63 136.20 133.23
  C 136.95 130.23 142.93 128.24 143.16 132.96
  Q 143.40 138.00 143.03 143.11
  A 0.57 0.56 2.3 0 0 143.60 143.72
  L 146.19 143.72
  Q 146.77 143.72 146.78 143.13
  Q 146.78 138.95 146.77 134.74
  C 146.77 129.99 145.48 125.92 139.73 127.60
  C 138.66 127.91 137.71 128.66 136.63 129.21
  Q 135.94 129.57 135.96 128.79"
/>
<path stroke="#baccc1" vector-effect="non-scaling-stroke" d="
  M 423.19 128.82
  C 410.97 121.43 408.23 141.57 416.67 143.68
  Q 419.84 144.47 422.84 142.01
  A 0.53 0.52 63.0 0 1 423.68 142.29
  Q 423.95 143.36 424.92 143.78
  A 1.65 1.64 -78.0 0 0 427.22 142.28
  L 427.35 121.46
  Q 427.35 120.93 426.82 120.91
  L 425.08 120.82
  Q 423.39 120.74 423.45 122.43
  L 423.68 128.53
  Q 423.70 129.13 423.19 128.82"
/>
<path stroke="#baccc1" vector-effect="non-scaling-stroke" d="
  M 443.24 127.36
  L 443.30 125.15
  A 2.09 2.08 6.3 0 1 445.79 123.16
  L 448.19 123.64
  A 1.31 1.30 -32.2 0 0 448.77 121.10
  Q 444.66 120.07 441.36 122.04
  A 1.15 1.13 81.7 0 0 440.81 122.79
  L 439.86 126.97
  A 0.70 0.69 -8.4 0 1 439.53 127.41
  L 438.18 128.18
  A 0.70 0.70 0.0 0 0 437.86 129.03
  Q 438.25 130.08 439.43 130.34
  A 1.40 1.39 -84.0 0 1 440.52 131.69
  L 440.62 143.03
  A 0.66 0.65 0.4 0 0 441.27 143.68
  L 443.03 143.70
  Q 443.78 143.71 443.78 142.96
  L 443.75 130.68
  A 0.54 0.54 0.0 0 1 444.32 130.14
  L 447.70 130.30
  Q 448.44 130.33 448.47 129.60
  L 448.54 127.99
  A 0.59 0.59 0.0 0 0 447.86 127.38
  L 443.95 127.98
  A 0.62 0.61 -3.6 0 1 443.24 127.36"
/>
<path stroke="#78ada9" vector-effect="non-scaling-stroke" d="
  M 178.12 125.31
  A 0.43 0.43 0.0 0 1 178.58 125.74
  L 178.56 143.18
  A 0.43 0.43 0.0 0 0 178.99 143.61
  L 181.96 143.63
  A 0.43 0.43 0.0 0 0 182.39 143.20
  L 182.40 125.79
  A 0.43 0.43 0.0 0 1 182.84 125.36
  L 188.34 125.55
  A 0.43 0.43 0.0 0 0 188.79 125.13
  L 188.88 122.59
  A 0.43 0.43 0.0 0 0 188.45 122.14
  L 172.79 122.15
  A 0.43 0.43 0.0 0 0 172.36 122.58
  L 172.37 125.21
  A 0.43 0.43 0.0 0 0 172.83 125.64
  L 178.12 125.31"
/>
<path stroke="#78ada9" vector-effect="non-scaling-stroke" d="
  M 336.72 130.29
  Q 337.15 136.72 336.79 143.14
  Q 336.76 143.66 337.28 143.68
  L 339.92 143.75
  Q 340.59 143.77 340.60 143.09
  L 340.65 122.57
  Q 340.65 121.99 340.07 121.99
  L 336.07 122.01
  A 0.95 0.95 0.0 0 0 335.17 122.65
  L 330.14 137.39
  Q 329.62 138.91 329.10 137.38
  L 324.19 122.64
  A 0.90 0.89 -9.0 0 0 323.34 122.03
  L 319.17 122.06
  Q 318.66 122.06 318.66 122.58
  L 318.75 143.05
  A 0.56 0.56 0.0 0 0 319.31 143.60
  L 321.71 143.57
  Q 322.23 143.57 322.23 143.04
  L 322.16 130.96
  Q 322.13 127.15 323.37 130.75
  L 327.33 142.29
  A 2.34 2.34 0.0 0 0 331.76 142.29
  L 335.88 130.18
  Q 336.57 128.16 336.72 130.29"
/>
<path stroke="#78ada9" vector-effect="non-scaling-stroke" d="
  M 384.93 139.25
  L 385.95 143.00
  Q 386.11 143.60 386.72 143.62
  L 389.67 143.74
  A 0.71 0.70 82.1 0 0 390.37 142.81
  L 383.61 122.96
  Q 383.44 122.47 382.97 122.27
  Q 380.46 121.21 378.62 122.26
  Q 377.21 123.06 376.33 125.83
  Q 373.59 134.43 370.60 142.90
  A 0.79 0.78 -83.6 0 0 371.43 143.95
  L 374.11 143.62
  A 0.84 0.83 -83.8 0 0 374.80 143.06
  L 376.09 139.31
  Q 376.28 138.75 376.88 138.75
  L 384.23 138.72
  A 0.73 0.73 0.0 0 1 384.93 139.25"
/>
<path stroke="#baccc1" vector-effect="non-scaling-stroke" d="
  M 219.64 129.18
  L 222.52 130.45
  Q 222.90 130.61 222.89 131.02
  C 222.74 136.78 221.17 145.74 230.38 143.59
  A 1.83 1.41 -48.2 0 0 230.62 140.34
  L 228.24 140.68
  A 1.68 1.68 0.0 0 1 226.32 138.99
  L 226.44 130.85
  A 0.69 0.69 0.0 0 1 227.15 130.17
  L 230.50 130.26
  Q 231.13 130.28 231.19 129.65
  L 231.34 128.10
  A 0.69 0.69 0.0 0 0 230.59 127.34
  L 227.16 127.68
  A 0.76 0.76 0.0 0 1 226.33 126.90
  L 226.42 124.23
  A 0.72 0.71 -4.5 0 0 225.56 123.50
  L 223.50 123.93
  Q 222.90 124.05 222.95 124.66
  C 223.19 127.59 221.30 128.57 218.84 127.57
  C 216.38 126.58 215.09 128.41 213.31 129.75
  A 0.43 0.42 72.0 0 1 212.63 129.40
  Q 212.67 126.65 210.17 127.18
  A 0.99 0.98 84.0 0 0 209.38 128.16
  L 209.50 143.00
  A 0.77 0.77 0.0 0 0 210.27 143.76
  L 212.13 143.76
  Q 212.82 143.75 212.79 143.07
  Q 212.67 139.94 213.03 134.25
  C 213.26 130.77 215.35 130.78 218.14 130.57
  Q 218.70 130.53 218.87 130.00
  L 219.05 129.45
  Q 219.19 128.99 219.64 129.18"
/>
<path stroke="#baccc1" vector-effect="non-scaling-stroke" d="
  M 258.05 142.17
  C 263.55 146.02 268.45 143.19 269.48 137.13
  C 270.19 132.91 267.74 126.21 262.29 127.21
  C 260.96 127.45 259.66 128.26 258.33 128.90
  A 0.65 0.64 59.1 0 1 257.53 128.69
  Q 256.37 127.08 254.35 127.28
  Q 253.77 127.34 253.77 127.92
  L 253.79 149.84
  Q 253.80 150.40 254.35 150.37
  L 257.00 150.25
  Q 257.81 150.22 257.77 149.41
  L 257.46 142.50
  Q 257.42 141.73 258.05 142.17"
/>
<path stroke="#baccc1" vector-effect="non-scaling-stroke" d="
  M 353.7881 144.0414
  A 8.52 8.13 85.3 0 0 361.1927 134.8838
  A 8.52 8.13 85.3 0 0 352.3919 127.0586
  A 8.52 8.13 85.3 0 0 344.9873 136.2162
  A 8.52 8.13 85.3 0 0 353.7881 144.0414"
/>
<path stroke="#baccc1" vector-effect="non-scaling-stroke" d="
  M 397.00 128.96
  L 396.64 127.55
  Q 396.47 126.88 395.78 126.96
  L 394.18 127.13
  A 0.68 0.67 -3.3 0 0 393.58 127.80
  L 393.47 142.76
  A 0.78 0.77 -90.0 0 0 394.24 143.54
  L 396.84 143.56
  A 0.67 0.66 87.7 0 0 397.51 142.83
  C 397.28 140.42 396.66 133.34 398.33 131.53
  C 400.23 129.47 404.02 129.65 404.10 133.26
  Q 404.22 138.19 404.09 143.20
  A 0.63 0.63 0.0 0 0 404.72 143.84
  L 407.32 143.86
  Q 408.04 143.87 408.03 143.15
  C 408.01 137.20 410.33 121.44 397.79 129.28
  Q 397.18 129.65 397.00 128.96"
/>
<path stroke="#baccc1" vector-effect="non-scaling-stroke" d="
  M 165.55 140.52
  Q 162.16 141.52 159.97 139.06
  A 0.81 0.80 42.9 0 0 158.73 139.10
  L 157.30 140.94
  A 0.59 0.58 37.2 0 0 157.42 141.77
  C 160.87 144.28 167.73 145.55 169.97 140.82
  Q 171.36 137.89 168.67 134.96
  A 1.30 1.23 74.3 0 0 168.05 134.59
  L 162.51 133.18
  A 1.44 1.44 0.0 0 1 162.48 130.39
  Q 165.28 129.61 167.39 131.38
  A 0.67 0.67 0.0 0 0 168.33 131.31
  L 169.19 130.31
  A 1.59 1.59 0.0 0 0 168.40 127.74
  C 164.11 126.56 156.89 126.60 157.93 133.19
  C 158.41 136.19 163.22 136.95 165.53 137.62
  A 1.51 1.51 0.0 0 1 165.55 140.52"
/>
<path stroke="#baccc1" vector-effect="non-scaling-stroke" d="
  M 201.38 142.14
  Q 202.24 144.21 204.68 143.94
  A 1.70 1.70 0.0 0 0 205.30 140.75
  L 204.62 140.38
  A 0.96 0.95 13.3 0 1 204.12 139.58
  Q 203.98 135.55 203.90 131.49
  C 203.79 125.37 195.24 126.94 191.86 129.30
  Q 191.38 129.65 191.59 130.20
  L 192.25 131.93
  A 0.69 0.69 0.0 0 0 193.42 132.13
  Q 195.85 129.27 199.49 130.22
  A 1.63 1.62 44.2 0 1 199.54 133.35
  C 196.67 134.17 191.35 134.33 191.05 138.25
  Q 190.63 143.59 195.27 144.02
  C 197.43 144.22 198.79 143.06 200.49 141.88
  A 0.59 0.59 0.0 0 1 201.38 142.14"
/>
<path stroke="#baccc1" vector-effect="non-scaling-stroke" d="
  M 245.33 141.98
  Q 245.58 143.22 246.59 143.85
  A 1.24 1.24 0.0 0 0 248.48 142.79
  L 248.37 128.03
  Q 248.37 127.32 247.66 127.36
  L 245.89 127.44
  Q 245.27 127.47 245.25 128.10
  L 245.00 138.55
  Q 244.98 139.13 244.52 139.48
  Q 242.69 140.90 240.31 140.99
  A 1.98 1.97 88.9 0 1 238.26 139.01
  L 238.26 127.92
  Q 238.27 127.33 237.67 127.35
  L 235.61 127.42
  A 0.66 0.66 0.0 0 0 234.97 128.05
  Q 234.71 132.66 234.88 137.28
  C 235.04 141.81 236.18 145.06 241.70 143.57
  C 242.87 143.25 243.56 142.22 244.69 141.66
  A 0.46 0.45 71.0 0 1 245.33 141.98"
/>
<path stroke="#baccc1" vector-effect="non-scaling-stroke" d="
  M 304.03 136.25
  L 313.45 136.44
  Q 313.92 136.45 314.00 135.98
  C 315.85 125.55 302.41 124.26 299.83 132.20
  C 298.31 136.86 299.80 142.62 305.22 143.68
  C 307.42 144.11 313.67 143.71 313.73 140.24
  A 1.67 1.67 0.0 0 0 310.75 139.17
  C 308.50 142.01 302.69 140.63 303.54 136.63
  Q 303.63 136.24 304.03 136.25"
/>
<path stroke="#baccc1" vector-effect="non-scaling-stroke" d="
  M 462.22 142.34
  Q 462.51 144.07 464.04 144.10
  A 1.11 1.11 0.0 0 0 465.17 142.99
  L 465.14 128.35
  Q 465.13 127.54 464.33 127.52
  L 462.34 127.47
  Q 461.88 127.46 461.88 127.92
  L 461.92 138.02
  A 1.21 1.19 67.8 0 1 461.57 138.87
  Q 459.38 141.11 456.24 140.97
  Q 455.65 140.94 455.36 140.44
  C 454.03 138.13 454.78 131.06 454.94 128.22
  Q 454.97 127.57 454.33 127.46
  L 452.77 127.20
  A 0.72 0.71 -82.3 0 0 451.93 127.84
  C 451.53 132.01 450.81 137.93 452.34 141.94
  A 1.40 1.37 5.6 0 0 452.93 142.64
  Q 457.22 145.23 460.73 141.85
  Q 461.94 140.67 462.22 142.34"
/>
<path stroke="#75aca6" vector-effect="non-scaling-stroke" d="
  M 482.11 140.15
  Q 484.31 144.75 488.24 143.60
  Q 488.73 143.46 488.73 142.95
  L 488.67 122.71
  A 0.72 0.72 0.0 0 0 487.96 121.99
  L 485.37 121.95
  A 0.68 0.68 0.0 0 0 484.68 122.63
  L 484.70 135.27
  A 0.48 0.47 29.0 0 1 483.82 135.52
  L 476.68 124.00"
/>
<path stroke="#75aca6" vector-effect="non-scaling-stroke" d="
  M 483.14 88.07
  L 483.09 13.42
  Q 483.09 13.04 482.71 13.04
  L 465.73 13.03
  Q 465.23 13.02 465.24 13.52
  L 465.26 58.54
  A 0.50 0.50 0.0 0 1 464.34 58.82
  L 434.65 13.50
  Q 434.33 13.00 433.73 13.00
  L 416.69 13.00
  Q 416.14 13.00 416.03 13.54
  Q 415.83 14.57 416.09 15.77"
/>
<path stroke="#b7cabf" vector-effect="non-scaling-stroke" d="
  M 504.88 121.37
  Q 505.61 125.01 505.25 128.36
  A 0.69 0.69 0.0 0 1 504.19 128.86
  C 493.81 122.14 490.38 138.23 496.22 142.48
  C 499.38 144.78 501.57 143.37 504.67 141.84
  A 0.49 0.49 0.0 0 1 505.36 142.16
  Q 505.90 144.34 508.20 143.64
  A 0.70 0.69 81.2 0 0 508.69 142.96
  L 508.42 121.52
  Q 508.42 121.12 508.02 121.07
  L 504.93 120.67
  Q 504.41 120.60 504.59 121.08
  Q 504.67 121.28 504.88 121.37"
/>
<path stroke="#b7cabf" vector-effect="non-scaling-stroke" d="
  M 517.28 121.09
  L 514.26 121.21
  A 0.72 0.72 0.0 0 0 513.57 121.96
  L 513.59 122.43
  A 2.77 2.08 87.7 0 0 515.78 125.11
  L 516.08 125.10
  A 2.77 2.08 87.7 0 0 518.05 122.25
  L 518.03 121.78
  A 0.72 0.72 0.0 0 0 517.28 121.09"
/>
<path stroke="#b7cabf" vector-effect="non-scaling-stroke" d="
  M 559.39 121.23
  A 0.88 0.87 -6.9 0 0 558.42 122.46
  Q 563.84 134.11 558.17 145.61
  Q 557.98 145.99 558.19 146.37
  Q 558.77 147.44 560.18 146.79
  A 2.21 2.19 -85.9 0 0 561.12 145.97
  Q 568.18 135.02 562.02 122.99
  Q 561.32 121.62 559.39 121.23"
/>
<path stroke="#b7cabf" vector-effect="non-scaling-stroke" d="
  M 543.33 137.77
  Q 541.07 139.43 542.51 141.90
  A 0.74 0.74 0.0 0 1 542.47 142.73
  L 540.47 145.38
  Q 540.14 145.82 540.21 146.35
  C 540.91 151.39 549.11 151.07 552.42 149.96
  C 555.31 148.99 556.64 145.42 555.19 142.74
  C 553.82 140.22 548.44 140.69 546.08 140.55
  A 1.30 1.30 0.0 0 1 546.00 137.96
  C 549.23 137.56 552.96 138.13 553.89 133.89
  C 554.43 131.43 552.34 129.50 554.63 126.89
  A 1.03 1.03 0.0 0 0 554.26 125.26
  Q 553.13 124.78 552.56 125.99
  Q 552.21 126.74 551.62 127.40
  A 0.87 0.86 26.5 0 1 550.80 127.67
  C 545.95 126.66 541.66 127.51 541.95 133.29
  C 542.02 134.73 542.75 135.64 543.50 136.82
  Q 543.86 137.38 543.33 137.77"
/>
<path stroke="#b7cabf" vector-effect="non-scaling-stroke" d="
  M 517.6355 128.4938
  A 1.29 1.29 0.0 0 0 516.3410 127.2083
  L 515.3410 127.2118
  A 1.29 1.29 0.0 0 0 514.0555 128.5063
  L 514.1045 142.5262
  A 1.29 1.29 0.0 0 0 515.3990 143.8117
  L 516.3990 143.8082
  A 1.29 1.29 0.0 0 0 517.6845 142.5137
  L 517.6355 128.4938"
/>
<path stroke="#b7cabf" vector-effect="non-scaling-stroke" d="
  M 533.11 131.50
  L 533.43 143.14
  Q 533.45 143.74 534.05 143.75
  L 536.27 143.79
  Q 536.99 143.81 536.98 143.09
  Q 536.88 139.48 537.13 133.00
  C 537.38 126.43 531.05 126.40 526.95 129.16
  A 0.57 0.56 62.9 0 1 526.10 128.88
  Q 525.35 126.82 523.38 127.47
  Q 522.82 127.65 522.82 128.24
  L 522.72 143.06
  Q 522.71 143.73 523.38 143.75
  L 525.37 143.81
  A 1.06 1.06 0.0 0 0 526.45 142.58
  C 525.99 139.69 525.28 132.47 528.26 130.68
  Q 530.37 129.41 532.69 130.79
  A 0.85 0.84 14.7 0 1 533.11 131.50"
/>
<path stroke="#75aca6" vector-effect="non-scaling-stroke" d="
  M 119.32 60.34
  A 0.48 0.48 0.0 0 0 119.77 60.97
  L 137.46 61.01
  A 0.48 0.48 0.0 0 0 137.91 60.37
  L 129.12 33.97
  A 0.48 0.48 0.0 0 0 128.21 33.97
  L 119.32 60.34"
/>
<path stroke="#75aca6" vector-effect="non-scaling-stroke" d="
  M 360.18 60.63
  A 0.33 0.33 0.0 0 0 360.49 61.07
  L 378.79 61.07
  A 0.33 0.33 0.0 0 0 379.10 60.63
  L 369.95 33.82
  A 0.33 0.33 0.0 0 0 369.33 33.82
  L 360.18 60.63"
/>
<path stroke="#baccc1" vector-effect="non-scaling-stroke" d="
  M 287.5063 140.8195
  A 5.28 3.96 90.8 0 0 291.5396 135.5953
  A 5.28 3.96 90.8 0 0 287.6537 130.2605
  A 5.28 3.96 90.8 0 0 283.6204 135.4847
  A 5.28 3.96 90.8 0 0 287.5063 140.8195"
/>
<path stroke="#b7cabf" vector-effect="non-scaling-stroke" d="
  M 501.1679 141.1991
  A 5.61 4.24 89.0 0 0 505.3094 135.5160
  A 5.61 4.24 89.0 0 0 500.9721 129.9809
  A 5.61 4.24 89.0 0 0 496.8306 135.6640
  A 5.61 4.24 89.0 0 0 501.1679 141.1991"
/>
<path stroke="#baccc1" vector-effect="non-scaling-stroke" d="
  M 419.9839 140.8483
  A 5.34 3.95 86.2 0 0 423.5713 135.2582
  A 5.34 3.95 86.2 0 0 419.2761 130.1917
  A 5.34 3.95 86.2 0 0 415.6887 135.7818
  A 5.34 3.95 86.2 0 0 419.9839 140.8483"
/>
<path stroke="#75aca6" vector-effect="non-scaling-stroke" d="
  M 30.18 134.58
  A 0.52 0.52 0.0 0 0 30.67 135.25
  L 35.39 135.31
  A 0.52 0.52 0.0 0 0 35.90 134.65
  L 33.63 126.94
  A 0.52 0.52 0.0 0 0 32.63 126.92
  L 30.18 134.58"
/>
<path stroke="#78ada9" vector-effect="non-scaling-stroke" d="
  M 377.47 134.80
  A 0.31 0.31 0.0 0 0 377.76 135.22
  L 383.07 135.26
  A 0.31 0.31 0.0 0 0 383.37 134.86
  L 380.78 127.02
  A 0.31 0.31 0.0 0 0 380.19 127.01
  L 377.47 134.80"
/>
<path stroke="#b7cabf" vector-effect="non-scaling-stroke" d="
  M 55.53 132.51
  A 3.20 3.20 0.0 0 0 52.33 129.31
  A 3.20 3.20 0.0 0 0 49.13 132.51
  A 3.20 3.20 0.0 0 0 52.33 135.71
  A 3.20 3.20 0.0 0 0 55.53 132.51"
/>
<path stroke="#b7cabf" vector-effect="non-scaling-stroke" d="
  M 56.9694 145.4641
  A 1.97 1.97 0.0 0 0 54.9925 143.5010
  L 49.8325 143.5190
  A 1.97 1.97 0.0 0 0 47.8694 145.4959
  L 47.8706 145.8359
  A 1.97 1.97 0.0 0 0 49.8475 147.7990
  L 55.0075 147.7810
  A 1.97 1.97 0.0 0 0 56.9706 145.8041
  L 56.9694 145.4641"
/>
<path stroke="#b7cabf" vector-effect="non-scaling-stroke" d="
  M 550.75 132.66
  A 2.93 2.93 0.0 0 0 547.82 129.73
  A 2.93 2.93 0.0 0 0 544.89 132.66
  A 2.93 2.93 0.0 0 0 547.82 135.59
  A 2.93 2.93 0.0 0 0 550.75 132.66"
/>
<path stroke="#b7cabf" vector-effect="non-scaling-stroke" d="
  M 551.9576 145.5447
  A 1.78 1.78 0.0 0 0 550.2408 143.7036
  L 545.5237 143.5389
  A 1.78 1.78 0.0 0 0 543.6826 145.2557
  L 543.6624 145.8353
  A 1.78 1.78 0.0 0 0 545.3792 147.6764
  L 550.0963 147.8411
  A 1.78 1.78 0.0 0 0 551.9374 146.1243
  L 551.9576 145.5447"
/>
<path stroke="#b7cabf" vector-effect="non-scaling-stroke" d="
  M 101.31 133.81
  L 107.87 133.83
  A 0.26 0.26 0.0 0 0 108.13 133.57
  L 108.13 133.40
  A 3.41 3.41 0.0 0 0 104.74 129.98
  L 104.48 129.98
  A 3.41 3.41 0.0 0 0 101.05 133.38
  L 101.05 133.55
  A 0.26 0.26 0.0 0 0 101.31 133.81"
/>
<path stroke="#baccc1" vector-effect="non-scaling-stroke" d="
  M 261.4808 140.8100
  A 5.29 3.99 90.1 0 0 265.4800 135.5270
  A 5.29 3.99 90.1 0 0 261.4992 130.2300
  A 5.29 3.99 90.1 0 0 257.5000 135.5130
  A 5.29 3.99 90.1 0 0 261.4808 140.8100"
/>
<path stroke="#baccc1" vector-effect="non-scaling-stroke" d="
  M 352.9770 140.7992
  A 5.33 3.93 91.0 0 0 356.9994 135.5386
  A 5.33 3.93 91.0 0 0 353.1630 130.1408
  A 5.33 3.93 91.0 0 0 349.1406 135.4014
  A 5.33 3.93 91.0 0 0 352.9770 140.7992"
/>
<path stroke="#baccc1" vector-effect="non-scaling-stroke" d="
  M 194.46 139.17
  L 195.86 141.29
  A 1.07 1.07 0.0 0 0 197.34 141.60
  L 198.20 141.03
  A 4.60 2.17 -33.3 0 0 200.85 136.69
  L 200.67 136.41
  A 4.60 2.17 -33.3 0 0 195.63 137.12
  L 194.77 137.69
  A 1.07 1.07 0.0 0 0 194.46 139.17"
/>
<path stroke="#baccc1" vector-effect="non-scaling-stroke" d="
  M 304.30 133.94
  L 310.02 133.83
  A 0.60 0.60 0.0 0 0 310.60 133.22
  L 310.60 133.00
  A 3.17 3.04 -1.1 0 0 307.37 130.02
  L 306.79 130.04
  A 3.17 3.04 -1.1 0 0 303.68 133.14
  L 303.69 133.36
  A 0.60 0.60 0.0 0 0 304.30 133.94"
/>
</g>
<path fill="#e7f3e9" d="
  M 0.00 0.00
  L 156.13 0.00
  L 154.93 0.45
  Q 154.53 0.61 154.34 0.99
  Q 153.89 1.92 154.52 2.75
  A 0.76 0.75 48.8 0 1 154.46 3.73
  Q 153.26 4.99 153.07 6.79
  A 0.58 0.58 0.0 0 1 152.74 7.26
  Q 152.62 7.31 152.50 7.35
  Q 152.31 7.40 152.45 7.54
  L 152.78 7.87
  A 0.38 0.38 0.0 0 1 152.37 8.50
  Q 149.77 7.48 147.85 9.81
  A 0.84 0.69 -20.7 0 0 147.74 10.00
  Q 147.48 10.64 146.59 10.52
  Q 146.03 10.45 146.07 9.88
  L 146.15 8.73
  A 0.43 0.43 0.0 0 0 145.46 8.35
  L 145.06 8.65
  Q 144.47 9.09 143.90 8.61
  Q 142.77 7.67 143.30 6.47
  Q 143.52 5.95 143.08 5.62
  Q 140.85 3.96 138.05 4.20
  C 137.09 4.28 136.52 4.90 135.21 4.48
  Q 134.77 4.34 134.40 4.62
  Q 133.43 5.39 131.76 3.21
  A 0.19 0.18 46.0 0 0 131.48 3.20
  Q 130.89 3.87 130.14 3.58
  Q 129.90 3.48 129.64 3.44
  Q 127.77 3.12 126.21 3.88
  A 0.26 0.26 0.0 0 0 126.19 4.33
  L 126.63 4.61
  A 0.09 0.08 6.3 0 0 126.76 4.51
  Q 126.64 4.25 126.89 4.14
  Q 128.12 3.60 128.30 5.01
  A 0.60 0.59 0.0 0 1 127.63 5.67
  L 125.49 5.41
  A 0.13 0.13 0.0 0 0 125.38 5.63
  L 125.63 5.88
  Q 126.12 6.37 126.61 5.89
  Q 127.11 5.41 127.68 5.82
  Q 128.10 6.12 127.68 6.43
  L 126.12 7.58
  Q 125.77 7.83 125.90 8.24
  Q 126.16 8.98 125.87 9.68
  A 1.54 1.54 0.0 0 0 127.21 11.81
  L 136.57 12.33
  Q 137.12 12.36 137.49 11.97
  Q 137.89 11.55 138.58 11.63
  Q 138.97 11.67 138.71 11.97
  Q 138.52 12.21 138.28 12.16
  A 0.02 0.01 47.7 0 1 138.28 12.13
  L 139.00 12.13
  Q 139.08 12.13 139.03 12.04
  Q 138.99 11.98 138.99 11.90
  Q 138.99 11.65 139.26 11.68
  Q 140.10 11.76 140.40 12.60
  Q 140.76 13.62 140.52 13.74
  Q 140.18 13.93 140.64 14.13
  Q 141.12 14.34 141.19 14.86
  Q 141.33 15.85 141.46 16.79
  Q 141.53 17.28 141.81 17.69
  Q 142.59 18.81 141.90 20.24
  L 139.52 13.47
  Q 139.34 12.97 138.82 12.98
  L 119.16 13.06
  A 1.53 1.53 0.0 0 0 117.72 14.08
  L 91.23 87.44
  A 0.52 0.52 0.0 0 0 91.72 88.14
  L 109.11 88.18
  Q 109.70 88.18 109.94 87.63
  L 111.29 84.42
  Q 111.94 87.05 110.83 88.99
  Q 110.60 89.39 110.67 89.84
  Q 111.15 92.63 108.61 94.95
  Q 108.13 95.39 107.48 95.29
  Q 104.86 94.88 103.22 96.24
  A 0.48 0.48 0.0 0 0 103.41 97.08
  L 103.80 97.18
  A 0.31 0.31 0.0 0 1 103.95 97.70
  L 103.09 98.60
  Q 102.76 98.95 103.24 98.92
  L 106.15 98.77
  Q 106.37 98.76 106.37 98.98
  L 106.37 99.25
  A 0.35 0.35 0.0 0 0 106.81 99.59
  L 107.65 99.39
  A 0.32 0.32 0.0 0 1 107.98 99.89
  Q 106.65 101.63 104.56 101.72
  A 0.46 0.46 0.0 0 0 104.25 102.51
  L 104.43 102.69
  Q 104.99 103.24 104.42 103.78
  L 102.75 105.37
  Q 102.41 105.70 102.29 106.16
  Q 101.88 107.66 102.65 108.94
  Q 102.93 109.41 102.67 109.89
  Q 100.72 113.39 102.98 116.35
  A 0.40 0.39 56.8 0 1 102.86 116.93
  Q 102.65 117.05 102.50 117.11
  Q 102.08 117.28 101.94 117.70
  Q 101.64 118.61 102.37 118.95
  Q 102.94 119.21 103.28 119.73
  L 104.51 121.59
  Q 104.61 121.75 104.65 121.56
  Q 104.69 121.37 104.78 121.20
  Q 104.90 120.99 105.07 121.16
  L 105.39 121.49
  Q 105.41 121.51 105.41 121.48
  L 105.25 120.80
  Q 105.21 120.64 105.37 120.64
  L 105.77 120.63
  Q 106.29 120.62 106.31 121.14
  L 106.37 122.36
  A 0.09 0.08 -16.1 0 0 106.50 122.43
  L 106.93 122.16
  Q 107.20 121.98 107.29 122.29
  L 107.36 122.56
  A 0.35 0.35 0.0 0 0 108.04 122.56
  L 108.87 119.39
  Q 108.99 118.93 109.46 119.00
  L 115.38 119.85
  A 0.63 0.63 0.0 0 1 115.88 120.68
  L 115.44 121.96
  Q 115.29 122.39 114.84 122.39
  L 113.48 122.39
  Q 113.25 122.38 113.22 122.61
  L 113.15 123.04
  Q 113.12 123.24 112.91 123.26
  L 112.02 123.31
  Q 111.25 123.35 111.67 124.00
  Q 112.12 124.71 111.45 125.08
  A 0.32 0.32 0.0 0 0 111.68 125.67
  Q 112.54 125.46 113.37 125.39
  Q 113.79 125.36 114.18 125.21
  Q 115.17 124.81 115.78 125.49
  Q 116.17 125.92 116.73 125.75
  Q 118.40 125.25 119.99 126.03
  A 0.26 0.26 0.0 0 1 119.99 126.49
  Q 119.87 126.55 119.75 126.60
  Q 119.65 126.65 119.80 126.64
  Q 119.90 126.63 119.98 126.57
  Q 121.36 125.65 123.08 125.79
  Q 124.29 125.88 124.01 127.09
  C 114.91 126.03 112.91 135.13 116.31 141.54
  Q 115.29 141.23 114.89 140.37
  Q 114.65 139.86 114.18 140.16
  L 113.92 140.33
  A 0.29 0.28 72.3 0 0 113.79 140.59
  L 113.82 140.87
  A 0.18 0.17 25.5 0 1 113.50 140.98
  L 113.10 140.43
  A 0.39 0.39 0.0 0 0 112.39 140.66
  Q 112.41 141.43 111.89 141.60
  Q 110.62 142.02 110.03 142.73
  Q 109.73 143.08 109.29 143.19
  L 107.32 143.67
  L 110.56 141.72
  A 1.51 1.51 0.0 0 0 109.89 138.92
  C 108.40 138.81 107.21 140.39 105.74 140.66
  Q 101.60 141.42 100.83 137.01
  A 0.65 0.65 0.0 0 1 101.48 136.25
  L 110.24 136.38
  Q 111.80 136.40 111.77 134.84
  Q 111.69 128.92 106.75 127.31
  Q 103.33 126.19 100.47 128.02
  C 95.98 130.89 96.21 137.30 98.46 141.58
  Q 96.25 140.42 94.70 142.72
  Q 94.57 141.22 93.90 140.50
  Q 93.60 140.19 93.18 140.23
  L 90.18 140.57
  A 0.68 0.68 0.0 0 1 89.42 139.89
  L 89.42 130.80
  A 0.67 0.67 0.0 0 1 90.20 130.14
  L 93.19 130.63
  Q 93.85 130.74 93.99 130.09
  L 94.42 128.14
  A 0.67 0.67 0.0 0 0 93.75 127.33
  L 90.18 127.41
  A 0.77 0.76 -1.9 0 1 89.40 126.69
  L 89.26 124.55
  A 1.19 1.18 -4.6 0 0 87.95 123.44
  Q 85.47 123.70 85.67 126.22
  A 0.87 0.86 78.1 0 1 85.09 127.12
  L 83.77 127.57
  A 1.28 1.28 0.0 0 0 83.95 130.04
  C 86.21 130.46 85.55 135.92 85.50 137.58
  Q 84.77 136.76 84.03 137.55
  Q 83.64 137.97 83.35 137.48
  L 82.32 135.81
  A 0.98 0.98 0.0 0 0 80.54 136.58
  Q 80.96 138.16 80.16 139.41
  A 2.19 2.18 36.3 0 0 80.60 142.24
  L 84.11 145.22
  A 0.88 0.87 31.2 0 1 84.36 146.21
  C 83.62 148.10 80.76 154.39 77.48 153.81
  Q 77.02 153.72 76.58 153.88
  Q 75.60 154.23 74.64 154.00
  Q 74.28 153.92 73.92 153.97
  L 70.66 154.46
  Q 70.21 154.52 69.84 154.79
  L 67.94 156.11
  Q 67.53 156.39 67.87 156.76
  Q 69.10 158.06 70.39 158.10
  Q 83.94 158.56 97.51 159.00
  L 0.00 159.00
  L 0.00 0.00
  Z
  M 18.75 121.27
  C 12.53 126.38 12.27 143.19 19.76 147.17
  A 0.90 0.90 0.0 0 0 20.99 145.99
  Q 15.51 134.46 20.61 122.67
  A 1.20 1.20 0.0 0 0 18.75 121.27
  Z
  M 79.48 121.60
  L 76.46 121.64
  A 0.73 0.73 0.0 0 0 75.74 122.38
  L 75.74 122.93
  A 2.16 2.05 89.2 0 0 77.82 125.06
  L 78.20 125.06
  A 2.16 2.05 89.2 0 0 80.22 122.87
  L 80.22 122.32
  A 0.73 0.73 0.0 0 0 79.48 121.60
  Z
  M 36.76 138.68
  A 0.86 0.86 0.0 0 1 37.58 139.31
  L 38.67 143.14
  A 0.86 0.86 0.0 0 0 39.52 143.76
  L 42.09 143.70
  A 0.86 0.86 0.0 0 0 42.88 142.56
  L 35.99 122.67
  A 0.86 0.86 0.0 0 0 35.17 122.09
  L 31.03 122.15
  A 0.86 0.86 0.0 0 0 30.23 122.73
  L 23.36 142.52
  A 0.86 0.86 0.0 0 0 24.16 143.66
  L 26.60 143.71
  A 0.86 0.86 0.0 0 0 27.43 143.11
  L 28.66 139.20
  A 0.86 0.86 0.0 0 1 29.49 138.60
  L 36.76 138.68
  Z
  M 56.46 127.28
  A 0.73 0.73 0.0 0 1 55.47 127.96
  C 50.53 126.09 45.35 128.24 46.59 134.24
  Q 46.70 134.76 47.04 135.16
  L 48.30 136.66
  A 0.65 0.65 0.0 0 1 48.09 137.66
  Q 45.40 139.03 46.89 141.74
  A 0.87 0.87 0.0 0 1 46.80 142.72
  C 45.39 144.43 43.25 147.33 46.00 148.98
  C 49.83 151.26 59.52 151.91 59.92 145.24
  C 60.39 137.40 49.51 143.36 49.26 138.85
  A 1.05 1.05 0.0 0 1 50.26 137.75
  Q 51.78 137.68 53.72 137.50
  C 57.64 137.13 59.71 133.30 57.54 129.90
  A 1.39 1.39 0.0 0 1 58.01 127.95
  Q 59.30 127.19 59.13 125.79
  A 0.79 0.79 0.0 0 0 58.24 125.10
  Q 56.45 125.35 56.46 127.28
  Z
  M 66.51 128.85
  Q 66.06 126.92 63.99 127.20
  A 0.55 0.54 86.4 0 0 63.52 127.74
  L 63.44 142.83
  A 0.79 0.78 5.1 0 0 64.10 143.61
  L 65.97 143.92
  Q 66.76 144.05 66.79 143.25
  L 67.17 132.76
  A 1.92 1.91 -0.7 0 1 68.98 130.92
  C 70.08 130.85 72.05 130.82 72.85 129.88
  Q 73.75 128.83 72.80 127.53
  A 1.26 1.25 55.6 0 0 71.10 127.21
  L 67.77 129.36
  A 0.83 0.83 0.0 0 1 66.51 128.85
  Z
  M 79.7068 128.1653
  A 0.99 0.99 0.0 0 0 78.7082 127.1839
  L 77.2482 127.1967
  A 0.99 0.99 0.0 0 0 76.2669 128.1953
  L 76.3932 142.6747
  A 0.99 0.99 0.0 0 0 77.3918 143.6561
  L 78.8518 143.6433
  A 0.99 0.99 0.0 0 0 79.8331 142.6447
  L 79.7068 128.1653
  Z"
/>
<path fill="#edf6ee" d="
  M 156.13 0.00
  L 390.00 0.00
  L 406.65 1.42
  Q 407.13 1.46 406.87 1.86
  Q 406.80 1.97 406.67 2.03
  Q 406.47 2.12 406.56 2.33
  Q 407.14 3.58 408.01 3.29
  Q 408.48 3.14 408.93 3.37
  Q 411.63 4.77 411.87 7.81
  Q 411.90 8.26 412.29 8.50
  Q 413.93 9.51 413.01 11.44
  A 0.94 0.94 0.0 0 0 412.98 12.15
  Q 413.38 13.21 414.17 13.76
  Q 414.46 13.96 414.52 14.30
  L 414.77 15.75
  Q 414.82 15.99 414.88 15.76
  Q 415.00 15.33 415.03 14.96
  Q 415.11 13.91 415.50 14.45
  Q 415.75 14.80 416.09 15.77
  L 416.02 87.23
  A 0.96 0.96 0.0 0 0 416.98 88.19
  L 433.75 88.11
  Q 434.11 88.11 434.11 87.74
  L 434.09 43.72
  Q 434.09 41.16 435.50 43.30
  L 464.66 87.68
  Q 464.97 88.15 465.53 88.14
  L 483.14 88.07
  Q 482.76 89.48 483.71 90.39
  Q 484.12 90.78 483.96 91.33
  Q 483.62 92.51 482.23 92.37
  A 0.76 0.75 15.9 0 0 481.48 92.78
  Q 479.87 95.87 481.00 99.23
  A 1.65 1.65 0.0 0 1 479.80 101.37
  Q 478.70 101.62 478.42 102.48
  Q 478.25 103.03 477.67 102.99
  L 476.51 102.89
  Q 475.13 102.78 476.27 103.56
  Q 477.55 104.45 478.94 103.75
  A 0.44 0.44 0.0 0 1 479.57 104.06
  C 479.92 105.78 479.76 106.54 478.75 108.11
  Q 478.14 109.07 477.91 110.31
  Q 477.84 110.73 477.59 111.08
  Q 476.90 112.02 477.23 113.12
  Q 477.38 113.62 477.88 113.78
  L 478.99 114.14
  Q 479.44 114.28 479.45 114.74
  L 479.64 122.26
  Q 479.65 122.71 479.28 122.97
  Q 478.64 123.41 479.02 123.95
  A 0.32 0.32 0.0 0 1 478.54 124.38
  Q 477.24 123.25 476.68 124.00
  Q 475.27 121.02 471.31 122.22
  Q 470.72 122.39 470.72 123.00
  L 470.74 142.91
  A 0.73 0.72 3.6 0 0 471.38 143.63
  L 473.34 143.86
  Q 474.69 144.02 474.69 142.65
  L 474.67 129.25
  A 0.37 0.37 0.0 0 1 475.36 129.05
  L 482.11 140.15
  Q 484.40 144.65 483.83 148.53
  Q 483.80 148.72 483.99 148.78
  Q 484.22 148.85 484.40 148.79
  Q 484.70 148.68 484.73 149.00
  L 485.28 154.74
  A 0.82 0.81 19.3 0 0 485.53 155.25
  L 487.75 157.34
  Q 488.04 157.62 488.40 157.44
  L 490.29 156.52
  A 0.23 0.23 0.0 0 0 490.23 156.09
  Q 490.09 156.07 489.97 156.05
  Q 489.67 155.99 489.92 155.81
  Q 491.34 154.85 492.00 156.34
  Q 492.21 156.82 492.23 157.34
  Q 492.24 157.48 492.27 157.62
  Q 492.35 158.02 492.74 158.13
  L 493.60 158.39
  Q 493.90 158.48 493.59 158.45
  Q 488.60 157.99 483.86 159.00
  L 97.51 159.00
  Q 83.94 158.56 70.39 158.10
  Q 69.10 158.06 67.87 156.76
  Q 67.53 156.39 67.94 156.11
  L 69.84 154.79
  Q 70.21 154.52 70.66 154.46
  L 73.92 153.97
  Q 74.28 153.92 74.64 154.00
  Q 75.60 154.23 76.58 153.88
  Q 77.02 153.72 77.48 153.81
  C 80.76 154.39 83.62 148.10 84.36 146.21
  A 0.88 0.87 31.2 0 0 84.11 145.22
  L 80.60 142.24
  A 2.19 2.18 36.3 0 1 80.16 139.41
  Q 80.96 138.16 80.54 136.58
  A 0.98 0.98 0.0 0 1 82.32 135.81
  L 83.35 137.48
  Q 83.64 137.97 84.03 137.55
  Q 84.77 136.76 85.50 137.58
  Q 85.18 141.04 86.80 142.46
  Q 90.35 145.58 94.70 142.72
  Q 96.25 140.42 98.46 141.58
  Q 101.98 144.55 107.32 143.67
  L 109.29 143.19
  Q 109.73 143.08 110.03 142.73
  Q 110.62 142.02 111.89 141.60
  Q 112.41 141.43 112.39 140.66
  A 0.39 0.39 0.0 0 1 113.10 140.43
  L 113.50 140.98
  A 0.18 0.17 25.5 0 0 113.82 140.87
  L 113.79 140.59
  A 0.29 0.28 72.3 0 1 113.92 140.33
  L 114.18 140.16
  Q 114.65 139.86 114.89 140.37
  Q 115.29 141.23 116.31 141.54
  Q 122.76 146.32 127.96 141.49
  C 128.92 140.60 129.10 138.99 127.82 138.29
  A 0.82 0.81 38.3 0 0 126.88 138.40
  Q 123.73 141.22 121.16 140.43
  C 117.11 139.20 117.55 129.67 123.45 130.17
  Q 123.98 130.21 124.35 130.60
  L 126.03 132.38
  A 0.74 0.73 46.4 0 0 127.07 132.41
  L 128.62 130.96
  Q 129.06 130.54 128.72 130.04
  Q 127.18 127.74 124.01 127.09
  Q 124.29 125.88 123.08 125.79
  Q 121.36 125.65 119.98 126.57
  Q 119.90 126.63 119.80 126.64
  Q 119.65 126.65 119.75 126.60
  Q 119.87 126.55 119.99 126.49
  A 0.26 0.26 0.0 0 0 119.99 126.03
  Q 118.40 125.25 116.73 125.75
  Q 116.17 125.92 115.78 125.49
  Q 115.17 124.81 114.18 125.21
  Q 113.79 125.36 113.37 125.39
  Q 112.54 125.46 111.68 125.67
  A 0.32 0.32 0.0 0 1 111.45 125.08
  Q 112.12 124.71 111.67 124.00
  Q 111.25 123.35 112.02 123.31
  L 112.91 123.26
  Q 113.12 123.24 113.15 123.04
  L 113.22 122.61
  Q 113.25 122.38 113.48 122.39
  L 114.84 122.39
  Q 115.29 122.39 115.44 121.96
  L 115.88 120.68
  A 0.63 0.63 0.0 0 0 115.38 119.85
  L 109.46 119.00
  Q 108.99 118.93 108.87 119.39
  L 108.04 122.56
  A 0.35 0.35 0.0 0 1 107.36 122.56
  L 107.29 122.29
  Q 107.20 121.98 106.93 122.16
  L 106.50 122.43
  A 0.09 0.08 -16.1 0 1 106.37 122.36
  L 106.31 121.14
  Q 106.29 120.62 105.77 120.63
  L 105.37 120.64
  Q 105.21 120.64 105.25 120.80
  L 105.41 121.48
  Q 105.41 121.51 105.39 121.49
  L 105.07 121.16
  Q 104.90 120.99 104.78 121.20
  Q 104.69 121.37 104.65 121.56
  Q 104.61 121.75 104.51 121.59
  L 103.28 119.73
  Q 102.94 119.21 102.37 118.95
  Q 101.64 118.61 101.94 117.70
  Q 102.08 117.28 102.50 117.11
  Q 102.65 117.05 102.86 116.93
  A 0.40 0.39 56.8 0 0 102.98 116.35
  Q 100.72 113.39 102.67 109.89
  Q 102.93 109.41 102.65 108.94
  Q 101.88 107.66 102.29 106.16
  Q 102.41 105.70 102.75 105.37
  L 104.42 103.78
  Q 104.99 103.24 104.43 102.69
  L 104.25 102.51
  A 0.46 0.46 0.0 0 1 104.56 101.72
  Q 106.65 101.63 107.98 99.89
  A 0.32 0.32 0.0 0 0 107.65 99.39
  L 106.81 99.59
  A 0.35 0.35 0.0 0 1 106.37 99.25
  L 106.37 98.98
  Q 106.37 98.76 106.15 98.77
  L 103.24 98.92
  Q 102.76 98.95 103.09 98.60
  L 103.95 97.70
  A 0.31 0.31 0.0 0 0 103.80 97.18
  L 103.41 97.08
  A 0.48 0.48 0.0 0 1 103.22 96.24
  Q 104.86 94.88 107.48 95.29
  Q 108.13 95.39 108.61 94.95
  Q 111.15 92.63 110.67 89.84
  Q 110.60 89.39 110.83 88.99
  Q 111.94 87.05 111.29 84.42
  L 114.19 75.43
  Q 114.36 74.91 114.90 74.91
  L 142.30 74.84
  Q 142.81 74.84 142.97 75.32
  L 147.06 87.74
  Q 147.22 88.22 147.74 88.22
  L 165.51 88.18
  A 0.66 0.66 0.0 0 0 166.13 87.30
  L 141.90 20.24
  Q 142.59 18.81 141.81 17.69
  Q 141.53 17.28 141.46 16.79
  Q 141.33 15.85 141.19 14.86
  Q 141.12 14.34 140.64 14.13
  Q 140.18 13.93 140.52 13.74
  Q 140.76 13.62 140.40 12.60
  Q 140.10 11.76 139.26 11.68
  Q 138.99 11.65 138.99 11.90
  Q 138.99 11.98 139.03 12.04
  Q 139.08 12.13 139.00 12.13
  L 138.28 12.13
  A 0.02 0.01 47.7 0 0 138.28 12.16
  Q 138.52 12.21 138.71 11.97
  Q 138.97 11.67 138.58 11.63
  Q 137.89 11.55 137.49 11.97
  Q 137.12 12.36 136.57 12.33
  L 127.21 11.81
  A 1.54 1.54 0.0 0 1 125.87 9.68
  Q 126.16 8.98 125.90 8.24
  Q 125.77 7.83 126.12 7.58
  L 127.68 6.43
  Q 128.10 6.12 127.68 5.82
  Q 127.11 5.41 126.61 5.89
  Q 126.12 6.37 125.63 5.88
  L 125.38 5.63
  A 0.13 0.13 0.0 0 1 125.49 5.41
  L 127.63 5.67
  A 0.60 0.59 0.0 0 0 128.30 5.01
  Q 128.12 3.60 126.89 4.14
  Q 126.64 4.25 126.76 4.51
  A 0.09 0.08 6.3 0 1 126.63 4.61
  L 126.19 4.33
  A 0.26 0.26 0.0 0 1 126.21 3.88
  Q 127.77 3.12 129.64 3.44
  Q 129.90 3.48 130.14 3.58
  Q 130.89 3.87 131.48 3.20
  A 0.19 0.18 46.0 0 1 131.76 3.21
  Q 133.43 5.39 134.40 4.62
  Q 134.77 4.34 135.21 4.48
  C 136.52 4.90 137.09 4.28 138.05 4.20
  Q 140.85 3.96 143.08 5.62
  Q 143.52 5.95 143.30 6.47
  Q 142.77 7.67 143.90 8.61
  Q 144.47 9.09 145.06 8.65
  L 145.46 8.35
  A 0.43 0.43 0.0 0 1 146.15 8.73
  L 146.07 9.88
  Q 146.03 10.45 146.59 10.52
  Q 147.48 10.64 147.74 10.00
  A 0.84 0.69 -20.7 0 1 147.85 9.81
  Q 149.77 7.48 152.37 8.50
  A 0.38 0.38 0.0 0 0 152.78 7.87
  L 152.45 7.54
  Q 152.31 7.40 152.50 7.35
  Q 152.62 7.31 152.74 7.26
  A 0.58 0.58 0.0 0 0 153.07 6.79
  Q 153.26 4.99 154.46 3.73
  A 0.76 0.75 48.8 0 0 154.52 2.75
  Q 153.89 1.92 154.34 0.99
  Q 154.53 0.61 154.93 0.45
  L 156.13 0.00
  Z
  M 190.37 27.36
  A 0.42 0.42 0.0 0 1 190.79 27.78
  L 190.80 87.80
  A 0.42 0.42 0.0 0 0 191.22 88.22
  L 208.40 88.13
  A 0.42 0.42 0.0 0 0 208.82 87.71
  L 208.82 27.78
  A 0.42 0.42 0.0 0 1 209.24 27.36
  L 228.42 27.34
  A 0.42 0.42 0.0 0 0 228.84 26.92
  L 228.92 13.46
  A 0.42 0.42 0.0 0 0 228.50 13.04
  L 171.19 12.97
  A 0.42 0.42 0.0 0 0 170.77 13.39
  L 170.70 27.04
  A 0.42 0.42 0.0 0 0 171.12 27.46
  L 190.37 27.36
  Z
  M 281.31 64.85
  A 0.25 0.25 0.0 0 1 280.85 64.85
  L 259.97 13.21
  A 0.25 0.25 0.0 0 0 259.74 13.05
  L 238.53 13.01
  A 0.25 0.25 0.0 0 0 238.28 13.26
  L 238.43 87.98
  A 0.25 0.25 0.0 0 0 238.68 88.23
  L 256.15 88.17
  A 0.25 0.25 0.0 0 0 256.40 87.92
  L 256.31 44.33
  A 0.25 0.25 0.0 0 1 256.34 44.20
  L 256.65 43.67
  A 0.25 0.25 0.0 0 1 257.10 43.71
  L 273.55 88.08
  A 0.25 0.25 0.0 0 0 273.79 88.24
  L 288.15 88.08
  A 0.25 0.25 0.0 0 0 288.38 87.92
  L 305.01 43.11
  A 0.25 0.25 0.0 0 1 305.50 43.20
  L 305.41 87.95
  A 0.25 0.25 0.0 0 0 305.66 88.20
  L 323.24 88.15
  A 0.25 0.25 0.0 0 0 323.49 87.90
  L 323.47 13.29
  A 0.25 0.25 0.0 0 0 323.22 13.04
  L 302.08 13.04
  A 0.25 0.25 0.0 0 0 301.85 13.20
  L 281.31 64.85
  Z
  M 383.43 74.87
  A 0.53 0.53 0.0 0 1 383.93 75.23
  L 388.12 87.82
  A 0.53 0.53 0.0 0 0 388.63 88.19
  L 406.63 88.07
  A 0.53 0.53 0.0 0 0 407.13 87.35
  L 380.40 13.38
  A 0.53 0.53 0.0 0 0 379.90 13.03
  L 359.48 12.96
  A 0.53 0.53 0.0 0 0 358.98 13.31
  L 332.30 87.34
  A 0.53 0.53 0.0 0 0 332.80 88.05
  L 350.58 88.12
  A 0.53 0.53 0.0 0 0 351.08 87.76
  L 355.23 75.31
  A 0.53 0.53 0.0 0 1 355.73 74.95
  L 383.43 74.87
  Z
  M 291.10 128.77
  C 283.85 124.28 278.78 129.99 279.76 137.33
  C 280.58 143.34 285.50 145.92 290.87 142.06
  Q 291.30 141.76 291.47 142.25
  Q 292.17 144.29 294.47 143.93
  A 0.93 0.92 85.3 0 0 295.24 143.01
  L 295.24 121.14
  Q 295.24 120.54 294.63 120.59
  L 292.15 120.82
  A 0.75 0.75 0.0 0 0 291.48 121.57
  L 291.55 128.52
  Q 291.55 129.05 291.10 128.77
  Z
  M 135.96 128.79
  L 136.19 121.65
  Q 136.21 120.84 135.40 120.88
  L 133.18 120.98
  Q 132.61 121.00 132.61 121.57
  L 132.62 143.08
  Q 132.62 143.53 133.08 143.55
  L 135.74 143.66
  A 0.55 0.55 0.0 0 0 136.31 143.06
  Q 135.60 135.63 136.20 133.23
  C 136.95 130.23 142.93 128.24 143.16 132.96
  Q 143.40 138.00 143.03 143.11
  A 0.57 0.56 2.3 0 0 143.60 143.72
  L 146.19 143.72
  Q 146.77 143.72 146.78 143.13
  Q 146.78 138.95 146.77 134.74
  C 146.77 129.99 145.48 125.92 139.73 127.60
  C 138.66 127.91 137.71 128.66 136.63 129.21
  Q 135.94 129.57 135.96 128.79
  Z
  M 423.19 128.82
  C 410.97 121.43 408.23 141.57 416.67 143.68
  Q 419.84 144.47 422.84 142.01
  A 0.53 0.52 63.0 0 1 423.68 142.29
  Q 423.95 143.36 424.92 143.78
  A 1.65 1.64 -78.0 0 0 427.22 142.28
  L 427.35 121.46
  Q 427.35 120.93 426.82 120.91
  L 425.08 120.82
  Q 423.39 120.74 423.45 122.43
  L 423.68 128.53
  Q 423.70 129.13 423.19 128.82
  Z
  M 443.24 127.36
  L 443.30 125.15
  A 2.09 2.08 6.3 0 1 445.79 123.16
  L 448.19 123.64
  A 1.31 1.30 -32.2 0 0 448.77 121.10
  Q 444.66 120.07 441.36 122.04
  A 1.15 1.13 81.7 0 0 440.81 122.79
  L 439.86 126.97
  A 0.70 0.69 -8.4 0 1 439.53 127.41
  L 438.18 128.18
  A 0.70 0.70 0.0 0 0 437.86 129.03
  Q 438.25 130.08 439.43 130.34
  A 1.40 1.39 -84.0 0 1 440.52 131.69
  L 440.62 143.03
  A 0.66 0.65 0.4 0 0 441.27 143.68
  L 443.03 143.70
  Q 443.78 143.71 443.78 142.96
  L 443.75 130.68
  A 0.54 0.54 0.0 0 1 444.32 130.14
  L 447.70 130.30
  Q 448.44 130.33 448.47 129.60
  L 448.54 127.99
  A 0.59 0.59 0.0 0 0 447.86 127.38
  L 443.95 127.98
  A 0.62 0.61 -3.6 0 1 443.24 127.36
  Z
  M 178.12 125.31
  A 0.43 0.43 0.0 0 1 178.58 125.74
  L 178.56 143.18
  A 0.43 0.43 0.0 0 0 178.99 143.61
  L 181.96 143.63
  A 0.43 0.43 0.0 0 0 182.39 143.20
  L 182.40 125.79
  A 0.43 0.43 0.0 0 1 182.84 125.36
  L 188.34 125.55
  A 0.43 0.43 0.0 0 0 188.79 125.13
  L 188.88 122.59
  A 0.43 0.43 0.0 0 0 188.45 122.14
  L 172.79 122.15
  A 0.43 0.43 0.0 0 0 172.36 122.58
  L 172.37 125.21
  A 0.43 0.43 0.0 0 0 172.83 125.64
  L 178.12 125.31
  Z
  M 336.72 130.29
  Q 337.15 136.72 336.79 143.14
  Q 336.76 143.66 337.28 143.68
  L 339.92 143.75
  Q 340.59 143.77 340.60 143.09
  L 340.65 122.57
  Q 340.65 121.99 340.07 121.99
  L 336.07 122.01
  A 0.95 0.95 0.0 0 0 335.17 122.65
  L 330.14 137.39
  Q 329.62 138.91 329.10 137.38
  L 324.19 122.64
  A 0.90 0.89 -9.0 0 0 323.34 122.03
  L 319.17 122.06
  Q 318.66 122.06 318.66 122.58
  L 318.75 143.05
  A 0.56 0.56 0.0 0 0 319.31 143.60
  L 321.71 143.57
  Q 322.23 143.57 322.23 143.04
  L 322.16 130.96
  Q 322.13 127.15 323.37 130.75
  L 327.33 142.29
  A 2.34 2.34 0.0 0 0 331.76 142.29
  L 335.88 130.18
  Q 336.57 128.16 336.72 130.29
  Z
  M 384.93 139.25
  L 385.95 143.00
  Q 386.11 143.60 386.72 143.62
  L 389.67 143.74
  A 0.71 0.70 82.1 0 0 390.37 142.81
  L 383.61 122.96
  Q 383.44 122.47 382.97 122.27
  Q 380.46 121.21 378.62 122.26
  Q 377.21 123.06 376.33 125.83
  Q 373.59 134.43 370.60 142.90
  A 0.79 0.78 -83.6 0 0 371.43 143.95
  L 374.11 143.62
  A 0.84 0.83 -83.8 0 0 374.80 143.06
  L 376.09 139.31
  Q 376.28 138.75 376.88 138.75
  L 384.23 138.72
  A 0.73 0.73 0.0 0 1 384.93 139.25
  Z
  M 219.64 129.18
  L 222.52 130.45
  Q 222.90 130.61 222.89 131.02
  C 222.74 136.78 221.17 145.74 230.38 143.59
  A 1.83 1.41 -48.2 0 0 230.62 140.34
  L 228.24 140.68
  A 1.68 1.68 0.0 0 1 226.32 138.99
  L 226.44 130.85
  A 0.69 0.69 0.0 0 1 227.15 130.17
  L 230.50 130.26
  Q 231.13 130.28 231.19 129.65
  L 231.34 128.10
  A 0.69 0.69 0.0 0 0 230.59 127.34
  L 227.16 127.68
  A 0.76 0.76 0.0 0 1 226.33 126.90
  L 226.42 124.23
  A 0.72 0.71 -4.5 0 0 225.56 123.50
  L 223.50 123.93
  Q 222.90 124.05 222.95 124.66
  C 223.19 127.59 221.30 128.57 218.84 127.57
  C 216.38 126.58 215.09 128.41 213.31 129.75
  A 0.43 0.42 72.0 0 1 212.63 129.40
  Q 212.67 126.65 210.17 127.18
  A 0.99 0.98 84.0 0 0 209.38 128.16
  L 209.50 143.00
  A 0.77 0.77 0.0 0 0 210.27 143.76
  L 212.13 143.76
  Q 212.82 143.75 212.79 143.07
  Q 212.67 139.94 213.03 134.25
  C 213.26 130.77 215.35 130.78 218.14 130.57
  Q 218.70 130.53 218.87 130.00
  L 219.05 129.45
  Q 219.19 128.99 219.64 129.18
  Z
  M 258.05 142.17
  C 263.55 146.02 268.45 143.19 269.48 137.13
  C 270.19 132.91 267.74 126.21 262.29 127.21
  C 260.96 127.45 259.66 128.26 258.33 128.90
  A 0.65 0.64 59.1 0 1 257.53 128.69
  Q 256.37 127.08 254.35 127.28
  Q 253.77 127.34 253.77 127.92
  L 253.79 149.84
  Q 253.80 150.40 254.35 150.37
  L 257.00 150.25
  Q 257.81 150.22 257.77 149.41
  L 257.46 142.50
  Q 257.42 141.73 258.05 142.17
  Z
  M 353.7881 144.0414
  A 8.52 8.13 85.3 0 0 361.1927 134.8838
  A 8.52 8.13 85.3 0 0 352.3919 127.0586
  A 8.52 8.13 85.3 0 0 344.9873 136.2162
  A 8.52 8.13 85.3 0 0 353.7881 144.0414
  Z
  M 397.00 128.96
  L 396.64 127.55
  Q 396.47 126.88 395.78 126.96
  L 394.18 127.13
  A 0.68 0.67 -3.3 0 0 393.58 127.80
  L 393.47 142.76
  A 0.78 0.77 -90.0 0 0 394.24 143.54
  L 396.84 143.56
  A 0.67 0.66 87.7 0 0 397.51 142.83
  C 397.28 140.42 396.66 133.34 398.33 131.53
  C 400.23 129.47 404.02 129.65 404.10 133.26
  Q 404.22 138.19 404.09 143.20
  A 0.63 0.63 0.0 0 0 404.72 143.84
  L 407.32 143.86
  Q 408.04 143.87 408.03 143.15
  C 408.01 137.20 410.33 121.44 397.79 129.28
  Q 397.18 129.65 397.00 128.96
  Z
  M 165.55 140.52
  Q 162.16 141.52 159.97 139.06
  A 0.81 0.80 42.9 0 0 158.73 139.10
  L 157.30 140.94
  A 0.59 0.58 37.2 0 0 157.42 141.77
  C 160.87 144.28 167.73 145.55 169.97 140.82
  Q 171.36 137.89 168.67 134.96
  A 1.30 1.23 74.3 0 0 168.05 134.59
  L 162.51 133.18
  A 1.44 1.44 0.0 0 1 162.48 130.39
  Q 165.28 129.61 167.39 131.38
  A 0.67 0.67 0.0 0 0 168.33 131.31
  L 169.19 130.31
  A 1.59 1.59 0.0 0 0 168.40 127.74
  C 164.11 126.56 156.89 126.60 157.93 133.19
  C 158.41 136.19 163.22 136.95 165.53 137.62
  A 1.51 1.51 0.0 0 1 165.55 140.52
  Z
  M 201.38 142.14
  Q 202.24 144.21 204.68 143.94
  A 1.70 1.70 0.0 0 0 205.30 140.75
  L 204.62 140.38
  A 0.96 0.95 13.3 0 1 204.12 139.58
  Q 203.98 135.55 203.90 131.49
  C 203.79 125.37 195.24 126.94 191.86 129.30
  Q 191.38 129.65 191.59 130.20
  L 192.25 131.93
  A 0.69 0.69 0.0 0 0 193.42 132.13
  Q 195.85 129.27 199.49 130.22
  A 1.63 1.62 44.2 0 1 199.54 133.35
  C 196.67 134.17 191.35 134.33 191.05 138.25
  Q 190.63 143.59 195.27 144.02
  C 197.43 144.22 198.79 143.06 200.49 141.88
  A 0.59 0.59 0.0 0 1 201.38 142.14
  Z
  M 245.33 141.98
  Q 245.58 143.22 246.59 143.85
  A 1.24 1.24 0.0 0 0 248.48 142.79
  L 248.37 128.03
  Q 248.37 127.32 247.66 127.36
  L 245.89 127.44
  Q 245.27 127.47 245.25 128.10
  L 245.00 138.55
  Q 244.98 139.13 244.52 139.48
  Q 242.69 140.90 240.31 140.99
  A 1.98 1.97 88.9 0 1 238.26 139.01
  L 238.26 127.92
  Q 238.27 127.33 237.67 127.35
  L 235.61 127.42
  A 0.66 0.66 0.0 0 0 234.97 128.05
  Q 234.71 132.66 234.88 137.28
  C 235.04 141.81 236.18 145.06 241.70 143.57
  C 242.87 143.25 243.56 142.22 244.69 141.66
  A 0.46 0.45 71.0 0 1 245.33 141.98
  Z
  M 304.03 136.25
  L 313.45 136.44
  Q 313.92 136.45 314.00 135.98
  C 315.85 125.55 302.41 124.26 299.83 132.20
  C 298.31 136.86 299.80 142.62 305.22 143.68
  C 307.42 144.11 313.67 143.71 313.73 140.24
  A 1.67 1.67 0.0 0 0 310.75 139.17
  C 308.50 142.01 302.69 140.63 303.54 136.63
  Q 303.63 136.24 304.03 136.25
  Z
  M 462.22 142.34
  Q 462.51 144.07 464.04 144.10
  A 1.11 1.11 0.0 0 0 465.17 142.99
  L 465.14 128.35
  Q 465.13 127.54 464.33 127.52
  L 462.34 127.47
  Q 461.88 127.46 461.88 127.92
  L 461.92 138.02
  A 1.21 1.19 67.8 0 1 461.57 138.87
  Q 459.38 141.11 456.24 140.97
  Q 455.65 140.94 455.36 140.44
  C 454.03 138.13 454.78 131.06 454.94 128.22
  Q 454.97 127.57 454.33 127.46
  L 452.77 127.20
  A 0.72 0.71 -82.3 0 0 451.93 127.84
  C 451.53 132.01 450.81 137.93 452.34 141.94
  A 1.40 1.37 5.6 0 0 452.93 142.64
  Q 457.22 145.23 460.73 141.85
  Q 461.94 140.67 462.22 142.34
  Z"
/>
<path fill="#e7f3e9" d="
  M 390.00 0.00
  L 581.00 0.00
  L 581.00 159.00
  L 483.86 159.00
  Q 488.60 157.99 493.59 158.45
  Q 493.90 158.48 493.60 158.39
  L 492.74 158.13
  Q 492.35 158.02 492.27 157.62
  Q 492.24 157.48 492.23 157.34
  Q 492.21 156.82 492.00 156.34
  Q 491.34 154.85 489.92 155.81
  Q 489.67 155.99 489.97 156.05
  Q 490.09 156.07 490.23 156.09
  A 0.23 0.23 0.0 0 1 490.29 156.52
  L 488.40 157.44
  Q 488.04 157.62 487.75 157.34
  L 485.53 155.25
  A 0.82 0.81 19.3 0 1 485.28 154.74
  L 484.73 149.00
  Q 484.70 148.68 484.40 148.79
  Q 484.22 148.85 483.99 148.78
  Q 483.80 148.72 483.83 148.53
  Q 484.40 144.65 482.11 140.15
  Q 484.31 144.75 488.24 143.60
  Q 488.73 143.46 488.73 142.95
  L 488.67 122.71
  A 0.72 0.72 0.0 0 0 487.96 121.99
  L 485.37 121.95
  A 0.68 0.68 0.0 0 0 484.68 122.63
  L 484.70 135.27
  A 0.48 0.47 29.0 0 1 483.82 135.52
  L 476.68 124.00
  Q 477.24 123.25 478.54 124.38
  A 0.32 0.32 0.0 0 0 479.02 123.95
  Q 478.64 123.41 479.28 122.97
  Q 479.65 122.71 479.64 122.26
  L 479.45 114.74
  Q 479.44 114.28 478.99 114.14
  L 477.88 113.78
  Q 477.38 113.62 477.23 113.12
  Q 476.90 112.02 477.59 111.08
  Q 477.84 110.73 477.91 110.31
  Q 478.14 109.07 478.75 108.11
  C 479.76 106.54 479.92 105.78 479.57 104.06
  A 0.44 0.44 0.0 0 0 478.94 103.75
  Q 477.55 104.45 476.27 103.56
  Q 475.13 102.78 476.51 102.89
  L 477.67 102.99
  Q 478.25 103.03 478.42 102.48
  Q 478.70 101.62 479.80 101.37
  A 1.65 1.65 0.0 0 0 481.00 99.23
  Q 479.87 95.87 481.48 92.78
  A 0.76 0.75 15.9 0 1 482.23 92.37
  Q 483.62 92.51 483.96 91.33
  Q 484.12 90.78 483.71 90.39
  Q 482.76 89.48 483.14 88.07
  L 483.09 13.42
  Q 483.09 13.04 482.71 13.04
  L 465.73 13.03
  Q 465.23 13.02 465.24 13.52
  L 465.26 58.54
  A 0.50 0.50 0.0 0 1 464.34 58.82
  L 434.65 13.50
  Q 434.33 13.00 433.73 13.00
  L 416.69 13.00
  Q 416.14 13.00 416.03 13.54
  Q 415.83 14.57 416.09 15.77
  Q 415.75 14.80 415.50 14.45
  Q 415.11 13.91 415.03 14.96
  Q 415.00 15.33 414.88 15.76
  Q 414.82 15.99 414.77 15.75
  L 414.52 14.30
  Q 414.46 13.96 414.17 13.76
  Q 413.38 13.21 412.98 12.15
  A 0.94 0.94 0.0 0 1 413.01 11.44
  Q 413.93 9.51 412.29 8.50
  Q 411.90 8.26 411.87 7.81
  Q 411.63 4.77 408.93 3.37
  Q 408.48 3.14 408.01 3.29
  Q 407.14 3.58 406.56 2.33
  Q 406.47 2.12 406.67 2.03
  Q 406.80 1.97 406.87 1.86
  Q 407.13 1.46 406.65 1.42
  L 390.00 0.00
  Z
  M 504.88 121.37
  Q 505.61 125.01 505.25 128.36
  A 0.69 0.69 0.0 0 1 504.19 128.86
  C 493.81 122.14 490.38 138.23 496.22 142.48
  C 499.38 144.78 501.57 143.37 504.67 141.84
  A 0.49 0.49 0.0 0 1 505.36 142.16
  Q 505.90 144.34 508.20 143.64
  A 0.70 0.69 81.2 0 0 508.69 142.96
  L 508.42 121.52
  Q 508.42 121.12 508.02 121.07
  L 504.93 120.67
  Q 504.41 120.60 504.59 121.08
  Q 504.67 121.28 504.88 121.37
  Z
  M 517.28 121.09
  L 514.26 121.21
  A 0.72 0.72 0.0 0 0 513.57 121.96
  L 513.59 122.43
  A 2.77 2.08 87.7 0 0 515.78 125.11
  L 516.08 125.10
  A 2.77 2.08 87.7 0 0 518.05 122.25
  L 518.03 121.78
  A 0.72 0.72 0.0 0 0 517.28 121.09
  Z
  M 559.39 121.23
  A 0.88 0.87 -6.9 0 0 558.42 122.46
  Q 563.84 134.11 558.17 145.61
  Q 557.98 145.99 558.19 146.37
  Q 558.77 147.44 560.18 146.79
  A 2.21 2.19 -85.9 0 0 561.12 145.97
  Q 568.18 135.02 562.02 122.99
  Q 561.32 121.62 559.39 121.23
  Z
  M 543.33 137.77
  Q 541.07 139.43 542.51 141.90
  A 0.74 0.74 0.0 0 1 542.47 142.73
  L 540.47 145.38
  Q 540.14 145.82 540.21 146.35
  C 540.91 151.39 549.11 151.07 552.42 149.96
  C 555.31 148.99 556.64 145.42 555.19 142.74
  C 553.82 140.22 548.44 140.69 546.08 140.55
  A 1.30 1.30 0.0 0 1 546.00 137.96
  C 549.23 137.56 552.96 138.13 553.89 133.89
  C 554.43 131.43 552.34 129.50 554.63 126.89
  A 1.03 1.03 0.0 0 0 554.26 125.26
  Q 553.13 124.78 552.56 125.99
  Q 552.21 126.74 551.62 127.40
  A 0.87 0.86 26.5 0 1 550.80 127.67
  C 545.95 126.66 541.66 127.51 541.95 133.29
  C 542.02 134.73 542.75 135.64 543.50 136.82
  Q 543.86 137.38 543.33 137.77
  Z
  M 517.6355 128.4938
  A 1.29 1.29 0.0 0 0 516.3410 127.2083
  L 515.3410 127.2118
  A 1.29 1.29 0.0 0 0 514.0555 128.5063
  L 514.1045 142.5262
  A 1.29 1.29 0.0 0 0 515.3990 143.8117
  L 516.3990 143.8082
  A 1.29 1.29 0.0 0 0 517.6845 142.5137
  L 517.6355 128.4938
  Z
  M 533.11 131.50
  L 533.43 143.14
  Q 533.45 143.74 534.05 143.75
  L 536.27 143.79
  Q 536.99 143.81 536.98 143.09
  Q 536.88 139.48 537.13 133.00
  C 537.38 126.43 531.05 126.40 526.95 129.16
  A 0.57 0.56 62.9 0 1 526.10 128.88
  Q 525.35 126.82 523.38 127.47
  Q 522.82 127.65 522.82 128.24
  L 522.72 143.06
  Q 522.71 143.73 523.38 143.75
  L 525.37 143.81
  A 1.06 1.06 0.0 0 0 526.45 142.58
  C 525.99 139.69 525.28 132.47 528.26 130.68
  Q 530.37 129.41 532.69 130.79
  A 0.85 0.84 14.7 0 1 533.11 131.50
  Z"
/>
<path fill="#036463" d="
  M 141.90 20.24
  L 166.13 87.30
  A 0.66 0.66 0.0 0 1 165.51 88.18
  L 147.74 88.22
  Q 147.22 88.22 147.06 87.74
  L 142.97 75.32
  Q 142.81 74.84 142.30 74.84
  L 114.90 74.91
  Q 114.36 74.91 114.19 75.43
  L 111.29 84.42
  L 109.94 87.63
  Q 109.70 88.18 109.11 88.18
  L 91.72 88.14
  A 0.52 0.52 0.0 0 1 91.23 87.44
  L 117.72 14.08
  A 1.53 1.53 0.0 0 1 119.16 13.06
  L 138.82 12.98
  Q 139.34 12.97 139.52 13.47
  L 141.90 20.24
  Z
  M 119.32 60.34
  A 0.48 0.48 0.0 0 0 119.77 60.97
  L 137.46 61.01
  A 0.48 0.48 0.0 0 0 137.91 60.37
  L 129.12 33.97
  A 0.48 0.48 0.0 0 0 128.21 33.97
  L 119.32 60.34
  Z"
/>
<path fill="#036463" d="
  M 190.37 27.36
  L 171.12 27.46
  A 0.42 0.42 0.0 0 1 170.70 27.04
  L 170.77 13.39
  A 0.42 0.42 0.0 0 1 171.19 12.97
  L 228.50 13.04
  A 0.42 0.42 0.0 0 1 228.92 13.46
  L 228.84 26.92
  A 0.42 0.42 0.0 0 1 228.42 27.34
  L 209.24 27.36
  A 0.42 0.42 0.0 0 0 208.82 27.78
  L 208.82 87.71
  A 0.42 0.42 0.0 0 1 208.40 88.13
  L 191.22 88.22
  A 0.42 0.42 0.0 0 1 190.80 87.80
  L 190.79 27.78
  A 0.42 0.42 0.0 0 0 190.37 27.36
  Z"
/>
<path fill="#036463" d="
  M 281.31 64.85
  L 301.85 13.20
  A 0.25 0.25 0.0 0 1 302.08 13.04
  L 323.22 13.04
  A 0.25 0.25 0.0 0 1 323.47 13.29
  L 323.49 87.90
  A 0.25 0.25 0.0 0 1 323.24 88.15
  L 305.66 88.20
  A 0.25 0.25 0.0 0 1 305.41 87.95
  L 305.50 43.20
  A 0.25 0.25 0.0 0 0 305.01 43.11
  L 288.38 87.92
  A 0.25 0.25 0.0 0 1 288.15 88.08
  L 273.79 88.24
  A 0.25 0.25 0.0 0 1 273.55 88.08
  L 257.10 43.71
  A 0.25 0.25 0.0 0 0 256.65 43.67
  L 256.34 44.20
  A 0.25 0.25 0.0 0 0 256.31 44.33
  L 256.40 87.92
  A 0.25 0.25 0.0 0 1 256.15 88.17
  L 238.68 88.23
  A 0.25 0.25 0.0 0 1 238.43 87.98
  L 238.28 13.26
  A 0.25 0.25 0.0 0 1 238.53 13.01
  L 259.74 13.05
  A 0.25 0.25 0.0 0 1 259.97 13.21
  L 280.85 64.85
  A 0.25 0.25 0.0 0 0 281.31 64.85
  Z"
/>
<path fill="#036463" d="
  M 383.43 74.87
  L 355.73 74.95
  A 0.53 0.53 0.0 0 0 355.23 75.31
  L 351.08 87.76
  A 0.53 0.53 0.0 0 1 350.58 88.12
  L 332.80 88.05
  A 0.53 0.53 0.0 0 1 332.30 87.34
  L 358.98 13.31
  A 0.53 0.53 0.0 0 1 359.48 12.96
  L 379.90 13.03
  A 0.53 0.53 0.0 0 1 380.40 13.38
  L 407.13 87.35
  A 0.53 0.53 0.0 0 1 406.63 88.07
  L 388.63 88.19
  A 0.53 0.53 0.0 0 1 388.12 87.82
  L 383.93 75.23
  A 0.53 0.53 0.0 0 0 383.43 74.87
  Z
  M 360.18 60.63
  A 0.33 0.33 0.0 0 0 360.49 61.07
  L 378.79 61.07
  A 0.33 0.33 0.0 0 0 379.10 60.63
  L 369.95 33.82
  A 0.33 0.33 0.0 0 0 369.33 33.82
  L 360.18 60.63
  Z"
/>
<path fill="#036463" d="
  M 483.14 88.07
  L 465.53 88.14
  Q 464.97 88.15 464.66 87.68
  L 435.50 43.30
  Q 434.09 41.16 434.09 43.72
  L 434.11 87.74
  Q 434.11 88.11 433.75 88.11
  L 416.98 88.19
  A 0.96 0.96 0.0 0 1 416.02 87.23
  L 416.09 15.77
  Q 415.83 14.57 416.03 13.54
  Q 416.14 13.00 416.69 13.00
  L 433.73 13.00
  Q 434.33 13.00 434.65 13.50
  L 464.34 58.82
  A 0.50 0.50 0.0 0 0 465.26 58.54
  L 465.24 13.52
  Q 465.23 13.02 465.73 13.03
  L 482.71 13.04
  Q 483.09 13.04 483.09 13.42
  L 483.14 88.07
  Z"
/>
<path fill="#e7f3e9" d="
  M 119.32 60.34
  L 128.21 33.97
  A 0.48 0.48 0.0 0 1 129.12 33.97
  L 137.91 60.37
  A 0.48 0.48 0.0 0 1 137.46 61.01
  L 119.77 60.97
  A 0.48 0.48 0.0 0 1 119.32 60.34
  Z"
/>
<path fill="#e7f3e9" d="
  M 360.18 60.63
  L 369.33 33.82
  A 0.33 0.33 0.0 0 1 369.95 33.82
  L 379.10 60.63
  A 0.33 0.33 0.0 0 1 378.79 61.07
  L 360.49 61.07
  A 0.33 0.33 0.0 0 1 360.18 60.63
  Z"
/>
<path fill="#86a194" d="
  M 291.55 128.52
  L 291.48 121.57
  A 0.75 0.75 0.0 0 1 292.15 120.82
  L 294.63 120.59
  Q 295.24 120.54 295.24 121.14
  L 295.24 143.01
  A 0.93 0.92 85.3 0 1 294.47 143.93
  Q 292.17 144.29 291.47 142.25
  Q 291.30 141.76 290.87 142.06
  C 285.50 145.92 280.58 143.34 279.76 137.33
  C 278.78 129.99 283.85 124.28 291.10 128.77
  Q 291.55 129.05 291.55 128.52
  Z
  M 287.5063 140.8195
  A 5.28 3.96 90.8 0 0 291.5396 135.5953
  A 5.28 3.96 90.8 0 0 287.6537 130.2605
  A 5.28 3.96 90.8 0 0 283.6204 135.4847
  A 5.28 3.96 90.8 0 0 287.5063 140.8195
  Z"
/>
<path fill="#86a194" d="
  M 504.88 121.37
  Q 504.67 121.28 504.59 121.08
  Q 504.41 120.60 504.93 120.67
  L 508.02 121.07
  Q 508.42 121.12 508.42 121.52
  L 508.69 142.96
  A 0.70 0.69 81.2 0 1 508.20 143.64
  Q 505.90 144.34 505.36 142.16
  A 0.49 0.49 0.0 0 0 504.67 141.84
  C 501.57 143.37 499.38 144.78 496.22 142.48
  C 490.38 138.23 493.81 122.14 504.19 128.86
  A 0.69 0.69 0.0 0 0 505.25 128.36
  Q 505.61 125.01 504.88 121.37
  Z
  M 501.1679 141.1991
  A 5.61 4.24 89.0 0 0 505.3094 135.5160
  A 5.61 4.24 89.0 0 0 500.9721 129.9809
  A 5.61 4.24 89.0 0 0 496.8306 135.6640
  A 5.61 4.24 89.0 0 0 501.1679 141.1991
  Z"
/>
<path fill="#86a194" d="
  M 136.63 129.21
  C 137.71 128.66 138.66 127.91 139.73 127.60
  C 145.48 125.92 146.77 129.99 146.77 134.74
  Q 146.78 138.95 146.78 143.13
  Q 146.77 143.72 146.19 143.72
  L 143.60 143.72
  A 0.57 0.56 2.3 0 1 143.03 143.11
  Q 143.40 138.00 143.16 132.96
  C 142.93 128.24 136.95 130.23 136.20 133.23
  Q 135.60 135.63 136.31 143.06
  A 0.55 0.55 0.0 0 1 135.74 143.66
  L 133.08 143.55
  Q 132.62 143.53 132.62 143.08
  L 132.61 121.57
  Q 132.61 121.00 133.18 120.98
  L 135.40 120.88
  Q 136.21 120.84 136.19 121.65
  L 135.96 128.79
  Q 135.94 129.57 136.63 129.21
  Z"
/>
<path fill="#86a194" d="
  M 423.68 128.53
  L 423.45 122.43
  Q 423.39 120.74 425.08 120.82
  L 426.82 120.91
  Q 427.35 120.93 427.35 121.46
  L 427.22 142.28
  A 1.65 1.64 -78.0 0 1 424.92 143.78
  Q 423.95 143.36 423.68 142.29
  A 0.53 0.52 63.0 0 0 422.84 142.01
  Q 419.84 144.47 416.67 143.68
  C 408.23 141.57 410.97 121.43 423.19 128.82
  Q 423.70 129.13 423.68 128.53
  Z
  M 419.9839 140.8483
  A 5.34 3.95 86.2 0 0 423.5713 135.2582
  A 5.34 3.95 86.2 0 0 419.2761 130.1917
  A 5.34 3.95 86.2 0 0 415.6887 135.7818
  A 5.34 3.95 86.2 0 0 419.9839 140.8483
  Z"
/>
<path fill="#86a194" d="
  M 443.95 127.98
  L 447.86 127.38
  A 0.59 0.59 0.0 0 1 448.54 127.99
  L 448.47 129.60
  Q 448.44 130.33 447.70 130.30
  L 444.32 130.14
  A 0.54 0.54 0.0 0 0 443.75 130.68
  L 443.78 142.96
  Q 443.78 143.71 443.03 143.70
  L 441.27 143.68
  A 0.66 0.65 0.4 0 1 440.62 143.03
  L 440.52 131.69
  A 1.40 1.39 -84.0 0 0 439.43 130.34
  Q 438.25 130.08 437.86 129.03
  A 0.70 0.70 0.0 0 1 438.18 128.18
  L 439.53 127.41
  A 0.70 0.69 -8.4 0 0 439.86 126.97
  L 440.81 122.79
  A 1.15 1.13 81.7 0 1 441.36 122.04
  Q 444.66 120.07 448.77 121.10
  A 1.31 1.30 -32.2 0 1 448.19 123.64
  L 445.79 123.16
  A 2.09 2.08 6.3 0 0 443.30 125.15
  L 443.24 127.36
  A 0.62 0.61 -3.6 0 0 443.95 127.98
  Z"
/>
<path fill="#86a194" d="
  M 517.28 121.09
  A 0.72 0.72 0.0 0 1 518.03 121.78
  L 518.05 122.25
  A 2.77 2.08 87.7 0 1 516.08 125.10
  L 515.78 125.11
  A 2.77 2.08 87.7 0 1 513.59 122.43
  L 513.57 121.96
  A 0.72 0.72 0.0 0 1 514.26 121.21
  L 517.28 121.09
  Z"
/>
<path fill="#86a194" d="
  M 559.39 121.23
  Q 561.32 121.62 562.02 122.99
  Q 568.18 135.02 561.12 145.97
  A 2.21 2.19 -85.9 0 1 560.18 146.79
  Q 558.77 147.44 558.19 146.37
  Q 557.98 145.99 558.17 145.61
  Q 563.84 134.11 558.42 122.46
  A 0.88 0.87 -6.9 0 1 559.39 121.23
  Z"
/>
<path fill="#86a194" d="
  M 19.76 147.17
  C 12.27 143.19 12.53 126.38 18.75 121.27
  A 1.20 1.20 0.0 0 1 20.61 122.67
  Q 15.51 134.46 20.99 145.99
  A 0.90 0.90 0.0 0 1 19.76 147.17
  Z"
/>
<path fill="#86a194" d="
  M 79.48 121.60
  A 0.73 0.73 0.0 0 1 80.22 122.32
  L 80.22 122.87
  A 2.16 2.05 89.2 0 1 78.20 125.06
  L 77.82 125.06
  A 2.16 2.05 89.2 0 1 75.74 122.93
  L 75.74 122.38
  A 0.73 0.73 0.0 0 1 76.46 121.64
  L 79.48 121.60
  Z"
/>
<path fill="#036463" d="
  M 178.12 125.31
  L 172.83 125.64
  A 0.43 0.43 0.0 0 1 172.37 125.21
  L 172.36 122.58
  A 0.43 0.43 0.0 0 1 172.79 122.15
  L 188.45 122.14
  A 0.43 0.43 0.0 0 1 188.88 122.59
  L 188.79 125.13
  A 0.43 0.43 0.0 0 1 188.34 125.55
  L 182.84 125.36
  A 0.43 0.43 0.0 0 0 182.40 125.79
  L 182.39 143.20
  A 0.43 0.43 0.0 0 1 181.96 143.63
  L 178.99 143.61
  A 0.43 0.43 0.0 0 1 178.56 143.18
  L 178.58 125.74
  A 0.43 0.43 0.0 0 0 178.12 125.31
  Z"
/>
<path fill="#036463" d="
  M 36.76 138.68
  L 29.49 138.60
  A 0.86 0.86 0.0 0 0 28.66 139.20
  L 27.43 143.11
  A 0.86 0.86 0.0 0 1 26.60 143.71
  L 24.16 143.66
  A 0.86 0.86 0.0 0 1 23.36 142.52
  L 30.23 122.73
  A 0.86 0.86 0.0 0 1 31.03 122.15
  L 35.17 122.09
  A 0.86 0.86 0.0 0 1 35.99 122.67
  L 42.88 142.56
  A 0.86 0.86 0.0 0 1 42.09 143.70
  L 39.52 143.76
  A 0.86 0.86 0.0 0 1 38.67 143.14
  L 37.58 139.31
  A 0.86 0.86 0.0 0 0 36.76 138.68
  Z
  M 30.18 134.58
  A 0.52 0.52 0.0 0 0 30.67 135.25
  L 35.39 135.31
  A 0.52 0.52 0.0 0 0 35.90 134.65
  L 33.63 126.94
  A 0.52 0.52 0.0 0 0 32.63 126.92
  L 30.18 134.58
  Z"
/>
<path fill="#036463" d="
  M 336.72 130.29
  Q 336.57 128.16 335.88 130.18
  L 331.76 142.29
  A 2.34 2.34 0.0 0 1 327.33 142.29
  L 323.37 130.75
  Q 322.13 127.15 322.16 130.96
  L 322.23 143.04
  Q 322.23 143.57 321.71 143.57
  L 319.31 143.60
  A 0.56 0.56 0.0 0 1 318.75 143.05
  L 318.66 122.58
  Q 318.66 122.06 319.17 122.06
  L 323.34 122.03
  A 0.90 0.89 -9.0 0 1 324.19 122.64
  L 329.10 137.38
  Q 329.62 138.91 330.14 137.39
  L 335.17 122.65
  A 0.95 0.95 0.0 0 1 336.07 122.01
  L 340.07 121.99
  Q 340.65 121.99 340.65 122.57
  L 340.60 143.09
  Q 340.59 143.77 339.92 143.75
  L 337.28 143.68
  Q 336.76 143.66 336.79 143.14
  Q 337.15 136.72 336.72 130.29
  Z"
/>
<path fill="#036463" d="
  M 384.23 138.72
  L 376.88 138.75
  Q 376.28 138.75 376.09 139.31
  L 374.80 143.06
  A 0.84 0.83 -83.8 0 1 374.11 143.62
  L 371.43 143.95
  A 0.79 0.78 -83.6 0 1 370.60 142.90
  Q 373.59 134.43 376.33 125.83
  Q 377.21 123.06 378.62 122.26
  Q 380.46 121.21 382.97 122.27
  Q 383.44 122.47 383.61 122.96
  L 390.37 142.81
  A 0.71 0.70 82.1 0 1 389.67 143.74
  L 386.72 143.62
  Q 386.11 143.60 385.95 143.00
  L 384.93 139.25
  A 0.73 0.73 0.0 0 0 384.23 138.72
  Z
  M 377.47 134.80
  A 0.31 0.31 0.0 0 0 377.76 135.22
  L 383.07 135.26
  A 0.31 0.31 0.0 0 0 383.37 134.86
  L 380.78 127.02
  A 0.31 0.31 0.0 0 0 380.19 127.01
  L 377.47 134.80
  Z"
/>
<path fill="#036463" d="
  M 476.68 124.00
  L 483.82 135.52
  A 0.48 0.47 29.0 0 0 484.70 135.27
  L 484.68 122.63
  A 0.68 0.68 0.0 0 1 485.37 121.95
  L 487.96 121.99
  A 0.72 0.72 0.0 0 1 488.67 122.71
  L 488.73 142.95
  Q 488.73 143.46 488.24 143.60
  Q 484.31 144.75 482.11 140.15
  L 475.36 129.05
  A 0.37 0.37 0.0 0 0 474.67 129.25
  L 474.69 142.65
  Q 474.69 144.02 473.34 143.86
  L 471.38 143.63
  A 0.73 0.72 3.6 0 1 470.74 142.91
  L 470.72 123.00
  Q 470.72 122.39 471.31 122.22
  Q 475.27 121.02 476.68 124.00
  Z"
/>
<path fill="#86a194" d="
  M 94.70 142.72
  Q 90.35 145.58 86.80 142.46
  Q 85.18 141.04 85.50 137.58
  C 85.55 135.92 86.21 130.46 83.95 130.04
  A 1.28 1.28 0.0 0 1 83.77 127.57
  L 85.09 127.12
  A 0.87 0.86 78.1 0 0 85.67 126.22
  Q 85.47 123.70 87.95 123.44
  A 1.19 1.18 -4.6 0 1 89.26 124.55
  L 89.40 126.69
  A 0.77 0.76 -1.9 0 0 90.18 127.41
  L 93.75 127.33
  A 0.67 0.67 0.0 0 1 94.42 128.14
  L 93.99 130.09
  Q 93.85 130.74 93.19 130.63
  L 90.20 130.14
  A 0.67 0.67 0.0 0 0 89.42 130.80
  L 89.42 139.89
  A 0.68 0.68 0.0 0 0 90.18 140.57
  L 93.18 140.23
  Q 93.60 140.19 93.90 140.50
  Q 94.57 141.22 94.70 142.72
  Z"
/>
<path fill="#86a194" d="
  M 219.05 129.45
  L 218.87 130.00
  Q 218.70 130.53 218.14 130.57
  C 215.35 130.78 213.26 130.77 213.03 134.25
  Q 212.67 139.94 212.79 143.07
  Q 212.82 143.75 212.13 143.76
  L 210.27 143.76
  A 0.77 0.77 0.0 0 1 209.50 143.00
  L 209.38 128.16
  A 0.99 0.98 84.0 0 1 210.17 127.18
  Q 212.67 126.65 212.63 129.40
  A 0.43 0.42 72.0 0 0 213.31 129.75
  C 215.09 128.41 216.38 126.58 218.84 127.57
  C 221.30 128.57 223.19 127.59 222.95 124.66
  Q 222.90 124.05 223.50 123.93
  L 225.56 123.50
  A 0.72 0.71 -4.5 0 1 226.42 124.23
  L 226.33 126.90
  A 0.76 0.76 0.0 0 0 227.16 127.68
  L 230.59 127.34
  A 0.69 0.69 0.0 0 1 231.34 128.10
  L 231.19 129.65
  Q 231.13 130.28 230.50 130.26
  L 227.15 130.17
  A 0.69 0.69 0.0 0 0 226.44 130.85
  L 226.32 138.99
  A 1.68 1.68 0.0 0 0 228.24 140.68
  L 230.62 140.34
  A 1.83 1.41 -48.2 0 1 230.38 143.59
  C 221.17 145.74 222.74 136.78 222.89 131.02
  Q 222.90 130.61 222.52 130.45
  L 219.64 129.18
  Q 219.19 128.99 219.05 129.45
  Z"
/>
<path fill="#86a194" d="
  M 56.46 127.28
  Q 56.45 125.35 58.24 125.10
  A 0.79 0.79 0.0 0 1 59.13 125.79
  Q 59.30 127.19 58.01 127.95
  A 1.39 1.39 0.0 0 0 57.54 129.90
  C 59.71 133.30 57.64 137.13 53.72 137.50
  Q 51.78 137.68 50.26 137.75
  A 1.05 1.05 0.0 0 0 49.26 138.85
  C 49.51 143.36 60.39 137.40 59.92 145.24
  C 59.52 151.91 49.83 151.26 46.00 148.98
  C 43.25 147.33 45.39 144.43 46.80 142.72
  A 0.87 0.87 0.0 0 0 46.89 141.74
  Q 45.40 139.03 48.09 137.66
  A 0.65 0.65 0.0 0 0 48.30 136.66
  L 47.04 135.16
  Q 46.70 134.76 46.59 134.24
  C 45.35 128.24 50.53 126.09 55.47 127.96
  A 0.73 0.73 0.0 0 0 56.46 127.28
  Z
  M 55.53 132.51
  A 3.20 3.20 0.0 0 0 52.33 129.31
  A 3.20 3.20 0.0 0 0 49.13 132.51
  A 3.20 3.20 0.0 0 0 52.33 135.71
  A 3.20 3.20 0.0 0 0 55.53 132.51
  Z
  M 56.9694 145.4641
  A 1.97 1.97 0.0 0 0 54.9925 143.5010
  L 49.8325 143.5190
  A 1.97 1.97 0.0 0 0 47.8694 145.4959
  L 47.8706 145.8359
  A 1.97 1.97 0.0 0 0 49.8475 147.7990
  L 55.0075 147.7810
  A 1.97 1.97 0.0 0 0 56.9706 145.8041
  L 56.9694 145.4641
  Z"
/>
<path fill="#86a194" d="
  M 543.50 136.82
  C 542.75 135.64 542.02 134.73 541.95 133.29
  C 541.66 127.51 545.95 126.66 550.80 127.67
  A 0.87 0.86 26.5 0 0 551.62 127.40
  Q 552.21 126.74 552.56 125.99
  Q 553.13 124.78 554.26 125.26
  A 1.03 1.03 0.0 0 1 554.63 126.89
  C 552.34 129.50 554.43 131.43 553.89 133.89
  C 552.96 138.13 549.23 137.56 546.00 137.96
  A 1.30 1.30 0.0 0 0 546.08 140.55
  C 548.44 140.69 553.82 140.22 555.19 142.74
  C 556.64 145.42 555.31 148.99 552.42 149.96
  C 549.11 151.07 540.91 151.39 540.21 146.35
  Q 540.14 145.82 540.47 145.38
  L 542.47 142.73
  A 0.74 0.74 0.0 0 0 542.51 141.90
  Q 541.07 139.43 543.33 137.77
  Q 543.86 137.38 543.50 136.82
  Z
  M 550.75 132.66
  A 2.93 2.93 0.0 0 0 547.82 129.73
  A 2.93 2.93 0.0 0 0 544.89 132.66
  A 2.93 2.93 0.0 0 0 547.82 135.59
  A 2.93 2.93 0.0 0 0 550.75 132.66
  Z
  M 551.9576 145.5447
  A 1.78 1.78 0.0 0 0 550.2408 143.7036
  L 545.5237 143.5389
  A 1.78 1.78 0.0 0 0 543.6826 145.2557
  L 543.6624 145.8353
  A 1.78 1.78 0.0 0 0 545.3792 147.6764
  L 550.0963 147.8411
  A 1.78 1.78 0.0 0 0 551.9374 146.1243
  L 551.9576 145.5447
  Z"
/>
<path fill="#e7f3e9" d="
  M 30.18 134.58
  L 32.63 126.92
  A 0.52 0.52 0.0 0 1 33.63 126.94
  L 35.90 134.65
  A 0.52 0.52 0.0 0 1 35.39 135.31
  L 30.67 135.25
  A 0.52 0.52 0.0 0 1 30.18 134.58
  Z"
/>
<path fill="#edf6ee" d="
  M 377.47 134.80
  L 380.19 127.01
  A 0.31 0.31 0.0 0 1 380.78 127.02
  L 383.37 134.86
  A 0.31 0.31 0.0 0 1 383.07 135.26
  L 377.76 135.22
  A 0.31 0.31 0.0 0 1 377.47 134.80
  Z"
/>
<path fill="#86a194" d="
  M 66.51 128.85
  A 0.83 0.83 0.0 0 0 67.77 129.36
  L 71.10 127.21
  A 1.26 1.25 55.6 0 1 72.80 127.53
  Q 73.75 128.83 72.85 129.88
  C 72.05 130.82 70.08 130.85 68.98 130.92
  A 1.92 1.91 -0.7 0 0 67.17 132.76
  L 66.79 143.25
  Q 66.76 144.05 65.97 143.92
  L 64.10 143.61
  A 0.79 0.78 5.1 0 1 63.44 142.83
  L 63.52 127.74
  A 0.55 0.54 86.4 0 1 63.99 127.20
  Q 66.06 126.92 66.51 128.85
  Z"
/>
<rect fill="#86a194" x="-1.72" y="-8.23" transform="translate(78.05,135.42) rotate(-0.5)" width="3.44" height="16.46" rx="0.99"/>
<path fill="#86a194" d="
  M 107.32 143.67
  Q 101.98 144.55 98.46 141.58
  C 96.21 137.30 95.98 130.89 100.47 128.02
  Q 103.33 126.19 106.75 127.31
  Q 111.69 128.92 111.77 134.84
  Q 111.80 136.40 110.24 136.38
  L 101.48 136.25
  A 0.65 0.65 0.0 0 0 100.83 137.01
  Q 101.60 141.42 105.74 140.66
  C 107.21 140.39 108.40 138.81 109.89 138.92
  A 1.51 1.51 0.0 0 1 110.56 141.72
  L 107.32 143.67
  Z
  M 101.31 133.81
  L 107.87 133.83
  A 0.26 0.26 0.0 0 0 108.13 133.57
  L 108.13 133.40
  A 3.41 3.41 0.0 0 0 104.74 129.98
  L 104.48 129.98
  A 3.41 3.41 0.0 0 0 101.05 133.38
  L 101.05 133.55
  A 0.26 0.26 0.0 0 0 101.31 133.81
  Z"
/>
<path fill="#86a194" d="
  M 124.01 127.09
  Q 127.18 127.74 128.72 130.04
  Q 129.06 130.54 128.62 130.96
  L 127.07 132.41
  A 0.74 0.73 46.4 0 1 126.03 132.38
  L 124.35 130.60
  Q 123.98 130.21 123.45 130.17
  C 117.55 129.67 117.11 139.20 121.16 140.43
  Q 123.73 141.22 126.88 138.40
  A 0.82 0.81 38.3 0 1 127.82 138.29
  C 129.10 138.99 128.92 140.60 127.96 141.49
  Q 122.76 146.32 116.31 141.54
  C 112.91 135.13 114.91 126.03 124.01 127.09
  Z"
/>
<path fill="#86a194" d="
  M 257.46 142.50
  L 257.77 149.41
  Q 257.81 150.22 257.00 150.25
  L 254.35 150.37
  Q 253.80 150.40 253.79 149.84
  L 253.77 127.92
  Q 253.77 127.34 254.35 127.28
  Q 256.37 127.08 257.53 128.69
  A 0.65 0.64 59.1 0 0 258.33 128.90
  C 259.66 128.26 260.96 127.45 262.29 127.21
  C 267.74 126.21 270.19 132.91 269.48 137.13
  C 268.45 143.19 263.55 146.02 258.05 142.17
  Q 257.42 141.73 257.46 142.50
  Z
  M 261.4808 140.8100
  A 5.29 3.99 90.1 0 0 265.4800 135.5270
  A 5.29 3.99 90.1 0 0 261.4992 130.2300
  A 5.29 3.99 90.1 0 0 257.5000 135.5130
  A 5.29 3.99 90.1 0 0 261.4808 140.8100
  Z"
/>
<path fill="#86a194" d="
  M 353.7881 144.0414
  A 8.52 8.13 85.3 0 1 344.9873 136.2162
  A 8.52 8.13 85.3 0 1 352.3919 127.0586
  A 8.52 8.13 85.3 0 1 361.1927 134.8838
  A 8.52 8.13 85.3 0 1 353.7881 144.0414
  Z
  M 352.9770 140.7992
  A 5.33 3.93 91.0 0 0 356.9994 135.5386
  A 5.33 3.93 91.0 0 0 353.1630 130.1408
  A 5.33 3.93 91.0 0 0 349.1406 135.4014
  A 5.33 3.93 91.0 0 0 352.9770 140.7992
  Z"
/>
<path fill="#86a194" d="
  M 397.79 129.28
  C 410.33 121.44 408.01 137.20 408.03 143.15
  Q 408.04 143.87 407.32 143.86
  L 404.72 143.84
  A 0.63 0.63 0.0 0 1 404.09 143.20
  Q 404.22 138.19 404.10 133.26
  C 404.02 129.65 400.23 129.47 398.33 131.53
  C 396.66 133.34 397.28 140.42 397.51 142.83
  A 0.67 0.66 87.7 0 1 396.84 143.56
  L 394.24 143.54
  A 0.78 0.77 -90.0 0 1 393.47 142.76
  L 393.58 127.80
  A 0.68 0.67 -3.3 0 1 394.18 127.13
  L 395.78 126.96
  Q 396.47 126.88 396.64 127.55
  L 397.00 128.96
  Q 397.18 129.65 397.79 129.28
  Z"
/>
<rect fill="#86a194" x="-1.79" y="-8.30" transform="translate(515.87,135.51) rotate(-0.2)" width="3.58" height="16.60" rx="1.29"/>
<path fill="#86a194" d="
  M 165.55 140.52
  A 1.51 1.51 0.0 0 0 165.53 137.62
  C 163.22 136.95 158.41 136.19 157.93 133.19
  C 156.89 126.60 164.11 126.56 168.40 127.74
  A 1.59 1.59 0.0 0 1 169.19 130.31
  L 168.33 131.31
  A 0.67 0.67 0.0 0 1 167.39 131.38
  Q 165.28 129.61 162.48 130.39
  A 1.44 1.44 0.0 0 0 162.51 133.18
  L 168.05 134.59
  A 1.30 1.23 74.3 0 1 168.67 134.96
  Q 171.36 137.89 169.97 140.82
  C 167.73 145.55 160.87 144.28 157.42 141.77
  A 0.59 0.58 37.2 0 1 157.30 140.94
  L 158.73 139.10
  A 0.81 0.80 42.9 0 1 159.97 139.06
  Q 162.16 141.52 165.55 140.52
  Z"
/>
<path fill="#86a194" d="
  M 200.49 141.88
  C 198.79 143.06 197.43 144.22 195.27 144.02
  Q 190.63 143.59 191.05 138.25
  C 191.35 134.33 196.67 134.17 199.54 133.35
  A 1.63 1.62 44.2 0 0 199.49 130.22
  Q 195.85 129.27 193.42 132.13
  A 0.69 0.69 0.0 0 1 192.25 131.93
  L 191.59 130.20
  Q 191.38 129.65 191.86 129.30
  C 195.24 126.94 203.79 125.37 203.90 131.49
  Q 203.98 135.55 204.12 139.58
  A 0.96 0.95 13.3 0 0 204.62 140.38
  L 205.30 140.75
  A 1.70 1.70 0.0 0 1 204.68 143.94
  Q 202.24 144.21 201.38 142.14
  A 0.59 0.59 0.0 0 0 200.49 141.88
  Z
  M 194.46 139.17
  L 195.86 141.29
  A 1.07 1.07 0.0 0 0 197.34 141.60
  L 198.20 141.03
  A 4.60 2.17 -33.3 0 0 200.85 136.69
  L 200.67 136.41
  A 4.60 2.17 -33.3 0 0 195.63 137.12
  L 194.77 137.69
  A 1.07 1.07 0.0 0 0 194.46 139.17
  Z"
/>
<path fill="#86a194" d="
  M 244.69 141.66
  C 243.56 142.22 242.87 143.25 241.70 143.57
  C 236.18 145.06 235.04 141.81 234.88 137.28
  Q 234.71 132.66 234.97 128.05
  A 0.66 0.66 0.0 0 1 235.61 127.42
  L 237.67 127.35
  Q 238.27 127.33 238.26 127.92
  L 238.26 139.01
  A 1.98 1.97 88.9 0 0 240.31 140.99
  Q 242.69 140.90 244.52 139.48
  Q 244.98 139.13 245.00 138.55
  L 245.25 128.10
  Q 245.27 127.47 245.89 127.44
  L 247.66 127.36
  Q 248.37 127.32 248.37 128.03
  L 248.48 142.79
  A 1.24 1.24 0.0 0 1 246.59 143.85
  Q 245.58 143.22 245.33 141.98
  A 0.46 0.45 71.0 0 0 244.69 141.66
  Z"
/>
<path fill="#86a194" d="
  M 303.54 136.63
  C 302.69 140.63 308.50 142.01 310.75 139.17
  A 1.67 1.67 0.0 0 1 313.73 140.24
  C 313.67 143.71 307.42 144.11 305.22 143.68
  C 299.80 142.62 298.31 136.86 299.83 132.20
  C 302.41 124.26 315.85 125.55 314.00 135.98
  Q 313.92 136.45 313.45 136.44
  L 304.03 136.25
  Q 303.63 136.24 303.54 136.63
  Z
  M 304.30 133.94
  L 310.02 133.83
  A 0.60 0.60 0.0 0 0 310.60 133.22
  L 310.60 133.00
  A 3.17 3.04 -1.1 0 0 307.37 130.02
  L 306.79 130.04
  A 3.17 3.04 -1.1 0 0 303.68 133.14
  L 303.69 133.36
  A 0.60 0.60 0.0 0 0 304.30 133.94
  Z"
/>
<path fill="#86a194" d="
  M 462.22 142.34
  Q 461.94 140.67 460.73 141.85
  Q 457.22 145.23 452.93 142.64
  A 1.40 1.37 5.6 0 1 452.34 141.94
  C 450.81 137.93 451.53 132.01 451.93 127.84
  A 0.72 0.71 -82.3 0 1 452.77 127.20
  L 454.33 127.46
  Q 454.97 127.57 454.94 128.22
  C 454.78 131.06 454.03 138.13 455.36 140.44
  Q 455.65 140.94 456.24 140.97
  Q 459.38 141.11 461.57 138.87
  A 1.21 1.19 67.8 0 0 461.92 138.02
  L 461.88 127.92
  Q 461.88 127.46 462.34 127.47
  L 464.33 127.52
  Q 465.13 127.54 465.14 128.35
  L 465.17 142.99
  A 1.11 1.11 0.0 0 1 464.04 144.10
  Q 462.51 144.07 462.22 142.34
  Z"
/>
<path fill="#86a194" d="
  M 532.69 130.79
  Q 530.37 129.41 528.26 130.68
  C 525.28 132.47 525.99 139.69 526.45 142.58
  A 1.06 1.06 0.0 0 1 525.37 143.81
  L 523.38 143.75
  Q 522.71 143.73 522.72 143.06
  L 522.82 128.24
  Q 522.82 127.65 523.38 127.47
  Q 525.35 126.82 526.10 128.88
  A 0.57 0.56 62.9 0 0 526.95 129.16
  C 531.05 126.40 537.38 126.43 537.13 133.00
  Q 536.88 139.48 536.98 143.09
  Q 536.99 143.81 536.27 143.79
  L 534.05 143.75
  Q 533.45 143.74 533.43 143.14
  L 533.11 131.50
  A 0.85 0.84 14.7 0 0 532.69 130.79
  Z"
/>
<circle fill="#e7f3e9" cx="52.33" cy="132.51" r="3.20"/>
<circle fill="#e7f3e9" cx="547.82" cy="132.66" r="2.93"/>
<path fill="#e7f3e9" d="
  M 101.31 133.81
  A 0.26 0.26 0.0 0 1 101.05 133.55
  L 101.05 133.38
  A 3.41 3.41 0.0 0 1 104.48 129.98
  L 104.74 129.98
  A 3.41 3.41 0.0 0 1 108.13 133.40
  L 108.13 133.57
  A 0.26 0.26 0.0 0 1 107.87 133.83
  L 101.31 133.81
  Z"
/>
<path fill="#edf6ee" d="
  M 304.30 133.94
  A 0.60 0.60 0.0 0 1 303.69 133.36
  L 303.68 133.14
  A 3.17 3.04 -1.1 0 1 306.79 130.04
  L 307.37 130.02
  A 3.17 3.04 -1.1 0 1 310.60 133.00
  L 310.60 133.22
  A 0.60 0.60 0.0 0 1 310.02 133.83
  L 304.30 133.94
  Z"
/>
<ellipse fill="#e7f3e9" cx="0.00" cy="0.00" transform="translate(501.07,135.59) rotate(89.0)" rx="5.61" ry="4.24"/>
<ellipse fill="#edf6ee" cx="0.00" cy="0.00" transform="translate(287.58,135.54) rotate(90.8)" rx="5.28" ry="3.96"/>
<ellipse fill="#edf6ee" cx="0.00" cy="0.00" transform="translate(353.07,135.47) rotate(91.0)" rx="5.33" ry="3.93"/>
<ellipse fill="#edf6ee" cx="0.00" cy="0.00" transform="translate(419.63,135.52) rotate(86.2)" rx="5.34" ry="3.95"/>
<ellipse fill="#edf6ee" cx="0.00" cy="0.00" transform="translate(261.49,135.52) rotate(90.1)" rx="5.29" ry="3.99"/>
<path fill="#edf6ee" d="
  M 194.46 139.17
  A 1.07 1.07 0.0 0 1 194.77 137.69
  L 195.63 137.12
  A 4.60 2.17 -33.3 0 1 200.67 136.41
  L 200.85 136.69
  A 4.60 2.17 -33.3 0 1 198.20 141.03
  L 197.34 141.60
  A 1.07 1.07 0.0 0 1 195.86 141.29
  L 194.46 139.17
  Z"
/>
<rect fill="#e7f3e9" x="-4.55" y="-2.14" transform="translate(52.42,145.65) rotate(-0.2)" width="9.10" height="4.28" rx="1.97"/>
<rect fill="#e7f3e9" x="-4.14" y="-2.07" transform="translate(547.81,145.69) rotate(2.0)" width="8.28" height="4.14" rx="1.78"/>
</svg>
