<svg xmlns="http://www.w3.org/2000/svg" viewBox="0 0 225 225"><g stroke-width="2" fill="none"><path stroke="#95cdaa" vector-effect="non-scaling-stroke" d="M132.06 32.19c-13.94-10.93-46.3 2.39-59 10.64-29.54 19.18-39.57 52.82-34.75 86.63a.21.21 0 0 0 .42-.02c.98-33.83 15.27-59.6 47.25-72.15 12.97-5.09 26.23-7.05 39.94-8.87 7.67-1.02 13.6-10.38 6.14-16.23"/><path stroke="#f5b19b" vector-effect="non-scaling-stroke" d="M77.53 173.92c-39.88-12.76-48.68-48.68-43.62-85.93.81-5.92 2.97-13.57.01-18.9-3.12-5.62-11.21-6.24-14.63-.54-4.22 7.02-4.63 14.41-4.61 23.45.08 37.4 17.75 67.11 53.83 79.51q4.44 1.53 8.99 2.52a.06.06 0 0 0 .03-.11"/><path stroke="#9a9a9a" vector-effect="non-scaling-stroke" d="m151.47 129.05-6.68-5.09q-.49-.37-.92.07-5.44 5.59-12.07 3.39c-12.9-4.28-10.61-26.43 4.13-26.59q3.81-.04 7.27 3.14.39.36.82.03l6.52-5.18q.42-.33.07-.75-3.9-4.67-10.33-5.55c-34.43-4.72-36.08 45.69-2.75 44.25q8.47-.37 14.05-6.54a.8.8 0 0 0-.11-1.18M191.31 129.1l-6.77-5.11q-.49-.37-.91.06-5.55 5.52-11.7 3.47c-17.31-5.8-6.45-36.52 11.36-23.56q.37.27.73-.02l6.26-5.16a.59.58-40.6 0 0 .07-.84c-8.61-9.8-25.6-6.44-32.74 2.84-6.16 8.01-5.49 21.1.91 28.64 7.88 9.28 24.81 10.43 32.88.38q.32-.4-.09-.7"/><path stroke="#9a9a9a" vector-effect="non-scaling-stroke" d="M107.25 93.64a.42.42 0 0 0-.42-.42h-8.9a.42.42 0 0 0-.42.42v41.72a.42.42 0 0 0 .42.42h8.9a.42.42 0 0 0 .42-.42V93.64M206 93.47a.26.26 0 0 0-.26-.26h-8.98a.26.26 0 0 0-.26.26v42.02a.26.26 0 0 0 .26.26h8.98a.26.26 0 0 0 .26-.26V93.47M90 110.98a.4.4 0 0 0-.39-.4l-17.22-.34a.4.4 0 0 1-.39-.4v-7.44a.4.4 0 0 1 .4-.4h18.46a.4.4 0 0 0 .4-.39l.26-7.95a.4.4 0 0 0-.4-.41H62.9a.4.4 0 0 0-.4.4v41.7a.4.4 0 0 0 .4.4h8.7a.4.4 0 0 0 .4-.4v-15.74a.4.4 0 0 1 .4-.4l17.2.06a.4.4 0 0 0 .4-.4v-7.89"/><path stroke="#f7c49c" vector-effect="non-scaling-stroke" d="M116.94 175.42c-31.78 13.27-64.33-.47-88.05-22.82-5.78-5.45-17.08-3.46-15.39 6.11 1.16 6.57 10.27 12.19 15.96 15.02 29.5 14.7 66.65 19.34 94.75-1.07a.15.15 0 0 0-.14-.26q-2.07.91-7.13 3.02"/><path stroke="#f6d8a0" vector-effect="non-scaling-stroke" d="M85.78 198.84c2.74 4.49 13.69 1.77 17.51.2q31.4-12.98 38.87-46.26.28-1.26-.17-.05-11.09 29.92-41.24 38.66c-4.27 1.23-9.39 1.34-14.07 1.95q-.5.06-.73.51-1.46 2.87-.17 4.99"/></g><path fill="#fff" d="M0 0h225v225H0V0zm132.06 32.19c-13.94-10.93-46.3 2.39-59 10.64-29.54 19.18-39.57 52.82-34.75 86.63a.21.21 0 0 0 .42-.02c.98-33.83 15.27-59.6 47.25-72.15 12.97-5.09 26.23-7.05 39.94-8.87 7.67-1.02 13.6-10.38 6.14-16.23zM77.53 173.92c-39.88-12.76-48.68-48.68-43.62-85.93.81-5.92 2.97-13.57.01-18.9-3.12-5.62-11.21-6.24-14.63-.54-4.22 7.02-4.63 14.41-4.61 23.45.08 37.4 17.75 67.11 53.83 79.51q4.44 1.53 8.99 2.52a.06.06 0 0 0 .03-.11zm73.94-44.87-6.68-5.09q-.49-.37-.92.07-5.44 5.59-12.07 3.39c-12.9-4.28-10.61-26.43 4.13-26.59q3.81-.04 7.27 3.14.39.36.82.03l6.52-5.18q.42-.33.07-.75-3.9-4.67-10.33-5.55c-34.43-4.72-36.08 45.69-2.75 44.25q8.47-.37 14.05-6.54a.8.8 0 0 0-.11-1.18zm39.84.05-6.77-5.11q-.49-.37-.91.06-5.55 5.52-11.7 3.47c-17.31-5.8-6.45-36.52 11.36-23.56q.37.27.73-.02l6.26-5.16a.59.58-40.6 0 0 .07-.84c-8.61-9.8-25.6-6.44-32.74 2.84-6.16 8.01-5.49 21.1.91 28.64 7.88 9.28 24.81 10.43 32.88.38q.32-.4-.09-.7zm-84.06-35.46a.42.42 0 0 0-.42-.42h-8.9a.42.42 0 0 0-.42.42v41.72a.42.42 0 0 0 .42.42h8.9a.42.42 0 0 0 .42-.42V93.64zm98.75-.17a.26.26 0 0 0-.26-.26h-8.98a.26.26 0 0 0-.26.26v42.02a.26.26 0 0 0 .26.26h8.98a.26.26 0 0 0 .26-.26V93.47zM90 110.98a.4.4 0 0 0-.39-.4l-17.22-.34a.4.4 0 0 1-.39-.4v-7.44a.4.4 0 0 1 .4-.4h18.46a.4.4 0 0 0 .4-.39l.26-7.95a.4.4 0 0 0-.4-.41H62.9a.4.4 0 0 0-.4.4v41.7a.4.4 0 0 0 .4.4h8.7a.4.4 0 0 0 .4-.4v-15.74a.4.4 0 0 1 .4-.4l17.2.06a.4.4 0 0 0 .4-.4v-7.89zm26.94 64.44c-31.78 13.27-64.33-.47-88.05-22.82-5.78-5.45-17.08-3.46-15.39 6.11 1.16 6.57 10.27 12.19 15.96 15.02 29.5 14.7 66.65 19.34 94.75-1.07a.15.15 0 0 0-.14-.26q-2.07.91-7.13 3.02zm-31.16 23.42c2.74 4.49 13.69 1.77 17.51.2q31.4-12.98 38.87-46.26.28-1.26-.17-.05-11.09 29.92-41.24 38.66c-4.27 1.23-9.39 1.34-14.07 1.95q-.5.06-.73.51-1.46 2.87-.17 4.99z"/><path fill="#2a9b55" d="M132.06 32.19c7.46 5.85 1.53 15.21-6.14 16.23-13.71 1.82-26.97 3.78-39.94 8.87C54 69.84 39.71 95.61 38.73 129.44a.21.21 0 0 1-.42.02c-4.82-33.81 5.21-67.45 34.75-86.63 12.7-8.25 45.06-21.57 59-10.64z"/><path fill="#eb6337" d="M77.53 173.92a.06.06 0 0 1-.03.11q-4.55-.99-8.99-2.52C32.43 159.11 14.76 129.4 14.68 92c-.02-9.04.39-16.43 4.61-23.45 3.42-5.7 11.51-5.08 14.63.54 2.96 5.33.8 12.98-.01 18.9-5.06 37.25 3.74 73.17 43.62 85.93z"/><path fill="#343434" d="m144.79 123.96 6.68 5.09a.8.8 0 0 1 .11 1.18q-5.58 6.17-14.05 6.54c-33.33 1.44-31.68-48.97 2.75-44.25q6.43.88 10.33 5.55.35.42-.07.75l-6.52 5.18q-.43.33-.82-.03-3.46-3.18-7.27-3.14c-14.74.16-17.03 22.31-4.13 26.59q6.63 2.2 12.07-3.39.43-.44.92-.07zM191.31 129.1q.41.3.09.7c-8.07 10.05-25 8.9-32.88-.38-6.4-7.54-7.07-20.63-.91-28.64 7.14-9.28 24.13-12.64 32.74-2.84a.59.58-40.6 0 1-.07.84l-6.26 5.16q-.36.29-.73.02c-17.81-12.96-28.67 17.76-11.36 23.56q6.15 2.05 11.7-3.47.42-.43.91-.06l6.77 5.11z"/><rect fill="#343434" x="97.51" y="93.22" width="9.74" height="42.56" rx=".42"/><rect fill="#343434" x="196.5" y="93.21" width="9.5" height="42.54" rx=".26"/><path fill="#343434" d="M90 110.98v7.89a.4.4 0 0 1-.4.4l-17.2-.06a.4.4 0 0 0-.4.4v15.74a.4.4 0 0 1-.4.4h-8.7a.4.4 0 0 1-.4-.4v-41.7a.4.4 0 0 1 .4-.4h28.22a.4.4 0 0 1 .4.41l-.26 7.95a.4.4 0 0 1-.4.39H72.4a.4.4 0 0 0-.4.4v7.44a.4.4 0 0 0 .39.4l17.22.34a.4.4 0 0 1 .39.4z"/><path fill="#ef8838" d="M28.89 152.6c23.72 22.35 56.27 36.09 88.05 22.82q5.06-2.11 7.13-3.02a.15.15 0 0 1 .14.26c-28.1 20.41-65.25 15.77-94.75 1.07-5.69-2.83-14.8-8.45-15.96-15.02-1.69-9.57 9.61-11.56 15.39-6.11z"/><path fill="#edb141" d="M85.78 198.84q-1.29-2.12.17-4.99.23-.45.73-.51c4.68-.61 9.8-.72 14.07-1.95q30.15-8.74 41.24-38.66.45-1.21.17.05-7.47 33.28-38.87 46.26c-3.82 1.57-14.77 4.29-17.51-.2z"/></svg>