<?xml version="1.0" encoding="UTF-8" standalone="no"?>
<!DOCTYPE svg PUBLIC "-//W3C//DTD SVG 1.1//EN" "http://www.w3.org/Graphics/SVG/1.1/DTD/svg11.dtd">
<svg xmlns="http://www.w3.org/2000/svg" version="1.1" viewBox="0.00 0.00 1200.00 920.00">
<path fill="#b01116" d="
  M 572.57 311.84
  C 571.84 310.92 571.42 310.14 571.64 308.86
  Q 572.88 301.58 574.06 294.19
  C 579.62 259.27 561.38 230.42 541.80 203.71
  C 516.99 169.86 496.48 132.12 506.14 88.91
  C 512.01 62.63 527.42 36.51 545.43 16.70
  C 552.27 9.17 558.58 10.52 567.74 9.87
  C 615.29 6.55 664.00 10.59 710.89 18.75
  A 2.16 2.15 -4.4 0 1 712.56 20.18
  Q 713.69 23.41 711.08 25.68
  Q 710.73 25.99 710.27 26.04
  C 645.93 33.70 583.40 80.55 591.27 152.24
  Q 593.06 168.50 596.43 180.66
  C 601.84 200.16 608.99 218.50 614.18 238.52
  C 618.48 255.09 619.03 271.07 615.53 288.75
  Q 612.79 302.58 609.29 310.22
  C 608.59 311.75 605.83 312.26 604.00 312.24
  Q 588.84 312.13 574.03 312.52
  A 1.82 1.81 -19.9 0 1 572.57 311.84
  Z"
/>
<path fill="#b01116" d="
  M 452.10 257.42
  Q 432.05 240.02 411.08 223.74
  C 378.38 198.34 355.48 164.76 359.77 120.99
  Q 363.10 86.93 377.75 56.04
  C 380.43 50.38 408.34 41.93 414.06 40.08
  Q 471.19 21.64 531.93 12.68
  C 533.57 12.43 535.25 12.52 536.94 12.50
  A 1.01 1.00 69.3 0 1 537.73 12.86
  C 540.06 15.59 538.34 17.71 535.53 18.89
  Q 513.80 28.06 498.56 40.05
  C 471.68 61.20 451.71 94.86 450.89 129.82
  C 450.15 161.40 463.98 185.05 481.37 211.00
  Q 494.45 230.49 507.42 250.05
  Q 521.24 270.87 522.90 295.55
  C 523.33 301.94 523.88 311.98 522.76 318.03
  C 522.00 322.19 518.48 322.18 515.20 323.22
  Q 503.29 326.96 491.87 330.28
  A 2.53 2.53 0.0 0 1 488.65 328.13
  Q 487.75 320.00 486.48 311.55
  C 482.97 288.19 469.25 272.30 452.10 257.42
  Z"
/>
<path fill="#b01116" d="
  M 660.94 318.81
  C 658.47 318.19 659.12 315.79 660.16 314.13
  C 667.75 302.00 673.46 289.05 675.06 274.73
  C 676.54 261.45 673.36 244.12 669.52 231.24
  Q 661.64 204.79 654.99 178.00
  C 649.80 157.07 648.03 138.29 650.77 117.01
  C 655.79 78.02 686.63 45.17 720.43 27.21
  C 724.32 25.14 727.66 22.10 732.47 23.18
  C 783.17 34.53 831.89 54.13 877.34 79.14
  C 882.52 81.98 880.30 87.69 874.64 86.64
  C 812.87 75.13 740.02 98.44 725.02 166.74
  C 719.32 192.67 720.32 220.65 720.45 247.93
  Q 720.51 262.06 719.94 267.91
  Q 716.88 299.22 697.98 324.98
  C 696.50 327.01 692.84 326.94 690.30 326.29
  Q 675.63 322.49 660.94 318.81
  Z"
/>
<path fill="#b01116" d="
  M 264.86 274.52
  C 226.68 240.46 217.35 194.73 229.85 146.07
  C 230.93 141.88 233.44 139.19 237.09 136.24
  C 274.92 105.73 319.31 80.09 362.51 60.02
  C 366.82 58.01 369.13 63.56 366.23 66.24
  C 351.53 79.81 339.80 91.93 331.20 110.37
  Q 328.81 115.50 326.44 120.62
  C 315.75 143.75 311.60 169.53 317.73 194.56
  C 324.69 222.95 341.84 242.91 364.98 260.78
  Q 384.05 275.50 403.12 290.23
  C 425.10 307.20 436.51 324.77 443.04 352.00
  C 444.22 356.89 441.69 358.11 437.74 360.95
  Q 426.67 368.88 416.01 376.34
  A 2.46 2.45 -28.6 0 1 412.33 375.26
  C 406.40 360.82 397.03 345.21 385.09 335.29
  C 371.11 323.69 351.65 315.80 334.68 309.57
  C 309.22 300.21 284.63 292.16 264.86 274.52
  Z"
/>
<path fill="#b01116" d="
  M 751.69 348.94
  C 761.21 340.19 770.96 332.52 776.21 320.70
  C 783.06 305.32 785.65 287.81 786.04 269.43
  Q 786.64 240.96 787.76 212.50
  C 788.40 196.11 790.74 181.19 797.09 166.43
  C 804.42 149.40 815.36 134.47 830.34 123.30
  Q 857.95 102.72 893.78 94.10
  Q 901.54 92.24 907.21 95.74
  C 932.10 111.16 956.14 129.69 978.96 148.03
  C 995.49 161.31 1012.23 175.55 1026.17 191.57
  C 1027.34 192.91 1028.05 194.43 1027.04 196.12
  C 1025.27 199.06 1022.68 198.04 1020.05 196.70
  Q 981.66 177.11 938.24 177.96
  C 908.31 178.55 874.49 191.22 860.19 219.70
  C 852.81 234.40 844.66 251.45 840.30 267.77
  C 834.90 288.02 830.67 309.36 821.20 327.94
  C 814.95 340.20 807.58 347.12 799.27 356.28
  Q 793.42 362.72 782.80 371.28
  C 779.76 373.73 778.02 373.48 774.86 371.21
  Q 763.84 363.30 752.85 355.40
  Q 750.63 353.80 749.74 352.15
  Q 749.44 351.58 749.79 351.04
  Q 750.37 350.15 751.69 348.94
  Z"
/>
<path fill="#b01116" d="
  M 354.29 437.92
  C 339.41 421.55 326.30 407.17 303.08 402.11
  C 270.10 394.93 236.49 396.67 203.57 390.19
  C 172.91 384.16 146.17 363.67 131.38 336.51
  C 120.81 317.09 113.79 294.85 112.49 273.00
  C 112.09 266.28 121.03 255.78 125.00 250.50
  Q 157.34 207.57 196.46 170.72
  Q 210.12 157.85 215.59 153.85
  C 220.70 150.12 222.79 156.72 220.04 160.95
  C 188.07 210.09 186.61 289.12 240.66 324.76
  C 259.51 337.19 281.05 344.70 302.14 352.37
  C 334.72 364.23 359.61 381.17 377.40 411.74
  A 1.95 1.94 -40.7 0 1 377.23 413.95
  L 357.83 437.82
  A 2.33 2.33 0.0 0 1 354.29 437.92
  Z"
/>
<path fill="#b01116" d="
  M 1113.63 331.99
  C 1100.79 320.38 1086.91 312.57 1071.20 305.48
  C 1045.68 293.97 1025.28 289.43 997.78 300.77
  C 981.71 307.41 967.62 315.24 955.04 326.91
  C 938.51 342.23 927.25 360.41 914.87 378.99
  C 897.48 405.07 872.77 425.82 843.17 435.42
  C 840.15 436.40 837.88 434.62 835.94 432.17
  Q 827.39 421.32 818.80 410.60
  A 2.76 2.76 0.0 0 1 819.53 406.50
  C 837.01 396.01 854.39 386.51 865.57 368.44
  C 886.39 334.83 890.10 294.40 910.95 260.81
  C 923.59 240.46 942.80 222.67 965.55 214.42
  Q 995.46 203.56 1027.25 204.51
  C 1031.99 204.65 1040.31 204.00 1043.82 207.92
  Q 1060.05 226.04 1073.94 246.02
  Q 1106.47 292.83 1132.54 341.20
  C 1134.75 345.29 1129.46 348.63 1126.15 344.99
  C 1122.12 340.55 1117.89 335.83 1113.63 331.99
  Z"
/>
<path fill="#b01116" d="
  M 280.05 498.24
  C 254.98 492.90 228.85 501.45 204.46 506.26
  Q 188.49 509.41 172.51 512.53
  C 135.60 519.74 102.65 511.43 76.13 484.14
  Q 52.19 459.50 37.20 432.01
  Q 36.60 430.90 37.31 428.27
  Q 43.54 405.47 52.59 383.64
  Q 73.81 332.48 102.45 285.09
  C 105.85 279.45 110.08 284.68 108.65 289.15
  C 100.15 315.76 101.01 345.54 109.10 372.09
  Q 120.63 409.93 152.90 430.47
  C 170.96 441.97 189.94 445.79 211.07 446.78
  Q 234.50 447.89 263.24 451.02
  C 290.31 453.97 310.83 465.77 330.94 483.31
  C 332.75 484.89 332.80 486.21 331.93 488.48
  Q 326.31 503.21 320.95 514.21
  Q 319.43 517.33 316.36 515.37
  C 304.72 507.96 293.73 501.16 280.05 498.24
  Z"
/>
<path fill="#b01116" d="
  M 889.14 511.61
  C 884.65 511.91 879.44 513.29 877.45 507.64
  Q 872.74 494.24 867.05 481.23
  C 866.10 479.05 866.95 477.66 869.25 477.24
  C 885.56 474.24 904.32 470.93 917.78 460.51
  C 946.09 438.60 962.56 405.10 986.52 379.02
  C 1006.00 357.81 1034.02 341.32 1063.33 340.06
  Q 1099.87 338.47 1133.78 351.92
  C 1137.26 353.30 1140.40 354.93 1142.15 358.52
  Q 1151.16 377.03 1159.01 400.25
  C 1170.49 434.18 1180.76 470.80 1185.19 506.40
  C 1185.49 508.78 1186.23 511.07 1184.32 512.89
  C 1182.38 514.74 1179.24 513.55 1178.35 511.24
  C 1168.53 485.78 1152.61 464.49 1129.43 449.80
  Q 1089.38 424.41 1044.15 434.63
  C 1005.87 443.29 979.69 475.17 946.85 494.11
  Q 920.03 509.59 889.14 511.61
  Z"
/>
<path fill="#b01116" d="
  M 72.31 646.14
  C 49.45 636.46 27.09 620.76 11.58 600.82
  Q 11.26 600.42 11.27 599.91
  C 12.30 547.85 17.50 496.05 31.56 446.18
  C 33.06 440.85 38.73 441.18 39.06 446.75
  C 40.85 476.69 48.89 505.97 66.91 530.30
  C 82.82 551.78 107.31 567.48 134.32 570.33
  Q 153.88 572.40 173.13 569.34
  C 185.23 567.41 199.64 562.87 212.69 559.23
  C 229.95 554.41 250.00 552.96 268.00 554.73
  C 280.27 555.93 292.62 560.79 304.02 565.20
  Q 306.83 566.29 308.64 568.66
  Q 308.99 569.11 308.96 569.68
  L 307.29 601.71
  A 2.68 2.68 0.0 0 1 303.77 604.12
  C 294.73 601.13 284.85 597.63 276.17 596.54
  C 261.24 594.66 248.84 597.24 234.24 603.21
  C 210.71 612.84 188.96 625.85 166.98 638.52
  C 138.65 654.85 102.86 659.07 72.31 646.14
  Z"
/>
<rect fill="#000000" x="408.50" y="463.55" width="19.00" height="142.72" rx="0.52"/>
<rect fill="#000000" x="460.25" y="463.53" width="19.00" height="142.72" rx="0.66"/>
<path fill="#000000" d="
  M 635.76 488.26
  A 0.36 0.36 0.0 0 0 635.06 488.13
  L 590.92 605.76
  Q 590.74 606.25 590.21 606.25
  L 575.01 606.25
  Q 574.48 606.25 574.29 605.75
  L 530.02 487.78
  A 0.34 0.33 -32.5 0 0 529.47 487.66
  Q 528.95 488.18 529.33 489.00
  Q 529.50 489.36 529.50 489.76
  L 529.50 605.75
  A 0.50 0.50 0.0 0 1 529.00 606.25
  L 512.50 606.25
  A 1.00 1.00 0.0 0 1 511.50 605.25
  L 511.50 464.00
  A 0.50 0.50 0.0 0 1 512.00 463.50
  L 536.50 463.50
  A 1.44 1.43 79.6 0 1 537.84 464.43
  L 582.25 582.85
  A 0.28 0.28 0.0 0 0 582.78 582.85
  L 627.48 464.08
  Q 627.70 463.52 628.30 463.52
  L 652.87 463.49
  A 0.88 0.88 0.0 0 1 653.75 464.37
  L 653.75 605.75
  A 0.50 0.50 0.0 0 1 653.25 606.25
  L 636.25 606.25
  Q 635.74 606.25 635.74 605.75
  L 635.76 488.26
  Z"
/>
<path fill="#000000" d="
  M 771.20 531.25
  C 783.61 533.71 793.03 542.48 796.14 554.81
  C 801.80 577.30 789.15 599.23 766.54 604.88
  Q 761.33 606.19 749.71 606.22
  Q 717.73 606.30 685.74 606.23
  A 0.49 0.49 0.0 0 1 685.25 605.74
  L 685.25 464.22
  A 0.62 0.62 0.0 0 1 685.86 463.60
  Q 716.14 463.28 746.50 463.67
  C 759.05 463.83 772.55 464.76 781.61 474.26
  Q 794.73 488.03 790.74 506.42
  C 788.28 517.72 781.79 525.96 771.11 530.15
  A 0.58 0.57 -49.9 0 0 771.20 531.25
  Z
  M 771.02 492.62
  C 768.07 483.35 758.63 480.35 749.92 479.99
  Q 727.48 479.04 704.84 479.65
  Q 704.25 479.66 704.25 480.25
  L 704.25 524.49
  Q 704.25 525.01 704.77 525.01
  Q 725.23 525.07 745.68 524.73
  Q 751.96 524.63 757.98 522.96
  C 771.88 519.08 774.92 504.86 771.02 492.62
  Z
  M 704.80 590.26
  Q 726.60 590.27 748.34 590.20
  Q 758.07 590.17 762.14 588.92
  C 773.99 585.30 779.44 574.17 778.53 562.19
  C 777.29 545.84 762.41 541.02 748.00 541.00
  Q 726.41 540.97 704.75 541.01
  Q 704.25 541.01 704.25 541.51
  L 704.25 589.72
  A 0.55 0.54 0.0 0 0 704.80 590.26
  Z"
/>
<path fill="#b01116" d="
  M 899.43 602.59
  C 893.24 601.31 892.85 597.77 892.83 592.29
  Q 892.77 574.12 892.20 568.51
  C 891.85 565.10 893.55 564.43 896.57 564.90
  Q 916.84 568.10 937.24 565.76
  Q 940.41 565.39 949.20 561.71
  Q 962.74 556.06 978.08 544.59
  Q 1001.40 527.16 1024.69 509.69
  C 1040.41 497.90 1057.24 490.33 1077.44 487.92
  C 1098.00 485.47 1119.11 487.37 1138.19 495.57
  Q 1163.56 506.47 1184.33 524.68
  C 1185.98 526.13 1187.01 529.50 1187.32 531.99
  Q 1196.49 607.65 1187.22 683.35
  C 1186.60 688.40 1180.73 687.15 1179.99 682.05
  C 1173.68 638.23 1139.11 592.07 1096.22 579.61
  C 1057.67 568.41 1024.39 582.13 988.53 595.61
  C 970.00 602.59 952.89 606.66 933.33 607.05
  C 921.94 607.28 911.09 605.00 899.43 602.59
  Z"
/>
<path fill="#000000" d="
  M 135.50 798.01
  L 135.50 785.57
  A 0.36 0.36 0.0 0 0 135.14 785.21
  L 85.77 785.27
  A 1.61 1.61 0.0 0 1 84.36 784.44
  L 76.28 770.00
  A 0.51 0.51 0.0 0 1 76.73 769.24
  L 140.04 769.27
  A 0.27 0.27 0.0 0 0 140.27 768.86
  Q 134.09 759.11 127.82 749.41
  C 121.66 739.87 116.15 733.44 104.72 739.68
  A 0.47 0.47 0.0 0 1 104.06 739.45
  L 97.31 723.46
  Q 97.08 722.92 97.61 722.69
  C 109.10 717.61 120.82 728.46 126.77 736.97
  Q 137.56 752.40 146.79 768.82
  Q 147.03 769.25 147.52 769.25
  Q 213.01 769.25 278.50 769.25
  Q 280.62 769.25 282.59 769.57
  A 0.43 0.43 0.0 0 0 282.93 768.82
  C 274.15 761.39 268.55 747.70 274.65 737.04
  C 280.41 726.99 294.14 722.36 304.95 721.81
  C 344.41 719.82 383.97 731.82 413.20 758.93
  Q 413.65 759.35 413.18 759.74
  L 410.54 761.92
  Q 410.08 762.30 409.61 761.92
  C 385.66 742.85 355.94 733.19 325.30 732.23
  Q 314.69 731.90 310.18 732.58
  C 301.69 733.87 290.67 739.24 287.35 748.03
  Q 283.00 759.58 291.92 768.90
  Q 292.25 769.25 292.74 769.25
  L 446.26 769.25
  A 1.44 1.43 75.6 0 1 447.52 770.00
  L 455.63 784.61
  A 0.45 0.44 -14.6 0 1 455.24 785.27
  L 440.92 785.22
  Q 439.74 785.21 439.74 786.39
  L 439.77 868.02
  Q 439.77 868.78 439.17 868.30
  L 425.43 857.28
  A 2.71 2.71 0.0 0 1 424.42 855.13
  L 424.71 840.97
  A 0.35 0.35 0.0 0 0 424.14 840.69
  C 413.93 849.09 403.87 855.15 391.40 846.35
  C 381.13 839.10 371.93 826.18 373.28 813.47
  C 374.34 803.59 382.95 794.98 393.05 793.82
  C 404.61 792.49 416.91 801.13 423.27 810.20
  Q 424.59 812.08 424.58 809.79
  L 424.52 785.76
  Q 424.52 785.25 424.01 785.25
  L 343.75 785.25
  Q 343.25 785.25 343.25 785.75
  L 343.25 814.21
  Q 343.25 815.22 344.11 815.75
  C 351.67 820.42 363.57 821.19 370.38 814.27
  A 0.25 0.25 0.0 0 1 370.80 814.45
  L 370.72 830.05
  A 0.77 0.77 0.0 0 1 370.39 830.68
  C 359.45 838.05 349.49 831.19 343.03 822.23
  A 0.48 0.48 0.0 0 0 342.16 822.43
  Q 340.43 833.12 330.79 837.84
  A 0.47 0.47 0.0 0 0 330.65 838.59
  L 354.47 864.05
  Q 354.92 864.52 354.41 864.93
  L 348.17 869.91
  A 0.69 0.68 51.5 0 1 347.21 869.79
  Q 337.73 857.83 328.25 845.67
  C 320.69 835.97 316.11 830.46 312.78 821.22
  C 311.46 817.57 311.74 810.00 317.34 810.35
  C 319.85 810.51 322.68 812.83 324.53 814.62
  A 0.80 0.80 0.0 0 0 325.76 814.47
  C 329.68 808.21 328.04 793.27 328.01 785.99
  A 0.77 0.77 0.0 0 0 327.24 785.22
  L 294.99 785.26
  Q 294.50 785.26 294.50 785.76
  L 294.50 868.02
  Q 294.50 868.77 293.92 868.30
  L 279.65 856.86
  A 1.11 1.10 -70.7 0 1 279.24 856.00
  L 279.27 785.64
  A 0.44 0.43 0.0 0 0 278.83 785.21
  L 252.50 785.24
  A 0.76 0.75 90.0 0 0 251.75 786.00
  L 251.75 868.03
  Q 251.75 868.82 251.14 868.32
  L 236.81 856.84
  Q 236.50 856.59 236.50 856.19
  L 236.50 817.00
  A 0.50 0.50 0.0 0 0 236.00 816.50
  L 215.29 816.50
  A 0.40 0.40 0.0 0 0 214.96 817.13
  Q 220.09 824.13 222.49 832.45
  C 225.87 844.15 217.58 856.66 204.43 853.04
  C 185.63 847.86 174.18 823.93 169.10 807.00
  A 0.68 0.67 69.7 0 1 169.47 806.19
  L 174.22 804.00
  Q 174.75 803.76 174.95 804.31
  C 178.10 813.16 182.16 821.81 188.94 828.31
  C 195.27 834.37 209.12 837.87 207.93 823.80
  Q 206.86 811.09 196.88 802.70
  A 0.60 0.59 35.8 0 1 196.75 801.94
  L 198.41 799.21
  Q 198.69 798.75 199.22 798.75
  L 235.75 798.75
  A 0.75 0.75 0.0 0 0 236.50 798.00
  L 236.50 786.00
  Q 236.50 785.25 235.75 785.25
  L 151.25 785.24
  Q 150.75 785.24 150.75 785.75
  L 150.75 868.03
  A 0.40 0.39 -70.8 0 1 150.11 868.34
  L 135.91 856.94
  Q 135.50 856.61 135.50 856.08
  L 135.50 815.01
  Q 135.50 814.51 135.00 814.50
  C 129.27 814.50 119.53 813.36 114.52 815.73
  C 96.71 824.17 109.61 849.75 119.06 858.90
  A 0.88 0.87 43.3 0 1 119.10 860.11
  L 114.86 864.80
  Q 114.53 865.17 114.19 864.80
  C 103.75 853.51 94.76 838.40 93.04 822.78
  C 91.44 808.31 99.13 798.53 114.05 798.77
  Q 124.47 798.94 134.88 798.66
  A 0.65 0.64 89.1 0 0 135.50 798.01
  Z
  M 390.49 812.27
  C 375.99 820.38 383.13 838.15 398.30 838.04
  C 407.99 837.98 418.83 828.01 424.15 820.58
  A 0.69 0.68 -50.5 0 0 424.07 819.68
  C 414.28 810.17 403.62 804.92 390.49 812.27
  Z"
/>
<path fill="#000000" d="
  M 868.49 814.50
  C 862.88 814.50 853.63 813.42 848.73 815.70
  C 837.36 820.98 839.04 836.92 843.93 846.06
  Q 847.80 853.30 853.55 859.17
  Q 853.95 859.58 853.57 860.01
  L 849.41 864.68
  Q 848.99 865.15 848.56 864.69
  Q 838.07 853.26 831.88 839.10
  C 824.55 822.33 823.49 798.62 848.78 798.75
  Q 858.65 798.80 868.49 798.72
  Q 869.00 798.72 869.00 798.20
  L 869.00 786.00
  Q 869.00 785.24 868.25 785.24
  L 807.50 785.24
  A 0.51 0.50 -90.0 0 0 807.00 785.75
  L 807.00 867.51
  Q 807.00 868.83 805.95 868.03
  L 791.72 857.15
  A 1.87 1.86 19.0 0 1 791.00 855.68
  L 791.00 785.54
  A 0.27 0.27 0.0 0 0 790.73 785.27
  L 765.64 784.98
  A 0.63 0.63 0.0 0 0 765.00 785.61
  L 765.01 868.23
  A 0.26 0.26 0.0 0 1 764.59 868.43
  L 749.66 857.02
  Q 749.25 856.71 749.25 856.20
  L 749.25 840.98
  A 0.39 0.39 0.0 0 0 748.58 840.72
  Q 740.58 849.39 728.69 851.42
  C 707.62 855.03 679.71 817.31 710.03 806.92
  A 0.57 0.56 52.1 0 0 710.15 805.91
  C 703.07 801.35 695.84 794.12 693.92 786.17
  C 691.29 775.28 700.11 764.14 711.49 764.27
  A 1.20 1.19 79.2 0 1 712.58 765.02
  L 716.39 774.29
  Q 716.58 774.75 716.09 774.83
  C 708.12 776.10 700.42 785.22 706.37 792.83
  C 713.18 801.54 721.34 802.39 731.94 803.74
  Q 732.42 803.80 732.47 804.28
  L 733.62 815.36
  Q 733.68 815.97 733.09 816.12
  C 729.34 817.09 724.93 817.11 721.72 818.46
  Q 715.24 821.17 710.20 826.23
  C 705.19 831.25 709.87 838.38 716.33 838.71
  C 729.09 839.36 742.04 829.52 749.00 819.29
  Q 749.25 818.92 749.25 818.48
  L 749.25 786.00
  A 1.00 1.00 0.0 0 0 748.25 785.00
  L 743.29 785.00
  Q 742.67 785.00 742.36 784.46
  L 734.40 770.19
  Q 733.87 769.24 734.96 769.24
  L 793.26 769.26
  Q 793.79 769.26 793.73 768.73
  C 792.67 759.30 786.96 743.77 775.53 742.86
  C 761.59 741.76 759.83 756.53 762.86 766.39
  A 0.67 0.66 -8.6 0 1 762.22 767.25
  L 757.51 767.25
  A 0.88 0.87 75.6 0 1 756.74 766.79
  C 751.88 757.78 750.87 744.96 756.77 736.04
  C 761.07 729.54 768.31 726.19 775.94 728.54
  C 792.12 733.53 798.81 754.20 801.86 768.78
  A 0.59 0.58 83.9 0 0 802.43 769.25
  L 1112.23 769.25
  Q 1113.29 769.25 1113.80 770.18
  L 1121.72 784.51
  A 0.52 0.52 0.0 0 1 1121.26 785.28
  L 1106.57 785.18
  A 0.57 0.56 -0.0 0 0 1106.00 785.74
  L 1106.00 865.04
  Q 1106.00 865.83 1106.69 866.22
  C 1115.88 871.49 1125.37 883.06 1121.79 894.51
  C 1117.82 907.20 1102.07 912.83 1089.98 910.51
  C 1072.38 907.13 1057.03 891.86 1047.96 877.19
  Q 1047.67 876.72 1048.06 876.32
  L 1051.35 873.01
  A 0.76 0.76 0.0 0 1 1052.54 873.14
  C 1061.76 887.94 1085.60 906.95 1103.39 893.88
  Q 1109.69 889.25 1110.38 881.07
  C 1110.67 877.56 1108.47 874.48 1104.81 874.72
  Q 1096.91 875.24 1093.59 882.58
  A 0.51 0.51 0.0 0 1 1092.76 882.72
  L 1083.41 872.85
  Q 1083.09 872.51 1083.39 872.14
  Q 1089.54 864.63 1099.28 863.81
  Q 1099.94 863.75 1099.42 863.34
  L 1091.34 857.01
  Q 1091.00 856.74 1091.00 856.31
  L 1091.00 815.00
  A 0.53 0.53 0.0 0 0 1090.46 814.47
  Q 1083.45 814.59 1076.29 814.44
  C 1066.06 814.24 1060.35 823.92 1061.48 833.30
  Q 1063.22 847.81 1074.77 859.07
  Q 1075.23 859.52 1074.80 859.99
  L 1070.45 864.70
  Q 1070.06 865.12 1069.67 864.70
  C 1059.42 853.60 1050.84 839.13 1048.80 824.21
  C 1046.62 808.33 1054.48 798.79 1070.62 798.76
  Q 1080.51 798.73 1090.24 798.76
  A 0.77 0.76 90.0 0 0 1091.00 797.99
  L 1091.00 785.62
  A 0.38 0.38 0.0 0 0 1090.62 785.24
  L 1018.63 785.25
  A 0.63 0.62 -0.0 0 0 1018.00 785.87
  L 1018.00 814.75
  A 0.85 0.85 0.0 0 0 1018.40 815.47
  C 1026.30 820.52 1037.24 821.15 1044.81 814.68
  Q 1045.47 814.12 1045.47 814.98
  L 1045.51 828.98
  A 2.77 2.77 0.0 0 1 1043.94 831.49
  C 1031.62 837.40 1025.27 830.95 1017.70 822.25
  A 0.43 0.43 0.0 0 0 1016.96 822.46
  Q 1015.09 833.08 1005.60 837.91
  Q 1005.12 838.16 1005.49 838.55
  L 1029.04 863.99
  Q 1029.54 864.53 1028.96 865.00
  L 1022.75 869.99
  A 0.56 0.56 0.0 0 1 1021.95 869.89
  Q 1008.60 852.40 995.37 834.88
  C 991.53 829.79 983.60 818.12 988.52 811.82
  C 991.66 807.78 997.15 812.46 999.61 814.83
  A 0.54 0.54 0.0 0 0 1000.39 814.80
  C 1004.38 810.37 1002.79 792.05 1002.76 785.76
  Q 1002.76 785.25 1002.25 785.25
  L 970.00 785.25
  Q 969.50 785.25 969.50 785.75
  L 969.50 868.03
  Q 969.50 868.84 968.88 868.33
  L 954.65 856.83
  A 1.10 1.08 20.2 0 1 954.25 855.99
  L 954.25 834.78
  Q 954.25 833.75 953.22 833.75
  L 929.25 833.75
  A 1.05 1.04 -1.3 0 0 928.20 834.84
  C 928.46 840.37 929.51 853.86 918.78 845.38
  Q 909.70 838.20 904.46 827.81
  C 901.65 822.23 903.30 817.19 910.52 818.03
  Q 912.50 818.26 912.50 816.27
  L 912.50 785.76
  A 0.49 0.49 0.0 0 0 912.01 785.27
  L 885.52 785.21
  Q 885.00 785.21 885.00 785.73
  L 885.00 868.02
  A 0.39 0.39 0.0 0 1 884.37 868.33
  L 869.72 857.13
  A 1.83 1.82 18.8 0 1 869.00 855.68
  L 869.00 815.01
  Q 869.00 814.50 868.49 814.50
  Z
  M 954.2124 785.7974
  A 0.60 0.60 0.0 0 0 953.6114 785.1984
  L 928.8314 785.2416
  A 0.60 0.60 0.0 0 0 928.2325 785.8427
  L 928.2876 817.4226
  A 0.60 0.60 0.0 0 0 928.8886 818.0216
  L 953.6686 817.9784
  A 0.60 0.60 0.0 0 0 954.2675 817.3773
  L 954.2124 785.7974
  Z"
/>
<path fill="#000000" d="
  M 573.60 785.20
  L 547.99 785.28
  Q 547.50 785.28 547.50 785.76
  L 547.50 868.02
  Q 547.50 868.78 546.91 868.31
  L 532.65 856.85
  A 1.10 1.09 19.3 0 1 532.23 855.99
  L 532.28 826.44
  Q 532.28 825.80 531.64 825.79
  Q 523.13 825.67 514.67 825.74
  C 505.63 825.81 513.72 838.24 506.52 841.60
  A 1.51 1.42 37.7 0 1 505.59 841.69
  C 495.05 839.27 481.14 810.29 499.56 810.26
  Q 515.62 810.24 531.49 810.25
  A 0.79 0.79 0.0 0 0 532.28 809.46
  L 532.26 785.46
  A 0.24 0.24 0.0 0 0 532.02 785.22
  L 485.48 785.26
  A 0.74 0.73 2.2 0 1 484.74 784.47
  L 485.86 769.83
  Q 485.90 769.25 486.49 769.25
  L 680.24 769.25
  A 1.59 1.58 -14.3 0 1 681.63 770.07
  L 689.65 784.59
  A 0.45 0.45 0.0 0 1 689.25 785.26
  L 675.39 785.22
  Q 674.74 785.22 674.74 785.86
  L 674.75 868.25
  A 0.30 0.30 0.0 0 1 674.26 868.49
  L 659.15 856.85
  Q 658.73 856.52 658.73 855.99
  L 658.79 840.97
  Q 658.80 840.43 658.39 840.79
  C 648.74 849.27 638.67 855.09 626.56 846.46
  C 616.20 839.09 607.00 825.14 609.33 812.01
  C 610.92 803.10 618.16 795.41 627.18 793.97
  C 639.44 792.01 652.07 801.09 658.29 811.11
  A 0.29 0.29 0.0 0 0 658.83 810.95
  L 658.73 785.77
  Q 658.73 785.24 658.20 785.24
  L 590.00 785.26
  Q 589.50 785.26 589.50 785.75
  L 589.50 868.03
  Q 589.50 868.84 588.87 868.34
  L 574.66 856.91
  A 1.11 1.10 -70.7 0 1 574.25 856.05
  L 574.25 785.85
  Q 574.25 785.19 573.60 785.20
  Z
  M 618.31 820.90
  C 615.39 829.50 623.38 838.21 632.50 837.79
  C 635.14 837.66 637.49 837.89 639.92 836.65
  Q 651.08 830.97 658.35 820.81
  A 0.89 0.89 0.0 0 0 658.28 819.69
  C 649.83 810.46 638.70 805.07 626.80 811.55
  Q 620.29 815.09 618.31 820.90
  Z"
/>
</svg>
