<svg xmlns="http://www.w3.org/2000/svg" viewBox="0 0 120 120"><rect fill="#294888" x="-2.15" y="-2.17" transform="rotate(-17.4 37.213 -182.875)" width="4.3" height="4.34" rx=".45"/><rect fill="#294888" x="-2.12" y="-2.19" transform="rotate(-13.2 42.936 -268.515)" width="4.24" height="4.38" rx=".47"/><rect fill="#294888" x="-2.17" y="-2.17" transform="rotate(-25.3 32.89 -110.154)" width="4.34" height="4.34" rx=".43"/><rect fill="#294888" x="-2.14" y="-2.2" transform="rotate(-6.4 64.2 -612.367)" width="4.28" height="4.4" rx=".58"/><rect fill="#294888" x="-2.14" y="-2.19" transform="rotate(-31.4 30.669 -76.195)" width="4.28" height="4.38" rx=".43"/><rect fill="#294888" x="-2.1" y="-2.12" transform="rotate(-.1 2684.484 -42877.84)" width="4.2" height="4.24" rx=".43"/><rect fill="#294888" x="-2.18" y="-2.17" transform="rotate(-37.6 29.323 -52.773)" width="4.36" height="4.34" rx=".27"/><rect fill="#294888" x="-2.13" y="-2.24" transform="rotate(7.1 -12.44 653.677)" width="4.26" height="4.48" rx=".44"/><rect fill="#294888" x="-2.12" y="-2.2" transform="rotate(14.7 7.886 339.15)" width="4.24" height="4.4" rx=".35"/><rect fill="#294888" x="-2.18" y="-2.15" transform="rotate(-42.5 28.586 -37.197)" width="4.36" height="4.3" rx=".52"/><rect fill="#294888" x="-2.17" y="-2.21" transform="rotate(41.3 -3.322 42.646)" width="4.34" height="4.42" rx=".38"/><rect fill="#294888" x="-2.15" y="-2.2" transform="rotate(21.4 13.46 248.774)" width="4.3" height="4.4" rx=".57"/><rect fill="#006db3" x="-2.14" y="-2.21" transform="rotate(16.9 -23.237 210.365)" width="4.28" height="4.42" rx=".49"/><rect fill="#294888" x="-2.14" y="-2.22" transform="rotate(25.5 13.071 221.705)" width="4.28" height="4.44" rx=".45"/><rect fill="#294888" x="-2.17" y="-2.17" transform="rotate(33.9 -16.05 45.053)" width="4.34" height="4.34" rx=".52"/><rect fill="#006db3" x="-2.17" y="-2.19" transform="rotate(25.3 -3.104 156.421)" width="4.34" height="4.38" rx=".52"/><rect fill="#006db3" x="-2.13" y="-2.23" transform="rotate(5 -159.995 624.271)" width="4.26" height="4.46" rx=".63"/><rect fill="#006db3" x="-2.18" y="-2.17" transform="rotate(32.1 5.685 135.211)" width="4.36" height="4.34" rx=".32"/><rect fill="#006db3" x="-2.16" y="-2.23" transform="rotate(-2.2 485.004 -1232.227)" width="4.32" height="4.46" rx=".52"/><rect fill="#006db3" x="-2.2" y="-2.21" transform="rotate(39.6 11.722 119.23)" width="4.4" height="4.42" rx=".46"/><rect fill="#006db3" x="-2.18" y="-2.2" transform="rotate(-10.4 129.852 -219.183)" width="4.36" height="4.4" rx=".71"/><rect fill="#294888" x="-2.17" y="-2.16" transform="rotate(33.9 17.45 176.324)" width="4.34" height="4.32" rx=".49"/><rect fill="#294888" x="-2.17" y="-2.17" transform="rotate(29.7 -30.457 44.224)" width="4.34" height="4.34" rx=".45"/><rect fill="#006db3" x="-2.2" y="-2.17" transform="rotate(-42.1 71.93 -97.834)" width="4.4" height="4.34" rx=".3"/><rect fill="#006db3" x="-2.17" y="-2.22" transform="rotate(-19.2 85.737 -95.391)" width="4.34" height="4.44" rx=".54"/><rect fill="#294888" x="-2.21" y="-2.17" transform="rotate(39.5 18.017 159.124)" width="4.42" height="4.34" rx=".49"/><rect fill="#294888" x="-2.19" y="-2.16" transform="rotate(23.8 -53.999 45.849)" width="4.38" height="4.32" rx=".5"/><path fill="#006db3" d="M89.1 24.05a.93.93 0 0 1 1.29.27l1.58 2.4a1.09.94-33.3 0 1-.4 1.38l-1.94 1.28a1.09.94-33.3 0 1-1.43-.19l-1.57-2.4a.93.93 0 0 1 .27-1.29l2.2-1.45z"/><rect fill="#006db3" x="-2.19" y="-2.17" transform="rotate(-26.9 71.345 -51.654)" width="4.38" height="4.34" rx=".55"/><rect fill="#1eae9d" x="-2.14" y="-2.21" transform="rotate(-15.9 135.163 -200.719)" width="4.28" height="4.42" rx=".36"/><rect fill="#294888" x="-2.17" y="-2.19" transform="rotate(43.4 16.717 151.8)" width="4.34" height="4.38" rx=".34"/><rect fill="#1eae9d" x="-2.12" y="-2.2" transform="rotate(-26 91.939 -102.3)" width="4.24" height="4.4" rx=".58"/><rect fill="#1eae9d" x="-2.09" y="-2.19" transform="rotate(-3 605.158 -1248.867)" width="4.18" height="4.38" rx=".6"/><rect fill="#294888" x="-2.16" y="-2.22" transform="rotate(15.7 -106.8 53.342)" width="4.32" height="4.44" rx=".6"/><rect fill="#006db3" x="-2.17" y="-2.19" transform="rotate(-35 62.735 -26.56)" width="4.34" height="4.38" rx=".46"/><rect fill="#006db3" x="-2.18" y="-2.2" transform="rotate(-27.3 111.25 -177.453)" width="4.36" height="4.4" rx=".65"/><rect fill="#1eae9d" x="-2.17" y="-2.18" transform="rotate(-36.7 71.966 -57)" width="4.34" height="4.36" rx=".26"/><rect fill="#1eae9d" x="-2.15" y="-2.17" transform="rotate(8.7 -172.705 489.004)" width="4.3" height="4.34" rx=".59"/><rect fill="#1eae9d" x="-2.18" y="-2.19" transform="rotate(40.7 -25.156 75.272)" width="4.36" height="4.38" rx=".66"/><rect fill="#1eae9d" x="-2.16" y="-2.2" transform="rotate(22.2 -49.483 214.398)" width="4.32" height="4.4" rx=".64"/><rect fill="#294888" x="-2.16" y="-2.22" transform="rotate(-39.8 104.94 -136.732)" width="4.32" height="4.44" rx=".71"/><rect fill="#006db3" x="-2.2" y="-2.19" transform="rotate(-40.3 60.795 -12.943)" width="4.4" height="4.38" rx=".59"/><rect fill="#006db3" x="-2.17" y="-2.17" transform="rotate(-18.9 157.885 -274.909)" width="4.34" height="4.34" rx=".55"/><rect fill="#294888" x="-2.12" y="-2.14" transform="rotate(10.3 -197.975 60.292)" width="4.24" height="4.28" rx=".47"/><rect fill="#1eae9d" x="-2.18" y="-2.16" transform="rotate(30.2 -52.027 90.178)" width="4.36" height="4.32" rx=".56"/><rect fill="#1eae9d" x="-2.15" y="-2.16" transform="rotate(32.9 -24.055 158.085)" width="4.3" height="4.32" rx=".27"/><rect fill="#294888" x="-2.18" y="-2.17" transform="rotate(-35.4 121.757 -158.335)" width="4.36" height="4.34" rx=".4"/><rect fill="#006db3" x="-2.18" y="-2.14" transform="rotate(38.3 -50.282 49.327)" width="4.36" height="4.28" rx=".49"/><rect fill="#006db3" x="-2.11" y="-2.18" transform="rotate(-10.2 284.587 -542.634)" width="4.22" height="4.36" rx=".27"/><rect fill="#294888" x="-2.16" y="-2.18" transform="rotate(4.1 -585.543 95.787)" width="4.32" height="4.36" rx=".53"/><rect fill="#1eae9d" x="-2.19" y="-2.19" transform="rotate(43 -11.676 130.494)" width="4.38" height="4.38" rx=".51"/><rect fill="#1eae9d" x="-2.18" y="-2.17" transform="rotate(18.4 -115.66 127.968)" width="4.36" height="4.34" rx=".66"/><rect fill="#294888" x="-2.17" y="-2.18" transform="rotate(-28.7 150.274 -203.048)" width="4.34" height="4.36" rx=".57"/><rect fill="#006db3" x="-2.2" y="-2.19" transform="rotate(32.1 -74.035 54.344)" width="4.4" height="4.38" rx=".49"/><rect fill="#1eae9d" x="-2.19" y="-2.18" transform="rotate(-36.4 117.89 -110.645)" width="4.38" height="4.36" rx=".65"/><rect fill="#006db3" x="-2.09" y="-2.23" transform="rotate(-3.6 811.403 -1610.735)" width="4.18" height="4.46" rx=".63"/><rect fill="#294888" x="-2.12" y="-2.15" transform="rotate(-2.7 1023.633 -53.785)" width="4.24" height="4.3" rx=".48"/><rect fill="#1eae9d" x="-2.15" y="-2.1" transform="rotate(9.2 -284.868 220.38)" width="4.3" height="4.2" rx=".42"/><rect fill="#294888" x="-2.18" y="-2.17" transform="rotate(-23.4 187.236 -255.826)" width="4.36" height="4.34" rx=".51"/><rect fill="#006db3" x="-2.19" y="-2.17" transform="rotate(23.2 -123.113 66.293)" width="4.38" height="4.34" rx=".43"/><rect fill="#294888" x="39.5" y="51.1" width="3.26" height="18.14" rx=".65"/><rect fill="#294888" x="48.25" y="51.04" width="3.24" height="18.22" rx=".74"/><path fill="#294888" d="M59.19 51.94q1.11-1.47 3.88-.68.49.14.18.55l-5.93 7.99q-.31.42 0 .85l5.92 7.96q.47.64-.32.64h-2.59q-.61 0-.98-.49l-5.97-8.14q-.32-.43 0-.86 2.9-3.98 5.81-7.82zM68.21 60.09c2.5.16 7.88.95 9.1-1.32 3.09-5.71-7.36-4.54-9.47-4.51a.59.59 0 0 1-.6-.6l.03-1.96q.01-.64.64-.6c3.12.17 7.59-.35 10.03 1.05 5.35 3.07 3.06 10.44-2.47 11.07q-1.03.12-4.44-.18a.48.48 0 0 0-.53.48v5.1q0 .63-.62.63h-2q-.63 0-.63-.62V61a.91.9-88.2 0 1 .96-.91z"/><rect fill="#1eae9d" x="-2.18" y="-2.16" transform="rotate(-27.3 156.78 -159.157)" width="4.36" height="4.32" rx=".55"/><rect fill="#006db3" x="-2.22" y="-2.18" transform="rotate(4.5 -634.25 1351.853)" width="4.44" height="4.36" rx=".61"/><rect fill="#294888" x="-2.17" y="-2.15" transform="rotate(-8.5 366.645 8.777)" width="4.34" height="4.3" rx=".5"/><rect fill="#1eae9d" x="-2.2" y="-2.15" transform="rotate(-2.8 1123.178 -583.812)" width="4.4" height="4.3" rx=".6"/><rect fill="#294888" x="-2.16" y="-2.16" transform="rotate(-14.9 286.307 -419.018)" width="4.32" height="4.32" rx=".5"/><rect fill="#1eae9d" x="-2.17" y="-2.15" transform="rotate(-15.9 261.165 -295.84)" width="4.34" height="4.3" rx=".54"/><rect fill="#006db3" x="-2.17" y="-2.13" transform="rotate(15.9 -163.441 404.45)" width="4.34" height="4.26" rx=".41"/><rect fill="#006db3" x="-2.05" y="-2.14" transform="rotate(-1.5 2305.676 -570.727)" width="4.1" height="4.28" rx=".41"/><rect fill="#1eae9d" x="-2.13" y="-2.13" transform="rotate(-.6 5755.55 -2751.625)" width="4.26" height="4.26" rx=".53"/><rect fill="#294888" x="-2.12" y="-2.13" transform="rotate(.9 -3842 182.334)" width="4.24" height="4.26" rx=".7"/><rect fill="#294888" x="-2.17" y="-2.15" transform="rotate(-8.5 500.827 -755.357)" width="4.34" height="4.3" rx=".47"/><rect fill="#1eae9d" x="-2.16" y="-2.16" transform="rotate(-26.8 154.042 -29.55)" width="4.32" height="4.32" rx=".66"/><rect fill="#294888" x="-2.19" y="-2.18" transform="rotate(-23 165.414 26.385)" width="4.38" height="4.36" rx=".55"/><rect fill="#1eae9d" x="-2.14" y="-2.14" transform="rotate(-2.9 1352.278 -1753.57)" width="4.28" height="4.28" rx=".61"/><rect fill="#006db3" x="-2.18" y="-2.13" transform="rotate(25.3 -96.218 265.232)" width="4.36" height="4.26" rx=".58"/><rect fill="#006db3" x="-2.17" y="-2.17" transform="rotate(8.1 -461.795 147.6)" width="4.34" height="4.34" rx=".51"/><rect fill="#1eae9d" x="-2.2" y="-2.19" transform="rotate(-39.2 116.952 -8.385)" width="4.4" height="4.38" rx=".5"/><rect fill="#1eae9d" x="-2.16" y="-2.14" transform="rotate(9.1 -408.152 593.312)" width="4.32" height="4.28" rx=".39"/><rect fill="#294888" x="-2.18" y="-2.11" transform="rotate(-1.8 2345.888 -3660.289)" width="4.36" height="4.22" rx=".45"/><rect fill="#006db3" x="-2.2" y="-2.18" transform="rotate(31.8 -76.32 216.728)" width="4.4" height="4.36" rx=".62"/><rect fill="#294888" x="-2.19" y="-2.15" transform="rotate(-28.8 143.811 28.85)" width="4.38" height="4.3" rx=".49"/><rect fill="#006db3" x="-2.17" y="-2.21" transform="rotate(-1.9 2202.108 -493.417)" width="4.34" height="4.42" rx=".6"/><rect fill="#1eae9d" x="-2.16" y="-2.18" transform="rotate(42.5 -82.223 82.982)" width="4.32" height="4.36" rx=".37"/><rect fill="#1eae9d" x="-2.19" y="-2.12" transform="rotate(21.9 -157.054 260.528)" width="4.38" height="4.24" rx=".49"/><rect fill="#294888" x="-2.16" y="-2.1" transform="rotate(4.8 -872.262 1405.977)" width="4.32" height="4.2" rx=".53"/><rect fill="#006db3" x="-2.17" y="-2.13" transform="rotate(37.5 -65.612 187.41)" width="4.34" height="4.26" rx=".45"/><rect fill="#294888" x="-2.2" y="-2.15" transform="rotate(-35.1 127.397 30.551)" width="4.4" height="4.3" rx=".31"/><rect fill="#006db3" x="-2.16" y="-2.13" transform="rotate(-10.6 433.737 -67.183)" width="4.32" height="4.26" rx=".46"/><rect fill="#1eae9d" x="-2.16" y="-2.19" transform="rotate(31.2 -127.731 109.598)" width="4.32" height="4.38" rx=".57"/><rect fill="#1eae9d" x="-2.21" y="-2.13" transform="rotate(31.9 -102.519 184.436)" width="4.42" height="4.26" rx=".58"/><rect fill="#006db3" x="-2.16" y="-2.22" transform="rotate(-18.7 266.877 -27.172)" width="4.32" height="4.44" rx=".36"/><rect fill="#006db3" x="-2.21" y="-2.18" transform="rotate(-42.4 157.26 -83.508)" width="4.42" height="4.36" rx=".55"/><rect fill="#294888" x="-2.16" y="-2.17" transform="rotate(10 -422.13 683.757)" width="4.32" height="4.34" rx=".69"/><rect fill="#294888" x="-2.19" y="-2.2" transform="rotate(-41.7 114.983 31.812)" width="4.38" height="4.4" rx=".63"/><rect fill="#1eae9d" x="-2.17" y="-2.15" transform="rotate(42.2 -72.593 143.089)" width="4.34" height="4.3" rx=".39"/><rect fill="#1eae9d" x="-2.18" y="-2.19" transform="rotate(21.1 -208.975 158.393)" width="4.36" height="4.38" rx=".61"/><rect fill="#1eae9d" x="-2.13" y="-2.2" transform="rotate(-37 168.523 -63.268)" width="4.26" height="4.4" rx=".45"/><rect fill="#1eae9d" x="-2.12" y="-2.23" transform="rotate(7.8 -626.09 398.795)" width="4.24" height="4.46" rx=".67"/><rect fill="#006db3" x="-2.18" y="-2.21" transform="rotate(-26.7 201.297 -11.408)" width="4.36" height="4.42" rx=".5"/><rect fill="#006db3" x="-2.18" y="-2.17" transform="rotate(-34.4 191.032 -106.68)" width="4.36" height="4.34" rx=".65"/><rect fill="#294888" x="-2.14" y="-2.18" transform="rotate(15.6 -270.785 444.129)" width="4.28" height="4.36" rx=".45"/><rect fill="#294888" x="-2.2" y="-2.17" transform="rotate(44.1 -105.706 58.493)" width="4.4" height="4.34" rx=".37"/><rect fill="#1eae9d" x="-2.18" y="-2.19" transform="rotate(-26.6 224.41 -94.777)" width="4.36" height="4.38" rx=".51"/><path fill="#1eae9d" d="M56.22 88.37q-.44 1.71.2 3.42a.48.48 0 0 1-.39.64l-3.07.36q-.71.08-.77-.63l-.24-3.14q-.05-.64.6-.69l3.42-.26a.24.24 0 0 1 .25.3zM59.42 93.68a.8.8 0 0 1-.99-.56l-.72-2.57a1.15 1.07 74.3 0 1 .72-1.39l2.21-.63a1.15 1.07 74.3 0 1 1.34.82l.73 2.57a.8.8 0 0 1-.56.99l-2.73.77z"/><rect fill="#006db3" x="-2.17" y="-2.18" transform="rotate(-34.6 165.948 -3.011)" width="4.34" height="4.36" rx=".47"/><rect fill="#006db3" x="-2.18" y="-2.18" transform="rotate(-26.7 242.04 -141.084)" width="4.36" height="4.36" rx=".61"/><rect fill="#294888" x="-2.21" y="-2.15" transform="rotate(24.4 -165.337 292.317)" width="4.42" height="4.3" rx=".51"/><rect fill="#294888" x="-2.2" y="-2.18" transform="rotate(36.9 -135.405 69.241)" width="4.4" height="4.36" rx=".52"/><rect fill="#006db3" x="-2.18" y="-2.18" transform="rotate(-41.7 146.062 1.363)" width="4.36" height="4.36" rx=".51"/><rect fill="#006db3" x="-2.19" y="-2.19" transform="rotate(-19 333.493 -202.54)" width="4.38" height="4.38" rx=".47"/><rect fill="#294888" x="-2.2" y="-2.17" transform="rotate(28.2 -146.466 252.64)" width="4.4" height="4.34" rx=".53"/><rect fill="#294888" x="-2.17" y="-2.19" transform="rotate(32.8 -160.37 81.388)" width="4.34" height="4.38" rx=".48"/><rect fill="#006db3" x="-2.18" y="-2.2" transform="rotate(39.7 -118.423 108.002)" width="4.36" height="4.4" rx=".44"/><rect fill="#006db3" x="-2.13" y="-2.19" transform="rotate(-9.8 625.796 -408.193)" width="4.26" height="4.38" rx=".61"/><rect fill="#006db3" x="-2.19" y="-2.19" transform="rotate(32.8 -150.745 132.218)" width="4.38" height="4.38" rx=".37"/><rect fill="#006db3" x="-2.15" y="-2.19" transform="rotate(-2.2 2712.986 -1839.133)" width="4.3" height="4.38" rx=".6"/><rect fill="#294888" x="-2.18" y="-2.19" transform="rotate(33.6 -122.644 213.25)" width="4.36" height="4.38" rx=".48"/><rect fill="#294888" x="-2.14" y="-2.22" transform="rotate(26.9 -206.153 100.36)" width="4.28" height="4.44" rx=".6"/><rect fill="#006db3" x="-2.19" y="-2.19" transform="rotate(23.9 -219.04 179.226)" width="4.38" height="4.38" rx=".43"/><rect fill="#006db3" x="-2.19" y="-2.18" transform="rotate(5.9 -976.817 696.689)" width="4.38" height="4.36" rx=".58"/><rect fill="#006db3" x="-2.17" y="-2.21" transform="rotate(16.1 -339.606 264.716)" width="4.34" height="4.42" rx=".59"/><rect fill="#294888" x="-2.19" y="-2.17" transform="rotate(40.2 -100.306 180.17)" width="4.38" height="4.34" rx=".43"/><rect fill="#294888" x="-2.16" y="-2.2" transform="rotate(20.5 -284.164 131.595)" width="4.32" height="4.4" rx=".34"/><rect fill="#294888" x="-2.22" y="-2.17" transform="rotate(-43.5 182.256 -54.097)" width="4.44" height="4.34" rx=".52"/><rect fill="#294888" x="-2.1" y="-2.19" transform="rotate(13.2 -462.967 199.877)" width="4.2" height="4.38" rx=".66"/><rect fill="#294888" x="-2.22" y="-2.15" transform="rotate(-37.1 209.535 -65.03)" width="4.44" height="4.3" rx=".45"/><rect fill="#294888" x="-2.16" y="-2.21" transform="rotate(7.3 -870.728 362.868)" width="4.32" height="4.42" rx=".46"/><rect fill="#294888" x="-2.17" y="-2.17" transform="rotate(-31.9 239.606 -74.867)" width="4.34" height="4.34" rx=".42"/><rect fill="#294888" x="-2.15" y="-2.19" transform="rotate(1.7 -3871.98 1574.322)" width="4.3" height="4.38" rx=".44"/><rect fill="#294888" x="-2.15" y="-2.19" transform="rotate(-25.8 289.576 -93.823)" width="4.3" height="4.38" rx=".35"/><rect fill="#294888" x="-2.16" y="-2.19" transform="rotate(-5.3 1287.663 -494.04)" width="4.32" height="4.38" rx=".48"/><path fill="#294888" d="M62.93 120h-.72l-1.15-3.39a.63.63 0 0 1 .4-.8l2.98-1a.56.55 72.5 0 1 .72.38l.87 3.2q.11.44-.31.59L62.93 120zM56.63 120h-.92l-.71-3.7a.54.54 0 0 1 .4-.63l2.81-.7q.65-.16.81.49l.76 3q.14.55-.4.71l-2.75.83z"/></svg>