<svg xmlns="http://www.w3.org/2000/svg" viewBox="0 0 920 610"><g stroke-width="2" fill="none"><path stroke="#eccebf" vector-effect="non-scaling-stroke" d="m502.94 610 .95-.28q.51-.15.33-.65c-5.06-14.3-10.33-28.74-12.03-43.9-.25-2.25.47-4.35.55-6.67.16-4.46 1.24-7.52 2.91-11.33q7.08-16.08 10.92-33.18c2.33-10.43 7.14-21.22 11.5-30.98 2.88-6.42 2.98-10.96 1.93-18.64q-2.13-15.65-2.92-31.41c-.28-5.49 1.41-10.9.98-16.73"/><path stroke="#fff2ea" vector-effect="non-scaling-stroke" d="M518.06 416.23q-.86-6.3-5.9-9.3-.43-.25-.23-.72.26-.58.81-.58"/><path stroke="#838383" vector-effect="non-scaling-stroke" d="M512.74 405.63c19.01.19 71.06-5.04 54.2-38.5-6.82-13.52-18.57-31.75 6.33-36.73q16.22-3.24 30.61 5.54c8.15 4.98 8.88 13.52 3.81 21.49q-4.45 6.97-6.71 15.75c-7.13 27.67 14.96 30.53 35.96 29.25q32.75-1.99 66.84-1.07a1.54 1.53-89.6 0 0 1.57-1.56q-.54-30.68-1.64-61.8-.42-12.07 1.58-21.74c1.54-7.43 7.59-21.05 15.61-23.83 10.11-3.51 21.33 4.92 32.05 6.24 13.35 1.64 21.69-1.76 30.71-11.46 10.8-11.61 17.71-28.45 10.61-43.96-4.23-9.22-13.62-19.02-23.65-22.58-16.02-5.69-30.73 4.39-44.93 9.03-2.4.79-7.93 2.07-10.73 1.15-8.87-2.95-9.87-26.55-10.21-36.42q-.61-17.68-.69-35.32a1.88 1.87 89.5 0 0-1.89-1.87q-31.21.42-62.09.74c-10.15.11-24.21-1.15-32.02-8.55-12.68-12.01 8.84-35.7 11.75-49.24q2.98-13.89-10.02-23.52c-12.98-9.62-28.37-11.67-43.89-8.32-13.05 2.81-29.82 12.23-30.78 27.28-.32 5.03 2.08 13.64 4.93 17.56 3.12 4.29 10.71 15.45 10.69 20.6-.08 23-24.09 26.91-41.93 25.57-38.23-2.85-77.01-1.33-115.4-1.33-9.59 0-20.38.54-28.94 4.72-14 6.84-4.4 17.74 1.28 25.74 5.28 7.42 8.05 20.81-2.3 25.97-10.63 5.3-25.72 7.95-37.77 5.12-7.97-1.88-22.29-8.93-14.08-19.51 5.98-7.71 14.98-16.41 16.01-26.65 1.31-13.14-10.23-14.84-20.36-14.7-29.85.41-59.62.88-89.38 3.17a1.16 1.16 0 0 0-1.07 1.1c-.68 13.6 3.18 91.2-21.63 88.44-7.68-.85-15.5-7.84-22.5-10.48-17.3-6.54-34.53-.61-44.65 14.39-10.91 16.17-10.37 37.16-.21 53.84 13.23 21.73 33.39 7.28 49.41-.23 33.98-15.94 38.23 8.35 38.54 34.3q.3 24.97.34 49.94.01 4.55 2.48 8.39.28.43.78.51 8.19 1.31 12.4.7 20.31-2.91 40.67-5.44c11.5-1.42 30.77-.82 39.53 7.97 3.85 3.87 1.87 8.02-1.09 12.03-7.09 9.59-14.38 16.63-12.41 29.63 1.87 12.42 9.25 22.14 21.33 26.59"/><path stroke="#eccebf" vector-effect="non-scaling-stroke" d="M319.79 473.57q-3.73 22.43 6.26 42.15 5.18 10.24 5.46 10.86c4.87 10.85 9.38 22.42 16.12 32.23q4.13 6.02 10.87 12.86c6.71 6.82 15.84 13.07 20.7 20.88q2.42 3.88 9.73 17.45"/><path stroke="#83766e" vector-effect="non-scaling-stroke" d="M512.74 405.63q-18.41-1.06-37.56-3.77"/><path stroke="#705243" vector-effect="non-scaling-stroke" d="m475.18 401.86-6.23-.61"/><path stroke="#603621" vector-effect="non-scaling-stroke" d="m468.95 401.25-4.34-.46"/><path stroke="#838383" vector-effect="non-scaling-stroke" d="m464.61 400.79-2.3.04"/><path stroke="#83766e" vector-effect="non-scaling-stroke" d="M462.31 400.83q-6.37-.51-12.14 2.6-.48.26-.92-.07c-4.03-3-6.74-2.38-11.37-2.51q-21.33-.57-42.63.1"/><path stroke="#705243" vector-effect="non-scaling-stroke" d="m395.25 400.95-9.22.52"/><path stroke="#603621" vector-effect="non-scaling-stroke" d="m386.03 401.47-8.3 1.36"/><path stroke="#83766e" vector-effect="non-scaling-stroke" d="M377.73 402.83q-4.1-1.77-9.34 2.31c-1.54 1.2-3.23 3.87-2.66 5.61q2.13 6.53 3.79 13.31"/><path stroke="#705243" vector-effect="non-scaling-stroke" d="M369.52 424.06q1.25 7.12.11 14.73"/><path stroke="#603621" vector-effect="non-scaling-stroke" d="M369.63 438.79q-.91 6.35-3.71 12.38"/><path stroke="#83766e" vector-effect="non-scaling-stroke" d="M365.92 451.17q-4.32 8.15-10.68 14.22"/><path stroke="#705243" vector-effect="non-scaling-stroke" d="M355.24 465.39q-15.91 13.98-35.45 8.18"/><path stroke="#83766e" vector-effect="non-scaling-stroke" d="m451.01 364 .81 17.62"/><path stroke="#838383" vector-effect="non-scaling-stroke" d="M451.82 381.62q-.41 4.84.64 10.48c.62 3.37 9.5 2.5 13.14 2.27"/><path stroke="#83766e" vector-effect="non-scaling-stroke" d="m465.6 394.37 24.22 2.46q.16.01.13.03-.17.1-.22.15-.19.19.09.21l8.52.64"/><path stroke="#838383" vector-effect="non-scaling-stroke" d="M498.34 397.86q19.13 2.89 39.45-1c12.43-2.38 31.59-8.39 23.95-25.08q-3.72-8.11-7.54-16.15c-9.94-20.87 8.04-32.68 26.3-32.65 16.27.03 40.48 7.95 36.5 29.25q-.55 2.92-2.91 7.07c-7.29 12.77-16.77 36.33 8.66 36.58 15.03.14 32.58-.88 44.99-1.06q14.99-.22 29.94.23a1.2 1.19-89.8 0 0 1.23-1.23q-.81-27.45-2-55.31c-.82-19.16 6.61-60.81 36.08-52.51 7.42 2.09 16.21 5.88 22.55 6.6 14.53 1.67 25.27-9.05 31.34-21.11 5.85-11.61 5.26-23.07-3.2-32.96-22.31-26.08-37.78-5.42-63.75-1.1-18.68 3.11-20.82-25.75-21.42-37.68q-.91-17.96-.75-35.77a.45.45 0 0 0-.45-.45q-30.97.54-62.05.74c-12.02.07-29.27-3.64-35.34-15.03-6.6-12.41 2.89-28.43 8.54-38.76 4.76-8.71 9.24-18.17.11-26.31-14.3-12.76-35.23-14.09-52.23-5.46-14.97 7.6-19.1 17.82-9.52 32.64 4.64 7.17 10.52 15.74 10.13 24.68-1.71 39.98-58.59 28.25-81.7 27.97q-7.35-.09-14.69.34a1.66 1.66 0 0 0-1.48 1.16q-5.78 18.83-9.65 38.43c-2.4 12.11-3.52 29.57 4.84 39.28 4.41 5.12 9.72 3.19 15.28.19 12.71-6.85 26.02-12.69 38.66-2.9 12.98 10.04 12.9 30.09 8.05 43.92-4.2 11.98-11.45 19.69-23.62 22.86-8.11 2.12-19.79-2.69-29.25-5.54-11.99-3.61-12.36 13.36-12.32 20.76.06 13.85-.46 27.66-.06 41.5"/><path stroke="#fff2ea" vector-effect="non-scaling-stroke" d="M498.34 397.86q-9-9.84-16.94-19.03c-5.34-6.19-12.48-10.87-18.31-2.94-4.99 6.8-.13 12.34 2.51 18.48M451.82 381.62c8.22-3.14 9.74-15.65-.81-17.62"/><path stroke="#83766e" vector-effect="non-scaling-stroke" d="M319.8 466.42c15.92 6.91 31.93-2.32 39.42-16.74q.2-.4-.02-1.02"/><path stroke="#603621" vector-effect="non-scaling-stroke" d="M359.2 448.66q.33-.81.06-1.67a.86.85-29.7 0 1 .25-.9q2.28-2.02 2.89-3.9 1.26-3.88 1.31-8.72"/><path stroke="#705243" vector-effect="non-scaling-stroke" d="m363.71 433.47-1.06-9.2"/><path stroke="#83766e" vector-effect="non-scaling-stroke" d="M362.65 424.27c-1.89-8.16-7.05-16.73 1-23.35q4.89-4.01 7.35-4.44c17.49-3.09 39.42-2.67 59.4-2.47"/><path stroke="#705243" vector-effect="non-scaling-stroke" d="m430.4 394.01 3.75.12"/><path stroke="#838383" vector-effect="non-scaling-stroke" d="m434.15 394.13 11.58.08q.53 0 .48-.53l-1.02-10.2"/><path stroke="#705243" vector-effect="non-scaling-stroke" d="m445.19 383.48-.51-7.36"/><path stroke="#83766e" vector-effect="non-scaling-stroke" d="m444.68 376.12-.26-1.76"/><path stroke="#838383" vector-effect="non-scaling-stroke" d="M444.42 374.36q-.69-27.98-.01-54.68c.29-11.47 3.57-27.21 19.03-24.64 5.45.91 20.39 7.87 28.05 5.86 16.14-4.26 21.85-21.45 21.19-36.53-.45-10.24-6.22-21.29-17.3-22.57-11.56-1.33-20.07 7.71-30.46 10.69q-3.14.89-5.92.27c-20.46-4.58-18.98-35.05-15.84-50.68q3.78-18.89 9.18-36.86.32-1.04-.77-1.04-31.42.12-62 .59c-4.07.06-29.72.8-25.41 9.99q.95 2.02 5.77 8.31c10.15 13.25 10.48 31.86-7.28 38.86-15.07 5.94-34.47 7.94-49.11.06-5.96-3.21-12.61-11.38-10.53-18.74 2.35-8.29 11.62-16.28 15.44-22.55 5.89-9.69 3.16-15.91-8.71-15.72-28.64.47-57.57.28-86.08 3.33q-.51.06-.57.57-.21 1.69-.16 3.37c.61 18.77 1.59 78.21-22.11 84.99-12.51 3.58-20.89-7.29-32.77-10.98-19.96-6.19-37.18 8.35-40.84 27.47-2.22 11.6 1.18 30.63 11.94 38.12 9.66 6.71 26.33-4.27 35.19-8.63 15.39-7.58 35.92-10.42 43.52 9.46q3.85 10.09 4.11 22.58.57 28.03.61 59.06.01 2.16 2.16 2.21 4.64.1 10.67-.79 20.49-3.02 41.11-5.04 14.16-1.39 27.72 2.85c12.78 3.99 21.94 13.68 12.26 27.02q-4.08 5.62-8.25 11.15c-8.49 11.25-.66 29.41 11.55 34.7"/><path stroke="#fff2ea" vector-effect="non-scaling-stroke" d="M444.42 374.36q-8.92-.02-12.27-8.54-.65-1.65 1-3.52.28-.32.7-.41l6.71-1.43q.55-.12.91-.53c6.54-7.3-13.19-11.17-16.23-11.43-10.9-.96-22.77-1.8-30.52 7.47q-1.46 1.74-2.14 4.56"/><path stroke="#eccebf" vector-effect="non-scaling-stroke" d="M392.58 360.53q-.2 1.95-.84 2.63"/><path stroke="#fff2ea" vector-effect="non-scaling-stroke" d="M391.74 363.16c-8.92-.96-14.93-1.57-22.24 4.11-6.89 5.35-9.27 15.37-8.44 23.76a1.42 1.42 0 0 1-1.55 1.55c-12.1-1.24-21.29 4.32-23.89 16.61"/><path stroke="#eccebf" vector-effect="non-scaling-stroke" d="M335.62 409.19q-1.34 15.8 1.35 32.1"/><path stroke="#fff2ea" vector-effect="non-scaling-stroke" d="M336.97 441.29q-2.96 1.54-5.96 3.03c-9.09 4.51-10.69 12.79-11.21 22.1"/><path stroke="#eccebf" vector-effect="non-scaling-stroke" d="m445.19 383.48-7.35 3.64"/><path stroke="#ecc1aa" vector-effect="non-scaling-stroke" d="m437.84 387.12-3.39-.08"/><path stroke="#c9805d" vector-effect="non-scaling-stroke" d="M434.45 387.04c1.31-1.82-1.65-2.44-2.47-3.26q-.37-.36-.87-.28-1.97.29-3.19-1.34-.3-.4-.8-.51c-2.96-.66-4.57-2.78-6.89-4q-1.82-.96-3.52-2.15-.4-.28-.89-.32-3.73-.32-6.73-2.47-1.31-.95-1.87 0"/><path stroke="#ecc1aa" vector-effect="non-scaling-stroke" d="m407.22 372.71-15.48-9.55"/><path stroke="#c9805d" vector-effect="non-scaling-stroke" d="M363.71 433.47q-5.38.94-10.92-2.53c-2.7-1.7-8.94-6.37-11.33-3.01q-2.52 3.54-2.17 8.67c.16 2.4-.52 4.1-.85 6.38"/><path stroke="#ecc1aa" vector-effect="non-scaling-stroke" d="M338.44 442.98q-1.06-.18-1.47-1.69"/><path stroke="#dca588" vector-effect="non-scaling-stroke" d="M407.22 372.71c4.89 3.74 11.26 9.74 17.12 11.46q5.06 1.49 10.11 2.87"/><path stroke="#fff2ea" vector-effect="non-scaling-stroke" d="M437.84 387.12q-3.81 1.07-3.03 4.6"/><path stroke="#ecc1aa" vector-effect="non-scaling-stroke" d="m434.81 391.72-9.85-5.92a.59.59 0 0 0-.83.78q1.94 3.76 6.27 7.43M362.65 424.27q-1.23.94-3.11-1.1c-1.8-1.95-5.5-1.84-7.43-2.31q-9.4-2.29-14.3-10.76-.25-.42-.72-.54l-1.47-.37M444.68 376.12q-8.62-1.51-13.26-6.92c-1.03-1.21-1.52-3.24-3.31-4.17-6.85-3.53-9.85-5.39-17.97-4.1q-3.82.6-5.81.59-5.86-.03-11.75-.99"/><path stroke="#eccebf" vector-effect="non-scaling-stroke" d="M434.15 394.13q.73-.96.66-2.41"/><path stroke="#dca588" vector-effect="non-scaling-stroke" d="M359.2 448.66c-7.05-2-13.64-4.41-20.76-5.68"/><path stroke="#838383" vector-effect="non-scaling-stroke" d="M613.51 252.77a4.75 4.06 95.2 0 0 4.473-4.362 4.75 4.06 95.2 0 0-3.612-5.098 4.75 4.06 95.2 0 0-4.474 4.362 4.75 4.06 95.2 0 0 3.612 5.099M542.29 274.03c7.45-.7 18.8-5.43 21.07-13.35 1.99-6.96-4.02-13.52-10.37-15.14q-8.22-2.09-15.51 1.77a1.29 1.27-12.5 0 0-.69 1.06q-1.27 20.13-1 39.87.03 2.02.79 3.47a1.02 1-13.4 0 0 .9.54h3.47q.57 0 .65-.56c.79-5.64 0-11.41.19-17.12q.02-.49.5-.54M628.29 266.76c-.94 10.02 5.01 28.58 19.01 24.55q6.38-1.84 10.31-7.22c1.82-2.5-1.25-4.59-3.73-4q-.5.12-.88.47-3.65 3.39-8.12 5.63-.46.23-.94.04-6.52-2.56-8.54-9.66-4.06-14.27 6.15-23.18c7.34-6.41 8.02 3.99 12.55 2.67a2.71 2.71 0 0 0 1.77-3.56q-2.81-7.34-9.68-7.11c-10.4.35-17.02 11.99-17.9 21.37M589.35 269.44c9.51-4.33 13.91-17.4 1.44-22.11q-7.4-2.79-15.57-.82c-5.72 1.37-3.1 9.76-3.18 13.49q-.28 14.12-.58 28.25-.03 1.32.48 4.22.09.53.62.53h4.09q.64 0 .66-.65l.44-17.98q.01-.59.57-.82 1.99-.8 3.95-.4c4.96 1.02 12.28 14.39 14.29 18.83q.23.52.79.66 2.01.5 3.71-.55a1.03 1.02-17.5 0 0 .48-.92c-.33-7.37-7.15-15.76-12.39-20.46a.77.77 0 0 1 .2-1.27M674.28 285.66q-1.06-.06-1.03-1.12l.33-11.85q.02-.7.73-.72l14-.32a.64.64 0 0 0 .63-.64l.05-4.29a.71.71 0 0 0-.71-.72h-13.7a.61.61 0 0 1-.61-.6l-.26-11.9q-.02-1.06 1.04-1.05l16.98.17q.6 0 .57-.6l-.2-4.1q-.02-.51-.52-.67c-5.69-1.82-15.23-.75-20.95-.75q-2.7 0-2.74 2.69l-.71 41.77a1.27 1.27 0 0 0 1.28 1.29l23.23-.33q.61-.01.57-.62l-.33-4.78q-.04-.53-.57-.53-8.54.1-17.08-.33M617.686 263.525a2.01 2.01 0 0 0-2.013-2.007l-1.94.004a2.01 2.01 0 0 0-2.007 2.013l.048 27.16a2.01 2.01 0 0 0 2.013 2.007l1.94-.004a2.01 2.01 0 0 0 2.007-2.013l-.048-27.16M262.62 294.01a.61.61 0 0 1-1.02-.28l-9.67-36.72q-.12-.43-.53-.61c-3.54-1.53-5.43 2.02-4.62 5.1 3.22 12.28 5.82 24.8 10.28 36.7q1.83 4.88 6.3 4.87.58 0 1.02-.38c4.12-3.52 6.74-12.14 8.22-17.24q3.87-13.22 7.37-26.27.31-1.13-.68-1.76c-5.04-3.18-6.06 2.21-6.85 5.46q-3.56 14.61-8.5 28.8-.54 1.56-1.32 2.33M310.53 283.73q-3.49-13.73-8.86-26.84-.21-.53-.77-.67-4.16-1.06-5.6 3.36-4.37 13.39-7.29 24.25c-.5 1.84-1.95 2.41-2.27 4.41q-.88 5.58-2.19 11.07c-.72 3.05 2.26 4.31 4.74 3.46a1.09 1.08-2.2 0 0 .68-.73l2.59-9.26a2.01 2.01 0 0 1 1.88-1.47l12.52-.36q.5-.01.59.47 1.1 5.57 3.63 10.65a2.2 2.2 0 0 0 2.78 1.07c4.92-1.93.86-8.63-.25-11.96q-.16-.47.11-.87c1.53-2.33 1.28-4.98-1.69-5.94q-.47-.15-.6-.64M401.25 295.52v-12.83q0-.69.68-.68 7.24.06 14.43-.64.67-.06.66-.73l-.06-4.28a.54.53 89.4 0 0-.53-.53l-14.44-.02a.56.55 1 0 1-.56-.57l.35-12.09q.02-.5.51-.51l17.22-.49q.82-.03.77-.85l-.26-4.2q-.05-.76-.81-.82c-5.97-.5-11.98.08-17.98-.03-3.79-.06-5.54.75-5.63 4.76-.3 13.37-.16 26.67-.27 39.99a1.64 1.64 0 0 0 1.71 1.65l22.53-.98q.71-.03.7-.74l-.06-4.41a.86.86 0 0 0-.88-.85l-17.56.35q-.52.01-.52-.5M360.19 299.31c3.19 2.62 7.77 3.98 11.79 2.27 13.03-5.51 13.06-28.88 12.74-40.33q-.04-1.68-.9-4.13-.19-.55-.77-.56l-3.67-.05a.54.54 0 0 0-.54.51c-.46 9.51 0 19.24-2.19 28.4-.94 3.92-4.34 12.38-9.63 10.6-6.86-2.29-7.82-9-7.55-15.27q.45-10.56 1.12-22.23a1.36 1.36 0 0 0-.72-1.28q-2.87-1.53-4.31.15c-2.22 2.58-2.16 22.66-2.16 26.82q-.01 9.53 6.79 15.1M329.76 295.27q-.16-18.14.3-36.27c.07-3.06-3.41-2.51-5.12-1.89q-.58.21-.68.82-.32 1.9-.42 6.07-.39 15.94-.64 31.89c-.03 1.86.29 3.68.68 5.4a1.37 1.36-7.4 0 0 1.38 1.06l22.3-.79q.61-.02.65-.62l.35-4.83q.03-.49-.46-.48l-17.8.16q-.53.01-.54-.52"/><path stroke="#838383" vector-effect="non-scaling-stroke" d="m542.77 251.96-.4 15.77a.64.63-7.7 0 0 .82.62c5.3-1.6 12.1-4.66 14.47-9.97q.21-.46.04-.94c-2.39-7.07-8.1-6.18-14.19-6.19a.74.73.8 0 0-.74.71M589.16 262.16c10.37-8.91-5.42-10.84-10.35-10.06q-.56.08-.56.65v14.23a.95.95 0 0 0 1.3.88q5.52-2.18 9.61-5.7M294.34 284.27a.37.37 0 0 0 .36.47l9.16.01a.37.37 0 0 0 .36-.47l-4.56-15.98a.37.37 0 0 0-.71 0l-4.61 15.97"/><path stroke="#fff2ea" vector-effect="non-scaling-stroke" d="M462.31 400.83q-1.36.79-.56 4.03.13.51-.14.96c-4.77 7.72-9.93 6.07-17.65 6.8"/><path stroke="#dca588" vector-effect="non-scaling-stroke" d="m443.96 412.62-9.82-10.7a.48.47-40.9 0 0-.65-.04l-.21.17"/><path stroke="#ecc1aa" vector-effect="non-scaling-stroke" d="M433.28 402.05q-2.01.88-3.23 2.58-.23.33-.58.53l-3.99 2.35a1.58 1.55 31.1 0 1-.89.21q-3.73-.22-6.85-2.24-.48-.32-1.05-.24-2.13.29-3.07-1.44-.25-.46-.77-.59c-6.04-1.46-12.92-.58-17.1-.99q-1.03-.1-.5-1.27"/><path stroke="#dcb29d" vector-effect="non-scaling-stroke" d="M464.61 400.79c-.78 11.92 6.37 19.49 12.02 28.1 2.55 3.89 2.15 18.72.87 23.17"/><path stroke="#eccebf" vector-effect="non-scaling-stroke" d="M477.5 452.06c-4.19-.87-9.99-1.21-13.42-3.77q-8.93-6.64-13.38-16.93a1.78 1.74 37.9 0 1-.13-.95q1.03-7.66-3.47-12.53"/><path stroke="#dcb29d" vector-effect="non-scaling-stroke" d="m447.1 417.88-3.14-5.26"/><path stroke="#c9805d" vector-effect="non-scaling-stroke" d="M468.95 401.25c-.66 1.67 1.15 2.45 1.9 3.58q5.04 7.57 9.04 15.7c3.16 6.41 6.04 10.22 11.14 14.36 2.06 1.67 3.03 3.54 4.21 5.74a.7.69 53.5 0 1-.12.84q-2.19 2.18-5.24 2.63a1.59 1.59 0 0 0-.32 3.06l6.72 2.52q.5.19.21.65-.38.58-1.27.21-3.34-1.38-6.31-.26-.57.21-.64.81l-1.16 10.58q-.06.52-.43.88l-2.6 2.46q-.32.31-.44.74-.75 2.91.01 5.88a.99.98 61.7 0 1-.29.98q-.85.77-.72 2 .12 1.27-.75.34c-3.67-3.9-7.98-5.74-11.08-10.11q-.3-.43.04-.83l3.01-3.47a1.19 1.15 64.6 0 0 .29-.85q-.23-3.47 2.57-5.64a1.44 1.37 79.3 0 0 .49-.76l.29-1.23M433.28 402.05q.71 1.23.44 2.6-.09.46.18.85 5.18 7.47 13.2 12.38"/><path stroke="#ecc1aa" vector-effect="non-scaling-stroke" d="M475.18 401.86q.56 3.08 5.53 2.87.54-.03.84.43c.39.61.75.89 1.45 1.19q1.97.84 3.52 2.28c2.42 2.24 3.97 3.19 6.48 4.55a1.33 1.33 0 0 1 .58.64q.5 1.23 1.66 1.38.5.06.85.43l1.18 1.27q.28.3.69.36 9.99 1.3 20.1-1.03M355.24 465.39q.59.94 1.7 1.42.51.22.93-.13 2.2-1.8 4.87-.41a1.5 1.46 51.9 0 0 1.02.14q4.2-.88 8.43-.41a1.03 1.02 26.8 0 0 .8-.26c3.71-3.31.51-8.26-2.87-10.31q-.42-.25-.59-.73l-.86-2.45"/><path stroke="#c9805d" vector-effect="non-scaling-stroke" d="M368.67 452.25q11.08 1.75 16.84 10.39c2.87 4.29 3.28 10.33 8.31 13.34q3.21 1.92 5.79 4.68c1.15 1.23 4.52 2.86 5.2.32q.13-.5.57-.79 2.14-1.43 1.76-3.91a1.52 1.5-6.6 0 1 1.39-1.74q2.74-.18 4.36 1.67a5.97 4.85 29.2 0 0 .58.59l1.91 1.75a1.54 1.52 20.4 0 1 .51 1.09c.21 4.97-1.25 8.51 2.49 12.7q.34.38.36.89c.11 4.11 1.14 7.84 1.35 12.1q.22 4.5 1.77 9.3a.84.84 0 0 0 1.61-.07l.76-3.17q.11-.46.57-.61l1.25-.42q.49-.17.86-.53 1.47-1.48 3.6-1.59.55-.02.76.49l1.42 3.52a.88.87-16.6 0 0 .98.52q1.8-.37 2.18-2.09c.55-2.5 1.48-5.14 1.88-7.64.39-2.35 3.93-3.62 5.71-5.63q.33-.38.45-.86.93-3.59 4.76-3.6a1.71 1.71 0 0 0 1.69-1.97c-1.43-9.39 5.77-12.2 12.75-15.64 2.3-1.13 3.57-3.32 6.13-4.51q.46-.22.62-.7c1-2.94-2.67-2.4-3.44-4.44a1.32 1.29 5.7 0 0-.57-.68c-3.34-1.95-5.27-5.31-7.63-8.15-1.75-2.1-3.17-5.99-7-6.58q-5.75-.89-5.68-6.24.01-.56-.29-1.03-1.17-1.87-1.46-4.04a1.07 1.07 0 0 0-1.73-.69c-7.37 5.89-12.28.34-18.37-3.47q-1.53-.96-2.9-2.18-.27-.24-.27-.6v-.49q0-.43-.3-.73c-5.42-5.54-11.4-12.41-17.96-16.48-2.16-1.34-4.07-3.46-6.69-4.85-1.6-.84-2.77-2.11-4.57-3.01q-3.15-1.58-4.95-5"/><path stroke="#ecc1aa" vector-effect="non-scaling-stroke" d="M432.61 408.25c-4.18.87-8.66 4.51-8.56 9.18a.5.5 0 0 0 .82.37l2.77-2.32q.22-.18.5-.25 4.23-1.05 5.55-5.83a.92.92 0 0 0-1.08-1.15"/><path stroke="#c9805d" vector-effect="non-scaling-stroke" d="m338.3 502.79-.05.4q-.07.5.32.19l3.94-3.1q.27-.22.61-.22c2.41-.03 6.97-1.87 8.45 1.31q1.44 3.09 3.67 6.09.27.36.61.06l19.58-18.06q.42-.38-.07-.66-6.22-3.48-12.84-6.12c-2.27-.9-5.16-.31-7.86-.95q-3.52-.85-7.23-.99-.46-.01-.81.28l-7.05 6.04q-.39.34-.55.82c-.35 1.09-5.8 4.39-7.07 5.32a.37.37 0 0 0 .09.64q1.19.46 2.26-.29 4.05-2.83 8.22-3.45c.84-.13 1.24-.65 1.65-1.3a1.23 1.22 9.9 0 1 .76-.53l7.25-1.68a.49.49 0 0 1 .56.68q-.43.94-1.44.72a.62.61 14.9 0 0-.71.4q-.48 1.44-1.73 1.92-.46.18-.81.53c-4.47 4.51-8.85 7.27-14.08 10.79a.72.72 0 0 0 .49 1.31l3.57-.43q.31-.03.27.28"/><path stroke="#dca588" vector-effect="non-scaling-stroke" d="M368.67 452.25q-1.09-.83-2.75-1.08"/><path stroke="#c9805d" vector-effect="non-scaling-stroke" d="M369.63 438.79q8.99 4.58 16.13 11.4c2.68 2.56 6.69 5.8 10.02 7.36 2.4 1.12 13.15 7.6 9.7 10.12a.15.15 0 0 0 .03.25q.1.04.28.07a.57.43-38.8 0 1-.24.97c-3.38.55-4.88 4.05-1.59 6.21q.54.36.97-.13c2.59-2.98 4.71-7.21 9.47-5.95q7.58 2 13.37-1.82c7.61-5.03 9.41-13.85 1.86-19.77q-5.64-4.42-10.67-9.49-.35-.34-.46-.82c-1.28-5.26-7.92-11.14-12.85-15.37"/><path stroke="#dca588" vector-effect="non-scaling-stroke" d="M405.65 421.82q-.78-1.25-3.46-3.01-12.09-7.93-24.46-15.98"/><path stroke="#ecc1aa" vector-effect="non-scaling-stroke" d="M405.65 421.82q4.94 7.11 5.94 14.01.08.55.63.55c3.87.01 5.02 2.37 7.18 5.02 1.8 2.21 4.42 3.57 6.46 5.68q.32.34.76.51 1.11.42 1.4 1.56a2.47 2.46 19.7 0 0 .41.86q1.72 2.23 1.99 5.03.05.49-.28.86-1.41 1.58-2.77 3.26-1.38 1.7-4.65.9a1.32 1.28 77.6 0 1-.72-.48q-2.73-3.64-6.88-5.47-.44-.2-.75-.57l-1.19-1.49q-.26-.31-.66-.35-1.97-.19-2.56-1.81-.16-.44-.61-.47-1.54-.11-2.46-2.01-1.5-3.08-.46-5.72.25-.63-.41-.78l-.79-.18a.94.91-63.7 0 0-.93.33q-.48.61-1.2.9a.74.73 57.7 0 1-.83-.19c-1.61-1.76-3.6-2.36-5.18-3.82-3.45-3.17-6.71-7.26-11.21-8.46-2.52-.67-4.02-1.44-6.14-2.21-2.17-.79-4.99-.19-6.97-2.89a1.24 1.23 76.4 0 0-.8-.49q-1.17-.18-2.45.16"/></g><path fill="#fff" d="M0 0h920v610H502.94l.95-.28q.51-.15.33-.65c-5.06-14.3-10.33-28.74-12.03-43.9-.25-2.25.47-4.35.55-6.67.16-4.46 1.24-7.52 2.91-11.33q7.08-16.08 10.92-33.18c2.33-10.43 7.14-21.22 11.5-30.98 2.88-6.42 2.98-10.96 1.93-18.64q-2.13-15.65-2.92-31.41c-.28-5.49 1.41-10.9.98-16.73q-.86-6.3-5.9-9.3-.43-.25-.23-.72.26-.58.81-.58c19.01.19 71.06-5.04 54.2-38.5-6.82-13.52-18.57-31.75 6.33-36.73q16.22-3.24 30.61 5.54c8.15 4.98 8.88 13.52 3.81 21.49q-4.45 6.97-6.71 15.75c-7.13 27.67 14.96 30.53 35.96 29.25q32.75-1.99 66.84-1.07a1.54 1.53-89.6 0 0 1.57-1.56q-.54-30.68-1.64-61.8-.42-12.07 1.58-21.74c1.54-7.43 7.59-21.05 15.61-23.83 10.11-3.51 21.33 4.92 32.05 6.24 13.35 1.64 21.69-1.76 30.71-11.46 10.8-11.61 17.71-28.45 10.61-43.96-4.23-9.22-13.62-19.02-23.65-22.58-16.02-5.69-30.73 4.39-44.93 9.03-2.4.79-7.93 2.07-10.73 1.15-8.87-2.95-9.87-26.55-10.21-36.42q-.61-17.68-.69-35.32a1.88 1.87 89.5 0 0-1.89-1.87q-31.21.42-62.09.74c-10.15.11-24.21-1.15-32.02-8.55-12.68-12.01 8.84-35.7 11.75-49.24q2.98-13.89-10.02-23.52c-12.98-9.62-28.37-11.67-43.89-8.32-13.05 2.81-29.82 12.23-30.78 27.28-.32 5.03 2.08 13.64 4.93 17.56 3.12 4.29 10.71 15.45 10.69 20.6-.08 23-24.09 26.91-41.93 25.57-38.23-2.85-77.01-1.33-115.4-1.33-9.59 0-20.38.54-28.94 4.72-14 6.84-4.4 17.74 1.28 25.74 5.28 7.42 8.05 20.81-2.3 25.97-10.63 5.3-25.72 7.95-37.77 5.12-7.97-1.88-22.29-8.93-14.08-19.51 5.98-7.71 14.98-16.41 16.01-26.65 1.31-13.14-10.23-14.84-20.36-14.7-29.85.41-59.62.88-89.38 3.17a1.16 1.16 0 0 0-1.07 1.1c-.68 13.6 3.18 91.2-21.63 88.44-7.68-.85-15.5-7.84-22.5-10.48-17.3-6.54-34.53-.61-44.65 14.39-10.91 16.17-10.37 37.16-.21 53.84 13.23 21.73 33.39 7.28 49.41-.23 33.98-15.94 38.23 8.35 38.54 34.3q.3 24.97.34 49.94.01 4.55 2.48 8.39.28.43.78.51 8.19 1.31 12.4.7 20.31-2.91 40.67-5.44c11.5-1.42 30.77-.82 39.53 7.97 3.85 3.87 1.87 8.02-1.09 12.03-7.09 9.59-14.38 16.63-12.41 29.63 1.87 12.42 9.25 22.14 21.33 26.59q-3.73 22.43 6.26 42.15 5.18 10.24 5.46 10.86c4.87 10.85 9.38 22.42 16.12 32.23q4.13 6.02 10.87 12.86c6.71 6.82 15.84 13.07 20.7 20.88q2.42 3.88 9.73 17.45H0V0z"/><path fill="#070707" d="M512.74 405.63q-18.41-1.06-37.56-3.77l-6.23-.61-4.34-.46-2.3.04q-6.37-.51-12.14 2.6-.48.26-.92-.07c-4.03-3-6.74-2.38-11.37-2.51q-21.33-.57-42.63.1l-9.22.52-8.3 1.36q-4.1-1.77-9.34 2.31c-1.54 1.2-3.23 3.87-2.66 5.61q2.13 6.53 3.79 13.31 1.25 7.12.11 14.73-.91 6.35-3.71 12.38-4.32 8.15-10.68 14.22-15.91 13.98-35.45 8.18c-12.08-4.45-19.46-14.17-21.33-26.59-1.97-13 5.32-20.04 12.41-29.63 2.96-4.01 4.94-8.16 1.09-12.03-8.76-8.79-28.03-9.39-39.53-7.97q-20.36 2.53-40.67 5.44-4.21.61-12.4-.7-.5-.08-.78-.51-2.47-3.84-2.48-8.39-.04-24.97-.34-49.94c-.31-25.95-4.56-50.24-38.54-34.3-16.02 7.51-36.18 21.96-49.41.23-10.16-16.68-10.7-37.67.21-53.84 10.12-15 27.35-20.93 44.65-14.39 7 2.64 14.82 9.63 22.5 10.48 24.81 2.76 20.95-74.84 21.63-88.44a1.16 1.16 0 0 1 1.07-1.1c29.76-2.29 59.53-2.76 89.38-3.17 10.13-.14 21.67 1.56 20.36 14.7-1.03 10.24-10.03 18.94-16.01 26.65-8.21 10.58 6.11 17.63 14.08 19.51 12.05 2.83 27.14.18 37.77-5.12 10.35-5.16 7.58-18.55 2.3-25.97-5.68-8-15.28-18.9-1.28-25.74 8.56-4.18 19.35-4.72 28.94-4.72 38.39 0 77.17-1.52 115.4 1.33 17.84 1.34 41.85-2.57 41.93-25.57.02-5.15-7.57-16.31-10.69-20.6-2.85-3.92-5.25-12.53-4.93-17.56.96-15.05 17.73-24.47 30.78-27.28 15.52-3.35 30.91-1.3 43.89 8.32q13 9.63 10.02 23.52c-2.91 13.54-24.43 37.23-11.75 49.24 7.81 7.4 21.87 8.66 32.02 8.55q30.88-.32 62.09-.74a1.88 1.87 89.5 0 1 1.89 1.87q.08 17.64.69 35.32c.34 9.87 1.34 33.47 10.21 36.42 2.8.92 8.33-.36 10.73-1.15 14.2-4.64 28.91-14.72 44.93-9.03 10.03 3.56 19.42 13.36 23.65 22.58 7.1 15.51.19 32.35-10.61 43.96-9.02 9.7-17.36 13.1-30.71 11.46-10.72-1.32-21.94-9.75-32.05-6.24-8.02 2.78-14.07 16.4-15.61 23.83q-2 9.67-1.58 21.74 1.1 31.12 1.64 61.8a1.54 1.53-89.6 0 1-1.57 1.56q-34.09-.92-66.84 1.07c-21 1.28-43.09-1.58-35.96-29.25q2.26-8.78 6.71-15.75c5.07-7.97 4.34-16.51-3.81-21.49q-14.39-8.78-30.61-5.54c-24.9 4.98-13.15 23.21-6.33 36.73 16.86 33.46-35.19 38.69-54.2 38.5zM451.01 364l.81 17.62q-.41 4.84.64 10.48c.62 3.37 9.5 2.5 13.14 2.27l24.22 2.46q.16.01.13.03-.17.1-.22.15-.19.19.09.21l8.52.64q19.13 2.89 39.45-1c12.43-2.38 31.59-8.39 23.95-25.08q-3.72-8.11-7.54-16.15c-9.94-20.87 8.04-32.68 26.3-32.65 16.27.03 40.48 7.95 36.5 29.25q-.55 2.92-2.91 7.07c-7.29 12.77-16.77 36.33 8.66 36.58 15.03.14 32.58-.88 44.99-1.06q14.99-.22 29.94.23a1.2 1.19-89.8 0 0 1.23-1.23q-.81-27.45-2-55.31c-.82-19.16 6.61-60.81 36.08-52.51 7.42 2.09 16.21 5.88 22.55 6.6 14.53 1.67 25.27-9.05 31.34-21.11 5.85-11.61 5.26-23.07-3.2-32.96-22.31-26.08-37.78-5.42-63.75-1.1-18.68 3.11-20.82-25.75-21.42-37.68q-.91-17.96-.75-35.77a.45.45 0 0 0-.45-.45q-30.97.54-62.05.74c-12.02.07-29.27-3.64-35.34-15.03-6.6-12.41 2.89-28.43 8.54-38.76 4.76-8.71 9.24-18.17.11-26.31-14.3-12.76-35.23-14.09-52.23-5.46-14.97 7.6-19.1 17.82-9.52 32.64 4.64 7.17 10.52 15.74 10.13 24.68-1.71 39.98-58.59 28.25-81.7 27.97q-7.35-.09-14.69.34a1.66 1.66 0 0 0-1.48 1.16q-5.78 18.83-9.65 38.43c-2.4 12.11-3.52 29.57 4.84 39.28 4.41 5.12 9.72 3.19 15.28.19 12.71-6.85 26.02-12.69 38.66-2.9 12.98 10.04 12.9 30.09 8.05 43.92-4.2 11.98-11.45 19.69-23.62 22.86-8.11 2.12-19.79-2.69-29.25-5.54-11.99-3.61-12.36 13.36-12.32 20.76.06 13.85-.46 27.66-.06 41.5zM319.8 466.42c15.92 6.91 31.93-2.32 39.42-16.74q.2-.4-.02-1.02.33-.81.06-1.67a.86.85-29.7 0 1 .25-.9q2.28-2.02 2.89-3.9 1.26-3.88 1.31-8.72l-1.06-9.2c-1.89-8.16-7.05-16.73 1-23.35q4.89-4.01 7.35-4.44c17.49-3.09 39.42-2.67 59.4-2.47l3.75.12 11.58.08q.53 0 .48-.53l-1.02-10.2-.51-7.36-.26-1.76q-.69-27.98-.01-54.68c.29-11.47 3.57-27.21 19.03-24.64 5.45.91 20.39 7.87 28.05 5.86 16.14-4.26 21.85-21.45 21.19-36.53-.45-10.24-6.22-21.29-17.3-22.57-11.56-1.33-20.07 7.71-30.46 10.69q-3.14.89-5.92.27c-20.46-4.58-18.98-35.05-15.84-50.68q3.78-18.89 9.18-36.86.32-1.04-.77-1.04-31.42.12-62 .59c-4.07.06-29.72.8-25.41 9.99q.95 2.02 5.77 8.31c10.15 13.25 10.48 31.86-7.28 38.86-15.07 5.94-34.47 7.94-49.11.06-5.96-3.21-12.61-11.38-10.53-18.74 2.35-8.29 11.62-16.28 15.44-22.55 5.89-9.69 3.16-15.91-8.71-15.72-28.64.47-57.57.28-86.08 3.33q-.51.06-.57.57-.21 1.69-.16 3.37c.61 18.77 1.59 78.21-22.11 84.99-12.51 3.58-20.89-7.29-32.77-10.98-19.96-6.19-37.18 8.35-40.84 27.47-2.22 11.6 1.18 30.63 11.94 38.12 9.66 6.71 26.33-4.27 35.19-8.63 15.39-7.58 35.92-10.42 43.52 9.46q3.85 10.09 4.11 22.58.57 28.03.61 59.06.01 2.16 2.16 2.21 4.64.1 10.67-.79 20.49-3.02 41.11-5.04 14.16-1.39 27.72 2.85c12.78 3.99 21.94 13.68 12.26 27.02q-4.08 5.62-8.25 11.15c-8.49 11.25-.66 29.41 11.55 34.7z"/><path fill="#fff" d="M498.34 397.86q-9-9.84-16.94-19.03c-5.34-6.19-12.48-10.87-18.31-2.94-4.99 6.8-.13 12.34 2.51 18.48-3.64.23-12.52 1.1-13.14-2.27q-1.05-5.64-.64-10.48c8.22-3.14 9.74-15.65-.81-17.62-.4-13.84.12-27.65.06-41.5-.04-7.4.33-24.37 12.32-20.76 9.46 2.85 21.14 7.66 29.25 5.54 12.17-3.17 19.42-10.88 23.62-22.86 4.85-13.83 4.93-33.88-8.05-43.92-12.64-9.79-25.95-3.95-38.66 2.9-5.56 3-10.87 4.93-15.28-.19-8.36-9.71-7.24-27.17-4.84-39.28q3.87-19.6 9.65-38.43a1.66 1.66 0 0 1 1.48-1.16q7.34-.43 14.69-.34c23.11.28 79.99 12.01 81.7-27.97.39-8.94-5.49-17.51-10.13-24.68-9.58-14.82-5.45-25.04 9.52-32.64 17-8.63 37.93-7.3 52.23 5.46 9.13 8.14 4.65 17.6-.11 26.31-5.65 10.33-15.14 26.35-8.54 38.76 6.07 11.39 23.32 15.1 35.34 15.03q31.08-.2 62.05-.74a.45.45 0 0 1 .45.45q-.16 17.81.75 35.77c.6 11.93 2.74 40.79 21.42 37.68 25.97-4.32 41.44-24.98 63.75 1.1 8.46 9.89 9.05 21.35 3.2 32.96-6.07 12.06-16.81 22.78-31.34 21.11-6.34-.72-15.13-4.51-22.55-6.6-29.47-8.3-36.9 33.35-36.08 52.51q1.19 27.86 2 55.31a1.2 1.19-89.8 0 1-1.23 1.23q-14.95-.45-29.94-.23c-12.41.18-29.96 1.2-44.99 1.06-25.43-.25-15.95-23.81-8.66-36.58q2.36-4.15 2.91-7.07c3.98-21.3-20.23-29.22-36.5-29.25-18.26-.03-36.24 11.78-26.3 32.65q3.82 8.04 7.54 16.15c7.64 16.69-11.52 22.7-23.95 25.08q-20.32 3.89-39.45 1zm115.17-145.09a4.75 4.06 95.2 0 0 4.473-4.362 4.75 4.06 95.2 0 0-3.612-5.098 4.75 4.06 95.2 0 0-4.474 4.362 4.75 4.06 95.2 0 0 3.612 5.099zm-71.22 21.26c7.45-.7 18.8-5.43 21.07-13.35 1.99-6.96-4.02-13.52-10.37-15.14q-8.22-2.09-15.51 1.77a1.29 1.27-12.5 0 0-.69 1.06q-1.27 20.13-1 39.87.03 2.02.79 3.47a1.02 1-13.4 0 0 .9.54h3.47q.57 0 .65-.56c.79-5.64 0-11.41.19-17.12q.02-.49.5-.54zm86-7.27c-.94 10.02 5.01 28.58 19.01 24.55q6.38-1.84 10.31-7.22c1.82-2.5-1.25-4.59-3.73-4q-.5.12-.88.47-3.65 3.39-8.12 5.63-.46.23-.94.04-6.52-2.56-8.54-9.66-4.06-14.27 6.15-23.18c7.34-6.41 8.02 3.99 12.55 2.67a2.71 2.71 0 0 0 1.77-3.56q-2.81-7.34-9.68-7.11c-10.4.35-17.02 11.99-17.9 21.37zm-38.94 2.68c9.51-4.33 13.91-17.4 1.44-22.11q-7.4-2.79-15.57-.82c-5.72 1.37-3.1 9.76-3.18 13.49q-.28 14.12-.58 28.25-.03 1.32.48 4.22.09.53.62.53h4.09q.64 0 .66-.65l.44-17.98q.01-.59.57-.82 1.99-.8 3.95-.4c4.96 1.02 12.28 14.39 14.29 18.83q.23.52.79.66 2.01.5 3.71-.55a1.03 1.02-17.5 0 0 .48-.92c-.33-7.37-7.15-15.76-12.39-20.46a.77.77 0 0 1 .2-1.27zm84.93 16.22q-1.06-.06-1.03-1.12l.33-11.85q.02-.7.73-.72l14-.32a.64.64 0 0 0 .63-.64l.05-4.29a.71.71 0 0 0-.71-.72h-13.7a.61.61 0 0 1-.61-.6l-.26-11.9q-.02-1.06 1.04-1.05l16.98.17q.6 0 .57-.6l-.2-4.1q-.02-.51-.52-.67c-5.69-1.82-15.23-.75-20.95-.75q-2.7 0-2.74 2.69l-.71 41.77a1.27 1.27 0 0 0 1.28 1.29l23.23-.33q.61-.01.57-.62l-.33-4.78q-.04-.53-.57-.53-8.54.1-17.08-.33zm-56.594-22.135a2.01 2.01 0 0 0-2.013-2.007l-1.94.004a2.01 2.01 0 0 0-2.007 2.013l.048 27.16a2.01 2.01 0 0 0 2.013 2.007l1.94-.004a2.01 2.01 0 0 0 2.007-2.013l-.048-27.16z"/><path fill="#fff" d="M444.42 374.36q-8.92-.02-12.27-8.54-.65-1.65 1-3.52.28-.32.7-.41l6.71-1.43q.55-.12.91-.53c6.54-7.3-13.19-11.17-16.23-11.43-10.9-.96-22.77-1.8-30.52 7.47q-1.46 1.74-2.14 4.56-.2 1.95-.84 2.63c-8.92-.96-14.93-1.57-22.24 4.11-6.89 5.35-9.27 15.37-8.44 23.76a1.42 1.42 0 0 1-1.55 1.55c-12.1-1.24-21.29 4.32-23.89 16.61q-1.34 15.8 1.35 32.1-2.96 1.54-5.96 3.03c-9.09 4.51-10.69 12.79-11.21 22.1-12.21-5.29-20.04-23.45-11.55-34.7q4.17-5.53 8.25-11.15c9.68-13.34.52-23.03-12.26-27.02q-13.56-4.24-27.72-2.85-20.62 2.02-41.11 5.04-6.03.89-10.67.79-2.15-.05-2.16-2.21-.04-31.03-.61-59.06-.26-12.49-4.11-22.58c-7.6-19.88-28.13-17.04-43.52-9.46-8.86 4.36-25.53 15.34-35.19 8.63-10.76-7.49-14.16-26.52-11.94-38.12 3.66-19.12 20.88-33.66 40.84-27.47 11.88 3.69 20.26 14.56 32.77 10.98 23.7-6.78 22.72-66.22 22.11-84.99q-.05-1.68.16-3.37.06-.51.57-.57c28.51-3.05 57.44-2.86 86.08-3.33 11.87-.19 14.6 6.03 8.71 15.72-3.82 6.27-13.09 14.26-15.44 22.55-2.08 7.36 4.57 15.53 10.53 18.74 14.64 7.88 34.04 5.88 49.11-.06 17.76-7 17.43-25.61 7.28-38.86q-4.82-6.29-5.77-8.31c-4.31-9.19 21.34-9.93 25.41-9.99q30.58-.47 62-.59 1.09 0 .77 1.04-5.4 17.97-9.18 36.86c-3.14 15.63-4.62 46.1 15.84 50.68q2.78.62 5.92-.27c10.39-2.98 18.9-12.02 30.46-10.69 11.08 1.28 16.85 12.33 17.3 22.57.66 15.08-5.05 32.27-21.19 36.53-7.66 2.01-22.6-4.95-28.05-5.86-15.46-2.57-18.74 13.17-19.03 24.64q-.68 26.7.01 54.68zm-181.8-80.35a.61.61 0 0 1-1.02-.28l-9.67-36.72q-.12-.43-.53-.61c-3.54-1.53-5.43 2.02-4.62 5.1 3.22 12.28 5.82 24.8 10.28 36.7q1.83 4.88 6.3 4.87.58 0 1.02-.38c4.12-3.52 6.74-12.14 8.22-17.24q3.87-13.22 7.37-26.27.31-1.13-.68-1.76c-5.04-3.18-6.06 2.21-6.85 5.46q-3.56 14.61-8.5 28.8-.54 1.56-1.32 2.33zm47.91-10.28q-3.49-13.73-8.86-26.84-.21-.53-.77-.67-4.16-1.06-5.6 3.36-4.37 13.39-7.29 24.25c-.5 1.84-1.95 2.41-2.27 4.41q-.88 5.58-2.19 11.07c-.72 3.05 2.26 4.31 4.74 3.46a1.09 1.08-2.2 0 0 .68-.73l2.59-9.26a2.01 2.01 0 0 1 1.88-1.47l12.52-.36q.5-.01.59.47 1.1 5.57 3.63 10.65a2.2 2.2 0 0 0 2.78 1.07c4.92-1.93.86-8.63-.25-11.96q-.16-.47.11-.87c1.53-2.33 1.28-4.98-1.69-5.94q-.47-.15-.6-.64zm90.72 11.79v-12.83q0-.69.68-.68 7.24.06 14.43-.64.67-.06.66-.73l-.06-4.28a.54.53 89.4 0 0-.53-.53l-14.44-.02a.56.55 1 0 1-.56-.57l.35-12.09q.02-.5.51-.51l17.22-.49q.82-.03.77-.85l-.26-4.2q-.05-.76-.81-.82c-5.97-.5-11.98.08-17.98-.03-3.79-.06-5.54.75-5.63 4.76-.3 13.37-.16 26.67-.27 39.99a1.64 1.64 0 0 0 1.71 1.65l22.53-.98q.71-.03.7-.74l-.06-4.41a.86.86 0 0 0-.88-.85l-17.56.35q-.52.01-.52-.5zm-41.06 3.79c3.19 2.62 7.77 3.98 11.79 2.27 13.03-5.51 13.06-28.88 12.74-40.33q-.04-1.68-.9-4.13-.19-.55-.77-.56l-3.67-.05a.54.54 0 0 0-.54.51c-.46 9.51 0 19.24-2.19 28.4-.94 3.92-4.34 12.38-9.63 10.6-6.86-2.29-7.82-9-7.55-15.27q.45-10.56 1.12-22.23a1.36 1.36 0 0 0-.72-1.28q-2.87-1.53-4.31.15c-2.22 2.58-2.16 22.66-2.16 26.82q-.01 9.53 6.79 15.1zm-30.43-4.04q-.16-18.14.3-36.27c.07-3.06-3.41-2.51-5.12-1.89q-.58.21-.68.82-.32 1.9-.42 6.07-.39 15.94-.64 31.89c-.03 1.86.29 3.68.68 5.4a1.37 1.36-7.4 0 0 1.38 1.06l22.3-.79q.61-.02.65-.62l.35-4.83q.03-.49-.46-.48l-17.8.16q-.53.01-.54-.52z"/><ellipse fill="#070707" transform="rotate(95.2 193.724 404.322)" rx="4.75" ry="4.06"/><path fill="#070707" d="M541.79 274.57c-.19 5.71.6 11.48-.19 17.12q-.08.56-.65.56h-3.47a1.02 1-13.4 0 1-.9-.54q-.76-1.45-.79-3.47-.27-19.74 1-39.87a1.29 1.27-12.5 0 1 .69-1.06q7.29-3.86 15.51-1.77c6.35 1.62 12.36 8.18 10.37 15.14-2.27 7.92-13.62 12.65-21.07 13.35q-.48.05-.5.54zm.98-22.61-.4 15.77a.64.63-7.7 0 0 .82.62c5.3-1.6 12.1-4.66 14.47-9.97q.21-.46.04-.94c-2.39-7.07-8.1-6.18-14.19-6.19a.74.73.8 0 0-.74.71zM647.3 291.31c-14 4.03-19.95-14.53-19.01-24.55.88-9.38 7.5-21.02 17.9-21.37q6.87-.23 9.68 7.11a2.71 2.71 0 0 1-1.77 3.56c-4.53 1.32-5.21-9.08-12.55-2.67q-10.21 8.91-6.15 23.18 2.02 7.1 8.54 9.66.48.19.94-.04 4.47-2.24 8.12-5.63.38-.35.88-.47c2.48-.59 5.55 1.5 3.73 4q-3.93 5.38-10.31 7.22zM589.35 269.44a.77.77 0 0 0-.2 1.27c5.24 4.7 12.06 13.09 12.39 20.46a1.03 1.02-17.5 0 1-.48.92q-1.7 1.05-3.71.55-.56-.14-.79-.66c-2.01-4.44-9.33-17.81-14.29-18.83q-1.96-.4-3.95.4-.56.23-.57.82l-.44 17.98q-.02.65-.66.65h-4.09q-.53 0-.62-.53-.51-2.9-.48-4.22.3-14.13.58-28.25c.08-3.73-2.54-12.12 3.18-13.49q8.17-1.97 15.57.82c12.47 4.71 8.07 17.78-1.44 22.11zm-.19-7.28c10.37-8.91-5.42-10.84-10.35-10.06q-.56.08-.56.65v14.23a.95.95 0 0 0 1.3.88q5.52-2.18 9.61-5.7zM674.28 285.66q8.54.43 17.08.33.53 0 .57.53l.33 4.78q.04.61-.57.62l-23.23.33a1.27 1.27 0 0 1-1.28-1.29l.71-41.77q.04-2.69 2.74-2.69c5.72 0 15.26-1.07 20.95.75q.5.16.52.67l.2 4.1q.03.6-.57.6l-16.98-.17q-1.06-.01-1.04 1.05l.26 11.9a.61.61 0 0 0 .61.6h13.7a.71.71 0 0 1 .71.72l-.05 4.29a.64.64 0 0 1-.63.64l-14 .32q-.71.02-.73.72l-.33 11.85q-.03 1.06 1.03 1.12z"/><path fill="#fff" d="M542.77 251.96a.74.73.8 0 1 .74-.71c6.09.01 11.8-.88 14.19 6.19q.17.48-.04.94c-2.37 5.31-9.17 8.37-14.47 9.97a.64.63-7.7 0 1-.82-.62l.4-15.77zM578.81 252.1c4.93-.78 20.72 1.15 10.35 10.06q-4.09 3.52-9.61 5.7a.95.95 0 0 1-1.3-.88v-14.23q0-.57.56-.65z"/><path fill="#070707" d="M262.62 294.01q.78-.77 1.32-2.33 4.94-14.19 8.5-28.8c.79-3.25 1.81-8.64 6.85-5.46q.99.63.68 1.76-3.5 13.05-7.37 26.27c-1.48 5.1-4.1 13.72-8.22 17.24q-.44.38-1.02.38-4.47.01-6.3-4.87c-4.46-11.9-7.06-24.42-10.28-36.7-.81-3.08 1.08-6.63 4.62-5.1q.41.18.53.61l9.67 36.72a.61.61 0 0 0 1.02.28zM311.13 284.37c2.97.96 3.22 3.61 1.69 5.94q-.27.4-.11.87c1.11 3.33 5.17 10.03.25 11.96a2.2 2.2 0 0 1-2.78-1.07q-2.53-5.08-3.63-10.65-.09-.48-.59-.47l-12.52.36a2.01 2.01 0 0 0-1.88 1.47l-2.59 9.26a1.09 1.08-2.2 0 1-.68.73c-2.48.85-5.46-.41-4.74-3.46q1.31-5.49 2.19-11.07c.32-2 1.77-2.57 2.27-4.41q2.92-10.86 7.29-24.25 1.44-4.42 5.6-3.36.56.14.77.67 5.37 13.11 8.86 26.84.13.49.6.64zm-16.79-.1a.37.37 0 0 0 .36.47l9.16.01a.37.37 0 0 0 .36-.47l-4.56-15.98a.37.37 0 0 0-.71 0l-4.61 15.97zM401.77 296.02l17.56-.35a.86.86 0 0 1 .88.85l.06 4.41q.01.71-.7.74l-22.53.98a1.64 1.64 0 0 1-1.71-1.65c.11-13.32-.03-26.62.27-39.99.09-4.01 1.84-4.82 5.63-4.76 6 .11 12.01-.47 17.98.03q.76.06.81.82l.26 4.2q.05.82-.77.85l-17.22.49q-.49.01-.51.51l-.35 12.09a.56.55 1 0 0 .56.57l14.44.02a.54.53 89.4 0 1 .53.53l.06 4.28q.01.67-.66.73-7.19.7-14.43.64-.68-.01-.68.68v12.83q0 .51.52.5zM360.19 299.31q-6.8-5.57-6.79-15.1c0-4.16-.06-24.24 2.16-26.82q1.44-1.68 4.31-.15a1.36 1.36 0 0 1 .72 1.28q-.67 11.67-1.12 22.23c-.27 6.27.69 12.98 7.55 15.27 5.29 1.78 8.69-6.68 9.63-10.6 2.19-9.16 1.73-18.89 2.19-28.4a.54.54 0 0 1 .54-.51l3.67.05q.58.01.77.56.86 2.45.9 4.13c.32 11.45.29 34.82-12.74 40.33-4.02 1.71-8.6.35-11.79-2.27zM330.3 295.79l17.8-.16q.49-.01.46.48l-.35 4.83q-.04.6-.65.62l-22.3.79a1.37 1.36-7.4 0 1-1.38-1.06c-.39-1.72-.71-3.54-.68-5.4q.25-15.95.64-31.89.1-4.17.42-6.07.1-.61.68-.82c1.71-.62 5.19-1.17 5.12 1.89q-.46 18.13-.3 36.27.01.53.54.52z"/><rect fill="#070707" x="-2.98" y="-15.59" transform="rotate(-.1 159079.66 -352075.701)" width="5.96" height="31.18" rx="2.01"/><path fill="#fff" d="m294.34 284.27 4.61-15.97a.37.37 0 0 1 .71 0l4.56 15.98a.37.37 0 0 1-.36.47l-9.16-.01a.37.37 0 0 1-.36-.47z"/><path fill="#fee5d5" d="m444.42 374.36.26 1.76q-8.62-1.51-13.26-6.92c-1.03-1.21-1.52-3.24-3.31-4.17-6.85-3.53-9.85-5.39-17.97-4.1q-3.82.6-5.81.59-5.86-.03-11.75-.99.68-2.82 2.14-4.56c7.75-9.27 19.62-8.43 30.52-7.47 3.04.26 22.77 4.13 16.23 11.43q-.36.41-.91.53l-6.71 1.43q-.42.09-.7.41-1.65 1.87-1 3.52 3.35 8.52 12.27 8.54z"/><path fill="#d99c7e" d="m444.68 376.12.51 7.36-7.35 3.64-3.39-.08c1.31-1.82-1.65-2.44-2.47-3.26q-.37-.36-.87-.28-1.97.29-3.19-1.34-.3-.4-.8-.51c-2.96-.66-4.57-2.78-6.89-4q-1.82-.96-3.52-2.15-.4-.28-.89-.32-3.73-.32-6.73-2.47-1.31-.95-1.87 0l-15.48-9.55q.64-.68.84-2.63 5.89.96 11.75.99 1.99.01 5.81-.59c8.12-1.29 11.12.57 17.97 4.1 1.79.93 2.28 2.96 3.31 4.17q4.64 5.41 13.26 6.92z"/><path fill="#fee5d5" d="m391.74 363.16 15.48 9.55c4.89 3.74 11.26 9.74 17.12 11.46q5.06 1.49 10.11 2.87l3.39.08q-3.81 1.07-3.03 4.6l-9.85-5.92a.59.59 0 0 0-.83.78q1.94 3.76 6.27 7.43c-19.98-.2-41.91-.62-59.4 2.47q-2.46.43-7.35 4.44c-8.05 6.62-2.89 15.19-1 23.35q-1.23.94-3.11-1.1c-1.8-1.95-5.5-1.84-7.43-2.31q-9.4-2.29-14.3-10.76-.25-.42-.72-.54l-1.47-.37c2.6-12.29 11.79-17.85 23.89-16.61a1.42 1.42 0 0 0 1.55-1.55c-.83-8.39 1.55-18.41 8.44-23.76 7.31-5.68 13.32-5.07 22.24-4.11zM451.01 364c10.55 1.97 9.03 14.48.81 17.62l-.81-17.62zM498.34 397.86l-8.52-.64q-.28-.02-.09-.21.05-.05.22-.15.03-.02-.13-.03l-24.22-2.46c-2.64-6.14-7.5-11.68-2.51-18.48 5.83-7.93 12.97-3.25 18.31 2.94q7.94 9.19 16.94 19.03z"/><path fill="#b9643b" d="M434.45 387.04q-5.05-1.38-10.11-2.87c-5.86-1.72-12.23-7.72-17.12-11.46q.56-.95 1.87 0 3 2.15 6.73 2.47.49.04.89.32 1.7 1.19 3.52 2.15c2.32 1.22 3.93 3.34 6.89 4q.5.11.8.51 1.22 1.63 3.19 1.34.5-.08.87.28c.82.82 3.78 1.44 2.47 3.26z"/><path fill="#fff" d="m445.19 383.48 1.02 10.2q.05.53-.48.53l-11.58-.08q.73-.96.66-2.41-.78-3.53 3.03-4.6l7.35-3.64z"/><path fill="#d99c7e" d="M434.81 391.72q.07 1.45-.66 2.41l-3.75-.12q-4.33-3.67-6.27-7.43a.59.59 0 0 1 .83-.78l9.85 5.92z"/><path fill="#fee5d5" d="M462.31 400.83q-1.36.79-.56 4.03.13.51-.14.96c-4.77 7.72-9.93 6.07-17.65 6.8l-9.82-10.7a.48.47-40.9 0 0-.65-.04l-.21.17q-2.01.88-3.23 2.58-.23.33-.58.53l-3.99 2.35a1.58 1.55 31.1 0 1-.89.21q-3.73-.22-6.85-2.24-.48-.32-1.05-.24-2.13.29-3.07-1.44-.25-.46-.77-.59c-6.04-1.46-12.92-.58-17.1-.99q-1.03-.1-.5-1.27 21.3-.67 42.63-.1c4.63.13 7.34-.49 11.37 2.51q.44.33.92.07 5.77-3.11 12.14-2.6z"/><path fill="#fff" d="m462.31 400.83 2.3-.04c-.78 11.92 6.37 19.49 12.02 28.1 2.55 3.89 2.15 18.72.87 23.17-4.19-.87-9.99-1.21-13.42-3.77q-8.93-6.64-13.38-16.93a1.78 1.74 37.9 0 1-.13-.95q1.03-7.66-3.47-12.53l-3.14-5.26c7.72-.73 12.88.92 17.65-6.8q.27-.45.14-.96-.8-3.24.56-4.03z"/><path fill="#b9643b" d="m464.61 400.79 4.34.46c-.66 1.67 1.15 2.45 1.9 3.58q5.04 7.57 9.04 15.7c3.16 6.41 6.04 10.22 11.14 14.36 2.06 1.67 3.03 3.54 4.21 5.74a.7.69 53.5 0 1-.12.84q-2.19 2.18-5.24 2.63a1.59 1.59 0 0 0-.32 3.06l6.72 2.52q.5.19.21.65-.38.58-1.27.21-3.34-1.38-6.31-.26-.57.21-.64.81l-1.16 10.58q-.06.52-.43.88l-2.6 2.46q-.32.31-.44.74-.75 2.91.01 5.88a.99.98 61.7 0 1-.29.98q-.85.77-.72 2 .12 1.27-.75.34c-3.67-3.9-7.98-5.74-11.08-10.11q-.3-.43.04-.83l3.01-3.47a1.19 1.15 64.6 0 0 .29-.85q-.23-3.47 2.57-5.64a1.44 1.37 79.3 0 0 .49-.76l.29-1.23c1.28-4.45 1.68-19.28-.87-23.17-5.65-8.61-12.8-16.18-12.02-28.1z"/><path fill="#d99c7e" d="M395.25 400.95q-.53 1.17.5 1.27c4.18.41 11.06-.47 17.1.99q.52.13.77.59.94 1.73 3.07 1.44.57-.08 1.05.24 3.12 2.02 6.85 2.24a1.58 1.55 31.1 0 0 .89-.21l3.99-2.35q.35-.2.58-.53 1.22-1.7 3.23-2.58.71 1.23.44 2.6-.09.46.18.85 5.18 7.47 13.2 12.38 4.5 4.87 3.47 12.53a1.78 1.74 37.9 0 0 .13.95q4.45 10.29 13.38 16.93c3.43 2.56 9.23 2.9 13.42 3.77l-.29 1.23a1.44 1.37 79.3 0 1-.49.76q-2.8 2.17-2.57 5.64a1.19 1.15 64.6 0 1-.29.85l-3.01 3.47q-.34.4-.04.83c3.1 4.37 7.41 6.21 11.08 10.11q.87.93.75-.34-.13-1.23.72-2a.99.98 61.7 0 0 .29-.98q-.76-2.97-.01-5.88.12-.43.44-.74l2.6-2.46q.37-.36.43-.88l1.16-10.58q.07-.6.64-.81 2.97-1.12 6.31.26.89.37 1.27-.21.29-.46-.21-.65l-6.72-2.52a1.59 1.59 0 0 1 .32-3.06q3.05-.45 5.24-2.63a.7.69 53.5 0 0 .12-.84c-1.18-2.2-2.15-4.07-4.21-5.74-5.1-4.14-7.98-7.95-11.14-14.36q-4-8.13-9.04-15.7c-.75-1.13-2.56-1.91-1.9-3.58l6.23.61q.56 3.08 5.53 2.87.54-.03.84.43c.39.61.75.89 1.45 1.19q1.97.84 3.52 2.28c2.42 2.24 3.97 3.19 6.48 4.55a1.33 1.33 0 0 1 .58.64q.5 1.23 1.66 1.38.5.06.85.43l1.18 1.27q.28.3.69.36 9.99 1.3 20.1-1.03c.43 5.83-1.26 11.24-.98 16.73q.79 15.76 2.92 31.41c1.05 7.68.95 12.22-1.93 18.64-4.36 9.76-9.17 20.55-11.5 30.98q-3.84 17.1-10.92 33.18c-1.67 3.81-2.75 6.87-2.91 11.33-.08 2.32-.8 4.42-.55 6.67 1.7 15.16 6.97 29.6 12.03 43.9q.18.5-.33.65l-.95.28H388.93q-7.31-13.57-9.73-17.45c-4.86-7.81-13.99-14.06-20.7-20.88q-6.74-6.84-10.87-12.86c-6.74-9.81-11.25-21.38-16.12-32.23q-.28-.62-5.46-10.86-9.99-19.72-6.26-42.15 19.54 5.8 35.45-8.18.59.94 1.7 1.42.51.22.93-.13 2.2-1.8 4.87-.41a1.5 1.46 51.9 0 0 1.02.14q4.2-.88 8.43-.41a1.03 1.02 26.8 0 0 .8-.26c3.71-3.31.51-8.26-2.87-10.31q-.42-.25-.59-.73l-.86-2.45q11.08 1.75 16.84 10.39c2.87 4.29 3.28 10.33 8.31 13.34q3.21 1.92 5.79 4.68c1.15 1.23 4.52 2.86 5.2.32q.13-.5.57-.79 2.14-1.43 1.76-3.91a1.52 1.5-6.6 0 1 1.39-1.74q2.74-.18 4.36 1.67a5.97 4.85 29.2 0 0 .58.59l1.91 1.75a1.54 1.52 20.4 0 1 .51 1.09c.21 4.97-1.25 8.51 2.49 12.7q.34.38.36.89c.11 4.11 1.14 7.84 1.35 12.1q.22 4.5 1.77 9.3a.84.84 0 0 0 1.61-.07l.76-3.17q.11-.46.57-.61l1.25-.42q.49-.17.86-.53 1.47-1.48 3.6-1.59.55-.02.76.49l1.42 3.52a.88.87-16.6 0 0 .98.52q1.8-.37 2.18-2.09c.55-2.5 1.48-5.14 1.88-7.64.39-2.35 3.93-3.62 5.71-5.63q.33-.38.45-.86.93-3.59 4.76-3.6a1.71 1.71 0 0 0 1.69-1.97c-1.43-9.39 5.77-12.2 12.75-15.64 2.3-1.13 3.57-3.32 6.13-4.51q.46-.22.62-.7c1-2.94-2.67-2.4-3.44-4.44a1.32 1.29 5.7 0 0-.57-.68c-3.34-1.95-5.27-5.31-7.63-8.15-1.75-2.1-3.17-5.99-7-6.58q-5.75-.89-5.68-6.24.01-.56-.29-1.03-1.17-1.87-1.46-4.04a1.07 1.07 0 0 0-1.73-.69c-7.37 5.89-12.28.34-18.37-3.47q-1.53-.96-2.9-2.18-.27-.24-.27-.6v-.49q0-.43-.3-.73c-5.42-5.54-11.4-12.41-17.96-16.48-2.16-1.34-4.07-3.46-6.69-4.85-1.6-.84-2.77-2.11-4.57-3.01q-3.15-1.58-4.95-5l9.22-.52zm37.36 7.3c-4.18.87-8.66 4.51-8.56 9.18a.5.5 0 0 0 .82.37l2.77-2.32q.22-.18.5-.25 4.23-1.05 5.55-5.83a.92.92 0 0 0-1.08-1.15zm-94.31 94.54-.05.4q-.07.5.32.19l3.94-3.1q.27-.22.61-.22c2.41-.03 6.97-1.87 8.45 1.31q1.44 3.09 3.67 6.09.27.36.61.06l19.58-18.06q.42-.38-.07-.66-6.22-3.48-12.84-6.12c-2.27-.9-5.16-.31-7.86-.95q-3.52-.85-7.23-.99-.46-.01-.81.28l-7.05 6.04q-.39.34-.55.82c-.35 1.09-5.8 4.39-7.07 5.32a.37.37 0 0 0 .09.64q1.19.46 2.26-.29 4.05-2.83 8.22-3.45c.84-.13 1.24-.65 1.65-1.3a1.23 1.22 9.9 0 1 .76-.53l7.25-1.68a.49.49 0 0 1 .56.68q-.43.94-1.44.72a.62.61 14.9 0 0-.71.4q-.48 1.44-1.73 1.92-.46.18-.81.53c-4.47 4.51-8.85 7.27-14.08 10.79a.72.72 0 0 0 .49 1.31l3.57-.43q.31-.03.27.28z"/><path fill="#b9643b" d="M386.03 401.47q1.8 3.42 4.95 5c1.8.9 2.97 2.17 4.57 3.01 2.62 1.39 4.53 3.51 6.69 4.85 6.56 4.07 12.54 10.94 17.96 16.48q.3.3.3.73v.49q0 .36.27.6 1.37 1.22 2.9 2.18c6.09 3.81 11 9.36 18.37 3.47a1.07 1.07 0 0 1 1.73.69q.29 2.17 1.46 4.04.3.47.29 1.03-.07 5.35 5.68 6.24c3.83.59 5.25 4.48 7 6.58 2.36 2.84 4.29 6.2 7.63 8.15a1.32 1.29 5.7 0 1 .57.68c.77 2.04 4.44 1.5 3.44 4.44q-.16.48-.62.7c-2.56 1.19-3.83 3.38-6.13 4.51-6.98 3.44-14.18 6.25-12.75 15.64a1.71 1.71 0 0 1-1.69 1.97q-3.83.01-4.76 3.6-.12.48-.45.86c-1.78 2.01-5.32 3.28-5.71 5.63-.4 2.5-1.33 5.14-1.88 7.64q-.38 1.72-2.18 2.09a.88.87-16.6 0 1-.98-.52l-1.42-3.52q-.21-.51-.76-.49-2.13.11-3.6 1.59-.37.36-.86.53l-1.25.42q-.46.15-.57.61l-.76 3.17a.84.84 0 0 1-1.61.07q-1.55-4.8-1.77-9.3c-.21-4.26-1.24-7.99-1.35-12.1q-.02-.51-.36-.89c-3.74-4.19-2.28-7.73-2.49-12.7a1.54 1.52 20.4 0 0-.51-1.09l-1.91-1.75a5.97 4.85 29.2 0 1-.58-.59q-1.62-1.85-4.36-1.67a1.52 1.5-6.6 0 0-1.39 1.74q.38 2.48-1.76 3.91-.44.29-.57.79c-.68 2.54-4.05.91-5.2-.32q-2.58-2.76-5.79-4.68c-5.03-3.01-5.44-9.05-8.31-13.34q-5.76-8.64-16.84-10.39-1.09-.83-2.75-1.08 2.8-6.03 3.71-12.38 8.99 4.58 16.13 11.4c2.68 2.56 6.69 5.8 10.02 7.36 2.4 1.12 13.15 7.6 9.7 10.12a.15.15 0 0 0 .03.25q.1.04.28.07a.57.43-38.8 0 1-.24.97c-3.38.55-4.88 4.05-1.59 6.21q.54.36.97-.13c2.59-2.98 4.71-7.21 9.47-5.95q7.58 2 13.37-1.82c7.61-5.03 9.41-13.85 1.86-19.77q-5.64-4.42-10.67-9.49-.35-.34-.46-.82c-1.28-5.26-7.92-11.14-12.85-15.37q-.78-1.25-3.46-3.01-12.09-7.93-24.46-15.98l8.3-1.36zM443.96 412.62l3.14 5.26q-8.02-4.91-13.2-12.38-.27-.39-.18-.85.27-1.37-.44-2.6l.21-.17a.48.47-40.9 0 1 .65.04l9.82 10.7z"/><path fill="#fee5d5" d="M377.73 402.83q12.37 8.05 24.46 15.98 2.68 1.76 3.46 3.01 4.94 7.11 5.94 14.01.08.55.63.55c3.87.01 5.02 2.37 7.18 5.02 1.8 2.21 4.42 3.57 6.46 5.68q.32.34.76.51 1.11.42 1.4 1.56a2.47 2.46 19.7 0 0 .41.86q1.72 2.23 1.99 5.03.05.49-.28.86-1.41 1.58-2.77 3.26-1.38 1.7-4.65.9a1.32 1.28 77.6 0 1-.72-.48q-2.73-3.64-6.88-5.47-.44-.2-.75-.57l-1.19-1.49q-.26-.31-.66-.35-1.97-.19-2.56-1.81-.16-.44-.61-.47-1.54-.11-2.46-2.01-1.5-3.08-.46-5.72.25-.63-.41-.78l-.79-.18a.94.91-63.7 0 0-.93.33q-.48.61-1.2.9a.74.73 57.7 0 1-.83-.19c-1.61-1.76-3.6-2.36-5.18-3.82-3.45-3.17-6.71-7.26-11.21-8.46-2.52-.67-4.02-1.44-6.14-2.21-2.17-.79-4.99-.19-6.97-2.89a1.24 1.23 76.4 0 0-.8-.49q-1.17-.18-2.45.16-1.66-6.78-3.79-13.31c-.57-1.74 1.12-4.41 2.66-5.61q5.24-4.08 9.34-2.31zM475.18 401.86q19.15 2.71 37.56 3.77-.55 0-.81.58-.2.47.23.72 5.04 3 5.9 9.3-10.11 2.33-20.1 1.03-.41-.06-.69-.36l-1.18-1.27q-.35-.37-.85-.43-1.16-.15-1.66-1.38a1.33 1.33 0 0 0-.58-.64c-2.51-1.36-4.06-2.31-6.48-4.55q-1.55-1.44-3.52-2.28c-.7-.3-1.06-.58-1.45-1.19q-.3-.46-.84-.43-4.97.21-5.53-2.87zM424.05 417.43c-.1-4.67 4.38-8.31 8.56-9.18a.92.92 0 0 1 1.08 1.15q-1.32 4.78-5.55 5.83-.28.07-.5.25l-2.77 2.32a.5.5 0 0 1-.82-.37z"/><path fill="#d99c7e" d="m335.62 409.19 1.47.37q.47.12.72.54 4.9 8.47 14.3 10.76c1.93.47 5.63.36 7.43 2.31q1.88 2.04 3.11 1.1l1.06 9.2q-5.38.94-10.92-2.53c-2.7-1.7-8.94-6.37-11.33-3.01q-2.52 3.54-2.17 8.67c.16 2.4-.52 4.1-.85 6.38q-1.06-.18-1.47-1.69-2.69-16.3-1.35-32.1zM405.65 421.82c4.93 4.23 11.57 10.11 12.85 15.37q.11.48.46.82 5.03 5.07 10.67 9.49c7.55 5.92 5.75 14.74-1.86 19.77q-5.79 3.82-13.37 1.82c-4.76-1.26-6.88 2.97-9.47 5.95q-.43.49-.97.13c-3.29-2.16-1.79-5.66 1.59-6.21a.57.43-38.8 0 0 .24-.97q-.18-.03-.28-.07a.15.15 0 0 1-.03-.25c3.45-2.52-7.3-9-9.7-10.12-3.33-1.56-7.34-4.8-10.02-7.36q-7.14-6.82-16.13-11.4 1.14-7.61-.11-14.73 1.28-.34 2.45-.16a1.24 1.23 76.4 0 1 .8.49c1.98 2.7 4.8 2.1 6.97 2.89 2.12.77 3.62 1.54 6.14 2.21 4.5 1.2 7.76 5.29 11.21 8.46 1.58 1.46 3.57 2.06 5.18 3.82a.74.73 57.7 0 0 .83.19q.72-.29 1.2-.9a.94.91-63.7 0 1 .93-.33l.79.18q.66.15.41.78-1.04 2.64.46 5.72.92 1.9 2.46 2.01.45.03.61.47.59 1.62 2.56 1.81.4.04.66.35l1.19 1.49q.31.37.75.57 4.15 1.83 6.88 5.47a1.32 1.28 77.6 0 0 .72.48q3.27.8 4.65-.9 1.36-1.68 2.77-3.26.33-.37.28-.86-.27-2.8-1.99-5.03a2.47 2.46 19.7 0 1-.41-.86q-.29-1.14-1.4-1.56-.44-.17-.76-.51c-2.04-2.11-4.66-3.47-6.46-5.68-2.16-2.65-3.31-5.01-7.18-5.02q-.55 0-.63-.55-1-6.9-5.94-14.01z"/><path fill="#b9643b" d="M363.71 433.47q-.05 4.84-1.31 8.72-.61 1.88-2.89 3.9a.86.85-29.7 0 0-.25.9q.27.86-.06 1.67c-7.05-2-13.64-4.41-20.76-5.68.33-2.28 1.01-3.98.85-6.38q-.35-5.13 2.17-8.67c2.39-3.36 8.63 1.31 11.33 3.01q5.54 3.47 10.92 2.53z"/><path fill="#fee5d5" d="M336.97 441.29q.41 1.51 1.47 1.69c7.12 1.27 13.71 3.68 20.76 5.68q.22.62.02 1.02c-7.49 14.42-23.5 23.65-39.42 16.74.52-9.31 2.12-17.59 11.21-22.1q3-1.49 5.96-3.03zM365.92 451.17q1.66.25 2.75 1.08l.86 2.45q.17.48.59.73c3.38 2.05 6.58 7 2.87 10.31a1.03 1.02 26.8 0 1-.8.26q-4.23-.47-8.43.41a1.5 1.46 51.9 0 1-1.02-.14q-2.67-1.39-4.87.41-.42.35-.93.13-1.11-.48-1.7-1.42 6.36-6.07 10.68-14.22z"/><path fill="#b9643b" d="m338.03 502.51-3.57.43a.72.72 0 0 1-.49-1.31c5.23-3.52 9.61-6.28 14.08-10.79q.35-.35.81-.53 1.25-.48 1.73-1.92a.62.61 14.9 0 1 .71-.4q1.01.22 1.44-.72a.49.49 0 0 0-.56-.68l-7.25 1.68a1.23 1.22 9.9 0 0-.76.53c-.41.65-.81 1.17-1.65 1.3q-4.17.62-8.22 3.45-1.07.75-2.26.29a.37.37 0 0 1-.09-.64c1.27-.93 6.72-4.23 7.07-5.32q.16-.48.55-.82l7.05-6.04q.35-.29.81-.28 3.71.14 7.23.99c2.7.64 5.59.05 7.86.95q6.62 2.64 12.84 6.12.49.28.07.66l-19.58 18.06q-.34.3-.61-.06-2.23-3-3.67-6.09c-1.48-3.18-6.04-1.34-8.45-1.31q-.34 0-.61.22l-3.94 3.1q-.39.31-.32-.19l.05-.4q.04-.31-.27-.28z"/></svg>