<svg xmlns="http://www.w3.org/2000/svg" viewBox="0 0 497 134"><g stroke-width="2" fill="none"><path stroke="#3b757f" vector-effect="non-scaling-stroke" d="M108.97 77.72Q103.6 89.18 94.16 97.4c-.56.48-1.13 1.5-.36 1.96"/><path stroke="gray" vector-effect="non-scaling-stroke" d="M93.8 99.36q.67.94 1.44 1.27.49.2.89-.14c34.53-29.78 22.18-84.85-21.8-96.91C39.76-5.89 5.52 22.91 6.09 58.46c.63 39.56 42.4 65.15 77.78 47.65q.58-.28.15-.76l-1.18-1.29a.62.61-32.7 0 0-.72-.15c-18.21 7.95-39.49 5.67-54.63-7.65C-5.02 67.64 10.45 13.98 52.72 7.08c25.85-4.22 50.76 12.34 58.13 37.05 1.75 5.88 1.22 12.91 1.38 19.3q.12 4.96-3.26 14.29"/><path stroke="#baf4fe" vector-effect="non-scaling-stroke" d="M93.8 99.36c7.16-6.19 12.62-12.18 15.17-21.64"/><path stroke="#59750d" vector-effect="non-scaling-stroke" d="M63.37 24.16q6.11-5.02 5.01-13.17a.51.5 76 0 0-.68-.41c-5.88 2.2-10.21 7.54-5.31 13.48a.7.7 0 0 0 .98.1"/><path stroke="#7d3914" vector-effect="non-scaling-stroke" d="M59.7 28.24q-1.44 3.7-.84 8.34"/><path stroke="gray" vector-effect="non-scaling-stroke" d="m58.86 36.58-3.89-.68q-1.05-.19-.14.35c4.05 2.39 7.84 1.67 12.07 1.54 2.61-.09 4.74.72 7.16 1.47"/><path stroke="#395109" vector-effect="non-scaling-stroke" d="M74.06 39.26q.12.96-1.2 1.16"/><path stroke="#59750d" vector-effect="non-scaling-stroke" d="M72.86 40.42q-5.67-1.56-12.12.17"/><path stroke="#797b7c" vector-effect="non-scaling-stroke" d="m60.74 40.59-2.81.32"/><path stroke="#7b6f1e" vector-effect="non-scaling-stroke" d="M57.93 40.91q-5.13-2-9.33-1.4"/><path stroke="gray" vector-effect="non-scaling-stroke" d="M48.6 39.51q-5.08-.23-8.32 2.04C23.97 53 30.57 75.92 43.32 86.95q6.78 5.88 14.74 1.25a.88.87-43.3 0 1 .9.02c5.21 3.4 10.4 3.64 15.61-.16 14.28-10.38 19.39-36.75 2.98-47.93q-6.39-4.36-15.08-3.24a.65.65 0 0 1-.73-.72l.36-3.34a.51.5 1.3 0 1 .48-.45q9.33-.49 16.66 5.08c24.23 18.41 15.1 52.23-13 59.56"/><path stroke="#3b757f" vector-effect="non-scaling-stroke" d="M66.24 97.02c-25.13 3.56-44.72-16.62-39.35-41.76"/><path stroke="gray" vector-effect="non-scaling-stroke" d="M26.89 55.26q3.93-11.97 14.01-19.37.49-.37-.02-.7l-1.83-1.16q-.44-.29-.87.02-11.98 8.68-15.29 23.17"/><path stroke="#3b757f" vector-effect="non-scaling-stroke" d="M22.89 57.22c-2.62 10.26 1.35 22.48 8.05 30.02"/><path stroke="gray" vector-effect="non-scaling-stroke" d="M30.94 87.24c16.58 19.57 45.75 17.57 59.66-3.63C102.24 65.86 96.43 41 76.27 32.2c-3.99-1.75-8.92-1.31-13.24-1.52a1.48 1.48 0 0 1-.66-2.76q8.96-5.13 8.98-15.25c0-.08-.27-.52-.36-.56q-.51-.23-.48.33c.34 5.9-3.36 14.1-10.18 14.67q-.51.05-.67.54-.12.34.04.59"/><path stroke="#baf4fe" vector-effect="non-scaling-stroke" d="M30.94 87.24q9.12 7.83 15.81 10.48c3.55 1.41 16.08 3.46 19.49-.7"/><path stroke="#faee9d" vector-effect="non-scaling-stroke" d="M48.6 39.51q-7.14 1.98-11.24 6.21"/><path stroke="#fadf8e" vector-effect="non-scaling-stroke" d="m37.36 45.72-2.61 4.02"/><path stroke="#f8cf87" vector-effect="non-scaling-stroke" d="M34.75 49.74q-2.08 3.9-2.56 8.15"/><path stroke="#fcb893" vector-effect="non-scaling-stroke" d="M32.19 57.89q-.48 4.37.61 7.74"/><path stroke="#fe898c" vector-effect="non-scaling-stroke" d="M32.8 65.63C35.01 75.46 43.86 93.12 56.59 87c1-.48 2.55-.34 3.56.13q2.53 1.18 4.38 1.55"/><path stroke="#fcb893" vector-effect="non-scaling-stroke" d="M64.53 88.68q3.01 1.31 4.94.65"/><path stroke="#fadf8e" vector-effect="non-scaling-stroke" d="M69.47 89.33q2.69-.3 4.63-1.97Q86.06 77.1 86.88 61.29"/><path stroke="#fcb893" vector-effect="non-scaling-stroke" d="M86.88 61.29q.5-2.2-.36-3.79"/><path stroke="#fadf8e" vector-effect="non-scaling-stroke" d="m86.52 57.5-1.28-5.27"/><path stroke="#b8d088" vector-effect="non-scaling-stroke" d="M85.24 52.23q-3.06-8.86-11.18-12.97"/><path stroke="#fcb893" vector-effect="non-scaling-stroke" d="M58.86 36.58c3.31 1.51 2.01-6.57 1.78-7.85q-.08-.5-.59-.5l-.35.01"/><path stroke="#b2b016" vector-effect="non-scaling-stroke" d="M85.24 52.23q-1.78.9-1.72 2.72"/><path stroke="#b8d088" vector-effect="non-scaling-stroke" d="M83.52 54.95q-1.8-6.6-7.68-10.93"/><path stroke="#91c414" vector-effect="non-scaling-stroke" d="M75.84 44.02q-.43-1.78-2.98-3.6"/><path stroke="#f79822" vector-effect="non-scaling-stroke" d="M86.52 57.5q-.24 1.97.36 3.79M69.47 89.33q-.58-2.28 1.5-3.33"/><path stroke="#f2e999" vector-effect="non-scaling-stroke" d="M57.93 40.91q-1.02.25.95 1.16"/><path stroke="#d3e32a" vector-effect="non-scaling-stroke" d="M58.88 42.07q.41 2.11 2.43 3.05a.75.75 0 0 1 .44.68v.38q0 .34.23.6l6.06 6.69"/><path stroke="#f4ce2c" vector-effect="non-scaling-stroke" d="M68.04 53.47c-1.19.46-1.48.82-2.76.58q-4.77-.91-9.56.53a.85.83 59.5 0 1-.85-.23q-2.73-2.89-6.45-3.47-.47-.07-.88-.33-1.53-.96-3.27-1.14"/><path stroke="#faee9d" vector-effect="non-scaling-stroke" d="M44.27 49.41q4.55-1.59 6.74-5.97a.56.55-87.5 0 0-.7-.77l-2.48 1q-.4.17-.83.16-4.07-.03-6.86 3.78"/><path stroke="#f4ce2c" vector-effect="non-scaling-stroke" d="M40.14 47.61q-.91-1.45-2.78-1.89"/><path stroke="#f78488" vector-effect="non-scaling-stroke" d="M42.05 64.99q-.14.52.02.97a.42.41 59.9 0 0 .67.18q.37-.32.28-.84M45.96 65.69c.19.57 1.11.95 1.08.05M60.97 65.62c-.1.78.57 1.02 1.22.87"/><path stroke="#f79822" vector-effect="non-scaling-stroke" d="M81.82 62.47q-1.55.96-2.55.26"/><path stroke="#f3af16" vector-effect="non-scaling-stroke" d="M79.27 62.73q-1.07-.59-1.21-1.38a1.51 1.44 51 0 0-2.83-.36l-.37 1.04q-.13.34-.45.19-2.25-1.05-4.53-.11-.65.27-.78-.42l-.18-.89q-.07-.36-.38-.56-4.42-2.8-9.44-1.41a2.19 2.09-43.1 0 1-1.2-.01l-3.37-1.02q-.54-.17-.94.23l-.5.5q-.54.55-.98-.09l-1.15-1.68q-.26-.37-.68-.56-4.4-1.96-9.31-1.82-.44.01-.75-.3-.39-.41-.94-.36-.47.04-.89-.18-2.5-1.28-3.64-3.8"/><path stroke="#f79822" vector-effect="non-scaling-stroke" d="m49.97 61.62 5.11.04"/><path stroke="#f5b38f" vector-effect="non-scaling-stroke" d="M74.71 65.74q.23.46.55.59.53.23.72-.32.11-.33.02-.74"/><path stroke="#fb4220" vector-effect="non-scaling-stroke" d="M64.53 88.68 69.59 83a3.37 3.34 58.9 0 0 .74-3.04c-.59-2.34-.88-8.31-3.55-8.84q-.5-.09-.59-.6-.52-3.06-4-4.03"/><path stroke="#f5b38f" vector-effect="non-scaling-stroke" d="M62.19 66.49q.32-.61.08-.98a.87.22 58.8 0 0-.55-.54q-.78.01-.75.65"/><path stroke="#fb4220" vector-effect="non-scaling-stroke" d="M60.97 65.62q-2.54-1.08-3.11.64-.19.57-.63.17-1.58-1.42-3.76-1.43-.33 0-.4.33l-.17.86q-.14.71-.8.41-2.41-1.11-5.06-.86"/><path stroke="#f5b38f" vector-effect="non-scaling-stroke" d="M47.04 65.74q0-.48-.55-.81a.29.29 0 0 0-.44.2l-.09.56"/><path stroke="#fb4220" vector-effect="non-scaling-stroke" d="M45.96 65.69q-.8-.76-2.94-.39"/><path stroke="#f5b38f" vector-effect="non-scaling-stroke" d="M43.02 65.3c-.1-.51-.51-.71-.97-.31"/><path stroke="#fb4220" vector-effect="non-scaling-stroke" d="M42.05 64.99c-.44-2.12-7.86.27-9.25.64"/><path stroke="#f5881b" vector-effect="non-scaling-stroke" d="M79.27 62.73q-.33.58-.09 1.55a.68.67-18.9 0 1-.38.77q-1.19.55-2.8.22"/><path stroke="#f1ca83" vector-effect="non-scaling-stroke" d="M76 65.27q-.06-.24-.2-.37a.52.52 0 0 0-.75.03q-.28.33-.34.81"/><path stroke="#f5881b" vector-effect="non-scaling-stroke" d="M74.71 65.74q-1.91.13-3.52-.63-.43-.21-.87-.05-3.32 1.13-4.63-1.87-.17-.37-.58-.33-2.44.24-4.4-.98a2.91 2.57 34.4 0 0-3.65.45q-.3.39-1.98-.67"/><path stroke="#f3af16" vector-effect="non-scaling-stroke" d="M55.08 61.66q-2.98-1.05-5.11-.04"/><path stroke="#f5881b" vector-effect="non-scaling-stroke" d="M49.97 61.62c-2.04 2.08-14.94-2.46-17.78-3.73"/><path stroke="#baf4fe" vector-effect="non-scaling-stroke" d="M26.89 55.26c-.76-.01-3.36-.92-2.88.96a1.28 1.25-38.4 0 1-.12.94q-.62 1.14-1 .06"/><path stroke="#d8f48c" vector-effect="non-scaling-stroke" d="M75.84 44.02q-1.46-.11-1.92.74-.24.47.05.91l5.78 8.59"/><path stroke="#d3d41a" vector-effect="non-scaling-stroke" d="M79.75 54.26q-6.59 1.12-11.71-.79"/><path stroke="#d1ef87" vector-effect="non-scaling-stroke" d="M58.88 42.07q2.11-.15 1.86-1.48"/><path stroke="#fadf8e" vector-effect="non-scaling-stroke" d="M83.52 54.95Q87.45 74.73 70.97 86"/><path stroke="#fcb893" vector-effect="non-scaling-stroke" d="M70.97 86c6.14-8.02 10.27-13.5 10.85-23.53"/><path stroke="#fadf8e" vector-effect="non-scaling-stroke" d="M81.82 62.47q-.23-4.26-2.07-8.21M44.27 49.41q-1.65.8-3.42.56-.51-.07-.74-.53-.38-.77.03-1.83"/><path stroke="#59750d" vector-effect="non-scaling-stroke" d="M32.14 22.31c4.7 8.4 13.27 11.3 22.47 11.46q.53.01.46-.51-.91-6.59-5.65-10.9"/><path stroke="gray" vector-effect="non-scaling-stroke" d="M49.42 22.36q-.23.11-.58-.2"/><path stroke="#59750d" vector-effect="non-scaling-stroke" d="M48.84 22.16q-6.52-5.44-14.3-1.62"/><path stroke="gray" vector-effect="non-scaling-stroke" d="M34.54 20.54q-.72.44-1.22.13t-.09-.74c8.34-8.78 20.35.71 23.39 9.57a.27.27 0 0 0 .52-.02q.19-.88-.31-2.04c-3.78-8.82-13.22-14.51-22.64-10.73q-1.73.69-3.73 5-.21.45.28.49l1.4.11"/><path stroke="#d8f48c" vector-effect="non-scaling-stroke" d="M34.54 20.54q7.68-.7 14.3 1.62M49.42 22.36c-.3 2.37-2.1 1.53-3.69 1.83q-.5.1-.97-.08-6.01-2.28-12.62-1.8"/><path stroke="gray" vector-effect="non-scaling-stroke" d="M83.164 19.43a1.04.85 57.8 0 0 .165-1.333 1.04.85 57.8 0 0-1.273-.427 1.04.85 57.8 0 0-.165 1.333 1.04.85 57.8 0 0 1.273.427M106.71 54.11q1.49-.08 1.17-2.09-3.01-18.81-17.97-30.26c-1.42-1.09-2.92-2.4-4.59-1.25a1.34 1.34 0 0 0 .02 2.23c12.06 7.88 15.83 17.36 20.03 30.45a1.33 1.32-10.4 0 0 1.34.92"/><path stroke="#797b7c" vector-effect="non-scaling-stroke" d="M187.96 67.32a14.98 14.98 0 0 0-14.98-14.98A14.98 14.98 0 0 0 158 67.32a14.98 14.98 0 0 0 14.98 14.98 14.98 14.98 0 0 0 14.98-14.98"/><path stroke="#797b7c" vector-effect="non-scaling-stroke" d="M205.92 73.46c-8.33 2.51-8.97-14.98.61-11.96q1.37.43 2.24 2.06a.85.82 75.3 0 0 .73.44h8.7q.54 0 .42-.52c-1.58-7.01-6.77-10.66-13.86-10.85-20.35-.53-19.16 32.68 2.67 29.36q8.24-1.25 11.31-10.53.23-.71-.51-.71h-8.68q-.49 0-.75.41-1.12 1.77-2.88 2.3M276.7 67.33a14.98 14.98 0 0 0-14.98-14.98 14.98 14.98 0 0 0-14.98 14.98 14.98 14.98 0 0 0 14.98 14.98 14.98 14.98 0 0 0 14.98-14.98M317.2 62.35a1.41 1.41 0 0 1 .47-2.68q1.78-.16 2.06 1.46.11.62.74.62h8.72a.39.38-2.7 0 0 .39-.42c-1.09-15.26-30.4-9.13-21.37 4.51 2.15 3.24 7.33 4.75 10.93 6.14a1.62 1.61 22.4 0 1 .9 2.15c-.75 1.75-3.07 1.07-3.4-.86a.64.63 84.5 0 0-.62-.52h-8.77q-.61 0-.52.6c1.69 11.44 21.45 12.17 23.2 1.05 1.2-7.68-7.5-9.59-12.73-12.05M387.8 55.26c-6.98 5.22-7.58 15.63-2.34 22.15 6.83 8.51 22.41 5.57 24.87-6.24a.36.35 5.4 0 0-.35-.42h-8.7q-.46 0-.71.39-1.39 2.2-3.83 2.48c-9.69 1.13-5.06-20.16 3.7-10.09q.41.48 1.04.48l8.51-.01q.48 0 .37-.47c-2.31-10.3-14.57-14.25-22.56-8.27M128.04 53.47l-.1 27.8a.72.72 0 0 0 .72.72l11.91.05a14.67 14.1.2 0 0 14.72-14.05v-1.04a14.67 14.1.2 0 0-14.62-14.15l-11.91-.05a.72.72 0 0 0-.72.72M236.7 82a.55.55 0 0 0 .55-.55V60.52a.55.55 0 0 1 .56-.55l6.62.09a.55.55 0 0 0 .56-.55l.01-6.21a.55.55 0 0 0-.55-.55h-23.48a.55.55 0 0 0-.55.56l.12 6.15a.55.55 0 0 0 .55.54h6.36a.55.55 0 0 1 .55.55v20.9a.55.55 0 0 0 .55.55h8.15"/><path stroke="#797b7c" vector-effect="non-scaling-stroke" d="m289.68 72.46 4.69 8.82q.39.72 1.21.72h8.43q.78 0 .39-.68l-5.72-10q-.23-.39.19-.59c8.4-3.95 7.37-16-1.64-17.47q-6.45-1.05-16.68-.33-.55.04-.55.59v27.85q0 .63.62.63h8.01q.62 0 .62-.63v-8.8q0-.91.43-.11M343.08 72.69c7.27.38 14.24-1.92 13.99-10.05-.36-11.89-14.46-10.3-23.26-9.73a.6.59 88.5 0 0-.56.6v27.86q0 .63.62.63h8.01q.62 0 .62-.63v-8.13q0-.58.58-.55M369.62 74.75a.37.37 0 0 1-.37-.37v-3.51a.37.37 0 0 1 .37-.37l8.26.01a.37.37 0 0 0 .37-.37v-6.02a.37.37 0 0 0-.37-.37h-8.26a.37.37 0 0 1-.37-.37v-2.76a.37.37 0 0 1 .37-.37h9.51a.37.37 0 0 0 .37-.37v-6.76a.37.37 0 0 0-.37-.37h-18.76a.37.37 0 0 0-.37.37v28.51a.37.37 0 0 0 .37.37h18.76a.37.37 0 0 0 .37-.37v-6.51a.37.37 0 0 0-.37-.37h-9.51M429 60.5a.5.5 0 0 1 .5-.5h6.75a.5.5 0 0 0 .5-.5v-6.25a.5.5 0 0 0-.5-.5h-23.5a.5.5 0 0 0-.5.5v6.33a.5.5 0 0 0 .51.5l6.48-.12a.5.5 0 0 1 .51.5V81.5a.5.5 0 0 0 .5.5h8.25a.5.5 0 0 0 .5-.5v-21M448.95 72.45l4.75 8.99a1.06 1.05 75.8 0 0 .93.56h8.64q.81 0 .4-.7l-5.71-9.82q-.32-.56.27-.81c6.64-2.93 7.79-11.97 1.67-15.91-4.45-2.87-14.65-2.2-20.03-1.93q-.62.03-.62.65v27.9q0 .62.62.62h8.01q.62 0 .62-.63v-8.81q0-.96.45-.11M475.75 52.76a.41.41 0 0 0-.39.27l-10.43 28.43a.41.41 0 0 0 .39.55l8.8-.04a.41.41 0 0 0 .39-.29l1.24-3.95a.41.41 0 0 1 .4-.29l9.08.23a.41.41 0 0 1 .38.28l1.26 3.77a.41.41 0 0 0 .39.28h8.73a.41.41 0 0 0 .39-.55L486 53.02a.41.41 0 0 0-.39-.27l-9.86.01M105.67 56.8c-.63-.39-.88.9-.26 1.38a.51.5-63.7 0 0 .79-.27q.21-.74-.18-.92a1.59.23 36.7 0 1-.35-.19"/><path stroke="gray" vector-effect="non-scaling-stroke" d="M85.106 94.858a.37.37 0 0 0-.523-.029L81.92 97.22a.37.37 0 0 0-.028.523l5.903 6.58a.37.37 0 0 0 .523.028l2.664-2.391a.37.37 0 0 0 .029-.523l-5.904-6.58"/><path stroke="#797b7c" vector-effect="non-scaling-stroke" d="M69.97 103a.77.77 0 0 0-.77-.77.77.77 0 0 0-.77.77.77.77 0 0 0 .77.77.77.77 0 0 0 .77-.77"/><path stroke="gray" vector-effect="non-scaling-stroke" d="M99.38 107.56c-6.48-6.79-14.52 1.35-8.02 8.61q10.72 11.98 13.68 14.8c5.99 5.7 13.71-1.91 8.55-8.06q-3.3-3.91-14.21-15.35"/><path stroke="#d1ef87" vector-effect="non-scaling-stroke" d="M65.09 13.94c-1.82-2.35-2.03 6.97-1.97 7.3q.08.49.52.26.55-.3.44-1.03-.53-3.44 1.04-5.97a.49.49 0 0 0-.03-.56M51.99 27.35l-5.16-2.38a.1.1 0 0 0-.13.05 1.95 1 24.8 0 0 1.35 1.72l1.8.83a1.95 1 24.8 0 0 2.19-.09.1.1 0 0 0-.05-.13"/><path stroke="#f5881b" vector-effect="non-scaling-stroke" d="M48.99 58.44c.16-2.39-1.88.44-.61.53q.57.04.61-.53"/><path stroke="#797b7c" vector-effect="non-scaling-stroke" d="M172.968 73.71a6.44 5.65 90.2 0 0 5.672-6.42 6.44 5.65 90.2 0 0-5.627-6.46 6.44 5.65 90.2 0 0-5.673 6.42 6.44 5.65 90.2 0 0 5.627 6.46M261.761 73.74a6.45 5.66 89.9 0 0 5.649-6.46 6.45 5.66 89.9 0 0-5.671-6.44 6.45 5.66 89.9 0 0-5.649 6.46 6.45 5.66 89.9 0 0 5.671 6.44M137.24 61.28l-.02 12.12a.32.32 0 0 0 .32.32l2.26.01a6.2 6.05.1 0 0 6.21-6.04v-.66a6.2 6.05.1 0 0-6.19-6.06l-2.26-.01a.32.32 0 0 0-.32.32M289.25 61.06v3.86a.52.52 0 0 0 .52.52h2.84a2.66 2.14 0 0 0 2.66-2.14v-.62a2.66 2.14 0 0 0-2.66-2.14h-2.84a.52.52 0 0 0-.52.52M342.48 60.77v4.2a.53.53 0 0 0 .53.53h1.98a2.77 2.31.1 0 0 2.77-2.31v-.64a2.77 2.31.1 0 0-2.77-2.31h-1.98a.53.53 0 0 0-.53.53M448.51 60.83l-.02 4.24a.28.28 0 0 0 .28.28l3.35.01a2.39 2.15.2 0 0 2.4-2.14v-.5a2.39 2.15.2 0 0-2.38-2.16l-3.35-.01a.28.28 0 0 0-.28.28M480.36 63.51l-2.02 6.6a.44.43-83.4 0 0 .44.56l3.78-.23q.54-.03.37-.55l-2.14-6.38q-.22-.67-.43 0"/><path stroke="#f5b38f" vector-effect="non-scaling-stroke" d="M72.956 70.358a.64.51-15.6 0 0-.753-.32.64.51-15.6 0 0-.48.664.64.51-15.6 0 0 .754.32.64.51-15.6 0 0 .48-.664"/><path stroke="#fb4220" vector-effect="non-scaling-stroke" d="M52.7 70.46q.69-1.01-.74-.34-.09.04-.05.13.06.12.05.24-.06 1.14.74-.03M61.85 70.94q.13.08.27.08.2 0 .2-.21-.01-1.13-1.08-.98a.45.45 0 0 0 0 .9l.26.03a.48.03 31 0 1 .35.18"/><path stroke="gray" vector-effect="non-scaling-stroke" d="m105.37 127.71-14.82-16.69a.11.11 0 0 0-.15-.01l-.02.01a4.15 1.43 48.4 0 0 1.69 4.05l9.45 10.65a4.15 1.43 48.4 0 0 3.83 2.16l.01-.02a.11.11 0 0 0 .01-.15M110.214 129.93a1.96 1.74 131 0 0 2.6-.339 1.96 1.74 131 0 0-.028-2.62 1.96 1.74 131 0 0-2.6.337 1.96 1.74 131 0 0 .028 2.621"/></g><path fill="#010101" d="M0 0h497v134H0V0zm108.97 77.72Q103.6 89.18 94.16 97.4c-.56.48-1.13 1.5-.36 1.96q.67.94 1.44 1.27.49.2.89-.14c34.53-29.78 22.18-84.85-21.8-96.91C39.76-5.89 5.52 22.91 6.09 58.46c.63 39.56 42.4 65.15 77.78 47.65q.58-.28.15-.76l-1.18-1.29a.62.61-32.7 0 0-.72-.15c-18.21 7.95-39.49 5.67-54.63-7.65C-5.02 67.64 10.45 13.98 52.72 7.08c25.85-4.22 50.76 12.34 58.13 37.05 1.75 5.88 1.22 12.91 1.38 19.3q.12 4.96-3.26 14.29zm-45.6-53.56q6.11-5.02 5.01-13.17a.51.5 76 0 0-.68-.41c-5.88 2.2-10.21 7.54-5.31 13.48a.7.7 0 0 0 .98.1zm-3.67 4.08q-1.44 3.7-.84 8.34l-3.89-.68q-1.05-.19-.14.35c4.05 2.39 7.84 1.67 12.07 1.54 2.61-.09 4.74.72 7.16 1.47q.12.96-1.2 1.16-5.67-1.56-12.12.17l-2.81.32q-5.13-2-9.33-1.4-5.08-.23-8.32 2.04C23.97 53 30.57 75.92 43.32 86.95q6.78 5.88 14.74 1.25a.88.87-43.3 0 1 .9.02c5.21 3.4 10.4 3.64 15.61-.16 14.28-10.38 19.39-36.75 2.98-47.93q-6.39-4.36-15.08-3.24a.65.65 0 0 1-.73-.72l.36-3.34a.51.5 1.3 0 1 .48-.45q9.33-.49 16.66 5.08c24.23 18.41 15.1 52.23-13 59.56-25.13 3.56-44.72-16.62-39.35-41.76q3.93-11.97 14.01-19.37.49-.37-.02-.7l-1.83-1.16q-.44-.29-.87.02-11.98 8.68-15.29 23.17c-2.62 10.26 1.35 22.48 8.05 30.02 16.58 19.57 45.75 17.57 59.66-3.63C102.24 65.86 96.43 41 76.27 32.2c-3.99-1.75-8.92-1.31-13.24-1.52a1.48 1.48 0 0 1-.66-2.76q8.96-5.13 8.98-15.25c0-.08-.27-.52-.36-.56q-.51-.23-.48.33c.34 5.9-3.36 14.1-10.18 14.67q-.51.05-.67.54-.12.34.04.59zm-27.56-5.93c4.7 8.4 13.27 11.3 22.47 11.46q.53.01.46-.51-.91-6.59-5.65-10.9-.23.11-.58-.2-6.52-5.44-14.3-1.62-.72.44-1.22.13t-.09-.74c8.34-8.78 20.35.71 23.39 9.57a.27.27 0 0 0 .52-.02q.19-.88-.31-2.04c-3.78-8.82-13.22-14.51-22.64-10.73q-1.73.69-3.73 5-.21.45.28.49l1.4.11zm51.024-2.88a1.04.85 57.8 0 0 .165-1.333 1.04.85 57.8 0 0-1.273-.427 1.04.85 57.8 0 0-.165 1.333 1.04.85 57.8 0 0 1.273.427zm23.546 34.68q1.49-.08 1.17-2.09-3.01-18.81-17.97-30.26c-1.42-1.09-2.92-2.4-4.59-1.25a1.34 1.34 0 0 0 .02 2.23c12.06 7.88 15.83 17.36 20.03 30.45a1.33 1.32-10.4 0 0 1.34.92zm81.25 13.21a14.98 14.98 0 0 0-14.98-14.98A14.98 14.98 0 0 0 158 67.32a14.98 14.98 0 0 0 14.98 14.98 14.98 14.98 0 0 0 14.98-14.98zm17.96 6.14c-8.33 2.51-8.97-14.98.61-11.96q1.37.43 2.24 2.06a.85.82 75.3 0 0 .73.44h8.7q.54 0 .42-.52c-1.58-7.01-6.77-10.66-13.86-10.85-20.35-.53-19.16 32.68 2.67 29.36q8.24-1.25 11.31-10.53.23-.71-.51-.71h-8.68q-.49 0-.75.41-1.12 1.77-2.88 2.3zm70.78-6.13a14.98 14.98 0 0 0-14.98-14.98 14.98 14.98 0 0 0-14.98 14.98 14.98 14.98 0 0 0 14.98 14.98 14.98 14.98 0 0 0 14.98-14.98zm40.5-4.98a1.41 1.41 0 0 1 .47-2.68q1.78-.16 2.06 1.46.11.62.74.62h8.72a.39.38-2.7 0 0 .39-.42c-1.09-15.26-30.4-9.13-21.37 4.51 2.15 3.24 7.33 4.75 10.93 6.14a1.62 1.61 22.4 0 1 .9 2.15c-.75 1.75-3.07 1.07-3.4-.86a.64.63 84.5 0 0-.62-.52h-8.77q-.61 0-.52.6c1.69 11.44 21.45 12.17 23.2 1.05 1.2-7.68-7.5-9.59-12.73-12.05zm70.6-7.09c-6.98 5.22-7.58 15.63-2.34 22.15 6.83 8.51 22.41 5.57 24.87-6.24a.36.35 5.4 0 0-.35-.42h-8.7q-.46 0-.71.39-1.39 2.2-3.83 2.48c-9.69 1.13-5.06-20.16 3.7-10.09q.41.48 1.04.48l8.51-.01q.48 0 .37-.47c-2.31-10.3-14.57-14.25-22.56-8.27zm-259.76-1.79-.1 27.8a.72.72 0 0 0 .72.72l11.91.05a14.67 14.1.2 0 0 14.72-14.05v-1.04a14.67 14.1.2 0 0-14.62-14.15l-11.91-.05a.72.72 0 0 0-.72.72zM236.7 82a.55.55 0 0 0 .55-.55V60.52a.55.55 0 0 1 .56-.55l6.62.09a.55.55 0 0 0 .56-.55l.01-6.21a.55.55 0 0 0-.55-.55h-23.48a.55.55 0 0 0-.55.56l.12 6.15a.55.55 0 0 0 .55.54h6.36a.55.55 0 0 1 .55.55v20.9a.55.55 0 0 0 .55.55h8.15zm52.98-9.54 4.69 8.82q.39.72 1.21.72h8.43q.78 0 .39-.68l-5.72-10q-.23-.39.19-.59c8.4-3.95 7.37-16-1.64-17.47q-6.45-1.05-16.68-.33-.55.04-.55.59v27.85q0 .63.62.63h8.01q.62 0 .62-.63v-8.8q0-.91.43-.11zm53.4.23c7.27.38 14.24-1.92 13.99-10.05-.36-11.89-14.46-10.3-23.26-9.73a.6.59 88.5 0 0-.56.6v27.86q0 .63.62.63h8.01q.62 0 .62-.63v-8.13q0-.58.58-.55zm26.54 2.06a.37.37 0 0 1-.37-.37v-3.51a.37.37 0 0 1 .37-.37l8.26.01a.37.37 0 0 0 .37-.37v-6.02a.37.37 0 0 0-.37-.37h-8.26a.37.37 0 0 1-.37-.37v-2.76a.37.37 0 0 1 .37-.37h9.51a.37.37 0 0 0 .37-.37v-6.76a.37.37 0 0 0-.37-.37h-18.76a.37.37 0 0 0-.37.37v28.51a.37.37 0 0 0 .37.37h18.76a.37.37 0 0 0 .37-.37v-6.51a.37.37 0 0 0-.37-.37h-9.51zM429 60.5a.5.5 0 0 1 .5-.5h6.75a.5.5 0 0 0 .5-.5v-6.25a.5.5 0 0 0-.5-.5h-23.5a.5.5 0 0 0-.5.5v6.33a.5.5 0 0 0 .51.5l6.48-.12a.5.5 0 0 1 .51.5V81.5a.5.5 0 0 0 .5.5h8.25a.5.5 0 0 0 .5-.5v-21zm19.95 11.95 4.75 8.99a1.06 1.05 75.8 0 0 .93.56h8.64q.81 0 .4-.7l-5.71-9.82q-.32-.56.27-.81c6.64-2.93 7.79-11.97 1.67-15.91-4.45-2.87-14.65-2.2-20.03-1.93q-.62.03-.62.65v27.9q0 .62.62.62h8.01q.62 0 .62-.63v-8.81q0-.96.45-.11zm26.8-19.69a.41.41 0 0 0-.39.27l-10.43 28.43a.41.41 0 0 0 .39.55l8.8-.04a.41.41 0 0 0 .39-.29l1.24-3.95a.41.41 0 0 1 .4-.29l9.08.23a.41.41 0 0 1 .38.28l1.26 3.77a.41.41 0 0 0 .39.28h8.73a.41.41 0 0 0 .39-.55L486 53.02a.41.41 0 0 0-.39-.27l-9.86.01zM105.67 56.8c-.63-.39-.88.9-.26 1.38a.51.5-63.7 0 0 .79-.27q.21-.74-.18-.92a1.59.23 36.7 0 1-.35-.19zM85.106 94.858a.37.37 0 0 0-.523-.029L81.92 97.22a.37.37 0 0 0-.028.523l5.903 6.58a.37.37 0 0 0 .523.028l2.664-2.391a.37.37 0 0 0 .029-.523l-5.904-6.58zM69.97 103a.77.77 0 0 0-.77-.77.77.77 0 0 0-.77.77.77.77 0 0 0 .77.77.77.77 0 0 0 .77-.77zm29.41 4.56c-6.48-6.79-14.52 1.35-8.02 8.61q10.72 11.98 13.68 14.8c5.99 5.7 13.71-1.91 8.55-8.06q-3.3-3.91-14.21-15.35z"/><path fill="#fff" d="M93.8 99.36c7.16-6.19 12.62-12.18 15.17-21.64q3.38-9.33 3.26-14.29c-.16-6.39.37-13.42-1.38-19.3-7.37-24.71-32.28-41.27-58.13-37.05-42.27 6.9-57.74 60.56-25.23 89.18 15.14 13.32 36.42 15.6 54.63 7.65a.62.61-32.7 0 1 .72.15l1.18 1.29q.43.48-.15.76c-35.38 17.5-77.15-8.09-77.78-47.65C5.52 22.91 39.76-5.89 74.33 3.58c43.98 12.06 56.33 67.13 21.8 96.91q-.4.34-.89.14-.77-.33-1.44-1.27z"/><path fill="#b1e818" d="M63.37 24.16a.7.7 0 0 1-.98-.1c-4.9-5.94-.57-11.28 5.31-13.48a.51.5 76 0 1 .68.41q1.1 8.15-5.01 13.17zm1.72-10.22c-1.82-2.35-2.03 6.97-1.97 7.3q.08.49.52.26.55-.3.44-1.03-.53-3.44 1.04-5.97a.49.49 0 0 0-.03-.56z"/><path fill="#fff" d="M30.94 87.24q9.12 7.83 15.81 10.48c3.55 1.41 16.08 3.46 19.49-.7 28.1-7.33 37.23-41.15 13-59.56q-7.33-5.57-16.66-5.08a.51.5 1.3 0 0-.48.45l-.36 3.34a.65.65 0 0 0 .73.72q8.69-1.12 15.08 3.24c16.41 11.18 11.3 37.55-2.98 47.93-5.21 3.8-10.4 3.56-15.61.16a.88.87-43.3 0 0-.9-.02q-7.96 4.63-14.74-1.25C30.57 75.92 23.97 53 40.28 41.55q3.24-2.27 8.32-2.04-7.14 1.98-11.24 6.21l-2.61 4.02q-2.08 3.9-2.56 8.15-.48 4.37.61 7.74C35.01 75.46 43.86 93.12 56.59 87c1-.48 2.55-.34 3.56.13q2.53 1.18 4.38 1.55 3.01 1.31 4.94.65 2.69-.3 4.63-1.97Q86.06 77.1 86.88 61.29q.5-2.2-.36-3.79l-1.28-5.27q-3.06-8.86-11.18-12.97c-2.42-.75-4.55-1.56-7.16-1.47-4.23.13-8.02.85-12.07-1.54q-.91-.54.14-.35l3.89.68c3.31 1.51 2.01-6.57 1.78-7.85q-.08-.5-.59-.5l-.35.01q-.16-.25-.04-.59.16-.49.67-.54c6.82-.57 10.52-8.77 10.18-14.67q-.03-.56.48-.33c.09.04.36.48.36.56q-.02 10.12-8.98 15.25a1.48 1.48 0 0 0 .66 2.76c4.32.21 9.25-.23 13.24 1.52C96.43 41 102.24 65.86 90.6 83.61c-13.91 21.2-43.08 23.2-59.66 3.63z"/><path fill="#f0f5f6" d="M63.12 21.24c-.06-.33.15-9.65 1.97-7.3a.49.49 0 0 1 .03.56q-1.57 2.53-1.04 5.97.11.73-.44 1.03-.44.23-.52-.26z"/><path fill="#fff" d="M34.54 20.54q7.68-.7 14.3 1.62.35.31.58.2c-.3 2.37-2.1 1.53-3.69 1.83q-.5.1-.97-.08-6.01-2.28-12.62-1.8l-1.4-.11q-.49-.04-.28-.49 2-4.31 3.73-5c9.42-3.78 18.86 1.91 22.64 10.73q.5 1.16.31 2.04a.27.27 0 0 1-.52.02c-3.04-8.86-15.05-18.35-23.39-9.57q-.41.43.09.74t1.22-.13z"/><ellipse fill="#fff" transform="rotate(57.8 24.503 84.099)" rx="1.04" ry=".85"/><path fill="#b1e818" d="M48.84 22.16q-6.62-2.32-14.3-1.62 7.78-3.82 14.3 1.62z"/><path fill="#fff" d="M106.71 54.11a1.33 1.32-10.4 0 1-1.34-.92c-4.2-13.09-7.97-22.57-20.03-30.45a1.34 1.34 0 0 1-.02-2.23c1.67-1.15 3.17.16 4.59 1.25q14.96 11.45 17.97 30.26.32 2.01-1.17 2.09z"/><path fill="#b1e818" d="M32.14 22.31q6.61-.48 12.62 1.8.47.18.97.08c1.59-.3 3.39.54 3.69-1.83q4.74 4.31 5.65 10.9.07.52-.46.51c-9.2-.16-17.77-3.06-22.47-11.46zm19.85 5.04-5.16-2.38a.1.1 0 0 0-.13.05 1.95 1 24.8 0 0 1.35 1.72l1.8.83a1.95 1 24.8 0 0 2.19-.09.1.1 0 0 0-.05-.13z"/><path fill="#f0f5f6" d="M51.99 27.35a.1.1 0 0 1 .05.13 1.95 1 24.8 0 1-2.19.09l-1.8-.83a1.95 1 24.8 0 1-1.35-1.72.1.1 0 0 1 .13-.05l5.16 2.38z"/><path fill="#f97127" d="m59.7 28.24.35-.01q.51 0 .59.5c.23 1.28 1.53 9.36-1.78 7.85q-.6-4.64.84-8.34z"/><path fill="#fff" d="M26.89 55.26c-.76-.01-3.36-.92-2.88.96a1.28 1.25-38.4 0 1-.12.94q-.62 1.14-1 .06 3.31-14.49 15.29-23.17.43-.31.87-.02l1.83 1.16q.51.33.02.7-10.08 7.4-14.01 19.37z"/><path fill="#f4dd3b" d="M48.6 39.51q4.2-.6 9.33 1.4-1.02.25.95 1.16.41 2.11 2.43 3.05a.75.75 0 0 1 .44.68v.38q0 .34.23.6l6.06 6.69c-1.19.46-1.48.82-2.76.58q-4.77-.91-9.56.53a.85.83 59.5 0 1-.85-.23q-2.73-2.89-6.45-3.47-.47-.07-.88-.33-1.53-.96-3.27-1.14 4.55-1.59 6.74-5.97a.56.55-87.5 0 0-.7-.77l-2.48 1q-.4.17-.83.16-4.07-.03-6.86 3.78-.91-1.45-2.78-1.89 4.1-4.23 11.24-6.21z"/><path fill="#70a010" d="M74.06 39.26q8.12 4.11 11.18 12.97-1.78.9-1.72 2.72-1.8-6.6-7.68-10.93-.43-1.78-2.98-3.6 1.32-.2 1.2-1.16z"/><path fill="#b1e818" d="M72.86 40.42q2.55 1.82 2.98 3.6-1.46-.11-1.92.74-.24.47.05.91l5.78 8.59q-6.59 1.12-11.71-.79l-6.06-6.69q-.23-.26-.23-.6v-.38a.75.75 0 0 0-.44-.68q-2.02-.94-2.43-3.05 2.11-.15 1.86-1.48 6.45-1.73 12.12-.17z"/><path fill="#f0f5f6" d="M60.74 40.59q.25 1.33-1.86 1.48-1.97-.91-.95-1.16l2.81-.32z"/><path fill="#fff" d="M44.27 49.41q-1.65.8-3.42.56-.51-.07-.74-.53-.38-.77.03-1.83 2.79-3.81 6.86-3.78.43.01.83-.16l2.48-1a.56.55-87.5 0 1 .7.77q-2.19 4.38-6.74 5.97zM75.84 44.02q5.88 4.33 7.68 10.93Q87.45 74.73 70.97 86c6.14-8.02 10.27-13.5 10.85-23.53q-.23-4.26-2.07-8.21l-5.78-8.59q-.29-.44-.05-.91.46-.85 1.92-.74z"/><path fill="#f4bf1c" d="M37.36 45.72q1.87.44 2.78 1.89-.41 1.06-.03 1.83.23.46.74.53 1.77.24 3.42-.56 1.74.18 3.27 1.14.41.26.88.33 3.72.58 6.45 3.47a.85.83 59.5 0 0 .85.23q4.79-1.44 9.56-.53c1.28.24 1.57-.12 2.76-.58q5.12 1.91 11.71.79 1.84 3.95 2.07 8.21-1.55.96-2.55.26-1.07-.59-1.21-1.38a1.51 1.44 51 0 0-2.83-.36l-.37 1.04q-.13.34-.45.19-2.25-1.05-4.53-.11-.65.27-.78-.42l-.18-.89q-.07-.36-.38-.56-4.42-2.8-9.44-1.41a2.19 2.09-43.1 0 1-1.2-.01l-3.37-1.02q-.54-.17-.94.23l-.5.5q-.54.55-.98-.09l-1.15-1.68q-.26-.37-.68-.56-4.4-1.96-9.31-1.82-.44.01-.75-.3-.39-.41-.94-.36-.47.04-.89-.18-2.5-1.28-3.64-3.8l2.61-4.02z"/><path fill="#f19e0f" d="M34.75 49.74q1.14 2.52 3.64 3.8.42.22.89.18.55-.05.94.36.31.31.75.3 4.91-.14 9.31 1.82.42.19.68.56l1.15 1.68q.44.64.98.09l.5-.5q.4-.4.94-.23l3.37 1.02a2.19 2.09-43.1 0 0 1.2.01q5.02-1.39 9.44 1.41.31.2.38.56l.18.89q.13.69.78.42 2.28-.94 4.53.11.32.15.45-.19l.37-1.04a1.51 1.44 51 0 1 2.83.36q.14.79 1.21 1.38-.33.58-.09 1.55a.68.67-18.9 0 1-.38.77q-1.19.55-2.8.22-.06-.24-.2-.37a.52.52 0 0 0-.75.03q-.28.33-.34.81-1.91.13-3.52-.63-.43-.21-.87-.05-3.32 1.13-4.63-1.87-.17-.37-.58-.33-2.44.24-4.4-.98a2.91 2.57 34.4 0 0-3.65.45q-.3.39-1.98-.67-2.98-1.05-5.11-.04c-2.04 2.08-14.94-2.46-17.78-3.73q.48-4.25 2.56-8.15zm14.24 8.7c.16-2.39-1.88.44-.61.53q.57.04.61-.53z"/><path fill="#f4bf1c" d="m85.24 52.23 1.28 5.27q-.24 1.97.36 3.79-.82 15.81-12.78 26.07-1.94 1.67-4.63 1.97-.58-2.28 1.5-3.33 16.48-11.27 12.55-31.05-.06-1.82 1.72-2.72z"/><path fill="#f0f5f6" d="M187.96 67.32a14.98 14.98 0 0 1-14.98 14.98A14.98 14.98 0 0 1 158 67.32a14.98 14.98 0 0 1 14.98-14.98 14.98 14.98 0 0 1 14.98 14.98zm-14.993 6.39a6.44 5.65 90.2 0 0 5.673-6.42 6.44 5.65 90.2 0 0-5.627-6.46 6.44 5.65 90.2 0 0-5.673 6.42 6.44 5.65 90.2 0 0 5.627 6.46z"/><path fill="#f0f5f6" d="M205.92 73.46q1.76-.53 2.88-2.3.26-.41.75-.41h8.68q.74 0 .51.71-3.07 9.28-11.31 10.53c-21.83 3.32-23.02-29.89-2.67-29.36 7.09.19 12.28 3.84 13.86 10.85q.12.52-.42.52h-8.7a.85.82 75.3 0 1-.73-.44q-.87-1.63-2.24-2.06c-9.58-3.02-8.94 14.47-.61 11.96zM276.7 67.33a14.98 14.98 0 0 1-14.98 14.98 14.98 14.98 0 0 1-14.98-14.98 14.98 14.98 0 0 1 14.98-14.98 14.98 14.98 0 0 1 14.98 14.98zm-14.939 6.41a6.45 5.66 89.9 0 0 5.649-6.46 6.45 5.66 89.9 0 0-5.671-6.44 6.45 5.66 89.9 0 0-5.649 6.46 6.45 5.66 89.9 0 0 5.671 6.44zM317.2 62.35c5.23 2.46 13.93 4.37 12.73 12.05-1.75 11.12-21.51 10.39-23.2-1.05q-.09-.6.52-.6h8.77a.64.63 84.5 0 1 .62.52c.33 1.93 2.65 2.61 3.4.86a1.62 1.61 22.4 0 0-.9-2.15c-3.6-1.39-8.78-2.9-10.93-6.14-9.03-13.64 20.28-19.77 21.37-4.51a.39.38-2.7 0 1-.39.42h-8.72q-.63 0-.74-.62-.28-1.62-2.06-1.46a1.41 1.41 0 0 0-.47 2.68zM387.8 55.26c7.99-5.98 20.25-2.03 22.56 8.27q.11.47-.37.47l-8.51.01q-.63 0-1.04-.48c-8.76-10.07-13.39 11.22-3.7 10.09q2.44-.28 3.83-2.48.25-.39.71-.39h8.7a.36.35 5.4 0 1 .35.42c-2.46 11.81-18.04 14.75-24.87 6.24-5.24-6.52-4.64-16.93 2.34-22.15zM128.04 53.47a.72.72 0 0 1 .72-.72l11.91.05a14.67 14.1.2 0 1 14.62 14.15v1.04a14.67 14.1.2 0 1-14.72 14.05l-11.91-.05a.72.72 0 0 1-.72-.72l.1-27.8zm9.2 7.81-.02 12.12a.32.32 0 0 0 .32.32l2.26.01a6.2 6.05.1 0 0 6.21-6.04v-.66a6.2 6.05.1 0 0-6.19-6.06l-2.26-.01a.32.32 0 0 0-.32.32zM236.7 82h-8.15a.55.55 0 0 1-.55-.55v-20.9a.55.55 0 0 0-.55-.55h-6.36a.55.55 0 0 1-.55-.54l-.12-6.15a.55.55 0 0 1 .55-.56h23.48a.55.55 0 0 1 .55.55l-.01 6.21a.55.55 0 0 1-.56.55l-6.62-.09a.55.55 0 0 0-.56.55v20.93a.55.55 0 0 1-.55.55z"/><path fill="#f0f5f6" d="M289.25 72.57v8.8q0 .63-.62.63h-8.01q-.62 0-.62-.63V53.52q0-.55.55-.59 10.23-.72 16.68.33c9.01 1.47 10.04 13.52 1.64 17.47q-.42.2-.19.59l5.72 10q.39.68-.39.68h-8.43q-.82 0-1.21-.72l-4.69-8.82q-.43-.8-.43.11zm0-11.51v3.86a.52.52 0 0 0 .52.52h2.84a2.66 2.14 0 0 0 2.66-2.14v-.62a2.66 2.14 0 0 0-2.66-2.14h-2.84a.52.52 0 0 0-.52.52zM342.5 73.24v8.13q0 .63-.62.63h-8.01q-.62 0-.62-.63V53.51a.6.59 88.5 0 1 .56-.6c8.8-.57 22.9-2.16 23.26 9.73.25 8.13-6.72 10.43-13.99 10.05q-.58-.03-.58.55zm-.02-12.47v4.2a.53.53 0 0 0 .53.53h1.98a2.77 2.31.1 0 0 2.77-2.31v-.64a2.77 2.31.1 0 0-2.77-2.31h-1.98a.53.53 0 0 0-.53.53zM369.62 74.75h9.51a.37.37 0 0 1 .37.37v6.51a.37.37 0 0 1-.37.37h-18.76a.37.37 0 0 1-.37-.37V53.12a.37.37 0 0 1 .37-.37h18.76a.37.37 0 0 1 .37.37v6.76a.37.37 0 0 1-.37.37h-9.51a.37.37 0 0 0-.37.37v2.76a.37.37 0 0 0 .37.37h8.26a.37.37 0 0 1 .37.37v6.02a.37.37 0 0 1-.37.37l-8.26-.01a.37.37 0 0 0-.37.37v3.51a.37.37 0 0 0 .37.37zM429 60.5v21a.5.5 0 0 1-.5.5h-8.25a.5.5 0 0 1-.5-.5V60.46a.5.5 0 0 0-.51-.5l-6.48.12a.5.5 0 0 1-.51-.5v-6.33a.5.5 0 0 1 .5-.5h23.5a.5.5 0 0 1 .5.5v6.25a.5.5 0 0 1-.5.5h-6.75a.5.5 0 0 0-.5.5zM448.5 72.56v8.81q0 .63-.62.63h-8.01q-.62 0-.62-.62v-27.9q0-.62.62-.65c5.38-.27 15.58-.94 20.03 1.93 6.12 3.94 4.97 12.98-1.67 15.91q-.59.25-.27.81l5.71 9.82q.41.7-.4.7h-8.64a1.06 1.05 75.8 0 1-.93-.56l-4.75-8.99q-.45-.85-.45.11zm.01-11.73-.02 4.24a.28.28 0 0 0 .28.28l3.35.01a2.39 2.15.2 0 0 2.4-2.14v-.5a2.39 2.15.2 0 0-2.38-2.16l-3.35-.01a.28.28 0 0 0-.28.28zM475.75 52.76l9.86-.01a.41.41 0 0 1 .39.27l10.38 28.43a.41.41 0 0 1-.39.55h-8.73a.41.41 0 0 1-.39-.28l-1.26-3.77a.41.41 0 0 0-.38-.28l-9.08-.23a.41.41 0 0 0-.4.29l-1.24 3.95a.41.41 0 0 1-.39.29l-8.8.04a.41.41 0 0 1-.39-.55l10.43-28.43a.41.41 0 0 1 .39-.27zm4.61 10.75-2.02 6.6a.44.43-83.4 0 0 .44.56l3.78-.23q.54-.03.37-.55l-2.14-6.38q-.22-.67-.43 0z"/><path fill="#75e9fc" d="M26.89 55.26c-5.37 25.14 14.22 45.32 39.35 41.76-3.41 4.16-15.94 2.11-19.49.7q-6.69-2.65-15.81-10.48c-6.7-7.54-10.67-19.76-8.05-30.02q.38 1.08 1-.06a1.28 1.25-38.4 0 0 .12-.94c-.48-1.88 2.12-.97 2.88-.96z"/><path fill="#f0f5f6" d="M106.02 56.99q.39.18.18.92a.51.5-63.7 0 1-.79.27c-.62-.48-.37-1.77.26-1.38a1.59.23 36.7 0 0 .35.19z"/><path fill="#f97127" d="M48.38 58.97c-1.27-.09.77-2.92.61-.53q-.04.57-.61.53zM86.52 57.5q.86 1.59.36 3.79-.6-1.82-.36-3.79zM49.97 61.62l5.11.04q1.68 1.06 1.98.67a2.91 2.57 34.4 0 1 3.65-.45q1.96 1.22 4.4.98.41-.04.58.33 1.31 3 4.63 1.87.44-.16.87.05 1.61.76 3.52.63.23.46.55.59.53.23.72-.32.11-.33.02-.74 1.61.33 2.8-.22a.68.67-18.9 0 0 .38-.77q-.24-.97.09-1.55 1 .7 2.55-.26C81.24 72.5 77.11 77.98 70.97 86q-2.08 1.05-1.5 3.33-1.93.66-4.94-.65L69.59 83a3.37 3.34 58.9 0 0 .74-3.04c-.59-2.34-.88-8.31-3.55-8.84q-.5-.09-.59-.6-.52-3.06-4-4.03.32-.61.08-.98a.87.22 58.8 0 0-.55-.54q-.78.01-.75.65-2.54-1.08-3.11.64-.19.57-.63.17-1.58-1.42-3.76-1.43-.33 0-.4.33l-.17.86q-.14.71-.8.41-2.41-1.11-5.06-.86 0-.48-.55-.81a.29.29 0 0 0-.44.2l-.09.56q-.8-.76-2.94-.39c-.1-.51-.51-.71-.97-.31-.44-2.12-7.86.27-9.25.64q-1.09-3.37-.61-7.74c2.84 1.27 15.74 5.81 17.78 3.73zm22.986 8.738a.64.51-15.6 0 0-.753-.32.64.51-15.6 0 0-.48.664.64.51-15.6 0 0 .754.32.64.51-15.6 0 0 .48-.664z"/><path fill="#010101" d="M342.48 60.77a.53.53 0 0 1 .53-.53h1.98a2.77 2.31.1 0 1 2.77 2.31v.64a2.77 2.31.1 0 1-2.77 2.31h-1.98a.53.53 0 0 1-.53-.53v-4.2zM289.25 61.06a.52.52 0 0 1 .52-.52h2.84a2.66 2.14 0 0 1 2.66 2.14v.62a2.66 2.14 0 0 1-2.66 2.14h-2.84a.52.52 0 0 1-.52-.52v-3.86zM448.51 60.83a.28.28 0 0 1 .28-.28l3.35.01a2.39 2.15.2 0 1 2.38 2.16v.5a2.39 2.15.2 0 1-2.4 2.14l-3.35-.01a.28.28 0 0 1-.28-.28l.02-4.24z"/><path fill="#f4bf1c" d="m55.08 61.66-5.11-.04q2.13-1.01 5.11.04z"/><path fill="#010101" d="M137.24 61.28a.32.32 0 0 1 .32-.32l2.26.01a6.2 6.05.1 0 1 6.19 6.06v.66a6.2 6.05.1 0 1-6.21 6.04l-2.26-.01a.32.32 0 0 1-.32-.32l.02-12.12z"/><ellipse fill="#010101" transform="rotate(90.2 52.977 119.829)" rx="6.44" ry="5.65"/><ellipse fill="#010101" transform="rotate(89.9 97.171 164.749)" rx="6.45" ry="5.66"/><path fill="#010101" d="M480.36 63.51q.21-.67.43 0l2.14 6.38q.17.52-.37.55l-3.78.23a.44.43-83.4 0 1-.44-.56l2.02-6.6z"/><path fill="#fd1319" d="M42.05 64.99q-.14.52.02.97a.42.41 59.9 0 0 .67.18q.37-.32.28-.84 2.14-.37 2.94.39c.19.57 1.11.95 1.08.05q2.65-.25 5.06.86.66.3.8-.41l.17-.86q.07-.33.4-.33 2.18.01 3.76 1.43.44.4.63-.17.57-1.72 3.11-.64c-.1.78.57 1.02 1.22.87q3.48.97 4 4.03.09.51.59.6c2.67.53 2.96 6.5 3.55 8.84a3.37 3.34 58.9 0 1-.74 3.04l-5.06 5.68q-1.85-.37-4.38-1.55c-1.01-.47-2.56-.61-3.56-.13-12.73 6.12-21.58-11.54-23.79-21.37 1.39-.37 8.81-2.76 9.25-.64zm10.65 5.47q.69-1.01-.74-.34-.09.04-.05.13.06.12.05.24-.06 1.14.74-.03zm9.15.48q.13.08.27.08.2 0 .2-.21-.01-1.13-1.08-.98a.45.45 0 0 0 0 .9l.26.03a.48.03 31 0 1 .35.18z"/><path fill="#f0f5f6" d="M43.02 65.3q.09.52-.28.84a.42.41 59.9 0 1-.67-.18q-.16-.45-.02-.97c.46-.4.87-.2.97.31zM76 65.27q.09.41-.02.74-.19.55-.72.32-.32-.13-.55-.59.06-.48.34-.81a.52.52 0 0 1 .75-.03q.14.13.2.37zM47.04 65.74c.03.9-.89.52-1.08-.05l.09-.56a.29.29 0 0 1 .44-.2q.55.33.55.81zM62.19 66.49c-.65.15-1.32-.09-1.22-.87q-.03-.64.75-.65a.87.22 58.8 0 1 .55.54q.24.37-.08.98z"/><path fill="#f97127" d="M51.96 70.49q.01-.12-.05-.24-.04-.09.05-.13 1.43-.67.74.34-.8 1.17-.74.03zM61.5 70.76l-.26-.03a.45.45 0 0 1 0-.9q1.07-.15 1.08.98 0 .21-.2.21-.14 0-.27-.08a.48.03 31 0 0-.35-.18z"/><ellipse fill="#f0f5f6" transform="rotate(-15.6 293.61 -228.782)" rx=".64" ry=".51"/><path fill="#75e9fc" d="M108.97 77.72c-2.55 9.46-8.01 15.45-15.17 21.64-.77-.46-.2-1.48.36-1.96q9.44-8.22 14.81-19.68z"/><rect fill="#fff" x="-2.16" y="-4.79" transform="rotate(-41.9 173.285 -63.104)" width="4.32" height="9.58" rx=".37"/><circle fill="#f0f5f6" cx="69.2" cy="103" r=".77"/><path fill="#fff" d="M99.38 107.56q10.91 11.44 14.21 15.35c5.16 6.15-2.56 13.76-8.55 8.06q-2.96-2.82-13.68-14.8c-6.5-7.26 1.54-15.4 8.02-8.61zm5.99 20.15-14.82-16.69a.11.11 0 0 0-.15-.01l-.02.01a4.15 1.43 48.4 0 0 1.69 4.05l9.45 10.65a4.15 1.43 48.4 0 0 3.83 2.16l.01-.02a.11.11 0 0 0 .01-.15zm4.844 2.22a1.96 1.74 131 0 0 2.6-.339 1.96 1.74 131 0 0-.028-2.62 1.96 1.74 131 0 0-2.6.337 1.96 1.74 131 0 0 .028 2.621z"/><path fill="#010101" d="M105.37 127.71a.11.11 0 0 1-.01.15l-.01.02a4.15 1.43 48.4 0 1-3.83-2.16l-9.45-10.65a4.15 1.43 48.4 0 1-1.69-4.05l.02-.01a.11.11 0 0 1 .15.01l14.82 16.69z"/><ellipse fill="#010101" transform="rotate(131 26.481 89.632)" rx="1.96" ry="1.74"/></svg>