<?xml version="1.0" encoding="UTF-8" standalone="no"?>
<!DOCTYPE svg PUBLIC "-//W3C//DTD SVG 1.1//EN" "http://www.w3.org/Graphics/SVG/1.1/DTD/svg11.dtd">
<svg xmlns="http://www.w3.org/2000/svg" version="1.1" viewBox="0.00 0.00 300.00 82.00">
<circle fill="#f05a22" cx="202.34" cy="11.15" r="3.33"/>
<path fill="#f05a22" d="
  M 253.40 38.28
  Q 253.13 38.38 253.04 38.67
  Q 252.91 39.08 252.55 39.32
  C 237.15 49.85 226.86 24.87 240.89 18.34
  C 245.15 16.35 249.93 16.96 253.26 20.32
  A 0.43 0.43 0.0 0 0 254.00 20.02
  L 254.00 8.62
  Q 254.00 8.00 254.63 8.00
  L 258.50 8.00
  Q 259.25 8.00 259.25 8.75
  L 259.25 40.19
  A 0.70 0.70 0.0 0 1 258.56 40.89
  L 254.62 40.97
  A 0.61 0.61 0.0 0 1 254.00 40.36
  L 254.00 38.70
  Q 254.00 38.06 253.40 38.28
  Z
  M 246.6763 36.3696
  A 7.04 6.55 90.6 0 0 253.2996 29.3986
  A 7.04 6.55 90.6 0 0 246.8237 22.2904
  A 7.04 6.55 90.6 0 0 240.2004 29.2614
  A 7.04 6.55 90.6 0 0 246.6763 36.3696
  Z"
/>
<circle fill="#2f3291" cx="267.00" cy="11.18" r="3.33"/>
<path fill="#f05a22" d="
  M 66.56 23.35
  L 66.59 34.91
  A 0.97 0.97 0.0 0 0 67.52 35.88
  L 72.43 36.06
  A 0.53 0.52 82.3 0 1 72.92 36.44
  L 74.02 40.21
  Q 74.15 40.66 73.68 40.68
  C 67.17 40.96 61.48 41.94 61.51 33.82
  Q 61.53 28.53 61.48 23.25
  Q 61.47 22.75 60.98 22.75
  L 57.21 22.75
  A 0.47 0.46 -81.2 0 1 56.77 22.14
  Q 57.32 20.41 56.71 18.68
  A 0.68 0.68 0.0 0 1 57.35 17.77
  L 60.13 17.74
  A 1.13 1.12 -0.3 0 0 61.25 16.62
  L 61.25 12.25
  Q 61.25 11.50 62.00 11.50
  L 65.91 11.50
  Q 66.56 11.50 66.56 12.15
  L 66.60 17.31
  Q 66.61 17.75 67.05 17.75
  L 72.22 17.75
  A 0.67 0.67 0.0 0 1 72.89 18.46
  L 72.69 22.05
  Q 72.65 22.75 71.95 22.75
  L 67.16 22.75
  Q 66.56 22.75 66.56 23.35
  Z"
/>
<path fill="#f05a22" d="
  M 128.97 22.75
  L 125.50 22.75
  Q 125.00 22.75 125.00 22.25
  L 125.00 18.37
  A 0.62 0.62 0.0 0 1 125.62 17.75
  L 128.96 17.75
  Q 129.41 17.75 129.39 17.30
  L 129.19 12.29
  Q 129.16 11.50 129.96 11.50
  L 134.25 11.50
  Q 134.75 11.50 134.75 12.00
  L 134.75 17.28
  A 0.53 0.52 89.5 0 0 135.28 17.81
  L 140.48 17.73
  Q 141.00 17.72 141.00 18.24
  L 141.00 22.25
  Q 141.00 22.75 140.50 22.75
  L 135.25 22.75
  A 0.50 0.50 0.0 0 0 134.75 23.25
  L 134.75 33.75
  A 2.25 2.25 0.0 0 0 137.00 36.00
  L 140.30 36.00
  Q 140.87 36.00 141.05 36.54
  L 142.27 40.17
  Q 142.44 40.67 141.91 40.69
  C 135.54 40.91 129.67 42.01 129.77 34.17
  Q 129.84 28.69 129.46 23.21
  Q 129.43 22.75 128.97 22.75
  Z"
/>
<path fill="#f05a22" d="
  M 10.81 30.86
  L 12.02 24.82
  A 0.48 0.48 0.0 0 0 11.55 24.25
  L 9.23 24.25
  A 0.48 0.48 0.0 0 1 8.75 23.77
  L 8.75 19.98
  A 0.48 0.48 0.0 0 1 9.23 19.50
  L 12.79 19.50
  A 0.48 0.48 0.0 0 0 13.26 19.13
  L 14.46 14.12
  A 0.48 0.48 0.0 0 1 14.93 13.75
  L 18.95 13.75
  A 0.48 0.48 0.0 0 1 19.42 14.34
  L 18.36 18.91
  A 0.48 0.48 0.0 0 0 18.83 19.50
  L 22.10 19.50
  A 0.48 0.48 0.0 0 0 22.57 19.12
  L 23.64 14.13
  A 0.48 0.48 0.0 0 1 24.11 13.75
  L 28.14 13.75
  A 0.48 0.48 0.0 0 1 28.61 14.33
  L 27.57 18.99
  A 0.48 0.48 0.0 0 0 28.06 19.58
  L 30.25 19.47
  A 0.48 0.48 0.0 0 1 30.75 19.95
  L 30.75 23.77
  A 0.48 0.48 0.0 0 1 30.27 24.25
  L 26.77 24.25
  A 0.48 0.48 0.0 0 0 26.31 24.62
  L 24.95 30.66
  A 0.48 0.48 0.0 0 0 25.42 31.25
  L 27.45 31.25
  A 0.48 0.48 0.0 0 1 27.93 31.71
  L 28.12 35.50
  A 0.48 0.48 0.0 0 1 27.65 36.00
  L 24.11 36.00
  A 0.48 0.48 0.0 0 0 23.64 36.39
  L 22.80 40.61
  A 0.48 0.48 0.0 0 1 22.33 41.00
  L 18.34 41.00
  A 0.48 0.48 0.0 0 1 17.87 40.41
  L 18.76 36.59
  A 0.48 0.48 0.0 0 0 18.29 36.00
  L 14.89 36.00
  A 0.48 0.48 0.0 0 0 14.42 36.38
  L 13.50 40.62
  A 0.48 0.48 0.0 0 1 13.03 41.00
  L 9.17 41.00
  A 0.48 0.48 0.0 0 1 8.69 40.43
  L 9.47 36.57
  A 0.48 0.48 0.0 0 0 8.99 36.00
  L 6.48 36.00
  A 0.48 0.48 0.0 0 1 6.00 35.52
  L 6.00 31.73
  A 0.48 0.48 0.0 0 1 6.48 31.25
  L 10.34 31.25
  A 0.48 0.48 0.0 0 0 10.81 30.86
  Z
  M 19.63 31.25
  A 0.30 0.30 0.0 0 0 19.92 31.02
  L 21.41 24.67
  A 0.30 0.30 0.0 0 0 21.12 24.30
  L 17.44 24.22
  A 0.30 0.30 0.0 0 0 17.14 24.45
  L 15.62 30.88
  A 0.30 0.30 0.0 0 0 15.91 31.25
  L 19.63 31.25
  Z"
/>
<path fill="#f05a22" d="
  M 47.44 31.89
  C 44.42 31.13 40.44 31.26 38.08 29.66
  C 32.17 25.64 35.08 18.59 41.51 17.47
  Q 47.87 16.35 53.28 19.63
  Q 53.76 19.92 53.41 20.36
  L 50.94 23.52
  A 0.63 0.62 32.6 0 1 50.15 23.69
  C 48.24 22.66 40.20 19.29 40.64 24.46
  C 40.99 28.57 54.29 24.37 54.67 33.29
  Q 54.94 39.63 48.51 41.42
  Q 40.75 43.58 34.52 38.04
  A 0.63 0.63 0.0 0 1 34.43 37.20
  L 36.51 34.26
  Q 36.87 33.75 37.39 34.12
  C 39.69 35.78 48.09 38.89 48.95 34.25
  A 2.05 2.05 0.0 0 0 47.44 31.89
  Z"
/>
<path fill="#f05a22" d="
  M 94.47 20.28
  L 94.18 18.47
  Q 94.06 17.75 94.79 17.75
  L 98.75 17.75
  Q 99.50 17.75 99.50 18.50
  L 99.50 40.20
  A 0.70 0.70 0.0 0 1 98.79 40.90
  L 94.91 40.86
  A 0.69 0.68 -88.0 0 1 94.24 40.13
  L 94.33 38.63
  A 0.41 0.41 0.0 0 0 93.62 38.32
  Q 90.65 41.47 86.64 41.77
  C 71.39 42.90 70.40 17.70 85.39 17.34
  Q 89.71 17.24 94.24 20.42
  A 0.15 0.14 13.3 0 0 94.47 20.28
  Z
  M 86.9385 36.3697
  A 7.05 6.56 90.5 0 0 93.5598 29.3772
  A 7.05 6.56 90.5 0 0 87.0615 22.2703
  A 7.05 6.56 90.5 0 0 80.4402 29.2628
  A 7.05 6.56 90.5 0 0 86.9385 36.3697
  Z"
/>
<path fill="#f05a22" d="
  M 109.67 20.17
  Q 114.98 14.87 121.54 18.97
  Q 121.99 19.25 121.76 19.72
  L 119.77 23.81
  Q 119.52 24.31 119.05 24.01
  C 107.29 16.46 109.51 35.83 109.48 40.48
  Q 109.48 41.00 108.96 41.00
  L 104.75 41.00
  Q 104.00 41.00 104.00 40.25
  L 104.00 18.50
  Q 104.00 17.74 104.75 17.74
  L 108.60 17.76
  A 0.66 0.65 0.4 0 1 109.25 18.41
  L 109.25 19.99
  Q 109.25 20.59 109.67 20.17
  Z"
/>
<path fill="#f05a22" d="
  M 177.13 20.23
  Q 186.83 13.63 193.25 21.12
  C 202.70 32.15 189.07 48.75 177.28 38.54
  Q 176.75 38.08 176.75 38.79
  L 176.75 50.00
  Q 176.75 50.50 176.25 50.50
  L 171.80 50.50
  Q 171.36 50.50 171.36 50.05
  L 171.39 18.55
  A 0.56 0.55 0.0 0 1 171.95 18.00
  L 176.22 18.00
  A 0.77 0.77 0.0 0 1 176.96 18.96
  L 176.71 19.93
  Q 176.53 20.64 177.13 20.23
  Z
  M 190.90 29.43
  A 6.74 6.74 0.0 0 0 184.16 22.69
  A 6.74 6.74 0.0 0 0 177.42 29.43
  A 6.74 6.74 0.0 0 0 184.16 36.17
  A 6.74 6.74 0.0 0 0 190.90 29.43
  Z"
/>
<path fill="#f05a22" d="
  M 224.62 24.81
  C 222.49 21.62 217.76 21.84 215.67 24.67
  C 213.27 27.92 214.24 36.05 214.25 40.20
  Q 214.25 40.76 213.70 40.76
  L 209.40 40.74
  Q 208.75 40.74 208.75 40.09
  L 208.75 18.25
  Q 208.75 17.75 209.25 17.75
  L 213.25 17.75
  Q 213.75 17.75 213.75 18.25
  L 213.75 20.49
  A 0.35 0.35 0.0 0 0 214.38 20.71
  C 218.64 15.35 226.53 16.65 229.98 22.05
  C 232.34 25.74 231.25 35.65 231.26 40.17
  Q 231.26 40.75 230.68 40.75
  L 226.45 40.75
  Q 225.76 40.75 225.76 40.06
  C 225.74 36.22 226.66 27.86 224.62 24.81
  Z"
/>
<path fill="#f05a22" d="
  M 292.67 38.70
  A 0.45 0.45 0.0 0 0 291.91 38.31
  C 287.16 42.92 280.54 43.04 276.04 38.26
  C 266.19 27.78 279.46 9.84 291.89 20.29
  Q 292.50 20.80 292.50 20.00
  L 292.50 18.36
  A 0.59 0.58 -90.0 0 1 293.08 17.77
  L 297.17 17.78
  Q 297.75 17.78 297.75 18.36
  L 297.75 40.33
  Q 297.75 40.90 297.17 40.88
  L 293.03 40.70
  Q 292.38 40.68 292.48 40.03
  L 292.67 38.70
  Z
  M 285.2391 36.3498
  A 7.03 6.58 89.6 0 0 291.7698 29.2741
  A 7.03 6.58 89.6 0 0 285.1409 22.2902
  A 7.03 6.58 89.6 0 0 278.6102 29.3659
  A 7.03 6.58 89.6 0 0 285.2391 36.3498
  Z"
/>
<rect fill="#f05a22" x="199.50" y="17.75" width="5.76" height="23.00" rx="0.60"/>
<rect fill="#2f3291" x="264.22" y="17.76" width="5.78" height="23.08" rx="0.48"/>
<path fill="#f05a22" d="
  M 162.11 37.98
  C 161.81 38.76 161.17 39.74 160.35 40.07
  Q 151.05 43.78 146.63 36.08
  C 144.46 32.30 145.52 23.09 145.46 18.58
  Q 145.45 18.00 146.03 18.00
  L 150.24 18.00
  Q 150.87 18.00 150.85 18.63
  C 150.68 23.29 149.66 31.94 153.31 34.86
  C 158.00 38.59 162.42 34.08 162.46 29.15
  Q 162.52 23.84 162.50 18.51
  Q 162.50 18.00 163.01 18.00
  L 167.50 18.00
  Q 168.00 18.00 168.00 18.50
  L 168.00 40.26
  Q 168.00 40.78 167.49 40.77
  L 163.30 40.71
  A 0.53 0.52 -86.0 0 1 162.79 40.12
  L 163.02 38.21
  A 0.47 0.47 0.0 0 0 162.11 37.98
  Z"
/>
<path fill="#1fb04c" d="
  M 243.00 65.70
  L 243.00 45.05
  A 0.55 0.55 0.0 0 1 243.55 44.50
  L 269.45 44.50
  A 0.55 0.55 0.0 0 1 270.00 45.05
  L 270.00 49.45
  A 0.55 0.55 0.0 0 1 269.45 50.00
  L 249.05 50.00
  A 0.55 0.55 0.0 0 0 248.50 50.55
  L 248.50 71.45
  A 0.55 0.55 0.0 0 1 247.95 72.00
  L 221.30 72.00
  A 0.55 0.55 0.0 0 1 220.75 71.45
  L 220.75 66.80
  A 0.55 0.55 0.0 0 1 221.30 66.25
  L 242.45 66.25
  A 0.55 0.55 0.0 0 0 243.00 65.70
  Z"
/>
</svg>
