<svg xmlns="http://www.w3.org/2000/svg" viewBox="0 0 256 296"><g stroke-width="2" fill="none"><path stroke="#3c312d" vector-effect="non-scaling-stroke" d="m65.09 14.38 1.7 2.19q.48.62.6-.16c.68-4.73-.76-10.84-1.41-15.69"/><path stroke="#312623" vector-effect="non-scaling-stroke" d="M77.75 12.91q-1.24 1.05-2.65 1.41a1.35 1.35 0 0 0-.3 2.5c3.1 1.63 3.98 6.95 7.66 6.14a.92.91 88.8 0 1 1.1 1.06c-.74 4.05 1.15 5.98 2.11 9.63a.92.92 0 0 0 1.5.46c2.75-2.38 2.41-6.19 2.29-9.5-.09-2.61-1.41-4.04-3.04-5.92a1.07 1.07 0 0 1 1.34-1.63q3.9 2.23 9.24.41"/><path stroke="#55504f" vector-effect="non-scaling-stroke" d="M109.51 47.06q-4.43.38-8.54 1.98a.22.22 0 0 0 .1.42l5.99-.68"/><path stroke="#32231f" vector-effect="non-scaling-stroke" d="M107.06 48.78q1.19 3.34-1.01 4.22-2.56 1.01-6.4 4.02a1.31 1.3 28.6 0 1-.93.27q-2.2-.21-2.51-2.38-.09-.61.32-1.08.5-.56.04-1.48a.96.96 0 0 0-1.37-.39q-1.93 1.2-3.26-.92-.27-.43.08-.81c3.17-3.42 10.18-7.77 14.85-4.77q.61.4.53-.33c-1.62-13.94-17.67-5.85-23.64-1.59q-.94.68-3.02.43c-2.52-.3-3.92.13-6 1.18"/><path stroke="#4c3732" vector-effect="non-scaling-stroke" d="m74.74 45.15-4.95 3.56"/><path stroke="#5f463f" vector-effect="non-scaling-stroke" d="M69.79 48.71q-8.1 4.91-8.67 14.37"/><path stroke="#625f5f" vector-effect="non-scaling-stroke" d="m61.12 63.08-7.36-1.41"/><path stroke="#312623" vector-effect="non-scaling-stroke" d="M53.76 61.67q3.19-.89 2.99-1.91-.7-3.6 2.04-5.49.42-.29.55-.79 1.23-4.54 5.97-4.02a1.02 1.01 23.8 0 0 .88-.34l3.49-4.07a1.33 1.3 16 0 1 .81-.44q3.76-.55 5.76-3.83a2.28 2.28 0 0 0 .05-2.29c-2.1-3.82-3.99-7.97-3.07-12.42a1.52 1.5-53.8 0 0-.15-1.02q-1.5-2.78-4.04-4.57-.44-.31-.65-.82-.39-.93-1.17-1.64-.3-.27-.7-.17c-4.76 1.19-5.87 5.5-10.56 7.34"/><path stroke="#3c312d" vector-effect="non-scaling-stroke" d="m55.96 25.19 2.59-2.85a.48.48 0 0 0-.1-.73c-.96-.59-2.83 1.5-3.41 2.18"/><path stroke="#312623" vector-effect="non-scaling-stroke" d="M55.04 23.79q-.18-.01-.35-.03-.35-.04-.41-.4-.05-.33-.17-.51"/><path stroke="#3c312d" vector-effect="non-scaling-stroke" d="m54.11 22.85 1.54-1.4q.38-.34.04-.73L40.22 2.94M49.93 7.6c1.34-.72 2.21-.39 2.9.96q2.72 5.31 6.51 9.95.28.34.7.2l1.77-.61a.4.4 0 0 0 .15-.66c-4.02-4.09-6.81-8.7-10.18-13.25q-1.32-1.78-2.4-4.03"/><path stroke="#5d4640" vector-effect="non-scaling-stroke" d="m77.83 57.08-4.37 2.06a.75.75 0 0 0-.44.71q.03 1.12-.43 1.9"/><path stroke="#a79692" vector-effect="non-scaling-stroke" d="M72.59 61.75q.03-.65-1.18-.52"/><path stroke="#8b665b" vector-effect="non-scaling-stroke" d="M71.41 61.23c-2.56-4.73 7.25-12.41-1.62-12.52"/><path stroke="#625f5f" vector-effect="non-scaling-stroke" d="M60.5 64.55q-.67-.17-1.52.27"/><path stroke="#4d403b" vector-effect="non-scaling-stroke" d="M54.11 22.85q-6.7-9.14-15.18-17.46"/><path stroke="#685c58" vector-effect="non-scaling-stroke" d="m107.06 48.78 1.84.24q.48.06.64.51 1.42 3.82 4.75 6.23a1.11 1.09-73.1 0 1 .46.88q.11 3.89 2.54 6.45"/><path stroke="#4f3d37" vector-effect="non-scaling-stroke" d="M117.29 63.09q-2.23.49-3.56 2.36"/><path stroke="#32231f" vector-effect="non-scaling-stroke" d="M113.73 65.45q-.19.02-.43-.23"/><path stroke="#877d7a" vector-effect="non-scaling-stroke" d="M113.3 65.22q.21-1.58 1.15-2.81.34-.44-.13-.73l-2.3-1.41q-.62-.38-.54.34.13 1.33-.2 1.62"/><path stroke="#32231f" vector-effect="non-scaling-stroke" d="M111.28 62.23q-1.18.55-2.21 1.9-.41.54-.72-.06l-2.88-5.56q-.27-.53-.87-.62c-6.49-1-5.73 6.04-3.09 9.33a.71.71 0 0 1-.83 1.1l-3.4-1.46a1.11 1.11 0 0 0-1.27 1.76l3.8 4.29"/><path stroke="#9d928f" vector-effect="non-scaling-stroke" d="m99.81 72.91-9.8 2.91"/><path stroke="#32231f" vector-effect="non-scaling-stroke" d="m90.01 75.82.43-.68a.39.39 0 0 0-.43-.59l-2.35.67a.68.67-78.7 0 1-.71-1.07q.59-.75 1.49-.99.64-.18.19-.67-.32-.35-.82-.24a.63.63 0 0 1-.77-.62c.1-4.78-3.11-8.12-8.14-5.85"/><path stroke="#5f423b" vector-effect="non-scaling-stroke" d="M78.9 65.78c.65-2.53-3.94-1.75-5.69-2.43"/><path stroke="#44322d" vector-effect="non-scaling-stroke" d="m73.21 63.35 6.67-1.34a2.31 2.25-43.1 0 1 .99.02q3.12.7 5.08-1.91.32-.43.03-.89c-.77-1.16-3.6-1.83-3.38-3.11q.1-.56-.44-.39l-4.33 1.35"/><path stroke="#5f423b" vector-effect="non-scaling-stroke" d="M77.83 57.08c.32-4.48 11.79-9.98.29-12.03a1.52 1.51-52.6 0 0-.94.13q-1.06.54-2.44-.03"/><path stroke="#4d403b" vector-effect="non-scaling-stroke" d="M55.04 23.79q-1.11.95-1.51 2.02-.25.65.38.35l2.05-.97"/><path stroke="#736e6d" vector-effect="non-scaling-stroke" d="M53.76 61.67q.34.16.69.32"/><path stroke="#4d403b" vector-effect="non-scaling-stroke" d="M54.45 61.99q-1.33-.12-1.44.9a.8.8 0 0 1-1.56.16q-.62-1.97-1.7-1.8M45.96 53.01q.88.17 1.59-.96a1.11 1.1-35.4 0 0 .15-.86c-.29-1.33-1.65-3.43.53-4.06q.53-.16.76.35c2.88 6.54 9.59 2.54 7.95-1.69-.69-1.78-5.04-4.3-6.68-5.92q-.45-.45.13-.71c3.98-1.8 8.49 4.44 9.66 7.46a1.05 1.03-89.5 0 0 .56.58c6.42 2.62 5.52-4.62 9.19-7.03q.45-.3.45-.84v-1.9q0-.77.76-.66 1.6.24 1.88-2.07.06-.53.01-1.06-.19-1.92-1.26-3.53a1.9 1.86-6.4 0 0-.88-.69q-2.13-.82-3.45-2.64-.28-.39-.75-.52l-4.22-1.18a1.46 1.42-42.6 0 0-.71-.02q-1.47.34-2.37 1.63a.83.82-52 0 0 .13 1.08l1.46 1.3a.81.8 51.2 0 1-.14 1.3c-3.27 1.84-5.03-2.79-7.99-3.47q-.49-.12-.87-.45-1.24-1.09-2.82-1.45c-7.1-1.63-14.31-4.92-21.2-7.46"/><path stroke="#675f5d" vector-effect="non-scaling-stroke" d="M115.9 45.68q-.09 1.62.54 2.54"/><path stroke="#726a67" vector-effect="non-scaling-stroke" d="M116.44 48.22q-1.42.76-1.09 1.73 1.25 3.59 2.22 7.26.11.45.07.92-.13 1.24.93 1.95.35.23.34.64 0 1.87-1.62 2.37"/><path stroke="#baa59f" vector-effect="non-scaling-stroke" d="M71.41 61.23c-2.9.04-10.34 1.03-8.23 5.26"/><path stroke="#a18e88" vector-effect="non-scaling-stroke" d="m63.18 66.49 1.11 7.43"/><path stroke="#c0aca6" vector-effect="non-scaling-stroke" d="M64.29 73.92q-1.23-2.36-2.69-3.27"/><path stroke="#7b6057" vector-effect="non-scaling-stroke" d="M61.6 70.65q.98-.93-.5-3.67"/><path stroke="#5f463f" vector-effect="non-scaling-stroke" d="M61.1 66.98q.63-2.22-.6-2.43"/><path stroke="#a18e88" vector-effect="non-scaling-stroke" d="M60.5 64.55q.9.09 1.37-.28.45-.34.17-.83-.3-.52-.92-.36"/><path stroke="#a79692" vector-effect="non-scaling-stroke" d="m71.88 62.16-2.67 3.49a1.33 1.28-74.7 0 1-.82.49l-3.99.69"/><path stroke="#bdbebf" vector-effect="non-scaling-stroke" d="m64.4 66.83-1.22-.34"/><path stroke="#5d4640" vector-effect="non-scaling-stroke" d="M73.21 63.35q-.78-.17-1.33-1.19"/><path stroke="#8c8583" vector-effect="non-scaling-stroke" d="M71.88 62.16q.17.32.71-.41"/><path stroke="#7e7977" vector-effect="non-scaling-stroke" d="M54.45 61.99c-2.6 1.04 1.55 1.89 2.31 1.75a.95.95 0 0 1 .88.29q.61.69 1.34.79"/><path stroke="#3c312d" vector-effect="non-scaling-stroke" d="M58.98 64.82q.65 1.7 2.12 2.16"/><path stroke="#9d9794" vector-effect="non-scaling-stroke" d="M61.6 70.65q-3.66-1.9-3.37-.18"/><path stroke="#7b6057" vector-effect="non-scaling-stroke" d="M58.23 70.47q-1.87-.76-3.88-3.35"/><path stroke="#9d9794" vector-effect="non-scaling-stroke" d="M54.35 67.12 52 65.43"/><path stroke="#4c3732" vector-effect="non-scaling-stroke" d="M78.9 65.78c-4.19 3.02-1.99 6.85 1.22 9.45a.51.5-44.3 0 1-.01.79q-1.12.87-.65 1.67"/><path stroke="#a79692" vector-effect="non-scaling-stroke" d="m79.46 77.69-2.93.42"/><path stroke="#8e7f7b" vector-effect="non-scaling-stroke" d="M76.53 78.11q-1.14-.04-2.12-1"/><path stroke="#b7a6a2" vector-effect="non-scaling-stroke" d="M74.41 77.11q-3.74-.06-7.07-4.86"/><path stroke="#8e7f7b" vector-effect="non-scaling-stroke" d="m67.34 72.25-2.94-5.42"/><path stroke="#8a8685" vector-effect="non-scaling-stroke" d="m90.01 75.82-3.52.67"/><path stroke="#7a7675" vector-effect="non-scaling-stroke" d="M86.49 76.49q-3.42-.15-7.03 1.2"/><path stroke="#ececec" vector-effect="non-scaling-stroke" d="M102.38 76.62q2.5 11.49-5.85 18.17a1.33 1.29 77.7 0 0-.47.76c-.48 2.31-6.11 5.68-8.19 7.07a.62.62 0 0 0 .34 1.13h2.65a.42.41-74.3 0 1 .35.63q-.26.43-1.24.58"/><path stroke="#b7a6a2" vector-effect="non-scaling-stroke" d="m89.76 105.41-8.23.09"/><path stroke="#cab5af" vector-effect="non-scaling-stroke" d="m81.53 105.5-4.03-1.12"/><path stroke="#e5e5e5" vector-effect="non-scaling-stroke" d="M71.02 79.41c.42 5.02 12.71-1.32 15.47-2.92"/><path stroke="#3c312d" vector-effect="non-scaling-stroke" d="m114.33 65.87-.6-.42"/><path stroke="#747170" vector-effect="non-scaling-stroke" d="M111.28 62.23q-.44 3.3 2.02 2.99M113.62 66.44q-5.17 1.03-7.04 4"/><path stroke="#8a8685" vector-effect="non-scaling-stroke" d="m106.58 70.44-6.77 2.47"/><path stroke="#3c312d" vector-effect="non-scaling-stroke" d="m45.11 44.01-.51-2.39a.5.5 0 0 0-.79-.3c-2.88 2.14-5.27 6.87-6.99 10.08"/><path stroke="#4d403b" vector-effect="non-scaling-stroke" d="M50.85 31.27q.31-1.21-.11-2.41-.17-.47-.67-.44c-1.15.08-1.96-.96-2.76-1.32q-9.36-4.18-20.25-7.39M121.04 61.37l-4.6-13.15"/><path stroke="#cdcecf" vector-effect="non-scaling-stroke" d="m67.34 72.25 2.46 5.85q.19.47.69.4l3.71-.52a.37.37 0 0 0 .32-.42q-.02-.18-.11-.45"/><path stroke="#bdbebf" vector-effect="non-scaling-stroke" d="m76.53 78.11-5.51 1.3"/><path stroke="#cdcecf" vector-effect="non-scaling-stroke" d="M71.02 79.41q-1.48.04-2.04.45"/><path stroke="#a18e88" vector-effect="non-scaling-stroke" d="M68.98 79.86q-2.21-.72-3.55-2.68"/><path stroke="#c3c5c6" vector-effect="non-scaling-stroke" d="M65.43 77.18q.3-1.32-1.14-3.26"/><path stroke="#c0aca6" vector-effect="non-scaling-stroke" d="M54.35 67.12c-.52 1.16-2.87-.77-4.72.2M58.23 70.47l7.2 6.71"/><path stroke="#cab5af" vector-effect="non-scaling-stroke" d="M68.98 79.86q4.65 8.1 5.78 16.99M60.51 83.31q-.43.46-1.69.24"/><path stroke="#877d7a" vector-effect="non-scaling-stroke" d="M108.1 100.8q-7.22 3.85-16.1 4.41"/><path stroke="#a1918d" vector-effect="non-scaling-stroke" d="m92 105.21-2.24.2"/><path stroke="#dfe0e0" vector-effect="non-scaling-stroke" d="M89.76 105.41q-.48-.46.21-.45"/><path stroke="#d6d7d7" vector-effect="non-scaling-stroke" d="M89.97 104.96c1.04-.02 5.9-.4 4-2.15q-.45-.41-.09-.9c3.07-4.22 7.64-8.67 9.2-13.44q1.64-5.06 1.65-10.86.01-1.47-1.43-1.17l-.92.18"/><path stroke="#dfe0e0" vector-effect="non-scaling-stroke" d="m102.38 76.62-7.63 2.01q-.53.14-.71-.38-.28-.81.74-1.74.35-.31.8-.41 6.43-1.43 11-5.66"/><path stroke="#758177" vector-effect="non-scaling-stroke" d="M101.32 139.13q-1.12.09-2.31 1.22"/><path stroke="#5d4640" vector-effect="non-scaling-stroke" d="M99.01 140.35c-.01-1.16-1.21-.8-1.97-1.13q-3.61-1.53-5.67-3.62"/><path stroke="#8b665b" vector-effect="non-scaling-stroke" d="M81.53 105.5q4.91 9.62 7.55 11.94 2.26 2 3.15 5.29 2.03 7.53-.86 12.87"/><path stroke="#70554d" vector-effect="non-scaling-stroke" d="M91.37 135.6c-4.7-3.28-15.15-12.83-12.86-19.02q.15-.4.01-.8-.08-.24-.04-.54"/><path stroke="#cab5af" vector-effect="non-scaling-stroke" d="m78.48 115.24.49-1.32"/><path stroke="#32231f" vector-effect="non-scaling-stroke" d="m111.27 105.86-2.71 2.59q-.37.35-.57.82-1.3 2.96-4.07 4.49a.83.83 0 0 0-.44.78l.86 21"/><path stroke="#5c6d64" vector-effect="non-scaling-stroke" d="M104.34 135.54q-2.22 1.78-3.02 3.59"/><path stroke="#5f423b" vector-effect="non-scaling-stroke" d="M101.32 139.13q5.4-19.26-7.53-31.41-.9-.84-2.66-.92-.64-.03-.36-.61.29-.58 1.23-.98"/><path stroke="#5a7068" vector-effect="non-scaling-stroke" d="M99.01 140.35q-2.61.59-4.78-1.1c-7.13-5.56-16.5-13.25-17.1-23.48"/><path stroke="#b4d0ca" vector-effect="non-scaling-stroke" d="M119.28 120.08c-2.34 3.97-5.32 7.88-6.27 12.28q-1.68 7.74-.22 15.71"/><path stroke="#5d9596" vector-effect="non-scaling-stroke" d="M112.79 148.07q1.27.91-1.01 2.63-.41.31-.6-.17l-2.53-6.28a.68.68 0 0 0-1.29.42c.72 2.89 2.01 5.1 1.67 8.25q-.33 3.03-.61 6.08"/><path stroke="#78acab" vector-effect="non-scaling-stroke" d="M108.42 159q-2.87 1.76-4.58 4.78-.27.46-.73.73-2.69 1.56-4.86 3.79-.11.12-.16-.03-.05-.14-.1-.29-.13-.37.18-.6 2.14-1.6 1.75-2.91"/><path stroke="#81b5b4" vector-effect="non-scaling-stroke" d="M99.92 164.47q5.82-5.42 6.94-9.15.63-2.12-.32-7.73a1.72 1.65-72.9 0 0-.45-.89q-.85-.91-.53-2.3a1.05 1.05 0 0 0-1.93-.77c-1.5 2.54-.57 5.25-.43 7.96.41 8.05-10.25 15.52-17 18.01"/><path stroke="#427879" vector-effect="non-scaling-stroke" d="M86.2 169.6q2.16-3.66 5.82-6.34c1.64-1.2 6.65-5.51 5.27-7.44q-.33-.45-.59.04-1.15 2.17-3.6 2.22-.58.01-.99.41l-4.8 4.71q-.31.29-.39.71-.1.54-.58.61-.5.07-.81.47l-2.81 3.65"/><path stroke="#81b5b4" vector-effect="non-scaling-stroke" d="M82.72 168.64q-1.49-1.68 1.1-4.57.31-.34.75-.49 1.17-.37 1.54-1.5a1.62 1.59-8.4 0 1 .63-.83l8.58-5.68q.45-.29-.05-.49c-2.61-1.08-5.66 1.6-8.27 2q-.47.07-.53-.4-.21-1.84-.54-3.66a.21.19 41.4 0 0-.4 0c.08 1.21 1.21 4.1-.38 4.78"/><path stroke="#3d7065" vector-effect="non-scaling-stroke" d="M85.15 157.8c-1.99-10.3-2.55-18.97-7.79-25.17-3.13-3.7-4.19-7.18-5.73-11.57"/><path stroke="#9c9593" vector-effect="non-scaling-stroke" d="M78.48 115.24q-.93.02-1.35.53"/><path stroke="#b4d0ca" vector-effect="non-scaling-stroke" d="M77.13 115.77q-6.6.41-5.5 5.29"/><path stroke="#7e9590" vector-effect="non-scaling-stroke" d="M71.63 121.06c-.55 7.12 3.07 10.39 7.1 15.63"/><path stroke="#dfe0e0" vector-effect="non-scaling-stroke" d="M78.73 136.69q-.2.82-.56 1.26-.27.32-.14.72 3.38 10.21 3.92 21.59"/><path stroke="#c2dadf" vector-effect="non-scaling-stroke" d="M81.95 160.26q-5.36 4.61-8.31 11.3c-1.85 4.2-6.2 7.64-9.12 11.23a1.26 1.25-73.7 0 1-.82.45l-.63.07"/><path stroke="#abc2c7" vector-effect="non-scaling-stroke" d="M63.07 183.31q-3.11-1.16-5.61-.02a1.1 1.05-7.1 0 0-.61.75q-.49 2.18.49 4.56"/><path stroke="#849da4" vector-effect="non-scaling-stroke" d="M57.34 188.6q2.69 7.25 6.35 13.27"/><path stroke="#ececec" vector-effect="non-scaling-stroke" d="M63.69 201.87q-.53 3.26-1.07 6.11c-.89 4.6-3.83 9.31-6.93 12.21-4.64 4.36-8.98 9.05-13.71 13.29q-8.27 7.41-15.78 15.59-.27.28-.39.65c-.41 1.17-11.1.84-12.83.89"/><path stroke="#d0d0d0" stroke-opacity=".588" vector-effect="non-scaling-stroke" d="M12.98 250.61q-3.81-.49-6.68-2.84"/><path stroke="#3c312d" vector-effect="non-scaling-stroke" d="M113.71 108.79c-.18 1.37 4.94 1.07 6.1 1.15"/><path stroke="#6a6765" vector-effect="non-scaling-stroke" d="M119.81 109.94q1.73 1.15 1.4 3.02"/><path stroke="#28423b" vector-effect="non-scaling-stroke" d="m121.21 112.96-.25.36q-.36.54-.75.02-1.64-2.17-4.18-1.74-.63.11-.51.73c.61 3.27-1.79 6.31-2.71 8.56"/><path stroke="#49615a" vector-effect="non-scaling-stroke" d="M112.81 120.89q-3.59 7.69-8.47 14.65"/><path stroke="#83a19b" vector-effect="non-scaling-stroke" d="m121.35 113.68-.94 3.81"/><path stroke="#93b1ab" vector-effect="non-scaling-stroke" d="m120.41 117.49-1.13 2.59"/><path stroke="#528c80" vector-effect="non-scaling-stroke" d="M119.28 120.08q-2.8-.82-6.47.81"/><path stroke="#2d6270" vector-effect="non-scaling-stroke" d="M117.97 153.78q.01 3.42-.42 6.78c-.58 4.45-3.32 8.41-5.31 12.56a.51.51 0 0 0 .86.54q5.9-7.45 5.86-17.32-.01-1.6.36-2.29M121.99 165.56c-.3 6.72-5.66 10.49-8.77 15.84"/><path stroke="#3c7677" vector-effect="non-scaling-stroke" d="M113.22 181.4q-.79.93-1.09 2.36a.46.46 0 0 0 .68.49l2.5-1.43q.86-.49.24.29-1.85 2.3-3.72 3.48-11.2 7.08-25.81 14.2"/><path stroke="#88a5ac" vector-effect="non-scaling-stroke" d="m86.02 200.79-9.96 3.27a.6.59 72.7 0 0-.38.73c.66 2.23 1.87 8.59-1.36 9.46"/><path stroke="#2d6270" vector-effect="non-scaling-stroke" d="M74.32 214.25c.19-1.94 2.02-3.22.84-4.91q-.28-.4-.33-.88l-.26-2.69a.45.45 0 0 0-.78-.27l-3.8 4.06q-.32.35-.54-.07l-4.98-9.73"/><path stroke="#548693" vector-effect="non-scaling-stroke" d="M64.47 199.76q.82-.05 1.81.35"/><path stroke="#6296a2" vector-effect="non-scaling-stroke" d="M66.28 200.11q1.02 1.88 4.24 1.75c4.98-.2 8.49-1.74 11.57-5.96 3.8-5.18 8.36-9.28 12.29-14.18 1.26-1.58 3.49-3.05 4.34-3.96q4.08-4.4 4.5-10.72a2.32 2.32 0 0 1 1.04-1.8q3.5-2.33 4.16-6.24"/><path stroke="#ececec" vector-effect="non-scaling-stroke" d="M133.26 130.41q-1.79-.27-3.23.27a.36.36 0 0 0 .01.67c3.22 1.07 8.3 4.45 6.11 8.39a1.58 1.57 56.1 0 0-.18.94c.53 4.51.76 10.7-2.49 14.33q-2.66 2.97-6.06 5.1a2.14 2.13-1.3 0 0-.74.77q-.67 1.2-1.95 1.53-.45.11-.46.57-.07 1.96-1.44 2.89"/><path stroke="#849da4" vector-effect="non-scaling-stroke" d="M122.83 165.87q-.31-.39-.84-.31"/><path stroke="#9ebac1" vector-effect="non-scaling-stroke" d="M121.99 165.56c-.39-3.17.92-9.64-2.67-11.51"/><path stroke="#849da4" vector-effect="non-scaling-stroke" d="M119.32 154.05q-.84-.34-1.35-.27"/><path stroke="#9ebac1" vector-effect="non-scaling-stroke" d="M117.97 153.78c-1.23-.06-1.1-8.52-5.18-5.71"/><path stroke="#4b7a7a" vector-effect="non-scaling-stroke" d="M85.15 157.8q-.9 1.68-1.97 1.01"/><path stroke="#68807b" vector-effect="non-scaling-stroke" d="M83.18 158.81q-.8-11.52-4.45-22.12"/><path stroke="#86b6c0" vector-effect="non-scaling-stroke" d="M99.92 164.47q-9.99 10.49-13.91 14.04-7.54 6.86-12.4 13.03c-2.66 3.37-5.09 4.84-9.05 5.57"/><path stroke="#78a7b1" vector-effect="non-scaling-stroke" d="m64.56 197.11-4.33-8.51a1.9 1.89 60.5 0 1 .68-2.47q1.36-.86 2.16-2.82"/><path stroke="#51828e" vector-effect="non-scaling-stroke" d="M82.72 168.64q2.79 1.36 3.48.96"/><path stroke="#6f9ea8" vector-effect="non-scaling-stroke" d="m66.28 200.11-1.72-3"/><path stroke="#acc5ca" vector-effect="non-scaling-stroke" d="m83.18 158.81-1.23 1.45"/><path stroke="#ccc" vector-effect="non-scaling-stroke" d="m59.38 232.92-8.07 7.55"/><path stroke="#c0c0c1" stroke-opacity=".588" vector-effect="non-scaling-stroke" d="M51.31 240.47c-10.91 9.85-24.62 11.67-38.33 10.14"/><path stroke="#6e888f" vector-effect="non-scaling-stroke" d="m74.32 214.25-1.73.42"/><path stroke="#7a949b" vector-effect="non-scaling-stroke" d="M72.59 214.67q-5.02-5.1-8.9-12.8"/><path stroke="#3a6a76" vector-effect="non-scaling-stroke" d="m64.47 199.76-6.04-11.66q-.31-.6-.7-.05l-.39.55"/><path stroke="#c5c6c5" vector-effect="non-scaling-stroke" d="M146.89 118.2q-.24.92-.9 1.63-.32.35-.79.36-4.52.16-4.72 4.68a.72.72 0 0 1-1.12.56l-.76-.53a1.53 1.51-80.3 0 1-.64-.92l-1.63-6.66a.55.55 0 0 0-.52-.42q-5.7-.19-11.03-2.02c-1.11-.38-2.63-2.36-3.43-1.2"/><path stroke="#73928b" vector-effect="non-scaling-stroke" d="M121.35 113.68q-.12-.16-.14-.72"/><path stroke="#87817d" vector-effect="non-scaling-stroke" d="M119.81 109.94q-1.81-.68-1.27-1.58"/><path stroke="#e5e5e5" vector-effect="non-scaling-stroke" d="m182.45 148.69-.15 3.88"/><path stroke="#dcdcdc" vector-effect="non-scaling-stroke" d="M182.3 152.57q-4.49-3.44-6.14-8.87-.15-.51-.58-.81-1.19-.84-1.5-2.22a1.29 1.28-78.9 0 0-.5-.75q-1.66-1.21-2.48-3.15-.18-.42-.6-.6c-2.43-1.07-4.09-2.92-6.32-3.79-5.49-2.14-9.85-.3-16.04 1.89-3.63 1.28-13.79 1.39-14.88-3.86"/><path stroke="#e5e5e5" vector-effect="non-scaling-stroke" d="M133.26 130.41c2.74-2.58 1.31-5.81-1.85-7.18q-4.2-1.83-8.8-2.57-.55-.08-.81-.57l-1.39-2.6"/><path stroke="#abadad" stroke-opacity=".588" vector-effect="non-scaling-stroke" d="m80.78 246.58-5.01-.14"/><path stroke="#bfc1c0" vector-effect="non-scaling-stroke" d="m75.77 246.44-4.01-.37q-.64-.06-.19-.52l.35-.34q.37-.37.34-.89c-.43-8.53-8.13-7.45-12.88-11.4"/><path stroke="#d6d7d7" vector-effect="non-scaling-stroke" d="m59.38 232.92 15.23-15.15q.35-.34.35-.83.01-1.95-2.37-2.27"/><path stroke="#22595a" vector-effect="non-scaling-stroke" d="M123.52 167.97q-3.78 8.25-10.3 13.43"/><path stroke="#7d9c96" vector-effect="non-scaling-stroke" d="m120.6 189.98.74 3.4"/><path stroke="#909c9b" vector-effect="non-scaling-stroke" d="M121.34 193.38q-2.62.11-4.86 1.27a.68.65 77.3 0 0-.36.6l.06 8.54a1.1 1.09 18.1 0 0 .46.89q.74.54 1.67.75"/><path stroke="#578d8c" vector-effect="non-scaling-stroke" d="m118.31 205.43-.24 6.89a.39.38-85.8 0 1-.42.37q-6.34-.59-12.56.79a1.09 1.08-84.5 0 0-.76.63q-1.17 2.82-1.03 5.54"/><path stroke="#609695" vector-effect="non-scaling-stroke" d="m103.3 219.65.14 3.39"/><path stroke="#3e7c6f" vector-effect="non-scaling-stroke" d="m103.44 223.04-6.83 6.16q-.39.36-.45.88-.15 1.4-1.76 2.09c-3.76 1.63-12.29 8.07-6.11 12.36q3.06 2.13 6.03 2.12"/><path stroke="#2a5d52" stroke-opacity=".588" vector-effect="non-scaling-stroke" d="m94.03 246.81-13.25-.23"/><path stroke="#7d9c96" vector-effect="non-scaling-stroke" d="M80.78 246.58q1.58-9.93 2.94-20.02c1.18-8.79 2.73-16.72 2.3-25.77"/><path stroke="#ececec" vector-effect="non-scaling-stroke" d="m182.3 152.57-.67 9.25a.49.49 0 0 1-.94.14c-.88-2.29-1.24-4.31-2.79-6.31-2.37-3.04-4.11-6.58-6.36-9.46q-1.64-2.11-3.23-4.27-.3-.4-.78-.56c-3.49-1.14-7.67-2.77-10.05 1.12q-2.65 4.33-1.55 9.69c1.06 5.14 2.22 10.53 2.67 15.73q.94 10.6 2.76 21.52"/><path stroke="#928c8a" vector-effect="non-scaling-stroke" d="M156.94 177.96c-.09-.3-2.27-11.57-2.9-11.46"/><path stroke="#ccc" vector-effect="non-scaling-stroke" d="M154.04 166.5q.04-.47-.07-.79-.1-.29-.21-.01c-1.99 5.07-.29 7.79.62 12.31"/><path stroke="#dcdcdc" vector-effect="non-scaling-stroke" d="m154.38 178.01-.63 1.54q-.19.46.11.86c1.68 2.2-.01 4.24.07 6.37a1.52 1.52 0 0 1-2.94.6q-4.38-11.73-4.29-24.28c.01-2.09-.78-3.91-1.19-6.02a.53.53 0 0 0-1.01-.1c-1.24 2.93-2.71 8.01-6.68 8.1-2.37.05-5.78 0-6.52 2.19-2.66 7.82-13.19 8.63-9.73 18.93"/><path stroke="#d6d7d7" vector-effect="non-scaling-stroke" d="M121.57 186.2q1.26 4.66-.97 3.78"/><path stroke="#8aa8a2" vector-effect="non-scaling-stroke" d="m120.6 189.98-1.51-9.44a1.13 1.12 60.2 0 1 .24-.89q4.05-5.1 4.19-11.68"/><path stroke="#7a949b" vector-effect="non-scaling-stroke" d="M123.52 167.97q.19-1.57-.69-2.1"/><path stroke="#9a9b9a" stroke-opacity=".588" vector-effect="non-scaling-stroke" d="m75.77 246.44-24.73.02q-.63 0-.53-.61l.8-5.38"/><path stroke="#ececec" vector-effect="non-scaling-stroke" d="M205.61 133.13q-.02 2.51-.52 4.96c-2.3 11.4-.91 23.87-3.05 34.48q-1.91 9.44-5.95 18.57-2.6 5.85-7.54 9.21"/><path stroke="#e2c8d0" vector-effect="non-scaling-stroke" d="m188.55 200.35-.16-5.34"/><path stroke="#f2e0e5" vector-effect="non-scaling-stroke" d="M188.39 195.01c-2.41-.8-14.79-3-15.34.56q-.95 6.17 1.09 9.66"/><path stroke="#dfe0e0" vector-effect="non-scaling-stroke" d="M174.14 205.23q2.15 2.08-.14 5.01"/><path stroke="#cdcecf" vector-effect="non-scaling-stroke" d="M179.25 101.97q-.14 0-.28.04-.31.1-.45.4-5.31 11.85-10.56 23.72-.48 1.1.68 1.04a.64.64 0 0 0 .55-.38l9.8-21.94M180.74 107.77l-4.8 9.97"/><path stroke="#5b767e" vector-effect="non-scaling-stroke" d="M175.94 117.74q-.45.06-.77.28-.39.27-.32.74.17 1.03-.59 1.86-.33.36-.49.82-.82 2.33-2.13 4.55-.32.54.29.68c3.36.74 5.04-4.51 6.13-6.96q.23-.51-.2-.87l-.61-.52"/><path stroke="#cdcecf" vector-effect="non-scaling-stroke" d="m177.25 118.32 4.39-10.21"/><path stroke="#76939a" vector-effect="non-scaling-stroke" d="m182.76 108.24.85 2.06"/><path stroke="#bdbebf" vector-effect="non-scaling-stroke" d="M173.38 131.21c-1.09-2.28-6.09 1.15-6.41-3.82q-.03-.57-.57-.38l-1.56.58"/><path stroke="#6da5a3" vector-effect="non-scaling-stroke" d="M108.26 224.65q-3.54-.2-4.82-1.61"/><path stroke="#789993" vector-effect="non-scaling-stroke" d="M118.53 224.82q-.71 6.83.37 13.66"/><path stroke="#649c9a" vector-effect="non-scaling-stroke" d="m118.9 238.48-5.06 1.08q-.45.1-.46.56l-.04 3.51q-.01.53.52.56 1.89.14 3.53-.6"/><path stroke="#498485" vector-effect="non-scaling-stroke" d="M117.39 243.59q.11.37 1.15.67"/><path stroke="#649c9a" vector-effect="non-scaling-stroke" d="M118.54 244.26q-2.68 1.84-5.76 1.64-.59-.04-.71-.62l-.36-1.8"/><path stroke="#6da5a3" vector-effect="non-scaling-stroke" d="M111.71 243.48c.11-4.24.75-18.26-1.55-17.6q-.43.12-.44.57l-.2 11.14"/><path stroke="#649c9a" vector-effect="non-scaling-stroke" d="M109.52 237.59c-6.28-.52-7.03 4.36-6.23 9.24"/><path stroke="#ccb3bb" vector-effect="non-scaling-stroke" d="m131.56 198.76-.11-4.18"/><path stroke="#dccbd0" vector-effect="non-scaling-stroke" d="M131.45 194.58q-4.99-1.78-10.11-1.2"/><path stroke="#dfb3c0" vector-effect="non-scaling-stroke" d="M131.45 194.58q-1.72 1.52-4.41 1.75-.62.06-.65.67l-.34 8.93"/><path stroke="#9ba4b1" vector-effect="non-scaling-stroke" d="M123.38 205.66q-1.2.6-2.04.15"/><path stroke="#b6bcc6" vector-effect="non-scaling-stroke" d="m121.34 205.81-3.03-.38"/><path stroke="#6296a2" vector-effect="non-scaling-stroke" d="M121.34 205.81q-2.2 3.09-.99 6.43a.8.79-7 0 0 .67.52q2.19.26 2.76-.53"/><path stroke="#6f9ea8" vector-effect="non-scaling-stroke" d="m139.03 213.06-7.92 1.18q-.5.08-.84.46-1.1 1.23-3.28.6-3.04-.89-7.48 1.24"/><path stroke="#487985" vector-effect="non-scaling-stroke" d="M119.51 216.54q-1.17-.34-2.05-.12-.68.17-.21.69 1.29 1.44 3.46 1.08"/><path stroke="#6f9ea8" vector-effect="non-scaling-stroke" d="M120.71 218.19q4.25.78 8.1-.3c5.4-1.51 11.04-1.45 16.5-1.37"/><path stroke="#487985" vector-effect="non-scaling-stroke" d="M145.31 216.52q.75 1.88 3.65 1.61"/><path stroke="#578d8c" vector-effect="non-scaling-stroke" d="M148.96 218.13q4.85 1.25 9.98-.79"/><path stroke="#6f9ea8" vector-effect="non-scaling-stroke" d="m158.94 217.34 12.39-1.41a.94.93-79.1 0 0 .7-.48q.4-.75 1.35-.37.41.17.63.56l.3.53"/><path stroke="#487985" vector-effect="non-scaling-stroke" d="M174.31 216.17c-2.34 1.13 2.68 2.05 3.18 2.04"/><path stroke="#6f9ea8" vector-effect="non-scaling-stroke" d="M177.49 218.21c4.95 1.27 8.54-.48 12.68-.98q4.14-.5 8.37-1.47M201.35 219.47q-.07.2-.12.44a.54.54 0 0 1-.41.44l-3.61.89a.77.77 0 0 0-.59.8l.15 2.16q.02.45-.42.48l-4.31.38"/><path stroke="#487985" vector-effect="non-scaling-stroke" d="M192.04 225.06q-1.15-.58-2.34-.02"/><path stroke="#91aab0" vector-effect="non-scaling-stroke" d="m186.36 224.97-9.53.01"/><path stroke="#a3bcc1" vector-effect="non-scaling-stroke" d="M176.83 224.98h-2.09"/><path stroke="#a9c1c6" vector-effect="non-scaling-stroke" d="m164.96 225.52-.23-.33q-.25-.34-.68-.34l-6.21.13"/><path stroke="#91aab0" vector-effect="non-scaling-stroke" d="m157.84 224.98-2.42.01"/><path stroke="#a9c1c6" vector-effect="non-scaling-stroke" d="m155.42 224.99-6.8-.16q-.87-.02-.87.85l.02 11.78"/><path stroke="#6296a2" vector-effect="non-scaling-stroke" d="M147.77 237.46q-1.14.19-1.29-.04"/><path stroke="#b0c8cd" vector-effect="non-scaling-stroke" d="M146.48 237.42v-11.89q0-.53-.53-.54l-16.49-.17"/><path stroke="#91aab0" vector-effect="non-scaling-stroke" d="M129.46 224.82q-.72.61-1.19.34"/><path stroke="#b0c8cd" vector-effect="non-scaling-stroke" d="M128.27 225.16q-1.09-.7-3.27-.03"/><path stroke="#649c9a" vector-effect="non-scaling-stroke" d="M125 225.13q-2.44-.95-5-.25"/><path stroke="#91aab0" vector-effect="non-scaling-stroke" d="m120 224.88-1.47-.06"/><path stroke="#649c9a" vector-effect="non-scaling-stroke" d="m118.53 224.82-10.27-.17"/><path stroke="#86b6c0" vector-effect="non-scaling-stroke" d="m108.26 224.65.44-.54q.24-.29-.03-.56l-.22-.23q-.21-.2-.09-.46l.65-1.47q.2-.45-.29-.55l-5.42-1.19"/><path stroke="#c5c6c5" vector-effect="non-scaling-stroke" d="m154.38 178.01 1.88 15.5"/><path stroke="#e2d0d5" vector-effect="non-scaling-stroke" d="m156.26 193.51-9.73.3a2.1 2.1 0 0 0-2.03 2.1v7.7q0 .57.45.92.65.5 1.62.77"/><path stroke="#bdbebf" vector-effect="non-scaling-stroke" d="m146.57 205.3.03 7.49"/><path stroke="#9bb2b7" vector-effect="non-scaling-stroke" d="m146.6 212.79-7.57.27"/><path stroke="#a9c1c6" vector-effect="non-scaling-stroke" d="m139.03 213.06-8.88-.27q-.64-.02-.64-.65 0-2.08-.35-4.14-.03-.16-.18-.09-.11.05-.25.08-.38.07-.41.46l-.24 3.42q-.04.48-.49.65-2.64 1.02-3.81-.29"/><path stroke="#8eaab1" vector-effect="non-scaling-stroke" d="m123.78 212.23-.4-6.57"/><path stroke="#e2d0d5" vector-effect="non-scaling-stroke" d="M123.38 205.66q1.88 1.08 2.67.27"/><path stroke="#d2b8c0" vector-effect="non-scaling-stroke" d="M126.05 205.93q2.93-.03 4.89-1.32.48-.31.49-.88l.13-4.97"/><path stroke="#cfd0d0" vector-effect="non-scaling-stroke" d="M131.56 198.76q.77 1.07 1.54 1.43.51.24.8-.24c2.91-4.63 7.17-10.35 7.75-15.59.45-4.08-.19-11.77-4.69-13.36-4.18-1.47-6.6 6.19-8.02 9.04a2.3 2.28 83.9 0 1-.6.75l-6.77 5.41"/><path stroke="#7c7673" vector-effect="non-scaling-stroke" d="M154.04 166.5q-.48 6.09 2.21 11.5"/><path stroke="#d2c0c5" vector-effect="non-scaling-stroke" d="m159.84 194.24-3.58-.73"/><path stroke="#d6d7d7" vector-effect="non-scaling-stroke" d="m177.14 205.99.82 3.43"/><path stroke="#95adb2" vector-effect="non-scaling-stroke" d="M177.96 209.42q-1.4.39-1.22 2.54.04.55-.47.73-.7.25-1.52-.04"/><path stroke="#d8bfc7" vector-effect="non-scaling-stroke" d="M186.29 208.49q-.68-2.74 1.51-3.58.51-.2.54-.75l.21-3.81"/><path stroke="#b0c8cd" vector-effect="non-scaling-stroke" d="m207.28 132.85-1.67.28"/><path stroke="#b9d1d6" vector-effect="non-scaling-stroke" d="m205.61 133.13-4.27.13"/><path stroke="#86b6c0" vector-effect="non-scaling-stroke" d="M201.34 133.26q3.32-9.25 1.15-18.54-.1-.44-.44-.73c-2.62-2.29.36-10.83-4.1-10.5q-.51.04-.7.51-.38.92-1.01 1.49"/><path stroke="#6296a2" vector-effect="non-scaling-stroke" d="M194.06 104.72q-.62-1.14-2.33-.94-5.84.69-8.97 4.46"/><path stroke="#91aab0" vector-effect="non-scaling-stroke" d="M182.76 108.24q.06-.21-1.12-.13"/><path stroke="#b9d1d6" vector-effect="non-scaling-stroke" d="M181.64 108.11q-.25-.52-.9-.34"/><path stroke="#91aab0" vector-effect="non-scaling-stroke" d="M180.74 107.77q-.48-2.18-1.75-2.92"/><path stroke="#b9d1d6" vector-effect="non-scaling-stroke" d="m178.99 104.85 1.11-2.55"/><path stroke="#6f9ea8" vector-effect="non-scaling-stroke" d="M180.1 102.3q1.34.75 2.54-.71.32-.39.81-.51 2.56-.58 4.77-2.06a.31.31 0 0 0-.19-.57q-4.84.26-8.77 3.47"/><path stroke="#91aab0" vector-effect="non-scaling-stroke" d="M179.26 101.92q-1.01-1.47-2.18-1.66"/><path stroke="#c2dadf" vector-effect="non-scaling-stroke" d="M201.34 133.26c-2.79.33-13.51 1.49-14.67-2.9"/><path stroke="#6b9faa" vector-effect="non-scaling-stroke" d="M189.57 115.97v-4.47q0-.76.72-.54l4.77 1.48"/><path stroke="#51828e" vector-effect="non-scaling-stroke" d="M195.06 112.44q1.62.5 2.35-1.26"/><path stroke="#dfb3c0" vector-effect="non-scaling-stroke" d="m188.39 195.01-3.63 1.33q-.46.18-.47.67l-.14 8.52q0 .14.13.19.23.09.21.37"/><path stroke="#e9d6dc" vector-effect="non-scaling-stroke" d="m184.49 206.09-7.35-.1"/><path stroke="#dccbd0" vector-effect="non-scaling-stroke" d="M177.14 205.99q-.5-.97-3-.76"/><path stroke="#9895a2" vector-effect="non-scaling-stroke" d="M186.23 212.96q-.31-.34-1.15-.25"/><path stroke="#d8bfc7" vector-effect="non-scaling-stroke" d="m185.08 212.71.36-6.28q.03-.6-.55-.45l-.4.11"/><path stroke="#abc2c7" vector-effect="non-scaling-stroke" d="M180.1 102.3q-.2-.4-.85-.33"/><path stroke="#839ba1" vector-effect="non-scaling-stroke" d="M179.25 101.97q0-.03.01-.05"/><path stroke="#849da4" vector-effect="non-scaling-stroke" d="M177.25 118.32q-1.05.03-1.31-.58"/><path stroke="#2d6270" vector-effect="non-scaling-stroke" d="M191.33 105.51q-2.48-.03-4.66 2.01a.62.62 0 0 0 .51 1.07q5.14-.69 7.88 3.85"/><path stroke="#91aab0" vector-effect="non-scaling-stroke" d="M119.71 238.35q-.43-.35-.81.13"/><path stroke="#86b6c0" vector-effect="non-scaling-stroke" d="M111.71 243.48q-.8.81-.76 1.83.01.35-.34.4l-.29.04q-.4.06-.42-.35l-.38-7.81"/><path stroke="#548693" vector-effect="non-scaling-stroke" d="M176.81 237.79q.37 1.24 0 2.79-.14.6.47.5l4.58-.71q.54-.09.75-.59.31-.71.08-1.56"/><path stroke="#2d6270" vector-effect="non-scaling-stroke" d="M176.54 244.36q.77-.74.1-2.08-.22-.43-.7-.37-1.01.12-1.92-.22"/><path stroke="#27595c" vector-effect="non-scaling-stroke" d="M149.01 244.13q-.5-2.51-3.84-1.76"/><path stroke="#6296a2" vector-effect="non-scaling-stroke" d="M117.39 243.59q-.51-.82-.38-1.54a.45.45 0 0 1 .66-.32c.97.52 7.06-1.32 8.31-1.62 1.36-.33 1.51-1.07 1.24-2.32"/><path stroke="#6f9ea8" vector-effect="non-scaling-stroke" d="M196.89 251.75q-1.05-.26-2.65.13"/><path stroke="#487985" vector-effect="non-scaling-stroke" d="m194.24 251.88-7.24-.04"/><path stroke="#91aab0" vector-effect="non-scaling-stroke" d="m186.18 251.83-11.64-.03M157.77 253.54l-.06-1.05q-.03-.53-.55-.68-.67-.18-1.38-.03"/><path stroke="#a3bcc1" vector-effect="non-scaling-stroke" d="m155.78 251.78-9.54.04M129.44 251.82q-.74.25-1.48.07"/><path stroke="#a9c1c6" vector-effect="non-scaling-stroke" d="m127.96 251.89-9.72-.13"/><path stroke="#6296a2" vector-effect="non-scaling-stroke" d="M113.75 251.68q-.85-.35-1.59-.12a.76.75-8.8 0 0-.52.7l-.13 16.22a.74.74 0 0 1-.62.72l-.68.12M118.54 244.26q4 .46 8.06.1c4.26-.38 7.78-3.29 12.4-3.37 1.67-.03 6.46-1.5 6.73-.04q.09.48-.27.81-.29.26-.29.61"/><path stroke="#427171" vector-effect="non-scaling-stroke" d="M145.17 242.37q.94 2.08 3.84 1.76"/><path stroke="#6296a2" vector-effect="non-scaling-stroke" d="M149.01 244.13c3.79-.59 5.92 1.15 9.98-.86q5.61-2.78 14.14-2.83.46 0 .78.32.47.46.11.93"/><path stroke="#487985" vector-effect="non-scaling-stroke" d="M174.02 241.69c-2.13 1.19 1.55 2.62 2.52 2.67"/><path stroke="#6296a2" vector-effect="non-scaling-stroke" d="M176.54 244.36q4.88.5 9.77-.27 1.4-.22 6.43-2.16"/><path stroke="#b7b9ba" vector-effect="non-scaling-stroke" d="M176.83 224.98q1.03 6.3.32 12.81"/><path stroke="#95adb2" vector-effect="non-scaling-stroke" d="M177.15 237.79q-.13-.08-.34 0"/><path stroke="#88a5ac" vector-effect="non-scaling-stroke" d="M176.81 237.79q-1.73-.04-2.1-1.03"/><path stroke="#95b0b8" vector-effect="non-scaling-stroke" d="M146.48 237.42c-2.41.11-15.54 1.16-16.5-.66"/><path stroke="#97b6b0" vector-effect="non-scaling-stroke" d="m125 225.13 1.46 12.6"/><path stroke="#649c9a" vector-effect="non-scaling-stroke" d="m126.46 237.73-3.68.56q-.46.07-.85.34-1.35.97-2.22-.28"/><path stroke="#789993" vector-effect="non-scaling-stroke" d="m119.71 238.35.29-13.47"/><path stroke="#8eaab1" vector-effect="non-scaling-stroke" d="m166.46 237.62-8.7-.18"/><path stroke="#bdbebf" vector-effect="non-scaling-stroke" d="m157.76 237.44.08-12.46M155.42 224.99l.21 12.59"/><path stroke="#8eaab1" vector-effect="non-scaling-stroke" d="m155.63 237.58-7.86-.12"/><path stroke="#6f9ea8" vector-effect="non-scaling-stroke" d="M200.51 244.87q-2.25 1.3-4.73 1.35-.58.01-.58-.58l.08-16.38a.72.71 70.4 0 0-1.17-.56c-.74.62-.43 5.99-1.29 8.6"/><path stroke="#3a6a76" vector-effect="non-scaling-stroke" d="m192.82 237.3-.78-12.24"/><path stroke="#a9c1c6" vector-effect="non-scaling-stroke" d="m200.47 218.09-1.93-2.33"/><path stroke="#9bb2b7" vector-effect="non-scaling-stroke" d="M198.54 215.76c-2.81-3.56-7.85-2.44-12.31-2.8"/><path stroke="#d2b8c0" vector-effect="non-scaling-stroke" d="m186.23 212.96.06-4.47"/><path stroke="#dcdcdc" vector-effect="non-scaling-stroke" d="M186.29 208.49c1.18 1.63 2.15-1.6 2.26-2.21a.96.95 85.1 0 1 .6-.72q3.57-1.39 5.67-4c2.47-3.06 6.06-5.96 7.51-9.19q3.38-7.56 5.01-15.65c2.72-13.53.44-28.21 2.99-42.35a.84.84 0 0 1 .68-.67q2.86-.46 3.58-1.91"/><path stroke="#c3c5c6" vector-effect="non-scaling-stroke" d="m128.27 225.16.03 12.05"/><path stroke="#95b0b8" vector-effect="non-scaling-stroke" d="m128.3 237.21-1.08.58"/><path stroke="#b0c8cd" vector-effect="non-scaling-stroke" d="m127.22 237.79-.76-.06"/><path stroke="#487985" vector-effect="non-scaling-stroke" d="m192.82 237.3-.08 4.63"/><path stroke="#2d6270" vector-effect="non-scaling-stroke" d="M192.74 241.93q-3.9-1.96-3.18-4.17"/><path stroke="#76939a" vector-effect="non-scaling-stroke" d="M186.29 237.55q-.45 1.22-1.46 1.41-.46.09-.55-.38c-.15-.74-1.17-.76-1.59-.36"/><path stroke="#839ba1" vector-effect="non-scaling-stroke" d="m182.69 238.22-5.54-.43"/><path stroke="#22595a" vector-effect="non-scaling-stroke" d="m148.96 218.13-.13-1.84"/><path stroke="#c3c5c6" vector-effect="non-scaling-stroke" d="M129.46 224.82c.12 3.29-.75 9.29.52 11.94"/><path stroke="#76939a" vector-effect="non-scaling-stroke" d="m129.98 236.76-1.68.45"/><path stroke="#a2b8be" vector-effect="non-scaling-stroke" d="m177.96 209.42.92 2.93q.17.54.74.53l5.46-.17"/><path stroke="#3a6a76" vector-effect="non-scaling-stroke" d="m177.49 218.21-.55-1.27q-.2-.47-.71-.35-1.12.29-1.92-.42"/><path stroke="#497e7d" vector-effect="non-scaling-stroke" d="M158.94 217.34q-6.07-3.51-10.11-1.05"/><path stroke="#3a6a76" vector-effect="non-scaling-stroke" d="M148.83 216.29q-1.5.48-3.52.23M120.71 218.19l.26-.8q.19-.55-.34-.8-.51-.25-1.12-.05"/><path stroke="#76939a" vector-effect="non-scaling-stroke" d="m157.76 237.44-2.13.14"/><path stroke="#9bb2b7" vector-effect="non-scaling-stroke" d="M163.09 212.69q-2.07.65-4.41.17-.51-.11-.81-.54-1.79-2.55-1.59-6.48"/><path stroke="#d2b8c0" vector-effect="non-scaling-stroke" d="M160.43 197q-.29.01-.55.16-.46.26-.38.79.43 3.16.2 6.37-.04.56-.58.71l-2.84.81"/><path stroke="#9895a2" vector-effect="non-scaling-stroke" d="M156.28 205.84q-.54.02-.87-.13"/><path stroke="#dfb3c0" vector-effect="non-scaling-stroke" d="M160.12 195.29q-2.12.24-3.67 1.26-.44.28-.48.8l-.56 8.36"/><path stroke="#a8acb7" vector-effect="non-scaling-stroke" d="M155.41 205.71q-.47-.04-.56.73"/><path stroke="#e2d0d5" vector-effect="non-scaling-stroke" d="m154.85 206.44-7.1-.94"/><path stroke="#cab9bf" vector-effect="non-scaling-stroke" d="M147.75 205.5q-.59-.39-1.18-.2"/><path stroke="#bdbebf" vector-effect="non-scaling-stroke" d="m147.75 205.5.07 7.17"/><path stroke="#839ba1" vector-effect="non-scaling-stroke" d="M147.82 212.67q-.52-.2-1.22.12"/><path stroke="#548693" vector-effect="non-scaling-stroke" d="m199.85 84.64-.26 1.15q-.11.5.38.63 2.77.78 2.92 3.43.03.54.31.99.79 1.27 1.99 1.98a1.69 1.67-87.2 0 1 .68.76l1.03 2.38q.15.34-.12.58c-1.73 1.58.87 2.55-.54 4.2q-2.19 2.53.53 3.95a1.87 1.87 0 0 0 2.73-1.52q.13-1.79 1.33-3.63"/><path stroke="#9bb2b7" vector-effect="non-scaling-stroke" d="M214.47 129.05q-.21-.02-.32.16-.22.33.16.45l1.68.54q.62.19.08.57l-1.48 1.02"/><path stroke="#a2b8be" vector-effect="non-scaling-stroke" d="m214.59 131.79-7.31 1.06"/><path stroke="#6f9ea8" vector-effect="non-scaling-stroke" d="m207.28 132.85-1.25-.13q-.6-.07-.55-.68c.75-8.6.76-13.95-1.61-21.6-.44-1.43-.65-8.63-1.57-8.74q-.52-.06-.52-.59l-.01-.59q0-.52.52-.52h.78a1.25 1.25 0 0 0 .47-2.4l-8.88-3.61q-.77-.32-.29-.99.44-.62 1.21-.52.67.09.65-.58c-.12-4.03-5.09-4.73-8.26-4.26"/><path stroke="#78a7b1" vector-effect="non-scaling-stroke" d="M187.97 87.64q-1.92.54-2.16-.82"/><path stroke="#86b6c0" vector-effect="non-scaling-stroke" d="M187.97 87.64q3.33.13 4.57 3.04a.42.42 0 0 1-.31.58l-14.82 2.82"/><path stroke="#487985" vector-effect="non-scaling-stroke" d="m193.02 257 .01 5.19"/><path stroke="#0f3b47" stroke-opacity=".588" vector-effect="non-scaling-stroke" d="M193.03 262.19q-2.81.46-4.32-1.19"/><path stroke="#b7b9ba" vector-effect="non-scaling-stroke" d="M155.78 251.78c1.16 3.06-7.42 3.13-9.28 3.48"/><path stroke="#3c6b77" stroke-opacity=".588" vector-effect="non-scaling-stroke" d="M114.26 261.09c-1.9.59-.73 5.98-.39 7.57"/><path stroke="#8b8e8f" stroke-opacity=".588" vector-effect="non-scaling-stroke" d="M182.42 259.61q-3.08.53-5.4-.73M156.42 258.25q-4.97 3.54-9.11-.94"/><path stroke="#cfd0d0" vector-effect="non-scaling-stroke" d="m127.96 251.89.03 2.05q.01.5-.46.68-4.65 1.76-9.11.92"/><path stroke="#abadad" stroke-opacity=".588" vector-effect="non-scaling-stroke" d="M127.68 258.27q-1.91 1.32-4.6 1.41"/><path stroke="#527982" stroke-opacity=".588" vector-effect="non-scaling-stroke" d="m196.84 258.73.48 10.37"/><path stroke="#6f9ea8" vector-effect="non-scaling-stroke" d="M196.28 269.4q-.03-.12.04-.33.1-.29-.16-.43c-2.14-1.21-.52-3.83-.16-5.58q.1-.51-.1-.98-.89-2.13-.59-4.52.06-.47-.33-.75-1.14-.83-1.96.19"/><path stroke="#3a6a76" vector-effect="non-scaling-stroke" d="M193.02 257q-.37-3.02 1.22-5.12"/><path stroke="#9bb2b7" vector-effect="non-scaling-stroke" d="m154.85 206.44.07 5.88q0 .6-.6.58l-6.5-.23"/><path stroke="#6f9ea8" vector-effect="non-scaling-stroke" d="m194.86 82.42 4.08 3.47q.43.37.34.92-.19 1.2-1.75 1.07-.48-.04-.91-.26-4.64-2.4-10.09-1.49-.37-.52-.72.69"/><path stroke="#86b6c0" vector-effect="non-scaling-stroke" d="M185.81 86.82c-1.54-.48-.87 2.31-3.48 1.77"/><path stroke="#a8acb7" vector-effect="non-scaling-stroke" d="m198.14 83.12-3.28-.7"/><path stroke="#b6bcc6" vector-effect="non-scaling-stroke" d="M194.86 82.42q-2.3-.26-5.23-.18c-2.87.07-4.03 1.48-6.85 2.19"/><path stroke="#6a939c" stroke-opacity=".588" vector-effect="non-scaling-stroke" d="m192.39 268.68.64-6.49"/><path stroke="#756b68" vector-effect="non-scaling-stroke" d="M93.35 67.02c-.88.09-2.41 3.25-2.89 4.17a.25.25 0 0 0 .4.29q1.73-1.71 2.89-3.84a.42.41-78.4 0 0-.4-.62"/><path stroke="#3c312d" vector-effect="non-scaling-stroke" d="M100.03 61.85q.19.43.81.5a.34.32-70.8 0 0 .31-.16l.14-.26a.53.52 36.3 0 0-.1-.63q-.52-.5-.96-.18a.61.6 60.8 0 0-.2.73"/><path stroke="#312623" vector-effect="non-scaling-stroke" d="M105.52 64.08q-.06.68.57.44l.82-.31a.64.64 0 0 0-.26-1.23q-1.03.04-1.13 1.1"/><path stroke="#625f5f" vector-effect="non-scaling-stroke" d="M78.89 67.46c-.97.23-1.25 1.76-.11 2.04a.78.78 0 0 0 .97-.76v-.6a.7.7 0 0 0-.86-.68"/><path stroke="#725248" vector-effect="non-scaling-stroke" d="M54.11 70.51q-2.23-.15-4.3.82-.51.24-.65.78-1.62 6.06 4.1 8.59a.92.92 0 0 0 1.2-1.26q-1.65-3.27.81-6.11a1.71 1.7-67.4 0 0-1.16-2.82"/><path stroke="#ececec" vector-effect="non-scaling-stroke" d="M65.7 142.17c2.19-2.92 5.2-4.93 7.25-7.85a.68.68 0 0 0-.68-1.06q-7.05 1.25-11.96 6.48-.56.6.25.68l1.13.11q.4.04.48.43.47 2.32 2.76 1.72.48-.12.77-.51"/><path stroke="#a7a09d" vector-effect="non-scaling-stroke" d="m48.32 187.32 4.53-2.91q.44-.28.35-.79l-1.24-6.5"/><path stroke="#ececec" vector-effect="non-scaling-stroke" d="M51.96 177.12c-.58-2.26-9.66-26.09-15.48-16.13-7.96 13.63-10.25 31.58-11.36 47.24q-.04.54.36.17l22.84-21.08"/><path stroke="#9d9794" vector-effect="non-scaling-stroke" d="M51.96 177.12q-1.14.83-.71 3.61"/><path stroke="#c3c5c6" vector-effect="non-scaling-stroke" d="M51.25 180.73c-1.18 1.64-3.53 3.03-2.47 5.22"/><path stroke="#9d9794" vector-effect="non-scaling-stroke" d="M48.78 185.95q-.72.8-.46 1.37"/><path stroke="#7e7977" vector-effect="non-scaling-stroke" d="M48.78 185.95q4.37-1.9 2.47-5.22"/><path stroke="#2d6270" vector-effect="non-scaling-stroke" d="M108.73 167.8c2.9.93 5.64-7.34 6.92-9.23q.28-.41.28-.91c.01-.98-.89-5.67-.25-6.27q.38-.34-.04-.63l-1.5-1.05q-.55-.38-.76.26c-1.7 5.33-2.17 10.37-5.58 14.93a1.87 1.87 0 0 0 .93 2.9"/></g><path fill="#1f1715" d="m65.09 14.38 1.7 2.19q.48.62.6-.16c.68-4.73-.76-10.84-1.41-15.69 2.13-.61 3.16.7 3.71 2.64q1.74 6.08 3.02 12.07a.65.65 0 0 0 1.25.05q.95-3.13 3.79-2.57-1.24 1.05-2.65 1.41a1.35 1.35 0 0 0-.3 2.5c3.1 1.63 3.98 6.95 7.66 6.14a.92.91 88.8 0 1 1.1 1.06c-.74 4.05 1.15 5.98 2.11 9.63a.92.92 0 0 0 1.5.46c2.75-2.38 2.41-6.19 2.29-9.5-.09-2.61-1.41-4.04-3.04-5.92a1.07 1.07 0 0 1 1.34-1.63q3.9 2.23 9.24.41 2.16.8 4.12 3.43c2.22 2.97 6.45 9.41 7.55 11.91 1.98 4.48.15 9.41.84 14.25q-4.43.38-8.54 1.98a.22.22 0 0 0 .1.42l5.99-.68q1.19 3.34-1.01 4.22-2.56 1.01-6.4 4.02a1.31 1.3 28.6 0 1-.93.27q-2.2-.21-2.51-2.38-.09-.61.32-1.08.5-.56.04-1.48a.96.96 0 0 0-1.37-.39q-1.93 1.2-3.26-.92-.27-.43.08-.81c3.17-3.42 10.18-7.77 14.85-4.77q.61.4.53-.33c-1.62-13.94-17.67-5.85-23.64-1.59q-.94.68-3.02.43c-2.52-.3-3.92.13-6 1.18l-4.95 3.56q-8.1 4.91-8.67 14.37l-7.36-1.41q3.19-.89 2.99-1.91-.7-3.6 2.04-5.49.42-.29.55-.79 1.23-4.54 5.97-4.02a1.02 1.01 23.8 0 0 .88-.34l3.49-4.07a1.33 1.3 16 0 1 .81-.44q3.76-.55 5.76-3.83a2.28 2.28 0 0 0 .05-2.29c-2.1-3.82-3.99-7.97-3.07-12.42a1.52 1.5-53.8 0 0-.15-1.02q-1.5-2.78-4.04-4.57-.44-.31-.65-.82-.39-.93-1.17-1.64-.3-.27-.7-.17c-4.76 1.19-5.87 5.5-10.56 7.34l2.59-2.85a.48.48 0 0 0-.1-.73c-.96-.59-2.83 1.5-3.41 2.18q-.18-.01-.35-.03-.35-.04-.41-.4-.05-.33-.17-.51l1.54-1.4q.38-.34.04-.73L40.22 2.94c2.46-1.96 8.32 5.62 11.97 9.64q.3.34.52-.06c.29-.54-2.34-4.18-2.78-4.92 1.34-.72 2.21-.39 2.9.96q2.72 5.31 6.51 9.95.28.34.7.2l1.77-.61a.4.4 0 0 0 .15-.66c-4.02-4.09-6.81-8.7-10.18-13.25q-1.32-1.78-2.4-4.03 4.45.75 7.35 6.59a1.03 1.02-13.9 0 0 .93.56l2.76-.02a1.21 1.2 75.1 0 1 1.07.62l3.6 6.47z"/><path fill="#584b45" d="M49.38.16q1.08 2.25 2.4 4.03c3.37 4.55 6.16 9.16 10.18 13.25a.4.4 0 0 1-.15.66l-1.77.61q-.42.14-.7-.2-3.79-4.64-6.51-9.95c-.69-1.35-1.56-1.68-2.9-.96-1.65-2.57-3.3-4.39-.55-7.44zM65.98.72c.65 4.85 2.09 10.96 1.41 15.69q-.12.78-.6.16l-1.7-2.19q-.43-4.53-.82-8.31c-.25-2.36-.94-4.06 1.71-5.35zM40.22 2.94l15.47 17.78q.34.39-.04.73l-1.54 1.4q-6.7-9.14-15.18-17.46-.45-.97 1.29-2.45z"/><path fill="#423531" d="M38.93 5.39q8.48 8.32 15.18 17.46.12.18.17.51.06.36.41.4.17.02.35.03-1.11.95-1.51 2.02-.25.65.38.35l2.05-.97c4.69-1.84 5.8-6.15 10.56-7.34q.4-.1.7.17.78.71 1.17 1.64.21.51.65.82 2.54 1.79 4.04 4.57a1.52 1.5-53.8 0 1 .15 1.02c-.92 4.45.97 8.6 3.07 12.42a2.28 2.28 0 0 1-.05 2.29q-2 3.28-5.76 3.83a1.33 1.3 16 0 0-.81.44l-3.49 4.07a1.02 1.01 23.8 0 1-.88.34q-4.74-.52-5.97 4.02-.13.5-.55.79-2.74 1.89-2.04 5.49.2 1.02-2.99 1.91.34.16.69.32-1.33-.12-1.44.9a.8.8 0 0 1-1.56.16q-.62-1.97-1.7-1.8-3.17-3.18-3.79-8.24.88.17 1.59-.96a1.11 1.1-35.4 0 0 .15-.86c-.29-1.33-1.65-3.43.53-4.06q.53-.16.76.35c2.88 6.54 9.59 2.54 7.95-1.69-.69-1.78-5.04-4.3-6.68-5.92q-.45-.45.13-.71c3.98-1.8 8.49 4.44 9.66 7.46a1.05 1.03-89.5 0 0 .56.58c6.42 2.62 5.52-4.62 9.19-7.03q.45-.3.45-.84v-1.9q0-.77.76-.66 1.6.24 1.88-2.07.06-.53.01-1.06-.19-1.92-1.26-3.53a1.9 1.86-6.4 0 0-.88-.69q-2.13-.82-3.45-2.64-.28-.39-.75-.52l-4.22-1.18a1.46 1.42-42.6 0 0-.71-.02q-1.47.34-2.37 1.63a.83.82-52 0 0 .13 1.08l1.46 1.3a.81.8 51.2 0 1-.14 1.3c-3.27 1.84-5.03-2.79-7.99-3.47q-.49-.12-.87-.45-1.24-1.09-2.82-1.45c-7.1-1.63-14.31-4.92-21.2-7.46q.5-1.61 2.35-.95 8.64 3.06 17.3 6.19.35.12.63-.11l1.93-1.58a.65.65 0 0 0 .06-.94q-6.16-6.59-11.17-14.76zM77.75 12.91c3.28.86 5.65 2.21 9.21 2.26q4.87.08 10.04 2.3-5.34 1.82-9.24-.41a1.07 1.07 0 0 0-1.34 1.63c1.63 1.88 2.95 3.31 3.04 5.92.12 3.31.46 7.12-2.29 9.5a.92.92 0 0 1-1.5-.46c-.96-3.65-2.85-5.58-2.11-9.63a.92.91 88.8 0 0-1.1-1.06c-3.68.81-4.56-4.51-7.66-6.14a1.35 1.35 0 0 1 .3-2.5q1.41-.36 2.65-1.41z"/><path fill="#584b45" d="M27.83 17.54c6.89 2.54 14.1 5.83 21.2 7.46q1.58.36 2.82 1.45.38.33.87.45c2.96.68 4.72 5.31 7.99 3.47a.81.8 51.2 0 0 .14-1.3l-1.46-1.3a.83.82-52 0 1-.13-1.08q.9-1.29 2.37-1.63a1.46 1.42-42.6 0 1 .71.02l4.22 1.18q.47.13.75.52 1.32 1.82 3.45 2.64a1.9 1.86-6.4 0 1 .88.69q1.07 1.61 1.26 3.53.05.53-.01 1.06-.28 2.31-1.88 2.07-.76-.11-.76.66v1.9q0 .54-.45.84c-3.67 2.41-2.77 9.65-9.19 7.03a1.05 1.03-89.5 0 1-.56-.58c-1.17-3.02-5.68-9.26-9.66-7.46q-.58.26-.13.71c1.64 1.62 5.99 4.14 6.68 5.92 1.64 4.23-5.07 8.23-7.95 1.69q-.23-.51-.76-.35c-2.18.63-.82 2.73-.53 4.06a1.11 1.1-35.4 0 1-.15.86q-.71 1.13-1.59.96c-1.3-1.79-.45-6.51-.85-9l-.51-2.39a.5.5 0 0 0-.79-.3c-2.88 2.14-5.27 6.87-6.99 10.08-3.47-4.28 10.98-17.82 14.03-20.13q.31-1.21-.11-2.41-.17-.47-.67-.44c-1.15.08-1.96-.96-2.76-1.32q-9.36-4.18-20.25-7.39.73-.87.77-2.17z"/><path fill="#423531" d="M27.06 19.71q10.89 3.21 20.25 7.39c.8.36 1.61 1.4 2.76 1.32q.5-.03.67.44.42 1.2.11 2.41-12.37-4.69-23.79-11.56z"/><path fill="#584b45" d="m55.96 25.19-2.05.97q-.63.3-.38-.35.4-1.07 1.51-2.02c.58-.68 2.45-2.77 3.41-2.18a.48.48 0 0 1 .1.73l-2.59 2.85z"/><path fill="#452e28" d="m107.06 48.78 1.84.24q.48.06.64.51 1.42 3.82 4.75 6.23a1.11 1.09-73.1 0 1 .46.88q.11 3.89 2.54 6.45-2.23.49-3.56 2.36-.19.02-.43-.23.21-1.58 1.15-2.81.34-.44-.13-.73l-2.3-1.41q-.62-.38-.54.34.13 1.33-.2 1.62-1.18.55-2.21 1.9-.41.54-.72-.06l-2.88-5.56q-.27-.53-.87-.62c-6.49-1-5.73 6.04-3.09 9.33a.71.71 0 0 1-.83 1.1l-3.4-1.46a1.11 1.11 0 0 0-1.27 1.76l3.8 4.29-9.8 2.91.43-.68a.39.39 0 0 0-.43-.59l-2.35.67a.68.67-78.7 0 1-.71-1.07q.59-.75 1.49-.99.64-.18.19-.67-.32-.35-.82-.24a.63.63 0 0 1-.77-.62c.1-4.78-3.11-8.12-8.14-5.85.65-2.53-3.94-1.75-5.69-2.43l6.67-1.34a2.31 2.25-43.1 0 1 .99.02q3.12.7 5.08-1.91.32-.43.03-.89c-.77-1.16-3.6-1.83-3.38-3.11q.1-.56-.44-.39l-4.33 1.35c.32-4.48 11.79-9.98.29-12.03a1.52 1.51-52.6 0 0-.94.13q-1.06.54-2.44-.03c2.08-1.05 3.48-1.48 6-1.18q2.08.25 3.02-.43c5.97-4.26 22.02-12.35 23.64 1.59q.08.73-.53.33c-4.67-3-11.68 1.35-14.85 4.77q-.35.38-.08.81 1.33 2.12 3.26.92a.96.96 0 0 1 1.37.39q.46.92-.04 1.48-.41.47-.32 1.08.31 2.17 2.51 2.38a1.31 1.3 28.6 0 0 .93-.27q3.84-3.01 6.4-4.02 2.2-.88 1.01-4.22zM93.35 67.02c-.88.09-2.41 3.25-2.89 4.17a.25.25 0 0 0 .4.29q1.73-1.71 2.89-3.84a.42.41-78.4 0 0-.4-.62z"/><path fill="#1f1715" d="m45.11 44.01-5.25 8.13q-.31.47-.88.4-1.65-.21-2.16-1.14c1.72-3.21 4.11-7.94 6.99-10.08a.5.5 0 0 1 .79.3l.51 2.39z"/><path fill="#78564e" d="m77.83 57.08-4.37 2.06a.75.75 0 0 0-.44.71q.03 1.12-.43 1.9.03-.65-1.18-.52c-2.56-4.73 7.25-12.41-1.62-12.52l4.95-3.56q1.38.57 2.44.03a1.52 1.51-52.6 0 1 .94-.13c11.5 2.05.03 7.55-.29 12.03z"/><path fill="#8b8988" d="M115.9 45.68q-.09 1.62.54 2.54-1.42.76-1.09 1.73 1.25 3.59 2.22 7.26.11.45.07.92-.13 1.24.93 1.95.35.23.34.64 0 1.87-1.62 2.37-2.43-2.56-2.54-6.45a1.11 1.09-73.1 0 0-.46-.88q-3.33-2.41-4.75-6.23-.16-.45-.64-.51l-1.84-.24-5.99.68a.22.22 0 0 1-.1-.42q4.11-1.6 8.54-1.98l6.39-1.38z"/><path fill="#423531" d="M115.9 45.68q1.33.25 2.51 3.12 2.95 7.22 2.63 12.57l-4.6-13.15q-.63-.92-.54-2.54z"/><path fill="#584b45" d="m116.44 48.22 4.6 13.15-6.71 4.5-.6-.42q1.33-1.87 3.56-2.36 1.62-.5 1.62-2.37.01-.41-.34-.64-1.06-.71-.93-1.95.04-.47-.07-.92-.97-3.67-2.22-7.26-.33-.97 1.09-1.73z"/><path fill="#9e7568" d="M69.79 48.71c8.87.11-.94 7.79 1.62 12.52-2.9.04-10.34 1.03-8.23 5.26l1.11 7.43q-1.23-2.36-2.69-3.27.98-.93-.5-3.67.63-2.22-.6-2.43.9.09 1.37-.28.45-.34.17-.83-.3-.52-.92-.36.57-9.46 8.67-14.37z"/><path fill="#423531" d="M73.21 63.35q-.78-.17-1.33-1.19.17.32.71-.41.46-.78.43-1.9a.75.75 0 0 1 .44-.71l4.37-2.06 4.33-1.35q.54-.17.44.39c-.22 1.28 2.61 1.95 3.38 3.11q.29.46-.03.89-1.96 2.61-5.08 1.91a2.31 2.25-43.1 0 0-.99-.02l-6.67 1.34z"/><path fill="#1f1715" d="M111.28 62.23q-.44 3.3 2.02 2.99.24.25.43.23l.6.42q-.48.01-.71.57-5.17 1.03-7.04 4l-6.77 2.47-3.8-4.29a1.11 1.11 0 0 1 1.27-1.76l3.4 1.46a.71.71 0 0 0 .83-1.1c-2.64-3.29-3.4-10.33 3.09-9.33q.6.09.87.62l2.88 5.56q.31.6.72.06 1.03-1.35 2.21-1.9zm-11.25-.38q.19.43.81.5a.34.32-70.8 0 0 .31-.16l.14-.26a.53.52 36.3 0 0-.1-.63q-.52-.5-.96-.18a.61.6 60.8 0 0-.2.73zm5.49 2.23q-.06.68.57.44l.82-.31a.64.64 0 0 0-.26-1.23q-1.03.04-1.13 1.1z"/><path fill="#c9cbcb" d="M113.3 65.22q-2.46.31-2.02-2.99.33-.29.2-1.62-.08-.72.54-.34l2.3 1.41q.47.29.13.73-.94 1.23-1.15 2.81z"/><path fill="#584b45" d="M100.23 61.12q.44-.32.96.18a.53.52 36.3 0 1 .1.63l-.14.26a.34.32-70.8 0 1-.31.16q-.62-.07-.81-.5a.61.6 60.8 0 1 .2-.73zM49.75 61.25q1.08-.17 1.7 1.8a.8.8 0 0 0 1.56-.16q.11-1.02 1.44-.9c-2.6 1.04 1.55 1.89 2.31 1.75a.95.95 0 0 1 .88.29q.61.69 1.34.79.65 1.7 2.12 2.16 1.48 2.74.5 3.67-3.66-1.9-3.37-.18-1.87-.76-3.88-3.35L52 65.43q-1.73-2.14-2.25-4.18z"/><path fill="#d5d5d5" d="M71.41 61.23q1.21-.13 1.18.52-.54.73-.71.41l-2.67 3.49a1.33 1.28-74.7 0 1-.82.49l-3.99.69-1.22-.34c-2.11-4.23 5.33-5.22 8.23-5.26z"/><path fill="#a4a7a8" d="M54.45 61.99q-.35-.16-.69-.32l7.36 1.41q.62-.16.92.36.28.49-.17.83-.47.37-1.37.28-.67-.17-1.52.27-.73-.1-1.34-.79a.95.95 0 0 0-.88-.29c-.76.14-4.91-.71-2.31-1.75z"/><path fill="#78564e" d="M71.88 62.16q.55 1.02 1.33 1.19c1.75.68 6.34-.1 5.69 2.43-4.19 3.02-1.99 6.85 1.22 9.45a.51.5-44.3 0 1-.01.79q-1.12.87-.65 1.67l-2.93.42q-1.14-.04-2.12-1-3.74-.06-7.07-4.86l-2.94-5.42 3.99-.69a1.33 1.28-74.7 0 0 .82-.49l2.67-3.49z"/><path fill="#423531" d="M105.52 64.08q.1-1.06 1.13-1.1a.64.64 0 0 1 .26 1.23l-.82.31q-.63.24-.57-.44z"/><path fill="#1f1715" d="M60.5 64.55q1.23.21.6 2.43-1.47-.46-2.12-2.16.85-.44 1.52-.27zM90.01 75.82l-3.52.67q-3.42-.15-7.03 1.2-.47-.8.65-1.67a.51.5-44.3 0 0 .01-.79c-3.21-2.6-5.41-6.43-1.22-9.45 5.03-2.27 8.24 1.07 8.14 5.85a.63.63 0 0 0 .77.62q.5-.11.82.24.45.49-.19.67-.9.24-1.49.99a.68.67-78.7 0 0 .71 1.07l2.35-.67a.39.39 0 0 1 .43.59l-.43.68zm-11.12-8.36c-.97.23-1.25 1.76-.11 2.04a.78.78 0 0 0 .97-.76v-.6a.7.7 0 0 0-.86-.68z"/><path fill="#e2e2e3" d="m52 65.43 2.35 1.69c-.52 1.16-2.87-.77-4.72.2q-.62-1.64 2.37-1.89z"/><path fill="#c9cbcb" d="M113.62 66.44q5.67 11.67 2.54 24.4c-1.23 4.99-3.71 7.6-8.06 9.96q-7.22 3.85-16.1 4.41l-2.24.2q-.48-.46.21-.45c1.04-.02 5.9-.4 4-2.15q-.45-.41-.09-.9c3.07-4.22 7.64-8.67 9.2-13.44q1.64-5.06 1.65-10.86.01-1.47-1.43-1.17l-.92.18-7.63 2.01q-.53.14-.71-.38-.28-.81.74-1.74.35-.31.8-.41 6.43-1.43 11-5.66 1.87-2.97 7.04-4z"/><path fill="#a4a7a8" d="m63.18 66.49 1.22.34 2.94 5.42 2.46 5.85q.19.47.69.4l3.71-.52a.37.37 0 0 0 .32-.42q-.02-.18-.11-.45.98.96 2.12 1l-5.51 1.3q-1.48.04-2.04.45-2.21-.72-3.55-2.68.3-1.32-1.14-3.26l-1.11-7.43z"/><path fill="#9e7568" d="M54.35 67.12q2.01 2.59 3.88 3.35l7.2 6.71q1.34 1.96 3.55 2.68 4.65 8.1 5.78 16.99-7.54-5.8-14.25-13.54-.43.46-1.69.24c-8.5-.45-15.19-8.09-9.19-16.23 1.85-.97 4.2.96 4.72-.2zm-.24 3.39q-2.23-.15-4.3.82-.51.24-.65.78-1.62 6.06 4.1 8.59a.92.92 0 0 0 1.2-1.26q-1.65-3.27.81-6.11a1.71 1.7-67.4 0 0-1.16-2.82z"/><path fill="#a4a7a8" d="M90.46 71.19c.48-.92 2.01-4.08 2.89-4.17a.42.41-78.4 0 1 .4.62q-1.16 2.13-2.89 3.84a.25.25 0 0 1-.4-.29zM78.78 69.5c-1.14-.28-.86-1.81.11-2.04a.7.7 0 0 1 .86.68v.6a.78.78 0 0 1-.97.76z"/><path fill="#e2e2e3" d="M61.6 70.65q1.46.91 2.69 3.27 1.44 1.94 1.14 3.26l-7.2-6.71q-.29-1.72 3.37.18z"/><path fill="#452e28" d="M54.11 70.51a1.71 1.7-67.4 0 1 1.16 2.82q-2.46 2.84-.81 6.11a.92.92 0 0 1-1.2 1.26q-5.72-2.53-4.1-8.59.14-.54.65-.78 2.07-.97 4.3-.82z"/><path fill="#f5f5f5" d="M106.58 70.44q-4.57 4.23-11 5.66-.45.1-.8.41-1.02.93-.74 1.74.18.52.71.38l7.63-2.01q2.5 11.49-5.85 18.17a1.33 1.29 77.7 0 0-.47.76c-.48 2.31-6.11 5.68-8.19 7.07a.62.62 0 0 0 .34 1.13h2.65a.42.41-74.3 0 1 .35.63q-.26.43-1.24.58-.69-.01-.21.45l-8.23.09-4.03-1.12q-.82-.71-2.27-1.08-.48-.12-.48-.61v-1.16q0-.45-.36-.73-9.26-7.31-15.57-17.25 1.26.22 1.69-.24 4.99 8.89 13.72 15.74.63.5.74-.3.18-1.28-.21-1.9-1.13-8.89-5.78-16.99.56-.41 2.04-.45c.42 5.02 12.71-1.32 15.47-2.92l3.52-.67 9.8-2.91 6.77-2.47zM67.34 72.25q3.33 4.8 7.07 4.86.09.27.11.45a.37.37 0 0 1-.32.42l-3.71.52q-.5.07-.69-.4l-2.46-5.85z"/><path fill="#efcad5" d="m198.14 83.12-3.28-.7q-2.3-.26-5.23-.18c-2.87.07-4.03 1.48-6.85 2.19l3.15-7.76a1.1 1.08 16.9 0 1 1.24-.65q5.92 1.29 10.92 4.73a.93.9 17.4 0 1 .4.73q.03.71-.35 1.64z"/><path fill="#e2e2e3" d="M89.97 104.96q.98-.15 1.24-.58a.42.41-74.3 0 0-.35-.63h-2.65a.62.62 0 0 1-.34-1.13c2.08-1.39 7.71-4.76 8.19-7.07a1.33 1.29 77.7 0 1 .47-.76q8.35-6.68 5.85-18.17l.92-.18q1.44-.3 1.43 1.17-.01 5.8-1.65 10.86c-1.56 4.77-6.13 9.22-9.2 13.44q-.36.49.09.9c1.9 1.75-2.96 2.13-4 2.15z"/><path fill="#d5d5d5" d="M86.49 76.49c-2.76 1.6-15.05 7.94-15.47 2.92l5.51-1.3 2.93-.42q3.61-1.35 7.03-1.2z"/><path fill="#7dadb7" d="m194.86 82.42 4.08 3.47q.43.37.34.92-.19 1.2-1.75 1.07-.48-.04-.91-.26-4.64-2.4-10.09-1.49-.37-.52-.72.69c-1.54-.48-.87 2.31-3.48 1.77q2.34-4.29.45-4.16c2.82-.71 3.98-2.12 6.85-2.19q2.93-.08 5.23.18z"/><path fill="#618e99" d="m194.86 82.42 3.28.7q.21.86 1.71 1.52l-.26 1.15q-.11.5.38.63 2.77.78 2.92 3.43.03.54.31.99.79 1.27 1.99 1.98a1.69 1.67-87.2 0 1 .68.76l1.03 2.38q.15.34-.12.58c-1.73 1.58.87 2.55-.54 4.2q-2.19 2.53.53 3.95a1.87 1.87 0 0 0 2.73-1.52q.13-1.79 1.33-3.63 4.37 14.21 3.38 28.7-.02.26.15.47.13.14.11.34-.21-.02-.32.16-.22.33.16.45l1.68.54q.62.19.08.57l-1.48 1.02-7.31 1.06-1.25-.13q-.6-.07-.55-.68c.75-8.6.76-13.95-1.61-21.6-.44-1.43-.65-8.63-1.57-8.74q-.52-.06-.52-.59l-.01-.59q0-.52.52-.52h.78a1.25 1.25 0 0 0 .47-2.4l-8.88-3.61q-.77-.32-.29-.99.44-.62 1.21-.52.67.09.65-.58c-.12-4.03-5.09-4.73-8.26-4.26q-1.92.54-2.16-.82.35-1.21.72-.69 5.45-.91 10.09 1.49.43.22.91.26 1.56.13 1.75-1.07.09-.55-.34-.92l-4.08-3.47z"/><path fill="#477e8c" d="M199.85 84.64q8.15 5.85 10.98 14.9-1.2 1.84-1.33 3.63a1.87 1.87 0 0 1-2.73 1.52q-2.72-1.42-.53-3.95c1.41-1.65-1.19-2.62.54-4.2q.27-.24.12-.58l-1.03-2.38a1.69 1.67-87.2 0 0-.68-.76q-1.2-.71-1.99-1.98-.28-.45-.31-.99-.15-2.65-2.92-3.43-.49-.13-.38-.63l.26-1.15z"/><path fill="#8fbfc8" d="M185.81 86.82q.24 1.36 2.16.82 3.33.13 4.57 3.04a.42.42 0 0 1-.31.58l-14.82 2.82c-1.09-3.03 2.32-4.5 4.92-5.49 2.61.54 1.94-2.25 3.48-1.77z"/><path fill="#7dadb7" d="m207.28 132.85-1.67.28-4.27.13q3.32-9.25 1.15-18.54-.1-.44-.44-.73c-2.62-2.29.36-10.83-4.1-10.5q-.51.04-.7.51-.38.92-1.01 1.49l-2.18-.77q-.62-1.14-2.33-.94-5.84.69-8.97 4.46.06-.21-1.12-.13-.25-.52-.9-.34-.48-2.18-1.75-2.92l1.11-2.55q1.34.75 2.54-.71.32-.39.81-.51 2.56-.58 4.77-2.06a.31.31 0 0 0-.19-.57q-4.84.26-8.77 3.47-1.01-1.47-2.18-1.66-.37-2.33 1.59-4.11.43-.39.02-.8l-1.28-1.27 14.82-2.82a.42.42 0 0 0 .31-.58q-1.24-2.91-4.57-3.04c3.17-.47 8.14.23 8.26 4.26q.02.67-.65.58-.77-.1-1.21.52-.48.67.29.99l8.88 3.61a1.25 1.25 0 0 1-.47 2.4h-.78q-.52 0-.52.52l.01.59q0 .53.52.59c.92.11 1.13 7.31 1.57 8.74 2.37 7.65 2.36 13 1.61 21.6q-.05.61.55.68l1.25.13z"/><path fill="#618e99" d="M180.1 102.3q-.2-.4-.85-.33 0-.03.01-.05 3.93-3.21 8.77-3.47a.31.31 0 0 1 .19.57q-2.21 1.48-4.77 2.06-.49.12-.81.51-1.2 1.46-2.54.71z"/><path fill="#a4a7a8" d="M177.08 100.26q1.17.19 2.18 1.66-.01.02-.01.05-.14 0-.28.04-.31.1-.45.4-5.31 11.85-10.56 23.72-.48 1.1.68 1.04a.64.64 0 0 0 .55-.38l9.8-21.94q1.27.74 1.75 2.92l-4.8 9.97q-.45.06-.77.28-.39.27-.32.74.17 1.03-.59 1.86-.33.36-.49.82-.82 2.33-2.13 4.55-.32.54.29.68c3.36.74 5.04-4.51 6.13-6.96q.23-.51-.2-.87l-.61-.52 4.39-10.21q1.18-.08 1.12.13l.85 2.06q-4.11 9.62-8.66 19.08c-.38.81-.95 1.27-1.57 1.83-1.09-2.28-6.09 1.15-6.41-3.82q-.03-.57-.57-.38l-1.56.58 12.24-27.33z"/><path fill="#452e28" d="m108.1 100.8 3.17 5.06-2.71 2.59q-.37.35-.57.82-1.3 2.96-4.07 4.49a.83.83 0 0 0-.44.78l.86 21q-2.22 1.78-3.02 3.59 5.4-19.26-7.53-31.41-.9-.84-2.66-.92-.64-.03-.36-.61.29-.58 1.23-.98 8.88-.56 16.1-4.41z"/><path fill="#f5f5f5" d="M179.25 101.97q.65-.07.85.33l-1.11 2.55-9.8 21.94a.64.64 0 0 1-.55.38q-1.16.06-.68-1.04 5.25-11.87 10.56-23.72.14-.3.45-.4.14-.04.28-.04z"/><path fill="#8fbfc8" d="M201.34 133.26c-2.79.33-13.51 1.49-14.67-2.9l5.52-.34q.45-.03.6-.46c2.18-6.42.44-8.63-3.22-13.59v-4.47q0-.76.72-.54l4.77 1.48q1.62.5 2.35-1.26l.81-3.89q.11-.55-.37-.84l-1.61-.96q.63-.57 1.01-1.49.19-.47.7-.51c4.46-.33 1.48 8.21 4.1 10.5q.34.29.44.73 2.17 9.29-1.15 18.54z"/><path fill="#477e8c" d="m194.06 104.72-2.73.79q-2.48-.03-4.66 2.01a.62.62 0 0 0 .51 1.07q5.14-.69 7.88 3.85l-4.77-1.48q-.72-.22-.72.54v4.47l-5-5.98a.47.47 0 0 0-.73.01l-.23.3-.85-2.06q3.13-3.77 8.97-4.46 1.71-.2 2.33.94z"/><path fill="#9e7568" d="M81.53 105.5q4.91 9.62 7.55 11.94 2.26 2 3.15 5.29 2.03 7.53-.86 12.87c-4.7-3.28-15.15-12.83-12.86-19.02q.15-.4.01-.8-.08-.24-.04-.54l.49-1.32q.37-4.98-1.47-9.54l4.03 1.12z"/><path fill="#78564e" d="m89.76 105.41 2.24-.2q-.94.4-1.23.98-.28.58.36.61 1.76.08 2.66.92 12.93 12.15 7.53 31.41-1.12.09-2.31 1.22c-.01-1.16-1.21-.8-1.97-1.13q-3.61-1.53-5.67-3.62 2.89-5.34.86-12.87-.89-3.29-3.15-5.29-2.64-2.32-7.55-11.94l8.23-.09z"/><path fill="#124553" d="M191.33 105.51q2.49 3.68 6.08 5.67-.73 1.76-2.35 1.26-2.74-4.54-7.88-3.85a.62.62 0 0 1-.51-1.07q2.18-2.04 4.66-2.01z"/><path fill="#1f1715" d="m111.27 105.86 2.44 2.93c-.18 1.37 4.94 1.07 6.1 1.15q1.73 1.15 1.4 3.02l-.25.36q-.36.54-.75.02-1.64-2.17-4.18-1.74-.63.11-.51.73c.61 3.27-1.79 6.31-2.71 8.56q-3.59 7.69-8.47 14.65l-.86-21a.83.83 0 0 1 .44-.78q2.77-1.53 4.07-4.49.2-.47.57-.82l2.71-2.59z"/><path fill="#f5f5f5" d="M180.74 107.77q.65-.18.9.34l-4.39 10.21q-1.05.03-1.31-.58l4.8-9.97z"/><path fill="#b5b6b5" d="M146.89 118.2q-.24.92-.9 1.63-.32.35-.79.36-4.52.16-4.72 4.68a.72.72 0 0 1-1.12.56l-.76-.53a1.53 1.51-80.3 0 1-.64-.92l-1.63-6.66a.55.55 0 0 0-.52-.42q-5.7-.19-11.03-2.02c-1.11-.38-2.63-2.36-3.43-1.2q-.12-.16-.14-.72.33-1.87-1.4-3.02-1.81-.68-1.27-1.58 7.8-.2 14.19 4.04c4.23 2.82 9.43 3.87 14.16 5.8z"/><path fill="#584b45" d="M118.54 108.36q-.54.9 1.27 1.58c-1.16-.08-6.28.22-6.1-1.15l4.83-.43z"/><path fill="#316d61" d="M121.21 112.96q.02.56.14.72l-.94 3.81-1.13 2.59q-2.8-.82-6.47.81c.92-2.25 3.32-5.29 2.71-8.56q-.12-.62.51-.73 2.54-.43 4.18 1.74.39.52.75-.02l.25-.36z"/><path fill="#d5d5d5" d="M146.89 118.2q9.83 3.96 17.95 9.39l1.56-.58q.54-.19.57.38c.32 4.97 5.32 1.54 6.41 3.82l-2.18.88q-.54.22-.16.65 6.25 7.07 11.41 15.95l-.15 3.88q-4.49-3.44-6.14-8.87-.15-.51-.58-.81-1.19-.84-1.5-2.22a1.29 1.28-78.9 0 0-.5-.75q-1.66-1.21-2.48-3.15-.18-.42-.6-.6c-2.43-1.07-4.09-2.92-6.32-3.79-5.49-2.14-9.85-.3-16.04 1.89-3.63 1.28-13.79 1.39-14.88-3.86 2.74-2.58 1.31-5.81-1.85-7.18q-4.2-1.83-8.8-2.57-.55-.08-.81-.57l-1.39-2.6.94-3.81c.8-1.16 2.32.82 3.43 1.2q5.33 1.83 11.03 2.02a.55.55 0 0 1 .52.42l1.63 6.66a1.53 1.51-80.3 0 0 .64.92l.76.53a.72.72 0 0 0 1.12-.56q.2-4.52 4.72-4.68.47-.01.79-.36.66-.71.9-1.63z"/><path fill="#f5f5f5" d="m78.97 113.92-.49 1.32q-.93.02-1.35.53-6.6.41-5.5 5.29c-.55 7.12 3.07 10.39 7.1 15.63q-.2.82-.56 1.26-.27.32-.14.72 3.38 10.21 3.92 21.59-5.36 4.61-8.31 11.3c-1.85 4.2-6.2 7.64-9.12 11.23a1.26 1.25-73.7 0 1-.82.45l-.63.07q-3.11-1.16-5.61-.02a1.1 1.05-7.1 0 0-.61.75q-.49 2.18.49 4.56 2.69 7.25 6.35 13.27-.53 3.26-1.07 6.11c-.89 4.6-3.83 9.31-6.93 12.21-4.64 4.36-8.98 9.05-13.71 13.29q-8.27 7.41-15.78 15.59-.27.28-.39.65c-.41 1.17-11.1.84-12.83.89q-3.81-.49-6.68-2.84c-9.93-9.4-5.6-25.82-2.74-37.6 3.86-15.92 9.63-30.64 15.46-45.88 4.06-10.6 8.16-18.82 17.33-25.68q9.05-6.76 18.89-12.3 2.59-1.46 6.1-4.24 7.76-6.15 17.63-8.15zM65.7 142.17c2.19-2.92 5.2-4.93 7.25-7.85a.68.68 0 0 0-.68-1.06q-7.05 1.25-11.96 6.48-.56.6.25.68l1.13.11q.4.04.48.43.47 2.32 2.76 1.72.48-.12.77-.51zm-17.38 45.15 4.53-2.91q.44-.28.35-.79l-1.24-6.5c-.58-2.26-9.66-26.09-15.48-16.13-7.96 13.63-10.25 31.58-11.36 47.24q-.04.54.36.17l22.84-21.08z"/><path fill="#423531" d="M78.48 115.24q-.04.3.04.54.14.4-.01.8c-2.29 6.19 8.16 15.74 12.86 19.02q2.06 2.09 5.67 3.62c.76.33 1.96-.03 1.97 1.13q-2.61.59-4.78-1.1c-7.13-5.56-16.5-13.25-17.1-23.48q.42-.51 1.35-.53z"/><path fill="#72ab9f" d="M77.13 115.77c.6 10.23 9.97 17.92 17.1 23.48q2.17 1.69 4.78 1.1 1.19-1.13 2.31-1.22.8-1.81 3.02-3.59 4.88-6.96 8.47-14.65 3.67-1.63 6.47-.81c-2.34 3.97-5.32 7.88-6.27 12.28q-1.68 7.74-.22 15.71 1.27.91-1.01 2.63-.41.31-.6-.17l-2.53-6.28a.68.68 0 0 0-1.29.42c.72 2.89 2.01 5.1 1.67 8.25q-.33 3.03-.61 6.08-2.87 1.76-4.58 4.78-.27.46-.73.73-2.69 1.56-4.86 3.79-.11.12-.16-.03-.05-.14-.1-.29-.13-.37.18-.6 2.14-1.6 1.75-2.91 5.82-5.42 6.94-9.15.63-2.12-.32-7.73a1.72 1.65-72.9 0 0-.45-.89q-.85-.91-.53-2.3a1.05 1.05 0 0 0-1.93-.77c-1.5 2.54-.57 5.25-.43 7.96.41 8.05-10.25 15.52-17 18.01q2.16-3.66 5.82-6.34c1.64-1.2 6.65-5.51 5.27-7.44q-.33-.45-.59.04-1.15 2.17-3.6 2.22-.58.01-.99.41l-4.8 4.71q-.31.29-.39.71-.1.54-.58.61-.5.07-.81.47l-2.81 3.65q-1.49-1.68 1.1-4.57.31-.34.75-.49 1.17-.37 1.54-1.5a1.62 1.59-8.4 0 1 .63-.83l8.58-5.68q.45-.29-.05-.49c-2.61-1.08-5.66 1.6-8.27 2q-.47.07-.53-.4-.21-1.84-.54-3.66a.21.19 41.4 0 0-.4 0c.08 1.21 1.21 4.1-.38 4.78-1.99-10.3-2.55-18.97-7.79-25.17-3.13-3.7-4.19-7.18-5.73-11.57q-1.1-4.88 5.5-5.29z"/><path fill="#f5f5f5" d="m120.41 117.49 1.39 2.6q.26.49.81.57 4.6.74 8.8 2.57c3.16 1.37 4.59 4.6 1.85 7.18q-1.79-.27-3.23.27a.36.36 0 0 0 .01.67c3.22 1.07 8.3 4.45 6.11 8.39a1.58 1.57 56.1 0 0-.18.94c.53 4.51.76 10.7-2.49 14.33q-2.66 2.97-6.06 5.1a2.14 2.13-1.3 0 0-.74.77q-.67 1.2-1.95 1.53-.45.11-.46.57-.07 1.96-1.44 2.89-.31-.39-.84-.31c-.39-3.17.92-9.64-2.67-11.51q-.84-.34-1.35-.27c-1.23-.06-1.1-8.52-5.18-5.71q-1.46-7.97.22-15.71c.95-4.4 3.93-8.31 6.27-12.28l1.13-2.59z"/><path fill="#124553" d="M175.94 117.74q.26.61 1.31.58l.61.52q.43.36.2.87c-1.09 2.45-2.77 7.7-6.13 6.96q-.61-.14-.29-.68 1.31-2.22 2.13-4.55.16-.46.49-.82.76-.83.59-1.86-.07-.47.32-.74.32-.22.77-.28z"/><path fill="#07342b" d="M71.63 121.06c1.54 4.39 2.6 7.87 5.73 11.57 5.24 6.2 5.8 14.87 7.79 25.17q-.9 1.68-1.97 1.01-.8-11.52-4.45-22.12c-4.03-5.24-7.65-8.51-7.1-15.63z"/><path fill="#d5d5d5" d="M214.47 129.05c6.6-.91 5.91 7.36 5.78 11.54-.71 22.08.07 43.69-7.47 64.36q-3.23 8.83-12.31 13.14l-1.93-2.33c-2.81-3.56-7.85-2.44-12.31-2.8l.06-4.47c1.18 1.63 2.15-1.6 2.26-2.21a.96.95 85.1 0 1 .6-.72q3.57-1.39 5.67-4c2.47-3.06 6.06-5.96 7.51-9.19q3.38-7.56 5.01-15.65c2.72-13.53.44-28.21 2.99-42.35a.84.84 0 0 1 .68-.67q2.86-.46 3.58-1.91l1.48-1.02q.54-.38-.08-.57l-1.68-.54q-.38-.12-.16-.45.11-.18.32-.16z"/><path fill="#e2e2e3" d="M133.26 130.41c1.09 5.25 11.25 5.14 14.88 3.86 6.19-2.19 10.55-4.03 16.04-1.89 2.23.87 3.89 2.72 6.32 3.79q.42.18.6.6.82 1.94 2.48 3.15a1.29 1.28-78.9 0 1 .5.75q.31 1.38 1.5 2.22.43.3.58.81 1.65 5.43 6.14 8.87l-.67 9.25a.49.49 0 0 1-.94.14c-.88-2.29-1.24-4.31-2.79-6.31-2.37-3.04-4.11-6.58-6.36-9.46q-1.64-2.11-3.23-4.27-.3-.4-.78-.56c-3.49-1.14-7.67-2.77-10.05 1.12q-2.65 4.33-1.55 9.69c1.06 5.14 2.22 10.53 2.67 15.73q.94 10.6 2.76 21.52-3.09-5.47-4.42-11.46c-.09-.3-2.27-11.57-2.9-11.46q.04-.47-.07-.79-.1-.29-.21-.01c-1.99 5.07-.29 7.79.62 12.31l-.63 1.54q-.19.46.11.86c1.68 2.2-.01 4.24.07 6.37a1.52 1.52 0 0 1-2.94.6q-4.38-11.73-4.29-24.28c.01-2.09-.78-3.91-1.19-6.02a.53.53 0 0 0-1.01-.1c-1.24 2.93-2.71 8.01-6.68 8.1-2.37.05-5.78 0-6.52 2.19-2.66 7.82-13.19 8.63-9.73 18.93q1.26 4.66-.97 3.78l-1.51-9.44a1.13 1.12 60.2 0 1 .24-.89q4.05-5.1 4.19-11.68.19-1.57-.69-2.1 1.37-.93 1.44-2.89.01-.46.46-.57 1.28-.33 1.95-1.53a2.14 2.13-1.3 0 1 .74-.77q3.4-2.13 6.06-5.1c3.25-3.63 3.02-9.82 2.49-14.33a1.58 1.57 56.1 0 1 .18-.94c2.19-3.94-2.89-7.32-6.11-8.39a.36.36 0 0 1-.01-.67q1.44-.54 3.23-.27z"/><path fill="#f5f5f5" d="M186.67 130.36c1.16 4.39 11.88 3.23 14.67 2.9l4.27-.13q-.02 2.51-.52 4.96c-2.3 11.4-.91 23.87-3.05 34.48q-1.91 9.44-5.95 18.57-2.6 5.85-7.54 9.21l-.16-5.34c-2.41-.8-14.79-3-15.34.56q-.95 6.17 1.09 9.66 2.15 2.08-.14 5.01-9.12-9.14-12.64-20.82-1.82-10.92-2.76-21.52c-.45-5.2-1.61-10.59-2.67-15.73q-1.1-5.36 1.55-9.69c2.38-3.89 6.56-2.26 10.05-1.12q.48.16.78.56 1.59 2.16 3.23 4.27c2.25 2.88 3.99 6.42 6.36 9.46 1.55 2 1.91 4.02 2.79 6.31a.49.49 0 0 0 .94-.14l.67-9.25.15-3.88c.61-4.32.96-16.11 4.22-18.33z"/><path fill="#e2e2e3" d="M214.59 131.79q-.72 1.45-3.58 1.91a.84.84 0 0 0-.68.67c-2.55 14.14-.27 28.82-2.99 42.35q-1.63 8.09-5.01 15.65c-1.45 3.23-5.04 6.13-7.51 9.19q-2.1 2.61-5.67 4a.96.95 85.1 0 0-.6.72c-.11.61-1.08 3.84-2.26 2.21q-.68-2.74 1.51-3.58.51-.2.54-.75l.21-3.81q4.94-3.36 7.54-9.21 4.04-9.13 5.95-18.57c2.14-10.61.75-23.08 3.05-34.48q.5-2.45.52-4.96l1.67-.28 7.31-1.06zM72.95 134.32c-2.05 2.92-5.06 4.93-7.25 7.85q-.29.39-.77.51-2.29.6-2.76-1.72-.08-.39-.48-.43l-1.13-.11q-.81-.08-.25-.68 4.91-5.23 11.96-6.48a.68.68 0 0 1 .68 1.06z"/><path fill="#c9cbcb" d="M78.73 136.69q3.65 10.6 4.45 22.12l-1.23 1.45q-.54-11.38-3.92-21.59-.13-.4.14-.72.36-.44.56-1.26z"/><path fill="#8fbfc8" d="M99.92 164.47q-9.99 10.49-13.91 14.04-7.54 6.86-12.4 13.03c-2.66 3.37-5.09 4.84-9.05 5.57l-4.33-8.51a1.9 1.89 60.5 0 1 .68-2.47q1.36-.86 2.16-2.82l.63-.07a1.26 1.25-73.7 0 0 .82-.45c2.92-3.59 7.27-7.03 9.12-11.23q2.95-6.69 8.31-11.3l1.23-1.45q1.07.67 1.97-1.01c1.59-.68.46-3.57.38-4.78a.21.19 41.4 0 1 .4 0q.33 1.82.54 3.66.06.47.53.4c2.61-.4 5.66-3.08 8.27-2q.5.2.05.49l-8.58 5.68a1.62 1.59-8.4 0 0-.63.83q-.37 1.13-1.54 1.5-.44.15-.75.49-2.59 2.89-1.1 4.57 2.79 1.36 3.48.96c6.75-2.49 17.41-9.96 17-18.01-.14-2.71-1.07-5.42.43-7.96a1.05 1.05 0 0 1 1.93.77q-.32 1.39.53 2.3a1.72 1.65-72.9 0 1 .45.89q.95 5.61.32 7.73-1.12 3.73-6.94 9.15z"/><path fill="#477e8c" d="M112.79 148.07c4.08-2.81 3.95 5.65 5.18 5.71q.01 3.42-.42 6.78c-.58 4.45-3.32 8.41-5.31 12.56a.51.51 0 0 0 .86.54q5.9-7.45 5.86-17.32-.01-1.6.36-2.29c3.59 1.87 2.28 8.34 2.67 11.51-.3 6.72-5.66 10.49-8.77 15.84q-.79.93-1.09 2.36a.46.46 0 0 0 .68.49l2.5-1.43q.86-.49.24.29-1.85 2.3-3.72 3.48-11.2 7.08-25.81 14.2l-9.96 3.27a.6.59 72.7 0 0-.38.73c.66 2.23 1.87 8.59-1.36 9.46.19-1.94 2.02-3.22.84-4.91q-.28-.4-.33-.88l-.26-2.69a.45.45 0 0 0-.78-.27l-3.8 4.06q-.32.35-.54-.07l-4.98-9.73q.82-.05 1.81.35 1.02 1.88 4.24 1.75c4.98-.2 8.49-1.74 11.57-5.96 3.8-5.18 8.36-9.28 12.29-14.18 1.26-1.58 3.49-3.05 4.34-3.96q4.08-4.4 4.5-10.72a2.32 2.32 0 0 1 1.04-1.8q3.5-2.33 4.16-6.24.28-3.05.61-6.08c.34-3.15-.95-5.36-1.67-8.25a.68.68 0 0 1 1.29-.42l2.53 6.28q.19.48.6.17 2.28-1.72 1.01-2.63zm-4.06 19.73c2.9.93 5.64-7.34 6.92-9.23q.28-.41.28-.91c.01-.98-.89-5.67-.25-6.27q.38-.34-.04-.63l-1.5-1.05q-.55-.38-.76.26c-1.7 5.33-2.17 10.37-5.58 14.93a1.87 1.87 0 0 0 .93 2.9z"/><path fill="#124553" d="M115.65 158.57c-1.28 1.89-4.02 10.16-6.92 9.23a1.87 1.87 0 0 1-.93-2.9c3.41-4.56 3.88-9.6 5.58-14.93q.21-.64.76-.26l1.5 1.05q.42.29.04.63c-.64.6.26 5.29.25 6.27q0 .5-.28.91zM117.97 153.78q.51-.07 1.35.27-.37.69-.36 2.29.04 9.87-5.86 17.32a.51.51 0 0 1-.86-.54c1.99-4.15 4.73-8.11 5.31-12.56q.43-3.36.42-6.78zM86.2 169.6q-.69.4-3.48-.96l2.81-3.65q.31-.4.81-.47.48-.07.58-.61.08-.42.39-.71l4.8-4.71q.41-.4.99-.41 2.45-.05 3.6-2.22.26-.49.59-.04c1.38 1.93-3.63 6.24-5.27 7.44q-3.66 2.68-5.82 6.34z"/><path fill="#d5d5d5" d="m154.38 178.01 1.88 15.5-9.73.3a2.1 2.1 0 0 0-2.03 2.1v7.7q0 .57.45.92.65.5 1.62.77l.03 7.49-7.57.27-8.88-.27q-.64-.02-.64-.65 0-2.08-.35-4.14-.03-.16-.18-.09-.11.05-.25.08-.38.07-.41.46l-.24 3.42q-.04.48-.49.65-2.64 1.02-3.81-.29l-.4-6.57q1.88 1.08 2.67.27 2.93-.03 4.89-1.32.48-.31.49-.88l.13-4.97q.77 1.07 1.54 1.43.51.24.8-.24c2.91-4.63 7.17-10.35 7.75-15.59.45-4.08-.19-11.77-4.69-13.36-4.18-1.47-6.6 6.19-8.02 9.04a2.3 2.28 83.9 0 1-.6.75l-6.77 5.41c-3.46-10.3 7.07-11.11 9.73-18.93.74-2.19 4.15-2.14 6.52-2.19 3.97-.09 5.44-5.17 6.68-8.1a.53.53 0 0 1 1.01.1c.41 2.11 1.2 3.93 1.19 6.02q-.09 12.55 4.29 24.28a1.52 1.52 0 0 0 2.94-.6c-.08-2.13 1.61-4.17-.07-6.37q-.3-.4-.11-.86l.63-1.54z"/><path fill="#e2e2e3" d="M51.96 177.12q-1.14.83-.71 3.61c-1.18 1.64-3.53 3.03-2.47 5.22q-.72.8-.46 1.37L25.48 208.4q-.4.37-.36-.17c1.11-15.66 3.4-33.61 11.36-47.24 5.82-9.96 14.9 13.87 15.48 16.13z"/><path fill="#7dadb7" d="M108.42 159q-.66 3.91-4.16 6.24a2.32 2.32 0 0 0-1.04 1.8q-.42 6.32-4.5 10.72c-.85.91-3.08 2.38-4.34 3.96-3.93 4.9-8.49 9-12.29 14.18-3.08 4.22-6.59 5.76-11.57 5.96q-3.22.13-4.24-1.75l-1.72-3c3.96-.73 6.39-2.2 9.05-5.57q4.86-6.17 12.4-13.03 3.92-3.55 13.91-14.04.39 1.31-1.75 2.91-.31.23-.18.6.05.15.1.29.05.15.16.03 2.17-2.23 4.86-3.79.46-.27.73-.73 1.71-3.02 4.58-4.78z"/><path fill="#b5b6b5" d="M154.04 166.5q-.48 6.09 2.21 11.5l3.59 16.24-3.58-.73-1.88-15.5c-.91-4.52-2.61-7.24-.62-12.31q.11-.28.21.01.11.32.07.79z"/><path fill="#124553" d="M121.99 165.56q.53-.08.84.31.88.53.69 2.1-3.78 8.25-10.3 13.43c3.11-5.35 8.47-9.12 8.77-15.84z"/><path fill="#423531" d="M154.04 166.5c.63-.11 2.81 11.16 2.9 11.46l-.69.04q-2.69-5.41-2.21-11.5z"/><path fill="#316d61" d="M123.52 167.97q-.14 6.58-4.19 11.68a1.13 1.12 60.2 0 0-.24.89l1.51 9.44.74 3.4q-2.62.11-4.86 1.27a.68.65 77.3 0 0-.36.6l.06 8.54a1.1 1.09 18.1 0 0 .46.89q.74.54 1.67.75l-.24 6.89a.39.38-85.8 0 1-.42.37q-6.34-.59-12.56.79a1.09 1.08-84.5 0 0-.76.63q-1.17 2.82-1.03 5.54l.14 3.39-6.83 6.16q-.39.36-.45.88-.15 1.4-1.76 2.09c-3.76 1.63-12.29 8.07-6.11 12.36q3.06 2.13 6.03 2.12-.14.08-.29.16l-13.25-.23q1.58-9.93 2.94-20.02c1.18-8.79 2.73-16.72 2.3-25.77q14.61-7.12 25.81-14.2 1.87-1.18 3.72-3.48.62-.78-.24-.29l-2.5 1.43a.46.46 0 0 1-.68-.49q.3-1.43 1.09-2.36 6.52-5.18 10.3-13.43z"/><path fill="#c9cbcb" d="m131.56 198.76-.11-4.18q-4.99-1.78-10.11-1.2l-.74-3.4q2.23.88.97-3.78l6.77-5.41a2.3 2.28 83.9 0 0 .6-.75c1.42-2.85 3.84-10.51 8.02-9.04 4.5 1.59 5.14 9.28 4.69 13.36-.58 5.24-4.84 10.96-7.75 15.59q-.29.48-.8.24-.77-.36-1.54-1.43z"/><path fill="#584b45" d="m51.96 177.12 1.24 6.5q.09.51-.35.79l-4.53 2.91q-.26-.57.46-1.37 4.37-1.9 2.47-5.22-.43-2.78.71-3.61z"/><path fill="#a4a7a8" d="M51.25 180.73q1.9 3.32-2.47 5.22c-1.06-2.19 1.29-3.58 2.47-5.22z"/><path fill="#618e99" d="M63.07 183.31q-.8 1.96-2.16 2.82a1.9 1.89 60.5 0 0-.68 2.47l4.33 8.51 1.72 3q-.99-.4-1.81-.35l-6.04-11.66q-.31-.6-.7-.05l-.39.55q-.98-2.38-.49-4.56a1.1 1.05-7.1 0 1 .61-.75q2.5-1.14 5.61.02z"/><path fill="#124553" d="m64.47 199.76 4.98 9.73q.22.42.54.07l3.8-4.06a.45.45 0 0 1 .78.27l.26 2.69q.05.48.33.88c1.18 1.69-.65 2.97-.84 4.91l-1.73.42q-5.02-5.1-8.9-12.8-3.66-6.02-6.35-13.27l.39-.55q.39-.55.7.05l6.04 11.66z"/><path fill="#efcad5" d="M121.34 193.38q5.12-.58 10.11 1.2-1.72 1.52-4.41 1.75-.62.06-.65.67l-.34 8.93q-.79.81-2.67-.27-1.2.6-2.04.15l-3.03-.38q-.93-.21-1.67-.75a1.1 1.09 18.1 0 1-.46-.89l-.06-8.54a.68.65 77.3 0 1 .36-.6q2.24-1.16 4.86-1.27zM156.26 193.51l3.58.73.28 1.05q-2.12.24-3.67 1.26-.44.28-.48.8l-.56 8.36q-.47-.04-.56.73l-7.1-.94q-.59-.39-1.18-.2-.97-.27-1.62-.77-.45-.35-.45-.92v-7.7a2.1 2.1 0 0 1 2.03-2.1l9.73-.3zM188.39 195.01l-3.63 1.33q-.46.18-.47.67l-.14 8.52q0 .14.13.19.23.09.21.37l-7.35-.1q-.5-.97-3-.76-2.04-3.49-1.09-9.66c.55-3.56 12.93-1.36 15.34-.56z"/><path fill="#ce9baa" d="m131.45 194.58.11 4.18-.13 4.97q-.01.57-.49.88-1.96 1.29-4.89 1.32l.34-8.93q.03-.61.65-.67 2.69-.23 4.41-1.75zM160.12 195.29l.31 1.71q-.29.01-.55.16-.46.26-.38.79.43 3.16.2 6.37-.04.56-.58.71l-2.84.81q-.54.02-.87-.13l.56-8.36q.04-.52.48-.8 1.55-1.02 3.67-1.26zM188.39 195.01l.16 5.34-.21 3.81q-.03.55-.54.75-2.19.84-1.51 3.58l-.06 4.47q-.31-.34-1.15-.25l.36-6.28q.03-.6-.55-.45l-.4.11q.02-.28-.21-.37-.13-.05-.13-.19l.14-8.52q.01-.49.47-.67l3.63-1.33z"/><path fill="#d5d5d5" d="m160.43 197 2.66 15.69q-2.07.65-4.41.17-.51-.11-.81-.54-1.79-2.55-1.59-6.48l2.84-.81q.54-.15.58-.71.23-3.21-.2-6.37-.08-.53.38-.79.26-.15.55-.16z"/><path fill="#c9cbcb" d="M86.02 200.79c.43 9.05-1.12 16.98-2.3 25.77q-1.36 10.09-2.94 20.02l-5.01-.14-4.01-.37q-.64-.06-.19-.52l.35-.34q.37-.37.34-.89c-.43-8.53-8.13-7.45-12.88-11.4l15.23-15.15q.35-.34.35-.83.01-1.95-2.37-2.27l1.73-.42c3.23-.87 2.02-7.23 1.36-9.46a.6.59 72.7 0 1 .38-.73l9.96-3.27z"/><path fill="#e2e2e3" d="M63.69 201.87q3.88 7.7 8.9 12.8 2.38.32 2.37 2.27 0 .49-.35.83l-15.23 15.15-8.07 7.55c-10.91 9.85-24.62 11.67-38.33 10.14 1.73-.05 12.42.28 12.83-.89q.12-.37.39-.65 7.51-8.18 15.78-15.59c4.73-4.24 9.07-8.93 13.71-13.29 3.1-2.9 6.04-7.61 6.93-12.21q.54-2.85 1.07-6.11z"/><path fill="#a4a7a8" d="M146.57 205.3q.59-.19 1.18.2l.07 7.17q-.52-.2-1.22.12l-.03-7.49z"/><path fill="#c9cbcb" d="M174.14 205.23q2.5-.21 3 .76l.82 3.43q-1.4.39-1.22 2.54.04.55-.47.73-.7.25-1.52-.04.33-1.74-.75-2.41 2.29-2.93.14-5.01z"/><path fill="#7dadb7" d="m118.31 205.43 3.03.38q-2.2 3.09-.99 6.43a.8.79-7 0 0 .67.52q2.19.26 2.76-.53 1.17 1.31 3.81.29.45-.17.49-.65l.24-3.42q.03-.39.41-.46.14-.03.25-.08.15-.07.18.09.35 2.06.35 4.14 0 .63.64.65l8.88.27-7.92 1.18q-.5.08-.84.46-1.1 1.23-3.28.6-3.04-.89-7.48 1.24-1.17-.34-2.05-.12-.68.17-.21.69 1.29 1.44 3.46 1.08 4.25.78 8.1-.3c5.4-1.51 11.04-1.45 16.5-1.37q.75 1.88 3.65 1.61 4.85 1.25 9.98-.79l12.39-1.41a.94.93-79.1 0 0 .7-.48q.4-.75 1.35-.37.41.17.63.56l.3.53c-2.34 1.13 2.68 2.05 3.18 2.04 4.95 1.27 8.54-.48 12.68-.98q4.14-.5 8.37-1.47l1.93 2.33q.18.78.88 1.38-.07.2-.12.44a.54.54 0 0 1-.41.44l-3.61.89a.77.77 0 0 0-.59.8l.15 2.16q.02.45-.42.48l-4.31.38q-1.15-.58-2.34-.02l-3.34-.07-9.53.01h-2.09l-9.24-.15q-.42-.01-.49.42l-.05.27-.23-.33q-.25-.34-.68-.34l-6.21.13-2.42.01-6.8-.16q-.87-.02-.87.85l.02 11.78q-1.14.19-1.29-.04v-11.89q0-.53-.53-.54l-16.49-.17q-.72.61-1.19.34-1.09-.7-3.27-.03-2.44-.95-5-.25l-1.47-.06-10.27-.17.44-.54q.24-.29-.03-.56l-.22-.23q-.21-.2-.09-.46l.65-1.47q.2-.45-.29-.55l-5.42-1.19q-.14-2.72 1.03-5.54a1.09 1.08-84.5 0 1 .76-.63q6.22-1.38 12.56-.79a.39.38-85.8 0 0 .42-.37l.24-6.89z"/><path fill="#d5d5d5" d="m147.75 205.5 7.1.94.07 5.88q0 .6-.6.58l-6.5-.23-.07-7.17z"/><path fill="#477e8c" d="m123.38 205.66.4 6.57q-.57.79-2.76.53a.8.79-7 0 1-.67-.52q-1.21-3.34.99-6.43.84.45 2.04-.15z"/><path fill="#618e99" d="M155.41 205.71q.33.15.87.13-.2 3.93 1.59 6.48.3.43.81.54 2.34.48 4.41-.17l11.66-.04q.82.29 1.52.04.51-.18.47-.73-.18-2.15 1.22-2.54l.92 2.93q.17.54.74.53l5.46-.17q.84-.09 1.15.25c4.46.36 9.5-.76 12.31 2.8q-4.23.97-8.37 1.47c-4.14.5-7.73 2.25-12.68.98l-.55-1.27q-.2-.47-.71-.35-1.12.29-1.92-.42l-.3-.53q-.22-.39-.63-.56-.95-.38-1.35.37a.94.93-79.1 0 1-.7.48l-12.39 1.41q-6.07-3.51-10.11-1.05-1.5.48-3.52.23c-5.46-.08-11.1-.14-16.5 1.37q-3.85 1.08-8.1.3l.26-.8q.19-.55-.34-.8-.51-.25-1.12-.05 4.44-2.13 7.48-1.24 2.18.63 3.28-.6.34-.38.84-.46l7.92-1.18 7.57-.27q.7-.32 1.22-.12l6.5.23q.6.02.6-.58l-.07-5.88q.09-.77.56-.73z"/><path fill="#e2e2e3" d="m177.14 205.99 7.35.1.4-.11q.58-.15.55.45l-.36 6.28-5.46.17q-.57.01-.74-.53l-.92-2.93-.82-3.43z"/><path fill="#316d61" d="M158.94 217.34q-5.13 2.04-9.98.79l-.13-1.84q4.04-2.46 10.11 1.05z"/><path fill="#124553" d="M119.51 216.54q.61-.2 1.12.05.53.25.34.8l-.26.8q-2.17.36-3.46-1.08-.47-.52.21-.69.88-.22 2.05.12zM148.83 216.29l.13 1.84q-2.9.27-3.65-1.61 2.02.25 3.52-.23zM174.31 216.17q.8.71 1.92.42.51-.12.71.35l.55 1.27c-.5.01-5.52-.91-3.18-2.04z"/><path fill="#618e99" d="m201.35 219.47.09 3.96a.83.82-6.7 0 1-.66.83l-3.33.68q-.45.1-.45.55v13.29a2.01 1.95 29.6 0 0 .31 1.06l3.2 5.03q-2.25 1.3-4.73 1.35-.58.01-.58-.58l.08-16.38a.72.71 70.4 0 0-1.17-.56c-.74.62-.43 5.99-1.29 8.6l-.78-12.24 4.31-.38q.44-.03.42-.48l-.15-2.16a.77.77 0 0 1 .59-.8l3.61-.89a.54.54 0 0 0 .41-.44q.05-.24.12-.44z"/><path fill="#8fbfc8" d="m103.3 219.65 5.42 1.19q.49.1.29.55l-.65 1.47q-.12.26.09.46l.22.23q.27.27.03.56l-.44.54q-3.54-.2-4.82-1.61l-.14-3.39z"/><path fill="#4b8a7d" d="M103.44 223.04q1.28 1.41 4.82 1.61l10.27.17q-.71 6.83.37 13.66l-5.06 1.08q-.45.1-.46.56l-.04 3.51q-.01.53.52.56 1.89.14 3.53-.6.11.37 1.15.67-2.68 1.84-5.76 1.64-.59-.04-.71-.62l-.36-1.8c.11-4.24.75-18.26-1.55-17.6q-.43.12-.44.57l-.2 11.14c-6.28-.52-7.03 4.36-6.23 9.24l-8.97-.18q-2.97.01-6.03-2.12c-6.18-4.29 2.35-10.73 6.11-12.36q1.61-.69 1.76-2.09.06-.52.45-.88l6.83-6.16zM125 225.13l1.46 12.6-3.68.56q-.46.07-.85.34-1.35.97-2.22-.28l.29-13.47q2.56-.7 5 .25z"/><path fill="#a4a7a8" d="m120 224.88-.29 13.47q-.43-.35-.81.13-1.08-6.83-.37-13.66l1.47.06z"/><path fill="#e2e2e3" d="m128.27 225.16.03 12.05-1.08.58-.76-.06-1.46-12.6q2.18-.67 3.27.03z"/><path fill="#a4a7a8" d="M129.46 224.82c.12 3.29-.75 9.29.52 11.94l-1.68.45-.03-12.05q.47.27 1.19-.34z"/><path fill="#e2e2e3" d="M146.48 237.42c-2.41.11-15.54 1.16-16.5-.66-1.27-2.65-.4-8.65-.52-11.94l16.49.17q.53.01.53.54v11.89z"/><path fill="#d5d5d5" d="m155.42 224.99.21 12.59-7.86-.12-.02-11.78q0-.87.87-.85l6.8.16zM164.96 225.52l1.5 12.1-8.7-.18.08-12.46 6.21-.13q.43 0 .68.34l.23.33z"/><path fill="#124553" d="m192.04 225.06.78 12.24-.08 4.63q-3.9-1.96-3.18-4.17l.14-12.72q1.19-.56 2.34.02z"/><path fill="#a4a7a8" d="m155.42 224.99 2.42-.01-.08 12.46-2.13.14-.21-12.59z"/><path fill="#c9cbcb" d="M174.74 224.98h2.09q1.03 6.3.32 12.81-.13-.08-.34 0-1.73-.04-2.1-1.03l.03-11.78z"/><path fill="#a4a7a8" d="m176.83 224.98 9.53-.01-.07 12.58q-.45 1.22-1.46 1.41-.46.09-.55-.38c-.15-.74-1.17-.76-1.59-.36l-5.54-.43q.71-6.51-.32-12.81z"/><path fill="#8fbfc8" d="M111.71 243.48q-.8.81-.76 1.83.01.35-.34.4l-.29.04q-.4.06-.42-.35l-.38-7.81.2-11.14q.01-.45.44-.57c2.3-.66 1.66 13.36 1.55 17.6z"/><path fill="#7dadb7" d="M200.51 244.87q1.66 2.65.64 5.36a1.37 1.34-4 0 1-.63.71q-1.6.86-3.63.81-1.05-.26-2.65.13l-7.24-.04q-.51.44-.82-.01l-11.64-.03-15.77.01q-.56 0-.7.54l-.3 1.19-.06-1.05q-.03-.53-.55-.68-.67-.18-1.38-.03l-9.54.04h-16.8q-.74.25-1.48.07l-9.72-.13-4.49-.08q-.85-.35-1.59-.12a.76.75-8.8 0 0-.52.7l-.13 16.22a.74.74 0 0 1-.62.72l-.68.12q-.17-.04-.33-.13-.37-.2-.36-.63l.33-16.24a.77.77 0 0 0-.74-.78c-3.15-.15-6.55-.69-5.82-4.71-.8-4.88-.05-9.76 6.23-9.24l.38 7.81q.02.41.42.35l.29-.04q.35-.05.34-.4-.04-1.02.76-1.83l.36 1.8q.12.58.71.62 3.08.2 5.76-1.64 4 .46 8.06.1c4.26-.38 7.78-3.29 12.4-3.37 1.67-.03 6.46-1.5 6.73-.04q.09.48-.27.81-.29.26-.29.61.94 2.08 3.84 1.76c3.79-.59 5.92 1.15 9.98-.86q5.61-2.78 14.14-2.83.46 0 .78.32.47.46.11.93c-2.13 1.19 1.55 2.62 2.52 2.67q4.88.5 9.77-.27 1.4-.22 6.43-2.16l.08-4.63c.86-2.61.55-7.98 1.29-8.6a.72.71 70.4 0 1 1.17.56l-.08 16.38q0 .59.58.58 2.48-.05 4.73-1.35z"/><path fill="#b5b6b5" d="M59.38 232.92c4.75 3.95 12.45 2.87 12.88 11.4q.03.52-.34.89l-.35.34q-.45.46.19.52l4.01.37-24.73.02q-.63 0-.53-.61l.8-5.38 8.07-7.55z"/><path fill="#477e8c" d="M129.98 236.76c.96 1.82 14.09.77 16.5.66q.15.23 1.29.04l7.86.12 2.13-.14 8.7.18 7.35-.06q.42 0 .64-.36l.26-.44q.37.99 2.1 1.03.37 1.24 0 2.79-.14.6.47.5l4.58-.71q.54-.09.75-.59.31-.71.08-1.56c.42-.4 1.44-.38 1.59.36q.09.47.55.38 1.01-.19 1.46-1.41l3.27.21q-.72 2.21 3.18 4.17-5.03 1.94-6.43 2.16-4.89.77-9.77.27.77-.74.1-2.08-.22-.43-.7-.37-1.01.12-1.92-.22.36-.47-.11-.93-.32-.32-.78-.32-8.53.05-14.14 2.83c-4.06 2.01-6.19.27-9.98.86q-.5-2.51-3.84-1.76 0-.35.29-.61.36-.33.27-.81c-.27-1.46-5.06.01-6.73.04-4.62.08-8.14 2.99-12.4 3.37q-4.06.36-8.06-.1-1.04-.3-1.15-.67-.51-.82-.38-1.54a.45.45 0 0 1 .66-.32c.97.52 7.06-1.32 8.31-1.62 1.36-.33 1.51-1.07 1.24-2.32l1.08-.58 1.68-.45z"/><path fill="#7dadb7" d="m126.46 237.73.76.06c.27 1.25.12 1.99-1.24 2.32-1.25.3-7.34 2.14-8.31 1.62a.45.45 0 0 0-.66.32q-.13.72.38 1.54-1.64.74-3.53.6-.53-.03-.52-.56l.04-3.51q.01-.46.46-.56l5.06-1.08q.38-.48.81-.13.87 1.25 2.22.28.39-.27.85-.34l3.68-.56z"/><path fill="#618e99" d="M176.81 237.79q.21-.08.34 0l5.54.43q.23.85-.08 1.56-.21.5-.75.59l-4.58.71q-.61.1-.47-.5.37-1.55 0-2.79z"/><path fill-opacity=".176" d="m51.31 240.47-.8 5.38q-.1.61.53.61l24.73-.02 5.01.14 13.25.23q-1.44.35-1.41.68a1.74 1.74 0 0 1-1.89 1.88q-3.94-.37-7.6.35c-5.21 1.02-9.75.75-14.79 1.19q-.3.03-.35.32-.03.15-.07.26-.05.18-.24.15c-4.5-.73-8.41.82-12.26.85q-3.07.04-6.15 0-.49-.01-.84.33c-2.4 2.36-11.77-.19-18.05 1.39-6.08 1.54-14.9.59-20.34-.36q-.49-.08-.82-.46-.8-.91-1.98-.67-.51.1-.81-.31-.84-1.17-2.15-1.78-.26-.13-.21-.41l.25-1.27q.12-.62.73-.49 1.4.29 1.25-.69 2.87 2.35 6.68 2.84c13.71 1.53 27.42-.29 38.33-10.14z"/><path fill="#124553" d="M174.02 241.69q.91.34 1.92.22.48-.06.7.37.67 1.34-.1 2.08c-.97-.05-4.65-1.48-2.52-2.67z"/><path fill="#07342b" d="M149.01 244.13q-2.9.32-3.84-1.76 3.34-.75 3.84 1.76z"/><path fill="#477e8c" d="m113.75 251.68.51 9.41c-1.9.59-.73 5.98-.39 7.57q-1.63 1.37-3.66.66l.68-.12a.74.74 0 0 0 .62-.72l.13-16.22a.76.75-8.8 0 1 .52-.7q.74-.23 1.59.12z"/><path fill="#d5d5d5" d="m127.96 251.89.03 2.05q.01.5-.46.68-4.65 1.76-9.11.92l-.18-3.78 9.72.13z"/><path fill="#a4a7a8" d="M186.18 251.83q.52 6.26-3.76 7.78-3.08.53-5.4-.73-3.12-3.01-2.48-7.08l11.64.03z"/><path fill="#618e99" d="m196.89 251.75-.05 6.98.48 10.37q-.5.6-1.04.3-.03-.12.04-.33.1-.29-.16-.43c-2.14-1.21-.52-3.83-.16-5.58q.1-.51-.1-.98-.89-2.13-.59-4.52.06-.47-.33-.75-1.14-.83-1.96.19-.37-3.02 1.22-5.12 1.6-.39 2.65-.13z"/><path fill="#c9cbcb" d="M129.44 251.82q.59 3.98-1.76 6.45-1.91 1.32-4.6 1.41-3.76-.99-4.66-4.14 4.46.84 9.11-.92.47-.18.46-.68l-.03-2.05q.74.18 1.48-.07zM155.78 251.78c1.16 3.06-7.42 3.13-9.28 3.48l-.26-3.44 9.54-.04z"/><path fill="#a4a7a8" d="M155.78 251.78q.71-.15 1.38.03.52.15.55.68l.06 1.05q.32 1.87-1.35 4.71-4.97 3.54-9.11-.94-.76-1.11-.81-2.05c1.86-.35 10.44-.42 9.28-3.48z"/><path fill="#124553" d="M194.24 251.88q-1.59 2.1-1.22 5.12l.01 5.19q-2.81.46-4.32-1.19 1.17-4.15.72-8.49-.04-.46-.5-.5l-1.93-.17 7.24.04z"/><path fill="#7dadb7" d="M196.28 269.4q-2.92.63-3.89-.72l.64-6.49-.01-5.19q.82-1.02 1.96-.19.39.28.33.75-.3 2.39.59 4.52.2.47.1.98c-.36 1.75-1.98 4.37.16 5.58q.26.14.16.43-.07.21-.04.33z"/><path fill-opacity=".176" d="M147.31 257.31q4.14 4.48 9.11.94 10.31 1.29 20.6.63 2.32 1.26 5.4.73-1.73 2.8 2.6-.54a.91.75-5 0 1 1.37.94q-.23.29-.14.49a.9.61 78.7 0 0 .5.49q.82.21 1.32-.44.2-.26.19.07-.01.17-.01.34a.3.3 0 0 0 .24.29q.25.05.22-.25 1.51 1.65 4.32 1.19l-.64 6.49q-1.48-.57-2.58.72a.98.97 19.5 0 1-.75.35q-36.78.01-73.56 0-1.01 0-1.63-1.09c-.34-1.59-1.51-6.98.39-7.57l8.82-1.41q2.69-.09 4.6-1.41c-.3 2.09 16.29.81 18.34.76q.48-.01.82-.35.52-.54.47-1.37zM196.84 258.73l.41 1.5q.15.57.68.3c3.34-1.73 10.08-1.17 14.78-.84q.52.04.83.45.11.15.25.26.17.14.37.06 1.51-.58 2.59.5.32.32.78.27 1.99-.21 2.79 1.66.16.38.54.53 1.06.42 1.45-.55.32-.8 1-.27.86.67 2.12.41a.43.38-58.6 0 1 .14.8q-1.66.69-3.44.71-.48 0-.75.39-1.53 2.14-4.07 1.85-.55-.06-1.01.23-1.51.96-3.31.75a1.11 1.09 25.9 0 0-.92.31l-.31.31q-.31.31-.75.33l-13.69.41-.48-10.37z"/></svg>