<svg xmlns="http://www.w3.org/2000/svg" viewBox="0 0 256 137"><g stroke-width="2" fill="none"><path stroke="#8c5875" vector-effect="non-scaling-stroke" d="m42.41 11.03-5.36 5.85"/><path stroke="#434f84" stroke-opacity=".557" vector-effect="non-scaling-stroke" d="m37.05 16.88-.33-5.19"/><path stroke="#353e6d" vector-effect="non-scaling-stroke" d="m36.72 11.69.25-.41a1.72 1.72 0 0 0-1.5-2.61l-23.15.36a3.53 3.53 0 0 0-3.48 3.45c-.12 4.76-1.6 21.27 1.14 24.67a1.03 1.03 0 0 0 .88.38l3.64-.29"/><path stroke="#394472" stroke-opacity=".659" vector-effect="non-scaling-stroke" d="m14.5 37.24 18.18-.03"/><path stroke="#353e6d" vector-effect="non-scaling-stroke" d="M32.68 37.21q5.32 1.73 6.85-3.48a.45.45 0 0 1 .89.13c-.02 5.19-3.59 6.62-8.34 6.73q-12.7.29-25.02-.88"/><path stroke="#1a1d3a" stroke-opacity=".659" vector-effect="non-scaling-stroke" d="M32.68 37.21q4.02-.17 3.31-2.04"/><path stroke="#1e2141" stroke-opacity=".557" vector-effect="non-scaling-stroke" d="M36.72 11.69q-1.97-.89-4.49-.89-9.93.02-19.08.25a2.37 2.36-.4 0 0-2.31 2.33c-.1 7.42-.92 16.07.28 22.41q.1.51.54.78 1.13.71 2.85.41"/><path stroke="#1a1d3a" stroke-opacity=".659" vector-effect="non-scaling-stroke" d="M14.51 36.98q0 .13-.01.26"/><path stroke="#b54544" vector-effect="non-scaling-stroke" d="M47.23 9.3c2.16 5.13-6.15 13.04-9.22 15.19q-.81.57-1 2.03-.07.58.34.16l2.99-3.05a.47.47 0 0 1 .69.63l-8 9.43a1.49 1.43-76.8 0 1-.71.46q-2.04.58-3.83-.44"/><path stroke="#9f4546" stroke-opacity=".659" vector-effect="non-scaling-stroke" d="m28.49 33.71-2.71-2.09"/><path stroke="#bb5150" stroke-opacity=".557" vector-effect="non-scaling-stroke" d="M25.78 31.62q-3.88-3.29-7.92-6.72c-5.36-4.56 1.93-11.65 5.58-9.1q4.11 2.87 7.58 6.04a1.12 1.11-47.7 0 0 1.57-.08l4.46-4.88"/><path stroke="#191d38" stroke-opacity=".729" vector-effect="non-scaling-stroke" d="m42.55 32.6-.27-4.92"/><path stroke="#1a1d3a" stroke-opacity=".659" vector-effect="non-scaling-stroke" d="m42.03 37.46.52-4.86"/><path stroke="#1e2141" stroke-opacity=".557" vector-effect="non-scaling-stroke" d="M13.25 42.77q11.14-.37 22.31-.33 4.18.01 6.47-4.98"/><path stroke="#6e2528" stroke-opacity=".729" vector-effect="non-scaling-stroke" d="m51.78 16.68-9.5 11"/><path stroke="#5e2a3c" vector-effect="non-scaling-stroke" d="M42.28 27.68q-4.08 3.4-6.29 7.49"/><path stroke="#772628" stroke-opacity=".659" vector-effect="non-scaling-stroke" d="M35.99 35.17q-3.97 2.88-7.5-1.46"/><path stroke="#3c4980" vector-effect="non-scaling-stroke" d="M199 14.83c-.23 3.1-7.68 3.46-10.04 3.24-4.09-.38-8.35.24-12.32-.46-2.57-.45-5.38.71-7.5.71-10.74.01-23.36.61-32.18.79-13.34.28-27.01-.06-40.28 1.19-4.29.4-8.62.09-12.7 1.16-5.91 1.55-2.83 8.82-10.24 10.74"/><path stroke="#2d3562" vector-effect="non-scaling-stroke" d="M203.34 16.47c-.62.57-.94.89-.8 1.8.7 4.72 2.39 13.84-4.05 14-8.69.2-17.67 1.01-25.99.99-23.19-.08-46.73.88-69.87-.18-7.47-.34-16.6.49-25.09-.72q-.51-.07-.82.33-.59.75-1.21.88"/><path stroke="#1e2141" stroke-opacity=".557" vector-effect="non-scaling-stroke" d="m204.79 17.96.98 2.25"/><path stroke="#1a1d3a" stroke-opacity=".659" vector-effect="non-scaling-stroke" d="M205.77 20.21c.04 5.47 1.78 13.66-6.28 14.46"/><path stroke="#191d38" stroke-opacity=".729" vector-effect="non-scaling-stroke" d="M199.49 34.67 81 35.01"/><path stroke="#1a1d3a" stroke-opacity=".659" vector-effect="non-scaling-stroke" d="M81 35.01q-.74-.36-2.06-.32"/><path stroke="#1e2141" stroke-opacity=".557" vector-effect="non-scaling-stroke" d="m78.94 34.69-2.7-.67"/><path stroke="#353e6d" vector-effect="non-scaling-stroke" d="M38.71 50.06q2.19 10.81 1.35 22.19c-.28 3.75 1.68 9.05-2.79 11.3q-1.95.98-7.61.95-10.6-.08-21.71.01"/><path stroke="#3c4980" vector-effect="non-scaling-stroke" d="M240.62 56.56c.79 3.04-14.76 1.89-16.53 1.84q-.1-.01-.09.09v.32q0 .31-.31.33c-11.25.67-24.66.72-33.74.98q-11.33.32-19.14.28c-24.32-.11-46.35 1.68-69.47 2.39q-8.17.26-16.25 1.68c-2.47.44-5.17 4.24-7.36 7.01q-.71.9-3.97 2.09"/><path stroke="#2d3562" vector-effect="non-scaling-stroke" d="m245.06 58.43-1.16.64a.75.74 69.1 0 0-.36.81c.58 2.68 2.11 13.22-2.54 13.52q-13.42.87-44.75.91-43.03.06-86.06-.08c-7.42-.02-21.06-.76-31.69-.03-.94.07-1.08.5-1.25 1.32"/><path stroke="#343f6f" stroke-opacity=".557" vector-effect="non-scaling-stroke" d="M77.25 75.52q-.3-.08-.43.06"/><path stroke="#1e2141" stroke-opacity=".557" vector-effect="non-scaling-stroke" d="M246.7 61.52q.97 3.67.41 7.19"/><path stroke="#1a1d3a" stroke-opacity=".659" vector-effect="non-scaling-stroke" d="M247.11 68.71q-.56 5.06-3.93 6.54"/><path stroke="#191d38" stroke-opacity=".729" vector-effect="non-scaling-stroke" d="M243.18 75.25c-2.27.39-4.28.75-6.6.75H79.24"/><path stroke="#1a1d3a" stroke-opacity=".659" vector-effect="non-scaling-stroke" d="m79.24 76-1.4-.22"/><path stroke="#1e2141" stroke-opacity=".557" vector-effect="non-scaling-stroke" d="M77.84 75.78q-.6.02-.59-.26"/><path stroke="#724461" vector-effect="non-scaling-stroke" d="m42.2 99.02-.71.53"/><path stroke="#8c5875" vector-effect="non-scaling-stroke" d="M41.49 99.55q-1.73-1.51-3.98.29"/><path stroke="#353e6d" vector-effect="non-scaling-stroke" d="m37.51 99.84-.41-.31q-.29-.23-.31-.6c-.13-3.07-9.79-2.15-11.74-1.89q-5.19.71-14.07-.32-.56-.07-.95.34c-2.62 2.8-1.25 16.02-1.24 24.73q0 1.35.37 2.2.84 1.89 2.17 1.22"/><path stroke="#434f84" stroke-opacity=".557" vector-effect="non-scaling-stroke" d="m11.33 125.21 5.42.23"/><path stroke="#724461" vector-effect="non-scaling-stroke" d="M16.75 125.44q2.66-.1 5.29 2.01"/><path stroke="#353e6d" vector-effect="non-scaling-stroke" d="M22.04 127.45q.19.06.31.25a.64.63 74.6 0 1-.55.97l-14.1-.17"/><path stroke="#8c2c2c" stroke-opacity=".557" vector-effect="non-scaling-stroke" d="M46.14 104.02q-.33 2.2-1.74 3.71"/><path stroke="#762629" stroke-opacity=".812" vector-effect="non-scaling-stroke" d="M44.4 107.73q-4.27 3.24-5.88 6"/><path stroke="#783f50" vector-effect="non-scaling-stroke" d="m37.51 99.84-.94.95"/><path stroke="#191d38" stroke-opacity=".729" vector-effect="non-scaling-stroke" d="m36.57 100.79-.25-.64q-.18-.45-.65-.55-5.35-1.09-10.34.5"/><path stroke="#783f50" vector-effect="non-scaling-stroke" d="M25.33 100.1q-2.04-2.04-4.96-.44"/><path stroke="#1e2141" stroke-opacity=".557" vector-effect="non-scaling-stroke" d="M20.37 99.66q-.77-.79-1.94.54-.28.32-.6.05-2.42-2.03-5.51-.76-.42.17-.61.58-.83 1.74-.91 4.19-.38 11.94.53 20.95"/><path stroke="#762629" stroke-opacity=".812" vector-effect="non-scaling-stroke" d="M32.75 121.45c-2.48-1.38-4.17 1.86-5.76 3.09"/><path stroke="#5e2a3c" vector-effect="non-scaling-stroke" d="M26.99 124.54q-2.38 2.83-4.95 2.91"/><path stroke="#8c2c2c" stroke-opacity=".557" vector-effect="non-scaling-stroke" d="M17.53 123.2q-.06.78.64 1.45.45.43-.16.55l-1.26.24"/><path stroke="#b54544" vector-effect="non-scaling-stroke" d="M41.49 99.55c1.69 5.48-.61 5.12-3.22 8.4-1.17 1.47-2.72 2.2-3.5 4.22q-.2.52.34.66l3.41.9"/><path stroke="#964042" stroke-opacity=".812" vector-effect="non-scaling-stroke" d="m38.52 113.73 4.42 4.05"/><path stroke="#bb5150" stroke-opacity=".557" vector-effect="non-scaling-stroke" d="M42.94 117.78q1.11.65 2.02 1.95"/><path stroke="#b54544" vector-effect="non-scaling-stroke" d="m44.96 119.73-4.39 5.48q-.32.39-.3.89.03.79-.53 1.12"/><path stroke="#783f50" vector-effect="non-scaling-stroke" d="M39.74 127.22q-.96.02-1.95-.77"/><path stroke="#87536f" vector-effect="non-scaling-stroke" d="m37.79 126.45-1.98-2.08"/><path stroke="#964042" stroke-opacity=".812" vector-effect="non-scaling-stroke" d="m35.81 124.37-3.06-2.92"/><path stroke="#b54544" vector-effect="non-scaling-stroke" d="m32.75 121.45-1.19-3.64a.97.97 0 0 0-1.73-.25l-2.06 2.99q-.24.35-.62.52-.92.42-1.39 1.3-.22.42-.62.67l-4.49 2.7a.69.69 0 0 1-.86-.12l-2.26-2.42"/><path stroke="#bb5150" stroke-opacity=".557" vector-effect="non-scaling-stroke" d="M17.53 123.2c-1.42-3.04 3.76-7.23 5.78-8.95a1.34 1.34 0 0 0 .03-2.01q-2.6-2.35-5.17-5.18c-2.78-3.06.29-5.31 2.2-7.4"/><path stroke="#914143" stroke-opacity=".729" vector-effect="non-scaling-stroke" d="m25.33 100.1 5.34 5.39a.87.86 44.8 0 0 1.23 0l4.67-4.7"/><path stroke="#1e2141" stroke-opacity=".557" vector-effect="non-scaling-stroke" d="M12.7 130.75q10.84 0 21.55-.08 4.4-.03 6.63-3.06"/><path stroke="#8c2c2c" stroke-opacity=".557" vector-effect="non-scaling-stroke" d="M40.88 127.61q6.62-4.5 4.08-7.88"/><path stroke="#3c385e" stroke-opacity=".812" vector-effect="non-scaling-stroke" d="M35.81 124.37q-.43 1.36-3.01 1.43"/><path stroke="#2a1f38" stroke-opacity=".812" vector-effect="non-scaling-stroke" d="M32.8 125.8q-5.2.44-5.81-1.26"/><path stroke="#5e2a3c" vector-effect="non-scaling-stroke" d="M40.88 127.61q-.61-.08-1.14-.39"/><path stroke="#2f3867" vector-effect="non-scaling-stroke" d="M37.79 126.45c1 3-8.81 1.99-10.11 1.69q-1.04-.24-.03-.59l5.15-1.75"/><path stroke="#343f6f" stroke-opacity=".557" vector-effect="non-scaling-stroke" d="m244.01 98.82-4.21-.77"/><path stroke="#394578" stroke-opacity=".557" vector-effect="non-scaling-stroke" d="M239.8 98.05c-6.88-.82-13.35-.57-19.8-.62q-51.37-.33-102.75-.14c-7.59.03-22.46.61-33.75.14"/><path stroke="#3c4980" vector-effect="non-scaling-stroke" d="M239.8 98.05q-3.42 3.08-9.56 2.51c-12.01-1.12-25.59-.26-37.81.19a.41.38-67.6 0 0-.29.13c-.37.38-.02.29-.6.3q-35.65.71-71.3 1.28c-7.7.12-15.39.68-23.11.85-3.85.08-7.68.85-11.47 1.2a5.82 5.81 12.7 0 0-4.43 2.79l-5.4 9"/><path stroke="#2d3562" vector-effect="non-scaling-stroke" d="M244.82 99.51q.15.78-.7 1.66a.99.98 61.7 0 0-.26.88q1.08 5.27-.9 10.24a1.45 1.44 83.4 0 1-.52.66c-4.5 3.06-11.44 1.53-16.42 2.1a.97.95 8.4 0 0-.78.57c-.46 1.1-1.16 1.45-2.4 1.43q-31.67-.28-63.35.2"/><path stroke="#2d3661" stroke-opacity=".659" vector-effect="non-scaling-stroke" d="m159.49 117.25-79.99.34"/><path stroke="#1a1d3a" stroke-opacity=".659" vector-effect="non-scaling-stroke" d="M245.91 100.53q1.83 5.64.75 11.82c-1 5.67-8.01 4.88-13.16 4.93q-36.99.35-74.01-.03"/><path stroke="#353e6d" vector-effect="non-scaling-stroke" d="M36.52 55.49q.57-2.51-1.18-2.65-5.45-.46-19.09-.04-4.13.13-6.91 1.09a.99.98 82.9 0 0-.64.83q-1.03 12 0 23.97a2.95 2.94-66.9 0 0 .63 1.57q1.51 1.85 2.05.53"/></g><path fill="#495792" d="m42.41 11.03-5.36 5.85-.33-5.19.25-.41a1.72 1.72 0 0 0-1.5-2.61l-23.15.36a3.53 3.53 0 0 0-3.48 3.45c-.12 4.76-1.6 21.27 1.14 24.67a1.03 1.03 0 0 0 .88.38l3.64-.29 18.18-.03q5.32 1.73 6.85-3.48a.45.45 0 0 1 .89.13c-.02 5.19-3.59 6.62-8.34 6.73q-12.7.29-25.02-.88c-3.23-3.76-1.82-20.92-1.83-26.46 0-6.46 4.86-7.98 10.64-7.99q9.45 0 18.91-.05 5.18-.02 7.63 5.82z"/><path fill="#202448" d="M36.72 11.69q-1.97-.89-4.49-.89-9.93.02-19.08.25a2.37 2.36-.4 0 0-2.31 2.33c-.1 7.42-.92 16.07.28 22.41q.1.51.54.78 1.13.71 2.85.41 0 .13-.01.26l-3.64.29a1.03 1.03 0 0 1-.88-.38c-2.74-3.4-1.26-19.91-1.14-24.67a3.53 3.53 0 0 1 3.48-3.45l23.15-.36a1.72 1.72 0 0 1 1.5 2.61l-.25.41z"/><path fill="#cf5958" d="M47.23 9.3c2.16 5.13-6.15 13.04-9.22 15.19q-.81.57-1 2.03-.07.58.34.16l2.99-3.05a.47.47 0 0 1 .69.63l-8 9.43a1.49 1.43-76.8 0 1-.71.46q-2.04.58-3.83-.44l-2.71-2.09q-3.88-3.29-7.92-6.72c-5.36-4.56 1.93-11.65 5.58-9.1q4.11 2.87 7.58 6.04a1.12 1.11-47.7 0 0 1.57-.08l4.46-4.88 5.36-5.85q2.11-2.32 4.82-1.73z"/><path fill="#9b3030" d="M47.23 9.3c2.68 1.27 6.15 4.04 4.55 7.38l-9.5 11q-4.08 3.4-6.29 7.49-3.97 2.88-7.5-1.46 1.79 1.02 3.83.44a1.49 1.43-76.8 0 0 .71-.46l8-9.43a.47.47 0 0 0-.69-.63l-2.99 3.05q-.41.42-.34-.16.19-1.46 1-2.03c3.07-2.15 11.38-10.06 9.22-15.19z"/><path fill="#0c0708" fill-opacity=".114" d="m36.72 11.69.33 5.19-4.46 4.88a1.12 1.11-47.7 0 1-1.57.08q-3.47-3.17-7.58-6.04c-3.65-2.55-10.94 4.54-5.58 9.1q4.04 3.43 7.92 6.72.82 3.25-.84 4.98a1.23 1.22 21.9 0 1-.88.37l-9.55.01q-1.72.3-2.85-.41-.44-.27-.54-.78c-1.2-6.34-.38-14.99-.28-22.41a2.37 2.36-.4 0 1 2.31-2.33q9.15-.23 19.08-.25 2.52 0 4.49.89z"/><path fill="#3e4c85" d="M199 14.83c-.23 3.1-7.68 3.46-10.04 3.24-4.09-.38-8.35.24-12.32-.46-2.57-.45-5.38.71-7.5.71-10.74.01-23.36.61-32.18.79-13.34.28-27.01-.06-40.28 1.19-4.29.4-8.62.09-12.7 1.16-5.91 1.55-2.83 8.82-10.24 10.74q-2.32-5.41-1-11.7c1.12-5.37 6.58-5.73 11-5.74q57.63-.08 115.26.07z"/><path fill="#39457b" d="m199 14.83 4.34 1.64c-.62.57-.94.89-.8 1.8.7 4.72 2.39 13.84-4.05 14-8.69.2-17.67 1.01-25.99.99-23.19-.08-46.73.88-69.87-.18-7.47-.34-16.6.49-25.09-.72q-.51-.07-.82.33-.59.75-1.21.88l-1.77-1.37c7.41-1.92 4.33-9.19 10.24-10.74 4.08-1.07 8.41-.76 12.7-1.16 13.27-1.25 26.94-.91 40.28-1.19 8.82-.18 21.44-.78 32.18-.79 2.12 0 4.93-1.16 7.5-.71 3.97.7 8.23.08 12.32.46 2.36.22 9.81-.14 10.04-3.24z"/><path fill="#0c0708" fill-opacity=".114" d="M13.25 42.77q11.14-.37 22.31-.33 4.18.01 6.47-4.98l4.47-7.93 3.23-3.34q.33-.35.55-.78 1.15-2.33 3.32-4 .35-.27.36-.72l.06-4.18q.01-.97.23-.02c.39 1.77.97 3.11.28 4.89q-1.58 4.07-4.12 6.51c-3.2 3.08-4.19 5.03-5.6 8.96q-1.79 4.98-7.08 6.81a1.35 1.35 0 0 1-.99-.03q-1.31-.57-2.46.26-.46.34-1.02.34-7.76.09-15.52-.06a.2.18-48 0 1 0-.38q.39-.09.69-.31.61-.47-.16-.5l-5.02-.21z"/><path fill="#202448" d="m203.34 16.47 1.45 1.49.98 2.25c.04 5.47 1.78 13.66-6.28 14.46L81 35.01q-.74-.36-2.06-.32l-2.7-.67-.73-.45q.62-.13 1.21-.88.31-.4.82-.33c8.49 1.21 17.62.38 25.09.72 23.14 1.06 46.68.1 69.87.18 8.32.02 17.3-.79 25.99-.99 6.44-.16 4.75-9.28 4.05-14-.14-.91.18-1.23.8-1.8z"/><path fill="#0b0d16" fill-opacity=".459" d="M51.78 16.68q1.95 1.5-.3 3.8-.23.24-.09.54.06.12.1.24.03.08-.06.09-1.37.17-.86 1.14-5.5 3.81-8.02 10.11l-.27-4.92 9.5-11z"/><path fill="#0c0708" fill-opacity=".114" d="m76.24 34.02 2.7.67q-.18.25.77.35.58.06.24.55c-2.07 2.98 13.69 3.87 15.3 3.87q69.19.15 92.44 0 6.02-.04 13.26-1.88.48-.12.87-.45.92-.78 2.21-.82.47-.01.83-.33c4.53-4.02 4.17-8.35 2.55-13.62q-.12-.39-.51-.52-.83-.28-1.13-1.63l-.98-2.25q.82.54 1.72.02.37-.22.62.13l3.05 4.38q.31.44.31.97c.02 3.29.93 10.24-1.45 12.63q-4.14 4.18-9.8 4.67c-2.6.22-5.19.98-7.43.98q-50.67.03-101.34 0c-3.14 0-8.17-1.75-10.98-3.31q-2.14-1.19-4.45-1.9a.67.66-36.3 0 1 .2-1.3q1.28.01 1-1.21z"/><path fill="#06070e" fill-opacity=".318" d="M205.77 20.21q.3 1.35 1.13 1.63.39.13.51.52c1.62 5.27 1.98 9.6-2.55 13.62q-.36.32-.83.33-1.29.04-2.21.82-.39.33-.87.45-7.24 1.84-13.26 1.88-23.25.15-92.44 0c-1.61 0-17.37-.89-15.3-3.87q.34-.49-.24-.55-.95-.1-.77-.35 1.32-.04 2.06.32.26.33.21.87-.04.44.37.6 2.48 1.02 4.92 1.02h110.74c1.26 0 1.95-.58 2.57-1.57a.25.25 0 0 0-.21-.39h-.39q-.16 0-.09-.14l.37-.73c8.06-.8 6.32-8.99 6.28-14.46zM50.57 22.49q.1 1.71-2.27 2.87-.43.21-.58.66l-1.22 3.51-4.47 7.93.52-4.86q2.52-6.3 8.02-10.11z"/><path fill="#202448" d="m42.28 27.68.27 4.92-.52 4.86q-2.29 4.99-6.47 4.98-11.17-.04-22.31.33-4.02-.48-6.19-3.06 12.32 1.17 25.02.88c4.75-.11 8.32-1.54 8.34-6.73a.45.45 0 0 0-.89-.13q-1.53 5.21-6.85 3.48 4.02-.17 3.31-2.04 2.21-4.09 6.29-7.49z"/><path fill="#06070e" fill-opacity=".318" d="m25.78 31.62 2.71 2.09q3.53 4.34 7.5 1.46.71 1.87-3.31 2.04l-18.18.03q.01-.13.01-.26l9.55-.01a1.23 1.22 21.9 0 0 .88-.37q1.66-1.73.84-4.98z"/><path fill="#0b0d16" fill-opacity=".459" d="m199.49 34.67-.37.73q-.07.14.09.14h.39a.25.25 0 0 1 .21.39c-.62.99-1.31 1.57-2.57 1.57H86.5q-2.44 0-4.92-1.02-.41-.16-.37-.6.05-.54-.21-.87l118.49-.34z"/><path fill="#495792" d="M38.71 50.06q2.19 10.81 1.35 22.19c-.28 3.75 1.68 9.05-2.79 11.3q-1.95.98-7.61.95-10.6-.08-21.71.01-2.58-1.38-2.67-5.77-.2-9.83-.02-19.66c.1-5.15 1.44-9.13 6.98-9.58q12.47-1.01 26.47.56zM11.38 80.79q12.43.98 24.05.12.57-.04.84-.56.55-1.04.58-2.67.31-13.79-.33-22.19.57-2.51-1.18-2.65-5.45-.46-19.09-.04-4.13.13-6.91 1.09a.99.98 82.9 0 0-.64.83q-1.03 12 0 23.97a2.95 2.94-66.9 0 0 .63 1.57q1.51 1.85 2.05.53z"/><path fill="#202448" d="M38.71 50.06q3.58 3.27 3.81 5.45.84 7.83.18 22.44c-.24 5.23-2.55 8.69-7.96 8.77-9.77.15-23.23 1.47-26.79-2.21q11.11-.09 21.71-.01 5.66.03 7.61-.95c4.47-2.25 2.51-7.55 2.79-11.3q.84-11.38-1.35-22.19z"/><path fill="#202448" d="m36.52 55.49-23.68-.17a1.51 1.5-88 0 0-1.51 1.41q-.77 11.75.05 24.06-.54 1.32-2.05-.53a2.95 2.94-66.9 0 1-.63-1.57q-1.03-11.97 0-23.97a.99.98 82.9 0 1 .64-.83q2.78-.96 6.91-1.09 13.64-.42 19.09.04 1.75.14 1.18 2.65z"/><path fill="#3e4c85" d="M240.62 56.56c.79 3.04-14.76 1.89-16.53 1.84q-.1-.01-.09.09v.32q0 .31-.31.33c-11.25.67-24.66.72-33.74.98q-11.33.32-19.14.28c-24.32-.11-46.35 1.68-69.47 2.39q-8.17.26-16.25 1.68c-2.47.44-5.17 4.24-7.36 7.01q-.71.9-3.97 2.09c-2.47-6.01-3.03-17.08 5.93-17.22q12.02-.19 24.06-.11c1.04 0 1.73-.49 2.69-.49h121.81q5.17 0 12.37.81z"/><path fill="#39457b" d="M240.62 56.56q2.58.22 4.44 1.87l-1.16.64a.75.74 69.1 0 0-.36.81c.58 2.68 2.11 13.22-2.54 13.52q-13.42.87-44.75.91-43.03.06-86.06-.08c-7.42-.02-21.06-.76-31.69-.03-.94.07-1.08.5-1.25 1.32q-.3-.08-.43.06l-3.06-2.01q3.26-1.19 3.97-2.09c2.19-2.77 4.89-6.57 7.36-7.01q8.08-1.42 16.25-1.68c23.12-.71 45.15-2.5 69.47-2.39q7.81.04 19.14-.28c9.08-.26 22.49-.31 33.74-.98q.31-.02.31-.33v-.32q-.01-.1.09-.09c1.77.05 17.32 1.2 16.53-1.84z"/><path fill="#202448" d="M245.06 58.43q1.39 1.29 1.64 3.09.97 3.67.41 7.19-.56 5.06-3.93 6.54c-2.27.39-4.28.75-6.6.75H79.24l-1.4-.22q-.6.02-.59-.26c.17-.82.31-1.25 1.25-1.32 10.63-.73 24.27.01 31.69.03q43.03.14 86.06.08 31.33-.04 44.75-.91c4.65-.3 3.12-10.84 2.54-13.52a.75.74 69.1 0 1 .36-.81l1.16-.64z"/><path fill="#0c0708" fill-opacity=".114" d="M76.82 75.58q.13-.14.43-.06-.01.28.59.26-.93 1.6.17 2.15c4 1.98 8.62 3.56 13.52 3.56q62.58.04 125.16-.24c9.27-.04 21.66.83 29.74-4.46 1.33-.87 1.68-2.15 2.93-3.22q.39-.34.39-.85v-2.45q0-.55-.53-.43-1.72.37-2.11-1.13.56-3.52-.41-7.19l1.25-.14q.44-.05.77.24.8.71 1.65 1.34.4.29.47.77c.74 5.12 1.34 8.33-1.15 12.06-3.04 4.56-11.54 6.74-16.46 6.88-43.35 1.24-86.69.85-130.06.83-4.59-.01-9.76-.46-14.67-.52-3.74-.04-6-1.45-8.99-3.29q-1.28-.8-2.75-1.05-.51-.09-.53-.6-.06-1.3.59-2.46z"/><path fill="#06070e" fill-opacity=".318" d="M247.11 68.71q.39 1.5 2.11 1.13.53-.12.53.43v2.45q0 .51-.39.85c-1.25 1.07-1.6 2.35-2.93 3.22-8.08 5.29-20.47 4.42-29.74 4.46q-62.58.28-125.16.24c-4.9 0-9.52-1.58-13.52-3.56q-1.1-.55-.17-2.15l1.4.22q3.06 1.49 6.51 1.49 75.22.02 150.44 0 2.92 0 6.99-2.24 3.37-1.48 3.93-6.54z"/><path fill="#0b0d16" fill-opacity=".459" d="M243.18 75.25q-4.07 2.24-6.99 2.24-75.22.02-150.44 0-3.45 0-6.51-1.49h157.34c2.32 0 4.33-.36 6.6-.75z"/><path fill="#495792" d="m42.2 99.02-.71.53q-1.73-1.51-3.98.29l-.41-.31q-.29-.23-.31-.6c-.13-3.07-9.79-2.15-11.74-1.89q-5.19.71-14.07-.32-.56-.07-.95.34c-2.62 2.8-1.25 16.02-1.24 24.73q0 1.35.37 2.2.84 1.89 2.17 1.22l5.42.23q2.66-.1 5.29 2.01.19.06.31.25a.64.63 74.6 0 1-.55.97l-14.1-.17q-2.4-1.95-2.41-4.32-.06-10.08-.04-20.18c.01-6.67 1.86-10.46 8.89-10.48q10.05-.04 20.11.04 5.96.05 7.95 5.46z"/><path fill="#0c0708" fill-opacity=".114" d="m244.01 98.82-4.21-.77c-6.88-.82-13.35-.57-19.8-.62q-51.37-.33-102.75-.14c-7.59.03-22.46.61-33.75.14q.49-.12.77-.4.29-.29-.03-.56l-.5-.41a1.31 1.31 0 0 1 .83-2.32q73.39.02 146.6 0c3.69 0 6.74.51 10.32 1.2q.49.09.51.6.02.99.96.98.49-.01.5.48.02.91.55 1.82z"/><path fill="#202448" d="m37.51 99.84-.94.95-.25-.64q-.18-.45-.65-.55-5.35-1.09-10.34.5-2.04-2.04-4.96-.44-.77-.79-1.94.54-.28.32-.6.05-2.42-2.03-5.51-.76-.42.17-.61.58-.83 1.74-.91 4.19-.38 11.94.53 20.95-1.33.67-2.17-1.22-.37-.85-.37-2.2c-.01-8.71-1.38-21.93 1.24-24.73q.39-.41.95-.34 8.88 1.03 14.07.32c1.95-.26 11.61-1.18 11.74 1.89q.02.37.31.6l.41.31z"/><path fill="#3e4c85" d="M239.8 98.05q-3.42 3.08-9.56 2.51c-12.01-1.12-25.59-.26-37.81.19a.41.38-67.6 0 0-.29.13c-.37.38-.02.29-.6.3q-35.65.71-71.3 1.28c-7.7.12-15.39.68-23.11.85-3.85.08-7.68.85-11.47 1.2a5.82 5.81 12.7 0 0-4.43 2.79l-5.4 9c-4.21-2.06-3.9-9.33-3.2-13.14.96-5.28 6.42-6 10.87-5.73 11.29.47 26.16-.11 33.75-.14q51.38-.19 102.75.14c6.45.05 12.92-.2 19.8.62z"/><path fill="#39457b" d="m239.8 98.05 4.21.77q.48.24.81.69.15.78-.7 1.66a.99.98 61.7 0 0-.26.88q1.08 5.27-.9 10.24a1.45 1.44 83.4 0 1-.52.66c-4.5 3.06-11.44 1.53-16.42 2.1a.97.95 8.4 0 0-.78.57c-.46 1.1-1.16 1.45-2.4 1.43q-31.67-.28-63.35.2l-79.99.34-3.67-1.29 5.4-9a5.82 5.81 12.7 0 1 4.43-2.79c3.79-.35 7.62-1.12 11.47-1.2 7.72-.17 15.41-.73 23.11-.85q35.65-.57 71.3-1.28c.58-.01.23.08.6-.3a.41.38-67.6 0 1 .29-.13c12.22-.45 25.8-1.31 37.81-.19q6.14.57 9.56-2.51z"/><path fill="#cf5958" d="M41.49 99.55c1.69 5.48-.61 5.12-3.22 8.4-1.17 1.47-2.72 2.2-3.5 4.22q-.2.52.34.66l3.41.9 4.42 4.05q1.11.65 2.02 1.95l-4.39 5.48q-.32.39-.3.89.03.79-.53 1.12-.96.02-1.95-.77l-1.98-2.08-3.06-2.92-1.19-3.64a.97.97 0 0 0-1.73-.25l-2.06 2.99q-.24.35-.62.52-.92.42-1.39 1.3-.22.42-.62.67l-4.49 2.7a.69.69 0 0 1-.86-.12l-2.26-2.42c-1.42-3.04 3.76-7.23 5.78-8.95a1.34 1.34 0 0 0 .03-2.01q-2.6-2.35-5.17-5.18c-2.78-3.06.29-5.31 2.2-7.4q2.92-1.6 4.96.44l5.34 5.39a.87.86 44.8 0 0 1.23 0l4.67-4.7.94-.95q2.25-1.8 3.98-.29z"/><path fill="#0c0708" fill-opacity=".114" d="M20.37 99.66c-1.91 2.09-4.98 4.34-2.2 7.4q2.57 2.83 5.17 5.18a1.34 1.34 0 0 1-.03 2.01c-2.02 1.72-7.2 5.91-5.78 8.95q-.06.78.64 1.45.45.43-.16.55l-1.26.24-5.42-.23q-.91-9.01-.53-20.95.08-2.45.91-4.19.19-.41.61-.58 3.09-1.27 5.51.76.32.27.6-.05 1.17-1.33 1.94-.54z"/><path fill="#9b3030" d="m42.2 99.02 3.94 5q-.33 2.2-1.74 3.71-4.27 3.24-5.88 6l-3.41-.9q-.54-.14-.34-.66c.78-2.02 2.33-2.75 3.5-4.22 2.61-3.28 4.91-2.92 3.22-8.4l.71-.53z"/><path fill="#0b0d16" fill-opacity=".459" d="m36.57 100.79-4.67 4.7a.87.86 44.8 0 1-1.23 0l-5.34-5.39q4.99-1.59 10.34-.5.47.1.65.55l.25.64z"/><path fill="#202448" d="m244.82 99.51 1.09 1.02q1.83 5.64.75 11.82c-1 5.67-8.01 4.88-13.16 4.93q-36.99.35-74.01-.03 31.68-.48 63.35-.2c1.24.02 1.94-.33 2.4-1.43a.97.95 8.4 0 1 .78-.57c4.98-.57 11.92.96 16.42-2.1a1.45 1.44 83.4 0 0 .52-.66q1.98-4.97.9-10.24a.99.98 61.7 0 1 .26-.88q.85-.88.7-1.66z"/><path fill="#06070e" fill-opacity=".318" d="m79.5 117.59 79.99-.34q37.02.38 74.01.03c5.15-.05 12.16.74 13.16-4.93q1.08-6.18-.75-11.82.44.03.96-.65.35-.47.82-.11 2.88 2.17 3.07 5.73a1.07 1.05-71.9 0 0 .39.78c1.86 1.51-.11 5.95-.45 7.61q-.1.47-.39.85c-1.23 1.54-1.84 3.26-3.5 4.35q-4.65 3.02-9.01 3.23c-35.69 1.72-71.52-.31-107.28.98-16.1.58-33.19.82-49.09-2.02a1.3 1.3 0 0 1-.38-2.42l.65-.34q.54-.29-.06-.43l-2.14-.5z"/><path fill="#0c0708" fill-opacity=".114" d="M46.14 104.02q.04.55.29 1.03a.45.45 0 0 0 .61.19l.38-.2q.44-.24.71.19c2.22 3.55.27 4.44.12 7.92q-.02.48-.24.91-1.74 3.4-.04 7.17 1.89 4.2-.79 6.92c-1.77 1.79-5.56 2.06-8.08 3.73q-.4.26-.87.29-12.42.76-24.85.02-.24-.01-.25-.25-.02-.45-.43-1.19 10.84 0 21.55-.08 4.4-.03 6.63-3.06 6.62-4.5 4.08-7.88-.91-1.3-2.02-1.95l.1-.84q.03-.19.22-.19h.29a.21.21 0 0 0 .2-.26q-.81-3.58.65-8.76 1.41-1.51 1.74-3.71z"/><path fill="#3a171e" fill-opacity=".62" d="M44.4 107.73q-1.46 5.18-.65 8.76a.21.21 0 0 1-.2.26h-.29q-.19 0-.22.19l-.1.84-4.42-4.05q1.61-2.76 5.88-6z"/><path fill="#9b3030" d="M32.75 121.45c-2.48-1.38-4.17 1.86-5.76 3.09q-2.38 2.83-4.95 2.91-2.63-2.11-5.29-2.01l1.26-.24q.61-.12.16-.55-.7-.67-.64-1.45l2.26 2.42a.69.69 0 0 0 .86.12l4.49-2.7q.4-.25.62-.67.47-.88 1.39-1.3.38-.17.62-.52l2.06-2.99a.97.97 0 0 1 1.73.25l1.19 3.64zM44.96 119.73q2.54 3.38-4.08 7.88-.61-.08-1.14-.39.56-.33.53-1.12-.02-.5.3-.89l4.39-5.48z"/><path fill="#3a171e" fill-opacity=".62" d="m32.75 121.45 3.06 2.92q-.43 1.36-3.01 1.43-5.2.44-5.81-1.26c1.59-1.23 3.28-4.47 5.76-3.09z"/><path fill="#3e4c85" d="m35.81 124.37 1.98 2.08c1 3-8.81 1.99-10.11 1.69q-1.04-.24-.03-.59l5.15-1.75q2.58-.07 3.01-1.43z"/><path fill="#202448" d="M26.99 124.54q.61 1.7 5.81 1.26l-5.15 1.75q-1.01.35.03.59c1.3.3 11.11 1.31 10.11-1.69q.99.79 1.95.77.53.31 1.14.39-2.23 3.03-6.63 3.06-10.71.08-21.55.08-3.02.06-5-2.25l14.1.17a.64.63 74.6 0 0 .55-.97q-.12-.19-.31-.25 2.57-.08 4.95-2.91z"/></svg>