<svg xmlns="http://www.w3.org/2000/svg" viewBox="0 0 200 200"><g stroke-width="2" fill="none"><path stroke="#f1a694" vector-effect="non-scaling-stroke" d="M134.73 88.69c.1-2.49 1.64-12.47-2.57-12.13a1.78 1.77 87.7 0 0-1.63 1.77l.02 31.98a1.68 1.67 83.8 0 1-1.31 1.64c-2.24.49-2.7-1.32-2.71-3.13q-.04-9.8-.03-19.53a1.97 1.96-76.9 0 0-1.09-1.76q-1.77-.87-2.66.31c-2.33 3.1 1.07 15.3-1.56 20.32-2.44 4.64-10.1 4.78-12.75.41-2.28-3.77-1.15-13.97-1.32-18.69-.07-2.02-1.29-3.37-3.38-2.4a1.73 1.72-12.8 0 0-.99 1.56v21.04a1.72 1.7 74.1 0 1-.8 1.45c-4.93 3.15-3.41-9.78-3.42-13.05-.04-9.8-11.72-14.38-19.11-8.7a.29.29 0 0 1-.46-.23l-.07-11.14q0-.51-.33-.9-1.41-1.62-2.99-.59a1.84 1.83-16.8 0 0-.84 1.56q.08 12.79-.04 25.69c-.06 5.75-4.03 6.45-8.35 8.32a.75.74-18.5 0 0-.43.85l.48 1.98q.15.61.78.61 7.65-.07 10.59-6.44c1.91-4.11.63-9.24 1.8-12.78 3.02-9.13 15.75-5.27 14.89 4.29-.62 7.02-1.16 16.36 8 14.93q1.06-.17 3.5-2.45.38-.34.79-.06 7.98 5.42 15.81-.2.38-.27.69.07 5.22 5.59 10.74.15.35-.34.73-.02c4.88 4.23 20.65 2.72 30 2.5q.45-.01.58-.44c9.49-33.63-13.11-67.19-47.62-71.26-31.24-3.68-57.44 18.69-62.05 49.09q-.14.92.79.93l3.25.02a.58.58 0 0 0 .57-.49Q65.17 65.3 89.5 53.63c38.51-18.47 81.05 15.78 71.98 57.7a.5.5 0 0 1-.48.4l-8.27.07q-.49 0-.29-.44c5.39-12.15.03-30.96-17.14-22.3q-.6.3-.57-.37"/><path stroke="#c1c1c2" vector-effect="non-scaling-stroke" d="M50.18 112.09c-5.98-.56-11.42.66-12.8-7.01q-.93-5.1.01-14.53.04-.45.5-.48 5.97-.26 7.85-.08c4.25.39 4.72-3.78 1.25-3.74q-4.49.06-9.14-.03-.53-.01-.55-.53c-.09-2.12 1.01-8.96-2.12-9.11a2.03 2.02-88 0 0-2.13 1.99q-.24 10.79-.2 21.93c.03 11.37 4.27 16.44 15.99 15.6 2.08-.15 3.31-1.55 2.08-3.54q-.25-.42-.74-.47M64.23 99.66a2.11 2.11 0 0 0-2.11-2.11H55.1a2.11 2.11 0 0 0-2.11 2.11v.22a2.11 2.11 0 0 0 2.11 2.11h7.02a2.11 2.11 0 0 0 2.11-2.11v-.22M159.01 119.74c-22.35 47.9-91.57 39.33-98.68-13.76q-.08-.62-.71-.64l-3.51-.13a.58.57-3 0 0-.59.65c7.64 58.39 86.3 69.03 108.3 14.29a.66.66 0 0 0-.61-.9h-3.43q-.54 0-.77.49"/><path stroke="#f1a694" vector-effect="non-scaling-stroke" d="M150.053 98.31a6.96 6.96 0 0 0-6.996-6.923l-1.08.006a6.96 6.96 0 0 0-6.923 6.996l.033 6.32a6.96 6.96 0 0 0 6.996 6.924l1.08-.006a6.96 6.96 0 0 0 6.923-6.996l-.033-6.32"/></g><path fill="#fff" d="M0 0h200v200H0V0zm134.73 88.69c.1-2.49 1.64-12.47-2.57-12.13a1.78 1.77 87.7 0 0-1.63 1.77l.02 31.98a1.68 1.67 83.8 0 1-1.31 1.64c-2.24.49-2.7-1.32-2.71-3.13q-.04-9.8-.03-19.53a1.97 1.96-76.9 0 0-1.09-1.76q-1.77-.87-2.66.31c-2.33 3.1 1.07 15.3-1.56 20.32-2.44 4.64-10.1 4.78-12.75.41-2.28-3.77-1.15-13.97-1.32-18.69-.07-2.02-1.29-3.37-3.38-2.4a1.73 1.72-12.8 0 0-.99 1.56v21.04a1.72 1.7 74.1 0 1-.8 1.45c-4.93 3.15-3.41-9.78-3.42-13.05-.04-9.8-11.72-14.38-19.11-8.7a.29.29 0 0 1-.46-.23l-.07-11.14q0-.51-.33-.9-1.41-1.62-2.99-.59a1.84 1.83-16.8 0 0-.84 1.56q.08 12.79-.04 25.69c-.06 5.75-4.03 6.45-8.35 8.32a.75.74-18.5 0 0-.43.85l.48 1.98q.15.61.78.61 7.65-.07 10.59-6.44c1.91-4.11.63-9.24 1.8-12.78 3.02-9.13 15.75-5.27 14.89 4.29-.62 7.02-1.16 16.36 8 14.93q1.06-.17 3.5-2.45.38-.34.79-.06 7.98 5.42 15.81-.2.38-.27.69.07 5.22 5.59 10.74.15.35-.34.73-.02c4.88 4.23 20.65 2.72 30 2.5q.45-.01.58-.44c9.49-33.63-13.11-67.19-47.62-71.26-31.24-3.68-57.44 18.69-62.05 49.09q-.14.92.79.93l3.25.02a.58.58 0 0 0 .57-.49Q65.17 65.3 89.5 53.63c38.51-18.47 81.05 15.78 71.98 57.7a.5.5 0 0 1-.48.4l-8.27.07q-.49 0-.29-.44c5.39-12.15.03-30.96-17.14-22.3q-.6.3-.57-.37zm-84.55 23.4c-5.98-.56-11.42.66-12.8-7.01q-.93-5.1.01-14.53.04-.45.5-.48 5.97-.26 7.85-.08c4.25.39 4.72-3.78 1.25-3.74q-4.49.06-9.14-.03-.53-.01-.55-.53c-.09-2.12 1.01-8.96-2.12-9.11a2.03 2.02-88 0 0-2.13 1.99q-.24 10.79-.2 21.93c.03 11.37 4.27 16.44 15.99 15.6 2.08-.15 3.31-1.55 2.08-3.54q-.25-.42-.74-.47zm14.05-12.43a2.11 2.11 0 0 0-2.11-2.11H55.1a2.11 2.11 0 0 0-2.11 2.11v.22a2.11 2.11 0 0 0 2.11 2.11h7.02a2.11 2.11 0 0 0 2.11-2.11v-.22zm94.78 20.08c-22.35 47.9-91.57 39.33-98.68-13.76q-.08-.62-.71-.64l-3.51-.13a.58.57-3 0 0-.59.65c7.64 58.39 86.3 69.03 108.3 14.29a.66.66 0 0 0-.61-.9h-3.43q-.54 0-.77.49z"/><path fill="#e34c28" d="M135.3 89.06c17.17-8.66 22.53 10.15 17.14 22.3q-.2.44.29.44l8.27-.07a.5.5 0 0 0 .48-.4c9.07-41.92-33.47-76.17-71.98-57.7Q65.17 65.3 60.23 93.77a.58.58 0 0 1-.57.49l-3.25-.02q-.93-.01-.79-.93c4.61-30.4 30.81-52.77 62.05-49.09 34.51 4.07 57.11 37.63 47.62 71.26q-.13.43-.58.44c-9.35.22-25.12 1.73-30-2.5q-.38-.32-.73.02-5.52 5.44-10.74-.15-.31-.34-.69-.07-7.83 5.62-15.81.2-.41-.28-.79.06-2.44 2.28-3.5 2.45c-9.16 1.43-8.62-7.91-8-14.93.86-9.56-11.87-13.42-14.89-4.29-1.17 3.54.11 8.67-1.8 12.78q-2.94 6.37-10.59 6.44-.63 0-.78-.61l-.48-1.98a.75.74-18.5 0 1 .43-.85c4.32-1.87 8.29-2.57 8.35-8.32q.12-12.9.04-25.69a1.84 1.83-16.8 0 1 .84-1.56q1.58-1.03 2.99.59.33.39.33.9l.07 11.14a.29.29 0 0 0 .46.23c7.39-5.68 19.07-1.1 19.11 8.7.01 3.27-1.51 16.2 3.42 13.05a1.72 1.7 74.1 0 0 .8-1.45V89.04a1.73 1.72-12.8 0 1 .99-1.56c2.09-.97 3.31.38 3.38 2.4.17 4.72-.96 14.92 1.32 18.69 2.65 4.37 10.31 4.23 12.75-.41 2.63-5.02-.77-17.22 1.56-20.32q.89-1.18 2.66-.31a1.97 1.96-76.9 0 1 1.09 1.76q-.01 9.73.03 19.53c.01 1.81.47 3.62 2.71 3.13a1.68 1.67 83.8 0 0 1.31-1.64l-.02-31.98a1.78 1.77 87.7 0 1 1.63-1.77c4.21-.34 2.67 9.64 2.57 12.13q-.03.67.57.37zm14.753 9.25a6.96 6.96 0 0 0-6.996-6.923l-1.08.006a6.96 6.96 0 0 0-6.923 6.996l.033 6.32a6.96 6.96 0 0 0 6.996 6.924l1.08-.006a6.96 6.96 0 0 0 6.923-6.996l-.033-6.32z"/><path fill="#838385" d="M37.38 105.08c1.38 7.67 6.82 6.45 12.8 7.01q.49.05.74.47c1.23 1.99 0 3.39-2.08 3.54-11.72.84-15.96-4.23-15.99-15.6q-.04-11.14.2-21.93a2.03 2.02-88 0 1 2.13-1.99c3.13.15 2.03 6.99 2.12 9.11q.02.52.55.53 4.65.09 9.14.03c3.47-.04 3 4.13-1.25 3.74q-1.88-.18-7.85.08-.46.03-.5.48-.94 9.43-.01 14.53z"/><rect fill="#fff" x="-7.5" y="-10.12" transform="rotate(-.3 19458.223 -27178.047)" width="15" height="20.24" rx="6.96"/><rect fill="#838385" x="52.99" y="97.55" width="11.24" height="4.44" rx="2.11"/><path fill="#838385" d="M60.33 105.98c7.11 53.09 76.33 61.66 98.68 13.76q.23-.49.77-.49h3.43a.66.66 0 0 1 .61.9c-22 54.74-100.66 44.1-108.3-14.29a.58.57-3 0 1 .59-.65l3.51.13q.63.02.71.64z"/></svg>