<?xml version="1.0" encoding="UTF-8" standalone="no"?>
<!DOCTYPE svg PUBLIC "-//W3C//DTD SVG 1.1//EN" "http://www.w3.org/Graphics/SVG/1.1/DTD/svg11.dtd">
<svg xmlns="http://www.w3.org/2000/svg" version="1.1" viewBox="0.00 0.00 517.00 185.00">
<g stroke-width="2.00" fill="none" stroke-linecap="butt">
<path stroke="#a9d7f2" vector-effect="non-scaling-stroke" d="
  M 58.14 15.99
  Q 57.32 16.01 57.32 16.82
  L 57.22 35.13
  A 0.42 0.42 0.0 0 0 57.66 35.55
  Q 71.65 34.97 84.61 40.14
  Q 85.20 40.37 85.44 39.79
  L 92.43 22.95
  A 0.66 0.66 0.0 0 0 92.07 22.09
  Q 75.78 15.43 58.14 15.99"
/>
<path stroke="#c68cc7" vector-effect="non-scaling-stroke" d="
  M 51.25 16.77
  A 0.27 0.27 0.0 0 0 50.98 16.50
  L 22.50 16.50
  A 0.27 0.27 0.0 0 0 22.23 16.77
  L 22.23 35.73
  A 0.27 0.27 0.0 0 0 22.50 36.00
  L 50.98 36.00
  A 0.27 0.27 0.0 0 0 51.25 35.73
  L 51.25 16.77"
/>
<path stroke="#faf88a" vector-effect="non-scaling-stroke" d="
  M 124.74 49.66
  C 118.53 40.37 109.77 31.66 99.85 26.53
  A 1.05 1.05 0.0 0 0 98.39 27.06
  L 91.48 43.77
  Q 91.31 44.17 91.69 44.40
  Q 101.68 50.52 108.23 60.25
  A 0.69 0.69 0.0 0 0 109.18 60.44
  L 124.58 50.44
  A 0.56 0.56 0.0 0 0 124.74 49.66"
/>
<path stroke="#919399" vector-effect="non-scaling-stroke" d="
  M 42.50 143.99
  L 42.50 66.00
  A 0.37 0.36 -1.7 0 1 42.85 65.64
  C 52.02 65.20 66.72 64.12 75.13 68.03
  C 96.39 77.89 93.36 106.94 72.46 114.87
  Q 71.81 115.12 71.81 114.43
  L 71.92 97.48
  Q 71.93 96.63 72.77 96.69
  L 78.24 97.06
  A 0.64 0.63 -16.8 0 0 78.79 96.04
  L 62.40 74.47
  Q 61.99 73.93 61.58 74.47
  L 45.29 95.73
  A 0.77 0.76 17.3 0 0 45.94 96.96
  L 51.73 96.68
  Q 52.32 96.65 52.32 97.24
  L 52.08 134.05
  A 0.42 0.42 0.0 0 0 52.48 134.48
  C 73.03 135.94 90.94 131.18 101.73 113.15
  C 116.88 87.84 103.31 57.19 76.06 48.98
  C 71.11 47.49 65.74 47.31 60.50 47.30
  Q 41.93 47.25 23.75 47.24
  Q 23.00 47.24 23.00 47.99
  L 23.00 163.54
  Q 23.00 163.98 23.44 163.98
  Q 40.19 164.04 56.94 164.00
  Q 69.87 163.97 76.83 162.60
  Q 106.97 156.70 124.71 130.33
  A 0.47 0.47 0.0 0 0 124.57 129.66
  L 108.92 119.63
  Q 108.50 119.37 108.23 119.77
  Q 96.69 136.79 77.80 142.20
  C 67.74 145.08 54.35 144.54 43.02 144.51
  Q 42.50 144.51 42.50 143.99"
/>
<path stroke="#f58f94" vector-effect="non-scaling-stroke" d="
  M 136.84 86.87
  Q 135.99 70.66 128.50 56.32
  Q 128.21 55.77 127.70 56.10
  L 112.30 65.91
  Q 111.92 66.15 112.07 66.58
  C 114.45 73.36 116.43 78.33 117.27 86.60
  Q 117.33 87.25 117.99 87.25
  L 136.48 87.25
  A 0.36 0.36 0.0 0 0 136.84 86.87"
/>
<path stroke="#939299" vector-effect="non-scaling-stroke" d="
  M 331.09 82.70
  A 0.90 0.89 73.4 0 1 331.74 81.49
  Q 335.31 80.75 337.70 83.46
  A 0.86 0.86 0.0 0 0 338.81 83.61
  L 343.13 80.84
  Q 343.56 80.56 343.30 80.13
  C 337.99 71.42 322.01 73.13 324.44 84.61
  C 326.01 91.99 337.87 90.91 337.36 95.55
  Q 337.30 96.03 336.87 96.23
  Q 332.30 98.41 329.13 94.41
  A 1.40 1.39 53.2 0 0 327.24 94.13
  L 323.44 96.82
  A 0.62 0.62 0.0 0 0 323.29 97.69
  Q 329.88 106.78 339.84 102.37
  Q 344.53 100.29 344.46 95.07
  C 344.37 88.50 338.01 86.67 332.31 84.69
  A 1.18 1.14 -0.2 0 1 331.62 84.03
  L 331.09 82.70"
/>
<path stroke="#939299" vector-effect="non-scaling-stroke" d="
  M 155.31 75.49
  L 155.17 102.47
  A 0.75 0.75 0.0 0 0 155.92 103.22
  L 166.45 103.28
  A 15.20 14.04 0.3 0 0 181.72 89.32
  L 181.72 88.92
  A 15.20 14.04 0.3 0 0 166.59 74.80
  L 156.06 74.74
  A 0.75 0.75 0.0 0 0 155.31 75.49"
/>
<path stroke="#939299" vector-effect="non-scaling-stroke" d="
  M 213.60 89.15
  A 14.48 14.48 0.0 0 0 199.12 74.67
  A 14.48 14.48 0.0 0 0 184.64 89.15
  A 14.48 14.48 0.0 0 0 199.12 103.63
  A 14.48 14.48 0.0 0 0 213.60 89.15"
/>
<path stroke="#939299" vector-effect="non-scaling-stroke" d="
  M 241.58 95.13
  L 237.46 92.93
  Q 237.11 92.75 236.88 93.06
  C 233.66 97.30 227.42 98.22 224.19 93.98
  C 217.69 85.48 230.32 76.43 236.75 85.06
  A 0.56 0.55 56.8 0 0 237.48 85.22
  L 242.24 82.55
  A 0.57 0.57 0.0 0 0 242.45 81.76
  C 233.83 67.64 211.98 76.67 216.14 92.66
  C 219.40 105.19 234.82 107.17 242.08 97.31
  A 1.48 1.48 0.0 0 0 241.58 95.13"
/>
<path stroke="#939299" vector-effect="non-scaling-stroke" d="
  M 258.45 82.19
  A 0.69 0.69 0.0 0 1 259.14 81.50
  L 264.81 81.50
  A 0.69 0.69 0.0 0 0 265.50 80.82
  L 265.59 75.44
  A 0.69 0.69 0.0 0 0 264.90 74.74
  L 245.17 74.80
  A 0.69 0.69 0.0 0 0 244.48 75.50
  L 244.54 80.72
  A 0.69 0.69 0.0 0 0 245.21 81.40
  L 251.10 81.54
  A 0.69 0.69 0.0 0 1 251.78 82.24
  L 251.69 102.56
  A 0.69 0.69 0.0 0 0 252.38 103.25
  L 257.83 103.25
  A 0.69 0.69 0.0 0 0 258.52 102.56
  L 258.45 82.19"
/>
<path stroke="#939299" vector-effect="non-scaling-stroke" d="
  M 294.81 89.16
  A 14.49 14.49 0.0 0 0 280.32 74.67
  A 14.49 14.49 0.0 0 0 265.83 89.16
  A 14.49 14.49 0.0 0 0 280.32 103.65
  A 14.49 14.49 0.0 0 0 294.81 89.16"
/>
<path stroke="#939299" vector-effect="non-scaling-stroke" d="
  M 304.75 95.73
  A 2.06 2.06 0.0 0 1 308.62 94.73
  L 313.07 102.75
  Q 313.35 103.25 313.93 103.25
  L 320.39 103.24
  A 0.46 0.46 0.0 0 0 320.79 102.55
  L 315.58 93.38
  Q 315.35 92.96 315.62 92.57
  C 319.39 87.21 322.13 81.58 315.62 76.94
  C 311.47 73.98 303.63 74.55 298.61 74.83
  A 0.64 0.64 0.0 0 0 298.00 75.47
  L 298.00 102.75
  Q 298.00 103.25 298.50 103.25
  L 303.87 103.25
  A 0.88 0.88 0.0 0 0 304.75 102.37
  L 304.75 95.73"
/>
<path stroke="#939299" vector-effect="non-scaling-stroke" d="
  M 347.28 75.83
  L 347.23 102.38
  Q 347.23 103.04 347.88 103.07
  L 353.20 103.32
  Q 354.00 103.36 354.00 102.55
  L 354.00 94.97
  Q 354.00 94.34 354.63 94.26
  C 357.06 93.98 359.83 94.01 361.86 93.11
  C 368.90 89.98 369.64 80.02 362.82 76.32
  C 359.11 74.30 352.78 74.58 348.25 74.81
  A 1.03 1.02 88.8 0 0 347.28 75.83"
/>
<path stroke="#939299" vector-effect="non-scaling-stroke" d="
  M 377.34 85.07
  Q 376.52 83.42 377.32 82.04
  Q 377.62 81.50 378.24 81.50
  L 387.25 81.50
  Q 388.00 81.50 388.00 80.75
  L 388.00 75.37
  Q 388.00 74.75 387.37 74.75
  L 371.41 74.75
  A 0.90 0.90 0.0 0 0 370.51 75.65
  L 370.47 102.74
  Q 370.47 103.25 370.98 103.25
  L 387.59 103.25
  Q 388.25 103.25 388.25 102.59
  L 388.25 97.38
  Q 388.25 96.75 387.63 96.75
  L 377.85 96.75
  Q 377.19 96.75 377.22 96.09
  L 377.33 92.73
  Q 377.36 92.07 378.01 92.06
  L 386.44 91.88
  Q 387.06 91.87 387.08 91.25
  L 387.25 86.16
  Q 387.27 85.73 386.85 85.72
  L 377.88 85.42
  Q 377.51 85.40 377.34 85.07"
/>
<path stroke="#939299" vector-effect="non-scaling-stroke" d="
  M 396.74 77.18
  C 388.26 83.14 387.94 95.80 396.89 101.36
  C 403.70 105.58 412.29 103.78 416.83 96.97
  A 1.20 1.20 0.0 0 0 416.39 95.25
  L 412.39 93.17
  Q 411.87 92.90 411.41 93.28
  C 410.38 94.13 409.54 95.22 408.45 95.78
  C 396.35 101.94 392.07 80.48 405.78 81.55
  C 408.16 81.74 409.72 83.31 411.47 84.81
  A 0.88 0.87 -38.4 0 0 412.45 84.92
  L 416.67 82.73
  A 0.76 0.76 0.0 0 0 416.98 81.68
  C 412.75 74.41 403.04 72.75 396.74 77.18"
/>
<path stroke="#939299" vector-effect="non-scaling-stroke" d="
  M 478.02 74.70
  A 0.69 0.69 0.0 0 0 477.35 75.16
  L 467.64 102.29
  A 0.69 0.69 0.0 0 0 468.28 103.21
  L 474.05 103.26
  A 0.69 0.69 0.0 0 0 474.72 102.77
  L 475.88 98.85
  A 0.69 0.69 0.0 0 1 476.54 98.36
  L 485.85 98.27
  A 0.69 0.69 0.0 0 1 486.52 98.77
  L 487.70 102.80
  A 0.69 0.69 0.0 0 0 488.38 103.29
  L 494.25 103.13
  A 0.69 0.69 0.0 0 0 494.88 102.20
  L 485.03 75.29
  A 0.69 0.69 0.0 0 0 484.40 74.84
  L 478.02 74.70"
/>
<path stroke="#939299" vector-effect="non-scaling-stroke" d="
  M 425.82 81.25
  A 0.45 0.45 0.0 0 1 426.27 81.70
  L 426.28 102.81
  A 0.45 0.45 0.0 0 0 426.73 103.26
  L 432.61 103.24
  A 0.45 0.45 0.0 0 0 433.06 102.79
  L 432.94 81.70
  A 0.45 0.45 0.0 0 1 433.39 81.25
  L 439.47 81.25
  A 0.45 0.45 0.0 0 0 439.92 80.83
  L 440.30 75.48
  A 0.45 0.45 0.0 0 0 439.85 75.00
  L 419.67 75.00
  A 0.45 0.45 0.0 0 0 419.22 75.46
  L 419.32 80.81
  A 0.45 0.45 0.0 0 0 419.77 81.25
  L 425.82 81.25"
/>
<path stroke="#939299" vector-effect="non-scaling-stroke" d="
  M 453.65 94.48
  L 458.37 102.86
  A 0.88 0.87 -15.4 0 0 459.17 103.31
  L 466.76 103.06
  A 0.42 0.42 0.0 0 0 466.95 102.27
  L 465.87 101.67
  Q 465.48 101.46 465.25 101.07
  L 460.64 93.28
  Q 460.39 92.85 460.76 92.51
  C 466.05 87.69 465.97 79.20 459.56 76.13
  C 455.66 74.26 448.62 74.99 443.75 75.01
  Q 443.25 75.01 443.25 75.50
  L 443.25 102.67
  Q 443.25 103.34 443.92 103.31
  L 449.22 103.09
  Q 450.00 103.06 450.00 102.28
  L 450.00 95.44
  A 1.95 1.95 0.0 0 1 453.65 94.48"
/>
<path stroke="#c0e695" vector-effect="non-scaling-stroke" d="
  M 135.94 94.34
  L 117.67 94.21
  A 0.65 0.64 1.9 0 0 117.02 94.81
  Q 116.29 104.80 112.14 113.91
  Q 111.93 114.38 112.36 114.66
  L 127.94 124.76
  Q 128.43 125.07 128.70 124.55
  Q 135.74 110.71 136.70 95.16
  A 0.77 0.77 0.0 0 0 135.94 94.34"
/>
<path stroke="#939299" vector-effect="non-scaling-stroke" d="
  M 162.23 82.29
  L 162.27 95.89
  A 0.81 0.81 0.0 0 0 163.09 96.70
  L 166.46 96.69
  A 8.34 7.50 -0.2 0 0 174.77 89.16
  L 174.77 88.94
  A 8.34 7.50 -0.2 0 0 166.40 81.47
  L 163.03 81.48
  A 0.81 0.81 0.0 0 0 162.23 82.29"
/>
<path stroke="#939299" vector-effect="non-scaling-stroke" d="
  M 206.59 89.18
  A 7.51 7.51 0.0 0 0 199.08 81.67
  A 7.51 7.51 0.0 0 0 191.57 89.18
  A 7.51 7.51 0.0 0 0 199.08 96.69
  A 7.51 7.51 0.0 0 0 206.59 89.18"
/>
<path stroke="#939299" vector-effect="non-scaling-stroke" d="
  M 287.84 89.16
  A 7.53 7.53 0.0 0 0 280.31 81.63
  A 7.53 7.53 0.0 0 0 272.78 89.16
  A 7.53 7.53 0.0 0 0 280.31 96.69
  A 7.53 7.53 0.0 0 0 287.84 89.16"
/>
<path stroke="#939299" vector-effect="non-scaling-stroke" d="
  M 312.63 83.41
  A 1.88 1.88 0.0 0 0 310.75 81.53
  L 306.55 81.53
  A 1.88 1.88 0.0 0 0 304.67 83.41
  L 304.67 85.59
  A 1.88 1.88 0.0 0 0 306.55 87.47
  L 310.75 87.47
  A 1.88 1.88 0.0 0 0 312.63 85.59
  L 312.63 83.41"
/>
<path stroke="#939299" vector-effect="non-scaling-stroke" d="
  M 354.07 82.52
  L 354.05 86.38
  A 1.07 1.07 0.0 0 0 355.12 87.45
  L 357.71 87.46
  A 3.28 2.74 0.2 0 0 361.00 84.73
  L 361.00 84.21
  A 3.28 2.74 0.2 0 0 357.73 81.46
  L 355.14 81.45
  A 1.07 1.07 0.0 0 0 354.07 82.52"
/>
<path stroke="#939299" vector-effect="non-scaling-stroke" d="
  M 479.16 90.96
  A 0.80 0.80 0.0 0 0 479.93 91.99
  L 482.41 92.00
  A 0.80 0.80 0.0 0 0 483.19 90.98
  L 481.96 86.77
  A 0.80 0.80 0.0 0 0 480.42 86.77
  L 479.16 90.96"
/>
<path stroke="#939299" vector-effect="non-scaling-stroke" d="
  M 449.99 81.88
  L 449.99 86.98
  A 0.64 0.64 0.0 0 0 450.64 87.62
  L 453.98 87.61
  A 4.04 2.57 -0.1 0 0 458.01 85.03
  L 458.01 83.79
  A 4.04 2.57 -0.1 0 0 453.96 81.23
  L 450.62 81.24
  A 0.64 0.64 0.0 0 0 449.99 81.88"
/>
</g>
<path fill="#ffffff" d="
  M 0.00 0.00
  L 517.00 0.00
  L 517.00 185.00
  L 0.00 185.00
  L 0.00 0.00
  Z
  M 58.14 15.99
  Q 57.32 16.01 57.32 16.82
  L 57.22 35.13
  A 0.42 0.42 0.0 0 0 57.66 35.55
  Q 71.65 34.97 84.61 40.14
  Q 85.20 40.37 85.44 39.79
  L 92.43 22.95
  A 0.66 0.66 0.0 0 0 92.07 22.09
  Q 75.78 15.43 58.14 15.99
  Z
  M 51.25 16.77
  A 0.27 0.27 0.0 0 0 50.98 16.50
  L 22.50 16.50
  A 0.27 0.27 0.0 0 0 22.23 16.77
  L 22.23 35.73
  A 0.27 0.27 0.0 0 0 22.50 36.00
  L 50.98 36.00
  A 0.27 0.27 0.0 0 0 51.25 35.73
  L 51.25 16.77
  Z
  M 124.74 49.66
  C 118.53 40.37 109.77 31.66 99.85 26.53
  A 1.05 1.05 0.0 0 0 98.39 27.06
  L 91.48 43.77
  Q 91.31 44.17 91.69 44.40
  Q 101.68 50.52 108.23 60.25
  A 0.69 0.69 0.0 0 0 109.18 60.44
  L 124.58 50.44
  A 0.56 0.56 0.0 0 0 124.74 49.66
  Z
  M 42.50 143.99
  L 42.50 66.00
  A 0.37 0.36 -1.7 0 1 42.85 65.64
  C 52.02 65.20 66.72 64.12 75.13 68.03
  C 96.39 77.89 93.36 106.94 72.46 114.87
  Q 71.81 115.12 71.81 114.43
  L 71.92 97.48
  Q 71.93 96.63 72.77 96.69
  L 78.24 97.06
  A 0.64 0.63 -16.8 0 0 78.79 96.04
  L 62.40 74.47
  Q 61.99 73.93 61.58 74.47
  L 45.29 95.73
  A 0.77 0.76 17.3 0 0 45.94 96.96
  L 51.73 96.68
  Q 52.32 96.65 52.32 97.24
  L 52.08 134.05
  A 0.42 0.42 0.0 0 0 52.48 134.48
  C 73.03 135.94 90.94 131.18 101.73 113.15
  C 116.88 87.84 103.31 57.19 76.06 48.98
  C 71.11 47.49 65.74 47.31 60.50 47.30
  Q 41.93 47.25 23.75 47.24
  Q 23.00 47.24 23.00 47.99
  L 23.00 163.54
  Q 23.00 163.98 23.44 163.98
  Q 40.19 164.04 56.94 164.00
  Q 69.87 163.97 76.83 162.60
  Q 106.97 156.70 124.71 130.33
  A 0.47 0.47 0.0 0 0 124.57 129.66
  L 108.92 119.63
  Q 108.50 119.37 108.23 119.77
  Q 96.69 136.79 77.80 142.20
  C 67.74 145.08 54.35 144.54 43.02 144.51
  Q 42.50 144.51 42.50 143.99
  Z
  M 136.84 86.87
  Q 135.99 70.66 128.50 56.32
  Q 128.21 55.77 127.70 56.10
  L 112.30 65.91
  Q 111.92 66.15 112.07 66.58
  C 114.45 73.36 116.43 78.33 117.27 86.60
  Q 117.33 87.25 117.99 87.25
  L 136.48 87.25
  A 0.36 0.36 0.0 0 0 136.84 86.87
  Z
  M 331.09 82.70
  A 0.90 0.89 73.4 0 1 331.74 81.49
  Q 335.31 80.75 337.70 83.46
  A 0.86 0.86 0.0 0 0 338.81 83.61
  L 343.13 80.84
  Q 343.56 80.56 343.30 80.13
  C 337.99 71.42 322.01 73.13 324.44 84.61
  C 326.01 91.99 337.87 90.91 337.36 95.55
  Q 337.30 96.03 336.87 96.23
  Q 332.30 98.41 329.13 94.41
  A 1.40 1.39 53.2 0 0 327.24 94.13
  L 323.44 96.82
  A 0.62 0.62 0.0 0 0 323.29 97.69
  Q 329.88 106.78 339.84 102.37
  Q 344.53 100.29 344.46 95.07
  C 344.37 88.50 338.01 86.67 332.31 84.69
  A 1.18 1.14 -0.2 0 1 331.62 84.03
  L 331.09 82.70
  Z
  M 155.31 75.49
  L 155.17 102.47
  A 0.75 0.75 0.0 0 0 155.92 103.22
  L 166.45 103.28
  A 15.20 14.04 0.3 0 0 181.72 89.32
  L 181.72 88.92
  A 15.20 14.04 0.3 0 0 166.59 74.80
  L 156.06 74.74
  A 0.75 0.75 0.0 0 0 155.31 75.49
  Z
  M 213.60 89.15
  A 14.48 14.48 0.0 0 0 199.12 74.67
  A 14.48 14.48 0.0 0 0 184.64 89.15
  A 14.48 14.48 0.0 0 0 199.12 103.63
  A 14.48 14.48 0.0 0 0 213.60 89.15
  Z
  M 241.58 95.13
  L 237.46 92.93
  Q 237.11 92.75 236.88 93.06
  C 233.66 97.30 227.42 98.22 224.19 93.98
  C 217.69 85.48 230.32 76.43 236.75 85.06
  A 0.56 0.55 56.8 0 0 237.48 85.22
  L 242.24 82.55
  A 0.57 0.57 0.0 0 0 242.45 81.76
  C 233.83 67.64 211.98 76.67 216.14 92.66
  C 219.40 105.19 234.82 107.17 242.08 97.31
  A 1.48 1.48 0.0 0 0 241.58 95.13
  Z
  M 258.45 82.19
  A 0.69 0.69 0.0 0 1 259.14 81.50
  L 264.81 81.50
  A 0.69 0.69 0.0 0 0 265.50 80.82
  L 265.59 75.44
  A 0.69 0.69 0.0 0 0 264.90 74.74
  L 245.17 74.80
  A 0.69 0.69 0.0 0 0 244.48 75.50
  L 244.54 80.72
  A 0.69 0.69 0.0 0 0 245.21 81.40
  L 251.10 81.54
  A 0.69 0.69 0.0 0 1 251.78 82.24
  L 251.69 102.56
  A 0.69 0.69 0.0 0 0 252.38 103.25
  L 257.83 103.25
  A 0.69 0.69 0.0 0 0 258.52 102.56
  L 258.45 82.19
  Z
  M 294.81 89.16
  A 14.49 14.49 0.0 0 0 280.32 74.67
  A 14.49 14.49 0.0 0 0 265.83 89.16
  A 14.49 14.49 0.0 0 0 280.32 103.65
  A 14.49 14.49 0.0 0 0 294.81 89.16
  Z
  M 304.75 95.73
  A 2.06 2.06 0.0 0 1 308.62 94.73
  L 313.07 102.75
  Q 313.35 103.25 313.93 103.25
  L 320.39 103.24
  A 0.46 0.46 0.0 0 0 320.79 102.55
  L 315.58 93.38
  Q 315.35 92.96 315.62 92.57
  C 319.39 87.21 322.13 81.58 315.62 76.94
  C 311.47 73.98 303.63 74.55 298.61 74.83
  A 0.64 0.64 0.0 0 0 298.00 75.47
  L 298.00 102.75
  Q 298.00 103.25 298.50 103.25
  L 303.87 103.25
  A 0.88 0.88 0.0 0 0 304.75 102.37
  L 304.75 95.73
  Z
  M 347.28 75.83
  L 347.23 102.38
  Q 347.23 103.04 347.88 103.07
  L 353.20 103.32
  Q 354.00 103.36 354.00 102.55
  L 354.00 94.97
  Q 354.00 94.34 354.63 94.26
  C 357.06 93.98 359.83 94.01 361.86 93.11
  C 368.90 89.98 369.64 80.02 362.82 76.32
  C 359.11 74.30 352.78 74.58 348.25 74.81
  A 1.03 1.02 88.8 0 0 347.28 75.83
  Z
  M 377.34 85.07
  Q 376.52 83.42 377.32 82.04
  Q 377.62 81.50 378.24 81.50
  L 387.25 81.50
  Q 388.00 81.50 388.00 80.75
  L 388.00 75.37
  Q 388.00 74.75 387.37 74.75
  L 371.41 74.75
  A 0.90 0.90 0.0 0 0 370.51 75.65
  L 370.47 102.74
  Q 370.47 103.25 370.98 103.25
  L 387.59 103.25
  Q 388.25 103.25 388.25 102.59
  L 388.25 97.38
  Q 388.25 96.75 387.63 96.75
  L 377.85 96.75
  Q 377.19 96.75 377.22 96.09
  L 377.33 92.73
  Q 377.36 92.07 378.01 92.06
  L 386.44 91.88
  Q 387.06 91.87 387.08 91.25
  L 387.25 86.16
  Q 387.27 85.73 386.85 85.72
  L 377.88 85.42
  Q 377.51 85.40 377.34 85.07
  Z
  M 396.74 77.18
  C 388.26 83.14 387.94 95.80 396.89 101.36
  C 403.70 105.58 412.29 103.78 416.83 96.97
  A 1.20 1.20 0.0 0 0 416.39 95.25
  L 412.39 93.17
  Q 411.87 92.90 411.41 93.28
  C 410.38 94.13 409.54 95.22 408.45 95.78
  C 396.35 101.94 392.07 80.48 405.78 81.55
  C 408.16 81.74 409.72 83.31 411.47 84.81
  A 0.88 0.87 -38.4 0 0 412.45 84.92
  L 416.67 82.73
  A 0.76 0.76 0.0 0 0 416.98 81.68
  C 412.75 74.41 403.04 72.75 396.74 77.18
  Z
  M 478.02 74.70
  A 0.69 0.69 0.0 0 0 477.35 75.16
  L 467.64 102.29
  A 0.69 0.69 0.0 0 0 468.28 103.21
  L 474.05 103.26
  A 0.69 0.69 0.0 0 0 474.72 102.77
  L 475.88 98.85
  A 0.69 0.69 0.0 0 1 476.54 98.36
  L 485.85 98.27
  A 0.69 0.69 0.0 0 1 486.52 98.77
  L 487.70 102.80
  A 0.69 0.69 0.0 0 0 488.38 103.29
  L 494.25 103.13
  A 0.69 0.69 0.0 0 0 494.88 102.20
  L 485.03 75.29
  A 0.69 0.69 0.0 0 0 484.40 74.84
  L 478.02 74.70
  Z
  M 425.82 81.25
  A 0.45 0.45 0.0 0 1 426.27 81.70
  L 426.28 102.81
  A 0.45 0.45 0.0 0 0 426.73 103.26
  L 432.61 103.24
  A 0.45 0.45 0.0 0 0 433.06 102.79
  L 432.94 81.70
  A 0.45 0.45 0.0 0 1 433.39 81.25
  L 439.47 81.25
  A 0.45 0.45 0.0 0 0 439.92 80.83
  L 440.30 75.48
  A 0.45 0.45 0.0 0 0 439.85 75.00
  L 419.67 75.00
  A 0.45 0.45 0.0 0 0 419.22 75.46
  L 419.32 80.81
  A 0.45 0.45 0.0 0 0 419.77 81.25
  L 425.82 81.25
  Z
  M 453.65 94.48
  L 458.37 102.86
  A 0.88 0.87 -15.4 0 0 459.17 103.31
  L 466.76 103.06
  A 0.42 0.42 0.0 0 0 466.95 102.27
  L 465.87 101.67
  Q 465.48 101.46 465.25 101.07
  L 460.64 93.28
  Q 460.39 92.85 460.76 92.51
  C 466.05 87.69 465.97 79.20 459.56 76.13
  C 455.66 74.26 448.62 74.99 443.75 75.01
  Q 443.25 75.01 443.25 75.50
  L 443.25 102.67
  Q 443.25 103.34 443.92 103.31
  L 449.22 103.09
  Q 450.00 103.06 450.00 102.28
  L 450.00 95.44
  A 1.95 1.95 0.0 0 1 453.65 94.48
  Z
  M 135.94 94.34
  L 117.67 94.21
  A 0.65 0.64 1.9 0 0 117.02 94.81
  Q 116.29 104.80 112.14 113.91
  Q 111.93 114.38 112.36 114.66
  L 127.94 124.76
  Q 128.43 125.07 128.70 124.55
  Q 135.74 110.71 136.70 95.16
  A 0.77 0.77 0.0 0 0 135.94 94.34
  Z"
/>
<path fill="#52afe5" d="
  M 58.14 15.99
  Q 75.78 15.43 92.07 22.09
  A 0.66 0.66 0.0 0 1 92.43 22.95
  L 85.44 39.79
  Q 85.20 40.37 84.61 40.14
  Q 71.65 34.97 57.66 35.55
  A 0.42 0.42 0.0 0 1 57.22 35.13
  L 57.32 16.82
  Q 57.32 16.01 58.14 15.99
  Z"
/>
<rect fill="#8c198e" x="22.23" y="16.50" width="29.02" height="19.50" rx="0.27"/>
<path fill="#f4f014" d="
  M 99.85 26.53
  C 109.77 31.66 118.53 40.37 124.74 49.66
  A 0.56 0.56 0.0 0 1 124.58 50.44
  L 109.18 60.44
  A 0.69 0.69 0.0 0 1 108.23 60.25
  Q 101.68 50.52 91.69 44.40
  Q 91.31 44.17 91.48 43.77
  L 98.39 27.06
  A 1.05 1.05 0.0 0 1 99.85 26.53
  Z"
/>
<path fill="#222632" d="
  M 43.02 144.51
  C 54.35 144.54 67.74 145.08 77.80 142.20
  Q 96.69 136.79 108.23 119.77
  Q 108.50 119.37 108.92 119.63
  L 124.57 129.66
  A 0.47 0.47 0.0 0 1 124.71 130.33
  Q 106.97 156.70 76.83 162.60
  Q 69.87 163.97 56.94 164.00
  Q 40.19 164.04 23.44 163.98
  Q 23.00 163.98 23.00 163.54
  L 23.00 47.99
  Q 23.00 47.24 23.75 47.24
  Q 41.93 47.25 60.50 47.30
  C 65.74 47.31 71.11 47.49 76.06 48.98
  C 103.31 57.19 116.88 87.84 101.73 113.15
  C 90.94 131.18 73.03 135.94 52.48 134.48
  A 0.42 0.42 0.0 0 1 52.08 134.05
  L 52.32 97.24
  Q 52.32 96.65 51.73 96.68
  L 45.94 96.96
  A 0.77 0.76 17.3 0 1 45.29 95.73
  L 61.58 74.47
  Q 61.99 73.93 62.40 74.47
  L 78.79 96.04
  A 0.64 0.63 -16.8 0 1 78.24 97.06
  L 72.77 96.69
  Q 71.93 96.63 71.92 97.48
  L 71.81 114.43
  Q 71.81 115.12 72.46 114.87
  C 93.36 106.94 96.39 77.89 75.13 68.03
  C 66.72 64.12 52.02 65.20 42.85 65.64
  A 0.37 0.36 -1.7 0 0 42.50 66.00
  L 42.50 143.99
  Q 42.50 144.51 43.02 144.51
  Z"
/>
<path fill="#eb1e28" d="
  M 136.84 86.87
  A 0.36 0.36 0.0 0 1 136.48 87.25
  L 117.99 87.25
  Q 117.33 87.25 117.27 86.60
  C 116.43 78.33 114.45 73.36 112.07 66.58
  Q 111.92 66.15 112.30 65.91
  L 127.70 56.10
  Q 128.21 55.77 128.50 56.32
  Q 135.99 70.66 136.84 86.87
  Z"
/>
<path fill="#262533" d="
  M 331.09 82.70
  L 331.62 84.03
  A 1.18 1.14 -0.2 0 0 332.31 84.69
  C 338.01 86.67 344.37 88.50 344.46 95.07
  Q 344.53 100.29 339.84 102.37
  Q 329.88 106.78 323.29 97.69
  A 0.62 0.62 0.0 0 1 323.44 96.82
  L 327.24 94.13
  A 1.40 1.39 53.2 0 1 329.13 94.41
  Q 332.30 98.41 336.87 96.23
  Q 337.30 96.03 337.36 95.55
  C 337.87 90.91 326.01 91.99 324.44 84.61
  C 322.01 73.13 337.99 71.42 343.30 80.13
  Q 343.56 80.56 343.13 80.84
  L 338.81 83.61
  A 0.86 0.86 0.0 0 1 337.70 83.46
  Q 335.31 80.75 331.74 81.49
  A 0.90 0.89 73.4 0 0 331.09 82.70
  Z"
/>
<path fill="#262533" d="
  M 155.31 75.49
  A 0.75 0.75 0.0 0 1 156.06 74.74
  L 166.59 74.80
  A 15.20 14.04 0.3 0 1 181.72 88.92
  L 181.72 89.32
  A 15.20 14.04 0.3 0 1 166.45 103.28
  L 155.92 103.22
  A 0.75 0.75 0.0 0 1 155.17 102.47
  L 155.31 75.49
  Z
  M 162.23 82.29
  L 162.27 95.89
  A 0.81 0.81 0.0 0 0 163.09 96.70
  L 166.46 96.69
  A 8.34 7.50 -0.2 0 0 174.77 89.16
  L 174.77 88.94
  A 8.34 7.50 -0.2 0 0 166.40 81.47
  L 163.03 81.48
  A 0.81 0.81 0.0 0 0 162.23 82.29
  Z"
/>
<path fill="#262533" d="
  M 213.60 89.15
  A 14.48 14.48 0.0 0 1 199.12 103.63
  A 14.48 14.48 0.0 0 1 184.64 89.15
  A 14.48 14.48 0.0 0 1 199.12 74.67
  A 14.48 14.48 0.0 0 1 213.60 89.15
  Z
  M 206.59 89.18
  A 7.51 7.51 0.0 0 0 199.08 81.67
  A 7.51 7.51 0.0 0 0 191.57 89.18
  A 7.51 7.51 0.0 0 0 199.08 96.69
  A 7.51 7.51 0.0 0 0 206.59 89.18
  Z"
/>
<path fill="#262533" d="
  M 241.58 95.13
  A 1.48 1.48 0.0 0 1 242.08 97.31
  C 234.82 107.17 219.40 105.19 216.14 92.66
  C 211.98 76.67 233.83 67.64 242.45 81.76
  A 0.57 0.57 0.0 0 1 242.24 82.55
  L 237.48 85.22
  A 0.56 0.55 56.8 0 1 236.75 85.06
  C 230.32 76.43 217.69 85.48 224.19 93.98
  C 227.42 98.22 233.66 97.30 236.88 93.06
  Q 237.11 92.75 237.46 92.93
  L 241.58 95.13
  Z"
/>
<path fill="#262533" d="
  M 258.45 82.19
  L 258.52 102.56
  A 0.69 0.69 0.0 0 1 257.83 103.25
  L 252.38 103.25
  A 0.69 0.69 0.0 0 1 251.69 102.56
  L 251.78 82.24
  A 0.69 0.69 0.0 0 0 251.10 81.54
  L 245.21 81.40
  A 0.69 0.69 0.0 0 1 244.54 80.72
  L 244.48 75.50
  A 0.69 0.69 0.0 0 1 245.17 74.80
  L 264.90 74.74
  A 0.69 0.69 0.0 0 1 265.59 75.44
  L 265.50 80.82
  A 0.69 0.69 0.0 0 1 264.81 81.50
  L 259.14 81.50
  A 0.69 0.69 0.0 0 0 258.45 82.19
  Z"
/>
<path fill="#262533" d="
  M 294.81 89.16
  A 14.49 14.49 0.0 0 1 280.32 103.65
  A 14.49 14.49 0.0 0 1 265.83 89.16
  A 14.49 14.49 0.0 0 1 280.32 74.67
  A 14.49 14.49 0.0 0 1 294.81 89.16
  Z
  M 287.84 89.16
  A 7.53 7.53 0.0 0 0 280.31 81.63
  A 7.53 7.53 0.0 0 0 272.78 89.16
  A 7.53 7.53 0.0 0 0 280.31 96.69
  A 7.53 7.53 0.0 0 0 287.84 89.16
  Z"
/>
<path fill="#262533" d="
  M 304.75 95.73
  L 304.75 102.37
  A 0.88 0.88 0.0 0 1 303.87 103.25
  L 298.50 103.25
  Q 298.00 103.25 298.00 102.75
  L 298.00 75.47
  A 0.64 0.64 0.0 0 1 298.61 74.83
  C 303.63 74.55 311.47 73.98 315.62 76.94
  C 322.13 81.58 319.39 87.21 315.62 92.57
  Q 315.35 92.96 315.58 93.38
  L 320.79 102.55
  A 0.46 0.46 0.0 0 1 320.39 103.24
  L 313.93 103.25
  Q 313.35 103.25 313.07 102.75
  L 308.62 94.73
  A 2.06 2.06 0.0 0 0 304.75 95.73
  Z
  M 312.63 83.41
  A 1.88 1.88 0.0 0 0 310.75 81.53
  L 306.55 81.53
  A 1.88 1.88 0.0 0 0 304.67 83.41
  L 304.67 85.59
  A 1.88 1.88 0.0 0 0 306.55 87.47
  L 310.75 87.47
  A 1.88 1.88 0.0 0 0 312.63 85.59
  L 312.63 83.41
  Z"
/>
<path fill="#262533" d="
  M 347.28 75.83
  A 1.03 1.02 88.8 0 1 348.25 74.81
  C 352.78 74.58 359.11 74.30 362.82 76.32
  C 369.64 80.02 368.90 89.98 361.86 93.11
  C 359.83 94.01 357.06 93.98 354.63 94.26
  Q 354.00 94.34 354.00 94.97
  L 354.00 102.55
  Q 354.00 103.36 353.20 103.32
  L 347.88 103.07
  Q 347.23 103.04 347.23 102.38
  L 347.28 75.83
  Z
  M 354.07 82.52
  L 354.05 86.38
  A 1.07 1.07 0.0 0 0 355.12 87.45
  L 357.71 87.46
  A 3.28 2.74 0.2 0 0 361.00 84.73
  L 361.00 84.21
  A 3.28 2.74 0.2 0 0 357.73 81.46
  L 355.14 81.45
  A 1.07 1.07 0.0 0 0 354.07 82.52
  Z"
/>
<path fill="#262533" d="
  M 377.88 85.42
  L 386.85 85.72
  Q 387.27 85.73 387.25 86.16
  L 387.08 91.25
  Q 387.06 91.87 386.44 91.88
  L 378.01 92.06
  Q 377.36 92.07 377.33 92.73
  L 377.22 96.09
  Q 377.19 96.75 377.85 96.75
  L 387.63 96.75
  Q 388.25 96.75 388.25 97.38
  L 388.25 102.59
  Q 388.25 103.25 387.59 103.25
  L 370.98 103.25
  Q 370.47 103.25 370.47 102.74
  L 370.51 75.65
  A 0.90 0.90 0.0 0 1 371.41 74.75
  L 387.37 74.75
  Q 388.00 74.75 388.00 75.37
  L 388.00 80.75
  Q 388.00 81.50 387.25 81.50
  L 378.24 81.50
  Q 377.62 81.50 377.32 82.04
  Q 376.52 83.42 377.34 85.07
  Q 377.51 85.40 377.88 85.42
  Z"
/>
<path fill="#262533" d="
  M 396.74 77.18
  C 403.04 72.75 412.75 74.41 416.98 81.68
  A 0.76 0.76 0.0 0 1 416.67 82.73
  L 412.45 84.92
  A 0.88 0.87 -38.4 0 1 411.47 84.81
  C 409.72 83.31 408.16 81.74 405.78 81.55
  C 392.07 80.48 396.35 101.94 408.45 95.78
  C 409.54 95.22 410.38 94.13 411.41 93.28
  Q 411.87 92.90 412.39 93.17
  L 416.39 95.25
  A 1.20 1.20 0.0 0 1 416.83 96.97
  C 412.29 103.78 403.70 105.58 396.89 101.36
  C 387.94 95.80 388.26 83.14 396.74 77.18
  Z"
/>
<path fill="#262533" d="
  M 478.02 74.70
  L 484.40 74.84
  A 0.69 0.69 0.0 0 1 485.03 75.29
  L 494.88 102.20
  A 0.69 0.69 0.0 0 1 494.25 103.13
  L 488.38 103.29
  A 0.69 0.69 0.0 0 1 487.70 102.80
  L 486.52 98.77
  A 0.69 0.69 0.0 0 0 485.85 98.27
  L 476.54 98.36
  A 0.69 0.69 0.0 0 0 475.88 98.85
  L 474.72 102.77
  A 0.69 0.69 0.0 0 1 474.05 103.26
  L 468.28 103.21
  A 0.69 0.69 0.0 0 1 467.64 102.29
  L 477.35 75.16
  A 0.69 0.69 0.0 0 1 478.02 74.70
  Z
  M 479.16 90.96
  A 0.80 0.80 0.0 0 0 479.93 91.99
  L 482.41 92.00
  A 0.80 0.80 0.0 0 0 483.19 90.98
  L 481.96 86.77
  A 0.80 0.80 0.0 0 0 480.42 86.77
  L 479.16 90.96
  Z"
/>
<path fill="#262533" d="
  M 425.82 81.25
  L 419.77 81.25
  A 0.45 0.45 0.0 0 1 419.32 80.81
  L 419.22 75.46
  A 0.45 0.45 0.0 0 1 419.67 75.00
  L 439.85 75.00
  A 0.45 0.45 0.0 0 1 440.30 75.48
  L 439.92 80.83
  A 0.45 0.45 0.0 0 1 439.47 81.25
  L 433.39 81.25
  A 0.45 0.45 0.0 0 0 432.94 81.70
  L 433.06 102.79
  A 0.45 0.45 0.0 0 1 432.61 103.24
  L 426.73 103.26
  A 0.45 0.45 0.0 0 1 426.28 102.81
  L 426.27 81.70
  A 0.45 0.45 0.0 0 0 425.82 81.25
  Z"
/>
<path fill="#262533" d="
  M 453.65 94.48
  A 1.95 1.95 0.0 0 0 450.00 95.44
  L 450.00 102.28
  Q 450.00 103.06 449.22 103.09
  L 443.92 103.31
  Q 443.25 103.34 443.25 102.67
  L 443.25 75.50
  Q 443.25 75.01 443.75 75.01
  C 448.62 74.99 455.66 74.26 459.56 76.13
  C 465.97 79.20 466.05 87.69 460.76 92.51
  Q 460.39 92.85 460.64 93.28
  L 465.25 101.07
  Q 465.48 101.46 465.87 101.67
  L 466.95 102.27
  A 0.42 0.42 0.0 0 1 466.76 103.06
  L 459.17 103.31
  A 0.88 0.87 -15.4 0 1 458.37 102.86
  L 453.65 94.48
  Z
  M 449.99 81.88
  L 449.99 86.98
  A 0.64 0.64 0.0 0 0 450.64 87.62
  L 453.98 87.61
  A 4.04 2.57 -0.1 0 0 458.01 85.03
  L 458.01 83.79
  A 4.04 2.57 -0.1 0 0 453.96 81.23
  L 450.62 81.24
  A 0.64 0.64 0.0 0 0 449.99 81.88
  Z"
/>
<path fill="#ffffff" d="
  M 449.99 81.88
  A 0.64 0.64 0.0 0 1 450.62 81.24
  L 453.96 81.23
  A 4.04 2.57 -0.1 0 1 458.01 83.79
  L 458.01 85.03
  A 4.04 2.57 -0.1 0 1 453.98 87.61
  L 450.64 87.62
  A 0.64 0.64 0.0 0 1 449.99 86.98
  L 449.99 81.88
  Z"
/>
<path fill="#ffffff" d="
  M 162.23 82.29
  A 0.81 0.81 0.0 0 1 163.03 81.48
  L 166.40 81.47
  A 8.34 7.50 -0.2 0 1 174.77 88.94
  L 174.77 89.16
  A 8.34 7.50 -0.2 0 1 166.46 96.69
  L 163.09 96.70
  A 0.81 0.81 0.0 0 1 162.27 95.89
  L 162.23 82.29
  Z"
/>
<rect fill="#ffffff" x="304.67" y="81.53" width="7.96" height="5.94" rx="1.88"/>
<path fill="#ffffff" d="
  M 354.07 82.52
  A 1.07 1.07 0.0 0 1 355.14 81.45
  L 357.73 81.46
  A 3.28 2.74 0.2 0 1 361.00 84.21
  L 361.00 84.73
  A 3.28 2.74 0.2 0 1 357.71 87.46
  L 355.12 87.45
  A 1.07 1.07 0.0 0 1 354.05 86.38
  L 354.07 82.52
  Z"
/>
<circle fill="#ffffff" cx="199.08" cy="89.18" r="7.51"/>
<circle fill="#ffffff" cx="280.31" cy="89.16" r="7.53"/>
<path fill="#ffffff" d="
  M 479.16 90.96
  L 480.42 86.77
  A 0.80 0.80 0.0 0 1 481.96 86.77
  L 483.19 90.98
  A 0.80 0.80 0.0 0 1 482.41 92.00
  L 479.93 91.99
  A 0.80 0.80 0.0 0 1 479.16 90.96
  Z"
/>
<path fill="#81cc2a" d="
  M 135.94 94.34
  A 0.77 0.77 0.0 0 1 136.70 95.16
  Q 135.74 110.71 128.70 124.55
  Q 128.43 125.07 127.94 124.76
  L 112.36 114.66
  Q 111.93 114.38 112.14 113.91
  Q 116.29 104.80 117.02 94.81
  A 0.65 0.64 1.9 0 1 117.67 94.21
  L 135.94 94.34
  Z"
/>
</svg>
